M48
; DRILL file {KiCad 7.0.7} date Mon Sep 25 11:45:25 2023
; FORMAT={-:-/ absolute / inch / decimal}
; #@! TF.CreationDate,2023-09-25T11:45:25+09:00
; #@! TF.GenerationSoftware,Kicad,Pcbnew,7.0.7
; #@! TF.FileFunction,NonPlated,1,2,NPTH
FMAT,2
INCH
; #@! TA.AperFunction,NonPlated,NPTH,ComponentDrill
T1C0.0256
; #@! TA.AperFunction,NonPlated,NPTH,ComponentDrill
T2C0.0670
; #@! TA.AperFunction,NonPlated,NPTH,ComponentDrill
T3C0.1181
; #@! TA.AperFunction,NonPlated,NPTH,ComponentDrill
T4C0.1570
%
G90
G05
T1
X14.7925Y-1.5197
X15.02Y-1.5197
T2
X1.675Y-1.875
X1.675Y-2.625
X1.675Y-3.375
X1.675Y-4.125
X1.675Y-4.875
X1.675Y-5.625
X2.075Y-1.875
X2.075Y-2.625
X2.075Y-3.375
X2.075Y-4.125
X2.075Y-4.875
X2.075Y-5.625
X2.425Y-1.875
X2.425Y-2.625
X2.425Y-3.375
X2.425Y-4.125
X2.425Y-4.875
X2.425Y-5.625
X2.825Y-1.875
X2.825Y-2.625
X2.825Y-3.375
X2.825Y-4.125
X2.825Y-4.875
X2.825Y-5.625
X3.3625Y-1.875
X3.3625Y-2.625
X3.3625Y-3.375
X3.3625Y-4.125
X3.3625Y-4.875
X3.3625Y-5.625
X3.7625Y-1.875
X3.7625Y-2.625
X3.7625Y-3.375
X3.7625Y-4.125
X3.7625Y-4.875
X3.7625Y-5.625
X4.1125Y-1.875
X4.1125Y-2.625
X4.1125Y-3.375
X4.1125Y-4.125
X4.1125Y-4.875
X4.1125Y-5.625
X4.5125Y-1.875
X4.5125Y-2.625
X4.5125Y-3.375
X4.5125Y-4.125
X4.5125Y-4.875
X4.5125Y-5.625
X5.05Y-1.875
X5.05Y-2.625
X5.05Y-3.375
X5.05Y-4.125
X5.05Y-4.875
X5.05Y-5.625
X5.45Y-1.875
X5.45Y-2.625
X5.45Y-3.375
X5.45Y-4.125
X5.45Y-4.875
X5.45Y-5.625
X5.8Y-1.875
X5.8Y-2.625
X5.8Y-3.375
X5.8Y-4.125
X5.8Y-4.875
X5.8Y-5.625
X6.2Y-1.875
X6.2Y-2.625
X6.2Y-3.375
X6.2Y-4.125
X6.2Y-4.875
X6.2Y-5.625
X6.7375Y-1.875
X6.7375Y-2.625
X6.7375Y-3.375
X6.7375Y-4.125
X6.7375Y-4.875
X6.7375Y-5.625
X7.1375Y-1.875
X7.1375Y-2.625
X7.1375Y-3.375
X7.1375Y-4.125
X7.1375Y-4.875
X7.1375Y-5.625
X7.4875Y-1.875
X7.4875Y-2.625
X7.4875Y-3.375
X7.4875Y-4.125
X7.4875Y-4.875
X7.4875Y-5.625
X7.8875Y-1.875
X7.8875Y-2.625
X7.8875Y-3.375
X7.8875Y-4.125
X7.8875Y-4.875
X7.8875Y-5.625
X8.425Y-1.875
X8.425Y-2.625
X8.425Y-3.375
X8.425Y-4.125
X8.425Y-4.875
X8.425Y-5.625
X8.825Y-1.875
X8.825Y-2.625
X8.825Y-3.375
X8.825Y-4.125
X8.825Y-4.875
X8.825Y-5.625
X9.175Y-1.875
X9.175Y-2.625
X9.175Y-3.375
X9.175Y-4.125
X9.175Y-4.875
X9.175Y-5.625
X9.575Y-1.875
X9.575Y-2.625
X9.575Y-3.375
X9.575Y-4.125
X9.575Y-4.875
X9.575Y-5.625
X10.1125Y-1.875
X10.1125Y-2.625
X10.1125Y-3.375
X10.1125Y-4.125
X10.1125Y-4.875
X10.1125Y-5.625
X10.5125Y-1.875
X10.5125Y-2.625
X10.5125Y-3.375
X10.5125Y-4.125
X10.5125Y-4.875
X10.5125Y-5.625
X10.8625Y-1.875
X10.8625Y-2.625
X10.8625Y-3.375
X10.8625Y-4.125
X10.8625Y-4.875
X10.8625Y-5.625
X11.2625Y-1.875
X11.2625Y-2.625
X11.2625Y-3.375
X11.2625Y-4.125
X11.2625Y-4.875
X11.2625Y-5.625
X11.8Y-1.875
X11.8Y-2.625
X11.8Y-3.375
X11.8Y-4.125
X11.8Y-4.875
X11.8Y-5.625
X12.2Y-1.875
X12.2Y-2.625
X12.2Y-3.375
X12.2Y-4.125
X12.2Y-4.875
X12.2Y-5.625
X12.55Y-1.875
X12.55Y-2.625
X12.55Y-3.375
X12.55Y-4.125
X12.55Y-4.875
X12.55Y-5.625
X12.95Y-1.875
X12.95Y-2.625
X12.95Y-3.375
X12.95Y-4.125
X12.95Y-4.875
X12.95Y-5.625
X13.4875Y-1.875
X13.4875Y-2.625
X13.4875Y-3.375
X13.4875Y-4.125
X13.4875Y-4.875
X13.4875Y-5.625
X13.8875Y-1.875
X13.8875Y-2.625
X13.8875Y-3.375
X13.8875Y-4.125
X13.8875Y-4.875
X13.8875Y-5.625
X14.2375Y-1.875
X14.2375Y-2.625
X14.2375Y-3.375
X14.2375Y-4.125
X14.2375Y-4.875
X14.2375Y-5.625
X14.6375Y-1.875
X14.6375Y-2.625
X14.6375Y-3.375
X14.6375Y-4.125
X14.6375Y-4.875
X14.6375Y-5.625
X15.175Y-1.875
X15.175Y-2.625
X15.175Y-3.375
X15.175Y-4.125
X15.175Y-4.875
X15.175Y-5.625
X15.575Y-1.875
X15.575Y-2.625
X15.575Y-3.375
X15.575Y-4.125
X15.575Y-4.875
X15.575Y-5.625
X15.925Y-1.875
X15.925Y-2.625
X15.925Y-3.375
X15.925Y-4.125
X15.925Y-4.875
X15.925Y-5.625
X16.325Y-1.875
X16.325Y-2.625
X16.325Y-3.375
X16.325Y-4.125
X16.325Y-4.875
X16.325Y-5.625
T3
X1.725Y-1.775
X1.725Y-2.525
X1.725Y-3.275
X1.725Y-4.025
X1.725Y-4.775
X1.725Y-5.525
X1.975Y-1.675
X1.975Y-2.425
X1.975Y-3.175
X1.975Y-3.925
X1.975Y-4.675
X1.975Y-5.425
X2.475Y-1.775
X2.475Y-2.525
X2.475Y-3.275
X2.475Y-4.025
X2.475Y-4.775
X2.475Y-5.525
X2.725Y-1.675
X2.725Y-2.425
X2.725Y-3.175
X2.725Y-3.925
X2.725Y-4.675
X2.725Y-5.425
X3.4125Y-1.775
X3.4125Y-2.525
X3.4125Y-3.275
X3.4125Y-4.025
X3.4125Y-4.775
X3.4125Y-5.525
X3.6625Y-1.675
X3.6625Y-2.425
X3.6625Y-3.175
X3.6625Y-3.925
X3.6625Y-4.675
X3.6625Y-5.425
X4.1625Y-1.775
X4.1625Y-2.525
X4.1625Y-3.275
X4.1625Y-4.025
X4.1625Y-4.775
X4.1625Y-5.525
X4.4125Y-1.675
X4.4125Y-2.425
X4.4125Y-3.175
X4.4125Y-3.925
X4.4125Y-4.675
X4.4125Y-5.425
X5.1Y-1.775
X5.1Y-2.525
X5.1Y-3.275
X5.1Y-4.025
X5.1Y-4.775
X5.1Y-5.525
X5.35Y-1.675
X5.35Y-2.425
X5.35Y-3.175
X5.35Y-3.925
X5.35Y-4.675
X5.35Y-5.425
X5.85Y-1.775
X5.85Y-2.525
X5.85Y-3.275
X5.85Y-4.025
X5.85Y-4.775
X5.85Y-5.525
X6.1Y-1.675
X6.1Y-2.425
X6.1Y-3.175
X6.1Y-3.925
X6.1Y-4.675
X6.1Y-5.425
X6.7875Y-1.775
X6.7875Y-2.525
X6.7875Y-3.275
X6.7875Y-4.025
X6.7875Y-4.775
X6.7875Y-5.525
X7.0375Y-1.675
X7.0375Y-2.425
X7.0375Y-3.175
X7.0375Y-3.925
X7.0375Y-4.675
X7.0375Y-5.425
X7.5375Y-1.775
X7.5375Y-2.525
X7.5375Y-3.275
X7.5375Y-4.025
X7.5375Y-4.775
X7.5375Y-5.525
X7.7875Y-1.675
X7.7875Y-2.425
X7.7875Y-3.175
X7.7875Y-3.925
X7.7875Y-4.675
X7.7875Y-5.425
X8.475Y-1.775
X8.475Y-2.525
X8.475Y-3.275
X8.475Y-4.025
X8.475Y-4.775
X8.475Y-5.525
X8.725Y-1.675
X8.725Y-2.425
X8.725Y-3.175
X8.725Y-3.925
X8.725Y-4.675
X8.725Y-5.425
X9.225Y-1.775
X9.225Y-2.525
X9.225Y-3.275
X9.225Y-4.025
X9.225Y-4.775
X9.225Y-5.525
X9.475Y-1.675
X9.475Y-2.425
X9.475Y-3.175
X9.475Y-3.925
X9.475Y-4.675
X9.475Y-5.425
X10.1625Y-1.775
X10.1625Y-2.525
X10.1625Y-3.275
X10.1625Y-4.025
X10.1625Y-4.775
X10.1625Y-5.525
X10.4125Y-1.675
X10.4125Y-2.425
X10.4125Y-3.175
X10.4125Y-3.925
X10.4125Y-4.675
X10.4125Y-5.425
X10.9125Y-1.775
X10.9125Y-2.525
X10.9125Y-3.275
X10.9125Y-4.025
X10.9125Y-4.775
X10.9125Y-5.525
X11.1625Y-1.675
X11.1625Y-2.425
X11.1625Y-3.175
X11.1625Y-3.925
X11.1625Y-4.675
X11.1625Y-5.425
X11.85Y-1.775
X11.85Y-2.525
X11.85Y-3.275
X11.85Y-4.025
X11.85Y-4.775
X11.85Y-5.525
X12.1Y-1.675
X12.1Y-2.425
X12.1Y-3.175
X12.1Y-3.925
X12.1Y-4.675
X12.1Y-5.425
X12.6Y-1.775
X12.6Y-2.525
X12.6Y-3.275
X12.6Y-4.025
X12.6Y-4.775
X12.6Y-5.525
X12.85Y-1.675
X12.85Y-2.425
X12.85Y-3.175
X12.85Y-3.925
X12.85Y-4.675
X12.85Y-5.425
X13.5375Y-1.775
X13.5375Y-2.525
X13.5375Y-3.275
X13.5375Y-4.025
X13.5375Y-4.775
X13.5375Y-5.525
X13.7875Y-1.675
X13.7875Y-2.425
X13.7875Y-3.175
X13.7875Y-3.925
X13.7875Y-4.675
X13.7875Y-5.425
X14.2875Y-1.775
X14.2875Y-2.525
X14.2875Y-3.275
X14.2875Y-4.025
X14.2875Y-4.775
X14.2875Y-5.525
X14.5375Y-1.675
X14.5375Y-2.425
X14.5375Y-3.175
X14.5375Y-3.925
X14.5375Y-4.675
X14.5375Y-5.425
X15.225Y-1.775
X15.225Y-2.525
X15.225Y-3.275
X15.225Y-4.025
X15.225Y-4.775
X15.225Y-5.525
X15.475Y-1.675
X15.475Y-2.425
X15.475Y-3.175
X15.475Y-3.925
X15.475Y-4.675
X15.475Y-5.425
X15.975Y-1.775
X15.975Y-2.525
X15.975Y-3.275
X15.975Y-4.025
X15.975Y-4.775
X15.975Y-5.525
X16.225Y-1.675
X16.225Y-2.425
X16.225Y-3.175
X16.225Y-3.925
X16.225Y-4.675
X16.225Y-5.425
T4
X1.875Y-1.875
X1.875Y-2.625
X1.875Y-3.375
X1.875Y-4.125
X1.875Y-4.875
X1.875Y-5.625
X2.625Y-1.875
X2.625Y-2.625
X2.625Y-3.375
X2.625Y-4.125
X2.625Y-4.875
X2.625Y-5.625
X3.5625Y-1.875
X3.5625Y-2.625
X3.5625Y-3.375
X3.5625Y-4.125
X3.5625Y-4.875
X3.5625Y-5.625
X4.3125Y-1.875
X4.3125Y-2.625
X4.3125Y-3.375
X4.3125Y-4.125
X4.3125Y-4.875
X4.3125Y-5.625
X5.25Y-1.875
X5.25Y-2.625
X5.25Y-3.375
X5.25Y-4.125
X5.25Y-4.875
X5.25Y-5.625
X6.0Y-1.875
X6.0Y-2.625
X6.0Y-3.375
X6.0Y-4.125
X6.0Y-4.875
X6.0Y-5.625
X6.9375Y-1.875
X6.9375Y-2.625
X6.9375Y-3.375
X6.9375Y-4.125
X6.9375Y-4.875
X6.9375Y-5.625
X7.6875Y-1.875
X7.6875Y-2.625
X7.6875Y-3.375
X7.6875Y-4.125
X7.6875Y-4.875
X7.6875Y-5.625
X8.625Y-1.875
X8.625Y-2.625
X8.625Y-3.375
X8.625Y-4.125
X8.625Y-4.875
X8.625Y-5.625
X9.375Y-1.875
X9.375Y-2.625
X9.375Y-3.375
X9.375Y-4.125
X9.375Y-4.875
X9.375Y-5.625
X10.3125Y-1.875
X10.3125Y-2.625
X10.3125Y-3.375
X10.3125Y-4.125
X10.3125Y-4.875
X10.3125Y-5.625
X11.0625Y-1.875
X11.0625Y-2.625
X11.0625Y-3.375
X11.0625Y-4.125
X11.0625Y-4.875
X11.0625Y-5.625
X12.0Y-1.875
X12.0Y-2.625
X12.0Y-3.375
X12.0Y-4.125
X12.0Y-4.875
X12.0Y-5.625
X12.75Y-1.875
X12.75Y-2.625
X12.75Y-3.375
X12.75Y-4.125
X12.75Y-4.875
X12.75Y-5.625
X13.6875Y-1.875
X13.6875Y-2.625
X13.6875Y-3.375
X13.6875Y-4.125
X13.6875Y-4.875
X13.6875Y-5.625
X14.4375Y-1.875
X14.4375Y-2.625
X14.4375Y-3.375
X14.4375Y-4.125
X14.4375Y-4.875
X14.4375Y-5.625
X15.375Y-1.875
X15.375Y-2.625
X15.375Y-3.375
X15.375Y-4.125
X15.375Y-4.875
X15.375Y-5.625
X16.125Y-1.875
X16.125Y-2.625
X16.125Y-3.375
X16.125Y-4.125
X16.125Y-4.875
X16.125Y-5.625
T0
M30
