%TF.GenerationSoftware,KiCad,Pcbnew,7.0.7*%
%TF.CreationDate,2023-09-25T11:45:10+09:00*%
%TF.ProjectId,Duet-Switch-Tester,44756574-2d53-4776-9974-63682d546573,rev?*%
%TF.SameCoordinates,Original*%
%TF.FileFunction,Copper,L2,Bot*%
%TF.FilePolarity,Positive*%
%FSLAX46Y46*%
G04 Gerber Fmt 4.6, Leading zero omitted, Abs format (unit mm)*
G04 Created by KiCad (PCBNEW 7.0.7) date 2023-09-25 11:45:10*
%MOMM*%
%LPD*%
G01*
G04 APERTURE LIST*
G04 Aperture macros list*
%AMRoundRect*
0 Rectangle with rounded corners*
0 $1 Rounding radius*
0 $2 $3 $4 $5 $6 $7 $8 $9 X,Y pos of 4 corners*
0 Add a 4 corners polygon primitive as box body*
4,1,4,$2,$3,$4,$5,$6,$7,$8,$9,$2,$3,0*
0 Add four circle primitives for the rounded corners*
1,1,$1+$1,$2,$3*
1,1,$1+$1,$4,$5*
1,1,$1+$1,$6,$7*
1,1,$1+$1,$8,$9*
0 Add four rect primitives between the rounded corners*
20,1,$1+$1,$2,$3,$4,$5,0*
20,1,$1+$1,$4,$5,$6,$7,0*
20,1,$1+$1,$6,$7,$8,$9,0*
20,1,$1+$1,$8,$9,$2,$3,0*%
G04 Aperture macros list end*
%ADD10C,0.300000*%
%TA.AperFunction,NonConductor*%
%ADD11C,0.300000*%
%TD*%
%TA.AperFunction,EtchedComponent*%
%ADD12C,0.010000*%
%TD*%
%TA.AperFunction,SMDPad,CuDef*%
%ADD13RoundRect,0.200000X-1.075000X-1.050000X1.075000X-1.050000X1.075000X1.050000X-1.075000X1.050000X0*%
%TD*%
%TA.AperFunction,ComponentPad*%
%ADD14C,4.400000*%
%TD*%
%TA.AperFunction,SMDPad,CuDef*%
%ADD15RoundRect,0.150300X0.449700X-0.299700X0.449700X0.299700X-0.449700X0.299700X-0.449700X-0.299700X0*%
%TD*%
%TA.AperFunction,SMDPad,CuDef*%
%ADD16RoundRect,0.135000X0.135000X0.185000X-0.135000X0.185000X-0.135000X-0.185000X0.135000X-0.185000X0*%
%TD*%
%TA.AperFunction,SMDPad,CuDef*%
%ADD17RoundRect,0.050000X-0.250000X0.550000X-0.250000X-0.550000X0.250000X-0.550000X0.250000X0.550000X0*%
%TD*%
%TA.AperFunction,SMDPad,CuDef*%
%ADD18RoundRect,0.050000X0.250000X0.050000X-0.250000X0.050000X-0.250000X-0.050000X0.250000X-0.050000X0*%
%TD*%
%TA.AperFunction,SMDPad,CuDef*%
%ADD19RoundRect,0.140000X0.140000X0.170000X-0.140000X0.170000X-0.140000X-0.170000X0.140000X-0.170000X0*%
%TD*%
%TA.AperFunction,SMDPad,CuDef*%
%ADD20RoundRect,0.225000X0.225000X0.250000X-0.225000X0.250000X-0.225000X-0.250000X0.225000X-0.250000X0*%
%TD*%
%TA.AperFunction,SMDPad,CuDef*%
%ADD21RoundRect,0.050000X0.387500X0.050000X-0.387500X0.050000X-0.387500X-0.050000X0.387500X-0.050000X0*%
%TD*%
%TA.AperFunction,SMDPad,CuDef*%
%ADD22RoundRect,0.050000X0.050000X0.387500X-0.050000X0.387500X-0.050000X-0.387500X0.050000X-0.387500X0*%
%TD*%
%TA.AperFunction,ComponentPad*%
%ADD23C,0.600000*%
%TD*%
%TA.AperFunction,SMDPad,CuDef*%
%ADD24RoundRect,0.144000X1.456000X1.456000X-1.456000X1.456000X-1.456000X-1.456000X1.456000X-1.456000X0*%
%TD*%
%TA.AperFunction,SMDPad,CuDef*%
%ADD25RoundRect,0.140000X-0.170000X0.140000X-0.170000X-0.140000X0.170000X-0.140000X0.170000X0.140000X0*%
%TD*%
%TA.AperFunction,SMDPad,CuDef*%
%ADD26RoundRect,0.140000X0.170000X-0.140000X0.170000X0.140000X-0.170000X0.140000X-0.170000X-0.140000X0*%
%TD*%
%TA.AperFunction,SMDPad,CuDef*%
%ADD27RoundRect,0.200000X0.200000X0.275000X-0.200000X0.275000X-0.200000X-0.275000X0.200000X-0.275000X0*%
%TD*%
%TA.AperFunction,SMDPad,CuDef*%
%ADD28RoundRect,0.140000X-0.140000X-0.170000X0.140000X-0.170000X0.140000X0.170000X-0.140000X0.170000X0*%
%TD*%
%TA.AperFunction,SMDPad,CuDef*%
%ADD29RoundRect,0.200000X-0.275000X0.200000X-0.275000X-0.200000X0.275000X-0.200000X0.275000X0.200000X0*%
%TD*%
%TA.AperFunction,SMDPad,CuDef*%
%ADD30RoundRect,0.135000X-0.185000X0.135000X-0.185000X-0.135000X0.185000X-0.135000X0.185000X0.135000X0*%
%TD*%
%TA.AperFunction,SMDPad,CuDef*%
%ADD31R,1.700000X1.000000*%
%TD*%
%TA.AperFunction,SMDPad,CuDef*%
%ADD32RoundRect,0.135000X0.185000X-0.135000X0.185000X0.135000X-0.185000X0.135000X-0.185000X-0.135000X0*%
%TD*%
%TA.AperFunction,SMDPad,CuDef*%
%ADD33RoundRect,0.150000X-0.150000X0.587500X-0.150000X-0.587500X0.150000X-0.587500X0.150000X0.587500X0*%
%TD*%
%TA.AperFunction,SMDPad,CuDef*%
%ADD34R,1.400000X1.200000*%
%TD*%
%TA.AperFunction,SMDPad,CuDef*%
%ADD35RoundRect,0.225000X-0.225000X-0.375000X0.225000X-0.375000X0.225000X0.375000X-0.225000X0.375000X0*%
%TD*%
%TA.AperFunction,SMDPad,CuDef*%
%ADD36RoundRect,0.250000X0.625000X-0.375000X0.625000X0.375000X-0.625000X0.375000X-0.625000X-0.375000X0*%
%TD*%
%TA.AperFunction,SMDPad,CuDef*%
%ADD37R,0.700000X1.000000*%
%TD*%
%TA.AperFunction,SMDPad,CuDef*%
%ADD38R,0.700000X0.600000*%
%TD*%
%TA.AperFunction,SMDPad,CuDef*%
%ADD39RoundRect,0.135000X-0.135000X-0.185000X0.135000X-0.185000X0.135000X0.185000X-0.135000X0.185000X0*%
%TD*%
%TA.AperFunction,SMDPad,CuDef*%
%ADD40R,0.600000X1.450000*%
%TD*%
%TA.AperFunction,SMDPad,CuDef*%
%ADD41R,0.300000X1.450000*%
%TD*%
%TA.AperFunction,ComponentPad*%
%ADD42O,1.000000X1.600000*%
%TD*%
%TA.AperFunction,ComponentPad*%
%ADD43O,1.000000X2.100000*%
%TD*%
%TA.AperFunction,SMDPad,CuDef*%
%ADD44RoundRect,0.200000X0.275000X-0.200000X0.275000X0.200000X-0.275000X0.200000X-0.275000X-0.200000X0*%
%TD*%
%TA.AperFunction,ViaPad*%
%ADD45C,0.800000*%
%TD*%
%TA.AperFunction,Conductor*%
%ADD46C,0.300000*%
%TD*%
%TA.AperFunction,Conductor*%
%ADD47C,0.500000*%
%TD*%
%TA.AperFunction,Conductor*%
%ADD48C,0.381000*%
%TD*%
%TA.AperFunction,Conductor*%
%ADD49C,0.200000*%
%TD*%
G04 APERTURE END LIST*
D10*
D11*
G36*
X383634222Y-129544056D02*
G01*
X383672325Y-129544342D01*
X383710064Y-129544914D01*
X383747437Y-129545773D01*
X383784446Y-129546918D01*
X383821089Y-129548349D01*
X383875370Y-129551032D01*
X383928830Y-129554360D01*
X383981469Y-129558331D01*
X384033287Y-129562946D01*
X384084284Y-129568206D01*
X384134460Y-129574109D01*
X384183814Y-129580656D01*
X384200808Y-129583189D01*
X384241729Y-129592653D01*
X384280414Y-129606588D01*
X384316863Y-129624996D01*
X384351075Y-129647876D01*
X384383051Y-129675228D01*
X384412792Y-129707052D01*
X384423883Y-129720698D01*
X384448480Y-129756001D01*
X384468605Y-129793005D01*
X384484258Y-129831707D01*
X384495438Y-129872109D01*
X384502147Y-129914211D01*
X384504383Y-129958012D01*
X384504383Y-133144465D01*
X384504025Y-133162193D01*
X384500000Y-133205354D01*
X384491503Y-133246861D01*
X384478533Y-133286713D01*
X384461092Y-133324910D01*
X384439178Y-133361452D01*
X384412792Y-133396340D01*
X384401142Y-133409496D01*
X384370266Y-133439285D01*
X384336886Y-133464647D01*
X384301001Y-133485582D01*
X384262611Y-133502089D01*
X384221717Y-133514168D01*
X384178319Y-133521820D01*
X384158803Y-133524130D01*
X384120141Y-133528531D01*
X384081974Y-133532638D01*
X384044300Y-133536452D01*
X384007119Y-133539973D01*
X383970433Y-133543200D01*
X383916329Y-133547491D01*
X383863336Y-133551121D01*
X383811453Y-133554092D01*
X383760682Y-133556402D01*
X383711022Y-133558052D01*
X383662472Y-133559042D01*
X383615034Y-133559372D01*
X383498333Y-133557360D01*
X383385337Y-133551322D01*
X383276045Y-133541260D01*
X383170459Y-133527172D01*
X383068577Y-133509060D01*
X382970401Y-133486922D01*
X382875928Y-133460760D01*
X382785161Y-133430572D01*
X382698099Y-133396360D01*
X382614741Y-133358122D01*
X382535088Y-133315860D01*
X382459140Y-133269572D01*
X382386897Y-133219260D01*
X382318358Y-133164923D01*
X382253524Y-133106560D01*
X382192395Y-133044173D01*
X382134971Y-132977760D01*
X382081252Y-132907323D01*
X382031237Y-132832860D01*
X381984927Y-132754373D01*
X381942322Y-132671860D01*
X381903422Y-132585323D01*
X381868226Y-132494760D01*
X381836736Y-132400173D01*
X381808950Y-132301560D01*
X381784869Y-132198923D01*
X381764492Y-132092261D01*
X381747821Y-131981573D01*
X381734854Y-131866861D01*
X381725592Y-131748123D01*
X381720035Y-131625361D01*
X381718183Y-131498573D01*
X382035088Y-131498573D01*
X382035461Y-131555790D01*
X382036583Y-131612035D01*
X382038453Y-131667309D01*
X382041070Y-131721612D01*
X382044435Y-131774943D01*
X382048547Y-131827303D01*
X382053408Y-131878691D01*
X382059016Y-131929109D01*
X382065372Y-131978554D01*
X382072475Y-132027029D01*
X382080327Y-132074532D01*
X382088926Y-132121063D01*
X382098273Y-132166624D01*
X382108368Y-132211213D01*
X382119210Y-132254830D01*
X382130800Y-132297476D01*
X382143138Y-132339151D01*
X382156224Y-132379855D01*
X382170057Y-132419587D01*
X382184639Y-132458348D01*
X382199968Y-132496137D01*
X382216044Y-132532955D01*
X382232869Y-132568802D01*
X382250441Y-132603677D01*
X382268761Y-132637581D01*
X382287829Y-132670513D01*
X382307644Y-132702474D01*
X382328208Y-132733464D01*
X382371577Y-132792530D01*
X382417938Y-132847710D01*
X382467372Y-132899283D01*
X382520191Y-132947530D01*
X382576394Y-132992449D01*
X382635982Y-133034040D01*
X382667045Y-133053588D01*
X382698955Y-133072305D01*
X382731710Y-133090189D01*
X382765312Y-133107242D01*
X382799759Y-133123462D01*
X382835053Y-133138851D01*
X382871193Y-133153408D01*
X382908179Y-133167134D01*
X382946012Y-133180027D01*
X382984690Y-133192089D01*
X383024215Y-133203318D01*
X383064586Y-133213716D01*
X383105802Y-133223282D01*
X383147865Y-133232017D01*
X383190775Y-133239919D01*
X383234530Y-133246990D01*
X383279131Y-133253228D01*
X383324579Y-133258635D01*
X383370873Y-133263210D01*
X383418013Y-133266954D01*
X383465999Y-133269865D01*
X383514831Y-133271945D01*
X383564509Y-133273192D01*
X383615034Y-133273608D01*
X383647763Y-133273404D01*
X383697233Y-133272334D01*
X383747154Y-133270345D01*
X383797525Y-133267439D01*
X383848347Y-133263615D01*
X383899621Y-133258874D01*
X383951344Y-133253215D01*
X384003519Y-133246638D01*
X384056145Y-133239143D01*
X384109221Y-133230731D01*
X384162748Y-133221401D01*
X384181982Y-133197588D01*
X384181982Y-129904889D01*
X384162748Y-129881075D01*
X384127013Y-129874753D01*
X384073787Y-129866035D01*
X384021011Y-129858235D01*
X383968686Y-129851352D01*
X383916812Y-129845387D01*
X383865388Y-129840339D01*
X383814416Y-129836210D01*
X383763894Y-129832998D01*
X383713823Y-129830704D01*
X383664203Y-129829327D01*
X383615034Y-129828868D01*
X383564844Y-129829264D01*
X383515485Y-129830453D01*
X383466957Y-129832434D01*
X383419258Y-129835208D01*
X383372389Y-129838774D01*
X383326350Y-129843133D01*
X383281141Y-129848284D01*
X383236762Y-129854227D01*
X383193214Y-129860963D01*
X383150495Y-129868492D01*
X383108606Y-129876813D01*
X383067548Y-129885927D01*
X383027319Y-129895832D01*
X382987921Y-129906531D01*
X382949353Y-129918022D01*
X382911614Y-129930305D01*
X382874706Y-129943381D01*
X382838627Y-129957249D01*
X382803379Y-129971910D01*
X382768961Y-129987364D01*
X382735373Y-130003609D01*
X382702615Y-130020648D01*
X382639589Y-130057102D01*
X382579883Y-130096725D01*
X382523497Y-130139519D01*
X382470431Y-130185483D01*
X382420686Y-130234617D01*
X382396963Y-130260418D01*
X382351775Y-130314671D01*
X382309601Y-130372459D01*
X382270438Y-130433782D01*
X382251987Y-130465770D01*
X382234288Y-130498640D01*
X382217343Y-130532395D01*
X382201151Y-130567033D01*
X382185712Y-130602555D01*
X382171026Y-130638961D01*
X382157093Y-130676250D01*
X382143914Y-130714423D01*
X382131487Y-130753480D01*
X382119814Y-130793420D01*
X382108894Y-130834245D01*
X382098726Y-130875953D01*
X382089312Y-130918544D01*
X382080651Y-130962020D01*
X382072744Y-131006379D01*
X382065589Y-131051621D01*
X382059188Y-131097748D01*
X382053539Y-131144758D01*
X382048644Y-131192652D01*
X382044502Y-131241430D01*
X382041113Y-131291091D01*
X382038477Y-131341636D01*
X382036594Y-131393065D01*
X382035464Y-131445377D01*
X382035088Y-131498573D01*
X381718183Y-131498573D01*
X381720035Y-131378322D01*
X381725592Y-131261889D01*
X381734854Y-131149273D01*
X381747821Y-131040475D01*
X381764492Y-130935494D01*
X381784869Y-130834331D01*
X381808950Y-130736985D01*
X381836736Y-130643456D01*
X381868226Y-130553745D01*
X381903422Y-130467852D01*
X381942322Y-130385776D01*
X381984927Y-130307517D01*
X382031237Y-130233076D01*
X382081252Y-130162453D01*
X382134971Y-130095647D01*
X382192395Y-130032658D01*
X382253524Y-129973487D01*
X382318358Y-129918134D01*
X382386897Y-129866598D01*
X382459140Y-129818879D01*
X382535088Y-129774978D01*
X382614741Y-129734894D01*
X382698099Y-129698628D01*
X382785161Y-129666179D01*
X382875928Y-129637548D01*
X382970401Y-129612735D01*
X383068577Y-129591739D01*
X383170459Y-129574560D01*
X383276045Y-129561199D01*
X383385337Y-129551655D01*
X383498333Y-129545929D01*
X383615034Y-129544020D01*
X383634222Y-129544056D01*
G37*
G36*
X378839475Y-133210410D02*
G01*
X378883897Y-133252667D01*
X378930608Y-133292198D01*
X378979610Y-133329003D01*
X379030901Y-133363081D01*
X379084481Y-133394433D01*
X379140352Y-133423059D01*
X379198512Y-133448959D01*
X379258962Y-133472132D01*
X379321702Y-133492579D01*
X379386732Y-133510300D01*
X379454051Y-133525294D01*
X379523661Y-133537562D01*
X379595560Y-133547104D01*
X379632368Y-133550853D01*
X379669748Y-133553920D01*
X379707701Y-133556305D01*
X379746227Y-133558009D01*
X379785325Y-133559032D01*
X379824995Y-133559372D01*
X379864666Y-133559032D01*
X379903767Y-133558009D01*
X379942297Y-133556305D01*
X379980256Y-133553920D01*
X380017645Y-133550853D01*
X380054463Y-133547104D01*
X380126387Y-133537562D01*
X380196028Y-133525294D01*
X380263387Y-133510300D01*
X380328463Y-133492579D01*
X380391257Y-133472132D01*
X380451768Y-133448959D01*
X380509996Y-133423059D01*
X380565942Y-133394433D01*
X380619605Y-133363081D01*
X380670985Y-133329003D01*
X380720083Y-133292198D01*
X380766898Y-133252667D01*
X380811431Y-133210410D01*
X380853355Y-133165509D01*
X380892575Y-133118046D01*
X380929090Y-133068022D01*
X380962900Y-133015436D01*
X380994005Y-132960288D01*
X381022405Y-132902578D01*
X381048101Y-132842307D01*
X381071092Y-132779474D01*
X381091378Y-132714080D01*
X381108959Y-132646124D01*
X381123835Y-132575606D01*
X381130259Y-132539386D01*
X381136007Y-132502526D01*
X381141078Y-132465025D01*
X381145474Y-132426885D01*
X381149193Y-132388103D01*
X381152236Y-132348682D01*
X381154602Y-132308619D01*
X381156293Y-132267917D01*
X381157307Y-132226574D01*
X381157645Y-132184590D01*
X381157645Y-129757427D01*
X381152905Y-129718877D01*
X381138683Y-129683367D01*
X381114980Y-129650899D01*
X381109102Y-129644770D01*
X381080130Y-129621304D01*
X381044030Y-129604238D01*
X381008023Y-129596985D01*
X380990949Y-129596227D01*
X380952005Y-129600699D01*
X380916460Y-129614116D01*
X380884314Y-129636477D01*
X380878292Y-129642022D01*
X380852693Y-129672577D01*
X380836576Y-129708140D01*
X380830176Y-129744429D01*
X380829749Y-129757427D01*
X380829749Y-132194665D01*
X380828763Y-132260708D01*
X380825803Y-132324653D01*
X380820870Y-132386502D01*
X380813964Y-132446255D01*
X380805085Y-132503910D01*
X380794233Y-132559470D01*
X380781407Y-132612932D01*
X380766609Y-132664299D01*
X380749837Y-132713568D01*
X380731092Y-132760741D01*
X380710374Y-132805818D01*
X380687683Y-132848797D01*
X380663019Y-132889681D01*
X380636381Y-132928467D01*
X380607771Y-132965157D01*
X380577187Y-132999751D01*
X380544630Y-133032248D01*
X380510100Y-133062648D01*
X380473597Y-133090952D01*
X380435120Y-133117159D01*
X380394671Y-133141270D01*
X380352248Y-133163284D01*
X380307853Y-133183201D01*
X380261484Y-133201022D01*
X380213142Y-133216747D01*
X380162827Y-133230374D01*
X380110538Y-133241906D01*
X380056277Y-133251340D01*
X380000042Y-133258678D01*
X379941835Y-133263920D01*
X379881654Y-133267064D01*
X379819500Y-133268113D01*
X379757684Y-133267064D01*
X379697830Y-133263920D01*
X379639939Y-133258678D01*
X379584010Y-133251340D01*
X379530044Y-133241906D01*
X379478040Y-133230374D01*
X379427999Y-133216747D01*
X379379920Y-133201022D01*
X379333803Y-133183201D01*
X379289649Y-133163284D01*
X379247457Y-133141270D01*
X379207228Y-133117159D01*
X379168961Y-133090952D01*
X379132656Y-133062648D01*
X379098314Y-133032248D01*
X379065934Y-132999751D01*
X379035517Y-132965157D01*
X379007062Y-132928467D01*
X378980569Y-132889681D01*
X378956039Y-132848797D01*
X378933471Y-132805818D01*
X378912866Y-132760741D01*
X378894223Y-132713568D01*
X378877543Y-132664299D01*
X378862825Y-132612932D01*
X378850069Y-132559470D01*
X378839276Y-132503910D01*
X378830445Y-132446255D01*
X378823577Y-132386502D01*
X378818670Y-132324653D01*
X378815727Y-132260708D01*
X378814746Y-132194665D01*
X378814746Y-129757427D01*
X378811196Y-129720156D01*
X378798924Y-129683161D01*
X378777887Y-129650818D01*
X378769866Y-129642022D01*
X378738918Y-129617872D01*
X378703319Y-129602667D01*
X378663069Y-129596406D01*
X378654461Y-129596227D01*
X378616747Y-129599849D01*
X378579431Y-129612372D01*
X378546945Y-129633838D01*
X378538141Y-129642022D01*
X378513991Y-129672970D01*
X378498785Y-129708569D01*
X378492524Y-129748819D01*
X378492345Y-129757427D01*
X378492345Y-132184590D01*
X378492684Y-132226574D01*
X378493701Y-132267917D01*
X378495396Y-132308619D01*
X378497769Y-132348682D01*
X378500820Y-132388103D01*
X378504549Y-132426885D01*
X378508956Y-132465025D01*
X378514041Y-132502526D01*
X378519804Y-132539386D01*
X378526245Y-132575606D01*
X378541160Y-132646124D01*
X378558788Y-132714080D01*
X378579128Y-132779474D01*
X378602179Y-132842307D01*
X378627943Y-132902578D01*
X378656418Y-132960288D01*
X378687606Y-133015436D01*
X378721505Y-133068022D01*
X378758117Y-133118046D01*
X378797440Y-133165509D01*
X378839475Y-133210410D01*
G37*
G36*
X377363943Y-133506250D02*
G01*
X377404618Y-133503857D01*
X377443638Y-133496679D01*
X377481004Y-133484716D01*
X377516714Y-133467967D01*
X377550770Y-133446434D01*
X377583171Y-133420115D01*
X377595669Y-133408247D01*
X377623902Y-133376508D01*
X377647350Y-133343114D01*
X377666012Y-133308065D01*
X377679889Y-133271361D01*
X377688981Y-133233003D01*
X377693288Y-133192990D01*
X377693671Y-133176522D01*
X377693671Y-129926871D01*
X377691278Y-129885954D01*
X377684100Y-129846782D01*
X377672137Y-129809354D01*
X377655389Y-129773670D01*
X377633855Y-129739731D01*
X377607536Y-129707535D01*
X377595669Y-129695145D01*
X377563929Y-129666648D01*
X377530535Y-129642981D01*
X377495486Y-129624144D01*
X377458783Y-129610137D01*
X377420425Y-129600960D01*
X377380412Y-129596613D01*
X377363943Y-129596227D01*
X375596236Y-129596227D01*
X375557165Y-129601422D01*
X375523074Y-129617007D01*
X375496401Y-129640191D01*
X375473457Y-129671734D01*
X375460037Y-129707174D01*
X375456101Y-129742773D01*
X375460863Y-129780908D01*
X375475149Y-129814714D01*
X375496401Y-129841691D01*
X375526380Y-129864635D01*
X375560905Y-129878055D01*
X375596236Y-129881991D01*
X377352952Y-129881991D01*
X377371270Y-129900309D01*
X377371270Y-131229296D01*
X377352952Y-131247614D01*
X375701565Y-131247614D01*
X375663430Y-131252376D01*
X375629623Y-131266662D01*
X375602647Y-131287914D01*
X375579181Y-131317893D01*
X375565456Y-131352418D01*
X375561431Y-131387748D01*
X375566301Y-131426405D01*
X375580912Y-131460516D01*
X375602647Y-131487582D01*
X375632518Y-131510527D01*
X375666718Y-131523947D01*
X375701565Y-131527882D01*
X377352952Y-131527882D01*
X377371270Y-131540705D01*
X377371270Y-133202167D01*
X377352952Y-133220485D01*
X375596236Y-133220485D01*
X375557579Y-133225247D01*
X375523467Y-133239533D01*
X375496401Y-133260785D01*
X375473457Y-133290765D01*
X375460037Y-133325289D01*
X375456101Y-133360620D01*
X375460863Y-133399188D01*
X375475149Y-133434293D01*
X375496401Y-133463202D01*
X375525967Y-133487710D01*
X375560511Y-133502046D01*
X375596236Y-133506250D01*
X377363943Y-133506250D01*
G37*
G36*
X374642773Y-129887486D02*
G01*
X374681754Y-129882400D01*
X374716840Y-129867140D01*
X374745355Y-129844439D01*
X374769863Y-129812895D01*
X374784198Y-129777455D01*
X374788402Y-129741857D01*
X374783316Y-129702875D01*
X374768056Y-129667789D01*
X374745355Y-129639275D01*
X374713811Y-129614766D01*
X374678371Y-129600431D01*
X374642773Y-129596227D01*
X372205534Y-129596227D01*
X372166661Y-129601314D01*
X372131900Y-129616574D01*
X372103868Y-129639275D01*
X372079359Y-129670818D01*
X372065024Y-129706258D01*
X372060820Y-129741857D01*
X372065907Y-129780838D01*
X372081167Y-129815924D01*
X372103868Y-129844439D01*
X372134890Y-129868947D01*
X372170025Y-129883283D01*
X372205534Y-129887486D01*
X373245093Y-129887486D01*
X373263411Y-129904889D01*
X373263411Y-133345049D01*
X373267251Y-133382763D01*
X373280524Y-133420080D01*
X373303279Y-133452566D01*
X373311954Y-133461370D01*
X373343421Y-133485037D01*
X373378286Y-133499938D01*
X373416551Y-133506074D01*
X373424611Y-133506250D01*
X373463162Y-133501867D01*
X373498671Y-133488718D01*
X373531140Y-133466805D01*
X373537268Y-133461370D01*
X373562867Y-133430333D01*
X373578985Y-133394465D01*
X373585385Y-133358055D01*
X373585812Y-133345049D01*
X373585812Y-129904889D01*
X373604130Y-129887486D01*
X374642773Y-129887486D01*
G37*
D10*
D11*
G36*
X369549594Y-131532442D02*
G01*
X369579238Y-131522089D01*
X369607940Y-131511371D01*
X369635702Y-131500288D01*
X369662523Y-131488839D01*
X369688402Y-131477026D01*
X369713341Y-131464847D01*
X369737338Y-131452304D01*
X369760395Y-131439395D01*
X369782510Y-131426121D01*
X369803684Y-131412482D01*
X369823917Y-131398478D01*
X369843209Y-131384109D01*
X369861560Y-131369374D01*
X369878970Y-131354275D01*
X369895439Y-131338810D01*
X369910966Y-131322981D01*
X369925553Y-131306786D01*
X369939199Y-131290226D01*
X369951903Y-131273301D01*
X369963667Y-131256011D01*
X369974489Y-131238356D01*
X369984370Y-131220335D01*
X369993310Y-131201950D01*
X370001310Y-131183199D01*
X370008368Y-131164084D01*
X370014485Y-131144603D01*
X370019661Y-131124757D01*
X370023895Y-131104546D01*
X370027189Y-131083970D01*
X370029542Y-131063029D01*
X370030953Y-131041722D01*
X370031424Y-131020051D01*
X370030926Y-130995636D01*
X370029433Y-130971903D01*
X370026945Y-130948852D01*
X370023461Y-130926483D01*
X370018982Y-130904796D01*
X370013508Y-130883792D01*
X370007038Y-130863470D01*
X369999573Y-130843830D01*
X369991113Y-130824872D01*
X369981657Y-130806596D01*
X369971206Y-130789002D01*
X369959760Y-130772091D01*
X369947318Y-130755862D01*
X369933881Y-130740315D01*
X369919449Y-130725450D01*
X369904021Y-130711267D01*
X369887709Y-130697858D01*
X369870626Y-130685314D01*
X369852770Y-130673635D01*
X369834143Y-130662821D01*
X369814743Y-130652872D01*
X369794571Y-130643789D01*
X369773627Y-130635570D01*
X369751911Y-130628217D01*
X369729423Y-130621728D01*
X369706163Y-130616105D01*
X369682130Y-130611347D01*
X369657326Y-130607454D01*
X369631750Y-130604426D01*
X369605401Y-130602264D01*
X369578280Y-130600966D01*
X369550388Y-130600533D01*
X369524507Y-130600777D01*
X369498860Y-130601507D01*
X369473444Y-130602724D01*
X369448262Y-130604428D01*
X369423312Y-130606619D01*
X369398594Y-130609296D01*
X369374109Y-130612460D01*
X369349857Y-130616111D01*
X369325837Y-130620249D01*
X369302049Y-130624874D01*
X369278495Y-130629986D01*
X369255172Y-130635584D01*
X369232083Y-130641669D01*
X369209226Y-130648241D01*
X369186601Y-130655300D01*
X369164209Y-130662846D01*
X369149572Y-130669390D01*
X369133871Y-130678894D01*
X369119652Y-130690411D01*
X369108642Y-130701886D01*
X369098722Y-130714839D01*
X369090089Y-130728690D01*
X369083243Y-130743155D01*
X369078182Y-130758234D01*
X369074908Y-130773927D01*
X369073420Y-130790233D01*
X369073320Y-130795806D01*
X369075280Y-130813120D01*
X369081159Y-130828152D01*
X369090957Y-130840903D01*
X369104675Y-130851371D01*
X369120303Y-130858465D01*
X369136228Y-130861492D01*
X369152451Y-130860450D01*
X369168972Y-130855340D01*
X369191849Y-130845535D01*
X369214739Y-130836363D01*
X369237641Y-130827824D01*
X369260555Y-130819917D01*
X369283482Y-130812643D01*
X369306422Y-130806001D01*
X369329373Y-130799991D01*
X369352337Y-130794615D01*
X369375314Y-130789871D01*
X369398303Y-130785759D01*
X369421304Y-130782280D01*
X369444318Y-130779434D01*
X369467344Y-130777220D01*
X369490382Y-130775638D01*
X369513433Y-130774689D01*
X369536496Y-130774373D01*
X369552907Y-130774612D01*
X369568899Y-130775328D01*
X369592102Y-130777298D01*
X369614364Y-130780342D01*
X369635683Y-130784461D01*
X369656061Y-130789654D01*
X369675497Y-130795921D01*
X369693991Y-130803263D01*
X369711543Y-130811679D01*
X369728153Y-130821170D01*
X369743821Y-130831735D01*
X369748835Y-130835495D01*
X369762950Y-130847436D01*
X369775677Y-130860485D01*
X369787015Y-130874645D01*
X369796965Y-130889913D01*
X369805526Y-130906291D01*
X369812699Y-130923778D01*
X369818484Y-130942374D01*
X369822881Y-130962080D01*
X369825889Y-130982894D01*
X369827508Y-131004819D01*
X369827817Y-131020051D01*
X369826682Y-131046435D01*
X369823278Y-131071908D01*
X369817603Y-131096469D01*
X369809659Y-131120118D01*
X369799445Y-131142856D01*
X369786962Y-131164682D01*
X369772208Y-131185596D01*
X369755185Y-131205599D01*
X369735892Y-131224690D01*
X369714330Y-131242870D01*
X369690498Y-131260138D01*
X369664396Y-131276495D01*
X369650493Y-131284331D01*
X369636024Y-131291939D01*
X369620987Y-131299320D01*
X369605382Y-131306472D01*
X369589210Y-131313397D01*
X369572471Y-131320094D01*
X369555164Y-131326563D01*
X369537290Y-131332804D01*
X369519521Y-131338737D01*
X369502084Y-131344728D01*
X369484979Y-131350777D01*
X369468206Y-131356884D01*
X369451764Y-131363050D01*
X369435654Y-131369273D01*
X369419876Y-131375555D01*
X369404430Y-131381895D01*
X369389315Y-131388293D01*
X369374532Y-131394749D01*
X369345962Y-131407836D01*
X369318719Y-131421155D01*
X369292803Y-131434707D01*
X369268214Y-131448491D01*
X369244952Y-131462508D01*
X369223018Y-131476757D01*
X369202410Y-131491239D01*
X369183130Y-131505954D01*
X369165177Y-131520901D01*
X369148550Y-131536081D01*
X369133251Y-131551493D01*
X369119073Y-131567297D01*
X369105810Y-131583654D01*
X369093461Y-131600562D01*
X369082027Y-131618022D01*
X369071508Y-131636035D01*
X369061903Y-131654599D01*
X369053214Y-131673715D01*
X369045438Y-131693383D01*
X369038578Y-131713603D01*
X369032632Y-131734374D01*
X369027601Y-131755698D01*
X369023485Y-131777574D01*
X369020284Y-131800002D01*
X369017997Y-131822981D01*
X369016625Y-131846513D01*
X369016168Y-131870596D01*
X369016710Y-131898893D01*
X369018338Y-131926335D01*
X369021051Y-131952921D01*
X369024850Y-131978651D01*
X369029733Y-132003525D01*
X369035702Y-132027543D01*
X369042756Y-132050706D01*
X369050896Y-132073012D01*
X369060120Y-132094463D01*
X369070430Y-132115058D01*
X369081826Y-132134798D01*
X369094306Y-132153681D01*
X369107872Y-132171709D01*
X369122523Y-132188881D01*
X369138259Y-132205197D01*
X369155081Y-132220657D01*
X369172939Y-132235172D01*
X369191787Y-132248750D01*
X369211624Y-132261392D01*
X369232450Y-132273097D01*
X369254266Y-132283866D01*
X369277070Y-132293698D01*
X369300863Y-132302594D01*
X369325646Y-132310554D01*
X369351418Y-132317577D01*
X369378179Y-132323664D01*
X369405929Y-132328814D01*
X369434668Y-132333028D01*
X369464396Y-132336305D01*
X369495114Y-132338647D01*
X369526821Y-132340051D01*
X369543045Y-132340402D01*
X369559516Y-132340519D01*
X369584268Y-132340237D01*
X369608713Y-132339391D01*
X369632850Y-132337980D01*
X369656681Y-132336005D01*
X369680205Y-132333465D01*
X369703422Y-132330361D01*
X369726331Y-132326693D01*
X369748934Y-132322461D01*
X369771230Y-132317664D01*
X369793219Y-132312303D01*
X369814901Y-132306377D01*
X369836276Y-132299887D01*
X369857344Y-132292833D01*
X369878105Y-132285215D01*
X369898559Y-132277032D01*
X369918706Y-132268285D01*
X369934381Y-132260313D01*
X369948515Y-132251280D01*
X369961107Y-132241187D01*
X369975497Y-132226080D01*
X369987147Y-132209088D01*
X369996055Y-132190211D01*
X370000937Y-132174816D01*
X370004278Y-132158360D01*
X370006077Y-132140844D01*
X370006420Y-132128578D01*
X370004460Y-132111338D01*
X369998581Y-132096528D01*
X369987282Y-132082774D01*
X369975065Y-132074203D01*
X369959214Y-132067654D01*
X369943413Y-132065471D01*
X369927661Y-132067654D01*
X369911959Y-132074203D01*
X369892728Y-132084825D01*
X369873237Y-132094761D01*
X369853485Y-132104012D01*
X369833473Y-132112578D01*
X369813200Y-132120458D01*
X369792667Y-132127654D01*
X369771873Y-132134164D01*
X369750819Y-132139988D01*
X369729505Y-132145128D01*
X369707930Y-132149582D01*
X369686095Y-132153351D01*
X369663999Y-132156435D01*
X369641642Y-132158833D01*
X369619026Y-132160546D01*
X369596148Y-132161574D01*
X369573011Y-132161917D01*
X369551571Y-132161632D01*
X369530813Y-132160779D01*
X369510735Y-132159356D01*
X369491337Y-132157365D01*
X369472620Y-132154804D01*
X369454584Y-132151675D01*
X369437229Y-132147977D01*
X369420554Y-132143709D01*
X369404559Y-132138873D01*
X369389245Y-132133468D01*
X369360660Y-132120950D01*
X369334796Y-132106156D01*
X369311656Y-132089087D01*
X369291237Y-132069741D01*
X369273541Y-132048120D01*
X369258568Y-132024222D01*
X369246317Y-131998049D01*
X369236788Y-131969600D01*
X369229982Y-131938874D01*
X369227600Y-131922658D01*
X369225898Y-131905873D01*
X369224877Y-131888519D01*
X369224537Y-131870596D01*
X369225196Y-131848762D01*
X369227174Y-131827611D01*
X369230471Y-131807143D01*
X369235086Y-131787360D01*
X369241020Y-131768260D01*
X369248272Y-131749844D01*
X369256843Y-131732112D01*
X369266732Y-131715063D01*
X369277940Y-131698698D01*
X369290467Y-131683017D01*
X369299550Y-131672943D01*
X369314494Y-131658220D01*
X369331196Y-131643817D01*
X369349657Y-131629736D01*
X369362940Y-131620527D01*
X369377005Y-131611460D01*
X369391852Y-131602536D01*
X369407479Y-131593755D01*
X369423888Y-131585117D01*
X369441079Y-131576620D01*
X369459051Y-131568267D01*
X369477804Y-131560056D01*
X369497339Y-131551988D01*
X369517655Y-131544063D01*
X369538752Y-131536280D01*
X369549594Y-131532442D01*
G37*
G36*
X368579980Y-132198828D02*
G01*
X368851853Y-131210560D01*
X368854813Y-131193345D01*
X368854317Y-131176776D01*
X368850364Y-131160853D01*
X368842954Y-131145575D01*
X368837168Y-131137135D01*
X368825200Y-131123990D01*
X368811523Y-131114073D01*
X368796137Y-131107385D01*
X368779042Y-131103926D01*
X368768505Y-131103399D01*
X368751845Y-131104390D01*
X368735799Y-131107362D01*
X368720366Y-131112315D01*
X368705548Y-131119250D01*
X368691343Y-131128166D01*
X368686745Y-131131578D01*
X368673852Y-131142611D01*
X368662857Y-131154871D01*
X368653759Y-131168359D01*
X368646559Y-131183075D01*
X368641257Y-131199019D01*
X368639911Y-131204607D01*
X368412888Y-132150010D01*
X368423604Y-132151598D01*
X368433923Y-132150010D01*
X368218806Y-131227230D01*
X368213405Y-131210608D01*
X368206628Y-131194975D01*
X368198475Y-131180329D01*
X368188946Y-131166673D01*
X368178041Y-131154004D01*
X368165760Y-131142324D01*
X368160463Y-131137929D01*
X368146529Y-131127981D01*
X368132013Y-131119720D01*
X368116917Y-131113144D01*
X368101239Y-131108255D01*
X368084979Y-131105051D01*
X368068138Y-131103534D01*
X368061239Y-131103399D01*
X368044032Y-131104252D01*
X368027387Y-131106810D01*
X368011304Y-131111073D01*
X367995782Y-131117042D01*
X367980823Y-131124716D01*
X367966426Y-131134096D01*
X367960825Y-131138326D01*
X367947604Y-131149610D01*
X367935972Y-131161883D01*
X367925930Y-131175145D01*
X367917476Y-131189395D01*
X367910612Y-131204633D01*
X367905337Y-131220859D01*
X367903672Y-131227627D01*
X367690539Y-132150010D01*
X367698874Y-132141278D01*
X367709193Y-132150010D01*
X367482567Y-131201829D01*
X367477050Y-131186285D01*
X367470027Y-131171801D01*
X367461497Y-131158378D01*
X367451460Y-131146015D01*
X367439916Y-131134713D01*
X367435733Y-131131181D01*
X367422408Y-131121740D01*
X367408329Y-131114251D01*
X367390951Y-131107984D01*
X367375240Y-131104728D01*
X367358775Y-131103426D01*
X367355957Y-131103399D01*
X367338870Y-131105013D01*
X367323378Y-131109856D01*
X367309481Y-131117928D01*
X367297180Y-131129228D01*
X367290867Y-131137135D01*
X367281946Y-131152084D01*
X367276368Y-131167414D01*
X367274085Y-131185398D01*
X367275670Y-131201541D01*
X367277372Y-131208576D01*
X367549245Y-132198828D01*
X367554646Y-132214516D01*
X367561423Y-132229332D01*
X367569576Y-132243275D01*
X367579105Y-132256347D01*
X367590010Y-132268546D01*
X367602291Y-132279874D01*
X367607588Y-132284160D01*
X367621360Y-132293765D01*
X367635635Y-132301742D01*
X367650414Y-132308090D01*
X367665696Y-132312811D01*
X367681483Y-132315904D01*
X367697773Y-132317369D01*
X367704431Y-132317500D01*
X367720933Y-132316656D01*
X367736950Y-132314127D01*
X367752483Y-132309912D01*
X367767531Y-132304011D01*
X367782095Y-132296424D01*
X367796174Y-132287151D01*
X367801670Y-132282970D01*
X367814492Y-132271743D01*
X367825918Y-132259644D01*
X367835949Y-132246674D01*
X367844584Y-132232831D01*
X367851824Y-132218116D01*
X367857669Y-132202529D01*
X367859617Y-132196050D01*
X368075130Y-131286764D01*
X368064811Y-131285177D01*
X368054095Y-131286764D01*
X368269609Y-132195653D01*
X368274105Y-132211598D01*
X368280151Y-132226691D01*
X368287748Y-132240931D01*
X368296895Y-132254319D01*
X368307593Y-132266854D01*
X368319841Y-132278536D01*
X368325174Y-132282970D01*
X368339059Y-132292917D01*
X368353429Y-132301179D01*
X368368284Y-132307754D01*
X368383623Y-132312644D01*
X368399446Y-132315847D01*
X368415754Y-132317365D01*
X368422413Y-132317500D01*
X368438934Y-132316686D01*
X368455010Y-132314244D01*
X368470639Y-132310174D01*
X368485823Y-132304476D01*
X368500561Y-132297151D01*
X368514854Y-132288198D01*
X368520446Y-132284160D01*
X368533620Y-132273182D01*
X368545361Y-132261331D01*
X368555667Y-132248608D01*
X368564539Y-132235014D01*
X368571977Y-132220547D01*
X368577980Y-132205208D01*
X368579980Y-132198828D01*
G37*
G36*
X366764981Y-132286542D02*
G01*
X366778707Y-132298604D01*
X366793838Y-132307704D01*
X366810375Y-132313841D01*
X366828317Y-132317016D01*
X366839200Y-132317500D01*
X366855368Y-132316411D01*
X366872960Y-132312390D01*
X366889184Y-132305407D01*
X366904042Y-132295460D01*
X366913817Y-132286542D01*
X366925415Y-132272330D01*
X366934165Y-132257131D01*
X366940066Y-132240945D01*
X366943119Y-132223770D01*
X366943584Y-132213513D01*
X366943584Y-131207385D01*
X366942159Y-131189666D01*
X366937886Y-131172972D01*
X366930764Y-131157303D01*
X366920793Y-131142660D01*
X366913817Y-131134754D01*
X366902003Y-131124098D01*
X366886950Y-131114453D01*
X366870530Y-131107808D01*
X366852743Y-131104164D01*
X366839200Y-131103399D01*
X366823047Y-131104501D01*
X366805507Y-131108574D01*
X366789372Y-131115647D01*
X366774642Y-131125721D01*
X366764981Y-131134754D01*
X366753382Y-131148810D01*
X366744633Y-131163893D01*
X366738731Y-131180001D01*
X366735679Y-131197134D01*
X366735214Y-131207385D01*
X366735214Y-132213513D01*
X366736638Y-132231252D01*
X366740912Y-132248003D01*
X366748034Y-132263766D01*
X366758005Y-132278542D01*
X366764981Y-132286542D01*
G37*
G36*
X366765378Y-130817635D02*
G01*
X366779085Y-130829233D01*
X366794159Y-130837983D01*
X366810601Y-130843884D01*
X366828410Y-130846937D01*
X366839200Y-130847402D01*
X366855233Y-130846355D01*
X366872703Y-130842489D01*
X366888843Y-130835774D01*
X366903654Y-130826210D01*
X366913420Y-130817635D01*
X366925173Y-130803773D01*
X366934040Y-130788582D01*
X366940019Y-130772062D01*
X366943112Y-130754212D01*
X366943584Y-130743415D01*
X366943584Y-130681500D01*
X366942159Y-130663780D01*
X366937886Y-130647086D01*
X366930764Y-130631418D01*
X366920793Y-130616775D01*
X366913817Y-130608868D01*
X366902003Y-130598212D01*
X366886950Y-130588567D01*
X366870530Y-130581923D01*
X366852743Y-130578279D01*
X366839200Y-130577513D01*
X366823047Y-130578616D01*
X366805507Y-130582688D01*
X366789372Y-130589761D01*
X366774642Y-130599835D01*
X366764981Y-130608868D01*
X366753382Y-130622925D01*
X366744633Y-130638007D01*
X366738731Y-130654115D01*
X366735679Y-130671249D01*
X366735214Y-130681500D01*
X366735214Y-130743415D01*
X366736275Y-130759448D01*
X366740192Y-130776918D01*
X366746997Y-130793058D01*
X366756688Y-130807869D01*
X366765378Y-130817635D01*
G37*
G36*
X366305774Y-131311769D02*
G01*
X366322518Y-131310330D01*
X366337823Y-131306014D01*
X366353322Y-131297718D01*
X366364118Y-131288749D01*
X366374189Y-131276321D01*
X366382079Y-131260620D01*
X366386036Y-131245135D01*
X366387137Y-131230405D01*
X366385699Y-131213686D01*
X366380641Y-131196656D01*
X366371941Y-131181510D01*
X366364118Y-131172459D01*
X366351690Y-131162214D01*
X366335989Y-131154187D01*
X366320504Y-131150162D01*
X366305774Y-131149042D01*
X366139078Y-131149042D01*
X366131140Y-131141104D01*
X366131140Y-130814063D01*
X366129754Y-130796457D01*
X366125595Y-130780105D01*
X366118663Y-130765006D01*
X366108958Y-130751161D01*
X366102167Y-130743812D01*
X366088884Y-130732523D01*
X366074385Y-130724006D01*
X366058670Y-130718263D01*
X366041740Y-130715292D01*
X366031520Y-130714839D01*
X366013895Y-130716225D01*
X365997486Y-130720385D01*
X365982293Y-130727317D01*
X365968314Y-130737022D01*
X365960873Y-130743812D01*
X365949583Y-130756941D01*
X365941067Y-130771324D01*
X365935323Y-130786959D01*
X365932352Y-130803849D01*
X365931899Y-130814063D01*
X365931899Y-131141104D01*
X365923961Y-131149042D01*
X365581045Y-131149042D01*
X365564325Y-131150505D01*
X365547295Y-131155651D01*
X365532149Y-131164500D01*
X365523098Y-131172459D01*
X365512853Y-131184713D01*
X365504826Y-131200278D01*
X365500802Y-131215694D01*
X365499681Y-131230405D01*
X365501145Y-131247149D01*
X365505535Y-131262454D01*
X365513974Y-131277953D01*
X365523098Y-131288749D01*
X365536988Y-131299876D01*
X365552763Y-131307362D01*
X365568366Y-131310959D01*
X365581045Y-131311769D01*
X365923961Y-131311769D01*
X365931899Y-131319310D01*
X365931899Y-131922986D01*
X365931743Y-131942541D01*
X365931273Y-131961218D01*
X365930490Y-131979018D01*
X365929394Y-131995940D01*
X365927985Y-132011985D01*
X365925284Y-132034407D01*
X365921878Y-132054854D01*
X365917767Y-132073328D01*
X365912952Y-132089826D01*
X365905436Y-132108753D01*
X365896667Y-132124170D01*
X365891813Y-132130562D01*
X365877397Y-132144169D01*
X365863142Y-132153393D01*
X365846470Y-132161142D01*
X365827378Y-132167415D01*
X365811473Y-132171151D01*
X365794207Y-132174057D01*
X365775580Y-132176132D01*
X365755593Y-132177377D01*
X365734246Y-132177793D01*
X365716764Y-132177619D01*
X365700038Y-132177098D01*
X365684070Y-132176230D01*
X365665173Y-132174656D01*
X365647458Y-132172540D01*
X365630925Y-132169881D01*
X365615574Y-132166680D01*
X365598890Y-132165438D01*
X365582770Y-132167963D01*
X365567216Y-132174256D01*
X365558818Y-132179380D01*
X365545772Y-132190717D01*
X365536995Y-132204189D01*
X365532488Y-132219796D01*
X365531830Y-132229389D01*
X365533219Y-132247175D01*
X365537386Y-132264018D01*
X365544332Y-132279919D01*
X365554056Y-132294877D01*
X365565938Y-132307726D01*
X365579358Y-132317698D01*
X365594316Y-132324792D01*
X365610812Y-132329009D01*
X365626489Y-132331707D01*
X365643159Y-132334045D01*
X365660820Y-132336023D01*
X365679474Y-132337642D01*
X365699121Y-132338901D01*
X365719759Y-132339800D01*
X365735889Y-132340238D01*
X365752577Y-132340474D01*
X365764013Y-132340519D01*
X365789366Y-132340178D01*
X365813730Y-132339155D01*
X365837105Y-132337450D01*
X365859491Y-132335062D01*
X365880888Y-132331992D01*
X365901295Y-132328240D01*
X365920713Y-132323806D01*
X365939143Y-132318690D01*
X365956583Y-132312892D01*
X365973034Y-132306411D01*
X365988496Y-132299249D01*
X366002968Y-132291404D01*
X366016452Y-132282877D01*
X366034823Y-132268807D01*
X366050968Y-132253203D01*
X366065295Y-132235535D01*
X366078214Y-132215426D01*
X366086043Y-132200664D01*
X366093246Y-132184816D01*
X366099823Y-132167883D01*
X366105773Y-132149864D01*
X366111097Y-132130761D01*
X366115795Y-132110572D01*
X366119866Y-132089297D01*
X366123311Y-132066938D01*
X366126130Y-132043493D01*
X366128322Y-132018963D01*
X366129888Y-131993348D01*
X366130827Y-131966648D01*
X366131140Y-131938862D01*
X366131140Y-131319310D01*
X366139078Y-131311769D01*
X366305774Y-131311769D01*
G37*
G36*
X364717799Y-132340519D02*
G01*
X364734890Y-132340363D01*
X364751735Y-132339893D01*
X364768332Y-132339110D01*
X364784682Y-132338014D01*
X364800784Y-132336605D01*
X364816639Y-132334882D01*
X364847608Y-132330498D01*
X364877588Y-132324861D01*
X364906578Y-132317971D01*
X364934579Y-132309828D01*
X364961591Y-132300433D01*
X364987614Y-132289785D01*
X365012648Y-132277884D01*
X365036693Y-132264731D01*
X365059748Y-132250325D01*
X365081815Y-132234666D01*
X365102892Y-132217755D01*
X365122980Y-132199591D01*
X365142079Y-132180174D01*
X365160102Y-132159501D01*
X365176962Y-132137669D01*
X365192660Y-132114677D01*
X365207195Y-132090525D01*
X365220567Y-132065214D01*
X365232776Y-132038743D01*
X365243822Y-132011112D01*
X365253706Y-131982322D01*
X365262426Y-131952372D01*
X365266351Y-131936962D01*
X365269985Y-131921262D01*
X365273328Y-131905272D01*
X365276380Y-131888993D01*
X365279141Y-131872423D01*
X365281612Y-131855564D01*
X365283793Y-131838414D01*
X365285682Y-131820975D01*
X365287281Y-131803246D01*
X365288589Y-131785227D01*
X365289606Y-131766918D01*
X365290333Y-131748318D01*
X365290769Y-131729430D01*
X365290915Y-131710251D01*
X365290774Y-131691242D01*
X365290352Y-131672516D01*
X365289648Y-131654073D01*
X365288663Y-131635914D01*
X365287397Y-131618037D01*
X365285849Y-131600443D01*
X365284020Y-131583132D01*
X365281910Y-131566104D01*
X365279518Y-131549358D01*
X365276845Y-131532896D01*
X365273890Y-131516717D01*
X365270654Y-131500821D01*
X365267137Y-131485207D01*
X365259258Y-131454829D01*
X365250253Y-131425583D01*
X365240123Y-131397469D01*
X365228868Y-131370486D01*
X365216486Y-131344635D01*
X365202980Y-131319916D01*
X365188347Y-131296329D01*
X365172589Y-131273873D01*
X365155706Y-131252549D01*
X365146842Y-131242312D01*
X365128326Y-131222703D01*
X365108895Y-131204359D01*
X365088549Y-131187280D01*
X365067289Y-131171466D01*
X365045114Y-131156918D01*
X365022025Y-131143634D01*
X364998020Y-131131616D01*
X364973101Y-131120862D01*
X364947267Y-131111374D01*
X364920519Y-131103151D01*
X364892856Y-131096193D01*
X364864278Y-131090500D01*
X364834785Y-131086072D01*
X364804378Y-131082909D01*
X364773055Y-131081011D01*
X364757051Y-131080537D01*
X364740819Y-131080379D01*
X364718151Y-131080606D01*
X364695247Y-131081286D01*
X364672105Y-131082420D01*
X364648727Y-131084007D01*
X364625111Y-131086047D01*
X364609235Y-131087660D01*
X364593254Y-131089474D01*
X364577167Y-131091489D01*
X364560975Y-131093706D01*
X364544677Y-131096125D01*
X364528275Y-131098745D01*
X364511766Y-131101567D01*
X364495152Y-131104590D01*
X364486806Y-131106177D01*
X364469467Y-131111337D01*
X364453566Y-131119275D01*
X364439104Y-131129991D01*
X364427630Y-131141646D01*
X364426081Y-131143485D01*
X364416338Y-131156809D01*
X364408988Y-131171083D01*
X364404031Y-131186307D01*
X364401467Y-131202480D01*
X364401077Y-131212148D01*
X364402912Y-131228297D01*
X364409366Y-131244270D01*
X364420466Y-131257920D01*
X364430447Y-131265729D01*
X364445182Y-131273567D01*
X364462351Y-131278353D01*
X364480149Y-131278870D01*
X364492363Y-131276842D01*
X364514003Y-131271593D01*
X364535762Y-131266861D01*
X364557640Y-131262644D01*
X364579636Y-131258944D01*
X364601751Y-131255761D01*
X364623984Y-131253093D01*
X364646336Y-131250942D01*
X364668807Y-131249307D01*
X364691396Y-131248189D01*
X364714104Y-131247586D01*
X364729309Y-131247472D01*
X364751041Y-131247924D01*
X364772083Y-131249279D01*
X364792436Y-131251539D01*
X364812098Y-131254703D01*
X364831071Y-131258770D01*
X364849354Y-131263741D01*
X364866947Y-131269616D01*
X364883849Y-131276395D01*
X364900062Y-131284078D01*
X364915586Y-131292665D01*
X364930419Y-131302155D01*
X364944562Y-131312550D01*
X364958015Y-131323848D01*
X364970779Y-131336050D01*
X364982852Y-131349156D01*
X364994236Y-131363166D01*
X365004929Y-131378080D01*
X365014933Y-131393898D01*
X365024247Y-131410619D01*
X365032871Y-131428245D01*
X365040805Y-131446774D01*
X365048049Y-131466207D01*
X365054603Y-131486544D01*
X365060468Y-131507785D01*
X365065642Y-131529930D01*
X365070126Y-131552978D01*
X365073921Y-131576931D01*
X365077026Y-131601787D01*
X365079440Y-131627547D01*
X365081165Y-131654211D01*
X365082200Y-131681779D01*
X365082545Y-131710251D01*
X365082184Y-131739999D01*
X365081100Y-131768718D01*
X365079294Y-131796408D01*
X365076765Y-131823068D01*
X365073514Y-131848699D01*
X365069540Y-131873300D01*
X365064844Y-131896872D01*
X365059426Y-131919414D01*
X365053285Y-131940927D01*
X365046421Y-131961411D01*
X365038835Y-131980865D01*
X365030527Y-131999289D01*
X365021496Y-132016684D01*
X365011743Y-132033050D01*
X365001267Y-132048386D01*
X364990068Y-132062693D01*
X364978078Y-132076054D01*
X364965325Y-132088553D01*
X364951808Y-132100190D01*
X364937529Y-132110965D01*
X364922488Y-132120879D01*
X364906683Y-132129930D01*
X364890116Y-132138119D01*
X364872786Y-132145446D01*
X364854693Y-132151911D01*
X364835838Y-132157514D01*
X364816219Y-132162255D01*
X364795838Y-132166134D01*
X364774694Y-132169151D01*
X364752787Y-132171306D01*
X364730118Y-132172599D01*
X364706686Y-132173030D01*
X364683223Y-132172737D01*
X364660165Y-132171858D01*
X364637512Y-132170393D01*
X364615263Y-132168342D01*
X364593420Y-132165704D01*
X364571980Y-132162481D01*
X364550946Y-132158672D01*
X364530316Y-132154277D01*
X364510090Y-132149295D01*
X364490270Y-132143728D01*
X364477281Y-132139691D01*
X364460087Y-132135697D01*
X364443332Y-132136663D01*
X364427017Y-132142590D01*
X364418143Y-132148025D01*
X364405815Y-132158841D01*
X364396156Y-132173143D01*
X364390954Y-132189706D01*
X364389964Y-132202003D01*
X364391065Y-132218486D01*
X364394370Y-132234246D01*
X364399878Y-132249285D01*
X364407588Y-132263602D01*
X364412984Y-132271460D01*
X364423815Y-132283862D01*
X364436165Y-132294326D01*
X364450034Y-132302854D01*
X364465423Y-132309444D01*
X364474899Y-132312340D01*
X364495513Y-132317376D01*
X364516573Y-132321917D01*
X364538080Y-132325962D01*
X364560033Y-132329512D01*
X364582433Y-132332566D01*
X364605279Y-132335126D01*
X364628572Y-132337190D01*
X364652311Y-132338758D01*
X364668385Y-132339529D01*
X364684658Y-132340079D01*
X364701129Y-132340409D01*
X364717799Y-132340519D01*
G37*
G36*
X363906149Y-132288526D02*
G01*
X363919297Y-132299816D01*
X363933736Y-132308332D01*
X363949467Y-132314076D01*
X363966490Y-132317047D01*
X363976796Y-132317500D01*
X363994478Y-132316132D01*
X364011058Y-132312030D01*
X364026537Y-132305193D01*
X364040914Y-132295621D01*
X364048634Y-132288923D01*
X364060233Y-132275621D01*
X364068983Y-132261064D01*
X364074884Y-132245255D01*
X364077936Y-132228192D01*
X364078401Y-132217879D01*
X364078401Y-130677134D01*
X364076977Y-130659374D01*
X364072704Y-130642905D01*
X364065582Y-130627728D01*
X364055611Y-130613842D01*
X364048634Y-130606487D01*
X364034887Y-130595197D01*
X364020038Y-130586681D01*
X364004087Y-130580937D01*
X363987035Y-130577966D01*
X363976796Y-130577513D01*
X363959036Y-130578900D01*
X363942567Y-130583059D01*
X363927390Y-130589991D01*
X363913504Y-130599696D01*
X363906149Y-130606487D01*
X363894860Y-130619770D01*
X363886343Y-130634269D01*
X363880599Y-130649984D01*
X363877629Y-130666914D01*
X363877176Y-130677134D01*
X363877176Y-131294305D01*
X363887892Y-131291924D01*
X363892258Y-131285970D01*
X363881711Y-131273322D01*
X363871055Y-131261075D01*
X363860291Y-131249229D01*
X363838437Y-131226742D01*
X363816149Y-131205862D01*
X363793426Y-131186588D01*
X363770270Y-131168920D01*
X363746680Y-131152858D01*
X363722655Y-131138402D01*
X363698197Y-131125553D01*
X363673304Y-131114310D01*
X363647977Y-131104672D01*
X363622216Y-131096642D01*
X363596021Y-131090217D01*
X363569392Y-131085398D01*
X363542329Y-131082186D01*
X363514831Y-131080580D01*
X363500920Y-131080379D01*
X363474636Y-131080847D01*
X363449268Y-131082252D01*
X363424814Y-131084593D01*
X363401274Y-131087870D01*
X363378650Y-131092084D01*
X363356940Y-131097235D01*
X363336145Y-131103321D01*
X363316265Y-131110344D01*
X363297299Y-131118304D01*
X363279248Y-131127200D01*
X363262112Y-131137033D01*
X363245890Y-131147801D01*
X363230583Y-131159507D01*
X363216191Y-131172148D01*
X363202714Y-131185727D01*
X363190151Y-131200241D01*
X363178376Y-131215787D01*
X363167361Y-131232557D01*
X363157105Y-131250552D01*
X363147609Y-131269772D01*
X363138873Y-131290217D01*
X363130896Y-131311886D01*
X363123679Y-131334781D01*
X363117222Y-131358900D01*
X363111524Y-131384244D01*
X363106586Y-131410812D01*
X363102408Y-131438606D01*
X363098990Y-131467624D01*
X363096331Y-131497867D01*
X363094431Y-131529335D01*
X363093767Y-131545528D01*
X363093292Y-131562028D01*
X363093007Y-131578833D01*
X363092912Y-131595945D01*
X363092912Y-132217879D01*
X363094242Y-132235504D01*
X363098230Y-132251913D01*
X363104877Y-132267106D01*
X363114183Y-132281084D01*
X363120695Y-132288526D01*
X363133379Y-132299816D01*
X363147468Y-132308332D01*
X363162963Y-132314076D01*
X363179863Y-132317047D01*
X363190151Y-132317500D01*
X363207776Y-132316113D01*
X363224185Y-132311954D01*
X363239379Y-132305022D01*
X363253357Y-132295317D01*
X363260799Y-132288526D01*
X363272088Y-132275243D01*
X363280604Y-132260744D01*
X363286348Y-132245029D01*
X363289319Y-132228099D01*
X363289772Y-132217879D01*
X363289772Y-131625712D01*
X363289997Y-131598026D01*
X363290671Y-131571524D01*
X363291795Y-131546206D01*
X363293369Y-131522073D01*
X363295392Y-131499124D01*
X363297865Y-131477360D01*
X363300787Y-131456781D01*
X363304159Y-131437386D01*
X363307981Y-131419175D01*
X363312252Y-131402149D01*
X363316973Y-131386307D01*
X363324897Y-131364766D01*
X363333833Y-131345889D01*
X363343781Y-131329678D01*
X363347322Y-131324866D01*
X363358788Y-131311460D01*
X363371754Y-131299373D01*
X363386220Y-131288605D01*
X363402186Y-131279155D01*
X363419652Y-131271024D01*
X363438618Y-131264211D01*
X363459084Y-131258717D01*
X363481050Y-131254541D01*
X363504516Y-131251684D01*
X363520994Y-131250512D01*
X363538138Y-131249926D01*
X363546960Y-131249853D01*
X363568198Y-131250816D01*
X363589345Y-131253704D01*
X363610402Y-131258518D01*
X363631368Y-131265257D01*
X363652243Y-131273922D01*
X363673028Y-131284513D01*
X363686834Y-131292643D01*
X363700600Y-131301629D01*
X363714325Y-131311471D01*
X363728010Y-131322168D01*
X363741655Y-131333722D01*
X363755259Y-131346131D01*
X363768824Y-131359396D01*
X363781944Y-131373058D01*
X363794219Y-131386757D01*
X363805646Y-131400493D01*
X363816228Y-131414267D01*
X363825963Y-131428077D01*
X363834851Y-131441925D01*
X363842893Y-131455810D01*
X363853368Y-131476708D01*
X363861939Y-131497689D01*
X363868605Y-131518754D01*
X363873367Y-131539902D01*
X363876224Y-131561135D01*
X363877176Y-131582451D01*
X363877176Y-132217879D01*
X363878562Y-132235504D01*
X363882722Y-132251913D01*
X363889654Y-132267106D01*
X363899359Y-132281084D01*
X363906149Y-132288526D01*
G37*
G36*
X362124092Y-130804140D02*
G01*
X362141903Y-130802478D01*
X362158424Y-130797492D01*
X362173655Y-130789182D01*
X362187595Y-130777548D01*
X362197957Y-130765402D01*
X362206682Y-130750264D01*
X362212084Y-130733786D01*
X362214161Y-130715970D01*
X362214187Y-130713648D01*
X362212525Y-130695664D01*
X362207539Y-130679019D01*
X362199229Y-130663714D01*
X362187595Y-130649748D01*
X362175468Y-130639387D01*
X362160398Y-130630661D01*
X362144039Y-130625260D01*
X362126389Y-130623182D01*
X362124092Y-130623156D01*
X361104470Y-130623156D01*
X361086486Y-130624818D01*
X361069841Y-130629804D01*
X361054536Y-130638114D01*
X361040570Y-130649748D01*
X361030208Y-130661895D01*
X361021483Y-130677033D01*
X361016082Y-130693510D01*
X361014004Y-130711327D01*
X361013978Y-130713648D01*
X361015640Y-130731633D01*
X361020626Y-130748277D01*
X361028936Y-130763583D01*
X361040570Y-130777548D01*
X361052717Y-130787910D01*
X361067855Y-130796635D01*
X361084332Y-130802037D01*
X361102149Y-130804114D01*
X361104470Y-130804140D01*
X361502158Y-130804140D01*
X361510096Y-130812078D01*
X361510096Y-132213513D01*
X361511521Y-132231252D01*
X361515794Y-132248003D01*
X361522916Y-132263766D01*
X361532887Y-132278542D01*
X361539863Y-132286542D01*
X361553589Y-132298604D01*
X361568720Y-132307704D01*
X361585257Y-132313841D01*
X361603199Y-132317016D01*
X361614083Y-132317500D01*
X361630236Y-132316411D01*
X361647777Y-132312390D01*
X361663912Y-132305407D01*
X361678641Y-132295460D01*
X361688302Y-132286542D01*
X361699901Y-132272330D01*
X361708651Y-132257131D01*
X361714552Y-132240945D01*
X361717604Y-132223770D01*
X361718069Y-132213513D01*
X361718069Y-130812078D01*
X361726007Y-130804140D01*
X362124092Y-130804140D01*
G37*
G36*
X360515761Y-131080979D02*
G01*
X360545779Y-131082779D01*
X360574972Y-131085779D01*
X360603341Y-131089979D01*
X360630885Y-131095379D01*
X360657604Y-131101979D01*
X360683498Y-131109779D01*
X360708568Y-131118779D01*
X360732812Y-131128978D01*
X360756232Y-131140378D01*
X360778827Y-131152978D01*
X360800598Y-131166778D01*
X360821543Y-131181778D01*
X360841664Y-131197978D01*
X360860960Y-131215377D01*
X360879431Y-131233977D01*
X360888295Y-131243742D01*
X360905178Y-131264263D01*
X360920936Y-131286104D01*
X360935568Y-131309267D01*
X360949075Y-131333750D01*
X360961457Y-131359555D01*
X360972712Y-131386680D01*
X360982842Y-131415126D01*
X360991847Y-131444893D01*
X360995927Y-131460272D01*
X360999726Y-131475981D01*
X361003243Y-131492021D01*
X361006479Y-131508390D01*
X361009434Y-131525090D01*
X361012107Y-131542120D01*
X361014499Y-131559480D01*
X361016609Y-131577171D01*
X361018438Y-131595192D01*
X361019986Y-131613543D01*
X361021252Y-131632224D01*
X361022237Y-131651235D01*
X361022941Y-131670577D01*
X361023363Y-131690249D01*
X361023504Y-131710251D01*
X361023357Y-131729720D01*
X361022917Y-131748886D01*
X361022185Y-131767748D01*
X361021159Y-131786306D01*
X361019841Y-131804560D01*
X361018229Y-131822510D01*
X361016325Y-131840156D01*
X361014127Y-131857499D01*
X361011636Y-131874537D01*
X361008853Y-131891272D01*
X361005776Y-131907703D01*
X361002406Y-131923830D01*
X360998743Y-131939653D01*
X360994788Y-131955172D01*
X360985997Y-131985299D01*
X360976034Y-132014210D01*
X360964900Y-132041906D01*
X360952593Y-132068386D01*
X360939114Y-132093651D01*
X360924463Y-132117700D01*
X360908640Y-132140534D01*
X360891645Y-132162152D01*
X360873477Y-132182555D01*
X360854191Y-132201684D01*
X360833837Y-132219578D01*
X360812418Y-132236238D01*
X360789931Y-132251665D01*
X360766378Y-132265857D01*
X360741758Y-132278815D01*
X360716071Y-132290539D01*
X360689318Y-132301028D01*
X360661498Y-132310284D01*
X360632612Y-132318306D01*
X360602659Y-132325093D01*
X360571639Y-132330647D01*
X360555729Y-132332961D01*
X360539553Y-132334966D01*
X360523109Y-132336663D01*
X360506399Y-132338051D01*
X360489423Y-132339131D01*
X360472180Y-132339902D01*
X360454670Y-132340365D01*
X360436893Y-132340519D01*
X360419495Y-132340374D01*
X360402029Y-132339936D01*
X360384494Y-132339208D01*
X360366891Y-132338188D01*
X360349220Y-132336876D01*
X360331481Y-132335273D01*
X360313673Y-132333378D01*
X360295797Y-132331192D01*
X360277853Y-132328715D01*
X360259841Y-132325946D01*
X360241761Y-132322885D01*
X360223612Y-132319534D01*
X360205395Y-132315890D01*
X360187110Y-132311955D01*
X360168757Y-132307729D01*
X360150335Y-132303211D01*
X360131452Y-132297010D01*
X360115086Y-132288725D01*
X360101238Y-132278356D01*
X360089908Y-132265903D01*
X360081096Y-132251367D01*
X360074801Y-132234747D01*
X360071025Y-132216043D01*
X360069766Y-132195256D01*
X360070770Y-132182879D01*
X360076045Y-132166460D01*
X360085840Y-132152615D01*
X360098342Y-132142469D01*
X360109021Y-132136655D01*
X360125458Y-132131806D01*
X360142397Y-132131604D01*
X360157876Y-132135325D01*
X360174671Y-132141044D01*
X360191420Y-132146395D01*
X360208122Y-132151376D01*
X360224778Y-132155988D01*
X360241387Y-132160232D01*
X360257950Y-132164106D01*
X360274466Y-132167611D01*
X360290935Y-132170748D01*
X360307358Y-132173515D01*
X360323735Y-132175914D01*
X360340065Y-132177943D01*
X360356348Y-132179603D01*
X360372585Y-132180895D01*
X360388776Y-132181817D01*
X360404920Y-132182371D01*
X360421017Y-132182555D01*
X360444478Y-132182158D01*
X360467234Y-132180968D01*
X360489284Y-132178983D01*
X360510629Y-132176205D01*
X360531268Y-132172633D01*
X360551202Y-132168267D01*
X360570430Y-132163107D01*
X360588954Y-132157154D01*
X360606771Y-132150407D01*
X360623883Y-132142866D01*
X360640290Y-132134531D01*
X360655991Y-132125403D01*
X360670987Y-132115480D01*
X360685278Y-132104764D01*
X360698863Y-132093254D01*
X360711743Y-132080950D01*
X360723917Y-132067853D01*
X360735386Y-132053961D01*
X360746149Y-132039276D01*
X360756207Y-132023797D01*
X360765560Y-132007525D01*
X360774207Y-131990458D01*
X360782149Y-131972598D01*
X360789385Y-131953944D01*
X360795916Y-131934496D01*
X360801742Y-131914255D01*
X360806862Y-131893219D01*
X360811277Y-131871390D01*
X360814986Y-131848767D01*
X360817990Y-131825350D01*
X360820288Y-131801140D01*
X360821881Y-131776135D01*
X360816325Y-131768991D01*
X360139619Y-131768991D01*
X360132190Y-131768830D01*
X360114159Y-131767016D01*
X360096903Y-131763187D01*
X360080423Y-131757342D01*
X360064718Y-131749481D01*
X360049788Y-131739605D01*
X360035633Y-131727714D01*
X360030309Y-131722429D01*
X360018600Y-131708551D01*
X360009177Y-131693724D01*
X360002042Y-131677947D01*
X359997193Y-131661220D01*
X359994631Y-131643544D01*
X359994356Y-131624918D01*
X359995754Y-131603486D01*
X360191215Y-131603486D01*
X360196772Y-131608646D01*
X360811562Y-131608646D01*
X360819500Y-131603486D01*
X360817419Y-131581021D01*
X360814797Y-131559270D01*
X360811636Y-131538231D01*
X360807934Y-131517906D01*
X360803692Y-131498293D01*
X360798909Y-131479394D01*
X360793586Y-131461209D01*
X360787723Y-131443736D01*
X360781320Y-131426976D01*
X360774376Y-131410930D01*
X360766892Y-131395597D01*
X360758868Y-131380977D01*
X360750303Y-131367070D01*
X360741198Y-131353877D01*
X360721367Y-131329629D01*
X360699375Y-131308234D01*
X360675222Y-131289691D01*
X360648908Y-131274002D01*
X360620432Y-131261164D01*
X360605384Y-131255816D01*
X360589795Y-131251180D01*
X360573666Y-131247258D01*
X360556997Y-131244048D01*
X360539788Y-131241552D01*
X360522038Y-131239769D01*
X360503748Y-131238700D01*
X360484918Y-131238343D01*
X360467665Y-131238700D01*
X360450933Y-131239769D01*
X360434723Y-131241552D01*
X360419033Y-131244048D01*
X360389216Y-131251180D01*
X360361483Y-131261164D01*
X360335834Y-131274002D01*
X360312268Y-131289691D01*
X360290786Y-131308234D01*
X360271388Y-131329629D01*
X360254074Y-131353877D01*
X360238843Y-131380977D01*
X360232009Y-131395597D01*
X360225696Y-131410930D01*
X360219904Y-131426976D01*
X360214632Y-131443736D01*
X360209882Y-131461209D01*
X360205653Y-131479394D01*
X360201944Y-131498293D01*
X360198756Y-131517906D01*
X360196090Y-131538231D01*
X360193944Y-131559270D01*
X360192319Y-131581021D01*
X360191215Y-131603486D01*
X359995754Y-131603486D01*
X359996541Y-131591416D01*
X359999574Y-131558978D01*
X360003456Y-131527603D01*
X360008185Y-131497292D01*
X360013762Y-131468044D01*
X360020188Y-131439860D01*
X360027462Y-131412739D01*
X360035583Y-131386682D01*
X360044553Y-131361689D01*
X360054371Y-131337759D01*
X360065036Y-131314893D01*
X360076550Y-131293090D01*
X360088912Y-131272350D01*
X360102122Y-131252675D01*
X360116180Y-131234062D01*
X360131086Y-131216514D01*
X360146840Y-131200029D01*
X360163442Y-131184607D01*
X360180892Y-131170249D01*
X360199191Y-131156955D01*
X360218337Y-131144724D01*
X360238331Y-131133557D01*
X360259174Y-131123453D01*
X360280864Y-131114413D01*
X360303403Y-131106436D01*
X360326789Y-131099523D01*
X360351024Y-131093673D01*
X360376106Y-131088887D01*
X360402037Y-131085165D01*
X360428816Y-131082506D01*
X360456443Y-131080911D01*
X360484918Y-131080379D01*
X360515761Y-131080979D01*
G37*
G36*
X359364087Y-131784470D02*
G01*
X359391674Y-131777645D01*
X359418276Y-131770566D01*
X359443891Y-131763233D01*
X359468520Y-131755646D01*
X359492163Y-131747804D01*
X359514820Y-131739708D01*
X359536491Y-131731357D01*
X359557176Y-131722753D01*
X359576875Y-131713894D01*
X359595588Y-131704781D01*
X359613315Y-131695414D01*
X359630056Y-131685792D01*
X359645811Y-131675916D01*
X359660580Y-131665786D01*
X359674363Y-131655402D01*
X359687159Y-131644763D01*
X359699030Y-131633746D01*
X359710136Y-131622326D01*
X359725358Y-131604440D01*
X359738856Y-131585648D01*
X359750632Y-131565948D01*
X359760684Y-131545341D01*
X359769013Y-131523827D01*
X359775619Y-131501407D01*
X359780501Y-131478079D01*
X359782799Y-131462023D01*
X359784331Y-131445565D01*
X359785097Y-131428703D01*
X359785192Y-131420121D01*
X359784735Y-131400732D01*
X359783363Y-131381858D01*
X359781076Y-131363498D01*
X359777875Y-131345653D01*
X359773758Y-131328323D01*
X359768727Y-131311508D01*
X359762782Y-131295207D01*
X359755921Y-131279422D01*
X359748146Y-131264150D01*
X359739456Y-131249394D01*
X359729852Y-131235152D01*
X359719333Y-131221425D01*
X359707899Y-131208213D01*
X359695550Y-131195516D01*
X359682286Y-131183333D01*
X359668108Y-131171665D01*
X359653043Y-131160611D01*
X359637219Y-131150270D01*
X359620634Y-131140642D01*
X359603291Y-131131727D01*
X359585187Y-131123526D01*
X359566323Y-131116037D01*
X359546700Y-131109262D01*
X359526318Y-131103200D01*
X359505175Y-131097852D01*
X359483273Y-131093216D01*
X359460612Y-131089294D01*
X359437190Y-131086084D01*
X359413009Y-131083588D01*
X359388068Y-131081805D01*
X359362368Y-131080736D01*
X359335908Y-131080379D01*
X359316021Y-131080542D01*
X359296150Y-131081030D01*
X359276294Y-131081844D01*
X359256454Y-131082984D01*
X359236630Y-131084449D01*
X359216821Y-131086239D01*
X359197027Y-131088356D01*
X359177249Y-131090797D01*
X359157486Y-131093565D01*
X359137739Y-131096658D01*
X359118008Y-131100076D01*
X359098292Y-131103821D01*
X359078591Y-131107890D01*
X359058906Y-131112286D01*
X359039237Y-131117006D01*
X359019583Y-131122053D01*
X359000792Y-131128223D01*
X358984507Y-131136416D01*
X358970727Y-131146629D01*
X358959453Y-131158865D01*
X358950684Y-131173122D01*
X358944421Y-131189401D01*
X358940663Y-131207702D01*
X358939410Y-131228024D01*
X358941022Y-131244024D01*
X358946691Y-131259473D01*
X358956441Y-131272223D01*
X358965208Y-131279223D01*
X358980093Y-131286845D01*
X358996170Y-131290511D01*
X359013441Y-131290222D01*
X359023551Y-131288352D01*
X359042300Y-131282873D01*
X359061039Y-131277747D01*
X359079769Y-131272975D01*
X359098490Y-131268557D01*
X359117202Y-131264492D01*
X359135904Y-131260780D01*
X359154596Y-131257422D01*
X359173280Y-131254417D01*
X359191954Y-131251766D01*
X359210619Y-131249468D01*
X359229275Y-131247524D01*
X359247921Y-131245934D01*
X359266558Y-131244696D01*
X359285186Y-131243813D01*
X359303804Y-131243282D01*
X359322413Y-131243106D01*
X359338505Y-131243265D01*
X359369156Y-131244539D01*
X359397763Y-131247088D01*
X359424327Y-131250911D01*
X359448848Y-131256009D01*
X359471325Y-131262381D01*
X359491759Y-131270028D01*
X359510149Y-131278948D01*
X359526496Y-131289144D01*
X359540800Y-131300613D01*
X359553060Y-131313357D01*
X359563277Y-131327376D01*
X359571451Y-131342669D01*
X359577581Y-131359236D01*
X359581668Y-131377077D01*
X359583711Y-131396194D01*
X359583967Y-131406229D01*
X359583161Y-131423916D01*
X359580742Y-131440858D01*
X359576711Y-131457057D01*
X359571068Y-131472511D01*
X359563812Y-131487221D01*
X359554944Y-131501186D01*
X359544463Y-131514408D01*
X359532370Y-131526885D01*
X359518082Y-131538724D01*
X359501016Y-131550029D01*
X359486393Y-131558158D01*
X359470207Y-131565987D01*
X359452458Y-131573516D01*
X359433147Y-131580745D01*
X359412273Y-131587674D01*
X359389836Y-131594303D01*
X359374009Y-131598556D01*
X359357489Y-131602675D01*
X359340273Y-131606661D01*
X359324772Y-131610165D01*
X359294676Y-131617362D01*
X359265790Y-131624810D01*
X359238113Y-131632509D01*
X359211645Y-131640460D01*
X359186386Y-131648661D01*
X359162337Y-131657114D01*
X359139497Y-131665818D01*
X359117866Y-131674772D01*
X359097444Y-131683979D01*
X359078232Y-131693436D01*
X359060229Y-131703144D01*
X359043436Y-131713104D01*
X359027851Y-131723315D01*
X359013476Y-131733776D01*
X359000311Y-131744489D01*
X358994181Y-131749940D01*
X358982550Y-131761152D01*
X358971670Y-131772960D01*
X358961540Y-131785363D01*
X358952160Y-131798361D01*
X358943531Y-131811955D01*
X358935652Y-131826144D01*
X358928523Y-131840928D01*
X358922145Y-131856308D01*
X358916517Y-131872283D01*
X358911640Y-131888853D01*
X358907513Y-131906019D01*
X358904136Y-131923780D01*
X358901509Y-131942136D01*
X358899634Y-131961088D01*
X358898508Y-131980635D01*
X358898133Y-132000778D01*
X358898609Y-132020450D01*
X358900037Y-132039580D01*
X358902416Y-132058168D01*
X358905748Y-132076212D01*
X358910032Y-132093714D01*
X358915267Y-132110674D01*
X358921455Y-132127091D01*
X358928594Y-132142965D01*
X358936686Y-132158297D01*
X358945729Y-132173086D01*
X358955724Y-132187332D01*
X358966672Y-132201036D01*
X358978571Y-132214197D01*
X358991422Y-132226815D01*
X359005225Y-132238891D01*
X359019979Y-132250424D01*
X359035592Y-132261334D01*
X359051967Y-132271540D01*
X359069104Y-132281043D01*
X359087005Y-132289841D01*
X359105668Y-132297935D01*
X359125094Y-132305326D01*
X359145283Y-132312013D01*
X359166235Y-132317996D01*
X359187950Y-132323275D01*
X359210427Y-132327850D01*
X359233667Y-132331721D01*
X359257670Y-132334888D01*
X359282435Y-132337352D01*
X359307964Y-132339112D01*
X359334255Y-132340167D01*
X359361309Y-132340519D01*
X359382332Y-132340319D01*
X359403231Y-132339719D01*
X359424006Y-132338719D01*
X359444657Y-132337319D01*
X359465184Y-132335519D01*
X359485586Y-132333319D01*
X359505865Y-132330720D01*
X359526020Y-132327720D01*
X359546051Y-132324320D01*
X359565958Y-132320520D01*
X359585740Y-132316320D01*
X359605399Y-132311720D01*
X359624934Y-132306720D01*
X359644344Y-132301320D01*
X359663631Y-132295520D01*
X359682793Y-132289320D01*
X359701491Y-132281953D01*
X359717695Y-132272750D01*
X359731407Y-132261711D01*
X359742625Y-132248837D01*
X359751351Y-132234127D01*
X359757583Y-132217581D01*
X359761323Y-132199200D01*
X359762569Y-132178983D01*
X359760340Y-132162190D01*
X359753653Y-132147532D01*
X359742508Y-132135009D01*
X359734390Y-132128975D01*
X359719928Y-132121508D01*
X359703243Y-132117556D01*
X359686119Y-132118313D01*
X359674459Y-132121434D01*
X359656126Y-132128258D01*
X359637740Y-132134643D01*
X359619301Y-132140587D01*
X359600810Y-132146091D01*
X359582266Y-132151154D01*
X359563669Y-132155777D01*
X359545020Y-132159960D01*
X359526318Y-132163703D01*
X359507563Y-132167005D01*
X359488755Y-132169867D01*
X359469895Y-132172289D01*
X359450982Y-132174270D01*
X359432017Y-132175811D01*
X359412998Y-132176912D01*
X359393927Y-132177572D01*
X359374803Y-132177793D01*
X359357857Y-132177620D01*
X359341449Y-132177101D01*
X359325578Y-132176237D01*
X359295451Y-132173471D01*
X359267477Y-132169322D01*
X359241654Y-132163790D01*
X359217983Y-132156876D01*
X359196463Y-132148578D01*
X359177096Y-132138898D01*
X359159881Y-132127834D01*
X359144818Y-132115388D01*
X359131906Y-132101559D01*
X359121146Y-132086346D01*
X359112539Y-132069751D01*
X359106083Y-132051773D01*
X359101779Y-132032412D01*
X359099627Y-132011668D01*
X359099358Y-132000778D01*
X359100220Y-131982012D01*
X359102806Y-131964015D01*
X359107116Y-131946788D01*
X359113150Y-131930329D01*
X359120909Y-131914639D01*
X359130391Y-131899718D01*
X359141597Y-131885567D01*
X359154527Y-131872184D01*
X359169869Y-131859440D01*
X359183411Y-131850215D01*
X359198697Y-131841277D01*
X359215727Y-131832625D01*
X359234501Y-131824259D01*
X359255019Y-131816179D01*
X359277282Y-131808384D01*
X359293093Y-131803347D01*
X359309678Y-131798437D01*
X359327039Y-131793654D01*
X359345176Y-131788999D01*
X359364087Y-131784470D01*
G37*
G36*
X358642533Y-131311769D02*
G01*
X358659277Y-131310330D01*
X358674582Y-131306014D01*
X358690081Y-131297718D01*
X358700876Y-131288749D01*
X358710947Y-131276321D01*
X358718838Y-131260620D01*
X358722795Y-131245135D01*
X358723896Y-131230405D01*
X358722457Y-131213686D01*
X358717399Y-131196656D01*
X358708699Y-131181510D01*
X358700876Y-131172459D01*
X358688448Y-131162214D01*
X358672747Y-131154187D01*
X358657262Y-131150162D01*
X358642533Y-131149042D01*
X358475837Y-131149042D01*
X358467899Y-131141104D01*
X358467899Y-130814063D01*
X358466513Y-130796457D01*
X358462353Y-130780105D01*
X358455421Y-130765006D01*
X358445716Y-130751161D01*
X358438926Y-130743812D01*
X358425642Y-130732523D01*
X358411143Y-130724006D01*
X358395429Y-130718263D01*
X358378498Y-130715292D01*
X358368278Y-130714839D01*
X358350654Y-130716225D01*
X358334245Y-130720385D01*
X358319051Y-130727317D01*
X358305073Y-130737022D01*
X358297631Y-130743812D01*
X358286342Y-130756941D01*
X358277825Y-130771324D01*
X358272082Y-130786959D01*
X358269111Y-130803849D01*
X358268658Y-130814063D01*
X358268658Y-131141104D01*
X358260720Y-131149042D01*
X357917803Y-131149042D01*
X357901084Y-131150505D01*
X357884054Y-131155651D01*
X357868908Y-131164500D01*
X357859856Y-131172459D01*
X357849612Y-131184713D01*
X357841585Y-131200278D01*
X357837560Y-131215694D01*
X357836440Y-131230405D01*
X357837903Y-131247149D01*
X357842294Y-131262454D01*
X357850732Y-131277953D01*
X357859856Y-131288749D01*
X357873747Y-131299876D01*
X357889521Y-131307362D01*
X357905124Y-131310959D01*
X357917803Y-131311769D01*
X358260720Y-131311769D01*
X358268658Y-131319310D01*
X358268658Y-131922986D01*
X358268501Y-131942541D01*
X358268032Y-131961218D01*
X358267249Y-131979018D01*
X358266153Y-131995940D01*
X358264743Y-132011985D01*
X358262042Y-132034407D01*
X358258636Y-132054854D01*
X358254526Y-132073328D01*
X358249711Y-132089826D01*
X358242195Y-132108753D01*
X358233426Y-132124170D01*
X358228572Y-132130562D01*
X358214155Y-132144169D01*
X358199901Y-132153393D01*
X358183228Y-132161142D01*
X358164137Y-132167415D01*
X358148231Y-132171151D01*
X358130965Y-132174057D01*
X358112339Y-132176132D01*
X358092352Y-132177377D01*
X358071004Y-132177793D01*
X358053522Y-132177619D01*
X358036797Y-132177098D01*
X358020828Y-132176230D01*
X358001931Y-132174656D01*
X357984216Y-132172540D01*
X357967683Y-132169881D01*
X357952333Y-132166680D01*
X357935648Y-132165438D01*
X357919529Y-132167963D01*
X357903974Y-132174256D01*
X357895577Y-132179380D01*
X357882531Y-132190717D01*
X357873754Y-132204189D01*
X357869247Y-132219796D01*
X357868588Y-132229389D01*
X357869977Y-132247175D01*
X357874145Y-132264018D01*
X357881090Y-132279919D01*
X357890814Y-132294877D01*
X357902696Y-132307726D01*
X357916116Y-132317698D01*
X357931074Y-132324792D01*
X357947570Y-132329009D01*
X357963247Y-132331707D01*
X357979917Y-132334045D01*
X357997579Y-132336023D01*
X358016233Y-132337642D01*
X358035879Y-132338901D01*
X358056518Y-132339800D01*
X358072648Y-132340238D01*
X358089336Y-132340474D01*
X358100771Y-132340519D01*
X358126125Y-132340178D01*
X358150489Y-132339155D01*
X358173864Y-132337450D01*
X358196249Y-132335062D01*
X358217646Y-132331992D01*
X358238054Y-132328240D01*
X358257472Y-132323806D01*
X358275901Y-132318690D01*
X358293341Y-132312892D01*
X358309792Y-132306411D01*
X358325254Y-132299249D01*
X358339727Y-132291404D01*
X358353210Y-132282877D01*
X358371581Y-132268807D01*
X358387726Y-132253203D01*
X358402054Y-132235535D01*
X358414972Y-132215426D01*
X358422802Y-132200664D01*
X358430005Y-132184816D01*
X358436582Y-132167883D01*
X358442532Y-132149864D01*
X358447856Y-132130761D01*
X358452553Y-132110572D01*
X358456625Y-132089297D01*
X358460070Y-132066938D01*
X358462888Y-132043493D01*
X358465080Y-132018963D01*
X358466646Y-131993348D01*
X358467586Y-131966648D01*
X358467899Y-131938862D01*
X358467899Y-131319310D01*
X358475837Y-131311769D01*
X358642533Y-131311769D01*
G37*
G36*
X357119930Y-131080979D02*
G01*
X357149948Y-131082779D01*
X357179142Y-131085779D01*
X357207511Y-131089979D01*
X357235054Y-131095379D01*
X357261773Y-131101979D01*
X357287668Y-131109779D01*
X357312737Y-131118779D01*
X357336982Y-131128978D01*
X357360402Y-131140378D01*
X357382997Y-131152978D01*
X357404767Y-131166778D01*
X357425713Y-131181778D01*
X357445833Y-131197978D01*
X357465129Y-131215377D01*
X357483600Y-131233977D01*
X357492464Y-131243742D01*
X357509348Y-131264263D01*
X357525106Y-131286104D01*
X357539738Y-131309267D01*
X357553245Y-131333750D01*
X357565626Y-131359555D01*
X357576882Y-131386680D01*
X357587012Y-131415126D01*
X357596016Y-131444893D01*
X357600097Y-131460272D01*
X357603895Y-131475981D01*
X357607413Y-131492021D01*
X357610649Y-131508390D01*
X357613603Y-131525090D01*
X357616277Y-131542120D01*
X357618669Y-131559480D01*
X357620779Y-131577171D01*
X357622608Y-131595192D01*
X357624156Y-131613543D01*
X357625422Y-131632224D01*
X357626407Y-131651235D01*
X357627110Y-131670577D01*
X357627532Y-131690249D01*
X357627673Y-131710251D01*
X357627527Y-131729720D01*
X357627087Y-131748886D01*
X357626354Y-131767748D01*
X357625329Y-131786306D01*
X357624010Y-131804560D01*
X357622399Y-131822510D01*
X357620494Y-131840156D01*
X357618296Y-131857499D01*
X357615806Y-131874537D01*
X357613022Y-131891272D01*
X357609945Y-131907703D01*
X357606576Y-131923830D01*
X357602913Y-131939653D01*
X357598957Y-131955172D01*
X357590167Y-131985299D01*
X357580204Y-132014210D01*
X357569069Y-132041906D01*
X357556762Y-132068386D01*
X357543283Y-132093651D01*
X357528632Y-132117700D01*
X357512809Y-132140534D01*
X357495814Y-132162152D01*
X357477647Y-132182555D01*
X357458360Y-132201684D01*
X357438007Y-132219578D01*
X357416587Y-132236238D01*
X357394101Y-132251665D01*
X357370547Y-132265857D01*
X357345928Y-132278815D01*
X357320241Y-132290539D01*
X357293488Y-132301028D01*
X357265668Y-132310284D01*
X357236781Y-132318306D01*
X357206828Y-132325093D01*
X357175809Y-132330647D01*
X357159899Y-132332961D01*
X357143722Y-132334966D01*
X357127279Y-132336663D01*
X357110569Y-132338051D01*
X357093592Y-132339131D01*
X357076349Y-132339902D01*
X357058839Y-132340365D01*
X357041063Y-132340519D01*
X357023665Y-132340374D01*
X357006198Y-132339936D01*
X356988663Y-132339208D01*
X356971061Y-132338188D01*
X356953389Y-132336876D01*
X356935650Y-132335273D01*
X356917843Y-132333378D01*
X356899967Y-132331192D01*
X356882023Y-132328715D01*
X356864011Y-132325946D01*
X356845930Y-132322885D01*
X356827782Y-132319534D01*
X356809565Y-132315890D01*
X356791280Y-132311955D01*
X356772926Y-132307729D01*
X356754505Y-132303211D01*
X356735621Y-132297010D01*
X356719256Y-132288725D01*
X356705408Y-132278356D01*
X356694078Y-132265903D01*
X356685265Y-132251367D01*
X356678971Y-132234747D01*
X356675194Y-132216043D01*
X356673935Y-132195256D01*
X356674940Y-132182879D01*
X356680214Y-132166460D01*
X356690010Y-132152615D01*
X356702512Y-132142469D01*
X356713191Y-132136655D01*
X356729628Y-132131806D01*
X356746567Y-132131604D01*
X356762046Y-132135325D01*
X356778841Y-132141044D01*
X356795590Y-132146395D01*
X356812292Y-132151376D01*
X356828947Y-132155988D01*
X356845557Y-132160232D01*
X356862119Y-132164106D01*
X356878635Y-132167611D01*
X356895105Y-132170748D01*
X356911528Y-132173515D01*
X356927904Y-132175914D01*
X356944234Y-132177943D01*
X356960518Y-132179603D01*
X356976755Y-132180895D01*
X356992946Y-132181817D01*
X357009090Y-132182371D01*
X357025187Y-132182555D01*
X357048648Y-132182158D01*
X357071404Y-132180968D01*
X357093454Y-132178983D01*
X357114798Y-132176205D01*
X357135438Y-132172633D01*
X357155372Y-132168267D01*
X357174600Y-132163107D01*
X357193123Y-132157154D01*
X357210941Y-132150407D01*
X357228053Y-132142866D01*
X357244460Y-132134531D01*
X357260161Y-132125403D01*
X357275157Y-132115480D01*
X357289448Y-132104764D01*
X357303033Y-132093254D01*
X357315912Y-132080950D01*
X357328087Y-132067853D01*
X357339555Y-132053961D01*
X357350319Y-132039276D01*
X357360377Y-132023797D01*
X357369730Y-132007525D01*
X357378377Y-131990458D01*
X357386319Y-131972598D01*
X357393555Y-131953944D01*
X357400086Y-131934496D01*
X357405911Y-131914255D01*
X357411031Y-131893219D01*
X357415446Y-131871390D01*
X357419155Y-131848767D01*
X357422159Y-131825350D01*
X357424458Y-131801140D01*
X357426051Y-131776135D01*
X357420494Y-131768991D01*
X356743789Y-131768991D01*
X356736359Y-131768830D01*
X356718329Y-131767016D01*
X356701073Y-131763187D01*
X356684593Y-131757342D01*
X356668887Y-131749481D01*
X356653957Y-131739605D01*
X356639802Y-131727714D01*
X356634478Y-131722429D01*
X356622769Y-131708551D01*
X356613347Y-131693724D01*
X356606211Y-131677947D01*
X356601362Y-131661220D01*
X356598801Y-131643544D01*
X356598525Y-131624918D01*
X356599923Y-131603486D01*
X356795385Y-131603486D01*
X356800942Y-131608646D01*
X357415731Y-131608646D01*
X357423669Y-131603486D01*
X357421588Y-131581021D01*
X357418967Y-131559270D01*
X357415805Y-131538231D01*
X357412103Y-131517906D01*
X357407861Y-131498293D01*
X357403079Y-131479394D01*
X357397756Y-131461209D01*
X357391893Y-131443736D01*
X357385489Y-131426976D01*
X357378546Y-131410930D01*
X357371062Y-131395597D01*
X357363037Y-131380977D01*
X357354473Y-131367070D01*
X357345368Y-131353877D01*
X357325537Y-131329629D01*
X357303545Y-131308234D01*
X357279392Y-131289691D01*
X357253077Y-131274002D01*
X357224602Y-131261164D01*
X357209554Y-131255816D01*
X357193965Y-131251180D01*
X357177836Y-131247258D01*
X357161167Y-131244048D01*
X357143957Y-131241552D01*
X357126208Y-131239769D01*
X357107917Y-131238700D01*
X357089087Y-131238343D01*
X357071835Y-131238700D01*
X357055103Y-131239769D01*
X357038892Y-131241552D01*
X357023203Y-131244048D01*
X356993386Y-131251180D01*
X356965653Y-131261164D01*
X356940004Y-131274002D01*
X356916438Y-131289691D01*
X356894956Y-131308234D01*
X356875558Y-131329629D01*
X356858243Y-131353877D01*
X356843012Y-131380977D01*
X356836178Y-131395597D01*
X356829865Y-131410930D01*
X356824073Y-131426976D01*
X356818802Y-131443736D01*
X356814052Y-131461209D01*
X356809822Y-131479394D01*
X356806114Y-131498293D01*
X356802926Y-131517906D01*
X356800259Y-131538231D01*
X356798114Y-131559270D01*
X356796489Y-131581021D01*
X356795385Y-131603486D01*
X356599923Y-131603486D01*
X356600711Y-131591416D01*
X356603744Y-131558978D01*
X356607625Y-131527603D01*
X356612355Y-131497292D01*
X356617932Y-131468044D01*
X356624358Y-131439860D01*
X356631631Y-131412739D01*
X356639753Y-131386682D01*
X356648722Y-131361689D01*
X356658540Y-131337759D01*
X356669206Y-131314893D01*
X356680720Y-131293090D01*
X356693082Y-131272350D01*
X356706292Y-131252675D01*
X356720349Y-131234062D01*
X356735256Y-131216514D01*
X356751010Y-131200029D01*
X356767612Y-131184607D01*
X356785062Y-131170249D01*
X356803360Y-131156955D01*
X356822506Y-131144724D01*
X356842501Y-131133557D01*
X356863343Y-131123453D01*
X356885034Y-131114413D01*
X356907572Y-131106436D01*
X356930959Y-131099523D01*
X356955193Y-131093673D01*
X356980276Y-131088887D01*
X357006207Y-131085165D01*
X357032985Y-131082506D01*
X357060612Y-131080911D01*
X357089087Y-131080379D01*
X357119930Y-131080979D01*
G37*
G36*
X356177023Y-132286542D02*
G01*
X356190749Y-132298604D01*
X356205880Y-132307704D01*
X356222417Y-132313841D01*
X356240359Y-132317016D01*
X356251243Y-132317500D01*
X356267396Y-132316411D01*
X356284936Y-132312390D01*
X356301071Y-132305407D01*
X356315801Y-132295460D01*
X356325462Y-132286542D01*
X356337061Y-132272330D01*
X356345810Y-132257131D01*
X356351712Y-132240945D01*
X356354764Y-132223770D01*
X356355229Y-132213513D01*
X356355229Y-131203019D01*
X356353842Y-131185395D01*
X356349683Y-131168986D01*
X356342751Y-131153792D01*
X356333046Y-131139814D01*
X356326256Y-131132372D01*
X356312972Y-131121083D01*
X356298473Y-131112566D01*
X356282758Y-131106822D01*
X356265828Y-131103852D01*
X356255608Y-131103399D01*
X356237984Y-131104785D01*
X356221575Y-131108945D01*
X356206381Y-131115877D01*
X356192403Y-131125582D01*
X356184961Y-131132372D01*
X356173672Y-131145656D01*
X356165155Y-131160155D01*
X356159411Y-131175869D01*
X356156441Y-131192799D01*
X356155988Y-131203019D01*
X356155988Y-131378844D01*
X356166307Y-131368524D01*
X356174642Y-131372890D01*
X356165397Y-131358050D01*
X356155721Y-131343595D01*
X356145614Y-131329523D01*
X356135076Y-131315837D01*
X356124108Y-131302535D01*
X356112708Y-131289617D01*
X356100877Y-131277084D01*
X356088615Y-131264935D01*
X356075922Y-131253171D01*
X356062798Y-131241791D01*
X356049243Y-131230796D01*
X356035257Y-131220185D01*
X356020841Y-131209959D01*
X356005993Y-131200117D01*
X355990714Y-131190660D01*
X355975004Y-131181587D01*
X355958959Y-131172910D01*
X355942676Y-131164738D01*
X355926153Y-131157071D01*
X355909392Y-131149910D01*
X355892392Y-131143254D01*
X355875154Y-131137104D01*
X355857677Y-131131459D01*
X355839960Y-131126320D01*
X355822006Y-131121685D01*
X355803812Y-131117557D01*
X355785380Y-131113934D01*
X355766709Y-131110816D01*
X355747799Y-131108203D01*
X355728650Y-131106096D01*
X355709263Y-131104495D01*
X355689637Y-131103399D01*
X355673672Y-131103608D01*
X355656730Y-131107335D01*
X355641177Y-131114783D01*
X355627013Y-131125952D01*
X355625340Y-131127609D01*
X355614824Y-131139756D01*
X355605968Y-131154894D01*
X355600486Y-131171371D01*
X355598377Y-131189188D01*
X355598351Y-131191509D01*
X355599914Y-131208452D01*
X355604602Y-131224352D01*
X355612416Y-131239211D01*
X355623355Y-131253028D01*
X355636626Y-131264662D01*
X355651436Y-131273369D01*
X355667783Y-131279149D01*
X355685668Y-131282001D01*
X355712954Y-131283522D01*
X355739447Y-131285902D01*
X355765146Y-131289141D01*
X355790051Y-131293238D01*
X355814162Y-131298195D01*
X355837480Y-131304010D01*
X355860004Y-131310685D01*
X355881734Y-131318218D01*
X355902670Y-131326610D01*
X355922812Y-131335861D01*
X355942161Y-131345971D01*
X355960716Y-131356940D01*
X355978477Y-131368768D01*
X355995444Y-131381455D01*
X356011617Y-131395000D01*
X356026997Y-131409405D01*
X356041512Y-131424612D01*
X356055090Y-131440567D01*
X356067731Y-131457269D01*
X356079437Y-131474719D01*
X356090206Y-131492915D01*
X356100038Y-131511859D01*
X356108934Y-131531550D01*
X356116894Y-131551989D01*
X356123917Y-131573175D01*
X356130004Y-131595108D01*
X356135154Y-131617788D01*
X356139368Y-131641216D01*
X356142645Y-131665391D01*
X356144986Y-131690313D01*
X356146391Y-131715982D01*
X356146859Y-131742399D01*
X356146859Y-132213513D01*
X356148303Y-132231252D01*
X356152633Y-132248003D01*
X356159850Y-132263766D01*
X356169954Y-132278542D01*
X356177023Y-132286542D01*
G37*
D12*
X73723950Y-132641400D02*
X73400100Y-132641400D01*
X73400100Y-132317550D01*
X73723950Y-132317550D01*
X73723950Y-132641400D01*
%TA.AperFunction,EtchedComponent*%
G36*
X73723950Y-132641400D02*
G01*
X73400100Y-132641400D01*
X73400100Y-132317550D01*
X73723950Y-132317550D01*
X73723950Y-132641400D01*
G37*
%TD.AperFunction*%
X73400100Y-132012750D02*
X73076250Y-132012750D01*
X73076250Y-131688900D01*
X73400100Y-131688900D01*
X73400100Y-132012750D01*
%TA.AperFunction,EtchedComponent*%
G36*
X73400100Y-132012750D02*
G01*
X73076250Y-132012750D01*
X73076250Y-131688900D01*
X73400100Y-131688900D01*
X73400100Y-132012750D01*
G37*
%TD.AperFunction*%
X73076250Y-131365050D02*
X72771450Y-131365050D01*
X72771450Y-131060250D01*
X73076250Y-131060250D01*
X73076250Y-131365050D01*
%TA.AperFunction,EtchedComponent*%
G36*
X73076250Y-131365050D02*
G01*
X72771450Y-131365050D01*
X72771450Y-131060250D01*
X73076250Y-131060250D01*
X73076250Y-131365050D01*
G37*
%TD.AperFunction*%
X72771450Y-132012750D02*
X72447600Y-132012750D01*
X72447600Y-131688900D01*
X72771450Y-131688900D01*
X72771450Y-132012750D01*
%TA.AperFunction,EtchedComponent*%
G36*
X72771450Y-132012750D02*
G01*
X72447600Y-132012750D01*
X72447600Y-131688900D01*
X72771450Y-131688900D01*
X72771450Y-132012750D01*
G37*
%TD.AperFunction*%
X72771450Y-130736400D02*
X72447600Y-130736400D01*
X72447600Y-130412550D01*
X72771450Y-130412550D01*
X72771450Y-130736400D01*
%TA.AperFunction,EtchedComponent*%
G36*
X72771450Y-130736400D02*
G01*
X72447600Y-130736400D01*
X72447600Y-130412550D01*
X72771450Y-130412550D01*
X72771450Y-130736400D01*
G37*
%TD.AperFunction*%
X72447600Y-131365050D02*
X72123750Y-131365050D01*
X72123750Y-131060250D01*
X72447600Y-131060250D01*
X72447600Y-131365050D01*
%TA.AperFunction,EtchedComponent*%
G36*
X72447600Y-131365050D02*
G01*
X72123750Y-131365050D01*
X72123750Y-131060250D01*
X72447600Y-131060250D01*
X72447600Y-131365050D01*
G37*
%TD.AperFunction*%
X72123750Y-132012750D02*
X71818950Y-132012750D01*
X71818950Y-131688900D01*
X72123750Y-131688900D01*
X72123750Y-132012750D01*
%TA.AperFunction,EtchedComponent*%
G36*
X72123750Y-132012750D02*
G01*
X71818950Y-132012750D01*
X71818950Y-131688900D01*
X72123750Y-131688900D01*
X72123750Y-132012750D01*
G37*
%TD.AperFunction*%
X71818950Y-132641400D02*
X71495100Y-132641400D01*
X71495100Y-132317550D01*
X71818950Y-132317550D01*
X71818950Y-132641400D01*
%TA.AperFunction,EtchedComponent*%
G36*
X71818950Y-132641400D02*
G01*
X71495100Y-132641400D01*
X71495100Y-132317550D01*
X71818950Y-132317550D01*
X71818950Y-132641400D01*
G37*
%TD.AperFunction*%
X74977565Y-131603175D02*
X74977340Y-131647869D01*
X74975311Y-131742511D01*
X74970912Y-131828376D01*
X74963821Y-131908093D01*
X74953713Y-131984293D01*
X74940267Y-132059608D01*
X74923159Y-132136668D01*
X74902066Y-132218103D01*
X74892350Y-132252550D01*
X74837396Y-132419977D01*
X74771390Y-132581228D01*
X74694512Y-132736041D01*
X74606941Y-132884154D01*
X74508858Y-133025305D01*
X74400440Y-133159231D01*
X74281868Y-133285670D01*
X74153322Y-133404359D01*
X74014979Y-133515036D01*
X73894215Y-133599061D01*
X73747986Y-133686580D01*
X73595588Y-133763341D01*
X73437706Y-133829090D01*
X73275030Y-133883573D01*
X73108245Y-133926536D01*
X72938040Y-133957725D01*
X72765100Y-133976886D01*
X72764473Y-133976932D01*
X72748498Y-133977650D01*
X72722502Y-133978367D01*
X72688997Y-133979034D01*
X72650500Y-133979598D01*
X72609525Y-133980010D01*
X72537081Y-133979548D01*
X72412347Y-133973514D01*
X72288964Y-133960442D01*
X72163289Y-133939901D01*
X72031675Y-133911457D01*
X71965602Y-133894871D01*
X71892463Y-133874156D01*
X71822772Y-133851366D01*
X71751798Y-133824935D01*
X71674811Y-133793297D01*
X71625695Y-133772180D01*
X71581880Y-133752765D01*
X71544218Y-133735200D01*
X71509789Y-133718024D01*
X71475670Y-133699776D01*
X71438939Y-133678995D01*
X71396675Y-133654220D01*
X71250781Y-133560998D01*
X71110803Y-133457103D01*
X70979957Y-133344397D01*
X70858137Y-133222771D01*
X70745239Y-133092122D01*
X70641155Y-132952341D01*
X70545780Y-132803325D01*
X70522480Y-132763612D01*
X70501484Y-132726610D01*
X70483115Y-132692410D01*
X70465914Y-132658090D01*
X70448419Y-132620727D01*
X70429169Y-132577401D01*
X70406703Y-132525189D01*
X70355345Y-132394043D01*
X70303675Y-132230790D01*
X70264372Y-132064656D01*
X70237440Y-131895664D01*
X70222885Y-131723837D01*
X70220709Y-131549200D01*
X70221232Y-131528879D01*
X70221318Y-131527085D01*
X70648106Y-131527085D01*
X70648696Y-131681551D01*
X70661761Y-131836359D01*
X70687268Y-131991076D01*
X70725184Y-132145267D01*
X70775478Y-132298500D01*
X70786229Y-132325565D01*
X70804636Y-132367573D01*
X70826966Y-132415311D01*
X70851762Y-132465885D01*
X70877568Y-132516397D01*
X70902928Y-132563951D01*
X70926386Y-132605654D01*
X70946487Y-132638607D01*
X71033101Y-132763122D01*
X71130805Y-132884603D01*
X71235057Y-132995639D01*
X71346463Y-133096779D01*
X71465629Y-133188569D01*
X71593162Y-133271557D01*
X71729668Y-133346292D01*
X71807234Y-133383251D01*
X71944515Y-133439082D01*
X72083985Y-133483422D01*
X72227650Y-133516869D01*
X72377516Y-133540024D01*
X72430749Y-133545608D01*
X72577998Y-133553313D01*
X72724539Y-133549371D01*
X72871529Y-133533672D01*
X73020130Y-133506112D01*
X73171500Y-133466581D01*
X73223560Y-133450586D01*
X73274978Y-133433307D01*
X73323117Y-133415151D01*
X73371515Y-133394697D01*
X73423708Y-133370522D01*
X73483234Y-133341202D01*
X73519865Y-133322253D01*
X73648296Y-133247271D01*
X73771872Y-133161816D01*
X73888434Y-133067467D01*
X73995821Y-132965808D01*
X74013690Y-132947237D01*
X74118928Y-132827514D01*
X74213206Y-132701447D01*
X74296379Y-132569335D01*
X74368305Y-132431478D01*
X74428840Y-132288177D01*
X74477839Y-132139730D01*
X74515161Y-131986438D01*
X74540660Y-131828600D01*
X74543636Y-131800047D01*
X74547393Y-131746829D01*
X74549950Y-131686728D01*
X74551283Y-131622996D01*
X74551365Y-131558886D01*
X74550175Y-131497648D01*
X74547687Y-131442536D01*
X74543877Y-131396800D01*
X74537156Y-131341976D01*
X74518036Y-131223291D01*
X74492852Y-131110500D01*
X74460647Y-131000142D01*
X74420462Y-130888751D01*
X74371339Y-130772864D01*
X74343503Y-130714528D01*
X74276772Y-130594092D01*
X74199291Y-130476344D01*
X74112372Y-130362824D01*
X74017328Y-130255071D01*
X73915470Y-130154622D01*
X73808111Y-130063017D01*
X73696565Y-129981795D01*
X73616007Y-129930427D01*
X73479285Y-129854010D01*
X73340486Y-129789948D01*
X73198989Y-129738053D01*
X73054176Y-129698138D01*
X72905428Y-129670017D01*
X72752126Y-129653501D01*
X72593650Y-129648405D01*
X72543324Y-129649117D01*
X72393420Y-129658120D01*
X72249076Y-129677662D01*
X72108686Y-129708069D01*
X71970643Y-129749667D01*
X71833340Y-129802783D01*
X71717995Y-129856808D01*
X71582459Y-129932687D01*
X71453733Y-130018751D01*
X71332432Y-130114425D01*
X71219171Y-130219131D01*
X71114562Y-130332294D01*
X71019221Y-130453338D01*
X70933761Y-130581687D01*
X70858798Y-130716766D01*
X70828670Y-130778745D01*
X70785837Y-130876805D01*
X70749887Y-130974094D01*
X70719241Y-131075040D01*
X70692322Y-131184075D01*
X70684479Y-131220909D01*
X70660023Y-131373393D01*
X70648106Y-131527085D01*
X70221318Y-131527085D01*
X70226580Y-131416794D01*
X70236315Y-131311197D01*
X70251029Y-131207779D01*
X70271317Y-131102231D01*
X70297773Y-130990242D01*
X70336776Y-130855834D01*
X70393567Y-130701157D01*
X70461905Y-130549932D01*
X70541243Y-130403013D01*
X70631034Y-130261253D01*
X70730732Y-130125507D01*
X70839789Y-129996629D01*
X70957658Y-129875473D01*
X71083793Y-129762893D01*
X71205509Y-129668492D01*
X71348001Y-129573094D01*
X71497498Y-129488022D01*
X71653389Y-129413593D01*
X71815059Y-129350125D01*
X71981897Y-129297934D01*
X72018119Y-129288224D01*
X72097323Y-129268909D01*
X72173298Y-129253438D01*
X72248676Y-129241487D01*
X72326087Y-129232735D01*
X72408161Y-129226857D01*
X72497531Y-129223532D01*
X72596825Y-129222435D01*
X72606164Y-129222434D01*
X72699713Y-129223382D01*
X72783538Y-129226265D01*
X72860265Y-129231355D01*
X72932518Y-129238921D01*
X73002922Y-129249234D01*
X73074101Y-129262562D01*
X73148681Y-129279176D01*
X73174189Y-129285491D01*
X73240079Y-129303608D01*
X73310977Y-129325249D01*
X73383387Y-129349229D01*
X73453812Y-129374364D01*
X73518757Y-129399473D01*
X73574725Y-129423371D01*
X73579529Y-129425566D01*
X73665910Y-129467599D01*
X73754572Y-129515244D01*
X73842602Y-129566729D01*
X73927090Y-129620288D01*
X74005121Y-129674148D01*
X74073784Y-129726543D01*
X74159254Y-129798687D01*
X74289061Y-129920666D01*
X74408067Y-130048802D01*
X74516119Y-130182886D01*
X74613063Y-130322708D01*
X74698747Y-130468057D01*
X74773020Y-130618724D01*
X74835728Y-130774500D01*
X74848283Y-130809906D01*
X74882412Y-130912549D01*
X74910491Y-131008847D01*
X74932979Y-131101475D01*
X74950332Y-131193108D01*
X74963010Y-131286419D01*
X74971470Y-131384085D01*
X74976169Y-131488778D01*
X74977025Y-131558886D01*
X74977565Y-131603175D01*
%TA.AperFunction,EtchedComponent*%
G36*
X74977565Y-131603175D02*
G01*
X74977340Y-131647869D01*
X74975311Y-131742511D01*
X74970912Y-131828376D01*
X74963821Y-131908093D01*
X74953713Y-131984293D01*
X74940267Y-132059608D01*
X74923159Y-132136668D01*
X74902066Y-132218103D01*
X74892350Y-132252550D01*
X74837396Y-132419977D01*
X74771390Y-132581228D01*
X74694512Y-132736041D01*
X74606941Y-132884154D01*
X74508858Y-133025305D01*
X74400440Y-133159231D01*
X74281868Y-133285670D01*
X74153322Y-133404359D01*
X74014979Y-133515036D01*
X73894215Y-133599061D01*
X73747986Y-133686580D01*
X73595588Y-133763341D01*
X73437706Y-133829090D01*
X73275030Y-133883573D01*
X73108245Y-133926536D01*
X72938040Y-133957725D01*
X72765100Y-133976886D01*
X72764473Y-133976932D01*
X72748498Y-133977650D01*
X72722502Y-133978367D01*
X72688997Y-133979034D01*
X72650500Y-133979598D01*
X72609525Y-133980010D01*
X72537081Y-133979548D01*
X72412347Y-133973514D01*
X72288964Y-133960442D01*
X72163289Y-133939901D01*
X72031675Y-133911457D01*
X71965602Y-133894871D01*
X71892463Y-133874156D01*
X71822772Y-133851366D01*
X71751798Y-133824935D01*
X71674811Y-133793297D01*
X71625695Y-133772180D01*
X71581880Y-133752765D01*
X71544218Y-133735200D01*
X71509789Y-133718024D01*
X71475670Y-133699776D01*
X71438939Y-133678995D01*
X71396675Y-133654220D01*
X71250781Y-133560998D01*
X71110803Y-133457103D01*
X70979957Y-133344397D01*
X70858137Y-133222771D01*
X70745239Y-133092122D01*
X70641155Y-132952341D01*
X70545780Y-132803325D01*
X70522480Y-132763612D01*
X70501484Y-132726610D01*
X70483115Y-132692410D01*
X70465914Y-132658090D01*
X70448419Y-132620727D01*
X70429169Y-132577401D01*
X70406703Y-132525189D01*
X70355345Y-132394043D01*
X70303675Y-132230790D01*
X70264372Y-132064656D01*
X70237440Y-131895664D01*
X70222885Y-131723837D01*
X70220709Y-131549200D01*
X70221232Y-131528879D01*
X70221318Y-131527085D01*
X70648106Y-131527085D01*
X70648696Y-131681551D01*
X70661761Y-131836359D01*
X70687268Y-131991076D01*
X70725184Y-132145267D01*
X70775478Y-132298500D01*
X70786229Y-132325565D01*
X70804636Y-132367573D01*
X70826966Y-132415311D01*
X70851762Y-132465885D01*
X70877568Y-132516397D01*
X70902928Y-132563951D01*
X70926386Y-132605654D01*
X70946487Y-132638607D01*
X71033101Y-132763122D01*
X71130805Y-132884603D01*
X71235057Y-132995639D01*
X71346463Y-133096779D01*
X71465629Y-133188569D01*
X71593162Y-133271557D01*
X71729668Y-133346292D01*
X71807234Y-133383251D01*
X71944515Y-133439082D01*
X72083985Y-133483422D01*
X72227650Y-133516869D01*
X72377516Y-133540024D01*
X72430749Y-133545608D01*
X72577998Y-133553313D01*
X72724539Y-133549371D01*
X72871529Y-133533672D01*
X73020130Y-133506112D01*
X73171500Y-133466581D01*
X73223560Y-133450586D01*
X73274978Y-133433307D01*
X73323117Y-133415151D01*
X73371515Y-133394697D01*
X73423708Y-133370522D01*
X73483234Y-133341202D01*
X73519865Y-133322253D01*
X73648296Y-133247271D01*
X73771872Y-133161816D01*
X73888434Y-133067467D01*
X73995821Y-132965808D01*
X74013690Y-132947237D01*
X74118928Y-132827514D01*
X74213206Y-132701447D01*
X74296379Y-132569335D01*
X74368305Y-132431478D01*
X74428840Y-132288177D01*
X74477839Y-132139730D01*
X74515161Y-131986438D01*
X74540660Y-131828600D01*
X74543636Y-131800047D01*
X74547393Y-131746829D01*
X74549950Y-131686728D01*
X74551283Y-131622996D01*
X74551365Y-131558886D01*
X74550175Y-131497648D01*
X74547687Y-131442536D01*
X74543877Y-131396800D01*
X74537156Y-131341976D01*
X74518036Y-131223291D01*
X74492852Y-131110500D01*
X74460647Y-131000142D01*
X74420462Y-130888751D01*
X74371339Y-130772864D01*
X74343503Y-130714528D01*
X74276772Y-130594092D01*
X74199291Y-130476344D01*
X74112372Y-130362824D01*
X74017328Y-130255071D01*
X73915470Y-130154622D01*
X73808111Y-130063017D01*
X73696565Y-129981795D01*
X73616007Y-129930427D01*
X73479285Y-129854010D01*
X73340486Y-129789948D01*
X73198989Y-129738053D01*
X73054176Y-129698138D01*
X72905428Y-129670017D01*
X72752126Y-129653501D01*
X72593650Y-129648405D01*
X72543324Y-129649117D01*
X72393420Y-129658120D01*
X72249076Y-129677662D01*
X72108686Y-129708069D01*
X71970643Y-129749667D01*
X71833340Y-129802783D01*
X71717995Y-129856808D01*
X71582459Y-129932687D01*
X71453733Y-130018751D01*
X71332432Y-130114425D01*
X71219171Y-130219131D01*
X71114562Y-130332294D01*
X71019221Y-130453338D01*
X70933761Y-130581687D01*
X70858798Y-130716766D01*
X70828670Y-130778745D01*
X70785837Y-130876805D01*
X70749887Y-130974094D01*
X70719241Y-131075040D01*
X70692322Y-131184075D01*
X70684479Y-131220909D01*
X70660023Y-131373393D01*
X70648106Y-131527085D01*
X70221318Y-131527085D01*
X70226580Y-131416794D01*
X70236315Y-131311197D01*
X70251029Y-131207779D01*
X70271317Y-131102231D01*
X70297773Y-130990242D01*
X70336776Y-130855834D01*
X70393567Y-130701157D01*
X70461905Y-130549932D01*
X70541243Y-130403013D01*
X70631034Y-130261253D01*
X70730732Y-130125507D01*
X70839789Y-129996629D01*
X70957658Y-129875473D01*
X71083793Y-129762893D01*
X71205509Y-129668492D01*
X71348001Y-129573094D01*
X71497498Y-129488022D01*
X71653389Y-129413593D01*
X71815059Y-129350125D01*
X71981897Y-129297934D01*
X72018119Y-129288224D01*
X72097323Y-129268909D01*
X72173298Y-129253438D01*
X72248676Y-129241487D01*
X72326087Y-129232735D01*
X72408161Y-129226857D01*
X72497531Y-129223532D01*
X72596825Y-129222435D01*
X72606164Y-129222434D01*
X72699713Y-129223382D01*
X72783538Y-129226265D01*
X72860265Y-129231355D01*
X72932518Y-129238921D01*
X73002922Y-129249234D01*
X73074101Y-129262562D01*
X73148681Y-129279176D01*
X73174189Y-129285491D01*
X73240079Y-129303608D01*
X73310977Y-129325249D01*
X73383387Y-129349229D01*
X73453812Y-129374364D01*
X73518757Y-129399473D01*
X73574725Y-129423371D01*
X73579529Y-129425566D01*
X73665910Y-129467599D01*
X73754572Y-129515244D01*
X73842602Y-129566729D01*
X73927090Y-129620288D01*
X74005121Y-129674148D01*
X74073784Y-129726543D01*
X74159254Y-129798687D01*
X74289061Y-129920666D01*
X74408067Y-130048802D01*
X74516119Y-130182886D01*
X74613063Y-130322708D01*
X74698747Y-130468057D01*
X74773020Y-130618724D01*
X74835728Y-130774500D01*
X74848283Y-130809906D01*
X74882412Y-130912549D01*
X74910491Y-131008847D01*
X74932979Y-131101475D01*
X74950332Y-131193108D01*
X74963010Y-131286419D01*
X74971470Y-131384085D01*
X74976169Y-131488778D01*
X74977025Y-131558886D01*
X74977565Y-131603175D01*
G37*
%TD.AperFunction*%
D13*
X316765000Y-140335000D03*
X329692000Y-137795000D03*
X188177500Y-83185000D03*
X201104500Y-80645000D03*
X83402500Y-45085000D03*
X96329500Y-42545000D03*
X402490000Y-83185000D03*
X415417000Y-80645000D03*
X145315000Y-45085000D03*
X158242000Y-42545000D03*
X59590000Y-64135000D03*
X72517000Y-61595000D03*
X383440000Y-121285000D03*
X396367000Y-118745000D03*
X402490000Y-102235000D03*
X415417000Y-99695000D03*
X383440000Y-102235000D03*
X396367000Y-99695000D03*
X383440000Y-140335000D03*
X396367000Y-137795000D03*
X188177500Y-102235000D03*
X201104500Y-99695000D03*
X59590000Y-83185000D03*
X72517000Y-80645000D03*
X254852500Y-64135000D03*
X267779500Y-61595000D03*
D14*
X219075000Y-57150000D03*
D13*
X383440000Y-45085000D03*
X396367000Y-42545000D03*
X231040000Y-102235000D03*
X243967000Y-99695000D03*
X297715000Y-45085000D03*
X310642000Y-42545000D03*
X254852500Y-140335000D03*
X267779500Y-137795000D03*
X359627500Y-121285000D03*
X372554500Y-118745000D03*
X402490000Y-121285000D03*
X415417000Y-118745000D03*
D14*
X133350000Y-133350000D03*
D13*
X169127500Y-121285000D03*
X182054500Y-118745000D03*
X188177500Y-45085000D03*
X201104500Y-42545000D03*
X231040000Y-140335000D03*
X243967000Y-137795000D03*
X340577500Y-45085000D03*
X353504500Y-42545000D03*
X188177500Y-64135000D03*
X201104500Y-61595000D03*
X169127500Y-83185000D03*
X182054500Y-80645000D03*
X83402500Y-121285000D03*
X96329500Y-118745000D03*
X359627500Y-83185000D03*
X372554500Y-80645000D03*
X102452500Y-45085000D03*
X115379500Y-42545000D03*
X340577500Y-64135000D03*
X353504500Y-61595000D03*
X340577500Y-83185000D03*
X353504500Y-80645000D03*
X273902500Y-140335000D03*
X286829500Y-137795000D03*
X297715000Y-140335000D03*
X310642000Y-137795000D03*
X126265000Y-102235000D03*
X139192000Y-99695000D03*
X145315000Y-64135000D03*
X158242000Y-61595000D03*
X126265000Y-121285000D03*
X139192000Y-118745000D03*
X340577500Y-140335000D03*
X353504500Y-137795000D03*
X102452500Y-102235000D03*
X115379500Y-99695000D03*
X297715000Y-102235000D03*
X310642000Y-99695000D03*
X126265000Y-64135000D03*
X139192000Y-61595000D03*
D14*
X47625000Y-57150000D03*
D13*
X297715000Y-83185000D03*
X310642000Y-80645000D03*
D14*
X390525000Y-57150000D03*
D13*
X340577500Y-121285000D03*
X353504500Y-118745000D03*
X316765000Y-102235000D03*
X329692000Y-99695000D03*
X145315000Y-121285000D03*
X158242000Y-118745000D03*
X273902500Y-83185000D03*
X286829500Y-80645000D03*
X297715000Y-64135000D03*
X310642000Y-61595000D03*
X102452500Y-121285000D03*
X115379500Y-118745000D03*
X273902500Y-102235000D03*
X286829500Y-99695000D03*
X359627500Y-102235000D03*
X372554500Y-99695000D03*
X402490000Y-45085000D03*
X415417000Y-42545000D03*
X359627500Y-45085000D03*
X372554500Y-42545000D03*
X59590000Y-45085000D03*
X72517000Y-42545000D03*
X83402500Y-83185000D03*
X96329500Y-80645000D03*
D14*
X219075000Y-133350000D03*
X390525000Y-133350000D03*
D13*
X316765000Y-121285000D03*
X329692000Y-118745000D03*
X59590000Y-121285000D03*
X72517000Y-118745000D03*
X402490000Y-64135000D03*
X415417000Y-61595000D03*
X254852500Y-83185000D03*
X267779500Y-80645000D03*
X211990000Y-45085000D03*
X224917000Y-42545000D03*
X254852500Y-102235000D03*
X267779500Y-99695000D03*
D14*
X304800000Y-133350000D03*
D13*
X145315000Y-83185000D03*
X158242000Y-80645000D03*
X126265000Y-83185000D03*
X139192000Y-80645000D03*
X211990000Y-140335000D03*
X224917000Y-137795000D03*
X59590000Y-140335000D03*
X72517000Y-137795000D03*
X59590000Y-102235000D03*
X72517000Y-99695000D03*
X126265000Y-140335000D03*
X139192000Y-137795000D03*
X169127500Y-102235000D03*
X182054500Y-99695000D03*
X340577500Y-102235000D03*
X353504500Y-99695000D03*
X383440000Y-64135000D03*
X396367000Y-61595000D03*
X126265000Y-45085000D03*
X139192000Y-42545000D03*
X169127500Y-45085000D03*
X182054500Y-42545000D03*
X102452500Y-64135000D03*
X115379500Y-61595000D03*
D14*
X304800000Y-57150000D03*
D13*
X211990000Y-121285000D03*
X224917000Y-118745000D03*
X40540000Y-140335000D03*
X53467000Y-137795000D03*
X231040000Y-121285000D03*
X243967000Y-118745000D03*
X145315000Y-140335000D03*
X158242000Y-137795000D03*
X169127500Y-64135000D03*
X182054500Y-61595000D03*
X359627500Y-140335000D03*
X372554500Y-137795000D03*
X83402500Y-102235000D03*
X96329500Y-99695000D03*
X231040000Y-45085000D03*
X243967000Y-42545000D03*
X40540000Y-45085000D03*
X53467000Y-42545000D03*
X297715000Y-121285000D03*
X310642000Y-118745000D03*
X273902500Y-45085000D03*
X286829500Y-42545000D03*
X273902500Y-64135000D03*
X286829500Y-61595000D03*
X40540000Y-64135000D03*
X53467000Y-61595000D03*
X102452500Y-140335000D03*
X115379500Y-137795000D03*
X40540000Y-83185000D03*
X53467000Y-80645000D03*
X40540000Y-121285000D03*
X53467000Y-118745000D03*
X83402500Y-64135000D03*
X96329500Y-61595000D03*
X145315000Y-102235000D03*
X158242000Y-99695000D03*
X316765000Y-83185000D03*
X329692000Y-80645000D03*
X211990000Y-64135000D03*
X224917000Y-61595000D03*
X211990000Y-102235000D03*
X224917000Y-99695000D03*
X83402500Y-140335000D03*
X96329500Y-137795000D03*
X316765000Y-45085000D03*
X329692000Y-42545000D03*
X188177500Y-121285000D03*
X201104500Y-118745000D03*
X359627500Y-64135000D03*
X372554500Y-61595000D03*
X383440000Y-83185000D03*
X396367000Y-80645000D03*
X254852500Y-121285000D03*
X267779500Y-118745000D03*
X254852500Y-45085000D03*
X267779500Y-42545000D03*
X316765000Y-64135000D03*
X329692000Y-61595000D03*
X231040000Y-83185000D03*
X243967000Y-80645000D03*
D14*
X47625000Y-133350000D03*
X133350000Y-57150000D03*
D13*
X231040000Y-64135000D03*
X243967000Y-61595000D03*
X211990000Y-83185000D03*
X224917000Y-80645000D03*
X169127500Y-140335000D03*
X182054500Y-137795000D03*
X188177500Y-140335000D03*
X201104500Y-137795000D03*
X40540000Y-102235000D03*
X53467000Y-99695000D03*
X273902500Y-121285000D03*
X286829500Y-118745000D03*
X402490000Y-140335000D03*
X415417000Y-137795000D03*
X102452500Y-83185000D03*
X115379500Y-80645000D03*
D15*
X312737500Y-88962500D03*
X312737500Y-85662500D03*
X355600000Y-146112500D03*
X355600000Y-142812500D03*
X141287500Y-108012500D03*
X141287500Y-104712500D03*
X315912500Y-108012500D03*
X315912500Y-104712500D03*
X58737500Y-108012500D03*
X58737500Y-104712500D03*
X187325000Y-146112500D03*
X187325000Y-142812500D03*
D16*
X386910000Y-69100000D03*
X385890000Y-69100000D03*
D15*
X55562500Y-127062500D03*
X55562500Y-123762500D03*
X312737500Y-127062500D03*
X312737500Y-123762500D03*
X187325000Y-108012500D03*
X187325000Y-104712500D03*
X355600000Y-108012500D03*
X355600000Y-104712500D03*
X98425000Y-108012500D03*
X98425000Y-104712500D03*
D17*
X382700000Y-68600000D03*
D18*
X383550000Y-68000000D03*
X383550000Y-68400000D03*
X383550000Y-68800000D03*
X383550000Y-69200000D03*
X381850000Y-69200000D03*
X381850000Y-68800000D03*
X381850000Y-68400000D03*
X381850000Y-68000000D03*
D15*
X358775000Y-69912500D03*
X358775000Y-66612500D03*
X230187500Y-108012500D03*
X230187500Y-104712500D03*
X230187500Y-127062500D03*
X230187500Y-123762500D03*
D19*
X376380000Y-71200000D03*
X375420000Y-71200000D03*
D15*
X269875000Y-88962500D03*
X269875000Y-85662500D03*
X312737500Y-146112500D03*
X312737500Y-142812500D03*
X355600000Y-88962500D03*
X355600000Y-85662500D03*
X144462500Y-108012500D03*
X144462500Y-104712500D03*
D19*
X372780000Y-77600000D03*
X371820000Y-77600000D03*
D15*
X315912500Y-50862500D03*
X315912500Y-47562500D03*
D20*
X370575000Y-70500000D03*
X369025000Y-70500000D03*
D15*
X227012500Y-50862500D03*
X227012500Y-47562500D03*
D21*
X381937500Y-73600000D03*
X381937500Y-74000000D03*
X381937500Y-74400000D03*
X381937500Y-74800000D03*
X381937500Y-75200000D03*
X381937500Y-75600000D03*
X381937500Y-76000000D03*
X381937500Y-76400000D03*
X381937500Y-76800000D03*
X381937500Y-77200000D03*
X381937500Y-77600000D03*
X381937500Y-78000000D03*
X381937500Y-78400000D03*
X381937500Y-78800000D03*
D22*
X381100000Y-79637500D03*
X380700000Y-79637500D03*
X380300000Y-79637500D03*
X379900000Y-79637500D03*
X379500000Y-79637500D03*
X379100000Y-79637500D03*
X378700000Y-79637500D03*
X378300000Y-79637500D03*
X377900000Y-79637500D03*
X377500000Y-79637500D03*
X377100000Y-79637500D03*
X376700000Y-79637500D03*
X376300000Y-79637500D03*
X375900000Y-79637500D03*
D21*
X375062500Y-78800000D03*
X375062500Y-78400000D03*
X375062500Y-78000000D03*
X375062500Y-77600000D03*
X375062500Y-77200000D03*
X375062500Y-76800000D03*
X375062500Y-76400000D03*
X375062500Y-76000000D03*
X375062500Y-75600000D03*
X375062500Y-75200000D03*
X375062500Y-74800000D03*
X375062500Y-74400000D03*
X375062500Y-74000000D03*
X375062500Y-73600000D03*
D22*
X375900000Y-72762500D03*
X376300000Y-72762500D03*
X376700000Y-72762500D03*
X377100000Y-72762500D03*
X377500000Y-72762500D03*
X377900000Y-72762500D03*
X378300000Y-72762500D03*
X378700000Y-72762500D03*
X379100000Y-72762500D03*
X379500000Y-72762500D03*
X379900000Y-72762500D03*
X380300000Y-72762500D03*
X380700000Y-72762500D03*
X381100000Y-72762500D03*
D23*
X379775000Y-77475000D03*
X379775000Y-76200000D03*
X379775000Y-74925000D03*
X378500000Y-77475000D03*
X378500000Y-76200000D03*
D24*
X378500000Y-76200000D03*
D23*
X378500000Y-74925000D03*
X377225000Y-77475000D03*
X377225000Y-76200000D03*
X377225000Y-74925000D03*
D15*
X141287500Y-69912500D03*
X141287500Y-66612500D03*
X98425000Y-146112500D03*
X98425000Y-142812500D03*
X273050000Y-69912500D03*
X273050000Y-66612500D03*
D16*
X386910000Y-70400000D03*
X385890000Y-70400000D03*
D25*
X375800000Y-81720000D03*
X375800000Y-82680000D03*
D26*
X372500000Y-71280000D03*
X372500000Y-70320000D03*
D15*
X230187500Y-69912500D03*
X230187500Y-66612500D03*
D26*
X379900000Y-69180000D03*
X379900000Y-68220000D03*
D25*
X375700000Y-86020000D03*
X375700000Y-86980000D03*
D15*
X227012500Y-127062500D03*
X227012500Y-123762500D03*
D27*
X385125000Y-52000000D03*
X383475000Y-52000000D03*
D15*
X55562500Y-88962500D03*
X55562500Y-85662500D03*
X273050000Y-50862500D03*
X273050000Y-47562500D03*
D28*
X378120000Y-89000000D03*
X379080000Y-89000000D03*
D15*
X358775000Y-88962500D03*
X358775000Y-85662500D03*
X101600000Y-108012500D03*
X101600000Y-104712500D03*
X401637500Y-50862500D03*
X401637500Y-47562500D03*
X141287500Y-88962500D03*
X141287500Y-85662500D03*
X398462500Y-50862500D03*
X398462500Y-47562500D03*
X401637500Y-127062500D03*
X401637500Y-123762500D03*
D29*
X375500000Y-52075000D03*
X375500000Y-53725000D03*
D15*
X273050000Y-127062500D03*
X273050000Y-123762500D03*
X230187500Y-146112500D03*
X230187500Y-142812500D03*
X315912500Y-127062500D03*
X315912500Y-123762500D03*
X184150000Y-50862500D03*
X184150000Y-47562500D03*
X312737500Y-108012500D03*
X312737500Y-104712500D03*
X401637500Y-88962500D03*
X401637500Y-85662500D03*
X144462500Y-127062500D03*
X144462500Y-123762500D03*
X101600000Y-127062500D03*
X101600000Y-123762500D03*
X273050000Y-88962500D03*
X273050000Y-85662500D03*
X187325000Y-127062500D03*
X187325000Y-123762500D03*
D26*
X369500000Y-56180000D03*
X369500000Y-55220000D03*
D15*
X401637500Y-69912500D03*
X401637500Y-66612500D03*
X401637500Y-108012500D03*
X401637500Y-104712500D03*
X398462500Y-146112500D03*
X398462500Y-142812500D03*
D30*
X375000000Y-67490000D03*
X375000000Y-68510000D03*
D15*
X98425000Y-88962500D03*
X98425000Y-85662500D03*
X355600000Y-127062500D03*
X355600000Y-123762500D03*
X144462500Y-146112500D03*
X144462500Y-142812500D03*
D31*
X401662500Y-76512500D03*
X407962500Y-76512500D03*
X401662500Y-72712500D03*
X407962500Y-72712500D03*
D15*
X101600000Y-69912500D03*
X101600000Y-66612500D03*
X358775000Y-108012500D03*
X358775000Y-104712500D03*
D26*
X374100000Y-71280000D03*
X374100000Y-70320000D03*
D25*
X374600000Y-55220000D03*
X374600000Y-56180000D03*
D32*
X376300000Y-68510000D03*
X376300000Y-67490000D03*
D15*
X269875000Y-127062500D03*
X269875000Y-123762500D03*
X184150000Y-88962500D03*
X184150000Y-85662500D03*
X398462500Y-127062500D03*
X398462500Y-123762500D03*
X269875000Y-108012500D03*
X269875000Y-104712500D03*
X98425000Y-50862500D03*
X98425000Y-47562500D03*
D25*
X377900000Y-81720000D03*
X377900000Y-82680000D03*
D15*
X401637500Y-94518750D03*
X401637500Y-91218750D03*
X58737500Y-69912500D03*
X58737500Y-66612500D03*
X227012500Y-69912500D03*
X227012500Y-66612500D03*
D27*
X385125000Y-50100000D03*
X383475000Y-50100000D03*
D31*
X407962500Y-53700000D03*
X401662500Y-53700000D03*
X407962500Y-57500000D03*
X401662500Y-57500000D03*
D19*
X373480000Y-72800000D03*
X372520000Y-72800000D03*
D15*
X55562500Y-108012500D03*
X55562500Y-104712500D03*
X141287500Y-146112500D03*
X141287500Y-142812500D03*
X315912500Y-146112500D03*
X315912500Y-142812500D03*
X187325000Y-69912500D03*
X187325000Y-66612500D03*
X184150000Y-127062500D03*
X184150000Y-123762500D03*
X398462500Y-108012500D03*
X398462500Y-104712500D03*
X358775000Y-127062500D03*
X358775000Y-123762500D03*
D33*
X371050000Y-54262500D03*
X372950000Y-54262500D03*
X372000000Y-56137500D03*
D15*
X187325000Y-88962500D03*
X187325000Y-85662500D03*
X58737500Y-146112500D03*
X58737500Y-142812500D03*
X269875000Y-69912500D03*
X269875000Y-66612500D03*
D34*
X379700000Y-87350000D03*
X377500000Y-87350000D03*
X377500000Y-85650000D03*
X379700000Y-85650000D03*
D15*
X184150000Y-108012500D03*
X184150000Y-104712500D03*
D35*
X370350000Y-51700000D03*
X373650000Y-51700000D03*
D15*
X184150000Y-146112500D03*
X184150000Y-142812500D03*
X55562500Y-50862500D03*
X55562500Y-47562500D03*
X315912500Y-69912500D03*
X315912500Y-66612500D03*
X355600000Y-50862500D03*
X355600000Y-47562500D03*
X101600000Y-88962500D03*
X101600000Y-85662500D03*
X101600000Y-50862500D03*
X101600000Y-47562500D03*
D28*
X381820000Y-66800000D03*
X382780000Y-66800000D03*
D15*
X141287500Y-127062500D03*
X141287500Y-123762500D03*
D26*
X377700000Y-69580000D03*
X377700000Y-68620000D03*
D15*
X58737500Y-88962500D03*
X58737500Y-85662500D03*
X55562500Y-146112500D03*
X55562500Y-142812500D03*
X230187500Y-50862500D03*
X230187500Y-47562500D03*
D28*
X384120000Y-77600000D03*
X385080000Y-77600000D03*
D15*
X312737500Y-69912500D03*
X312737500Y-66612500D03*
X187325000Y-50862500D03*
X187325000Y-47562500D03*
X398462500Y-69912500D03*
X398462500Y-66612500D03*
X144462500Y-69912500D03*
X144462500Y-66612500D03*
X312737500Y-50862500D03*
X312737500Y-47562500D03*
X355600000Y-69912500D03*
X355600000Y-66612500D03*
X55562500Y-69912500D03*
X55562500Y-66612500D03*
X227012500Y-108012500D03*
X227012500Y-104712500D03*
D36*
X375500000Y-47800000D03*
X375500000Y-45000000D03*
D15*
X230187500Y-88962500D03*
X230187500Y-85662500D03*
X315912500Y-88962500D03*
X315912500Y-85662500D03*
X358775000Y-146112500D03*
X358775000Y-142812500D03*
D37*
X379600000Y-44850000D03*
D38*
X379600000Y-46550000D03*
X377600000Y-46550000D03*
X377600000Y-44650000D03*
D15*
X98425000Y-69912500D03*
X98425000Y-66612500D03*
X269875000Y-50862500D03*
X269875000Y-47562500D03*
X358775000Y-50862500D03*
X358775000Y-47562500D03*
D39*
X377390000Y-84000000D03*
X378410000Y-84000000D03*
D15*
X273050000Y-108012500D03*
X273050000Y-104712500D03*
X58737500Y-50862500D03*
X58737500Y-47562500D03*
X184150000Y-69912500D03*
X184150000Y-66612500D03*
X401637500Y-146112500D03*
X401637500Y-142812500D03*
X273050000Y-146112500D03*
X273050000Y-142812500D03*
X144462500Y-88962500D03*
X144462500Y-85662500D03*
D32*
X399712500Y-56110000D03*
X399712500Y-55090000D03*
D26*
X383500000Y-73280000D03*
X383500000Y-72320000D03*
D15*
X144462500Y-50862500D03*
X144462500Y-47562500D03*
X227012500Y-88962500D03*
X227012500Y-85662500D03*
X269875000Y-146112500D03*
X269875000Y-142812500D03*
X141287500Y-50862500D03*
X141287500Y-47562500D03*
X58737500Y-127062500D03*
X58737500Y-123762500D03*
X101600000Y-146112500D03*
X101600000Y-142812500D03*
D40*
X375393750Y-40045000D03*
X376168750Y-40045000D03*
D41*
X376868750Y-40045000D03*
X377368750Y-40045000D03*
X377868750Y-40045000D03*
X378368750Y-40045000D03*
X378868750Y-40045000D03*
X379368750Y-40045000D03*
X379868750Y-40045000D03*
X380368750Y-40045000D03*
D40*
X381068750Y-40045000D03*
X381843750Y-40045000D03*
D42*
X374298750Y-34950000D03*
D43*
X374298750Y-39130000D03*
D42*
X382938750Y-34950000D03*
D43*
X382938750Y-39130000D03*
D44*
X368500000Y-53725000D03*
X368500000Y-52075000D03*
D15*
X227012500Y-146112500D03*
X227012500Y-142812500D03*
X98425000Y-127062500D03*
X98425000Y-123762500D03*
D45*
X380800000Y-56200000D03*
X375800000Y-84100000D03*
X409700000Y-53700000D03*
X375200000Y-41600000D03*
X380000000Y-81700000D03*
X387200000Y-78100000D03*
X382400000Y-72400000D03*
X380500000Y-64100000D03*
X387300000Y-53000000D03*
X384150000Y-90650000D03*
X373500000Y-56200000D03*
X372200000Y-68900000D03*
X382400000Y-70000000D03*
X409600000Y-76500000D03*
X369000000Y-69400000D03*
X372000000Y-53100000D03*
X386400000Y-50100000D03*
X373100000Y-90650000D03*
X380500000Y-65200000D03*
X382000000Y-41600000D03*
X370800000Y-77700000D03*
X383800000Y-66800000D03*
X379600000Y-84300000D03*
X372300000Y-78600000D03*
X387900000Y-69700000D03*
X370575000Y-72225000D03*
X384600000Y-73200000D03*
X380800000Y-66500000D03*
X378100000Y-67500000D03*
X376900000Y-82200000D03*
X373300000Y-69500000D03*
X386100000Y-78100000D03*
X375500000Y-70100000D03*
X374700000Y-82300000D03*
X379200000Y-67300000D03*
X382300000Y-53100000D03*
X369200000Y-50800000D03*
X385000000Y-60100000D03*
X382300000Y-59300000D03*
X373500000Y-59300000D03*
X398000000Y-73600000D03*
X400300000Y-89000000D03*
X388700000Y-94300000D03*
X394700000Y-94300000D03*
X399100000Y-74500000D03*
X399800000Y-107700000D03*
X399800000Y-126700000D03*
X399100000Y-75600000D03*
X397100000Y-145800000D03*
X398000000Y-75600000D03*
X396800000Y-92100000D03*
X396800000Y-82700000D03*
X380100000Y-42700000D03*
X377100000Y-42700000D03*
X40500000Y-81200000D03*
X40500000Y-62100000D03*
X40500000Y-43100000D03*
X40500000Y-119300000D03*
X40500000Y-138300000D03*
X40500000Y-100200000D03*
X59600000Y-119300000D03*
X59600000Y-81200000D03*
X59600000Y-100200000D03*
X59600000Y-138300000D03*
X59600000Y-43100000D03*
X59600000Y-62100000D03*
X83400000Y-81200000D03*
X83400000Y-119300000D03*
X83400000Y-62100000D03*
X83400000Y-43100000D03*
X83400000Y-138300000D03*
X83400000Y-100200000D03*
X102400000Y-138300000D03*
X102400000Y-100200000D03*
X102400000Y-81200000D03*
X102400000Y-119300000D03*
X102400000Y-62100000D03*
X102400000Y-43100000D03*
X126300000Y-100200000D03*
X126300000Y-119300000D03*
X126300000Y-43100000D03*
X126300000Y-62100000D03*
X126300000Y-81200000D03*
X126300000Y-138300000D03*
X145300000Y-43100000D03*
X145300000Y-81200000D03*
X145300000Y-100200000D03*
X145300000Y-138300000D03*
X145300000Y-62100000D03*
X145300000Y-119300000D03*
X169100000Y-43100000D03*
X169100000Y-119300000D03*
X169100000Y-138300000D03*
X169100000Y-62100000D03*
X169100000Y-81200000D03*
X169100000Y-100200000D03*
X188200000Y-62100000D03*
X188200000Y-100200000D03*
X188200000Y-81200000D03*
X188200000Y-43100000D03*
X188200000Y-119300000D03*
X188200000Y-138300000D03*
X212000000Y-119300000D03*
X362800000Y-78900000D03*
X212000000Y-81200000D03*
X212000000Y-62100000D03*
X373800000Y-78500000D03*
X212000000Y-100200000D03*
X212000000Y-43100000D03*
X212000000Y-138300000D03*
X231000000Y-100200000D03*
X231000000Y-119300000D03*
X381400000Y-81700000D03*
X231000000Y-43100000D03*
X231000000Y-62100000D03*
X231000000Y-81200000D03*
X231000000Y-138300000D03*
X392900000Y-87700000D03*
X254900000Y-81200000D03*
X254900000Y-119300000D03*
X254900000Y-43100000D03*
X254900000Y-62100000D03*
X254900000Y-138300000D03*
X254900000Y-100200000D03*
X273900000Y-43100000D03*
X273900000Y-138300000D03*
X273900000Y-100200000D03*
X273900000Y-119300000D03*
X273900000Y-81200000D03*
X273900000Y-62100000D03*
X297700000Y-119300000D03*
X297700000Y-43100000D03*
X297700000Y-62100000D03*
X297700000Y-81200000D03*
X297700000Y-138300000D03*
X297700000Y-100200000D03*
X316800000Y-62100000D03*
X316800000Y-119300000D03*
X316800000Y-43100000D03*
X316800000Y-138300000D03*
X316800000Y-81200000D03*
X316800000Y-100200000D03*
X340600000Y-81200000D03*
X340600000Y-43100000D03*
X340600000Y-138300000D03*
X340600000Y-100200000D03*
X340600000Y-119300000D03*
X340600000Y-62100000D03*
X359600000Y-43100000D03*
X359600000Y-138300000D03*
X359600000Y-100200000D03*
X359600000Y-81200000D03*
X359200000Y-62100000D03*
X359600000Y-119300000D03*
X388000000Y-61900000D03*
X383700000Y-85200000D03*
X389700000Y-77200000D03*
X383400000Y-100200000D03*
X383500000Y-43100000D03*
X383400000Y-138300000D03*
X383400000Y-119300000D03*
X402500000Y-62100000D03*
X402500000Y-81200000D03*
X402500000Y-100200000D03*
X402500000Y-138300000D03*
X402500000Y-43100000D03*
X402500000Y-119300000D03*
X395800000Y-70800000D03*
X392500000Y-70500000D03*
X374700000Y-79750000D03*
X382300000Y-54200000D03*
X382300000Y-52000000D03*
X377100000Y-41600000D03*
X382300000Y-50100000D03*
X380100000Y-41600000D03*
D46*
X386750000Y-77250000D02*
X387200000Y-77700000D01*
D47*
X380500000Y-55200000D02*
X380500000Y-55700000D01*
D46*
X372400000Y-69100000D02*
X372400000Y-70220000D01*
D48*
X375393750Y-39793750D02*
X375100000Y-39500000D01*
D49*
X379500000Y-77200000D02*
X378500000Y-76200000D01*
D47*
X380500000Y-55700000D02*
X380500000Y-55900000D01*
D46*
X385430000Y-77250000D02*
X386750000Y-77250000D01*
X375300000Y-71200000D02*
X374420000Y-70320000D01*
D48*
X379600000Y-65600000D02*
X380500000Y-64700000D01*
D46*
X380100000Y-68020000D02*
X379900000Y-68220000D01*
D48*
X382780000Y-66800000D02*
X383800000Y-66800000D01*
D49*
X383000000Y-70000000D02*
X382400000Y-70000000D01*
D48*
X382568750Y-39500000D02*
X382938750Y-39130000D01*
X387300000Y-53000000D02*
X387500000Y-53200000D01*
D46*
X374200000Y-69100000D02*
X373700000Y-68600000D01*
D48*
X375393750Y-40045000D02*
X375393750Y-41406250D01*
D49*
X380000000Y-90000000D02*
X381400000Y-88600000D01*
X379500000Y-80200000D02*
X379500000Y-79637500D01*
D48*
X374900000Y-39500000D02*
X374668750Y-39500000D01*
D49*
X383550000Y-69200000D02*
X383500000Y-69250000D01*
D46*
X379500000Y-65100000D02*
X379500000Y-65500000D01*
D49*
X381400000Y-83900000D02*
X380575000Y-83075000D01*
D46*
X379500000Y-66400000D02*
X379400000Y-66300000D01*
X379400000Y-65200000D02*
X379500000Y-65100000D01*
D49*
X381400000Y-88600000D02*
X381400000Y-83900000D01*
D46*
X372400000Y-70220000D02*
X372500000Y-70320000D01*
D48*
X385125000Y-50100000D02*
X386400000Y-50100000D01*
D49*
X378120000Y-89720000D02*
X378400000Y-90000000D01*
D46*
X377200000Y-67100000D02*
X377900000Y-66400000D01*
X379400000Y-66300000D02*
X379400000Y-65200000D01*
D47*
X370480000Y-55220000D02*
X371050000Y-54650000D01*
D48*
X409700000Y-53700000D02*
X407962500Y-53700000D01*
D46*
X372180000Y-70320000D02*
X371600000Y-70900000D01*
D48*
X382100000Y-39500000D02*
X382400000Y-39500000D01*
D47*
X380500000Y-55900000D02*
X380800000Y-56200000D01*
D48*
X401662500Y-53700000D02*
X407962500Y-53700000D01*
D49*
X380500000Y-81400000D02*
X380500000Y-83000000D01*
D47*
X369200000Y-55220000D02*
X369500000Y-55220000D01*
D48*
X400490500Y-53700000D02*
X401662500Y-53700000D01*
X382400000Y-39500000D02*
X382568750Y-39500000D01*
D49*
X378120000Y-89000000D02*
X378120000Y-89720000D01*
D48*
X382480000Y-72320000D02*
X382400000Y-72400000D01*
D47*
X369500000Y-55220000D02*
X370480000Y-55220000D01*
D46*
X379500000Y-65500000D02*
X379600000Y-65600000D01*
D49*
X379500000Y-80400000D02*
X380050000Y-80950000D01*
X380575000Y-83075000D02*
X379500000Y-82000000D01*
X376120000Y-83000000D02*
X375800000Y-82680000D01*
D48*
X385125000Y-50100000D02*
X384025000Y-49000000D01*
D46*
X379800000Y-65900000D02*
X379900000Y-65800000D01*
D49*
X377130000Y-86980000D02*
X377500000Y-87350000D01*
D48*
X381843750Y-41100000D02*
X381843750Y-41443750D01*
D46*
X378600000Y-66400000D02*
X378900000Y-66400000D01*
X371600000Y-70900000D02*
X371600000Y-71880000D01*
X379800000Y-66300000D02*
X379800000Y-65900000D01*
D47*
X379600000Y-44850000D02*
X379600000Y-45000000D01*
D46*
X375420000Y-71200000D02*
X375300000Y-71200000D01*
D47*
X373520000Y-56180000D02*
X373500000Y-56200000D01*
X371050000Y-53850000D02*
X371800000Y-53100000D01*
D49*
X380050000Y-80950000D02*
X380500000Y-81400000D01*
D48*
X381800000Y-49000000D02*
X381600000Y-49000000D01*
D47*
X379500000Y-65100000D02*
X380500000Y-64100000D01*
D46*
X379800000Y-66300000D02*
X379600000Y-66300000D01*
D48*
X380500000Y-65200000D02*
X379900000Y-65800000D01*
D47*
X381100000Y-49000000D02*
X380500000Y-49600000D01*
D48*
X381843750Y-39756250D02*
X382100000Y-39500000D01*
X409587500Y-76512500D02*
X409600000Y-76500000D01*
D47*
X374600000Y-56180000D02*
X373520000Y-56180000D01*
X368500000Y-54520000D02*
X369200000Y-55220000D01*
D48*
X379600000Y-66100000D02*
X379600000Y-65600000D01*
D49*
X377580000Y-83000000D02*
X376600000Y-83000000D01*
D46*
X377200000Y-68020000D02*
X377200000Y-67100000D01*
D49*
X379700000Y-85650000D02*
X379450000Y-85650000D01*
D48*
X382200000Y-39500000D02*
X381900000Y-39800000D01*
X384025000Y-49000000D02*
X381800000Y-49000000D01*
X387500000Y-53200000D02*
X399990500Y-53200000D01*
X407962500Y-76512500D02*
X409587500Y-76512500D01*
D46*
X377700000Y-68520000D02*
X377200000Y-68020000D01*
D49*
X380050000Y-80950000D02*
X380050000Y-81650000D01*
X383500000Y-69500000D02*
X383000000Y-70000000D01*
D48*
X383500000Y-72320000D02*
X382480000Y-72320000D01*
D46*
X379800000Y-66700000D02*
X379800000Y-66300000D01*
D48*
X371820000Y-77600000D02*
X371250000Y-77600000D01*
D49*
X378120000Y-87970000D02*
X377500000Y-87350000D01*
D47*
X379600000Y-44600000D02*
X381843750Y-42356250D01*
D49*
X377900000Y-82680000D02*
X377580000Y-83000000D01*
D48*
X374668750Y-39500000D02*
X374298750Y-39130000D01*
D46*
X372400000Y-69100000D02*
X372200000Y-68900000D01*
D48*
X380500000Y-64700000D02*
X380500000Y-65200000D01*
D46*
X372520000Y-72800000D02*
X371600000Y-71880000D01*
D49*
X379500000Y-80200000D02*
X379500000Y-80400000D01*
D47*
X379600000Y-44850000D02*
X379600000Y-44600000D01*
D48*
X399990500Y-53200000D02*
X400490500Y-53700000D01*
X379900000Y-65800000D02*
X379600000Y-66100000D01*
D49*
X375700000Y-86980000D02*
X377130000Y-86980000D01*
D46*
X379600000Y-66300000D02*
X379500000Y-66400000D01*
X379500000Y-66400000D02*
X378600000Y-66400000D01*
D47*
X375600000Y-53825000D02*
X375600000Y-55700000D01*
D48*
X374900000Y-39500000D02*
X375000000Y-39500000D01*
D47*
X368500000Y-53725000D02*
X368500000Y-54520000D01*
X381100000Y-46500000D02*
X381100000Y-48500000D01*
D49*
X377750000Y-87350000D02*
X377500000Y-87350000D01*
X379500000Y-79637500D02*
X379500000Y-77200000D01*
D48*
X381600000Y-49000000D02*
X381100000Y-48500000D01*
D49*
X378120000Y-89000000D02*
X378120000Y-87970000D01*
D48*
X381800000Y-49000000D02*
X381100000Y-49000000D01*
X381843750Y-40045000D02*
X381843750Y-39756250D01*
D47*
X375600000Y-55700000D02*
X375120000Y-56180000D01*
X375120000Y-56180000D02*
X374600000Y-56180000D01*
D48*
X380500000Y-64100000D02*
X380500000Y-64700000D01*
D46*
X374100000Y-70320000D02*
X374200000Y-70220000D01*
D48*
X375393750Y-41406250D02*
X375200000Y-41600000D01*
D46*
X372900000Y-68600000D02*
X372400000Y-69100000D01*
D47*
X371050000Y-54650000D02*
X371050000Y-54262500D01*
D49*
X375800000Y-82680000D02*
X375800000Y-84100000D01*
D48*
X382400000Y-39500000D02*
X382200000Y-39500000D01*
X371250000Y-77600000D02*
X370900000Y-77600000D01*
D46*
X374200000Y-70220000D02*
X374200000Y-69100000D01*
D48*
X385125000Y-50100000D02*
X385125000Y-52000000D01*
X369000000Y-70475000D02*
X369025000Y-70500000D01*
D46*
X380100000Y-67000000D02*
X380100000Y-68020000D01*
D47*
X380500000Y-49600000D02*
X380500000Y-55200000D01*
D46*
X372500000Y-70320000D02*
X372180000Y-70320000D01*
D47*
X381843750Y-40045000D02*
X381843750Y-41100000D01*
D46*
X387200000Y-77700000D02*
X387200000Y-78100000D01*
D48*
X375393750Y-40045000D02*
X375393750Y-39793750D01*
D47*
X371800000Y-53100000D02*
X372000000Y-53100000D01*
X375500000Y-53725000D02*
X375600000Y-53825000D01*
D46*
X385080000Y-77600000D02*
X385430000Y-77250000D01*
D48*
X375000000Y-39500000D02*
X375400000Y-39900000D01*
D46*
X374420000Y-70320000D02*
X374100000Y-70320000D01*
D49*
X378400000Y-90000000D02*
X380000000Y-90000000D01*
D48*
X369000000Y-69400000D02*
X369000000Y-70475000D01*
D49*
X383500000Y-69250000D02*
X383500000Y-69500000D01*
D47*
X379600000Y-45000000D02*
X381100000Y-46500000D01*
X380500000Y-55700000D02*
X380500000Y-56000000D01*
D46*
X373700000Y-68600000D02*
X372900000Y-68600000D01*
D49*
X379500000Y-82000000D02*
X379500000Y-80200000D01*
D46*
X379800000Y-66700000D02*
X379950000Y-66850000D01*
D48*
X381843750Y-41443750D02*
X382000000Y-41600000D01*
D47*
X381100000Y-48500000D02*
X381100000Y-49000000D01*
X381843750Y-42356250D02*
X381843750Y-41100000D01*
D49*
X379700000Y-85650000D02*
X379700000Y-84400000D01*
D47*
X371050000Y-54262500D02*
X371050000Y-53850000D01*
D48*
X401662500Y-76512500D02*
X407962500Y-76512500D01*
D46*
X377900000Y-66400000D02*
X378600000Y-66400000D01*
D49*
X380050000Y-81650000D02*
X380000000Y-81700000D01*
D46*
X379950000Y-66850000D02*
X379500000Y-66400000D01*
D47*
X380500000Y-55200000D02*
X380500000Y-64100000D01*
D46*
X379950000Y-66850000D02*
X380100000Y-67000000D01*
D49*
X376600000Y-83000000D02*
X376120000Y-83000000D01*
X379700000Y-84400000D02*
X379600000Y-84300000D01*
X380500000Y-83000000D02*
X380575000Y-83075000D01*
D48*
X370900000Y-77600000D02*
X370800000Y-77700000D01*
X375100000Y-39500000D02*
X374900000Y-39500000D01*
D49*
X379450000Y-85650000D02*
X377750000Y-87350000D01*
X380900000Y-86500000D02*
X380900000Y-84100000D01*
X380550000Y-86850000D02*
X380900000Y-86500000D01*
X380200000Y-86850000D02*
X380550000Y-86850000D01*
X379700000Y-87350000D02*
X380200000Y-86850000D01*
X379080000Y-87970000D02*
X379700000Y-87350000D01*
X379100000Y-82300000D02*
X380800000Y-84000000D01*
X380900000Y-84100000D02*
X380800000Y-84000000D01*
X379100000Y-79637500D02*
X379100000Y-82300000D01*
X379080000Y-89000000D02*
X379080000Y-87970000D01*
X377500000Y-85650000D02*
X377390000Y-85540000D01*
X377130000Y-86020000D02*
X377500000Y-85650000D01*
X375700000Y-86020000D02*
X377130000Y-86020000D01*
X377390000Y-84000000D02*
X377390000Y-85540000D01*
X372300000Y-78600000D02*
X372600000Y-78600000D01*
X384520000Y-73280000D02*
X384600000Y-73200000D01*
X372680000Y-71100000D02*
X372500000Y-71280000D01*
X381850000Y-66830000D02*
X381820000Y-66800000D01*
X377700000Y-69580000D02*
X377700000Y-70100000D01*
X375062500Y-73600000D02*
X374280000Y-73600000D01*
X374500000Y-72300000D02*
X374200000Y-72000000D01*
D47*
X370100000Y-66000000D02*
X370100000Y-67500000D01*
X374600000Y-54600000D02*
X374300000Y-54300000D01*
D48*
X387300000Y-69100000D02*
X387900000Y-69700000D01*
D49*
X373220000Y-72000000D02*
X372500000Y-71280000D01*
X378500000Y-67900000D02*
X378100000Y-67500000D01*
X374280000Y-73600000D02*
X373480000Y-72800000D01*
X383720000Y-77200000D02*
X384120000Y-77600000D01*
X377900000Y-81720000D02*
X377380000Y-81720000D01*
X372900000Y-73600000D02*
X372200000Y-73600000D01*
X372200000Y-73600000D02*
X371900000Y-73600000D01*
X371900000Y-73600000D02*
X371600000Y-73300000D01*
X381937500Y-77200000D02*
X383720000Y-77200000D01*
X372600000Y-78600000D02*
X372780000Y-78420000D01*
X373920000Y-71100000D02*
X374100000Y-71280000D01*
X373300000Y-73200000D02*
X373300000Y-72980000D01*
X373900000Y-77200000D02*
X373180000Y-77200000D01*
D47*
X373520000Y-55220000D02*
X372950000Y-54650000D01*
D49*
X376000000Y-71900000D02*
X374720000Y-71900000D01*
X374720000Y-71900000D02*
X374100000Y-71280000D01*
D47*
X373650000Y-52625000D02*
X374300000Y-53275000D01*
D49*
X378100000Y-69400000D02*
X377880000Y-69400000D01*
X373300000Y-70700000D02*
X373300000Y-69500000D01*
X383500000Y-73280000D02*
X384520000Y-73280000D01*
X373700000Y-71100000D02*
X373300000Y-70700000D01*
X376300000Y-72200000D02*
X376000000Y-71900000D01*
X381100000Y-66800000D02*
X380800000Y-66500000D01*
X372780000Y-77600000D02*
X372780000Y-78420000D01*
X373180000Y-77200000D02*
X372780000Y-77600000D01*
X376300000Y-72762500D02*
X376300000Y-72200000D01*
D47*
X374300000Y-53275000D02*
X374300000Y-54300000D01*
D49*
X377900000Y-72300000D02*
X378100000Y-72100000D01*
X375900000Y-72762500D02*
X375900000Y-72400000D01*
X377700000Y-70100000D02*
X378100000Y-70500000D01*
X378300000Y-72300000D02*
X378100000Y-72100000D01*
D47*
X376700000Y-53275000D02*
X376700000Y-63200000D01*
D49*
X378100000Y-70500000D02*
X378100000Y-72100000D01*
D48*
X370575000Y-72375000D02*
X371400000Y-73200000D01*
X386910000Y-69100000D02*
X387300000Y-69100000D01*
D49*
X373300000Y-72980000D02*
X373480000Y-72800000D01*
X377380000Y-81720000D02*
X376900000Y-82200000D01*
D47*
X374600000Y-55220000D02*
X374600000Y-54600000D01*
D49*
X383180000Y-73600000D02*
X383500000Y-73280000D01*
X378300000Y-79637500D02*
X378300000Y-81320000D01*
D47*
X370575000Y-67975000D02*
X370575000Y-70500000D01*
D49*
X375900000Y-72400000D02*
X375800000Y-72300000D01*
X384120000Y-77600000D02*
X384120000Y-77720000D01*
X384800000Y-78400000D02*
X385800000Y-78400000D01*
X377880000Y-69400000D02*
X377700000Y-69580000D01*
X372900000Y-71100000D02*
X373300000Y-70700000D01*
X372200000Y-73600000D02*
X371800000Y-73600000D01*
X372900000Y-71100000D02*
X372680000Y-71100000D01*
D47*
X374600000Y-55220000D02*
X373520000Y-55220000D01*
D49*
X381850000Y-67170000D02*
X381850000Y-66830000D01*
X371800000Y-73600000D02*
X371675000Y-73475000D01*
X375062500Y-77200000D02*
X373900000Y-77200000D01*
X375800000Y-72300000D02*
X374500000Y-72300000D01*
X374200000Y-72000000D02*
X373220000Y-72000000D01*
X385800000Y-78400000D02*
X386100000Y-78100000D01*
X381820000Y-66800000D02*
X381100000Y-66800000D01*
X378500000Y-69000000D02*
X378500000Y-67900000D01*
X377900000Y-72762500D02*
X377900000Y-72300000D01*
D48*
X370575000Y-70500000D02*
X370575000Y-72375000D01*
D47*
X374900000Y-65000000D02*
X371100000Y-65000000D01*
X375500000Y-52075000D02*
X376700000Y-53275000D01*
X370100000Y-67500000D02*
X370575000Y-67975000D01*
D49*
X378300000Y-81320000D02*
X377900000Y-81720000D01*
X378100000Y-69400000D02*
X378500000Y-69000000D01*
D47*
X373650000Y-51700000D02*
X373650000Y-52625000D01*
D49*
X378300000Y-72762500D02*
X378300000Y-72300000D01*
D47*
X374300000Y-53275000D02*
X374400000Y-53175000D01*
D49*
X381937500Y-73600000D02*
X383180000Y-73600000D01*
X373300000Y-73200000D02*
X372900000Y-73600000D01*
D48*
X371675000Y-73475000D02*
X371400000Y-73200000D01*
D47*
X375500000Y-52075000D02*
X374400000Y-53175000D01*
X376700000Y-63200000D02*
X374900000Y-65000000D01*
X372950000Y-54650000D02*
X372950000Y-54262500D01*
D49*
X381850000Y-68000000D02*
X381850000Y-67170000D01*
X373700000Y-71100000D02*
X373920000Y-71100000D01*
X384120000Y-77720000D02*
X384800000Y-78400000D01*
D47*
X371100000Y-65000000D02*
X370100000Y-66000000D01*
D49*
X378700000Y-71000000D02*
X379700000Y-70000000D01*
X376220000Y-81300000D02*
X375800000Y-81720000D01*
D48*
X379000000Y-68000000D02*
X379000000Y-67500000D01*
D49*
X378700000Y-72762500D02*
X378700000Y-71000000D01*
X379700000Y-70000000D02*
X379700000Y-69380000D01*
X376900000Y-81300000D02*
X376220000Y-81300000D01*
D48*
X379900000Y-69180000D02*
X379480000Y-69180000D01*
X379000000Y-68700000D02*
X379000000Y-68000000D01*
D49*
X375380000Y-81720000D02*
X374800000Y-82300000D01*
X376380000Y-71200000D02*
X376380000Y-70980000D01*
D48*
X379000000Y-67500000D02*
X379200000Y-67300000D01*
D49*
X379700000Y-69380000D02*
X379900000Y-69180000D01*
X376700000Y-72762500D02*
X376700000Y-71520000D01*
X376700000Y-71520000D02*
X376380000Y-71200000D01*
X377900000Y-80300000D02*
X376900000Y-81300000D01*
X377900000Y-79637500D02*
X377900000Y-80300000D01*
X375800000Y-81720000D02*
X375380000Y-81720000D01*
X376380000Y-70980000D02*
X375500000Y-70100000D01*
D48*
X379480000Y-69180000D02*
X379000000Y-68700000D01*
D49*
X374800000Y-82300000D02*
X374700000Y-82300000D01*
D47*
X374250000Y-47800000D02*
X370350000Y-51700000D01*
X375500000Y-47800000D02*
X374250000Y-47800000D01*
X368500000Y-52075000D02*
X369975000Y-52075000D01*
X369500000Y-56180000D02*
X368880000Y-56180000D01*
X371957500Y-56180000D02*
X372000000Y-56137500D01*
X367400000Y-53175000D02*
X368500000Y-52075000D01*
X368880000Y-56180000D02*
X367400000Y-54700000D01*
X369975000Y-52075000D02*
X370350000Y-51700000D01*
X369500000Y-56180000D02*
X371957500Y-56180000D01*
X367400000Y-54700000D02*
X367400000Y-53175000D01*
D49*
X55625000Y-50800000D02*
X358712500Y-50800000D01*
X381937500Y-74000000D02*
X390700000Y-74000000D01*
X385400000Y-59700000D02*
X385000000Y-60100000D01*
X369200000Y-50800000D02*
X358837500Y-50800000D01*
X387400000Y-59700000D02*
X385400000Y-59700000D01*
X382600000Y-53400000D02*
X385700000Y-53400000D01*
X393300000Y-71400000D02*
X393300000Y-65600000D01*
X55562500Y-50862500D02*
X55625000Y-50800000D01*
X401575000Y-50800000D02*
X401637500Y-50862500D01*
X382300000Y-53100000D02*
X382600000Y-53400000D01*
X393300000Y-65600000D02*
X387400000Y-59700000D01*
X358837500Y-50800000D02*
X358775000Y-50862500D01*
X390700000Y-74000000D02*
X393300000Y-71400000D01*
X358712500Y-50800000D02*
X358775000Y-50862500D01*
X385700000Y-53400000D02*
X388300000Y-50800000D01*
X388300000Y-50800000D02*
X401575000Y-50800000D01*
X55562500Y-47562500D02*
X55562500Y-44640500D01*
X55562500Y-44640500D02*
X53467000Y-42545000D01*
X357200000Y-68500000D02*
X357200000Y-62300000D01*
X393700000Y-68225000D02*
X395387500Y-69912500D01*
X395387500Y-69912500D02*
X395612500Y-69912500D01*
X356300000Y-69900000D02*
X55575000Y-69900000D01*
X357200000Y-69200000D02*
X357200000Y-68500000D01*
X358775000Y-69912500D02*
X357912500Y-69912500D01*
X382300000Y-59300000D02*
X387600000Y-59300000D01*
X55575000Y-69900000D02*
X55562500Y-69912500D01*
X381937500Y-74400000D02*
X390900000Y-74400000D01*
X360200000Y-59300000D02*
X373500000Y-59300000D01*
X390900000Y-74400000D02*
X395387500Y-69912500D01*
X356500000Y-69900000D02*
X357200000Y-69200000D01*
X356300000Y-69900000D02*
X356500000Y-69900000D01*
X395612500Y-69912500D02*
X401637500Y-69912500D01*
X357200000Y-62300000D02*
X360200000Y-59300000D01*
X393700000Y-65400000D02*
X393700000Y-68000000D01*
X393700000Y-68000000D02*
X393700000Y-68225000D01*
X387600000Y-59300000D02*
X393700000Y-65400000D01*
X357912500Y-69912500D02*
X357200000Y-69200000D01*
X55562500Y-63690500D02*
X53467000Y-61595000D01*
X55562500Y-66612500D02*
X55562500Y-63690500D01*
X401418750Y-94300000D02*
X401637500Y-94518750D01*
X381937500Y-74800000D02*
X396400000Y-74800000D01*
X401637500Y-94518750D02*
X402700000Y-93456250D01*
X358775000Y-88962500D02*
X358812500Y-89000000D01*
X358712500Y-88900000D02*
X358775000Y-88962500D01*
X396400000Y-74800000D02*
X397600000Y-73600000D01*
X402700000Y-93456250D02*
X402700000Y-90025000D01*
X358737500Y-89000000D02*
X55600000Y-89000000D01*
X368100000Y-89000000D02*
X373800000Y-94700000D01*
X400300000Y-89000000D02*
X401600000Y-89000000D01*
X397600000Y-73600000D02*
X398000000Y-73600000D01*
X383200000Y-94700000D02*
X388300000Y-94700000D01*
X401600000Y-89000000D02*
X401637500Y-88962500D01*
X388300000Y-94700000D02*
X388700000Y-94300000D01*
X394700000Y-94300000D02*
X401418750Y-94300000D01*
X358775000Y-88962500D02*
X358737500Y-89000000D01*
X373800000Y-94700000D02*
X383200000Y-94700000D01*
X55600000Y-89000000D02*
X55562500Y-88962500D01*
X358812500Y-89000000D02*
X368100000Y-89000000D01*
X402700000Y-90025000D02*
X401637500Y-88962500D01*
X55562500Y-85662500D02*
X55562500Y-82740500D01*
X55562500Y-82740500D02*
X53467000Y-80645000D01*
X397400000Y-74400000D02*
X399000000Y-74400000D01*
X401637500Y-108012500D02*
X401625000Y-108000000D01*
X399200000Y-108000000D02*
X55575000Y-108000000D01*
X399500000Y-108000000D02*
X399800000Y-107700000D01*
X399000000Y-74400000D02*
X399100000Y-74500000D01*
X381937500Y-75200000D02*
X396600000Y-75200000D01*
X399200000Y-108000000D02*
X399500000Y-108000000D01*
X401625000Y-108000000D02*
X399200000Y-108000000D01*
X55575000Y-108000000D02*
X55562500Y-108012500D01*
X396600000Y-75200000D02*
X397400000Y-74400000D01*
X55562500Y-104712500D02*
X55562500Y-101790500D01*
X55562500Y-101790500D02*
X53467000Y-99695000D01*
X401575000Y-127000000D02*
X401637500Y-127062500D01*
X397200000Y-75200000D02*
X397600000Y-74800000D01*
X396600000Y-75600000D02*
X396800000Y-75600000D01*
X399500000Y-127000000D02*
X399800000Y-126700000D01*
X398300000Y-74800000D02*
X399100000Y-75600000D01*
X396800000Y-75600000D02*
X397200000Y-75200000D01*
X381937500Y-75600000D02*
X396600000Y-75600000D01*
X397600000Y-74800000D02*
X398300000Y-74800000D01*
X399500000Y-127000000D02*
X401575000Y-127000000D01*
X55562500Y-127062500D02*
X55625000Y-127000000D01*
X55625000Y-127000000D02*
X399500000Y-127000000D01*
X55562500Y-123762500D02*
X55562500Y-120840500D01*
X55562500Y-120840500D02*
X53467000Y-118745000D01*
X397700000Y-146100000D02*
X396600000Y-146100000D01*
X397400000Y-146100000D02*
X397100000Y-145800000D01*
X396800000Y-146100000D02*
X397100000Y-145800000D01*
X55575000Y-146100000D02*
X55562500Y-146112500D01*
X397700000Y-146100000D02*
X397400000Y-146100000D01*
X401637500Y-146112500D02*
X401625000Y-146100000D01*
X396600000Y-146100000D02*
X55575000Y-146100000D01*
X396600000Y-146100000D02*
X396800000Y-146100000D01*
X397500000Y-76000000D02*
X397600000Y-76000000D01*
X381937500Y-76000000D02*
X397500000Y-76000000D01*
X401625000Y-146100000D02*
X397700000Y-146100000D01*
X397600000Y-76000000D02*
X398000000Y-75600000D01*
X55562500Y-139890500D02*
X53467000Y-137795000D01*
X55562500Y-142812500D02*
X55562500Y-139890500D01*
X73200000Y-48300000D02*
X71100000Y-50400000D01*
X71100000Y-50400000D02*
X61575000Y-50400000D01*
X73200000Y-43228000D02*
X73200000Y-48300000D01*
X72517000Y-42545000D02*
X73200000Y-43228000D01*
X61575000Y-50400000D02*
X58737500Y-47562500D01*
X71000000Y-69500000D02*
X61625000Y-69500000D01*
X73200000Y-62278000D02*
X73200000Y-67300000D01*
X72517000Y-61595000D02*
X73200000Y-62278000D01*
X61625000Y-69500000D02*
X58737500Y-66612500D01*
X73200000Y-67300000D02*
X71000000Y-69500000D01*
X72517000Y-80645000D02*
X73200000Y-81328000D01*
X73200000Y-86300000D02*
X70900000Y-88600000D01*
X73200000Y-81328000D02*
X73200000Y-86300000D01*
X70900000Y-88600000D02*
X61675000Y-88600000D01*
X61675000Y-88600000D02*
X58737500Y-85662500D01*
X72517000Y-99695000D02*
X73200000Y-100378000D01*
X61625000Y-107600000D02*
X58737500Y-104712500D01*
X71000000Y-107600000D02*
X61625000Y-107600000D01*
X73200000Y-100378000D02*
X73200000Y-105400000D01*
X73200000Y-105400000D02*
X71000000Y-107600000D01*
X71000000Y-126600000D02*
X61575000Y-126600000D01*
X73200000Y-124400000D02*
X71000000Y-126600000D01*
X61575000Y-126600000D02*
X58737500Y-123762500D01*
X73200000Y-119428000D02*
X73200000Y-124400000D01*
X72517000Y-118745000D02*
X73200000Y-119428000D01*
X73200000Y-138478000D02*
X73200000Y-143500000D01*
X71000000Y-145700000D02*
X61625000Y-145700000D01*
X72517000Y-137795000D02*
X73200000Y-138478000D01*
X61625000Y-145700000D02*
X58737500Y-142812500D01*
X73200000Y-143500000D02*
X71000000Y-145700000D01*
X98425000Y-47562500D02*
X98425000Y-44640500D01*
X98425000Y-44640500D02*
X96329500Y-42545000D01*
X98425000Y-66612500D02*
X98425000Y-63690500D01*
X98425000Y-63690500D02*
X96329500Y-61595000D01*
X98425000Y-82740500D02*
X96329500Y-80645000D01*
X98425000Y-85662500D02*
X98425000Y-82740500D01*
X98425000Y-101790500D02*
X96329500Y-99695000D01*
X98425000Y-104712500D02*
X98425000Y-101790500D01*
X98425000Y-123762500D02*
X98425000Y-120840500D01*
X98425000Y-120840500D02*
X96329500Y-118745000D01*
X98425000Y-139890500D02*
X96329500Y-137795000D01*
X98425000Y-142812500D02*
X98425000Y-139890500D01*
X115417000Y-42545000D02*
X116100000Y-43228000D01*
X116100000Y-43228000D02*
X116100000Y-48300000D01*
X104475000Y-50400000D02*
X101637500Y-47562500D01*
X114000000Y-50400000D02*
X104475000Y-50400000D01*
X116100000Y-48300000D02*
X114000000Y-50400000D01*
X104525000Y-69500000D02*
X101637500Y-66612500D01*
X116100000Y-62278000D02*
X116100000Y-67300000D01*
X113900000Y-69500000D02*
X104525000Y-69500000D01*
X115417000Y-61595000D02*
X116100000Y-62278000D01*
X116100000Y-67300000D02*
X113900000Y-69500000D01*
X116100000Y-81328000D02*
X116100000Y-86300000D01*
X116100000Y-86300000D02*
X113800000Y-88600000D01*
X104575000Y-88600000D02*
X101637500Y-85662500D01*
X113800000Y-88600000D02*
X104575000Y-88600000D01*
X115417000Y-80645000D02*
X116100000Y-81328000D01*
X113900000Y-107600000D02*
X104525000Y-107600000D01*
X116100000Y-105400000D02*
X113900000Y-107600000D01*
X104525000Y-107600000D02*
X101637500Y-104712500D01*
X116100000Y-100378000D02*
X116100000Y-105400000D01*
X115417000Y-99695000D02*
X116100000Y-100378000D01*
X113900000Y-126600000D02*
X104475000Y-126600000D01*
X116100000Y-124400000D02*
X113900000Y-126600000D01*
X104475000Y-126600000D02*
X101637500Y-123762500D01*
X115417000Y-118745000D02*
X116100000Y-119428000D01*
X116100000Y-119428000D02*
X116100000Y-124400000D01*
X115417000Y-137795000D02*
X116100000Y-138478000D01*
X104525000Y-145700000D02*
X101637500Y-142812500D01*
X113900000Y-145700000D02*
X104525000Y-145700000D01*
X116100000Y-143500000D02*
X113900000Y-145700000D01*
X116100000Y-138478000D02*
X116100000Y-143500000D01*
X141287500Y-47562500D02*
X141287500Y-44640500D01*
X141287500Y-44640500D02*
X139192000Y-42545000D01*
X141287500Y-66612500D02*
X141287500Y-63690500D01*
X141287500Y-63690500D02*
X139192000Y-61595000D01*
X141287500Y-82740500D02*
X139192000Y-80645000D01*
X141287500Y-85662500D02*
X141287500Y-82740500D01*
X141287500Y-101790500D02*
X139192000Y-99695000D01*
X141287500Y-104712500D02*
X141287500Y-101790500D01*
X141287500Y-123762500D02*
X141287500Y-120840500D01*
X141287500Y-120840500D02*
X139192000Y-118745000D01*
X141287500Y-139890500D02*
X139192000Y-137795000D01*
X141287500Y-142812500D02*
X141287500Y-139890500D01*
X158900000Y-48300000D02*
X156800000Y-50400000D01*
X158900000Y-43228000D02*
X158900000Y-48300000D01*
X158217000Y-42545000D02*
X158900000Y-43228000D01*
X147275000Y-50400000D02*
X144437500Y-47562500D01*
X156800000Y-50400000D02*
X147275000Y-50400000D01*
X158900000Y-62278000D02*
X158900000Y-67300000D01*
X158217000Y-61595000D02*
X158900000Y-62278000D01*
X158900000Y-67300000D02*
X156700000Y-69500000D01*
X156700000Y-69500000D02*
X147325000Y-69500000D01*
X147325000Y-69500000D02*
X144437500Y-66612500D01*
X156600000Y-88600000D02*
X147375000Y-88600000D01*
X158900000Y-86300000D02*
X156600000Y-88600000D01*
X158217000Y-80645000D02*
X158900000Y-81328000D01*
X147375000Y-88600000D02*
X144437500Y-85662500D01*
X158900000Y-81328000D02*
X158900000Y-86300000D01*
X156700000Y-107600000D02*
X147325000Y-107600000D01*
X158900000Y-105400000D02*
X156700000Y-107600000D01*
X158900000Y-100378000D02*
X158900000Y-105400000D01*
X147325000Y-107600000D02*
X144437500Y-104712500D01*
X158217000Y-99695000D02*
X158900000Y-100378000D01*
X158217000Y-118745000D02*
X158900000Y-119428000D01*
X147275000Y-126600000D02*
X144437500Y-123762500D01*
X156700000Y-126600000D02*
X147275000Y-126600000D01*
X158900000Y-124400000D02*
X156700000Y-126600000D01*
X158900000Y-119428000D02*
X158900000Y-124400000D01*
X156700000Y-145700000D02*
X147325000Y-145700000D01*
X158900000Y-143500000D02*
X156700000Y-145700000D01*
X158217000Y-137795000D02*
X158900000Y-138478000D01*
X158900000Y-138478000D02*
X158900000Y-143500000D01*
X147325000Y-145700000D02*
X144437500Y-142812500D01*
X184150000Y-44640500D02*
X182054500Y-42545000D01*
X184150000Y-47562500D02*
X184150000Y-44640500D01*
X184150000Y-66612500D02*
X184150000Y-63690500D01*
X184150000Y-63690500D02*
X182054500Y-61595000D01*
X184150000Y-82740500D02*
X182054500Y-80645000D01*
X184150000Y-85662500D02*
X184150000Y-82740500D01*
X184150000Y-101790500D02*
X182054500Y-99695000D01*
X184150000Y-104712500D02*
X184150000Y-101790500D01*
X184150000Y-120840500D02*
X182054500Y-118745000D01*
X184150000Y-123762500D02*
X184150000Y-120840500D01*
X184150000Y-142812500D02*
X184150000Y-139890500D01*
X184150000Y-139890500D02*
X182054500Y-137795000D01*
X199700000Y-50400000D02*
X190175000Y-50400000D01*
X201800000Y-48300000D02*
X199700000Y-50400000D01*
X201117000Y-42545000D02*
X201800000Y-43228000D01*
X190175000Y-50400000D02*
X187337500Y-47562500D01*
X201800000Y-43228000D02*
X201800000Y-48300000D01*
X199600000Y-69500000D02*
X190225000Y-69500000D01*
X201800000Y-62278000D02*
X201800000Y-67300000D01*
X201117000Y-61595000D02*
X201800000Y-62278000D01*
X190225000Y-69500000D02*
X187337500Y-66612500D01*
X201800000Y-67300000D02*
X199600000Y-69500000D01*
X190275000Y-88600000D02*
X187337500Y-85662500D01*
X201800000Y-81328000D02*
X201800000Y-86300000D01*
X201117000Y-80645000D02*
X201800000Y-81328000D01*
X201800000Y-86300000D02*
X199500000Y-88600000D01*
X199500000Y-88600000D02*
X190275000Y-88600000D01*
X201117000Y-99695000D02*
X201800000Y-100378000D01*
X201800000Y-105400000D02*
X199600000Y-107600000D01*
X190225000Y-107600000D02*
X187337500Y-104712500D01*
X199600000Y-107600000D02*
X190225000Y-107600000D01*
X201800000Y-100378000D02*
X201800000Y-105400000D01*
X199600000Y-126600000D02*
X190175000Y-126600000D01*
X201800000Y-124400000D02*
X199600000Y-126600000D01*
X201800000Y-119428000D02*
X201800000Y-124400000D01*
X190175000Y-126600000D02*
X187337500Y-123762500D01*
X201117000Y-118745000D02*
X201800000Y-119428000D01*
X190225000Y-145700000D02*
X187337500Y-142812500D01*
X201117000Y-137795000D02*
X201800000Y-138478000D01*
X201800000Y-143500000D02*
X199600000Y-145700000D01*
X199600000Y-145700000D02*
X190225000Y-145700000D01*
X201800000Y-138478000D02*
X201800000Y-143500000D01*
X227012500Y-47562500D02*
X227012500Y-44640500D01*
X227012500Y-44640500D02*
X224917000Y-42545000D01*
X227012500Y-63690500D02*
X224917000Y-61595000D01*
X227012500Y-66612500D02*
X227012500Y-63690500D01*
X227012500Y-85662500D02*
X227012500Y-82740500D01*
X227012500Y-82740500D02*
X224917000Y-80645000D01*
X227012500Y-104712500D02*
X227012500Y-101790500D01*
X227012500Y-101790500D02*
X224917000Y-99695000D01*
X227012500Y-123762500D02*
X227012500Y-120840500D01*
X227012500Y-120840500D02*
X224917000Y-118745000D01*
X227012500Y-142812500D02*
X227012500Y-139890500D01*
X227012500Y-139890500D02*
X224917000Y-137795000D01*
X244700000Y-48300000D02*
X242600000Y-50400000D01*
X242600000Y-50400000D02*
X233075000Y-50400000D01*
X244017000Y-42545000D02*
X244700000Y-43228000D01*
X244700000Y-43228000D02*
X244700000Y-48300000D01*
X233075000Y-50400000D02*
X230237500Y-47562500D01*
X244700000Y-62278000D02*
X244700000Y-67300000D01*
X242500000Y-69500000D02*
X233125000Y-69500000D01*
X244700000Y-67300000D02*
X242500000Y-69500000D01*
X244017000Y-61595000D02*
X244700000Y-62278000D01*
X233125000Y-69500000D02*
X230237500Y-66612500D01*
X233175000Y-88600000D02*
X230237500Y-85662500D01*
X244700000Y-81328000D02*
X244700000Y-86300000D01*
X242400000Y-88600000D02*
X233175000Y-88600000D01*
X244700000Y-86300000D02*
X242400000Y-88600000D01*
X244017000Y-80645000D02*
X244700000Y-81328000D01*
X244700000Y-105400000D02*
X242500000Y-107600000D01*
X244017000Y-99695000D02*
X244700000Y-100378000D01*
X233125000Y-107600000D02*
X230237500Y-104712500D01*
X242500000Y-107600000D02*
X233125000Y-107600000D01*
X244700000Y-100378000D02*
X244700000Y-105400000D01*
X233075000Y-126600000D02*
X230237500Y-123762500D01*
X244017000Y-118745000D02*
X244700000Y-119428000D01*
X244700000Y-119428000D02*
X244700000Y-124400000D01*
X242500000Y-126600000D02*
X233075000Y-126600000D01*
X244700000Y-124400000D02*
X242500000Y-126600000D01*
X233125000Y-145700000D02*
X230237500Y-142812500D01*
X242500000Y-145700000D02*
X233125000Y-145700000D01*
X244017000Y-137795000D02*
X244700000Y-138478000D01*
X244700000Y-143500000D02*
X242500000Y-145700000D01*
X244700000Y-138478000D02*
X244700000Y-143500000D01*
X269875000Y-44640500D02*
X267779500Y-42545000D01*
X269875000Y-47562500D02*
X269875000Y-44640500D01*
X269875000Y-63690500D02*
X267779500Y-61595000D01*
X269875000Y-66612500D02*
X269875000Y-63690500D01*
X269875000Y-85662500D02*
X269875000Y-82740500D01*
X269875000Y-82740500D02*
X267779500Y-80645000D01*
X269875000Y-101790500D02*
X267779500Y-99695000D01*
X269875000Y-104712500D02*
X269875000Y-101790500D01*
X269875000Y-123762500D02*
X269875000Y-120840500D01*
X269875000Y-120840500D02*
X267779500Y-118745000D01*
X269875000Y-142812500D02*
X269875000Y-139890500D01*
X269875000Y-139890500D02*
X267779500Y-137795000D01*
X275875000Y-50400000D02*
X273037500Y-47562500D01*
X287500000Y-48300000D02*
X285400000Y-50400000D01*
X286817000Y-42545000D02*
X287500000Y-43228000D01*
X287500000Y-43228000D02*
X287500000Y-48300000D01*
X285400000Y-50400000D02*
X275875000Y-50400000D01*
X287500000Y-67300000D02*
X285300000Y-69500000D01*
X287500000Y-62278000D02*
X287500000Y-67300000D01*
X285300000Y-69500000D02*
X275925000Y-69500000D01*
X286817000Y-61595000D02*
X287500000Y-62278000D01*
X275925000Y-69500000D02*
X273037500Y-66612500D01*
X285200000Y-88600000D02*
X275975000Y-88600000D01*
X287500000Y-81328000D02*
X287500000Y-86300000D01*
X275975000Y-88600000D02*
X273037500Y-85662500D01*
X287500000Y-86300000D02*
X285200000Y-88600000D01*
X286817000Y-80645000D02*
X287500000Y-81328000D01*
X286817000Y-99695000D02*
X287500000Y-100378000D01*
X287500000Y-100378000D02*
X287500000Y-105400000D01*
X275925000Y-107600000D02*
X273037500Y-104712500D01*
X287500000Y-105400000D02*
X285300000Y-107600000D01*
X285300000Y-107600000D02*
X275925000Y-107600000D01*
X285300000Y-126600000D02*
X275875000Y-126600000D01*
X286817000Y-118745000D02*
X287500000Y-119428000D01*
X275875000Y-126600000D02*
X273037500Y-123762500D01*
X287500000Y-124400000D02*
X285300000Y-126600000D01*
X287500000Y-119428000D02*
X287500000Y-124400000D01*
X286817000Y-137795000D02*
X287500000Y-138478000D01*
X287500000Y-143500000D02*
X285300000Y-145700000D01*
X275925000Y-145700000D02*
X273037500Y-142812500D01*
X287500000Y-138478000D02*
X287500000Y-143500000D01*
X285300000Y-145700000D02*
X275925000Y-145700000D01*
X312737500Y-47562500D02*
X312737500Y-44640500D01*
X312737500Y-44640500D02*
X310642000Y-42545000D01*
X312737500Y-63690500D02*
X310642000Y-61595000D01*
X312737500Y-66612500D02*
X312737500Y-63690500D01*
X312737500Y-85662500D02*
X312737500Y-82740500D01*
X312737500Y-82740500D02*
X310642000Y-80645000D01*
X312737500Y-101790500D02*
X310642000Y-99695000D01*
X312737500Y-104712500D02*
X312737500Y-101790500D01*
X312737500Y-123762500D02*
X312737500Y-120840500D01*
X312737500Y-120840500D02*
X310642000Y-118745000D01*
X312737500Y-142812500D02*
X312737500Y-139890500D01*
X312737500Y-139890500D02*
X310642000Y-137795000D01*
X329717000Y-42545000D02*
X330400000Y-43228000D01*
X328300000Y-50400000D02*
X318775000Y-50400000D01*
X330400000Y-43228000D02*
X330400000Y-48300000D01*
X318775000Y-50400000D02*
X315937500Y-47562500D01*
X330400000Y-48300000D02*
X328300000Y-50400000D01*
X328200000Y-69500000D02*
X318825000Y-69500000D01*
X330400000Y-62278000D02*
X330400000Y-67300000D01*
X318825000Y-69500000D02*
X315937500Y-66612500D01*
X329717000Y-61595000D02*
X330400000Y-62278000D01*
X330400000Y-67300000D02*
X328200000Y-69500000D01*
X330400000Y-81328000D02*
X330400000Y-86300000D01*
X318875000Y-88600000D02*
X315937500Y-85662500D01*
X330400000Y-86300000D02*
X328100000Y-88600000D01*
X328100000Y-88600000D02*
X318875000Y-88600000D01*
X329717000Y-80645000D02*
X330400000Y-81328000D01*
X329717000Y-99695000D02*
X330400000Y-100378000D01*
X318825000Y-107600000D02*
X315937500Y-104712500D01*
X330400000Y-100378000D02*
X330400000Y-105400000D01*
X328200000Y-107600000D02*
X318825000Y-107600000D01*
X330400000Y-105400000D02*
X328200000Y-107600000D01*
X329717000Y-118745000D02*
X330400000Y-119428000D01*
X330400000Y-124400000D02*
X328200000Y-126600000D01*
X328200000Y-126600000D02*
X318775000Y-126600000D01*
X318775000Y-126600000D02*
X315937500Y-123762500D01*
X330400000Y-119428000D02*
X330400000Y-124400000D01*
X330400000Y-138478000D02*
X330400000Y-143500000D01*
X318825000Y-145700000D02*
X315937500Y-142812500D01*
X328200000Y-145700000D02*
X318825000Y-145700000D01*
X330400000Y-143500000D02*
X328200000Y-145700000D01*
X329717000Y-137795000D02*
X330400000Y-138478000D01*
X355600000Y-44640500D02*
X353504500Y-42545000D01*
X355600000Y-47562500D02*
X355600000Y-44640500D01*
X355600000Y-63690500D02*
X353504500Y-61595000D01*
X355600000Y-66612500D02*
X355600000Y-63690500D01*
X355900000Y-83040500D02*
X353504500Y-80645000D01*
X355900000Y-85200000D02*
X355900000Y-83040500D01*
X355600000Y-104712500D02*
X355600000Y-101790500D01*
X355600000Y-101790500D02*
X353504500Y-99695000D01*
X355600000Y-120840500D02*
X353504500Y-118745000D01*
X355600000Y-123762500D02*
X355600000Y-120840500D01*
X355600000Y-139890500D02*
X353504500Y-137795000D01*
X355600000Y-142812500D02*
X355600000Y-139890500D01*
X367900000Y-50400000D02*
X369900000Y-48400000D01*
X369900000Y-45162000D02*
X372517000Y-42545000D01*
X369900000Y-48400000D02*
X369900000Y-45162000D01*
X361575000Y-50400000D02*
X367900000Y-50400000D01*
X358737500Y-47562500D02*
X361575000Y-50400000D01*
X372517000Y-61595000D02*
X369400000Y-64712000D01*
X367700000Y-69500000D02*
X361625000Y-69500000D01*
X369400000Y-67800000D02*
X367700000Y-69500000D01*
X369400000Y-64712000D02*
X369400000Y-67800000D01*
X361625000Y-69500000D02*
X358737500Y-66612500D01*
X358837500Y-85662500D02*
X361775000Y-88600000D01*
X369800000Y-83462000D02*
X372617000Y-80645000D01*
X368100000Y-88600000D02*
X369800000Y-86900000D01*
X361775000Y-88600000D02*
X368100000Y-88600000D01*
X369800000Y-86900000D02*
X369800000Y-83462000D01*
X361725000Y-107600000D02*
X358837500Y-104712500D01*
X373300000Y-105400000D02*
X371100000Y-107600000D01*
X373300000Y-100378000D02*
X373300000Y-105400000D01*
X371100000Y-107600000D02*
X361725000Y-107600000D01*
X372617000Y-99695000D02*
X373300000Y-100378000D01*
X373300000Y-119428000D02*
X373300000Y-124400000D01*
X371100000Y-126600000D02*
X361675000Y-126600000D01*
X372617000Y-118745000D02*
X373300000Y-119428000D01*
X373300000Y-124400000D02*
X371100000Y-126600000D01*
X361675000Y-126600000D02*
X358837500Y-123762500D01*
X373300000Y-143500000D02*
X371100000Y-145700000D01*
X373300000Y-138478000D02*
X373300000Y-143500000D01*
X372617000Y-137795000D02*
X373300000Y-138478000D01*
X361725000Y-145700000D02*
X358837500Y-142812500D01*
X371100000Y-145700000D02*
X361725000Y-145700000D01*
X398462500Y-44640500D02*
X396367000Y-42545000D01*
X398462500Y-47562500D02*
X398462500Y-44640500D01*
X398462500Y-63690500D02*
X396367000Y-61595000D01*
X398462500Y-66612500D02*
X398462500Y-63690500D01*
X397200000Y-81478000D02*
X397200000Y-82300000D01*
X401637500Y-91218750D02*
X397681250Y-91218750D01*
X396367000Y-80645000D02*
X397200000Y-81478000D01*
X397681250Y-91218750D02*
X396800000Y-92100000D01*
X397200000Y-82300000D02*
X396800000Y-82700000D01*
X398462500Y-104712500D02*
X398462500Y-101790500D01*
X398462500Y-101790500D02*
X396367000Y-99695000D01*
X398462500Y-123762500D02*
X398462500Y-120840500D01*
X398462500Y-120840500D02*
X396367000Y-118745000D01*
X398462500Y-139890500D02*
X396367000Y-137795000D01*
X398462500Y-142812500D02*
X398462500Y-139890500D01*
X414000000Y-50400000D02*
X404475000Y-50400000D01*
X404475000Y-50400000D02*
X401637500Y-47562500D01*
X415417000Y-42545000D02*
X416100000Y-43228000D01*
X416100000Y-43228000D02*
X416100000Y-48300000D01*
X416100000Y-48300000D02*
X414000000Y-50400000D01*
X416100000Y-62278000D02*
X416100000Y-67300000D01*
X413900000Y-69500000D02*
X404525000Y-69500000D01*
X404525000Y-69500000D02*
X401637500Y-66612500D01*
X416100000Y-67300000D02*
X413900000Y-69500000D01*
X415417000Y-61595000D02*
X416100000Y-62278000D01*
X415417000Y-80645000D02*
X416100000Y-81328000D01*
X416100000Y-81328000D02*
X416100000Y-86300000D01*
X416100000Y-86300000D02*
X413900000Y-88500000D01*
X413900000Y-88500000D02*
X404475000Y-88500000D01*
X404475000Y-88500000D02*
X401637500Y-85662500D01*
X416100000Y-105400000D02*
X413900000Y-107600000D01*
X416100000Y-100378000D02*
X416100000Y-105400000D01*
X413900000Y-107600000D02*
X404525000Y-107600000D01*
X404525000Y-107600000D02*
X401637500Y-104712500D01*
X415417000Y-99695000D02*
X416100000Y-100378000D01*
X413900000Y-126600000D02*
X404475000Y-126600000D01*
X415417000Y-118745000D02*
X416100000Y-119428000D01*
X404475000Y-126600000D02*
X401637500Y-123762500D01*
X416100000Y-119428000D02*
X416100000Y-124400000D01*
X416100000Y-124400000D02*
X413900000Y-126600000D01*
X413900000Y-145700000D02*
X404525000Y-145700000D01*
X416100000Y-143500000D02*
X413900000Y-145700000D01*
X404525000Y-145700000D02*
X401637500Y-142812500D01*
X415417000Y-137795000D02*
X416100000Y-138478000D01*
X416100000Y-138478000D02*
X416100000Y-143500000D01*
D47*
X376800000Y-42700000D02*
X377100000Y-42700000D01*
X377200000Y-43100000D02*
X377600000Y-43500000D01*
X381068750Y-42031250D02*
X380400000Y-42700000D01*
X376168750Y-42068750D02*
X376800000Y-42700000D01*
X377600000Y-44650000D02*
X375850000Y-44650000D01*
D48*
X375850000Y-44650000D02*
X375500000Y-45000000D01*
D47*
X377100000Y-42700000D02*
X377100000Y-43000000D01*
X377100000Y-43000000D02*
X377200000Y-43100000D01*
X380400000Y-42700000D02*
X380100000Y-42700000D01*
X376800000Y-42700000D02*
X377200000Y-43100000D01*
X376168750Y-40045000D02*
X376168750Y-42068750D01*
X377600000Y-43500000D02*
X377600000Y-44650000D01*
X381068750Y-40045000D02*
X381068750Y-42031250D01*
D49*
X40500000Y-119300000D02*
X40500000Y-121245000D01*
X40500000Y-121245000D02*
X40540000Y-121285000D01*
X40500000Y-45045000D02*
X40540000Y-45085000D01*
X369000000Y-74000000D02*
X367700000Y-75300000D01*
X40500000Y-102195000D02*
X40540000Y-102235000D01*
X40500000Y-62100000D02*
X40500000Y-64095000D01*
X40500000Y-140295000D02*
X40540000Y-140335000D01*
X48425000Y-75300000D02*
X40540000Y-83185000D01*
X375062500Y-74000000D02*
X369000000Y-74000000D01*
X40500000Y-43100000D02*
X40500000Y-45045000D01*
X40500000Y-81200000D02*
X40500000Y-83145000D01*
X40500000Y-64095000D02*
X40540000Y-64135000D01*
X40500000Y-100200000D02*
X40500000Y-102195000D01*
X40500000Y-83145000D02*
X40540000Y-83185000D01*
X40500000Y-138300000D02*
X40500000Y-140295000D01*
X367700000Y-75300000D02*
X48425000Y-75300000D01*
X367900000Y-75700000D02*
X67075000Y-75700000D01*
X375062500Y-74400000D02*
X369200000Y-74400000D01*
X59600000Y-43100000D02*
X59600000Y-45075000D01*
X67075000Y-75700000D02*
X59590000Y-83185000D01*
X59600000Y-64125000D02*
X59590000Y-64135000D01*
X59600000Y-119300000D02*
X59600000Y-121275000D01*
X59600000Y-62100000D02*
X59600000Y-64125000D01*
X59600000Y-102225000D02*
X59590000Y-102235000D01*
X59600000Y-83175000D02*
X59590000Y-83185000D01*
X369200000Y-74400000D02*
X367900000Y-75700000D01*
X59600000Y-45075000D02*
X59590000Y-45085000D01*
X59600000Y-100200000D02*
X59600000Y-102225000D01*
X59600000Y-121275000D02*
X59590000Y-121285000D01*
X59600000Y-138300000D02*
X59600000Y-140325000D01*
X59600000Y-81200000D02*
X59600000Y-83175000D01*
X59600000Y-140325000D02*
X59590000Y-140335000D01*
X83400000Y-81200000D02*
X83400000Y-83182500D01*
X83400000Y-83182500D02*
X83402500Y-83185000D01*
X375062500Y-74800000D02*
X369400000Y-74800000D01*
X83400000Y-62100000D02*
X83400000Y-64132500D01*
X90487500Y-76100000D02*
X83402500Y-83185000D01*
X83400000Y-100200000D02*
X83400000Y-102232500D01*
X83400000Y-102232500D02*
X83402500Y-102235000D01*
X368100000Y-76100000D02*
X90487500Y-76100000D01*
X83400000Y-43100000D02*
X83400000Y-45082500D01*
X83400000Y-64132500D02*
X83402500Y-64135000D01*
X83400000Y-121282500D02*
X83402500Y-121285000D01*
X83400000Y-140332500D02*
X83402500Y-140335000D01*
X83400000Y-138300000D02*
X83400000Y-140332500D01*
X83400000Y-45082500D02*
X83402500Y-45085000D01*
X83400000Y-119300000D02*
X83400000Y-121282500D01*
X369400000Y-74800000D02*
X368100000Y-76100000D01*
X102400000Y-62100000D02*
X102400000Y-64082500D01*
X102400000Y-140282500D02*
X102452500Y-140335000D01*
X102400000Y-81200000D02*
X102400000Y-83132500D01*
X102400000Y-83132500D02*
X102452500Y-83185000D01*
X102400000Y-119300000D02*
X102400000Y-121232500D01*
X369600000Y-75200000D02*
X368300000Y-76500000D01*
X102400000Y-64082500D02*
X102452500Y-64135000D01*
X102400000Y-102182500D02*
X102452500Y-102235000D01*
X109137500Y-76500000D02*
X102452500Y-83185000D01*
X102400000Y-45032500D02*
X102452500Y-45085000D01*
X102400000Y-121232500D02*
X102452500Y-121285000D01*
X102400000Y-100200000D02*
X102400000Y-102182500D01*
X375062500Y-75200000D02*
X369600000Y-75200000D01*
X102400000Y-43100000D02*
X102400000Y-45032500D01*
X368300000Y-76500000D02*
X109137500Y-76500000D01*
X102400000Y-138300000D02*
X102400000Y-140282500D01*
X132550000Y-76900000D02*
X126265000Y-83185000D01*
X126300000Y-102200000D02*
X126265000Y-102235000D01*
X126300000Y-140300000D02*
X126265000Y-140335000D01*
X126300000Y-83150000D02*
X126265000Y-83185000D01*
X369800000Y-75600000D02*
X368500000Y-76900000D01*
X368500000Y-76900000D02*
X132550000Y-76900000D01*
X126300000Y-100200000D02*
X126300000Y-102200000D01*
X126300000Y-45050000D02*
X126265000Y-45085000D01*
X126300000Y-81200000D02*
X126300000Y-83150000D01*
X375062500Y-75600000D02*
X369800000Y-75600000D01*
X126300000Y-121250000D02*
X126265000Y-121285000D01*
X126300000Y-62100000D02*
X126300000Y-64100000D01*
X126300000Y-43100000D02*
X126300000Y-45050000D01*
X126300000Y-119300000D02*
X126300000Y-121250000D01*
X126300000Y-138300000D02*
X126300000Y-140300000D01*
X126300000Y-64100000D02*
X126265000Y-64135000D01*
X145300000Y-64120000D02*
X145315000Y-64135000D01*
X145300000Y-81200000D02*
X145300000Y-83170000D01*
X145300000Y-83170000D02*
X145315000Y-83185000D01*
X375062500Y-76000000D02*
X370000000Y-76000000D01*
X151200000Y-77300000D02*
X145315000Y-83185000D01*
X145300000Y-45070000D02*
X145315000Y-45085000D01*
X145300000Y-100200000D02*
X145300000Y-102220000D01*
X145300000Y-121270000D02*
X145315000Y-121285000D01*
X145300000Y-102220000D02*
X145315000Y-102235000D01*
X370000000Y-76000000D02*
X368700000Y-77300000D01*
X145300000Y-138300000D02*
X145300000Y-140320000D01*
X145300000Y-119300000D02*
X145300000Y-121270000D01*
X145300000Y-43100000D02*
X145300000Y-45070000D01*
X145300000Y-62100000D02*
X145300000Y-64120000D01*
X145300000Y-140320000D02*
X145315000Y-140335000D01*
X368700000Y-77300000D02*
X151200000Y-77300000D01*
X169100000Y-102207500D02*
X169127500Y-102235000D01*
X169100000Y-138300000D02*
X169100000Y-140307500D01*
X169100000Y-62100000D02*
X169100000Y-64107500D01*
X169100000Y-81200000D02*
X169100000Y-83157500D01*
X375062500Y-76400000D02*
X370200000Y-76400000D01*
X169100000Y-83157500D02*
X169127500Y-83185000D01*
X169100000Y-100200000D02*
X169100000Y-102207500D01*
X169100000Y-64107500D02*
X169127500Y-64135000D01*
X169100000Y-140307500D02*
X169127500Y-140335000D01*
X368900000Y-77700000D02*
X174612500Y-77700000D01*
X169100000Y-119300000D02*
X169100000Y-121257500D01*
X169100000Y-45057500D02*
X169127500Y-45085000D01*
X174612500Y-77700000D02*
X169127500Y-83185000D01*
X370200000Y-76400000D02*
X368900000Y-77700000D01*
X169100000Y-43100000D02*
X169100000Y-45057500D01*
X169100000Y-121257500D02*
X169127500Y-121285000D01*
X193262500Y-78100000D02*
X188177500Y-83185000D01*
X188200000Y-64112500D02*
X188177500Y-64135000D01*
X375062500Y-76800000D02*
X370400000Y-76800000D01*
X188200000Y-138300000D02*
X188200000Y-140312500D01*
X370400000Y-76800000D02*
X369100000Y-78100000D01*
X369100000Y-78100000D02*
X193262500Y-78100000D01*
X188200000Y-43100000D02*
X188200000Y-45062500D01*
X188200000Y-121262500D02*
X188177500Y-121285000D01*
X188200000Y-119300000D02*
X188200000Y-121262500D01*
X188200000Y-83162500D02*
X188177500Y-83185000D01*
X188200000Y-45062500D02*
X188177500Y-45085000D01*
X188200000Y-62100000D02*
X188200000Y-64112500D01*
X188200000Y-102212500D02*
X188177500Y-102235000D01*
X188200000Y-81200000D02*
X188200000Y-83162500D01*
X188200000Y-100200000D02*
X188200000Y-102212500D01*
X188200000Y-140312500D02*
X188177500Y-140335000D01*
X212000000Y-81200000D02*
X212000000Y-83175000D01*
X360500000Y-78500000D02*
X362400000Y-78500000D01*
X212000000Y-83175000D02*
X211990000Y-83185000D01*
X375062500Y-78800000D02*
X374100000Y-78800000D01*
X374100000Y-78800000D02*
X373800000Y-78500000D01*
X212000000Y-43100000D02*
X212000000Y-45075000D01*
X360500000Y-78500000D02*
X216675000Y-78500000D01*
X362400000Y-78500000D02*
X362800000Y-78900000D01*
X212000000Y-102225000D02*
X211990000Y-102235000D01*
X212000000Y-100200000D02*
X212000000Y-102225000D01*
X212000000Y-140325000D02*
X211990000Y-140335000D01*
X212000000Y-138300000D02*
X212000000Y-140325000D01*
X212000000Y-119300000D02*
X212000000Y-121275000D01*
X216675000Y-78500000D02*
X211990000Y-83185000D01*
X212000000Y-121275000D02*
X211990000Y-121285000D01*
X212000000Y-64125000D02*
X211990000Y-64135000D01*
X212000000Y-62100000D02*
X212000000Y-64125000D01*
X212000000Y-45075000D02*
X211990000Y-45085000D01*
X231000000Y-140295000D02*
X231040000Y-140335000D01*
X380300000Y-79637500D02*
X380300000Y-80500000D01*
X389100000Y-95100000D02*
X393300000Y-90900000D01*
X238175000Y-95100000D02*
X389100000Y-95100000D01*
X231000000Y-62100000D02*
X231000000Y-64095000D01*
X231000000Y-100200000D02*
X231000000Y-102195000D01*
X231000000Y-102195000D02*
X231040000Y-102235000D01*
X231040000Y-102235000D02*
X238175000Y-95100000D01*
X393300000Y-88100000D02*
X392900000Y-87700000D01*
X231000000Y-64095000D02*
X231040000Y-64135000D01*
X231000000Y-81200000D02*
X231000000Y-83145000D01*
X393300000Y-90900000D02*
X393300000Y-88500000D01*
X381400000Y-81600000D02*
X381400000Y-81700000D01*
X231000000Y-121245000D02*
X231040000Y-121285000D01*
X231000000Y-119300000D02*
X231000000Y-121245000D01*
X393300000Y-88500000D02*
X393300000Y-88100000D01*
X380300000Y-80500000D02*
X381400000Y-81600000D01*
X231000000Y-83145000D02*
X231040000Y-83185000D01*
X231000000Y-138300000D02*
X231000000Y-140295000D01*
X231000000Y-43100000D02*
X231000000Y-45045000D01*
X231000000Y-45045000D02*
X231040000Y-45085000D01*
X254900000Y-43100000D02*
X254900000Y-45037500D01*
X393700000Y-91100000D02*
X389300000Y-95500000D01*
X380700000Y-79637500D02*
X380700000Y-80300000D01*
X254900000Y-64087500D02*
X254852500Y-64135000D01*
X381300000Y-80900000D02*
X389500000Y-80900000D01*
X254900000Y-45037500D02*
X254852500Y-45085000D01*
X254900000Y-138300000D02*
X254900000Y-140287500D01*
X389300000Y-95500000D02*
X261587500Y-95500000D01*
X254900000Y-121237500D02*
X254852500Y-121285000D01*
X254900000Y-100200000D02*
X254900000Y-102187500D01*
X254900000Y-81200000D02*
X254900000Y-83137500D01*
X380700000Y-80300000D02*
X381300000Y-80900000D01*
X389500000Y-80900000D02*
X393700000Y-85100000D01*
X254900000Y-102187500D02*
X254852500Y-102235000D01*
X254900000Y-62100000D02*
X254900000Y-64087500D01*
X393700000Y-85100000D02*
X393700000Y-91100000D01*
X261587500Y-95500000D02*
X254852500Y-102235000D01*
X254900000Y-119300000D02*
X254900000Y-121237500D01*
X254900000Y-140287500D02*
X254852500Y-140335000D01*
X254900000Y-83137500D02*
X254852500Y-83185000D01*
X273900000Y-121282500D02*
X273902500Y-121285000D01*
X273900000Y-138300000D02*
X273900000Y-140332500D01*
X273900000Y-81200000D02*
X273900000Y-83182500D01*
X273900000Y-64132500D02*
X273902500Y-64135000D01*
X273900000Y-140332500D02*
X273902500Y-140335000D01*
X273900000Y-45082500D02*
X273902500Y-45085000D01*
X273900000Y-83182500D02*
X273902500Y-83185000D01*
X280237500Y-95900000D02*
X273902500Y-102235000D01*
X273900000Y-102232500D02*
X273902500Y-102235000D01*
X389500000Y-95900000D02*
X280237500Y-95900000D01*
X273900000Y-62100000D02*
X273900000Y-64132500D01*
X389700000Y-80500000D02*
X394100000Y-84900000D01*
X273900000Y-100200000D02*
X273900000Y-102232500D01*
X394100000Y-91300000D02*
X389500000Y-95900000D01*
X381100000Y-79637500D02*
X381100000Y-80100000D01*
X273900000Y-43100000D02*
X273900000Y-45082500D01*
X273900000Y-119300000D02*
X273900000Y-121282500D01*
X381500000Y-80500000D02*
X389700000Y-80500000D01*
X381100000Y-80100000D02*
X381500000Y-80500000D01*
X394100000Y-84900000D02*
X394100000Y-91300000D01*
X381937500Y-78800000D02*
X382400000Y-78800000D01*
X297700000Y-102220000D02*
X297715000Y-102235000D01*
X303650000Y-96300000D02*
X297715000Y-102235000D01*
X297700000Y-62100000D02*
X297700000Y-64120000D01*
X297700000Y-83170000D02*
X297715000Y-83185000D01*
X297700000Y-43100000D02*
X297700000Y-45070000D01*
X383700000Y-80100000D02*
X389700000Y-80100000D01*
X297700000Y-100200000D02*
X297700000Y-102220000D01*
X398200000Y-79300000D02*
X398200000Y-87800000D01*
X391800000Y-78000000D02*
X396900000Y-78000000D01*
X398200000Y-87800000D02*
X389700000Y-96300000D01*
X389700000Y-96300000D02*
X303650000Y-96300000D01*
X396900000Y-78000000D02*
X398200000Y-79300000D01*
X297700000Y-64120000D02*
X297715000Y-64135000D01*
X297700000Y-138300000D02*
X297700000Y-140320000D01*
X382400000Y-78800000D02*
X383700000Y-80100000D01*
X297700000Y-119300000D02*
X297700000Y-121270000D01*
X297700000Y-121270000D02*
X297715000Y-121285000D01*
X297700000Y-81200000D02*
X297700000Y-83170000D01*
X389700000Y-80100000D02*
X391800000Y-78000000D01*
X297700000Y-140320000D02*
X297715000Y-140335000D01*
X297700000Y-45070000D02*
X297715000Y-45085000D01*
X316800000Y-140300000D02*
X316765000Y-140335000D01*
X316800000Y-45050000D02*
X316765000Y-45085000D01*
X316800000Y-138300000D02*
X316800000Y-140300000D01*
X389500000Y-79700000D02*
X391600000Y-77600000D01*
X316800000Y-81200000D02*
X316800000Y-83150000D01*
X383900000Y-79700000D02*
X389500000Y-79700000D01*
X382600000Y-78400000D02*
X383900000Y-79700000D01*
X316800000Y-43100000D02*
X316800000Y-45050000D01*
X398600000Y-79100000D02*
X398600000Y-88000000D01*
X316800000Y-62100000D02*
X316800000Y-64100000D01*
X391600000Y-77600000D02*
X397100000Y-77600000D01*
X397100000Y-77600000D02*
X398600000Y-79100000D01*
X316800000Y-121250000D02*
X316765000Y-121285000D01*
X316800000Y-83150000D02*
X316765000Y-83185000D01*
X316800000Y-102200000D02*
X316765000Y-102235000D01*
X316800000Y-100200000D02*
X316800000Y-102200000D01*
X381937500Y-78400000D02*
X382600000Y-78400000D01*
X398600000Y-88000000D02*
X389900000Y-96700000D01*
X316800000Y-64100000D02*
X316765000Y-64135000D01*
X322300000Y-96700000D02*
X316765000Y-102235000D01*
X389900000Y-96700000D02*
X322300000Y-96700000D01*
X316800000Y-119300000D02*
X316800000Y-121250000D01*
X340600000Y-83162500D02*
X340577500Y-83185000D01*
X340600000Y-64112500D02*
X340577500Y-64135000D01*
X340600000Y-45062500D02*
X340577500Y-45085000D01*
X391400000Y-77200000D02*
X397300000Y-77200000D01*
X382800000Y-78000000D02*
X384100000Y-79300000D01*
X389300000Y-79300000D02*
X391400000Y-77200000D01*
X397300000Y-77200000D02*
X399000000Y-78900000D01*
X340600000Y-119300000D02*
X340600000Y-121262500D01*
X399000000Y-88200000D02*
X390100000Y-97100000D01*
X340600000Y-100200000D02*
X340600000Y-102212500D01*
X340600000Y-121262500D02*
X340577500Y-121285000D01*
X384100000Y-79300000D02*
X389300000Y-79300000D01*
X345712500Y-97100000D02*
X340577500Y-102235000D01*
X340600000Y-62100000D02*
X340600000Y-64112500D01*
X340600000Y-81200000D02*
X340600000Y-83162500D01*
X399000000Y-78900000D02*
X399000000Y-88200000D01*
X340600000Y-43100000D02*
X340600000Y-45062500D01*
X390100000Y-97100000D02*
X345712500Y-97100000D01*
X340600000Y-102212500D02*
X340577500Y-102235000D01*
X340600000Y-140312500D02*
X340577500Y-140335000D01*
X381937500Y-78000000D02*
X382800000Y-78000000D01*
X340600000Y-138300000D02*
X340600000Y-140312500D01*
X359200000Y-62100000D02*
X359200000Y-63707500D01*
X359600000Y-102207500D02*
X359627500Y-102235000D01*
X381937500Y-77600000D02*
X382990000Y-77600000D01*
X359600000Y-43100000D02*
X359600000Y-45057500D01*
X399400000Y-88400000D02*
X390300000Y-97500000D01*
X359600000Y-121257500D02*
X359627500Y-121285000D01*
X399400000Y-78700000D02*
X399400000Y-88400000D01*
X359600000Y-45057500D02*
X359627500Y-45085000D01*
X382990000Y-77600000D02*
X384290000Y-78900000D01*
X359600000Y-138300000D02*
X359600000Y-140307500D01*
X364362500Y-97500000D02*
X359627500Y-102235000D01*
X384290000Y-78900000D02*
X389100000Y-78900000D01*
X359600000Y-100200000D02*
X359600000Y-102207500D01*
X359600000Y-81200000D02*
X359600000Y-83157500D01*
X397500000Y-76800000D02*
X399400000Y-78700000D01*
X391200000Y-76800000D02*
X397500000Y-76800000D01*
X390300000Y-97500000D02*
X364362500Y-97500000D01*
X359200000Y-63707500D02*
X359627500Y-64135000D01*
X359600000Y-119300000D02*
X359600000Y-121257500D01*
X389100000Y-78900000D02*
X391200000Y-76800000D01*
X359600000Y-83157500D02*
X359627500Y-83185000D01*
X359600000Y-140307500D02*
X359627500Y-140335000D01*
X389300000Y-76800000D02*
X389700000Y-77200000D01*
X383400000Y-121245000D02*
X383440000Y-121285000D01*
X383700000Y-85200000D02*
X383700000Y-83445000D01*
X383400000Y-140295000D02*
X383440000Y-140335000D01*
X383400000Y-119300000D02*
X383400000Y-121245000D01*
X381937500Y-76800000D02*
X389300000Y-76800000D01*
X383400000Y-138300000D02*
X383400000Y-140295000D01*
X383400000Y-102195000D02*
X383440000Y-102235000D01*
X383440000Y-64135000D02*
X385675000Y-61900000D01*
X383500000Y-43100000D02*
X383500000Y-45025000D01*
X383700000Y-83445000D02*
X383440000Y-83185000D01*
X385675000Y-61900000D02*
X388000000Y-61900000D01*
X383500000Y-45025000D02*
X383440000Y-45085000D01*
X383400000Y-100200000D02*
X383400000Y-102195000D01*
X402500000Y-140325000D02*
X402490000Y-140335000D01*
X402500000Y-45075000D02*
X402490000Y-45085000D01*
X399800000Y-80495000D02*
X402490000Y-83185000D01*
X399800000Y-78500000D02*
X399800000Y-80495000D01*
X397700000Y-76400000D02*
X399800000Y-78500000D01*
X402500000Y-100200000D02*
X402500000Y-102225000D01*
X402500000Y-102225000D02*
X402490000Y-102235000D01*
X402500000Y-121275000D02*
X402490000Y-121285000D01*
X402500000Y-81200000D02*
X402500000Y-83175000D01*
X402500000Y-64125000D02*
X402490000Y-64135000D01*
X402500000Y-62100000D02*
X402500000Y-64125000D01*
X381937500Y-76400000D02*
X397700000Y-76400000D01*
X402500000Y-43100000D02*
X402500000Y-45075000D01*
X402500000Y-83175000D02*
X402490000Y-83185000D01*
X402500000Y-119300000D02*
X402500000Y-121275000D01*
X402500000Y-138300000D02*
X402500000Y-140325000D01*
X407962500Y-72712500D02*
X401662500Y-72712500D01*
X395900000Y-70900000D02*
X399500000Y-70900000D01*
X387010000Y-70500000D02*
X392500000Y-70500000D01*
X399500000Y-70900000D02*
X401312500Y-72712500D01*
X401312500Y-72712500D02*
X401662500Y-72712500D01*
X395800000Y-70800000D02*
X395900000Y-70900000D01*
X386910000Y-70400000D02*
X387010000Y-70500000D01*
X383900000Y-71600000D02*
X381700000Y-71600000D01*
X381700000Y-71600000D02*
X381100000Y-72200000D01*
X385250000Y-69100000D02*
X385100000Y-68950000D01*
X385890000Y-70400000D02*
X385250000Y-70400000D01*
X385100000Y-70250000D02*
X385250000Y-70400000D01*
X385100000Y-70100000D02*
X385100000Y-70400000D01*
X383550000Y-68000000D02*
X384400000Y-68000000D01*
X385100000Y-68950000D02*
X385100000Y-68700000D01*
X381100000Y-72200000D02*
X381100000Y-72762500D01*
X385100000Y-69450000D02*
X385100000Y-70100000D01*
X385100000Y-69450000D02*
X385100000Y-69250000D01*
X384400000Y-68000000D02*
X385100000Y-68700000D01*
X385100000Y-69250000D02*
X385250000Y-69100000D01*
X385100000Y-70100000D02*
X385100000Y-70250000D01*
X385100000Y-70400000D02*
X383900000Y-71600000D01*
X385890000Y-69100000D02*
X385250000Y-69100000D01*
X385100000Y-68700000D02*
X385100000Y-69450000D01*
X385250000Y-70400000D02*
X385100000Y-70400000D01*
X378700000Y-79637500D02*
X378700000Y-83710000D01*
X378700000Y-83710000D02*
X378410000Y-84000000D01*
X378400000Y-83990000D02*
X378410000Y-84000000D01*
X401102500Y-57500000D02*
X399712500Y-56110000D01*
X401662500Y-57500000D02*
X401102500Y-57500000D01*
X401662500Y-57500000D02*
X407962500Y-57500000D01*
X382300000Y-54200000D02*
X382700000Y-53800000D01*
X376700000Y-79637500D02*
X376700000Y-80400000D01*
X382700000Y-53800000D02*
X398422500Y-53800000D01*
X398422500Y-53800000D02*
X399712500Y-55090000D01*
X376700000Y-80400000D02*
X376500000Y-80600000D01*
X376500000Y-80600000D02*
X375550000Y-80600000D01*
X375550000Y-80600000D02*
X374700000Y-79750000D01*
X377500000Y-70600000D02*
X376700000Y-69800000D01*
X376700000Y-69800000D02*
X376700000Y-69500000D01*
X376300000Y-69100000D02*
X376700000Y-69500000D01*
X376300000Y-68510000D02*
X376300000Y-69100000D01*
X377500000Y-72762500D02*
X377500000Y-70600000D01*
X379368750Y-39068750D02*
X379368750Y-40045000D01*
X379100000Y-38800000D02*
X379368750Y-39068750D01*
D47*
X376300000Y-67490000D02*
X376300000Y-66400000D01*
D49*
X378800000Y-45750000D02*
X379600000Y-46550000D01*
X378600000Y-38800000D02*
X379100000Y-38800000D01*
D47*
X378950000Y-47200000D02*
X379600000Y-46550000D01*
D49*
X378368750Y-40045000D02*
X378368750Y-39031250D01*
X379368750Y-40045000D02*
X379368750Y-41131250D01*
X379368750Y-41131250D02*
X378800000Y-41700000D01*
X378800000Y-41700000D02*
X378800000Y-45750000D01*
D47*
X378950000Y-63750000D02*
X378950000Y-47200000D01*
X376300000Y-66400000D02*
X378950000Y-63750000D01*
D49*
X378368750Y-39031250D02*
X378600000Y-38800000D01*
D47*
X375000000Y-66700000D02*
X378250000Y-63450000D01*
D49*
X377868750Y-40968750D02*
X378400000Y-41500000D01*
X378868750Y-41031250D02*
X378400000Y-41500000D01*
X378400000Y-45750000D02*
X377600000Y-46550000D01*
D47*
X375000000Y-67490000D02*
X375000000Y-66700000D01*
D49*
X378400000Y-41500000D02*
X378400000Y-45750000D01*
D47*
X378250000Y-63450000D02*
X378250000Y-47200000D01*
D49*
X378868750Y-40045000D02*
X378868750Y-41031250D01*
X377868750Y-40045000D02*
X377868750Y-40968750D01*
D47*
X378250000Y-47200000D02*
X377600000Y-46550000D01*
D49*
X376300000Y-70000000D02*
X376300000Y-69700000D01*
X377100000Y-72762500D02*
X377100000Y-70800000D01*
X377100000Y-70800000D02*
X376300000Y-70000000D01*
X375110000Y-68510000D02*
X375000000Y-68510000D01*
X376300000Y-69700000D02*
X375110000Y-68510000D01*
X383475000Y-52000000D02*
X382300000Y-52000000D01*
X377368750Y-41331250D02*
X377100000Y-41600000D01*
X377368750Y-40045000D02*
X377368750Y-41331250D01*
X380368750Y-40045000D02*
X380368750Y-41331250D01*
X380368750Y-41331250D02*
X380100000Y-41600000D01*
X383475000Y-50100000D02*
X382300000Y-50100000D01*
X380700000Y-72000000D02*
X380700000Y-72762500D01*
X384700000Y-70200000D02*
X383700000Y-71200000D01*
X383700000Y-71200000D02*
X381500000Y-71200000D01*
X384200000Y-68400000D02*
X384700000Y-68900000D01*
X383550000Y-68400000D02*
X384200000Y-68400000D01*
X384700000Y-68900000D02*
X384700000Y-70200000D01*
X381500000Y-71200000D02*
X380700000Y-72000000D01*
X383500000Y-70800000D02*
X381300000Y-70800000D01*
X384000000Y-68800000D02*
X384300000Y-69100000D01*
X384300000Y-69100000D02*
X384300000Y-70000000D01*
X380300000Y-71800000D02*
X380300000Y-72762500D01*
X381300000Y-70800000D02*
X380300000Y-71800000D01*
X383550000Y-68800000D02*
X384000000Y-68800000D01*
X384300000Y-70000000D02*
X383500000Y-70800000D01*
X381600000Y-69200000D02*
X381500000Y-69300000D01*
X381500000Y-69300000D02*
X381500000Y-70000000D01*
X381500000Y-70000000D02*
X379900000Y-71600000D01*
X381850000Y-69200000D02*
X381600000Y-69200000D01*
X379900000Y-71600000D02*
X379900000Y-72762500D01*
X379500000Y-71400000D02*
X379500000Y-72762500D01*
X381850000Y-68800000D02*
X381300000Y-68800000D01*
X381100000Y-69000000D02*
X381100000Y-69800000D01*
X381100000Y-69800000D02*
X379500000Y-71400000D01*
X381300000Y-68800000D02*
X381100000Y-69000000D01*
X379100000Y-71200000D02*
X379100000Y-72762500D01*
X380700000Y-69600000D02*
X379100000Y-71200000D01*
X381100000Y-68400000D02*
X380700000Y-68800000D01*
X380700000Y-68800000D02*
X380700000Y-69300000D01*
X381850000Y-68400000D02*
X381100000Y-68400000D01*
X380700000Y-69300000D02*
X380700000Y-69600000D01*
%TA.AperFunction,Conductor*%
G36*
X379786703Y-80545024D02*
G01*
X379821681Y-80595400D01*
X379826109Y-80607271D01*
X379832666Y-80632960D01*
X379833254Y-80637050D01*
X379833254Y-80637051D01*
X379853944Y-80682357D01*
X379855638Y-80686445D01*
X379873051Y-80733128D01*
X379873053Y-80733133D01*
X379875524Y-80736433D01*
X379889052Y-80759232D01*
X379890769Y-80762991D01*
X379890773Y-80762998D01*
X379923400Y-80800652D01*
X379926174Y-80804094D01*
X379935168Y-80816108D01*
X379935173Y-80816114D01*
X379935180Y-80816123D01*
X379945805Y-80826748D01*
X379948808Y-80829974D01*
X379981441Y-80867635D01*
X379984918Y-80869869D01*
X380005562Y-80886505D01*
X380592139Y-81473082D01*
X380625624Y-81534405D01*
X380627678Y-81574646D01*
X380613554Y-81699996D01*
X380613555Y-81700003D01*
X380633271Y-81874994D01*
X380691438Y-82041229D01*
X380785128Y-82190334D01*
X380785133Y-82190340D01*
X380909659Y-82314866D01*
X380909665Y-82314871D01*
X381058770Y-82408561D01*
X381116580Y-82428789D01*
X381225000Y-82466727D01*
X381225003Y-82466727D01*
X381225005Y-82466728D01*
X381399996Y-82486445D01*
X381400000Y-82486445D01*
X381400004Y-82486445D01*
X381574993Y-82466728D01*
X381574993Y-82466727D01*
X381575000Y-82466727D01*
X381618548Y-82451488D01*
X381688322Y-82447926D01*
X381748950Y-82482654D01*
X381781178Y-82544647D01*
X381783500Y-82568530D01*
X381783500Y-84273123D01*
X381798467Y-84386801D01*
X381798467Y-84386802D01*
X381857060Y-84528258D01*
X381857061Y-84528259D01*
X381950269Y-84649731D01*
X382071741Y-84742939D01*
X382213198Y-84801533D01*
X382326884Y-84816500D01*
X382831469Y-84816500D01*
X382898508Y-84836185D01*
X382944263Y-84888989D01*
X382954207Y-84958147D01*
X382948513Y-84981446D01*
X382933273Y-85025000D01*
X382933271Y-85025007D01*
X382913555Y-85199996D01*
X382913555Y-85200003D01*
X382933271Y-85374994D01*
X382991438Y-85541229D01*
X383085128Y-85690334D01*
X383085133Y-85690340D01*
X383209659Y-85814866D01*
X383209665Y-85814871D01*
X383358770Y-85908561D01*
X383416580Y-85928789D01*
X383525000Y-85966727D01*
X383525003Y-85966727D01*
X383525005Y-85966728D01*
X383699996Y-85986445D01*
X383700000Y-85986445D01*
X383700004Y-85986445D01*
X383874994Y-85966728D01*
X383874995Y-85966727D01*
X383875000Y-85966727D01*
X384041226Y-85908562D01*
X384168661Y-85828488D01*
X384235897Y-85809488D01*
X384302732Y-85829855D01*
X384347946Y-85883123D01*
X384355137Y-85904247D01*
X384399442Y-86086871D01*
X384451484Y-86200828D01*
X384486820Y-86278204D01*
X384486824Y-86278210D01*
X384608826Y-86449539D01*
X384608831Y-86449544D01*
X384711570Y-86547506D01*
X384746505Y-86608014D01*
X384750000Y-86637248D01*
X384750000Y-90745934D01*
X384749469Y-90754035D01*
X384735093Y-90863224D01*
X384726715Y-90894491D01*
X384689259Y-90984918D01*
X384673074Y-91012951D01*
X384613491Y-91090601D01*
X384590601Y-91113491D01*
X384512951Y-91173074D01*
X384484918Y-91189259D01*
X384394491Y-91226715D01*
X384363224Y-91235093D01*
X384274783Y-91246737D01*
X384254031Y-91249469D01*
X384245934Y-91250000D01*
X373004066Y-91250000D01*
X372995968Y-91249469D01*
X372972457Y-91246374D01*
X372886775Y-91235093D01*
X372855508Y-91226715D01*
X372765081Y-91189259D01*
X372737048Y-91173074D01*
X372659398Y-91113491D01*
X372636508Y-91090601D01*
X372576925Y-91012951D01*
X372560740Y-90984918D01*
X372523284Y-90894491D01*
X372514906Y-90863223D01*
X372500531Y-90754035D01*
X372500000Y-90745933D01*
X372500000Y-86630029D01*
X372519685Y-86562990D01*
X372547350Y-86532557D01*
X372547775Y-86532223D01*
X372556010Y-86525747D01*
X372693755Y-86366781D01*
X372798926Y-86184619D01*
X372867722Y-85985846D01*
X372897657Y-85777645D01*
X372887648Y-85567541D01*
X372838058Y-85363129D01*
X372750679Y-85171795D01*
X372750675Y-85171789D01*
X372628673Y-85000460D01*
X372628666Y-85000453D01*
X372538430Y-84914412D01*
X372503495Y-84853902D01*
X372500000Y-84824669D01*
X372500000Y-82400500D01*
X372519685Y-82333461D01*
X372572489Y-82287706D01*
X372624000Y-82276500D01*
X373667609Y-82276500D01*
X373667616Y-82276500D01*
X373781302Y-82261533D01*
X373781306Y-82261530D01*
X373782089Y-82261428D01*
X373851125Y-82272193D01*
X373903381Y-82318572D01*
X373921496Y-82370483D01*
X373933271Y-82474994D01*
X373991438Y-82641229D01*
X374085128Y-82790334D01*
X374085133Y-82790340D01*
X374209659Y-82914866D01*
X374209665Y-82914871D01*
X374358770Y-83008561D01*
X374416580Y-83028789D01*
X374525000Y-83066727D01*
X374525003Y-83066727D01*
X374525005Y-83066728D01*
X374699996Y-83086445D01*
X374700000Y-83086445D01*
X374700004Y-83086445D01*
X374874994Y-83066728D01*
X374874995Y-83066727D01*
X374875000Y-83066727D01*
X375041226Y-83008562D01*
X375041225Y-83008562D01*
X375041229Y-83008561D01*
X375190334Y-82914871D01*
X375190335Y-82914870D01*
X375190340Y-82914867D01*
X375314867Y-82790340D01*
X375314871Y-82790334D01*
X375408560Y-82641230D01*
X375408560Y-82641228D01*
X375408562Y-82641226D01*
X375466727Y-82475000D01*
X375466727Y-82474999D01*
X375469027Y-82468427D01*
X375470989Y-82469113D01*
X375500144Y-82416955D01*
X375561795Y-82384078D01*
X375586954Y-82381499D01*
X375589163Y-82381499D01*
X375589171Y-82381500D01*
X376010828Y-82381499D01*
X376031596Y-82379005D01*
X376100505Y-82390556D01*
X376152229Y-82437528D01*
X376163422Y-82461165D01*
X376191436Y-82541225D01*
X376191437Y-82541227D01*
X376285128Y-82690334D01*
X376285133Y-82690340D01*
X376409659Y-82814866D01*
X376409665Y-82814871D01*
X376558770Y-82908561D01*
X376616580Y-82928789D01*
X376725000Y-82966727D01*
X376725003Y-82966727D01*
X376725005Y-82966728D01*
X376899996Y-82986445D01*
X376900000Y-82986445D01*
X376900004Y-82986445D01*
X377074994Y-82966728D01*
X377074995Y-82966727D01*
X377075000Y-82966727D01*
X377241226Y-82908562D01*
X377241225Y-82908562D01*
X377241229Y-82908561D01*
X377390334Y-82814871D01*
X377390335Y-82814870D01*
X377390340Y-82814867D01*
X377514867Y-82690340D01*
X377591406Y-82568530D01*
X377608558Y-82541233D01*
X377608561Y-82541228D01*
X377621063Y-82505499D01*
X377635394Y-82464543D01*
X377676114Y-82407769D01*
X377741067Y-82382021D01*
X377752416Y-82381499D01*
X378094500Y-82381499D01*
X378161539Y-82401184D01*
X378207294Y-82453988D01*
X378218500Y-82505499D01*
X378218500Y-83197676D01*
X378198815Y-83264715D01*
X378146011Y-83310470D01*
X378139990Y-83313030D01*
X378019480Y-83360553D01*
X378019478Y-83360554D01*
X377974925Y-83394340D01*
X377909613Y-83419163D01*
X377841249Y-83404735D01*
X377825075Y-83394340D01*
X377780523Y-83360555D01*
X377660007Y-83313030D01*
X377648439Y-83308468D01*
X377648438Y-83308467D01*
X377648436Y-83308467D01*
X377565436Y-83298500D01*
X377214564Y-83298500D01*
X377131563Y-83308467D01*
X377131562Y-83308467D01*
X376999476Y-83360555D01*
X376886345Y-83446345D01*
X376800555Y-83559476D01*
X376748467Y-83691562D01*
X376748467Y-83691563D01*
X376738500Y-83774563D01*
X376738500Y-84225436D01*
X376748467Y-84308436D01*
X376748467Y-84308437D01*
X376800555Y-84440523D01*
X376825672Y-84473644D01*
X376850496Y-84538956D01*
X376836068Y-84607320D01*
X376786971Y-84657031D01*
X376744748Y-84671274D01*
X376689638Y-84679303D01*
X376689636Y-84679304D01*
X376575256Y-84735221D01*
X376575253Y-84735223D01*
X376485223Y-84825253D01*
X376485221Y-84825256D01*
X376429305Y-84939635D01*
X376429305Y-84939636D01*
X376429304Y-84939639D01*
X376418500Y-85013794D01*
X376418500Y-85013798D01*
X376418500Y-85013799D01*
X376418500Y-85391797D01*
X376398815Y-85458836D01*
X376346011Y-85504591D01*
X376276853Y-85514535D01*
X376219575Y-85490601D01*
X376127996Y-85421155D01*
X375994632Y-85368563D01*
X375954842Y-85363785D01*
X375910829Y-85358500D01*
X375910822Y-85358500D01*
X375489177Y-85358500D01*
X375405367Y-85368563D01*
X375272003Y-85421155D01*
X375157776Y-85507776D01*
X375071155Y-85622003D01*
X375018563Y-85755367D01*
X375013030Y-85801445D01*
X375008500Y-85839171D01*
X375008500Y-85839176D01*
X375008500Y-85839177D01*
X375008500Y-86200822D01*
X375018563Y-86284632D01*
X375071155Y-86417996D01*
X375157776Y-86532223D01*
X375272003Y-86618844D01*
X375272004Y-86618844D01*
X375272005Y-86618845D01*
X375405366Y-86671436D01*
X375489171Y-86681500D01*
X375910828Y-86681499D01*
X375994634Y-86671436D01*
X376127995Y-86618845D01*
X376166296Y-86589800D01*
X376248982Y-86527098D01*
X376251113Y-86529909D01*
X376297951Y-86504334D01*
X376324309Y-86501500D01*
X376460615Y-86501500D01*
X376527654Y-86521185D01*
X376548296Y-86537819D01*
X376575253Y-86564776D01*
X376575256Y-86564778D01*
X376684863Y-86618361D01*
X376689639Y-86620696D01*
X376763794Y-86631500D01*
X376763800Y-86631500D01*
X378236200Y-86631500D01*
X378236206Y-86631500D01*
X378310361Y-86620696D01*
X378365261Y-86593856D01*
X378424739Y-86564780D01*
X378424741Y-86564778D01*
X378424746Y-86564776D01*
X378424749Y-86564772D01*
X378428531Y-86562073D01*
X378494528Y-86539132D01*
X378562450Y-86555514D01*
X378610733Y-86606017D01*
X378624047Y-86674606D01*
X378623298Y-86680858D01*
X378618500Y-86713796D01*
X378618500Y-87797256D01*
X378613477Y-87832192D01*
X378613253Y-87832952D01*
X378612666Y-87837040D01*
X378606111Y-87862723D01*
X378604666Y-87866596D01*
X378601110Y-87916300D01*
X378600637Y-87920696D01*
X378598500Y-87935563D01*
X378598500Y-87950589D01*
X378598342Y-87955014D01*
X378594788Y-88004699D01*
X378594788Y-88004703D01*
X378595666Y-88008738D01*
X378598500Y-88035097D01*
X378598500Y-88375691D01*
X378578815Y-88442730D01*
X378572430Y-88450662D01*
X378572902Y-88451020D01*
X378567779Y-88457775D01*
X378567777Y-88457777D01*
X378527145Y-88511357D01*
X378481154Y-88572005D01*
X378428563Y-88705367D01*
X378423030Y-88751445D01*
X378418500Y-88789171D01*
X378418500Y-88789176D01*
X378418500Y-88789177D01*
X378418500Y-89210822D01*
X378428563Y-89294632D01*
X378481155Y-89427996D01*
X378567776Y-89542223D01*
X378682003Y-89628844D01*
X378682004Y-89628844D01*
X378682005Y-89628845D01*
X378815366Y-89681436D01*
X378899171Y-89691500D01*
X379260828Y-89691499D01*
X379344634Y-89681436D01*
X379477995Y-89628845D01*
X379592223Y-89542223D01*
X379678845Y-89427995D01*
X379731436Y-89294634D01*
X379741500Y-89210829D01*
X379741499Y-88789172D01*
X379731436Y-88705366D01*
X379678845Y-88572005D01*
X379678844Y-88572004D01*
X379678844Y-88572003D01*
X379647314Y-88530425D01*
X379622491Y-88465114D01*
X379636919Y-88396750D01*
X379686016Y-88347039D01*
X379746118Y-88331500D01*
X380436200Y-88331500D01*
X380436206Y-88331500D01*
X380510361Y-88320696D01*
X380567553Y-88292736D01*
X380624743Y-88264778D01*
X380624746Y-88264776D01*
X380714776Y-88174746D01*
X380714778Y-88174743D01*
X380742736Y-88117553D01*
X380770696Y-88060361D01*
X380781500Y-87986206D01*
X380781500Y-87343148D01*
X380801185Y-87276109D01*
X380824295Y-87249437D01*
X380850674Y-87226578D01*
X380854074Y-87223839D01*
X380866123Y-87214820D01*
X380876760Y-87204181D01*
X380879966Y-87201196D01*
X380917635Y-87168558D01*
X380919868Y-87165081D01*
X380936501Y-87144440D01*
X381194442Y-86886499D01*
X381215080Y-86869869D01*
X381218558Y-86867635D01*
X381251190Y-86829973D01*
X381254175Y-86826767D01*
X381264821Y-86816123D01*
X381273845Y-86804067D01*
X381276590Y-86800661D01*
X381309229Y-86762995D01*
X381310945Y-86759238D01*
X381324476Y-86736433D01*
X381326948Y-86733131D01*
X381344362Y-86686440D01*
X381346043Y-86682380D01*
X381366746Y-86637049D01*
X381367331Y-86632972D01*
X381373890Y-86607273D01*
X381375334Y-86603403D01*
X381378890Y-86553678D01*
X381379356Y-86549339D01*
X381381500Y-86534434D01*
X381381500Y-86519409D01*
X381381658Y-86514984D01*
X381382420Y-86504334D01*
X381385212Y-86465297D01*
X381384332Y-86461252D01*
X381381500Y-86434903D01*
X381381500Y-85358500D01*
X381381500Y-84165081D01*
X381384333Y-84138733D01*
X381385211Y-84134702D01*
X381381657Y-84085019D01*
X381381500Y-84080599D01*
X381381500Y-84065565D01*
X381381224Y-84063647D01*
X381379357Y-84050666D01*
X381378888Y-84046301D01*
X381376459Y-84012326D01*
X381375335Y-83996603D01*
X381375334Y-83996600D01*
X381375334Y-83996597D01*
X381373887Y-83992720D01*
X381367334Y-83967040D01*
X381366746Y-83962950D01*
X381346048Y-83917626D01*
X381344354Y-83913537D01*
X381326948Y-83866871D01*
X381326945Y-83866866D01*
X381324476Y-83863568D01*
X381310946Y-83840765D01*
X381309229Y-83837005D01*
X381309226Y-83837001D01*
X381276599Y-83799347D01*
X381273821Y-83795899D01*
X381264828Y-83783886D01*
X381264823Y-83783881D01*
X381264820Y-83783876D01*
X381254186Y-83773242D01*
X381251184Y-83770017D01*
X381218558Y-83732364D01*
X381215079Y-83730129D01*
X381194437Y-83713494D01*
X381133564Y-83652621D01*
X381133562Y-83652618D01*
X379617819Y-82136875D01*
X379584334Y-82075552D01*
X379581500Y-82049194D01*
X379581500Y-80638737D01*
X379601185Y-80571698D01*
X379653989Y-80525943D01*
X379723147Y-80515999D01*
X379786703Y-80545024D01*
G37*
%TD.AperFunction*%
%TA.AperFunction,Conductor*%
G36*
X379386703Y-83268091D02*
G01*
X379393178Y-83274120D01*
X380382182Y-84263125D01*
X380415666Y-84324446D01*
X380418500Y-84350804D01*
X380418500Y-86244500D01*
X380398815Y-86311539D01*
X380346011Y-86357294D01*
X380294500Y-86368500D01*
X380265097Y-86368500D01*
X380238739Y-86365666D01*
X380234703Y-86364788D01*
X380234700Y-86364788D01*
X380204767Y-86366929D01*
X380185012Y-86368342D01*
X380180591Y-86368500D01*
X378963794Y-86368500D01*
X378889639Y-86379304D01*
X378889637Y-86379304D01*
X378889635Y-86379305D01*
X378775254Y-86435222D01*
X378771458Y-86437933D01*
X378705460Y-86460867D01*
X378637539Y-86444479D01*
X378589261Y-86393972D01*
X378575953Y-86325381D01*
X378576702Y-86319137D01*
X378581500Y-86286205D01*
X378581500Y-85013799D01*
X378581500Y-85013794D01*
X378570696Y-84939639D01*
X378570694Y-84939635D01*
X378538190Y-84873147D01*
X378526430Y-84804274D01*
X378553773Y-84739977D01*
X378611537Y-84700669D01*
X378634803Y-84695571D01*
X378668439Y-84691532D01*
X378800522Y-84639445D01*
X378913654Y-84553654D01*
X378999445Y-84440522D01*
X379051532Y-84308439D01*
X379061500Y-84225436D01*
X379061500Y-84074326D01*
X379081185Y-84007287D01*
X379091784Y-83993127D01*
X379109229Y-83972995D01*
X379110943Y-83969239D01*
X379124477Y-83946430D01*
X379126948Y-83943131D01*
X379144371Y-83896416D01*
X379146043Y-83892380D01*
X379166746Y-83847049D01*
X379167331Y-83842972D01*
X379173890Y-83817273D01*
X379175334Y-83813403D01*
X379178890Y-83763678D01*
X379179356Y-83759339D01*
X379181500Y-83744434D01*
X379181500Y-83729409D01*
X379181658Y-83724984D01*
X379182480Y-83713494D01*
X379185212Y-83675297D01*
X379184332Y-83671252D01*
X379181500Y-83644903D01*
X379181500Y-83361804D01*
X379201185Y-83294765D01*
X379253989Y-83249010D01*
X379323147Y-83239066D01*
X379386703Y-83268091D01*
G37*
%TD.AperFunction*%
M02*
