%TF.GenerationSoftware,KiCad,Pcbnew,7.0.7*%
%TF.CreationDate,2023-09-25T11:45:10+09:00*%
%TF.ProjectId,Duet-Switch-Tester,44756574-2d53-4776-9974-63682d546573,rev?*%
%TF.SameCoordinates,Original*%
%TF.FileFunction,Soldermask,Top*%
%TF.FilePolarity,Negative*%
%FSLAX46Y46*%
G04 Gerber Fmt 4.6, Leading zero omitted, Abs format (unit mm)*
G04 Created by KiCad (PCBNEW 7.0.7) date 2023-09-25 11:45:10*
%MOMM*%
%LPD*%
G01*
G04 APERTURE LIST*
%ADD10C,0.300000*%
%ADD11C,0.010000*%
%ADD12C,1.701800*%
%ADD13C,3.000000*%
%ADD14C,3.987800*%
%ADD15C,4.400000*%
%ADD16C,0.650000*%
%ADD17O,1.000000X1.600000*%
%ADD18O,1.000000X2.100000*%
G04 APERTURE END LIST*
D10*
G36*
X71070416Y-128752179D02*
G01*
X71183412Y-128757905D01*
X71292704Y-128767449D01*
X71398290Y-128780810D01*
X71500172Y-128797989D01*
X71598348Y-128818985D01*
X71692821Y-128843798D01*
X71783588Y-128872429D01*
X71870650Y-128904878D01*
X71954008Y-128941144D01*
X72033661Y-128981228D01*
X72109609Y-129025129D01*
X72181852Y-129072848D01*
X72250391Y-129124384D01*
X72315225Y-129179737D01*
X72376354Y-129238908D01*
X72433778Y-129301897D01*
X72487497Y-129368703D01*
X72537512Y-129439326D01*
X72583822Y-129513767D01*
X72626427Y-129592026D01*
X72665327Y-129674102D01*
X72700523Y-129759995D01*
X72732013Y-129849706D01*
X72759799Y-129943235D01*
X72783880Y-130040581D01*
X72804257Y-130141744D01*
X72820928Y-130246725D01*
X72833895Y-130355523D01*
X72843157Y-130468139D01*
X72848714Y-130584572D01*
X72850566Y-130704823D01*
X72848714Y-130831611D01*
X72843157Y-130954373D01*
X72833895Y-131073111D01*
X72820928Y-131187823D01*
X72804257Y-131298511D01*
X72783880Y-131405173D01*
X72759799Y-131507810D01*
X72732013Y-131606423D01*
X72700523Y-131701010D01*
X72665327Y-131791573D01*
X72626427Y-131878110D01*
X72583822Y-131960623D01*
X72537512Y-132039110D01*
X72487497Y-132113573D01*
X72433778Y-132184010D01*
X72376354Y-132250423D01*
X72315225Y-132312810D01*
X72250391Y-132371173D01*
X72181852Y-132425510D01*
X72109609Y-132475822D01*
X72033661Y-132522110D01*
X71954008Y-132564372D01*
X71870650Y-132602610D01*
X71783588Y-132636822D01*
X71692821Y-132667010D01*
X71598348Y-132693172D01*
X71500172Y-132715310D01*
X71398290Y-132733422D01*
X71292704Y-132747510D01*
X71183412Y-132757572D01*
X71070416Y-132763610D01*
X70953715Y-132765622D01*
X70906277Y-132765292D01*
X70857727Y-132764302D01*
X70808067Y-132762652D01*
X70757296Y-132760342D01*
X70705413Y-132757371D01*
X70652420Y-132753741D01*
X70598316Y-132749450D01*
X70561630Y-132746223D01*
X70524449Y-132742702D01*
X70486775Y-132738888D01*
X70448608Y-132734781D01*
X70409946Y-132730380D01*
X70390430Y-132728070D01*
X70347032Y-132720418D01*
X70306138Y-132708339D01*
X70267748Y-132691832D01*
X70231863Y-132670897D01*
X70198483Y-132645535D01*
X70167607Y-132615746D01*
X70155957Y-132602590D01*
X70129571Y-132567702D01*
X70107657Y-132531160D01*
X70090216Y-132492963D01*
X70077246Y-132453111D01*
X70068749Y-132411604D01*
X70068025Y-132403838D01*
X70386767Y-132403838D01*
X70406001Y-132427651D01*
X70459528Y-132436981D01*
X70512604Y-132445393D01*
X70565230Y-132452888D01*
X70617405Y-132459465D01*
X70669128Y-132465124D01*
X70720402Y-132469865D01*
X70771224Y-132473689D01*
X70821595Y-132476595D01*
X70871516Y-132478584D01*
X70920986Y-132479654D01*
X70953715Y-132479858D01*
X71004240Y-132479442D01*
X71053918Y-132478195D01*
X71102750Y-132476115D01*
X71150736Y-132473204D01*
X71197876Y-132469460D01*
X71244170Y-132464885D01*
X71289618Y-132459478D01*
X71334219Y-132453240D01*
X71377974Y-132446169D01*
X71420884Y-132438267D01*
X71462947Y-132429532D01*
X71504163Y-132419966D01*
X71544534Y-132409568D01*
X71584059Y-132398339D01*
X71622737Y-132386277D01*
X71660570Y-132373384D01*
X71697556Y-132359658D01*
X71733696Y-132345101D01*
X71768990Y-132329712D01*
X71803437Y-132313492D01*
X71837039Y-132296439D01*
X71869794Y-132278555D01*
X71901704Y-132259838D01*
X71932767Y-132240290D01*
X71992355Y-132198699D01*
X72048558Y-132153780D01*
X72101377Y-132105533D01*
X72150811Y-132053960D01*
X72197172Y-131998780D01*
X72240541Y-131939714D01*
X72261105Y-131908724D01*
X72280920Y-131876763D01*
X72299988Y-131843831D01*
X72318308Y-131809927D01*
X72335880Y-131775052D01*
X72352705Y-131739205D01*
X72368781Y-131702387D01*
X72384110Y-131664598D01*
X72398692Y-131625837D01*
X72412525Y-131586105D01*
X72425611Y-131545401D01*
X72437949Y-131503726D01*
X72449539Y-131461080D01*
X72460381Y-131417463D01*
X72470476Y-131372874D01*
X72479823Y-131327313D01*
X72488422Y-131280782D01*
X72496274Y-131233279D01*
X72503377Y-131184804D01*
X72509733Y-131135359D01*
X72515341Y-131084941D01*
X72520202Y-131033553D01*
X72524314Y-130981193D01*
X72527679Y-130927862D01*
X72530296Y-130873559D01*
X72532166Y-130818285D01*
X72533288Y-130762040D01*
X72533661Y-130704823D01*
X72533285Y-130651627D01*
X72532155Y-130599315D01*
X72530272Y-130547886D01*
X72527636Y-130497341D01*
X72524247Y-130447680D01*
X72520105Y-130398902D01*
X72515210Y-130351008D01*
X72509561Y-130303998D01*
X72503160Y-130257871D01*
X72496005Y-130212629D01*
X72488098Y-130168270D01*
X72479437Y-130124794D01*
X72470023Y-130082203D01*
X72459855Y-130040495D01*
X72448935Y-129999670D01*
X72437262Y-129959730D01*
X72424835Y-129920673D01*
X72411656Y-129882500D01*
X72397723Y-129845211D01*
X72383037Y-129808805D01*
X72367598Y-129773283D01*
X72351406Y-129738645D01*
X72334461Y-129704890D01*
X72316762Y-129672020D01*
X72298311Y-129640032D01*
X72259148Y-129578709D01*
X72216974Y-129520921D01*
X72171786Y-129466668D01*
X72148063Y-129440867D01*
X72098318Y-129391733D01*
X72045252Y-129345769D01*
X71988866Y-129302975D01*
X71929160Y-129263352D01*
X71866134Y-129226898D01*
X71833376Y-129209859D01*
X71799788Y-129193614D01*
X71765370Y-129178160D01*
X71730122Y-129163499D01*
X71694043Y-129149631D01*
X71657135Y-129136555D01*
X71619396Y-129124272D01*
X71580828Y-129112781D01*
X71541430Y-129102082D01*
X71501201Y-129092177D01*
X71460143Y-129083063D01*
X71418254Y-129074742D01*
X71375535Y-129067213D01*
X71331987Y-129060477D01*
X71287608Y-129054534D01*
X71242399Y-129049383D01*
X71196360Y-129045024D01*
X71149491Y-129041458D01*
X71101792Y-129038684D01*
X71053264Y-129036703D01*
X71003905Y-129035514D01*
X70953715Y-129035118D01*
X70904546Y-129035577D01*
X70854926Y-129036954D01*
X70804855Y-129039248D01*
X70754333Y-129042460D01*
X70703361Y-129046589D01*
X70651937Y-129051637D01*
X70600063Y-129057602D01*
X70547738Y-129064485D01*
X70494962Y-129072285D01*
X70441736Y-129081003D01*
X70406001Y-129087325D01*
X70386767Y-129111139D01*
X70386767Y-132403838D01*
X70068025Y-132403838D01*
X70064724Y-132368443D01*
X70064366Y-132350715D01*
X70064366Y-129164262D01*
X70066602Y-129120461D01*
X70073311Y-129078359D01*
X70084491Y-129037957D01*
X70100144Y-128999255D01*
X70120269Y-128962251D01*
X70144866Y-128926948D01*
X70155957Y-128913302D01*
X70185698Y-128881478D01*
X70217674Y-128854126D01*
X70251886Y-128831246D01*
X70288335Y-128812838D01*
X70327020Y-128798903D01*
X70367941Y-128789439D01*
X70384935Y-128786906D01*
X70434289Y-128780359D01*
X70484465Y-128774456D01*
X70535462Y-128769196D01*
X70587280Y-128764581D01*
X70639919Y-128760610D01*
X70693379Y-128757282D01*
X70747660Y-128754599D01*
X70784303Y-128753168D01*
X70821312Y-128752023D01*
X70858685Y-128751164D01*
X70896424Y-128750592D01*
X70934527Y-128750306D01*
X70953715Y-128750270D01*
X71070416Y-128752179D01*
G37*
G36*
X75729274Y-132416660D02*
G01*
X75684852Y-132458917D01*
X75638141Y-132498448D01*
X75589139Y-132535253D01*
X75537848Y-132569331D01*
X75484268Y-132600683D01*
X75428397Y-132629309D01*
X75370237Y-132655209D01*
X75309787Y-132678382D01*
X75247047Y-132698829D01*
X75182017Y-132716550D01*
X75114698Y-132731544D01*
X75045088Y-132743812D01*
X74973189Y-132753354D01*
X74936381Y-132757103D01*
X74899001Y-132760170D01*
X74861048Y-132762555D01*
X74822522Y-132764259D01*
X74783424Y-132765282D01*
X74743754Y-132765622D01*
X74704083Y-132765282D01*
X74664982Y-132764259D01*
X74626452Y-132762555D01*
X74588493Y-132760170D01*
X74551104Y-132757103D01*
X74514286Y-132753354D01*
X74442362Y-132743812D01*
X74372721Y-132731544D01*
X74305362Y-132716550D01*
X74240286Y-132698829D01*
X74177492Y-132678382D01*
X74116981Y-132655209D01*
X74058753Y-132629309D01*
X74002807Y-132600683D01*
X73949144Y-132569331D01*
X73897764Y-132535253D01*
X73848666Y-132498448D01*
X73801851Y-132458917D01*
X73757318Y-132416660D01*
X73715394Y-132371759D01*
X73676174Y-132324296D01*
X73639659Y-132274272D01*
X73605849Y-132221686D01*
X73574744Y-132166538D01*
X73546344Y-132108828D01*
X73520648Y-132048557D01*
X73497657Y-131985724D01*
X73477371Y-131920330D01*
X73459790Y-131852374D01*
X73444914Y-131781856D01*
X73438490Y-131745636D01*
X73432742Y-131708776D01*
X73427671Y-131671275D01*
X73423275Y-131633135D01*
X73419556Y-131594353D01*
X73416513Y-131554932D01*
X73414147Y-131514869D01*
X73412456Y-131474167D01*
X73411442Y-131432824D01*
X73411104Y-131390840D01*
X73411104Y-128963677D01*
X73415844Y-128925127D01*
X73430066Y-128889617D01*
X73453769Y-128857149D01*
X73459647Y-128851020D01*
X73488619Y-128827554D01*
X73524719Y-128810488D01*
X73560726Y-128803235D01*
X73577800Y-128802477D01*
X73616744Y-128806949D01*
X73652289Y-128820366D01*
X73684435Y-128842727D01*
X73690457Y-128848272D01*
X73716056Y-128878827D01*
X73732173Y-128914390D01*
X73738573Y-128950679D01*
X73739000Y-128963677D01*
X73739000Y-131400915D01*
X73739986Y-131466958D01*
X73742946Y-131530903D01*
X73747879Y-131592752D01*
X73754785Y-131652505D01*
X73763664Y-131710160D01*
X73774516Y-131765720D01*
X73787342Y-131819182D01*
X73802140Y-131870549D01*
X73818912Y-131919818D01*
X73837657Y-131966991D01*
X73858375Y-132012068D01*
X73881066Y-132055047D01*
X73905730Y-132095931D01*
X73932368Y-132134717D01*
X73960978Y-132171407D01*
X73991562Y-132206001D01*
X74024119Y-132238498D01*
X74058649Y-132268898D01*
X74095152Y-132297202D01*
X74133629Y-132323409D01*
X74174078Y-132347520D01*
X74216501Y-132369534D01*
X74260896Y-132389451D01*
X74307265Y-132407272D01*
X74355607Y-132422997D01*
X74405922Y-132436624D01*
X74458211Y-132448156D01*
X74512472Y-132457590D01*
X74568707Y-132464928D01*
X74626914Y-132470170D01*
X74687095Y-132473314D01*
X74749249Y-132474363D01*
X74811065Y-132473314D01*
X74870919Y-132470170D01*
X74928810Y-132464928D01*
X74984739Y-132457590D01*
X75038705Y-132448156D01*
X75090709Y-132436624D01*
X75140750Y-132422997D01*
X75188829Y-132407272D01*
X75234946Y-132389451D01*
X75279100Y-132369534D01*
X75321292Y-132347520D01*
X75361521Y-132323409D01*
X75399788Y-132297202D01*
X75436093Y-132268898D01*
X75470435Y-132238498D01*
X75502815Y-132206001D01*
X75533232Y-132171407D01*
X75561687Y-132134717D01*
X75588180Y-132095931D01*
X75612710Y-132055047D01*
X75635278Y-132012068D01*
X75655883Y-131966991D01*
X75674526Y-131919818D01*
X75691206Y-131870549D01*
X75705924Y-131819182D01*
X75718680Y-131765720D01*
X75729473Y-131710160D01*
X75738304Y-131652505D01*
X75745172Y-131592752D01*
X75750079Y-131530903D01*
X75753022Y-131466958D01*
X75754003Y-131400915D01*
X75754003Y-128963677D01*
X75757553Y-128926406D01*
X75769825Y-128889411D01*
X75790862Y-128857068D01*
X75798883Y-128848272D01*
X75829831Y-128824122D01*
X75865430Y-128808917D01*
X75905680Y-128802656D01*
X75914288Y-128802477D01*
X75952002Y-128806099D01*
X75989318Y-128818622D01*
X76021804Y-128840088D01*
X76030608Y-128848272D01*
X76054758Y-128879220D01*
X76069964Y-128914819D01*
X76076225Y-128955069D01*
X76076404Y-128963677D01*
X76076404Y-131390840D01*
X76076065Y-131432824D01*
X76075048Y-131474167D01*
X76073353Y-131514869D01*
X76070980Y-131554932D01*
X76067929Y-131594353D01*
X76064200Y-131633135D01*
X76059793Y-131671275D01*
X76054708Y-131708776D01*
X76048945Y-131745636D01*
X76042504Y-131781856D01*
X76027589Y-131852374D01*
X76009961Y-131920330D01*
X75989621Y-131985724D01*
X75966570Y-132048557D01*
X75940806Y-132108828D01*
X75912331Y-132166538D01*
X75881143Y-132221686D01*
X75847244Y-132274272D01*
X75810632Y-132324296D01*
X75771309Y-132371759D01*
X75729274Y-132416660D01*
G37*
G36*
X77204806Y-132712500D02*
G01*
X77164131Y-132710107D01*
X77125111Y-132702929D01*
X77087745Y-132690966D01*
X77052035Y-132674217D01*
X77017979Y-132652684D01*
X76985578Y-132626365D01*
X76973080Y-132614497D01*
X76944847Y-132582758D01*
X76921399Y-132549364D01*
X76902737Y-132514315D01*
X76888860Y-132477611D01*
X76879768Y-132439253D01*
X76875461Y-132399240D01*
X76875078Y-132382772D01*
X76875078Y-129133121D01*
X76877471Y-129092204D01*
X76884649Y-129053032D01*
X76896612Y-129015604D01*
X76913360Y-128979920D01*
X76934894Y-128945981D01*
X76961213Y-128913785D01*
X76973080Y-128901395D01*
X77004820Y-128872898D01*
X77038214Y-128849231D01*
X77073263Y-128830394D01*
X77109966Y-128816387D01*
X77148324Y-128807210D01*
X77188337Y-128802863D01*
X77204806Y-128802477D01*
X78972513Y-128802477D01*
X79011584Y-128807672D01*
X79045675Y-128823257D01*
X79072348Y-128846441D01*
X79095292Y-128877984D01*
X79108712Y-128913424D01*
X79112648Y-128949023D01*
X79107886Y-128987158D01*
X79093600Y-129020964D01*
X79072348Y-129047941D01*
X79042369Y-129070885D01*
X79007844Y-129084305D01*
X78972513Y-129088241D01*
X77215797Y-129088241D01*
X77197479Y-129106559D01*
X77197479Y-130435546D01*
X77215797Y-130453864D01*
X78867184Y-130453864D01*
X78905319Y-130458626D01*
X78939126Y-130472912D01*
X78966102Y-130494164D01*
X78989568Y-130524143D01*
X79003293Y-130558668D01*
X79007318Y-130593998D01*
X79002448Y-130632655D01*
X78987837Y-130666766D01*
X78966102Y-130693832D01*
X78936231Y-130716777D01*
X78902031Y-130730197D01*
X78867184Y-130734132D01*
X77215797Y-130734132D01*
X77197479Y-130746955D01*
X77197479Y-132408417D01*
X77215797Y-132426735D01*
X78972513Y-132426735D01*
X79011170Y-132431497D01*
X79045282Y-132445783D01*
X79072348Y-132467035D01*
X79095292Y-132497015D01*
X79108712Y-132531539D01*
X79112648Y-132566870D01*
X79107886Y-132605438D01*
X79093600Y-132640543D01*
X79072348Y-132669452D01*
X79042782Y-132693960D01*
X79008238Y-132708296D01*
X78972513Y-132712500D01*
X77204806Y-132712500D01*
G37*
G36*
X79925976Y-129093736D02*
G01*
X79886995Y-129088650D01*
X79851909Y-129073390D01*
X79823394Y-129050689D01*
X79798886Y-129019145D01*
X79784551Y-128983705D01*
X79780347Y-128948107D01*
X79785433Y-128909125D01*
X79800693Y-128874039D01*
X79823394Y-128845525D01*
X79854938Y-128821016D01*
X79890378Y-128806681D01*
X79925976Y-128802477D01*
X82363215Y-128802477D01*
X82402088Y-128807564D01*
X82436849Y-128822824D01*
X82464881Y-128845525D01*
X82489390Y-128877068D01*
X82503725Y-128912508D01*
X82507929Y-128948107D01*
X82502842Y-128987088D01*
X82487582Y-129022174D01*
X82464881Y-129050689D01*
X82433859Y-129075197D01*
X82398724Y-129089533D01*
X82363215Y-129093736D01*
X81323656Y-129093736D01*
X81305338Y-129111139D01*
X81305338Y-132551299D01*
X81301498Y-132589013D01*
X81288225Y-132626330D01*
X81265470Y-132658816D01*
X81256795Y-132667620D01*
X81225328Y-132691287D01*
X81190463Y-132706188D01*
X81152198Y-132712324D01*
X81144138Y-132712500D01*
X81105587Y-132708117D01*
X81070078Y-132694968D01*
X81037609Y-132673055D01*
X81031481Y-132667620D01*
X81005882Y-132636583D01*
X80989764Y-132600715D01*
X80983364Y-132564305D01*
X80982937Y-132551299D01*
X80982937Y-129111139D01*
X80964619Y-129093736D01*
X79925976Y-129093736D01*
G37*
G36*
X85019155Y-130738692D02*
G01*
X84989511Y-130728339D01*
X84960809Y-130717621D01*
X84933047Y-130706538D01*
X84906226Y-130695089D01*
X84880347Y-130683276D01*
X84855408Y-130671097D01*
X84831411Y-130658554D01*
X84808354Y-130645645D01*
X84786239Y-130632371D01*
X84765065Y-130618732D01*
X84744832Y-130604728D01*
X84725540Y-130590359D01*
X84707189Y-130575624D01*
X84689779Y-130560525D01*
X84673310Y-130545060D01*
X84657783Y-130529231D01*
X84643196Y-130513036D01*
X84629550Y-130496476D01*
X84616846Y-130479551D01*
X84605082Y-130462261D01*
X84594260Y-130444606D01*
X84584379Y-130426585D01*
X84575439Y-130408200D01*
X84567439Y-130389449D01*
X84560381Y-130370334D01*
X84554264Y-130350853D01*
X84549088Y-130331007D01*
X84544854Y-130310796D01*
X84541560Y-130290220D01*
X84539207Y-130269279D01*
X84537796Y-130247972D01*
X84537325Y-130226301D01*
X84537823Y-130201886D01*
X84539316Y-130178153D01*
X84541804Y-130155102D01*
X84545288Y-130132733D01*
X84549767Y-130111046D01*
X84555241Y-130090042D01*
X84561711Y-130069720D01*
X84569176Y-130050080D01*
X84577636Y-130031122D01*
X84587092Y-130012846D01*
X84597543Y-129995252D01*
X84608989Y-129978341D01*
X84621431Y-129962112D01*
X84634868Y-129946565D01*
X84649300Y-129931700D01*
X84664728Y-129917517D01*
X84681040Y-129904108D01*
X84698123Y-129891564D01*
X84715979Y-129879885D01*
X84734606Y-129869071D01*
X84754006Y-129859122D01*
X84774178Y-129850039D01*
X84795122Y-129841820D01*
X84816838Y-129834467D01*
X84839326Y-129827978D01*
X84862586Y-129822355D01*
X84886619Y-129817597D01*
X84911423Y-129813704D01*
X84936999Y-129810676D01*
X84963348Y-129808514D01*
X84990469Y-129807216D01*
X85018361Y-129806783D01*
X85044242Y-129807027D01*
X85069889Y-129807757D01*
X85095305Y-129808974D01*
X85120487Y-129810678D01*
X85145437Y-129812869D01*
X85170155Y-129815546D01*
X85194640Y-129818710D01*
X85218892Y-129822361D01*
X85242912Y-129826499D01*
X85266700Y-129831124D01*
X85290254Y-129836236D01*
X85313577Y-129841834D01*
X85336666Y-129847919D01*
X85359523Y-129854491D01*
X85382148Y-129861550D01*
X85404540Y-129869096D01*
X85419177Y-129875640D01*
X85434878Y-129885144D01*
X85449097Y-129896661D01*
X85460107Y-129908136D01*
X85470027Y-129921089D01*
X85478660Y-129934940D01*
X85485506Y-129949405D01*
X85490567Y-129964484D01*
X85493841Y-129980177D01*
X85495329Y-129996483D01*
X85495429Y-130002056D01*
X85493469Y-130019370D01*
X85487590Y-130034402D01*
X85477792Y-130047153D01*
X85464074Y-130057621D01*
X85448446Y-130064715D01*
X85432521Y-130067742D01*
X85416298Y-130066700D01*
X85399777Y-130061590D01*
X85376900Y-130051785D01*
X85354010Y-130042613D01*
X85331108Y-130034074D01*
X85308194Y-130026167D01*
X85285267Y-130018893D01*
X85262327Y-130012251D01*
X85239376Y-130006241D01*
X85216412Y-130000865D01*
X85193435Y-129996121D01*
X85170446Y-129992009D01*
X85147445Y-129988530D01*
X85124431Y-129985684D01*
X85101405Y-129983470D01*
X85078367Y-129981888D01*
X85055316Y-129980939D01*
X85032253Y-129980623D01*
X85015842Y-129980862D01*
X84999850Y-129981578D01*
X84976647Y-129983548D01*
X84954385Y-129986592D01*
X84933066Y-129990711D01*
X84912688Y-129995904D01*
X84893252Y-130002171D01*
X84874758Y-130009513D01*
X84857206Y-130017929D01*
X84840596Y-130027420D01*
X84824928Y-130037985D01*
X84819914Y-130041745D01*
X84805799Y-130053686D01*
X84793072Y-130066735D01*
X84781734Y-130080895D01*
X84771784Y-130096163D01*
X84763223Y-130112541D01*
X84756050Y-130130028D01*
X84750265Y-130148624D01*
X84745868Y-130168330D01*
X84742860Y-130189144D01*
X84741241Y-130211069D01*
X84740932Y-130226301D01*
X84742067Y-130252685D01*
X84745471Y-130278158D01*
X84751146Y-130302719D01*
X84759090Y-130326368D01*
X84769304Y-130349106D01*
X84781787Y-130370932D01*
X84796541Y-130391846D01*
X84813564Y-130411849D01*
X84832857Y-130430940D01*
X84854419Y-130449120D01*
X84878251Y-130466388D01*
X84904353Y-130482745D01*
X84918256Y-130490581D01*
X84932725Y-130498189D01*
X84947762Y-130505570D01*
X84963367Y-130512722D01*
X84979539Y-130519647D01*
X84996278Y-130526344D01*
X85013585Y-130532813D01*
X85031459Y-130539054D01*
X85049228Y-130544987D01*
X85066665Y-130550978D01*
X85083770Y-130557027D01*
X85100543Y-130563134D01*
X85116985Y-130569300D01*
X85133095Y-130575523D01*
X85148873Y-130581805D01*
X85164319Y-130588145D01*
X85179434Y-130594543D01*
X85194217Y-130600999D01*
X85222787Y-130614086D01*
X85250030Y-130627405D01*
X85275946Y-130640957D01*
X85300535Y-130654741D01*
X85323797Y-130668758D01*
X85345731Y-130683007D01*
X85366339Y-130697489D01*
X85385619Y-130712204D01*
X85403572Y-130727151D01*
X85420199Y-130742331D01*
X85435498Y-130757743D01*
X85449676Y-130773547D01*
X85462939Y-130789904D01*
X85475288Y-130806812D01*
X85486722Y-130824272D01*
X85497241Y-130842285D01*
X85506846Y-130860849D01*
X85515535Y-130879965D01*
X85523311Y-130899633D01*
X85530171Y-130919853D01*
X85536117Y-130940624D01*
X85541148Y-130961948D01*
X85545264Y-130983824D01*
X85548465Y-131006252D01*
X85550752Y-131029231D01*
X85552124Y-131052763D01*
X85552581Y-131076846D01*
X85552039Y-131105143D01*
X85550411Y-131132585D01*
X85547698Y-131159171D01*
X85543899Y-131184901D01*
X85539016Y-131209775D01*
X85533047Y-131233793D01*
X85525993Y-131256956D01*
X85517853Y-131279262D01*
X85508629Y-131300713D01*
X85498319Y-131321308D01*
X85486923Y-131341048D01*
X85474443Y-131359931D01*
X85460877Y-131377959D01*
X85446226Y-131395131D01*
X85430490Y-131411447D01*
X85413668Y-131426907D01*
X85395810Y-131441422D01*
X85376962Y-131455000D01*
X85357125Y-131467642D01*
X85336299Y-131479347D01*
X85314483Y-131490116D01*
X85291679Y-131499948D01*
X85267886Y-131508844D01*
X85243103Y-131516804D01*
X85217331Y-131523827D01*
X85190570Y-131529914D01*
X85162820Y-131535064D01*
X85134081Y-131539278D01*
X85104353Y-131542555D01*
X85073635Y-131544897D01*
X85041928Y-131546301D01*
X85025704Y-131546652D01*
X85009233Y-131546769D01*
X84984481Y-131546487D01*
X84960036Y-131545641D01*
X84935899Y-131544230D01*
X84912068Y-131542255D01*
X84888544Y-131539715D01*
X84865327Y-131536611D01*
X84842418Y-131532943D01*
X84819815Y-131528711D01*
X84797519Y-131523914D01*
X84775530Y-131518553D01*
X84753848Y-131512627D01*
X84732473Y-131506137D01*
X84711405Y-131499083D01*
X84690644Y-131491465D01*
X84670190Y-131483282D01*
X84650043Y-131474535D01*
X84634368Y-131466563D01*
X84620234Y-131457530D01*
X84607642Y-131447437D01*
X84593252Y-131432330D01*
X84581602Y-131415338D01*
X84572694Y-131396461D01*
X84567812Y-131381066D01*
X84564471Y-131364610D01*
X84562672Y-131347094D01*
X84562329Y-131334828D01*
X84564289Y-131317588D01*
X84570168Y-131302778D01*
X84581467Y-131289024D01*
X84593684Y-131280453D01*
X84609535Y-131273904D01*
X84625336Y-131271721D01*
X84641088Y-131273904D01*
X84656790Y-131280453D01*
X84676021Y-131291075D01*
X84695512Y-131301011D01*
X84715264Y-131310262D01*
X84735276Y-131318828D01*
X84755549Y-131326708D01*
X84776082Y-131333904D01*
X84796876Y-131340414D01*
X84817930Y-131346238D01*
X84839244Y-131351378D01*
X84860819Y-131355832D01*
X84882654Y-131359601D01*
X84904750Y-131362685D01*
X84927107Y-131365083D01*
X84949723Y-131366796D01*
X84972601Y-131367824D01*
X84995738Y-131368167D01*
X85017178Y-131367882D01*
X85037936Y-131367029D01*
X85058014Y-131365606D01*
X85077412Y-131363615D01*
X85096129Y-131361054D01*
X85114165Y-131357925D01*
X85131520Y-131354227D01*
X85148195Y-131349959D01*
X85164190Y-131345123D01*
X85179504Y-131339718D01*
X85208089Y-131327200D01*
X85233953Y-131312406D01*
X85257093Y-131295337D01*
X85277512Y-131275991D01*
X85295208Y-131254370D01*
X85310181Y-131230472D01*
X85322432Y-131204299D01*
X85331961Y-131175850D01*
X85338767Y-131145124D01*
X85341149Y-131128908D01*
X85342851Y-131112123D01*
X85343872Y-131094769D01*
X85344212Y-131076846D01*
X85343553Y-131055012D01*
X85341575Y-131033861D01*
X85338278Y-131013393D01*
X85333663Y-130993610D01*
X85327729Y-130974510D01*
X85320477Y-130956094D01*
X85311906Y-130938362D01*
X85302017Y-130921313D01*
X85290809Y-130904948D01*
X85278282Y-130889267D01*
X85269199Y-130879193D01*
X85254255Y-130864470D01*
X85237553Y-130850067D01*
X85219092Y-130835986D01*
X85205809Y-130826777D01*
X85191744Y-130817710D01*
X85176897Y-130808786D01*
X85161270Y-130800005D01*
X85144861Y-130791367D01*
X85127670Y-130782870D01*
X85109698Y-130774517D01*
X85090945Y-130766306D01*
X85071410Y-130758238D01*
X85051094Y-130750313D01*
X85029997Y-130742530D01*
X85019155Y-130738692D01*
G37*
G36*
X85988769Y-131405078D02*
G01*
X85716896Y-130416810D01*
X85713936Y-130399595D01*
X85714432Y-130383026D01*
X85718385Y-130367103D01*
X85725795Y-130351825D01*
X85731581Y-130343385D01*
X85743549Y-130330240D01*
X85757226Y-130320323D01*
X85772612Y-130313635D01*
X85789707Y-130310176D01*
X85800244Y-130309649D01*
X85816904Y-130310640D01*
X85832950Y-130313612D01*
X85848383Y-130318565D01*
X85863201Y-130325500D01*
X85877406Y-130334416D01*
X85882004Y-130337828D01*
X85894897Y-130348861D01*
X85905892Y-130361121D01*
X85914990Y-130374609D01*
X85922190Y-130389325D01*
X85927492Y-130405269D01*
X85928838Y-130410857D01*
X86155861Y-131356260D01*
X86145145Y-131357848D01*
X86134826Y-131356260D01*
X86349943Y-130433480D01*
X86355344Y-130416858D01*
X86362121Y-130401225D01*
X86370274Y-130386579D01*
X86379803Y-130372923D01*
X86390708Y-130360254D01*
X86402989Y-130348574D01*
X86408286Y-130344179D01*
X86422220Y-130334231D01*
X86436736Y-130325970D01*
X86451832Y-130319394D01*
X86467510Y-130314505D01*
X86483770Y-130311301D01*
X86500611Y-130309784D01*
X86507510Y-130309649D01*
X86524717Y-130310502D01*
X86541362Y-130313060D01*
X86557445Y-130317323D01*
X86572967Y-130323292D01*
X86587926Y-130330966D01*
X86602323Y-130340346D01*
X86607924Y-130344576D01*
X86621145Y-130355860D01*
X86632777Y-130368133D01*
X86642819Y-130381395D01*
X86651273Y-130395645D01*
X86658137Y-130410883D01*
X86663412Y-130427109D01*
X86665077Y-130433877D01*
X86878210Y-131356260D01*
X86869875Y-131347528D01*
X86859556Y-131356260D01*
X87086182Y-130408079D01*
X87091699Y-130392535D01*
X87098722Y-130378051D01*
X87107252Y-130364628D01*
X87117289Y-130352265D01*
X87128833Y-130340963D01*
X87133016Y-130337431D01*
X87146341Y-130327990D01*
X87160420Y-130320501D01*
X87177798Y-130314234D01*
X87193509Y-130310978D01*
X87209974Y-130309676D01*
X87212792Y-130309649D01*
X87229879Y-130311263D01*
X87245371Y-130316106D01*
X87259268Y-130324178D01*
X87271569Y-130335478D01*
X87277882Y-130343385D01*
X87286803Y-130358334D01*
X87292381Y-130373664D01*
X87294664Y-130391648D01*
X87293079Y-130407791D01*
X87291377Y-130414826D01*
X87019504Y-131405078D01*
X87014103Y-131420766D01*
X87007326Y-131435582D01*
X86999173Y-131449525D01*
X86989644Y-131462597D01*
X86978739Y-131474796D01*
X86966458Y-131486124D01*
X86961161Y-131490410D01*
X86947389Y-131500015D01*
X86933114Y-131507992D01*
X86918335Y-131514340D01*
X86903053Y-131519061D01*
X86887266Y-131522154D01*
X86870976Y-131523619D01*
X86864318Y-131523750D01*
X86847816Y-131522906D01*
X86831799Y-131520377D01*
X86816266Y-131516162D01*
X86801218Y-131510261D01*
X86786654Y-131502674D01*
X86772575Y-131493401D01*
X86767079Y-131489220D01*
X86754257Y-131477993D01*
X86742831Y-131465894D01*
X86732800Y-131452924D01*
X86724165Y-131439081D01*
X86716925Y-131424366D01*
X86711080Y-131408779D01*
X86709132Y-131402300D01*
X86493619Y-130493014D01*
X86503938Y-130491427D01*
X86514654Y-130493014D01*
X86299140Y-131401903D01*
X86294644Y-131417848D01*
X86288598Y-131432941D01*
X86281001Y-131447181D01*
X86271854Y-131460569D01*
X86261156Y-131473104D01*
X86248908Y-131484786D01*
X86243575Y-131489220D01*
X86229690Y-131499167D01*
X86215320Y-131507429D01*
X86200465Y-131514004D01*
X86185126Y-131518894D01*
X86169303Y-131522097D01*
X86152995Y-131523615D01*
X86146336Y-131523750D01*
X86129815Y-131522936D01*
X86113739Y-131520494D01*
X86098110Y-131516424D01*
X86082926Y-131510726D01*
X86068188Y-131503401D01*
X86053895Y-131494448D01*
X86048303Y-131490410D01*
X86035129Y-131479432D01*
X86023388Y-131467581D01*
X86013082Y-131454858D01*
X86004210Y-131441264D01*
X85996772Y-131426797D01*
X85990769Y-131411458D01*
X85988769Y-131405078D01*
G37*
G36*
X87803768Y-131492792D02*
G01*
X87790042Y-131504854D01*
X87774911Y-131513954D01*
X87758374Y-131520091D01*
X87740432Y-131523266D01*
X87729549Y-131523750D01*
X87713381Y-131522661D01*
X87695789Y-131518640D01*
X87679565Y-131511657D01*
X87664707Y-131501710D01*
X87654932Y-131492792D01*
X87643334Y-131478580D01*
X87634584Y-131463381D01*
X87628683Y-131447195D01*
X87625630Y-131430020D01*
X87625165Y-131419763D01*
X87625165Y-130413635D01*
X87626590Y-130395916D01*
X87630863Y-130379222D01*
X87637985Y-130363553D01*
X87647956Y-130348910D01*
X87654932Y-130341004D01*
X87666746Y-130330348D01*
X87681799Y-130320703D01*
X87698219Y-130314058D01*
X87716006Y-130310414D01*
X87729549Y-130309649D01*
X87745702Y-130310751D01*
X87763242Y-130314824D01*
X87779377Y-130321897D01*
X87794107Y-130331971D01*
X87803768Y-130341004D01*
X87815367Y-130355060D01*
X87824116Y-130370143D01*
X87830018Y-130386251D01*
X87833070Y-130403384D01*
X87833535Y-130413635D01*
X87833535Y-131419763D01*
X87832111Y-131437502D01*
X87827837Y-131454253D01*
X87820715Y-131470016D01*
X87810744Y-131484792D01*
X87803768Y-131492792D01*
G37*
G36*
X87803371Y-130023885D02*
G01*
X87789664Y-130035483D01*
X87774590Y-130044233D01*
X87758148Y-130050134D01*
X87740339Y-130053187D01*
X87729549Y-130053652D01*
X87713516Y-130052605D01*
X87696046Y-130048739D01*
X87679906Y-130042024D01*
X87665095Y-130032460D01*
X87655329Y-130023885D01*
X87643576Y-130010023D01*
X87634709Y-129994832D01*
X87628730Y-129978312D01*
X87625637Y-129960462D01*
X87625165Y-129949665D01*
X87625165Y-129887750D01*
X87626590Y-129870030D01*
X87630863Y-129853336D01*
X87637985Y-129837668D01*
X87647956Y-129823025D01*
X87654932Y-129815118D01*
X87666746Y-129804462D01*
X87681799Y-129794817D01*
X87698219Y-129788173D01*
X87716006Y-129784529D01*
X87729549Y-129783763D01*
X87745702Y-129784866D01*
X87763242Y-129788938D01*
X87779377Y-129796011D01*
X87794107Y-129806085D01*
X87803768Y-129815118D01*
X87815367Y-129829175D01*
X87824116Y-129844257D01*
X87830018Y-129860365D01*
X87833070Y-129877499D01*
X87833535Y-129887750D01*
X87833535Y-129949665D01*
X87832474Y-129965698D01*
X87828557Y-129983168D01*
X87821752Y-129999308D01*
X87812061Y-130014119D01*
X87803371Y-130023885D01*
G37*
G36*
X88262975Y-130518019D02*
G01*
X88246231Y-130516580D01*
X88230926Y-130512264D01*
X88215427Y-130503968D01*
X88204631Y-130494999D01*
X88194560Y-130482571D01*
X88186670Y-130466870D01*
X88182713Y-130451385D01*
X88181612Y-130436655D01*
X88183050Y-130419936D01*
X88188108Y-130402906D01*
X88196808Y-130387760D01*
X88204631Y-130378709D01*
X88217059Y-130368464D01*
X88232760Y-130360437D01*
X88248245Y-130356412D01*
X88262975Y-130355292D01*
X88429671Y-130355292D01*
X88437609Y-130347354D01*
X88437609Y-130020313D01*
X88438995Y-130002707D01*
X88443154Y-129986355D01*
X88450086Y-129971256D01*
X88459791Y-129957411D01*
X88466582Y-129950062D01*
X88479865Y-129938773D01*
X88494364Y-129930256D01*
X88510079Y-129924513D01*
X88527009Y-129921542D01*
X88537229Y-129921089D01*
X88554854Y-129922475D01*
X88571263Y-129926635D01*
X88586456Y-129933567D01*
X88600435Y-129943272D01*
X88607876Y-129950062D01*
X88619166Y-129963191D01*
X88627682Y-129977574D01*
X88633426Y-129993209D01*
X88636397Y-130010099D01*
X88636850Y-130020313D01*
X88636850Y-130347354D01*
X88644788Y-130355292D01*
X88987704Y-130355292D01*
X89004424Y-130356755D01*
X89021454Y-130361901D01*
X89036600Y-130370750D01*
X89045651Y-130378709D01*
X89055896Y-130390963D01*
X89063923Y-130406528D01*
X89067947Y-130421944D01*
X89069068Y-130436655D01*
X89067604Y-130453399D01*
X89063214Y-130468704D01*
X89054775Y-130484203D01*
X89045651Y-130494999D01*
X89031761Y-130506126D01*
X89015986Y-130513612D01*
X89000383Y-130517209D01*
X88987704Y-130518019D01*
X88644788Y-130518019D01*
X88636850Y-130525560D01*
X88636850Y-131129236D01*
X88637006Y-131148791D01*
X88637476Y-131167468D01*
X88638259Y-131185268D01*
X88639355Y-131202190D01*
X88640764Y-131218235D01*
X88643465Y-131240657D01*
X88646871Y-131261104D01*
X88650982Y-131279578D01*
X88655797Y-131296076D01*
X88663313Y-131315003D01*
X88672082Y-131330420D01*
X88676936Y-131336812D01*
X88691352Y-131350419D01*
X88705607Y-131359643D01*
X88722279Y-131367392D01*
X88741371Y-131373665D01*
X88757276Y-131377401D01*
X88774542Y-131380307D01*
X88793169Y-131382382D01*
X88813156Y-131383627D01*
X88834503Y-131384043D01*
X88851985Y-131383869D01*
X88868711Y-131383348D01*
X88884679Y-131382480D01*
X88903576Y-131380906D01*
X88921291Y-131378790D01*
X88937824Y-131376131D01*
X88953175Y-131372930D01*
X88969859Y-131371688D01*
X88985979Y-131374213D01*
X89001533Y-131380506D01*
X89009931Y-131385630D01*
X89022977Y-131396967D01*
X89031754Y-131410439D01*
X89036261Y-131426046D01*
X89036919Y-131435639D01*
X89035530Y-131453425D01*
X89031363Y-131470268D01*
X89024417Y-131486169D01*
X89014693Y-131501127D01*
X89002811Y-131513976D01*
X88989391Y-131523948D01*
X88974433Y-131531042D01*
X88957937Y-131535259D01*
X88942260Y-131537957D01*
X88925590Y-131540295D01*
X88907929Y-131542273D01*
X88889275Y-131543892D01*
X88869628Y-131545151D01*
X88848990Y-131546050D01*
X88832860Y-131546488D01*
X88816172Y-131546724D01*
X88804736Y-131546769D01*
X88779383Y-131546428D01*
X88755019Y-131545405D01*
X88731644Y-131543700D01*
X88709258Y-131541312D01*
X88687861Y-131538242D01*
X88667454Y-131534490D01*
X88648036Y-131530056D01*
X88629606Y-131524940D01*
X88612166Y-131519142D01*
X88595715Y-131512661D01*
X88580253Y-131505499D01*
X88565781Y-131497654D01*
X88552297Y-131489127D01*
X88533926Y-131475057D01*
X88517781Y-131459453D01*
X88503454Y-131441785D01*
X88490535Y-131421676D01*
X88482706Y-131406914D01*
X88475503Y-131391066D01*
X88468926Y-131374133D01*
X88462976Y-131356114D01*
X88457652Y-131337011D01*
X88452954Y-131316822D01*
X88448883Y-131295547D01*
X88445438Y-131273188D01*
X88442619Y-131249743D01*
X88440427Y-131225213D01*
X88438861Y-131199598D01*
X88437922Y-131172898D01*
X88437609Y-131145112D01*
X88437609Y-130525560D01*
X88429671Y-130518019D01*
X88262975Y-130518019D01*
G37*
G36*
X89850950Y-131546769D02*
G01*
X89833859Y-131546613D01*
X89817014Y-131546143D01*
X89800417Y-131545360D01*
X89784067Y-131544264D01*
X89767965Y-131542855D01*
X89752110Y-131541132D01*
X89721141Y-131536748D01*
X89691161Y-131531111D01*
X89662171Y-131524221D01*
X89634170Y-131516078D01*
X89607158Y-131506683D01*
X89581135Y-131496035D01*
X89556101Y-131484134D01*
X89532056Y-131470981D01*
X89509001Y-131456575D01*
X89486934Y-131440916D01*
X89465857Y-131424005D01*
X89445769Y-131405841D01*
X89426670Y-131386424D01*
X89408647Y-131365751D01*
X89391787Y-131343919D01*
X89376089Y-131320927D01*
X89361554Y-131296775D01*
X89348182Y-131271464D01*
X89335973Y-131244993D01*
X89324927Y-131217362D01*
X89315043Y-131188572D01*
X89306323Y-131158622D01*
X89302398Y-131143212D01*
X89298764Y-131127512D01*
X89295421Y-131111522D01*
X89292369Y-131095243D01*
X89289608Y-131078673D01*
X89287137Y-131061814D01*
X89284956Y-131044664D01*
X89283067Y-131027225D01*
X89281468Y-131009496D01*
X89280160Y-130991477D01*
X89279143Y-130973168D01*
X89278416Y-130954568D01*
X89277980Y-130935680D01*
X89277834Y-130916501D01*
X89277975Y-130897492D01*
X89278397Y-130878766D01*
X89279101Y-130860323D01*
X89280086Y-130842164D01*
X89281352Y-130824287D01*
X89282900Y-130806693D01*
X89284729Y-130789382D01*
X89286839Y-130772354D01*
X89289231Y-130755608D01*
X89291904Y-130739146D01*
X89294859Y-130722967D01*
X89298095Y-130707071D01*
X89301612Y-130691457D01*
X89309491Y-130661079D01*
X89318496Y-130631833D01*
X89328626Y-130603719D01*
X89339881Y-130576736D01*
X89352263Y-130550885D01*
X89365769Y-130526166D01*
X89380402Y-130502579D01*
X89396160Y-130480123D01*
X89413043Y-130458799D01*
X89421907Y-130448562D01*
X89440423Y-130428953D01*
X89459854Y-130410609D01*
X89480200Y-130393530D01*
X89501460Y-130377716D01*
X89523635Y-130363168D01*
X89546724Y-130349884D01*
X89570729Y-130337866D01*
X89595648Y-130327112D01*
X89621482Y-130317624D01*
X89648230Y-130309401D01*
X89675893Y-130302443D01*
X89704471Y-130296750D01*
X89733964Y-130292322D01*
X89764371Y-130289159D01*
X89795694Y-130287261D01*
X89811698Y-130286787D01*
X89827930Y-130286629D01*
X89850598Y-130286856D01*
X89873502Y-130287536D01*
X89896644Y-130288670D01*
X89920022Y-130290257D01*
X89943638Y-130292297D01*
X89959514Y-130293910D01*
X89975495Y-130295724D01*
X89991582Y-130297739D01*
X90007774Y-130299956D01*
X90024072Y-130302375D01*
X90040474Y-130304995D01*
X90056983Y-130307817D01*
X90073597Y-130310840D01*
X90081943Y-130312427D01*
X90099282Y-130317587D01*
X90115183Y-130325525D01*
X90129645Y-130336241D01*
X90141119Y-130347896D01*
X90142668Y-130349735D01*
X90152411Y-130363059D01*
X90159761Y-130377333D01*
X90164718Y-130392557D01*
X90167282Y-130408730D01*
X90167672Y-130418398D01*
X90165837Y-130434547D01*
X90159383Y-130450520D01*
X90148283Y-130464170D01*
X90138302Y-130471979D01*
X90123567Y-130479817D01*
X90106398Y-130484603D01*
X90088600Y-130485120D01*
X90076386Y-130483092D01*
X90054746Y-130477843D01*
X90032987Y-130473111D01*
X90011109Y-130468894D01*
X89989113Y-130465194D01*
X89966998Y-130462011D01*
X89944765Y-130459343D01*
X89922413Y-130457192D01*
X89899942Y-130455557D01*
X89877353Y-130454439D01*
X89854645Y-130453836D01*
X89839440Y-130453722D01*
X89817708Y-130454174D01*
X89796666Y-130455529D01*
X89776313Y-130457789D01*
X89756651Y-130460953D01*
X89737678Y-130465020D01*
X89719395Y-130469991D01*
X89701802Y-130475866D01*
X89684900Y-130482645D01*
X89668687Y-130490328D01*
X89653163Y-130498915D01*
X89638330Y-130508405D01*
X89624187Y-130518800D01*
X89610734Y-130530098D01*
X89597970Y-130542300D01*
X89585897Y-130555406D01*
X89574513Y-130569416D01*
X89563820Y-130584330D01*
X89553816Y-130600148D01*
X89544502Y-130616869D01*
X89535878Y-130634495D01*
X89527944Y-130653024D01*
X89520700Y-130672457D01*
X89514146Y-130692794D01*
X89508281Y-130714035D01*
X89503107Y-130736180D01*
X89498623Y-130759228D01*
X89494828Y-130783181D01*
X89491723Y-130808037D01*
X89489309Y-130833797D01*
X89487584Y-130860461D01*
X89486549Y-130888029D01*
X89486204Y-130916501D01*
X89486565Y-130946249D01*
X89487649Y-130974968D01*
X89489455Y-131002658D01*
X89491984Y-131029318D01*
X89495235Y-131054949D01*
X89499209Y-131079550D01*
X89503905Y-131103122D01*
X89509323Y-131125664D01*
X89515464Y-131147177D01*
X89522328Y-131167661D01*
X89529914Y-131187115D01*
X89538222Y-131205539D01*
X89547253Y-131222934D01*
X89557006Y-131239300D01*
X89567482Y-131254636D01*
X89578681Y-131268943D01*
X89590671Y-131282304D01*
X89603424Y-131294803D01*
X89616941Y-131306440D01*
X89631220Y-131317215D01*
X89646261Y-131327129D01*
X89662066Y-131336180D01*
X89678633Y-131344369D01*
X89695963Y-131351696D01*
X89714056Y-131358161D01*
X89732911Y-131363764D01*
X89752530Y-131368505D01*
X89772911Y-131372384D01*
X89794055Y-131375401D01*
X89815962Y-131377556D01*
X89838631Y-131378849D01*
X89862063Y-131379280D01*
X89885526Y-131378987D01*
X89908584Y-131378108D01*
X89931237Y-131376643D01*
X89953486Y-131374592D01*
X89975329Y-131371954D01*
X89996769Y-131368731D01*
X90017803Y-131364922D01*
X90038433Y-131360527D01*
X90058659Y-131355545D01*
X90078479Y-131349978D01*
X90091468Y-131345941D01*
X90108662Y-131341947D01*
X90125417Y-131342913D01*
X90141732Y-131348840D01*
X90150606Y-131354275D01*
X90162934Y-131365091D01*
X90172593Y-131379393D01*
X90177795Y-131395956D01*
X90178785Y-131408253D01*
X90177684Y-131424736D01*
X90174379Y-131440496D01*
X90168871Y-131455535D01*
X90161161Y-131469852D01*
X90155765Y-131477710D01*
X90144934Y-131490112D01*
X90132584Y-131500576D01*
X90118715Y-131509104D01*
X90103326Y-131515694D01*
X90093850Y-131518590D01*
X90073236Y-131523626D01*
X90052176Y-131528167D01*
X90030669Y-131532212D01*
X90008716Y-131535762D01*
X89986316Y-131538816D01*
X89963470Y-131541376D01*
X89940177Y-131543440D01*
X89916438Y-131545008D01*
X89900364Y-131545779D01*
X89884091Y-131546329D01*
X89867620Y-131546659D01*
X89850950Y-131546769D01*
G37*
G36*
X90662600Y-131494776D02*
G01*
X90649452Y-131506066D01*
X90635013Y-131514582D01*
X90619282Y-131520326D01*
X90602259Y-131523297D01*
X90591953Y-131523750D01*
X90574271Y-131522382D01*
X90557691Y-131518280D01*
X90542212Y-131511443D01*
X90527835Y-131501871D01*
X90520115Y-131495173D01*
X90508516Y-131481871D01*
X90499766Y-131467314D01*
X90493865Y-131451505D01*
X90490813Y-131434442D01*
X90490348Y-131424129D01*
X90490348Y-129883384D01*
X90491772Y-129865624D01*
X90496045Y-129849155D01*
X90503167Y-129833978D01*
X90513138Y-129820092D01*
X90520115Y-129812737D01*
X90533862Y-129801447D01*
X90548711Y-129792931D01*
X90564662Y-129787187D01*
X90581714Y-129784216D01*
X90591953Y-129783763D01*
X90609713Y-129785150D01*
X90626182Y-129789309D01*
X90641359Y-129796241D01*
X90655245Y-129805946D01*
X90662600Y-129812737D01*
X90673889Y-129826020D01*
X90682406Y-129840519D01*
X90688150Y-129856234D01*
X90691120Y-129873164D01*
X90691573Y-129883384D01*
X90691573Y-130500555D01*
X90680857Y-130498174D01*
X90676491Y-130492220D01*
X90687038Y-130479572D01*
X90697694Y-130467325D01*
X90708458Y-130455479D01*
X90730312Y-130432992D01*
X90752600Y-130412112D01*
X90775323Y-130392838D01*
X90798479Y-130375170D01*
X90822069Y-130359108D01*
X90846094Y-130344652D01*
X90870552Y-130331803D01*
X90895445Y-130320560D01*
X90920772Y-130310922D01*
X90946533Y-130302892D01*
X90972728Y-130296467D01*
X90999357Y-130291648D01*
X91026420Y-130288436D01*
X91053918Y-130286830D01*
X91067829Y-130286629D01*
X91094113Y-130287097D01*
X91119481Y-130288502D01*
X91143935Y-130290843D01*
X91167475Y-130294120D01*
X91190099Y-130298334D01*
X91211809Y-130303485D01*
X91232604Y-130309571D01*
X91252484Y-130316594D01*
X91271450Y-130324554D01*
X91289501Y-130333450D01*
X91306637Y-130343283D01*
X91322859Y-130354051D01*
X91338166Y-130365757D01*
X91352558Y-130378398D01*
X91366035Y-130391977D01*
X91378598Y-130406491D01*
X91390373Y-130422037D01*
X91401388Y-130438807D01*
X91411644Y-130456802D01*
X91421140Y-130476022D01*
X91429876Y-130496467D01*
X91437853Y-130518136D01*
X91445070Y-130541031D01*
X91451527Y-130565150D01*
X91457225Y-130590494D01*
X91462163Y-130617062D01*
X91466341Y-130644856D01*
X91469759Y-130673874D01*
X91472418Y-130704117D01*
X91474318Y-130735585D01*
X91474982Y-130751778D01*
X91475457Y-130768278D01*
X91475742Y-130785083D01*
X91475837Y-130802195D01*
X91475837Y-131424129D01*
X91474507Y-131441754D01*
X91470519Y-131458163D01*
X91463872Y-131473356D01*
X91454566Y-131487334D01*
X91448054Y-131494776D01*
X91435370Y-131506066D01*
X91421281Y-131514582D01*
X91405786Y-131520326D01*
X91388886Y-131523297D01*
X91378598Y-131523750D01*
X91360973Y-131522363D01*
X91344564Y-131518204D01*
X91329370Y-131511272D01*
X91315392Y-131501567D01*
X91307950Y-131494776D01*
X91296661Y-131481493D01*
X91288145Y-131466994D01*
X91282401Y-131451279D01*
X91279430Y-131434349D01*
X91278977Y-131424129D01*
X91278977Y-130831962D01*
X91278752Y-130804276D01*
X91278078Y-130777774D01*
X91276954Y-130752456D01*
X91275380Y-130728323D01*
X91273357Y-130705374D01*
X91270884Y-130683610D01*
X91267962Y-130663031D01*
X91264590Y-130643636D01*
X91260768Y-130625425D01*
X91256497Y-130608399D01*
X91251776Y-130592557D01*
X91243852Y-130571016D01*
X91234916Y-130552139D01*
X91224968Y-130535928D01*
X91221427Y-130531116D01*
X91209961Y-130517710D01*
X91196995Y-130505623D01*
X91182529Y-130494855D01*
X91166563Y-130485405D01*
X91149097Y-130477274D01*
X91130131Y-130470461D01*
X91109665Y-130464967D01*
X91087699Y-130460791D01*
X91064233Y-130457934D01*
X91047755Y-130456762D01*
X91030611Y-130456176D01*
X91021789Y-130456103D01*
X91000551Y-130457066D01*
X90979404Y-130459954D01*
X90958347Y-130464768D01*
X90937381Y-130471507D01*
X90916506Y-130480172D01*
X90895721Y-130490763D01*
X90881915Y-130498893D01*
X90868149Y-130507879D01*
X90854424Y-130517721D01*
X90840739Y-130528418D01*
X90827094Y-130539972D01*
X90813490Y-130552381D01*
X90799925Y-130565646D01*
X90786805Y-130579308D01*
X90774530Y-130593007D01*
X90763103Y-130606743D01*
X90752521Y-130620517D01*
X90742786Y-130634327D01*
X90733898Y-130648175D01*
X90725856Y-130662060D01*
X90715381Y-130682958D01*
X90706810Y-130703939D01*
X90700144Y-130725004D01*
X90695382Y-130746152D01*
X90692525Y-130767385D01*
X90691573Y-130788701D01*
X90691573Y-131424129D01*
X90690187Y-131441754D01*
X90686027Y-131458163D01*
X90679095Y-131473356D01*
X90669390Y-131487334D01*
X90662600Y-131494776D01*
G37*
G36*
X92444657Y-130010390D02*
G01*
X92426846Y-130008728D01*
X92410325Y-130003742D01*
X92395094Y-129995432D01*
X92381154Y-129983798D01*
X92370792Y-129971652D01*
X92362067Y-129956514D01*
X92356665Y-129940036D01*
X92354588Y-129922220D01*
X92354562Y-129919898D01*
X92356224Y-129901914D01*
X92361210Y-129885269D01*
X92369520Y-129869964D01*
X92381154Y-129855998D01*
X92393281Y-129845637D01*
X92408351Y-129836911D01*
X92424710Y-129831510D01*
X92442360Y-129829432D01*
X92444657Y-129829406D01*
X93464279Y-129829406D01*
X93482263Y-129831068D01*
X93498908Y-129836054D01*
X93514213Y-129844364D01*
X93528179Y-129855998D01*
X93538541Y-129868145D01*
X93547266Y-129883283D01*
X93552667Y-129899760D01*
X93554745Y-129917577D01*
X93554771Y-129919898D01*
X93553109Y-129937883D01*
X93548123Y-129954527D01*
X93539813Y-129969833D01*
X93528179Y-129983798D01*
X93516032Y-129994160D01*
X93500894Y-130002885D01*
X93484417Y-130008287D01*
X93466600Y-130010364D01*
X93464279Y-130010390D01*
X93066591Y-130010390D01*
X93058653Y-130018328D01*
X93058653Y-131419763D01*
X93057228Y-131437502D01*
X93052955Y-131454253D01*
X93045833Y-131470016D01*
X93035862Y-131484792D01*
X93028886Y-131492792D01*
X93015160Y-131504854D01*
X93000029Y-131513954D01*
X92983492Y-131520091D01*
X92965550Y-131523266D01*
X92954666Y-131523750D01*
X92938513Y-131522661D01*
X92920972Y-131518640D01*
X92904837Y-131511657D01*
X92890108Y-131501710D01*
X92880447Y-131492792D01*
X92868848Y-131478580D01*
X92860098Y-131463381D01*
X92854197Y-131447195D01*
X92851145Y-131430020D01*
X92850680Y-131419763D01*
X92850680Y-130018328D01*
X92842742Y-130010390D01*
X92444657Y-130010390D01*
G37*
G36*
X94112306Y-130287161D02*
G01*
X94139933Y-130288756D01*
X94166712Y-130291415D01*
X94192643Y-130295137D01*
X94217725Y-130299923D01*
X94241960Y-130305773D01*
X94265346Y-130312686D01*
X94287885Y-130320663D01*
X94309575Y-130329703D01*
X94330418Y-130339807D01*
X94350412Y-130350974D01*
X94369558Y-130363205D01*
X94387857Y-130376499D01*
X94405307Y-130390857D01*
X94421909Y-130406279D01*
X94437663Y-130422764D01*
X94452569Y-130440312D01*
X94466627Y-130458925D01*
X94479837Y-130478600D01*
X94492199Y-130499340D01*
X94503713Y-130521143D01*
X94514378Y-130544009D01*
X94524196Y-130567939D01*
X94533166Y-130592932D01*
X94541287Y-130618989D01*
X94548561Y-130646110D01*
X94554987Y-130674294D01*
X94560564Y-130703542D01*
X94565293Y-130733853D01*
X94569175Y-130765228D01*
X94572208Y-130797666D01*
X94574393Y-130831168D01*
X94574118Y-130849794D01*
X94571556Y-130867470D01*
X94566707Y-130884197D01*
X94559572Y-130899974D01*
X94550149Y-130914801D01*
X94538440Y-130928679D01*
X94533116Y-130933964D01*
X94518961Y-130945855D01*
X94504031Y-130955731D01*
X94488326Y-130963592D01*
X94471846Y-130969437D01*
X94454590Y-130973266D01*
X94436559Y-130975080D01*
X94429130Y-130975241D01*
X93752424Y-130975241D01*
X93746868Y-130982385D01*
X93748461Y-131007390D01*
X93750759Y-131031600D01*
X93753763Y-131055017D01*
X93757472Y-131077640D01*
X93761887Y-131099469D01*
X93767007Y-131120505D01*
X93772833Y-131140746D01*
X93779364Y-131160194D01*
X93786600Y-131178848D01*
X93794542Y-131196708D01*
X93803189Y-131213775D01*
X93812542Y-131230047D01*
X93822600Y-131245526D01*
X93833363Y-131260211D01*
X93844832Y-131274103D01*
X93857006Y-131287200D01*
X93869886Y-131299504D01*
X93883471Y-131311014D01*
X93897762Y-131321730D01*
X93912758Y-131331653D01*
X93928459Y-131340781D01*
X93944866Y-131349116D01*
X93961978Y-131356657D01*
X93979795Y-131363404D01*
X93998319Y-131369357D01*
X94017547Y-131374517D01*
X94037481Y-131378883D01*
X94058120Y-131382455D01*
X94079465Y-131385233D01*
X94101515Y-131387218D01*
X94124271Y-131388408D01*
X94147732Y-131388805D01*
X94163829Y-131388621D01*
X94179973Y-131388067D01*
X94196164Y-131387145D01*
X94212401Y-131385853D01*
X94228684Y-131384193D01*
X94245014Y-131382164D01*
X94261391Y-131379765D01*
X94277814Y-131376998D01*
X94294283Y-131373861D01*
X94310799Y-131370356D01*
X94327362Y-131366482D01*
X94343971Y-131362238D01*
X94360627Y-131357626D01*
X94377329Y-131352645D01*
X94394078Y-131347294D01*
X94410873Y-131341575D01*
X94426352Y-131337854D01*
X94443291Y-131338056D01*
X94459728Y-131342905D01*
X94470407Y-131348719D01*
X94482909Y-131358865D01*
X94492704Y-131372710D01*
X94497979Y-131389129D01*
X94498983Y-131401506D01*
X94497724Y-131422293D01*
X94493948Y-131440997D01*
X94487653Y-131457617D01*
X94478841Y-131472153D01*
X94467511Y-131484606D01*
X94453663Y-131494975D01*
X94437297Y-131503260D01*
X94418414Y-131509461D01*
X94399992Y-131513979D01*
X94381639Y-131518205D01*
X94363354Y-131522140D01*
X94345137Y-131525784D01*
X94326988Y-131529135D01*
X94308908Y-131532196D01*
X94290896Y-131534965D01*
X94272952Y-131537442D01*
X94255076Y-131539628D01*
X94237268Y-131541523D01*
X94219529Y-131543126D01*
X94201858Y-131544438D01*
X94184255Y-131545458D01*
X94166720Y-131546186D01*
X94149254Y-131546624D01*
X94131856Y-131546769D01*
X94114079Y-131546615D01*
X94096569Y-131546152D01*
X94079326Y-131545381D01*
X94062350Y-131544301D01*
X94045640Y-131542913D01*
X94029196Y-131541216D01*
X94013020Y-131539211D01*
X93997110Y-131536897D01*
X93966090Y-131531343D01*
X93936137Y-131524556D01*
X93907251Y-131516534D01*
X93879431Y-131507278D01*
X93852678Y-131496789D01*
X93826991Y-131485065D01*
X93802371Y-131472107D01*
X93778818Y-131457915D01*
X93756331Y-131442488D01*
X93734912Y-131425828D01*
X93714558Y-131407934D01*
X93695272Y-131388805D01*
X93677104Y-131368402D01*
X93660109Y-131346784D01*
X93644286Y-131323950D01*
X93629635Y-131299901D01*
X93616156Y-131274636D01*
X93603849Y-131248156D01*
X93592715Y-131220460D01*
X93582752Y-131191549D01*
X93573961Y-131161422D01*
X93570006Y-131145903D01*
X93566343Y-131130080D01*
X93562973Y-131113953D01*
X93559896Y-131097522D01*
X93557113Y-131080787D01*
X93554622Y-131063749D01*
X93552424Y-131046406D01*
X93550520Y-131028760D01*
X93548908Y-131010810D01*
X93547590Y-130992556D01*
X93546564Y-130973998D01*
X93545832Y-130955136D01*
X93545392Y-130935970D01*
X93545245Y-130916501D01*
X93545386Y-130896499D01*
X93545808Y-130876827D01*
X93546512Y-130857485D01*
X93547497Y-130838474D01*
X93548763Y-130819793D01*
X93549611Y-130809736D01*
X93749249Y-130809736D01*
X93757187Y-130814896D01*
X94371977Y-130814896D01*
X94377534Y-130809736D01*
X94376430Y-130787271D01*
X94374805Y-130765520D01*
X94372659Y-130744481D01*
X94369993Y-130724156D01*
X94366805Y-130704543D01*
X94363096Y-130685644D01*
X94358867Y-130667459D01*
X94354117Y-130649986D01*
X94348845Y-130633226D01*
X94343053Y-130617180D01*
X94336740Y-130601847D01*
X94329906Y-130587227D01*
X94314675Y-130560127D01*
X94297361Y-130535879D01*
X94277963Y-130514484D01*
X94256481Y-130495941D01*
X94232915Y-130480252D01*
X94207266Y-130467414D01*
X94179533Y-130457430D01*
X94149716Y-130450298D01*
X94134026Y-130447802D01*
X94117816Y-130446019D01*
X94101084Y-130444950D01*
X94083831Y-130444593D01*
X94065001Y-130444950D01*
X94046711Y-130446019D01*
X94028961Y-130447802D01*
X94011752Y-130450298D01*
X93995083Y-130453508D01*
X93978954Y-130457430D01*
X93963365Y-130462066D01*
X93948317Y-130467414D01*
X93919841Y-130480252D01*
X93893527Y-130495941D01*
X93869374Y-130514484D01*
X93847382Y-130535879D01*
X93827551Y-130560127D01*
X93818446Y-130573320D01*
X93809881Y-130587227D01*
X93801857Y-130601847D01*
X93794373Y-130617180D01*
X93787429Y-130633226D01*
X93781026Y-130649986D01*
X93775163Y-130667459D01*
X93769840Y-130685644D01*
X93765057Y-130704543D01*
X93760815Y-130724156D01*
X93757113Y-130744481D01*
X93753952Y-130765520D01*
X93751330Y-130787271D01*
X93749249Y-130809736D01*
X93549611Y-130809736D01*
X93550311Y-130801442D01*
X93552140Y-130783421D01*
X93554250Y-130765730D01*
X93556642Y-130748370D01*
X93559315Y-130731340D01*
X93562270Y-130714640D01*
X93565506Y-130698271D01*
X93569023Y-130682231D01*
X93572822Y-130666522D01*
X93576902Y-130651143D01*
X93585907Y-130621376D01*
X93596037Y-130592930D01*
X93607292Y-130565805D01*
X93619674Y-130540000D01*
X93633181Y-130515517D01*
X93647813Y-130492354D01*
X93663571Y-130470513D01*
X93680454Y-130449992D01*
X93689318Y-130440227D01*
X93707789Y-130421627D01*
X93727085Y-130404228D01*
X93747206Y-130388028D01*
X93768151Y-130373028D01*
X93789922Y-130359228D01*
X93812517Y-130346628D01*
X93835937Y-130335228D01*
X93860181Y-130325029D01*
X93885251Y-130316029D01*
X93911145Y-130308229D01*
X93937864Y-130301629D01*
X93965408Y-130296229D01*
X93993777Y-130292029D01*
X94022970Y-130289029D01*
X94052988Y-130287229D01*
X94083831Y-130286629D01*
X94112306Y-130287161D01*
G37*
G36*
X95204662Y-130990720D02*
G01*
X95177075Y-130983895D01*
X95150473Y-130976816D01*
X95124858Y-130969483D01*
X95100229Y-130961896D01*
X95076586Y-130954054D01*
X95053929Y-130945958D01*
X95032258Y-130937607D01*
X95011573Y-130929003D01*
X94991874Y-130920144D01*
X94973161Y-130911031D01*
X94955434Y-130901664D01*
X94938693Y-130892042D01*
X94922938Y-130882166D01*
X94908169Y-130872036D01*
X94894386Y-130861652D01*
X94881590Y-130851013D01*
X94869719Y-130839996D01*
X94858613Y-130828576D01*
X94843391Y-130810690D01*
X94829893Y-130791898D01*
X94818117Y-130772198D01*
X94808065Y-130751591D01*
X94799736Y-130730077D01*
X94793130Y-130707657D01*
X94788248Y-130684329D01*
X94785950Y-130668273D01*
X94784418Y-130651815D01*
X94783652Y-130634953D01*
X94783557Y-130626371D01*
X94784014Y-130606982D01*
X94785386Y-130588108D01*
X94787673Y-130569748D01*
X94790874Y-130551903D01*
X94794991Y-130534573D01*
X94800022Y-130517758D01*
X94805967Y-130501457D01*
X94812828Y-130485672D01*
X94820603Y-130470400D01*
X94829293Y-130455644D01*
X94838897Y-130441402D01*
X94849416Y-130427675D01*
X94860850Y-130414463D01*
X94873199Y-130401766D01*
X94886463Y-130389583D01*
X94900641Y-130377915D01*
X94915706Y-130366861D01*
X94931530Y-130356520D01*
X94948115Y-130346892D01*
X94965458Y-130337977D01*
X94983562Y-130329776D01*
X95002426Y-130322287D01*
X95022049Y-130315512D01*
X95042431Y-130309450D01*
X95063574Y-130304102D01*
X95085476Y-130299466D01*
X95108137Y-130295544D01*
X95131559Y-130292334D01*
X95155740Y-130289838D01*
X95180681Y-130288055D01*
X95206381Y-130286986D01*
X95232841Y-130286629D01*
X95252728Y-130286792D01*
X95272599Y-130287280D01*
X95292455Y-130288094D01*
X95312295Y-130289234D01*
X95332119Y-130290699D01*
X95351928Y-130292489D01*
X95371722Y-130294606D01*
X95391500Y-130297047D01*
X95411263Y-130299815D01*
X95431010Y-130302908D01*
X95450741Y-130306326D01*
X95470457Y-130310071D01*
X95490158Y-130314140D01*
X95509843Y-130318536D01*
X95529512Y-130323256D01*
X95549166Y-130328303D01*
X95567957Y-130334473D01*
X95584242Y-130342666D01*
X95598022Y-130352879D01*
X95609296Y-130365115D01*
X95618065Y-130379372D01*
X95624328Y-130395651D01*
X95628086Y-130413952D01*
X95629339Y-130434274D01*
X95627727Y-130450274D01*
X95622058Y-130465723D01*
X95612308Y-130478473D01*
X95603541Y-130485473D01*
X95588656Y-130493095D01*
X95572579Y-130496761D01*
X95555308Y-130496472D01*
X95545198Y-130494602D01*
X95526449Y-130489123D01*
X95507710Y-130483997D01*
X95488980Y-130479225D01*
X95470259Y-130474807D01*
X95451547Y-130470742D01*
X95432845Y-130467030D01*
X95414153Y-130463672D01*
X95395469Y-130460667D01*
X95376795Y-130458016D01*
X95358130Y-130455718D01*
X95339474Y-130453774D01*
X95320828Y-130452184D01*
X95302191Y-130450946D01*
X95283563Y-130450063D01*
X95264945Y-130449532D01*
X95246336Y-130449356D01*
X95230244Y-130449515D01*
X95199593Y-130450789D01*
X95170986Y-130453338D01*
X95144422Y-130457161D01*
X95119901Y-130462259D01*
X95097424Y-130468631D01*
X95076990Y-130476278D01*
X95058600Y-130485198D01*
X95042253Y-130495394D01*
X95027949Y-130506863D01*
X95015689Y-130519607D01*
X95005472Y-130533626D01*
X94997298Y-130548919D01*
X94991168Y-130565486D01*
X94987081Y-130583327D01*
X94985038Y-130602444D01*
X94984782Y-130612479D01*
X94985588Y-130630166D01*
X94988007Y-130647108D01*
X94992038Y-130663307D01*
X94997681Y-130678761D01*
X95004937Y-130693471D01*
X95013805Y-130707436D01*
X95024286Y-130720658D01*
X95036379Y-130733135D01*
X95050667Y-130744974D01*
X95067733Y-130756279D01*
X95082356Y-130764408D01*
X95098542Y-130772237D01*
X95116291Y-130779766D01*
X95135602Y-130786995D01*
X95156476Y-130793924D01*
X95178913Y-130800553D01*
X95194740Y-130804806D01*
X95211260Y-130808925D01*
X95228476Y-130812911D01*
X95243977Y-130816415D01*
X95274073Y-130823612D01*
X95302959Y-130831060D01*
X95330636Y-130838759D01*
X95357104Y-130846710D01*
X95382363Y-130854911D01*
X95406412Y-130863364D01*
X95429252Y-130872068D01*
X95450883Y-130881022D01*
X95471305Y-130890229D01*
X95490517Y-130899686D01*
X95508520Y-130909394D01*
X95525313Y-130919354D01*
X95540898Y-130929565D01*
X95555273Y-130940026D01*
X95568438Y-130950739D01*
X95574568Y-130956190D01*
X95586199Y-130967402D01*
X95597079Y-130979210D01*
X95607209Y-130991613D01*
X95616589Y-131004611D01*
X95625218Y-131018205D01*
X95633097Y-131032394D01*
X95640226Y-131047178D01*
X95646604Y-131062558D01*
X95652232Y-131078533D01*
X95657109Y-131095103D01*
X95661236Y-131112269D01*
X95664613Y-131130030D01*
X95667240Y-131148386D01*
X95669115Y-131167338D01*
X95670241Y-131186885D01*
X95670616Y-131207028D01*
X95670140Y-131226700D01*
X95668712Y-131245830D01*
X95666333Y-131264418D01*
X95663001Y-131282462D01*
X95658717Y-131299964D01*
X95653482Y-131316924D01*
X95647294Y-131333341D01*
X95640155Y-131349215D01*
X95632063Y-131364547D01*
X95623020Y-131379336D01*
X95613025Y-131393582D01*
X95602077Y-131407286D01*
X95590178Y-131420447D01*
X95577327Y-131433065D01*
X95563524Y-131445141D01*
X95548770Y-131456674D01*
X95533157Y-131467584D01*
X95516782Y-131477790D01*
X95499645Y-131487293D01*
X95481744Y-131496091D01*
X95463081Y-131504185D01*
X95443655Y-131511576D01*
X95423466Y-131518263D01*
X95402514Y-131524246D01*
X95380799Y-131529525D01*
X95358322Y-131534100D01*
X95335082Y-131537971D01*
X95311079Y-131541138D01*
X95286314Y-131543602D01*
X95260785Y-131545362D01*
X95234494Y-131546417D01*
X95207440Y-131546769D01*
X95186417Y-131546569D01*
X95165518Y-131545969D01*
X95144743Y-131544969D01*
X95124092Y-131543569D01*
X95103565Y-131541769D01*
X95083163Y-131539569D01*
X95062884Y-131536970D01*
X95042729Y-131533970D01*
X95022698Y-131530570D01*
X95002791Y-131526770D01*
X94983009Y-131522570D01*
X94963350Y-131517970D01*
X94943815Y-131512970D01*
X94924405Y-131507570D01*
X94905118Y-131501770D01*
X94885956Y-131495570D01*
X94867258Y-131488203D01*
X94851054Y-131479000D01*
X94837342Y-131467961D01*
X94826124Y-131455087D01*
X94817398Y-131440377D01*
X94811166Y-131423831D01*
X94807426Y-131405450D01*
X94806180Y-131385233D01*
X94808409Y-131368440D01*
X94815096Y-131353782D01*
X94826241Y-131341259D01*
X94834359Y-131335225D01*
X94848821Y-131327758D01*
X94865506Y-131323806D01*
X94882630Y-131324563D01*
X94894290Y-131327684D01*
X94912623Y-131334508D01*
X94931009Y-131340893D01*
X94949448Y-131346837D01*
X94967939Y-131352341D01*
X94986483Y-131357404D01*
X95005080Y-131362027D01*
X95023729Y-131366210D01*
X95042431Y-131369953D01*
X95061186Y-131373255D01*
X95079994Y-131376117D01*
X95098854Y-131378539D01*
X95117767Y-131380520D01*
X95136732Y-131382061D01*
X95155751Y-131383162D01*
X95174822Y-131383822D01*
X95193946Y-131384043D01*
X95210892Y-131383870D01*
X95227300Y-131383351D01*
X95243171Y-131382487D01*
X95273298Y-131379721D01*
X95301272Y-131375572D01*
X95327095Y-131370040D01*
X95350766Y-131363126D01*
X95372286Y-131354828D01*
X95391653Y-131345148D01*
X95408868Y-131334084D01*
X95423931Y-131321638D01*
X95436843Y-131307809D01*
X95447603Y-131292596D01*
X95456210Y-131276001D01*
X95462666Y-131258023D01*
X95466970Y-131238662D01*
X95469122Y-131217918D01*
X95469391Y-131207028D01*
X95468529Y-131188262D01*
X95465943Y-131170265D01*
X95461633Y-131153038D01*
X95455599Y-131136579D01*
X95447840Y-131120889D01*
X95438358Y-131105968D01*
X95427152Y-131091817D01*
X95414222Y-131078434D01*
X95398880Y-131065690D01*
X95385338Y-131056465D01*
X95370052Y-131047527D01*
X95353022Y-131038875D01*
X95334248Y-131030509D01*
X95313730Y-131022429D01*
X95291467Y-131014634D01*
X95275656Y-131009597D01*
X95259071Y-131004687D01*
X95241710Y-130999904D01*
X95223573Y-130995249D01*
X95204662Y-130990720D01*
G37*
G36*
X95926216Y-130518019D02*
G01*
X95909472Y-130516580D01*
X95894167Y-130512264D01*
X95878668Y-130503968D01*
X95867873Y-130494999D01*
X95857802Y-130482571D01*
X95849911Y-130466870D01*
X95845954Y-130451385D01*
X95844853Y-130436655D01*
X95846292Y-130419936D01*
X95851350Y-130402906D01*
X95860050Y-130387760D01*
X95867873Y-130378709D01*
X95880301Y-130368464D01*
X95896002Y-130360437D01*
X95911487Y-130356412D01*
X95926216Y-130355292D01*
X96092912Y-130355292D01*
X96100850Y-130347354D01*
X96100850Y-130020313D01*
X96102236Y-130002707D01*
X96106396Y-129986355D01*
X96113328Y-129971256D01*
X96123033Y-129957411D01*
X96129823Y-129950062D01*
X96143107Y-129938773D01*
X96157606Y-129930256D01*
X96173320Y-129924513D01*
X96190251Y-129921542D01*
X96200471Y-129921089D01*
X96218095Y-129922475D01*
X96234504Y-129926635D01*
X96249698Y-129933567D01*
X96263676Y-129943272D01*
X96271118Y-129950062D01*
X96282407Y-129963191D01*
X96290924Y-129977574D01*
X96296667Y-129993209D01*
X96299638Y-130010099D01*
X96300091Y-130020313D01*
X96300091Y-130347354D01*
X96308029Y-130355292D01*
X96650946Y-130355292D01*
X96667665Y-130356755D01*
X96684695Y-130361901D01*
X96699841Y-130370750D01*
X96708893Y-130378709D01*
X96719137Y-130390963D01*
X96727164Y-130406528D01*
X96731189Y-130421944D01*
X96732309Y-130436655D01*
X96730846Y-130453399D01*
X96726455Y-130468704D01*
X96718017Y-130484203D01*
X96708893Y-130494999D01*
X96695002Y-130506126D01*
X96679228Y-130513612D01*
X96663625Y-130517209D01*
X96650946Y-130518019D01*
X96308029Y-130518019D01*
X96300091Y-130525560D01*
X96300091Y-131129236D01*
X96300248Y-131148791D01*
X96300717Y-131167468D01*
X96301500Y-131185268D01*
X96302596Y-131202190D01*
X96304006Y-131218235D01*
X96306707Y-131240657D01*
X96310113Y-131261104D01*
X96314223Y-131279578D01*
X96319038Y-131296076D01*
X96326554Y-131315003D01*
X96335323Y-131330420D01*
X96340177Y-131336812D01*
X96354594Y-131350419D01*
X96368848Y-131359643D01*
X96385521Y-131367392D01*
X96404612Y-131373665D01*
X96420518Y-131377401D01*
X96437784Y-131380307D01*
X96456410Y-131382382D01*
X96476397Y-131383627D01*
X96497745Y-131384043D01*
X96515227Y-131383869D01*
X96531952Y-131383348D01*
X96547921Y-131382480D01*
X96566818Y-131380906D01*
X96584533Y-131378790D01*
X96601066Y-131376131D01*
X96616416Y-131372930D01*
X96633101Y-131371688D01*
X96649220Y-131374213D01*
X96664775Y-131380506D01*
X96673172Y-131385630D01*
X96686218Y-131396967D01*
X96694995Y-131410439D01*
X96699502Y-131426046D01*
X96700161Y-131435639D01*
X96698772Y-131453425D01*
X96694604Y-131470268D01*
X96687659Y-131486169D01*
X96677935Y-131501127D01*
X96666053Y-131513976D01*
X96652633Y-131523948D01*
X96637675Y-131531042D01*
X96621179Y-131535259D01*
X96605502Y-131537957D01*
X96588832Y-131540295D01*
X96571170Y-131542273D01*
X96552516Y-131543892D01*
X96532870Y-131545151D01*
X96512231Y-131546050D01*
X96496101Y-131546488D01*
X96479413Y-131546724D01*
X96467978Y-131546769D01*
X96442624Y-131546428D01*
X96418260Y-131545405D01*
X96394885Y-131543700D01*
X96372500Y-131541312D01*
X96351103Y-131538242D01*
X96330695Y-131534490D01*
X96311277Y-131530056D01*
X96292848Y-131524940D01*
X96275408Y-131519142D01*
X96258957Y-131512661D01*
X96243495Y-131505499D01*
X96229022Y-131497654D01*
X96215539Y-131489127D01*
X96197168Y-131475057D01*
X96181023Y-131459453D01*
X96166695Y-131441785D01*
X96153777Y-131421676D01*
X96145947Y-131406914D01*
X96138744Y-131391066D01*
X96132167Y-131374133D01*
X96126217Y-131356114D01*
X96120893Y-131337011D01*
X96116196Y-131316822D01*
X96112124Y-131295547D01*
X96108679Y-131273188D01*
X96105861Y-131249743D01*
X96103669Y-131225213D01*
X96102103Y-131199598D01*
X96101163Y-131172898D01*
X96100850Y-131145112D01*
X96100850Y-130525560D01*
X96092912Y-130518019D01*
X95926216Y-130518019D01*
G37*
G36*
X97508137Y-130287161D02*
G01*
X97535764Y-130288756D01*
X97562542Y-130291415D01*
X97588473Y-130295137D01*
X97613556Y-130299923D01*
X97637790Y-130305773D01*
X97661177Y-130312686D01*
X97683715Y-130320663D01*
X97705406Y-130329703D01*
X97726248Y-130339807D01*
X97746243Y-130350974D01*
X97765389Y-130363205D01*
X97783687Y-130376499D01*
X97801137Y-130390857D01*
X97817739Y-130406279D01*
X97833493Y-130422764D01*
X97848400Y-130440312D01*
X97862457Y-130458925D01*
X97875667Y-130478600D01*
X97888029Y-130499340D01*
X97899543Y-130521143D01*
X97910209Y-130544009D01*
X97920027Y-130567939D01*
X97928996Y-130592932D01*
X97937118Y-130618989D01*
X97944391Y-130646110D01*
X97950817Y-130674294D01*
X97956394Y-130703542D01*
X97961124Y-130733853D01*
X97965005Y-130765228D01*
X97968038Y-130797666D01*
X97970224Y-130831168D01*
X97969948Y-130849794D01*
X97967387Y-130867470D01*
X97962538Y-130884197D01*
X97955402Y-130899974D01*
X97945980Y-130914801D01*
X97934271Y-130928679D01*
X97928947Y-130933964D01*
X97914792Y-130945855D01*
X97899862Y-130955731D01*
X97884156Y-130963592D01*
X97867676Y-130969437D01*
X97850420Y-130973266D01*
X97832390Y-130975080D01*
X97824960Y-130975241D01*
X97148255Y-130975241D01*
X97142698Y-130982385D01*
X97144291Y-131007390D01*
X97146590Y-131031600D01*
X97149594Y-131055017D01*
X97153303Y-131077640D01*
X97157718Y-131099469D01*
X97162838Y-131120505D01*
X97168663Y-131140746D01*
X97175194Y-131160194D01*
X97182430Y-131178848D01*
X97190372Y-131196708D01*
X97199019Y-131213775D01*
X97208372Y-131230047D01*
X97218430Y-131245526D01*
X97229194Y-131260211D01*
X97240662Y-131274103D01*
X97252837Y-131287200D01*
X97265716Y-131299504D01*
X97279301Y-131311014D01*
X97293592Y-131321730D01*
X97308588Y-131331653D01*
X97324289Y-131340781D01*
X97340696Y-131349116D01*
X97357808Y-131356657D01*
X97375626Y-131363404D01*
X97394149Y-131369357D01*
X97413377Y-131374517D01*
X97433311Y-131378883D01*
X97453951Y-131382455D01*
X97475295Y-131385233D01*
X97497345Y-131387218D01*
X97520101Y-131388408D01*
X97543562Y-131388805D01*
X97559659Y-131388621D01*
X97575803Y-131388067D01*
X97591994Y-131387145D01*
X97608231Y-131385853D01*
X97624515Y-131384193D01*
X97640845Y-131382164D01*
X97657221Y-131379765D01*
X97673644Y-131376998D01*
X97690114Y-131373861D01*
X97706630Y-131370356D01*
X97723192Y-131366482D01*
X97739802Y-131362238D01*
X97756457Y-131357626D01*
X97773159Y-131352645D01*
X97789908Y-131347294D01*
X97806703Y-131341575D01*
X97822182Y-131337854D01*
X97839121Y-131338056D01*
X97855558Y-131342905D01*
X97866237Y-131348719D01*
X97878739Y-131358865D01*
X97888535Y-131372710D01*
X97893809Y-131389129D01*
X97894814Y-131401506D01*
X97893555Y-131422293D01*
X97889778Y-131440997D01*
X97883484Y-131457617D01*
X97874671Y-131472153D01*
X97863341Y-131484606D01*
X97849493Y-131494975D01*
X97833128Y-131503260D01*
X97814244Y-131509461D01*
X97795823Y-131513979D01*
X97777469Y-131518205D01*
X97759184Y-131522140D01*
X97740967Y-131525784D01*
X97722819Y-131529135D01*
X97704738Y-131532196D01*
X97686726Y-131534965D01*
X97668782Y-131537442D01*
X97650906Y-131539628D01*
X97633099Y-131541523D01*
X97615360Y-131543126D01*
X97597688Y-131544438D01*
X97580086Y-131545458D01*
X97562551Y-131546186D01*
X97545084Y-131546624D01*
X97527686Y-131546769D01*
X97509910Y-131546615D01*
X97492400Y-131546152D01*
X97475157Y-131545381D01*
X97458180Y-131544301D01*
X97441470Y-131542913D01*
X97425027Y-131541216D01*
X97408850Y-131539211D01*
X97392940Y-131536897D01*
X97361921Y-131531343D01*
X97331968Y-131524556D01*
X97303081Y-131516534D01*
X97275261Y-131507278D01*
X97248508Y-131496789D01*
X97222821Y-131485065D01*
X97198202Y-131472107D01*
X97174648Y-131457915D01*
X97152162Y-131442488D01*
X97130742Y-131425828D01*
X97110389Y-131407934D01*
X97091102Y-131388805D01*
X97072935Y-131368402D01*
X97055940Y-131346784D01*
X97040117Y-131323950D01*
X97025466Y-131299901D01*
X97011987Y-131274636D01*
X96999680Y-131248156D01*
X96988545Y-131220460D01*
X96978582Y-131191549D01*
X96969792Y-131161422D01*
X96965836Y-131145903D01*
X96962173Y-131130080D01*
X96958804Y-131113953D01*
X96955727Y-131097522D01*
X96952943Y-131080787D01*
X96950453Y-131063749D01*
X96948255Y-131046406D01*
X96946350Y-131028760D01*
X96944739Y-131010810D01*
X96943420Y-130992556D01*
X96942395Y-130973998D01*
X96941662Y-130955136D01*
X96941222Y-130935970D01*
X96941076Y-130916501D01*
X96941217Y-130896499D01*
X96941639Y-130876827D01*
X96942342Y-130857485D01*
X96943327Y-130838474D01*
X96944593Y-130819793D01*
X96945441Y-130809736D01*
X97145080Y-130809736D01*
X97153018Y-130814896D01*
X97767807Y-130814896D01*
X97773364Y-130809736D01*
X97772260Y-130787271D01*
X97770635Y-130765520D01*
X97768490Y-130744481D01*
X97765823Y-130724156D01*
X97762635Y-130704543D01*
X97758927Y-130685644D01*
X97754697Y-130667459D01*
X97749947Y-130649986D01*
X97744676Y-130633226D01*
X97738884Y-130617180D01*
X97732571Y-130601847D01*
X97725737Y-130587227D01*
X97710506Y-130560127D01*
X97693191Y-130535879D01*
X97673793Y-130514484D01*
X97652311Y-130495941D01*
X97628745Y-130480252D01*
X97603096Y-130467414D01*
X97575363Y-130457430D01*
X97545546Y-130450298D01*
X97529857Y-130447802D01*
X97513646Y-130446019D01*
X97496914Y-130444950D01*
X97479662Y-130444593D01*
X97460832Y-130444950D01*
X97442541Y-130446019D01*
X97424792Y-130447802D01*
X97407582Y-130450298D01*
X97390913Y-130453508D01*
X97374784Y-130457430D01*
X97359195Y-130462066D01*
X97344147Y-130467414D01*
X97315672Y-130480252D01*
X97289357Y-130495941D01*
X97265204Y-130514484D01*
X97243212Y-130535879D01*
X97223381Y-130560127D01*
X97214276Y-130573320D01*
X97205712Y-130587227D01*
X97197687Y-130601847D01*
X97190203Y-130617180D01*
X97183260Y-130633226D01*
X97176856Y-130649986D01*
X97170993Y-130667459D01*
X97165670Y-130685644D01*
X97160888Y-130704543D01*
X97156646Y-130724156D01*
X97152944Y-130744481D01*
X97149782Y-130765520D01*
X97147161Y-130787271D01*
X97145080Y-130809736D01*
X96945441Y-130809736D01*
X96946141Y-130801442D01*
X96947970Y-130783421D01*
X96950080Y-130765730D01*
X96952472Y-130748370D01*
X96955146Y-130731340D01*
X96958100Y-130714640D01*
X96961336Y-130698271D01*
X96964854Y-130682231D01*
X96968652Y-130666522D01*
X96972733Y-130651143D01*
X96981737Y-130621376D01*
X96991867Y-130592930D01*
X97003123Y-130565805D01*
X97015504Y-130540000D01*
X97029011Y-130515517D01*
X97043643Y-130492354D01*
X97059401Y-130470513D01*
X97076285Y-130449992D01*
X97085149Y-130440227D01*
X97103620Y-130421627D01*
X97122916Y-130404228D01*
X97143036Y-130388028D01*
X97163982Y-130373028D01*
X97185752Y-130359228D01*
X97208347Y-130346628D01*
X97231767Y-130335228D01*
X97256012Y-130325029D01*
X97281081Y-130316029D01*
X97306976Y-130308229D01*
X97333695Y-130301629D01*
X97361238Y-130296229D01*
X97389607Y-130292029D01*
X97418801Y-130289029D01*
X97448819Y-130287229D01*
X97479662Y-130286629D01*
X97508137Y-130287161D01*
G37*
G36*
X98391726Y-131492792D02*
G01*
X98378000Y-131504854D01*
X98362869Y-131513954D01*
X98346332Y-131520091D01*
X98328390Y-131523266D01*
X98317506Y-131523750D01*
X98301353Y-131522661D01*
X98283813Y-131518640D01*
X98267678Y-131511657D01*
X98252948Y-131501710D01*
X98243287Y-131492792D01*
X98231688Y-131478580D01*
X98222939Y-131463381D01*
X98217037Y-131447195D01*
X98213985Y-131430020D01*
X98213520Y-131419763D01*
X98213520Y-130409269D01*
X98214907Y-130391645D01*
X98219066Y-130375236D01*
X98225998Y-130360042D01*
X98235703Y-130346064D01*
X98242493Y-130338622D01*
X98255777Y-130327333D01*
X98270276Y-130318816D01*
X98285991Y-130313072D01*
X98302921Y-130310102D01*
X98313141Y-130309649D01*
X98330765Y-130311035D01*
X98347174Y-130315195D01*
X98362368Y-130322127D01*
X98376346Y-130331832D01*
X98383788Y-130338622D01*
X98395077Y-130351906D01*
X98403594Y-130366405D01*
X98409338Y-130382119D01*
X98412308Y-130399049D01*
X98412761Y-130409269D01*
X98412761Y-130585094D01*
X98402442Y-130574774D01*
X98394107Y-130579140D01*
X98403352Y-130564300D01*
X98413028Y-130549845D01*
X98423135Y-130535773D01*
X98433673Y-130522087D01*
X98444641Y-130508785D01*
X98456041Y-130495867D01*
X98467872Y-130483334D01*
X98480134Y-130471185D01*
X98492827Y-130459421D01*
X98505951Y-130448041D01*
X98519506Y-130437046D01*
X98533492Y-130426435D01*
X98547908Y-130416209D01*
X98562756Y-130406367D01*
X98578035Y-130396910D01*
X98593745Y-130387837D01*
X98609790Y-130379160D01*
X98626073Y-130370988D01*
X98642596Y-130363321D01*
X98659357Y-130356160D01*
X98676357Y-130349504D01*
X98693595Y-130343354D01*
X98711072Y-130337709D01*
X98728789Y-130332570D01*
X98746743Y-130327935D01*
X98764937Y-130323807D01*
X98783369Y-130320184D01*
X98802040Y-130317066D01*
X98820950Y-130314453D01*
X98840099Y-130312346D01*
X98859486Y-130310745D01*
X98879112Y-130309649D01*
X98895077Y-130309858D01*
X98912019Y-130313585D01*
X98927572Y-130321033D01*
X98941736Y-130332202D01*
X98943409Y-130333859D01*
X98953925Y-130346006D01*
X98962781Y-130361144D01*
X98968263Y-130377621D01*
X98970372Y-130395438D01*
X98970398Y-130397759D01*
X98968835Y-130414702D01*
X98964147Y-130430602D01*
X98956333Y-130445461D01*
X98945394Y-130459278D01*
X98932123Y-130470912D01*
X98917313Y-130479619D01*
X98900966Y-130485399D01*
X98883081Y-130488251D01*
X98855795Y-130489772D01*
X98829302Y-130492152D01*
X98803603Y-130495391D01*
X98778698Y-130499488D01*
X98754587Y-130504445D01*
X98731269Y-130510260D01*
X98708745Y-130516935D01*
X98687015Y-130524468D01*
X98666079Y-130532860D01*
X98645937Y-130542111D01*
X98626588Y-130552221D01*
X98608033Y-130563190D01*
X98590272Y-130575018D01*
X98573305Y-130587705D01*
X98557132Y-130601250D01*
X98541752Y-130615655D01*
X98527237Y-130630862D01*
X98513659Y-130646817D01*
X98501018Y-130663519D01*
X98489312Y-130680969D01*
X98478543Y-130699165D01*
X98468711Y-130718109D01*
X98459815Y-130737800D01*
X98451855Y-130758239D01*
X98444832Y-130779425D01*
X98438745Y-130801358D01*
X98433595Y-130824038D01*
X98429381Y-130847466D01*
X98426104Y-130871641D01*
X98423763Y-130896563D01*
X98422358Y-130922232D01*
X98421890Y-130948649D01*
X98421890Y-131419763D01*
X98420446Y-131437502D01*
X98416116Y-131454253D01*
X98408899Y-131470016D01*
X98398795Y-131484792D01*
X98391726Y-131492792D01*
G37*
D11*
X371468650Y-131841400D02*
X371144800Y-131841400D01*
X371144800Y-131517550D01*
X371468650Y-131517550D01*
X371468650Y-131841400D01*
G36*
X371468650Y-131841400D02*
G01*
X371144800Y-131841400D01*
X371144800Y-131517550D01*
X371468650Y-131517550D01*
X371468650Y-131841400D01*
G37*
X371792500Y-131212750D02*
X371468650Y-131212750D01*
X371468650Y-130888900D01*
X371792500Y-130888900D01*
X371792500Y-131212750D01*
G36*
X371792500Y-131212750D02*
G01*
X371468650Y-131212750D01*
X371468650Y-130888900D01*
X371792500Y-130888900D01*
X371792500Y-131212750D01*
G37*
X372097300Y-130565050D02*
X371792500Y-130565050D01*
X371792500Y-130260250D01*
X372097300Y-130260250D01*
X372097300Y-130565050D01*
G36*
X372097300Y-130565050D02*
G01*
X371792500Y-130565050D01*
X371792500Y-130260250D01*
X372097300Y-130260250D01*
X372097300Y-130565050D01*
G37*
X372421150Y-129936400D02*
X372097300Y-129936400D01*
X372097300Y-129612550D01*
X372421150Y-129612550D01*
X372421150Y-129936400D01*
G36*
X372421150Y-129936400D02*
G01*
X372097300Y-129936400D01*
X372097300Y-129612550D01*
X372421150Y-129612550D01*
X372421150Y-129936400D01*
G37*
X372421150Y-131212750D02*
X372097300Y-131212750D01*
X372097300Y-130888900D01*
X372421150Y-130888900D01*
X372421150Y-131212750D01*
G36*
X372421150Y-131212750D02*
G01*
X372097300Y-131212750D01*
X372097300Y-130888900D01*
X372421150Y-130888900D01*
X372421150Y-131212750D01*
G37*
X372745000Y-130565050D02*
X372421150Y-130565050D01*
X372421150Y-130260250D01*
X372745000Y-130260250D01*
X372745000Y-130565050D01*
G36*
X372745000Y-130565050D02*
G01*
X372421150Y-130565050D01*
X372421150Y-130260250D01*
X372745000Y-130260250D01*
X372745000Y-130565050D01*
G37*
X373049800Y-131212750D02*
X372745000Y-131212750D01*
X372745000Y-130888900D01*
X373049800Y-130888900D01*
X373049800Y-131212750D01*
G36*
X373049800Y-131212750D02*
G01*
X372745000Y-131212750D01*
X372745000Y-130888900D01*
X373049800Y-130888900D01*
X373049800Y-131212750D01*
G37*
X373373650Y-131841400D02*
X373049800Y-131841400D01*
X373049800Y-131517550D01*
X373373650Y-131517550D01*
X373373650Y-131841400D01*
G36*
X373373650Y-131841400D02*
G01*
X373049800Y-131841400D01*
X373049800Y-131517550D01*
X373373650Y-131517550D01*
X373373650Y-131841400D01*
G37*
X372271925Y-128422435D02*
X372371219Y-128423532D01*
X372460589Y-128426857D01*
X372542663Y-128432735D01*
X372620074Y-128441487D01*
X372695452Y-128453438D01*
X372771427Y-128468909D01*
X372850631Y-128488224D01*
X372886853Y-128497934D01*
X373053691Y-128550125D01*
X373215361Y-128613593D01*
X373371252Y-128688022D01*
X373520749Y-128773094D01*
X373663241Y-128868492D01*
X373784957Y-128962893D01*
X373911092Y-129075473D01*
X374028961Y-129196629D01*
X374138018Y-129325507D01*
X374237716Y-129461253D01*
X374327507Y-129603013D01*
X374406845Y-129749932D01*
X374475183Y-129901157D01*
X374531974Y-130055834D01*
X374570977Y-130190242D01*
X374597433Y-130302231D01*
X374617721Y-130407779D01*
X374632435Y-130511197D01*
X374642170Y-130616794D01*
X374647518Y-130728879D01*
X374648041Y-130749200D01*
X374645865Y-130923837D01*
X374631310Y-131095664D01*
X374604378Y-131264656D01*
X374565075Y-131430790D01*
X374513405Y-131594043D01*
X374462047Y-131725189D01*
X374439581Y-131777401D01*
X374420331Y-131820727D01*
X374402836Y-131858090D01*
X374385635Y-131892410D01*
X374367266Y-131926610D01*
X374346270Y-131963612D01*
X374322970Y-132003325D01*
X374227595Y-132152341D01*
X374123511Y-132292122D01*
X374010613Y-132422771D01*
X373888793Y-132544397D01*
X373757947Y-132657103D01*
X373617969Y-132760998D01*
X373472075Y-132854220D01*
X373429811Y-132878995D01*
X373393080Y-132899776D01*
X373358961Y-132918024D01*
X373324532Y-132935200D01*
X373286870Y-132952765D01*
X373243055Y-132972180D01*
X373193939Y-132993297D01*
X373116952Y-133024935D01*
X373045978Y-133051366D01*
X372976287Y-133074156D01*
X372903148Y-133094871D01*
X372837075Y-133111457D01*
X372705461Y-133139901D01*
X372579786Y-133160442D01*
X372456403Y-133173514D01*
X372331669Y-133179548D01*
X372259225Y-133180010D01*
X372218250Y-133179598D01*
X372179753Y-133179034D01*
X372146248Y-133178367D01*
X372120252Y-133177650D01*
X372104277Y-133176932D01*
X372103650Y-133176886D01*
X371930710Y-133157725D01*
X371760505Y-133126536D01*
X371593720Y-133083573D01*
X371431044Y-133029090D01*
X371273162Y-132963341D01*
X371120764Y-132886580D01*
X370974535Y-132799061D01*
X370853771Y-132715036D01*
X370715428Y-132604359D01*
X370586882Y-132485670D01*
X370468310Y-132359231D01*
X370359892Y-132225305D01*
X370261809Y-132084154D01*
X370174238Y-131936041D01*
X370097360Y-131781228D01*
X370031354Y-131619977D01*
X369976400Y-131452550D01*
X369966684Y-131418103D01*
X369945591Y-131336668D01*
X369928483Y-131259608D01*
X369915037Y-131184293D01*
X369904929Y-131108093D01*
X369897838Y-131028376D01*
X369893439Y-130942511D01*
X369891410Y-130847869D01*
X369891185Y-130803175D01*
X369891725Y-130758886D01*
X370317385Y-130758886D01*
X370317467Y-130822996D01*
X370318800Y-130886728D01*
X370321357Y-130946829D01*
X370325114Y-131000047D01*
X370328090Y-131028600D01*
X370353589Y-131186438D01*
X370390911Y-131339730D01*
X370439910Y-131488177D01*
X370500445Y-131631478D01*
X370572371Y-131769335D01*
X370655544Y-131901447D01*
X370749822Y-132027514D01*
X370855060Y-132147237D01*
X370872929Y-132165808D01*
X370980316Y-132267467D01*
X371096878Y-132361816D01*
X371220454Y-132447271D01*
X371348885Y-132522253D01*
X371385516Y-132541202D01*
X371445042Y-132570522D01*
X371497235Y-132594697D01*
X371545633Y-132615151D01*
X371593772Y-132633307D01*
X371645190Y-132650586D01*
X371697250Y-132666581D01*
X371848620Y-132706112D01*
X371997221Y-132733672D01*
X372144211Y-132749371D01*
X372290752Y-132753313D01*
X372438001Y-132745608D01*
X372491234Y-132740024D01*
X372641100Y-132716869D01*
X372784765Y-132683422D01*
X372924235Y-132639082D01*
X373061516Y-132583251D01*
X373139082Y-132546292D01*
X373275588Y-132471557D01*
X373403121Y-132388569D01*
X373522287Y-132296779D01*
X373633693Y-132195639D01*
X373737945Y-132084603D01*
X373835649Y-131963122D01*
X373922263Y-131838607D01*
X373942364Y-131805654D01*
X373965822Y-131763951D01*
X373991182Y-131716397D01*
X374016988Y-131665885D01*
X374041784Y-131615311D01*
X374064114Y-131567573D01*
X374082521Y-131525565D01*
X374093272Y-131498500D01*
X374143566Y-131345267D01*
X374181482Y-131191076D01*
X374206989Y-131036359D01*
X374220054Y-130881551D01*
X374220644Y-130727085D01*
X374208727Y-130573393D01*
X374184271Y-130420909D01*
X374176428Y-130384075D01*
X374149509Y-130275040D01*
X374118863Y-130174094D01*
X374082913Y-130076805D01*
X374040080Y-129978745D01*
X374009952Y-129916766D01*
X373934989Y-129781687D01*
X373849529Y-129653338D01*
X373754188Y-129532294D01*
X373649579Y-129419131D01*
X373536318Y-129314425D01*
X373415017Y-129218751D01*
X373286291Y-129132687D01*
X373150755Y-129056808D01*
X373035410Y-129002783D01*
X372898107Y-128949667D01*
X372760064Y-128908069D01*
X372619674Y-128877662D01*
X372475330Y-128858120D01*
X372325426Y-128849117D01*
X372275100Y-128848405D01*
X372116624Y-128853501D01*
X371963322Y-128870017D01*
X371814574Y-128898138D01*
X371669761Y-128938053D01*
X371528264Y-128989948D01*
X371389465Y-129054010D01*
X371252743Y-129130427D01*
X371172185Y-129181795D01*
X371060639Y-129263017D01*
X370953280Y-129354622D01*
X370851422Y-129455071D01*
X370756378Y-129562824D01*
X370669459Y-129676344D01*
X370591978Y-129794092D01*
X370525247Y-129914528D01*
X370497411Y-129972864D01*
X370448288Y-130088751D01*
X370408103Y-130200142D01*
X370375898Y-130310500D01*
X370350714Y-130423291D01*
X370331594Y-130541976D01*
X370324873Y-130596800D01*
X370321063Y-130642536D01*
X370318575Y-130697648D01*
X370317385Y-130758886D01*
X369891725Y-130758886D01*
X369892581Y-130688778D01*
X369897280Y-130584085D01*
X369905740Y-130486419D01*
X369918418Y-130393108D01*
X369935771Y-130301475D01*
X369958259Y-130208847D01*
X369986338Y-130112549D01*
X370020467Y-130009906D01*
X370033022Y-129974500D01*
X370095730Y-129818724D01*
X370170003Y-129668057D01*
X370255687Y-129522708D01*
X370352631Y-129382886D01*
X370460683Y-129248802D01*
X370579689Y-129120666D01*
X370709496Y-128998687D01*
X370794966Y-128926543D01*
X370863629Y-128874148D01*
X370941660Y-128820288D01*
X371026148Y-128766729D01*
X371114178Y-128715244D01*
X371202840Y-128667599D01*
X371289221Y-128625566D01*
X371294025Y-128623371D01*
X371349993Y-128599473D01*
X371414938Y-128574364D01*
X371485363Y-128549229D01*
X371557773Y-128525249D01*
X371628671Y-128503608D01*
X371694561Y-128485491D01*
X371720069Y-128479176D01*
X371794649Y-128462562D01*
X371865828Y-128449234D01*
X371936232Y-128438921D01*
X372008485Y-128431355D01*
X372085212Y-128426265D01*
X372169037Y-128423382D01*
X372262586Y-128422434D01*
X372271925Y-128422435D01*
G36*
X372271925Y-128422435D02*
G01*
X372371219Y-128423532D01*
X372460589Y-128426857D01*
X372542663Y-128432735D01*
X372620074Y-128441487D01*
X372695452Y-128453438D01*
X372771427Y-128468909D01*
X372850631Y-128488224D01*
X372886853Y-128497934D01*
X373053691Y-128550125D01*
X373215361Y-128613593D01*
X373371252Y-128688022D01*
X373520749Y-128773094D01*
X373663241Y-128868492D01*
X373784957Y-128962893D01*
X373911092Y-129075473D01*
X374028961Y-129196629D01*
X374138018Y-129325507D01*
X374237716Y-129461253D01*
X374327507Y-129603013D01*
X374406845Y-129749932D01*
X374475183Y-129901157D01*
X374531974Y-130055834D01*
X374570977Y-130190242D01*
X374597433Y-130302231D01*
X374617721Y-130407779D01*
X374632435Y-130511197D01*
X374642170Y-130616794D01*
X374647518Y-130728879D01*
X374648041Y-130749200D01*
X374645865Y-130923837D01*
X374631310Y-131095664D01*
X374604378Y-131264656D01*
X374565075Y-131430790D01*
X374513405Y-131594043D01*
X374462047Y-131725189D01*
X374439581Y-131777401D01*
X374420331Y-131820727D01*
X374402836Y-131858090D01*
X374385635Y-131892410D01*
X374367266Y-131926610D01*
X374346270Y-131963612D01*
X374322970Y-132003325D01*
X374227595Y-132152341D01*
X374123511Y-132292122D01*
X374010613Y-132422771D01*
X373888793Y-132544397D01*
X373757947Y-132657103D01*
X373617969Y-132760998D01*
X373472075Y-132854220D01*
X373429811Y-132878995D01*
X373393080Y-132899776D01*
X373358961Y-132918024D01*
X373324532Y-132935200D01*
X373286870Y-132952765D01*
X373243055Y-132972180D01*
X373193939Y-132993297D01*
X373116952Y-133024935D01*
X373045978Y-133051366D01*
X372976287Y-133074156D01*
X372903148Y-133094871D01*
X372837075Y-133111457D01*
X372705461Y-133139901D01*
X372579786Y-133160442D01*
X372456403Y-133173514D01*
X372331669Y-133179548D01*
X372259225Y-133180010D01*
X372218250Y-133179598D01*
X372179753Y-133179034D01*
X372146248Y-133178367D01*
X372120252Y-133177650D01*
X372104277Y-133176932D01*
X372103650Y-133176886D01*
X371930710Y-133157725D01*
X371760505Y-133126536D01*
X371593720Y-133083573D01*
X371431044Y-133029090D01*
X371273162Y-132963341D01*
X371120764Y-132886580D01*
X370974535Y-132799061D01*
X370853771Y-132715036D01*
X370715428Y-132604359D01*
X370586882Y-132485670D01*
X370468310Y-132359231D01*
X370359892Y-132225305D01*
X370261809Y-132084154D01*
X370174238Y-131936041D01*
X370097360Y-131781228D01*
X370031354Y-131619977D01*
X369976400Y-131452550D01*
X369966684Y-131418103D01*
X369945591Y-131336668D01*
X369928483Y-131259608D01*
X369915037Y-131184293D01*
X369904929Y-131108093D01*
X369897838Y-131028376D01*
X369893439Y-130942511D01*
X369891410Y-130847869D01*
X369891185Y-130803175D01*
X369891725Y-130758886D01*
X370317385Y-130758886D01*
X370317467Y-130822996D01*
X370318800Y-130886728D01*
X370321357Y-130946829D01*
X370325114Y-131000047D01*
X370328090Y-131028600D01*
X370353589Y-131186438D01*
X370390911Y-131339730D01*
X370439910Y-131488177D01*
X370500445Y-131631478D01*
X370572371Y-131769335D01*
X370655544Y-131901447D01*
X370749822Y-132027514D01*
X370855060Y-132147237D01*
X370872929Y-132165808D01*
X370980316Y-132267467D01*
X371096878Y-132361816D01*
X371220454Y-132447271D01*
X371348885Y-132522253D01*
X371385516Y-132541202D01*
X371445042Y-132570522D01*
X371497235Y-132594697D01*
X371545633Y-132615151D01*
X371593772Y-132633307D01*
X371645190Y-132650586D01*
X371697250Y-132666581D01*
X371848620Y-132706112D01*
X371997221Y-132733672D01*
X372144211Y-132749371D01*
X372290752Y-132753313D01*
X372438001Y-132745608D01*
X372491234Y-132740024D01*
X372641100Y-132716869D01*
X372784765Y-132683422D01*
X372924235Y-132639082D01*
X373061516Y-132583251D01*
X373139082Y-132546292D01*
X373275588Y-132471557D01*
X373403121Y-132388569D01*
X373522287Y-132296779D01*
X373633693Y-132195639D01*
X373737945Y-132084603D01*
X373835649Y-131963122D01*
X373922263Y-131838607D01*
X373942364Y-131805654D01*
X373965822Y-131763951D01*
X373991182Y-131716397D01*
X374016988Y-131665885D01*
X374041784Y-131615311D01*
X374064114Y-131567573D01*
X374082521Y-131525565D01*
X374093272Y-131498500D01*
X374143566Y-131345267D01*
X374181482Y-131191076D01*
X374206989Y-131036359D01*
X374220054Y-130881551D01*
X374220644Y-130727085D01*
X374208727Y-130573393D01*
X374184271Y-130420909D01*
X374176428Y-130384075D01*
X374149509Y-130275040D01*
X374118863Y-130174094D01*
X374082913Y-130076805D01*
X374040080Y-129978745D01*
X374009952Y-129916766D01*
X373934989Y-129781687D01*
X373849529Y-129653338D01*
X373754188Y-129532294D01*
X373649579Y-129419131D01*
X373536318Y-129314425D01*
X373415017Y-129218751D01*
X373286291Y-129132687D01*
X373150755Y-129056808D01*
X373035410Y-129002783D01*
X372898107Y-128949667D01*
X372760064Y-128908069D01*
X372619674Y-128877662D01*
X372475330Y-128858120D01*
X372325426Y-128849117D01*
X372275100Y-128848405D01*
X372116624Y-128853501D01*
X371963322Y-128870017D01*
X371814574Y-128898138D01*
X371669761Y-128938053D01*
X371528264Y-128989948D01*
X371389465Y-129054010D01*
X371252743Y-129130427D01*
X371172185Y-129181795D01*
X371060639Y-129263017D01*
X370953280Y-129354622D01*
X370851422Y-129455071D01*
X370756378Y-129562824D01*
X370669459Y-129676344D01*
X370591978Y-129794092D01*
X370525247Y-129914528D01*
X370497411Y-129972864D01*
X370448288Y-130088751D01*
X370408103Y-130200142D01*
X370375898Y-130310500D01*
X370350714Y-130423291D01*
X370331594Y-130541976D01*
X370324873Y-130596800D01*
X370321063Y-130642536D01*
X370318575Y-130697648D01*
X370317385Y-130758886D01*
X369891725Y-130758886D01*
X369892581Y-130688778D01*
X369897280Y-130584085D01*
X369905740Y-130486419D01*
X369918418Y-130393108D01*
X369935771Y-130301475D01*
X369958259Y-130208847D01*
X369986338Y-130112549D01*
X370020467Y-130009906D01*
X370033022Y-129974500D01*
X370095730Y-129818724D01*
X370170003Y-129668057D01*
X370255687Y-129522708D01*
X370352631Y-129382886D01*
X370460683Y-129248802D01*
X370579689Y-129120666D01*
X370709496Y-128998687D01*
X370794966Y-128926543D01*
X370863629Y-128874148D01*
X370941660Y-128820288D01*
X371026148Y-128766729D01*
X371114178Y-128715244D01*
X371202840Y-128667599D01*
X371289221Y-128625566D01*
X371294025Y-128623371D01*
X371349993Y-128599473D01*
X371414938Y-128574364D01*
X371485363Y-128549229D01*
X371557773Y-128525249D01*
X371628671Y-128503608D01*
X371694561Y-128485491D01*
X371720069Y-128479176D01*
X371794649Y-128462562D01*
X371865828Y-128449234D01*
X371936232Y-128438921D01*
X372008485Y-128431355D01*
X372085212Y-128426265D01*
X372169037Y-128423382D01*
X372262586Y-128422434D01*
X372271925Y-128422435D01*
G37*
D12*
X318770000Y-142875000D03*
D13*
X320040000Y-140335000D03*
D14*
X323850000Y-142875000D03*
D13*
X326390000Y-137795000D03*
D12*
X328930000Y-142875000D03*
X190182500Y-85725000D03*
D13*
X191452500Y-83185000D03*
D14*
X195262500Y-85725000D03*
D13*
X197802500Y-80645000D03*
D12*
X200342500Y-85725000D03*
X85407500Y-47625000D03*
D13*
X86677500Y-45085000D03*
D14*
X90487500Y-47625000D03*
D13*
X93027500Y-42545000D03*
D12*
X95567500Y-47625000D03*
X404495000Y-85725000D03*
D13*
X405765000Y-83185000D03*
D14*
X409575000Y-85725000D03*
D13*
X412115000Y-80645000D03*
D12*
X414655000Y-85725000D03*
X147320000Y-47625000D03*
D13*
X148590000Y-45085000D03*
D14*
X152400000Y-47625000D03*
D13*
X154940000Y-42545000D03*
D12*
X157480000Y-47625000D03*
X61595000Y-66675000D03*
D13*
X62865000Y-64135000D03*
D14*
X66675000Y-66675000D03*
D13*
X69215000Y-61595000D03*
D12*
X71755000Y-66675000D03*
X385445000Y-123825000D03*
D13*
X386715000Y-121285000D03*
D14*
X390525000Y-123825000D03*
D13*
X393065000Y-118745000D03*
D12*
X395605000Y-123825000D03*
X404495000Y-104775000D03*
D13*
X405765000Y-102235000D03*
D14*
X409575000Y-104775000D03*
D13*
X412115000Y-99695000D03*
D12*
X414655000Y-104775000D03*
X385445000Y-104775000D03*
D13*
X386715000Y-102235000D03*
D14*
X390525000Y-104775000D03*
D13*
X393065000Y-99695000D03*
D12*
X395605000Y-104775000D03*
X385445000Y-142875000D03*
D13*
X386715000Y-140335000D03*
D14*
X390525000Y-142875000D03*
D13*
X393065000Y-137795000D03*
D12*
X395605000Y-142875000D03*
X190182500Y-104775000D03*
D13*
X191452500Y-102235000D03*
D14*
X195262500Y-104775000D03*
D13*
X197802500Y-99695000D03*
D12*
X200342500Y-104775000D03*
X61595000Y-85725000D03*
D13*
X62865000Y-83185000D03*
D14*
X66675000Y-85725000D03*
D13*
X69215000Y-80645000D03*
D12*
X71755000Y-85725000D03*
X256857500Y-66675000D03*
D13*
X258127500Y-64135000D03*
D14*
X261937500Y-66675000D03*
D13*
X264477500Y-61595000D03*
D12*
X267017500Y-66675000D03*
D15*
X219075000Y-57150000D03*
D12*
X385445000Y-47625000D03*
D13*
X386715000Y-45085000D03*
D14*
X390525000Y-47625000D03*
D13*
X393065000Y-42545000D03*
D12*
X395605000Y-47625000D03*
X233045000Y-104775000D03*
D13*
X234315000Y-102235000D03*
D14*
X238125000Y-104775000D03*
D13*
X240665000Y-99695000D03*
D12*
X243205000Y-104775000D03*
X299720000Y-47625000D03*
D13*
X300990000Y-45085000D03*
D14*
X304800000Y-47625000D03*
D13*
X307340000Y-42545000D03*
D12*
X309880000Y-47625000D03*
X256857500Y-142875000D03*
D13*
X258127500Y-140335000D03*
D14*
X261937500Y-142875000D03*
D13*
X264477500Y-137795000D03*
D12*
X267017500Y-142875000D03*
X361632500Y-123825000D03*
D13*
X362902500Y-121285000D03*
D14*
X366712500Y-123825000D03*
D13*
X369252500Y-118745000D03*
D12*
X371792500Y-123825000D03*
X404495000Y-123825000D03*
D13*
X405765000Y-121285000D03*
D14*
X409575000Y-123825000D03*
D13*
X412115000Y-118745000D03*
D12*
X414655000Y-123825000D03*
D15*
X133350000Y-133350000D03*
D12*
X171132500Y-123825000D03*
D13*
X172402500Y-121285000D03*
D14*
X176212500Y-123825000D03*
D13*
X178752500Y-118745000D03*
D12*
X181292500Y-123825000D03*
X190182500Y-47625000D03*
D13*
X191452500Y-45085000D03*
D14*
X195262500Y-47625000D03*
D13*
X197802500Y-42545000D03*
D12*
X200342500Y-47625000D03*
X233045000Y-142875000D03*
D13*
X234315000Y-140335000D03*
D14*
X238125000Y-142875000D03*
D13*
X240665000Y-137795000D03*
D12*
X243205000Y-142875000D03*
X342582500Y-47625000D03*
D13*
X343852500Y-45085000D03*
D14*
X347662500Y-47625000D03*
D13*
X350202500Y-42545000D03*
D12*
X352742500Y-47625000D03*
X190182500Y-66675000D03*
D13*
X191452500Y-64135000D03*
D14*
X195262500Y-66675000D03*
D13*
X197802500Y-61595000D03*
D12*
X200342500Y-66675000D03*
X171132500Y-85725000D03*
D13*
X172402500Y-83185000D03*
D14*
X176212500Y-85725000D03*
D13*
X178752500Y-80645000D03*
D12*
X181292500Y-85725000D03*
X85407500Y-123825000D03*
D13*
X86677500Y-121285000D03*
D14*
X90487500Y-123825000D03*
D13*
X93027500Y-118745000D03*
D12*
X95567500Y-123825000D03*
X361632500Y-85725000D03*
D13*
X362902500Y-83185000D03*
D14*
X366712500Y-85725000D03*
D13*
X369252500Y-80645000D03*
D12*
X371792500Y-85725000D03*
X104457500Y-47625000D03*
D13*
X105727500Y-45085000D03*
D14*
X109537500Y-47625000D03*
D13*
X112077500Y-42545000D03*
D12*
X114617500Y-47625000D03*
X342582500Y-66675000D03*
D13*
X343852500Y-64135000D03*
D14*
X347662500Y-66675000D03*
D13*
X350202500Y-61595000D03*
D12*
X352742500Y-66675000D03*
X342582500Y-85725000D03*
D13*
X343852500Y-83185000D03*
D14*
X347662500Y-85725000D03*
D13*
X350202500Y-80645000D03*
D12*
X352742500Y-85725000D03*
X275907500Y-142875000D03*
D13*
X277177500Y-140335000D03*
D14*
X280987500Y-142875000D03*
D13*
X283527500Y-137795000D03*
D12*
X286067500Y-142875000D03*
X299720000Y-142875000D03*
D13*
X300990000Y-140335000D03*
D14*
X304800000Y-142875000D03*
D13*
X307340000Y-137795000D03*
D12*
X309880000Y-142875000D03*
X128270000Y-104775000D03*
D13*
X129540000Y-102235000D03*
D14*
X133350000Y-104775000D03*
D13*
X135890000Y-99695000D03*
D12*
X138430000Y-104775000D03*
X147320000Y-66675000D03*
D13*
X148590000Y-64135000D03*
D14*
X152400000Y-66675000D03*
D13*
X154940000Y-61595000D03*
D12*
X157480000Y-66675000D03*
X128270000Y-123825000D03*
D13*
X129540000Y-121285000D03*
D14*
X133350000Y-123825000D03*
D13*
X135890000Y-118745000D03*
D12*
X138430000Y-123825000D03*
X342582500Y-142875000D03*
D13*
X343852500Y-140335000D03*
D14*
X347662500Y-142875000D03*
D13*
X350202500Y-137795000D03*
D12*
X352742500Y-142875000D03*
X104457500Y-104775000D03*
D13*
X105727500Y-102235000D03*
D14*
X109537500Y-104775000D03*
D13*
X112077500Y-99695000D03*
D12*
X114617500Y-104775000D03*
X299720000Y-104775000D03*
D13*
X300990000Y-102235000D03*
D14*
X304800000Y-104775000D03*
D13*
X307340000Y-99695000D03*
D12*
X309880000Y-104775000D03*
X128270000Y-66675000D03*
D13*
X129540000Y-64135000D03*
D14*
X133350000Y-66675000D03*
D13*
X135890000Y-61595000D03*
D12*
X138430000Y-66675000D03*
D15*
X47625000Y-57150000D03*
D12*
X299720000Y-85725000D03*
D13*
X300990000Y-83185000D03*
D14*
X304800000Y-85725000D03*
D13*
X307340000Y-80645000D03*
D12*
X309880000Y-85725000D03*
D15*
X390525000Y-57150000D03*
D12*
X342582500Y-123825000D03*
D13*
X343852500Y-121285000D03*
D14*
X347662500Y-123825000D03*
D13*
X350202500Y-118745000D03*
D12*
X352742500Y-123825000D03*
X318770000Y-104775000D03*
D13*
X320040000Y-102235000D03*
D14*
X323850000Y-104775000D03*
D13*
X326390000Y-99695000D03*
D12*
X328930000Y-104775000D03*
X147320000Y-123825000D03*
D13*
X148590000Y-121285000D03*
D14*
X152400000Y-123825000D03*
D13*
X154940000Y-118745000D03*
D12*
X157480000Y-123825000D03*
X275907500Y-85725000D03*
D13*
X277177500Y-83185000D03*
D14*
X280987500Y-85725000D03*
D13*
X283527500Y-80645000D03*
D12*
X286067500Y-85725000D03*
X299720000Y-66675000D03*
D13*
X300990000Y-64135000D03*
D14*
X304800000Y-66675000D03*
D13*
X307340000Y-61595000D03*
D12*
X309880000Y-66675000D03*
X104457500Y-123825000D03*
D13*
X105727500Y-121285000D03*
D14*
X109537500Y-123825000D03*
D13*
X112077500Y-118745000D03*
D12*
X114617500Y-123825000D03*
X275907500Y-104775000D03*
D13*
X277177500Y-102235000D03*
D14*
X280987500Y-104775000D03*
D13*
X283527500Y-99695000D03*
D12*
X286067500Y-104775000D03*
X361632500Y-104775000D03*
D13*
X362902500Y-102235000D03*
D14*
X366712500Y-104775000D03*
D13*
X369252500Y-99695000D03*
D12*
X371792500Y-104775000D03*
X404495000Y-47625000D03*
D13*
X405765000Y-45085000D03*
D14*
X409575000Y-47625000D03*
D13*
X412115000Y-42545000D03*
D12*
X414655000Y-47625000D03*
X361632500Y-47625000D03*
D13*
X362902500Y-45085000D03*
D14*
X366712500Y-47625000D03*
D13*
X369252500Y-42545000D03*
D12*
X371792500Y-47625000D03*
X61595000Y-47625000D03*
D13*
X62865000Y-45085000D03*
D14*
X66675000Y-47625000D03*
D13*
X69215000Y-42545000D03*
D12*
X71755000Y-47625000D03*
X85407500Y-85725000D03*
D13*
X86677500Y-83185000D03*
D14*
X90487500Y-85725000D03*
D13*
X93027500Y-80645000D03*
D12*
X95567500Y-85725000D03*
D15*
X219075000Y-133350000D03*
X390525000Y-133350000D03*
D12*
X318770000Y-123825000D03*
D13*
X320040000Y-121285000D03*
D14*
X323850000Y-123825000D03*
D13*
X326390000Y-118745000D03*
D12*
X328930000Y-123825000D03*
X61595000Y-123825000D03*
D13*
X62865000Y-121285000D03*
D14*
X66675000Y-123825000D03*
D13*
X69215000Y-118745000D03*
D12*
X71755000Y-123825000D03*
X404495000Y-66675000D03*
D13*
X405765000Y-64135000D03*
D14*
X409575000Y-66675000D03*
D13*
X412115000Y-61595000D03*
D12*
X414655000Y-66675000D03*
X256857500Y-85725000D03*
D13*
X258127500Y-83185000D03*
D14*
X261937500Y-85725000D03*
D13*
X264477500Y-80645000D03*
D12*
X267017500Y-85725000D03*
X213995000Y-47625000D03*
D13*
X215265000Y-45085000D03*
D14*
X219075000Y-47625000D03*
D13*
X221615000Y-42545000D03*
D12*
X224155000Y-47625000D03*
X256857500Y-104775000D03*
D13*
X258127500Y-102235000D03*
D14*
X261937500Y-104775000D03*
D13*
X264477500Y-99695000D03*
D12*
X267017500Y-104775000D03*
D15*
X304800000Y-133350000D03*
D12*
X147320000Y-85725000D03*
D13*
X148590000Y-83185000D03*
D14*
X152400000Y-85725000D03*
D13*
X154940000Y-80645000D03*
D12*
X157480000Y-85725000D03*
X128270000Y-85725000D03*
D13*
X129540000Y-83185000D03*
D14*
X133350000Y-85725000D03*
D13*
X135890000Y-80645000D03*
D12*
X138430000Y-85725000D03*
X213995000Y-142875000D03*
D13*
X215265000Y-140335000D03*
D14*
X219075000Y-142875000D03*
D13*
X221615000Y-137795000D03*
D12*
X224155000Y-142875000D03*
X61595000Y-142875000D03*
D13*
X62865000Y-140335000D03*
D14*
X66675000Y-142875000D03*
D13*
X69215000Y-137795000D03*
D12*
X71755000Y-142875000D03*
X61595000Y-104775000D03*
D13*
X62865000Y-102235000D03*
D14*
X66675000Y-104775000D03*
D13*
X69215000Y-99695000D03*
D12*
X71755000Y-104775000D03*
X128270000Y-142875000D03*
D13*
X129540000Y-140335000D03*
D14*
X133350000Y-142875000D03*
D13*
X135890000Y-137795000D03*
D12*
X138430000Y-142875000D03*
X171132500Y-104775000D03*
D13*
X172402500Y-102235000D03*
D14*
X176212500Y-104775000D03*
D13*
X178752500Y-99695000D03*
D12*
X181292500Y-104775000D03*
X342582500Y-104775000D03*
D13*
X343852500Y-102235000D03*
D14*
X347662500Y-104775000D03*
D13*
X350202500Y-99695000D03*
D12*
X352742500Y-104775000D03*
X385445000Y-66675000D03*
D13*
X386715000Y-64135000D03*
D14*
X390525000Y-66675000D03*
D13*
X393065000Y-61595000D03*
D12*
X395605000Y-66675000D03*
X128270000Y-47625000D03*
D13*
X129540000Y-45085000D03*
D14*
X133350000Y-47625000D03*
D13*
X135890000Y-42545000D03*
D12*
X138430000Y-47625000D03*
X171132500Y-47625000D03*
D13*
X172402500Y-45085000D03*
D14*
X176212500Y-47625000D03*
D13*
X178752500Y-42545000D03*
D12*
X181292500Y-47625000D03*
X104457500Y-66675000D03*
D13*
X105727500Y-64135000D03*
D14*
X109537500Y-66675000D03*
D13*
X112077500Y-61595000D03*
D12*
X114617500Y-66675000D03*
D15*
X304800000Y-57150000D03*
D12*
X213995000Y-123825000D03*
D13*
X215265000Y-121285000D03*
D14*
X219075000Y-123825000D03*
D13*
X221615000Y-118745000D03*
D12*
X224155000Y-123825000D03*
X42545000Y-142875000D03*
D13*
X43815000Y-140335000D03*
D14*
X47625000Y-142875000D03*
D13*
X50165000Y-137795000D03*
D12*
X52705000Y-142875000D03*
X233045000Y-123825000D03*
D13*
X234315000Y-121285000D03*
D14*
X238125000Y-123825000D03*
D13*
X240665000Y-118745000D03*
D12*
X243205000Y-123825000D03*
X147320000Y-142875000D03*
D13*
X148590000Y-140335000D03*
D14*
X152400000Y-142875000D03*
D13*
X154940000Y-137795000D03*
D12*
X157480000Y-142875000D03*
X171132500Y-66675000D03*
D13*
X172402500Y-64135000D03*
D14*
X176212500Y-66675000D03*
D13*
X178752500Y-61595000D03*
D12*
X181292500Y-66675000D03*
X361632500Y-142875000D03*
D13*
X362902500Y-140335000D03*
D14*
X366712500Y-142875000D03*
D13*
X369252500Y-137795000D03*
D12*
X371792500Y-142875000D03*
X85407500Y-104775000D03*
D13*
X86677500Y-102235000D03*
D14*
X90487500Y-104775000D03*
D13*
X93027500Y-99695000D03*
D12*
X95567500Y-104775000D03*
X233045000Y-47625000D03*
D13*
X234315000Y-45085000D03*
D14*
X238125000Y-47625000D03*
D13*
X240665000Y-42545000D03*
D12*
X243205000Y-47625000D03*
X42545000Y-47625000D03*
D13*
X43815000Y-45085000D03*
D14*
X47625000Y-47625000D03*
D13*
X50165000Y-42545000D03*
D12*
X52705000Y-47625000D03*
X299720000Y-123825000D03*
D13*
X300990000Y-121285000D03*
D14*
X304800000Y-123825000D03*
D13*
X307340000Y-118745000D03*
D12*
X309880000Y-123825000D03*
X275907500Y-47625000D03*
D13*
X277177500Y-45085000D03*
D14*
X280987500Y-47625000D03*
D13*
X283527500Y-42545000D03*
D12*
X286067500Y-47625000D03*
X275907500Y-66675000D03*
D13*
X277177500Y-64135000D03*
D14*
X280987500Y-66675000D03*
D13*
X283527500Y-61595000D03*
D12*
X286067500Y-66675000D03*
X42545000Y-66675000D03*
D13*
X43815000Y-64135000D03*
D14*
X47625000Y-66675000D03*
D13*
X50165000Y-61595000D03*
D12*
X52705000Y-66675000D03*
X104457500Y-142875000D03*
D13*
X105727500Y-140335000D03*
D14*
X109537500Y-142875000D03*
D13*
X112077500Y-137795000D03*
D12*
X114617500Y-142875000D03*
X42545000Y-85725000D03*
D13*
X43815000Y-83185000D03*
D14*
X47625000Y-85725000D03*
D13*
X50165000Y-80645000D03*
D12*
X52705000Y-85725000D03*
X42545000Y-123825000D03*
D13*
X43815000Y-121285000D03*
D14*
X47625000Y-123825000D03*
D13*
X50165000Y-118745000D03*
D12*
X52705000Y-123825000D03*
X85407500Y-66675000D03*
D13*
X86677500Y-64135000D03*
D14*
X90487500Y-66675000D03*
D13*
X93027500Y-61595000D03*
D12*
X95567500Y-66675000D03*
X147320000Y-104775000D03*
D13*
X148590000Y-102235000D03*
D14*
X152400000Y-104775000D03*
D13*
X154940000Y-99695000D03*
D12*
X157480000Y-104775000D03*
X318770000Y-85725000D03*
D13*
X320040000Y-83185000D03*
D14*
X323850000Y-85725000D03*
D13*
X326390000Y-80645000D03*
D12*
X328930000Y-85725000D03*
X213995000Y-66675000D03*
D13*
X215265000Y-64135000D03*
D14*
X219075000Y-66675000D03*
D13*
X221615000Y-61595000D03*
D12*
X224155000Y-66675000D03*
X213995000Y-104775000D03*
D13*
X215265000Y-102235000D03*
D14*
X219075000Y-104775000D03*
D13*
X221615000Y-99695000D03*
D12*
X224155000Y-104775000D03*
X85407500Y-142875000D03*
D13*
X86677500Y-140335000D03*
D14*
X90487500Y-142875000D03*
D13*
X93027500Y-137795000D03*
D12*
X95567500Y-142875000D03*
X318770000Y-47625000D03*
D13*
X320040000Y-45085000D03*
D14*
X323850000Y-47625000D03*
D13*
X326390000Y-42545000D03*
D12*
X328930000Y-47625000D03*
X190182500Y-123825000D03*
D13*
X191452500Y-121285000D03*
D14*
X195262500Y-123825000D03*
D13*
X197802500Y-118745000D03*
D12*
X200342500Y-123825000D03*
X361632500Y-66675000D03*
D13*
X362902500Y-64135000D03*
D14*
X366712500Y-66675000D03*
D13*
X369252500Y-61595000D03*
D12*
X371792500Y-66675000D03*
X385445000Y-85725000D03*
D13*
X386715000Y-83185000D03*
D14*
X390525000Y-85725000D03*
D13*
X393065000Y-80645000D03*
D12*
X395605000Y-85725000D03*
X256857500Y-123825000D03*
D13*
X258127500Y-121285000D03*
D14*
X261937500Y-123825000D03*
D13*
X264477500Y-118745000D03*
D12*
X267017500Y-123825000D03*
X256857500Y-47625000D03*
D13*
X258127500Y-45085000D03*
D14*
X261937500Y-47625000D03*
D13*
X264477500Y-42545000D03*
D12*
X267017500Y-47625000D03*
X318770000Y-66675000D03*
D13*
X320040000Y-64135000D03*
D14*
X323850000Y-66675000D03*
D13*
X326390000Y-61595000D03*
D12*
X328930000Y-66675000D03*
X233045000Y-85725000D03*
D13*
X234315000Y-83185000D03*
D14*
X238125000Y-85725000D03*
D13*
X240665000Y-80645000D03*
D12*
X243205000Y-85725000D03*
D15*
X47625000Y-133350000D03*
X133350000Y-57150000D03*
D12*
X233045000Y-66675000D03*
D13*
X234315000Y-64135000D03*
D14*
X238125000Y-66675000D03*
D13*
X240665000Y-61595000D03*
D12*
X243205000Y-66675000D03*
X213995000Y-85725000D03*
D13*
X215265000Y-83185000D03*
D14*
X219075000Y-85725000D03*
D13*
X221615000Y-80645000D03*
D12*
X224155000Y-85725000D03*
X171132500Y-142875000D03*
D13*
X172402500Y-140335000D03*
D14*
X176212500Y-142875000D03*
D13*
X178752500Y-137795000D03*
D12*
X181292500Y-142875000D03*
X190182500Y-142875000D03*
D13*
X191452500Y-140335000D03*
D14*
X195262500Y-142875000D03*
D13*
X197802500Y-137795000D03*
D12*
X200342500Y-142875000D03*
X42545000Y-104775000D03*
D13*
X43815000Y-102235000D03*
D14*
X47625000Y-104775000D03*
D13*
X50165000Y-99695000D03*
D12*
X52705000Y-104775000D03*
X275907500Y-123825000D03*
D13*
X277177500Y-121285000D03*
D14*
X280987500Y-123825000D03*
D13*
X283527500Y-118745000D03*
D12*
X286067500Y-123825000D03*
X404495000Y-142875000D03*
D13*
X405765000Y-140335000D03*
D14*
X409575000Y-142875000D03*
D13*
X412115000Y-137795000D03*
D12*
X414655000Y-142875000D03*
X104457500Y-85725000D03*
D13*
X105727500Y-83185000D03*
D14*
X109537500Y-85725000D03*
D13*
X112077500Y-80645000D03*
D12*
X114617500Y-85725000D03*
D16*
X375728750Y-38600000D03*
X381508750Y-38600000D03*
D17*
X374298750Y-34950000D03*
D18*
X374298750Y-39130000D03*
D17*
X382938750Y-34950000D03*
D18*
X382938750Y-39130000D03*
M02*
