M48
; DRILL file {KiCad 7.0.7} date Mon Sep 25 11:45:25 2023
; FORMAT={-:-/ absolute / inch / decimal}
; #@! TF.CreationDate,2023-09-25T11:45:25+09:00
; #@! TF.GenerationSoftware,Kicad,Pcbnew,7.0.7
; #@! TF.FileFunction,Plated,1,2,PTH
FMAT,2
INCH
; #@! TA.AperFunction,Plated,PTH,ComponentDrill
T1C0.0138
; #@! TA.AperFunction,Plated,PTH,ViaDrill
T2C0.0157
; #@! TA.AperFunction,Plated,PTH,ComponentDrill
T3C0.0236
; #@! TA.AperFunction,Plated,PTH,ComponentDrill
T4C0.0866
%
G90
G05
T1
X14.8514Y-2.9498
X14.8514Y-3.0
X14.8514Y-3.0502
X14.9016Y-2.9498
X14.9016Y-3.0
X14.9016Y-3.0502
X14.9518Y-2.9498
X14.9518Y-3.0
X14.9518Y-3.0502
T2
X1.5945Y-1.6969
X1.5945Y-2.4449
X1.5945Y-3.1969
X1.5945Y-3.9449
X1.5945Y-4.6969
X1.5945Y-5.4449
X2.3465Y-1.6969
X2.3465Y-2.4449
X2.3465Y-3.1969
X2.3465Y-3.9449
X2.3465Y-4.6969
X2.3465Y-5.4449
X3.2835Y-1.6969
X3.2835Y-2.4449
X3.2835Y-3.1969
X3.2835Y-3.9449
X3.2835Y-4.6969
X3.2835Y-5.4449
X4.0315Y-1.6969
X4.0315Y-2.4449
X4.0315Y-3.1969
X4.0315Y-3.9449
X4.0315Y-4.6969
X4.0315Y-5.4449
X4.9724Y-1.6969
X4.9724Y-2.4449
X4.9724Y-3.1969
X4.9724Y-3.9449
X4.9724Y-4.6969
X4.9724Y-5.4449
X5.7205Y-1.6969
X5.7205Y-2.4449
X5.7205Y-3.1969
X5.7205Y-3.9449
X5.7205Y-4.6969
X5.7205Y-5.4449
X6.6575Y-1.6969
X6.6575Y-2.4449
X6.6575Y-3.1969
X6.6575Y-3.9449
X6.6575Y-4.6969
X6.6575Y-5.4449
X7.4094Y-1.6969
X7.4094Y-2.4449
X7.4094Y-3.1969
X7.4094Y-3.9449
X7.4094Y-4.6969
X7.4094Y-5.4449
X8.3465Y-1.6969
X8.3465Y-2.4449
X8.3465Y-3.1969
X8.3465Y-3.9449
X8.3465Y-4.6969
X8.3465Y-5.4449
X9.0945Y-1.6969
X9.0945Y-2.4449
X9.0945Y-3.1969
X9.0945Y-3.9449
X9.0945Y-4.6969
X9.0945Y-5.4449
X10.0354Y-1.6969
X10.0354Y-2.4449
X10.0354Y-3.1969
X10.0354Y-3.9449
X10.0354Y-4.6969
X10.0354Y-5.4449
X10.7835Y-1.6969
X10.7835Y-2.4449
X10.7835Y-3.1969
X10.7835Y-3.9449
X10.7835Y-4.6969
X10.7835Y-5.4449
X11.7205Y-1.6969
X11.7205Y-2.4449
X11.7205Y-3.1969
X11.7205Y-3.9449
X11.7205Y-4.6969
X11.7205Y-5.4449
X12.4724Y-1.6969
X12.4724Y-2.4449
X12.4724Y-3.1969
X12.4724Y-3.9449
X12.4724Y-4.6969
X12.4724Y-5.4449
X13.4094Y-1.6969
X13.4094Y-2.4449
X13.4094Y-3.1969
X13.4094Y-3.9449
X13.4094Y-4.6969
X13.4094Y-5.4449
X14.1417Y-2.4449
X14.1575Y-1.6969
X14.1575Y-3.1969
X14.1575Y-3.9449
X14.1575Y-4.6969
X14.1575Y-5.4449
X14.2835Y-3.1063
X14.5276Y-2.7323
X14.5354Y-2.0
X14.5896Y-2.8435
X14.5984Y-3.0591
X14.6457Y-2.0906
X14.6535Y-2.7126
X14.6575Y-3.0945
X14.689Y-3.5689
X14.6969Y-2.7362
X14.7047Y-2.2126
X14.7047Y-2.3346
X14.7165Y-3.0906
X14.752Y-3.1398
X14.752Y-3.2402
X14.7717Y-1.6378
X14.7835Y-2.7598
X14.7953Y-3.311
X14.8386Y-3.2362
X14.8465Y-1.6378
X14.8465Y-1.6811
X14.8858Y-2.6575
X14.9291Y-2.6496
X14.9449Y-3.3189
X14.9606Y-3.2165
X14.9646Y-1.6378
X14.9646Y-1.6811
X14.9803Y-2.5236
X14.9803Y-2.5669
X14.9921Y-2.2126
X14.9921Y-2.6181
X15.0157Y-3.2165
X15.0394Y-1.6378
X15.0512Y-1.9724
X15.0512Y-2.0472
X15.0512Y-2.0906
X15.0512Y-2.1339
X15.0512Y-2.3346
X15.0551Y-2.7559
X15.0551Y-2.8504
X15.0945Y-3.9449
X15.0945Y-4.6969
X15.0945Y-5.4449
X15.0984Y-1.6969
X15.1063Y-3.3543
X15.1102Y-2.6299
X15.124Y-3.5689
X15.1417Y-2.8819
X15.1575Y-2.3661
X15.2008Y-3.0748
X15.2126Y-1.9724
X15.2441Y-3.0748
X15.248Y-2.0866
X15.2717Y-2.7441
X15.2756Y-2.437
X15.3031Y-3.7126
X15.3425Y-3.0394
X15.4528Y-2.7756
X15.4685Y-3.4528
X15.5394Y-3.7126
X15.5827Y-2.7874
X15.622Y-3.2559
X15.622Y-3.626
X15.6339Y-5.7402
X15.6693Y-2.8976
X15.6693Y-2.9764
X15.7126Y-2.9331
X15.7126Y-2.9764
X15.7402Y-4.2402
X15.7402Y-4.9882
X15.7598Y-3.5039
X15.8465Y-1.6969
X15.8465Y-2.4449
X15.8465Y-3.1969
X15.8465Y-3.9449
X15.8465Y-4.6969
X15.8465Y-5.4449
X16.126Y-3.0118
X16.1299Y-2.1142
T4
X1.875Y-2.25
X1.875Y-5.25
X5.25Y-2.25
X5.25Y-5.25
X8.625Y-2.25
X8.625Y-5.25
X12.0Y-2.25
X12.0Y-5.25
X15.375Y-2.25
X15.375Y-5.25
T3
G00X14.7362Y-1.3642
M15
G01X14.7362Y-1.3878
M16
G05
G00X14.7362Y-1.5189
M15
G01X14.7362Y-1.5622
M16
G05
G00X15.0763Y-1.3642
M15
G01X15.0763Y-1.3878
M16
G05
G00X15.0763Y-1.5189
M15
G01X15.0763Y-1.5622
M16
G05
T0
M30
