%TF.GenerationSoftware,KiCad,Pcbnew,7.0.7*%
%TF.CreationDate,2023-09-25T11:45:10+09:00*%
%TF.ProjectId,Duet-Switch-Tester,44756574-2d53-4776-9974-63682d546573,rev?*%
%TF.SameCoordinates,Original*%
%TF.FileFunction,Copper,L1,Top*%
%TF.FilePolarity,Positive*%
%FSLAX46Y46*%
G04 Gerber Fmt 4.6, Leading zero omitted, Abs format (unit mm)*
G04 Created by KiCad (PCBNEW 7.0.7) date 2023-09-25 11:45:10*
%MOMM*%
%LPD*%
G01*
G04 APERTURE LIST*
%ADD10C,0.300000*%
%TA.AperFunction,NonConductor*%
%ADD11C,0.300000*%
%TD*%
%TA.AperFunction,EtchedComponent*%
%ADD12C,0.010000*%
%TD*%
%TA.AperFunction,ComponentPad*%
%ADD13C,4.400000*%
%TD*%
%TA.AperFunction,ComponentPad*%
%ADD14C,0.600000*%
%TD*%
%TA.AperFunction,ComponentPad*%
%ADD15O,1.000000X1.600000*%
%TD*%
%TA.AperFunction,ComponentPad*%
%ADD16O,1.000000X2.100000*%
%TD*%
%TA.AperFunction,ViaPad*%
%ADD17C,0.800000*%
%TD*%
%TA.AperFunction,Conductor*%
%ADD18C,0.381000*%
%TD*%
%TA.AperFunction,Conductor*%
%ADD19C,0.300000*%
%TD*%
%TA.AperFunction,Conductor*%
%ADD20C,0.200000*%
%TD*%
%TA.AperFunction,Conductor*%
%ADD21C,0.500000*%
%TD*%
G04 APERTURE END LIST*
D10*
D11*
G36*
X71070416Y-128752179D02*
G01*
X71183412Y-128757905D01*
X71292704Y-128767449D01*
X71398290Y-128780810D01*
X71500172Y-128797989D01*
X71598348Y-128818985D01*
X71692821Y-128843798D01*
X71783588Y-128872429D01*
X71870650Y-128904878D01*
X71954008Y-128941144D01*
X72033661Y-128981228D01*
X72109609Y-129025129D01*
X72181852Y-129072848D01*
X72250391Y-129124384D01*
X72315225Y-129179737D01*
X72376354Y-129238908D01*
X72433778Y-129301897D01*
X72487497Y-129368703D01*
X72537512Y-129439326D01*
X72583822Y-129513767D01*
X72626427Y-129592026D01*
X72665327Y-129674102D01*
X72700523Y-129759995D01*
X72732013Y-129849706D01*
X72759799Y-129943235D01*
X72783880Y-130040581D01*
X72804257Y-130141744D01*
X72820928Y-130246725D01*
X72833895Y-130355523D01*
X72843157Y-130468139D01*
X72848714Y-130584572D01*
X72850566Y-130704823D01*
X72848714Y-130831611D01*
X72843157Y-130954373D01*
X72833895Y-131073111D01*
X72820928Y-131187823D01*
X72804257Y-131298511D01*
X72783880Y-131405173D01*
X72759799Y-131507810D01*
X72732013Y-131606423D01*
X72700523Y-131701010D01*
X72665327Y-131791573D01*
X72626427Y-131878110D01*
X72583822Y-131960623D01*
X72537512Y-132039110D01*
X72487497Y-132113573D01*
X72433778Y-132184010D01*
X72376354Y-132250423D01*
X72315225Y-132312810D01*
X72250391Y-132371173D01*
X72181852Y-132425510D01*
X72109609Y-132475822D01*
X72033661Y-132522110D01*
X71954008Y-132564372D01*
X71870650Y-132602610D01*
X71783588Y-132636822D01*
X71692821Y-132667010D01*
X71598348Y-132693172D01*
X71500172Y-132715310D01*
X71398290Y-132733422D01*
X71292704Y-132747510D01*
X71183412Y-132757572D01*
X71070416Y-132763610D01*
X70953715Y-132765622D01*
X70906277Y-132765292D01*
X70857727Y-132764302D01*
X70808067Y-132762652D01*
X70757296Y-132760342D01*
X70705413Y-132757371D01*
X70652420Y-132753741D01*
X70598316Y-132749450D01*
X70561630Y-132746223D01*
X70524449Y-132742702D01*
X70486775Y-132738888D01*
X70448608Y-132734781D01*
X70409946Y-132730380D01*
X70390430Y-132728070D01*
X70347032Y-132720418D01*
X70306138Y-132708339D01*
X70267748Y-132691832D01*
X70231863Y-132670897D01*
X70198483Y-132645535D01*
X70167607Y-132615746D01*
X70155957Y-132602590D01*
X70129571Y-132567702D01*
X70107657Y-132531160D01*
X70090216Y-132492963D01*
X70077246Y-132453111D01*
X70068749Y-132411604D01*
X70068025Y-132403838D01*
X70386767Y-132403838D01*
X70406001Y-132427651D01*
X70459528Y-132436981D01*
X70512604Y-132445393D01*
X70565230Y-132452888D01*
X70617405Y-132459465D01*
X70669128Y-132465124D01*
X70720402Y-132469865D01*
X70771224Y-132473689D01*
X70821595Y-132476595D01*
X70871516Y-132478584D01*
X70920986Y-132479654D01*
X70953715Y-132479858D01*
X71004240Y-132479442D01*
X71053918Y-132478195D01*
X71102750Y-132476115D01*
X71150736Y-132473204D01*
X71197876Y-132469460D01*
X71244170Y-132464885D01*
X71289618Y-132459478D01*
X71334219Y-132453240D01*
X71377974Y-132446169D01*
X71420884Y-132438267D01*
X71462947Y-132429532D01*
X71504163Y-132419966D01*
X71544534Y-132409568D01*
X71584059Y-132398339D01*
X71622737Y-132386277D01*
X71660570Y-132373384D01*
X71697556Y-132359658D01*
X71733696Y-132345101D01*
X71768990Y-132329712D01*
X71803437Y-132313492D01*
X71837039Y-132296439D01*
X71869794Y-132278555D01*
X71901704Y-132259838D01*
X71932767Y-132240290D01*
X71992355Y-132198699D01*
X72048558Y-132153780D01*
X72101377Y-132105533D01*
X72150811Y-132053960D01*
X72197172Y-131998780D01*
X72240541Y-131939714D01*
X72261105Y-131908724D01*
X72280920Y-131876763D01*
X72299988Y-131843831D01*
X72318308Y-131809927D01*
X72335880Y-131775052D01*
X72352705Y-131739205D01*
X72368781Y-131702387D01*
X72384110Y-131664598D01*
X72398692Y-131625837D01*
X72412525Y-131586105D01*
X72425611Y-131545401D01*
X72437949Y-131503726D01*
X72449539Y-131461080D01*
X72460381Y-131417463D01*
X72470476Y-131372874D01*
X72479823Y-131327313D01*
X72488422Y-131280782D01*
X72496274Y-131233279D01*
X72503377Y-131184804D01*
X72509733Y-131135359D01*
X72515341Y-131084941D01*
X72520202Y-131033553D01*
X72524314Y-130981193D01*
X72527679Y-130927862D01*
X72530296Y-130873559D01*
X72532166Y-130818285D01*
X72533288Y-130762040D01*
X72533661Y-130704823D01*
X72533285Y-130651627D01*
X72532155Y-130599315D01*
X72530272Y-130547886D01*
X72527636Y-130497341D01*
X72524247Y-130447680D01*
X72520105Y-130398902D01*
X72515210Y-130351008D01*
X72509561Y-130303998D01*
X72503160Y-130257871D01*
X72496005Y-130212629D01*
X72488098Y-130168270D01*
X72479437Y-130124794D01*
X72470023Y-130082203D01*
X72459855Y-130040495D01*
X72448935Y-129999670D01*
X72437262Y-129959730D01*
X72424835Y-129920673D01*
X72411656Y-129882500D01*
X72397723Y-129845211D01*
X72383037Y-129808805D01*
X72367598Y-129773283D01*
X72351406Y-129738645D01*
X72334461Y-129704890D01*
X72316762Y-129672020D01*
X72298311Y-129640032D01*
X72259148Y-129578709D01*
X72216974Y-129520921D01*
X72171786Y-129466668D01*
X72148063Y-129440867D01*
X72098318Y-129391733D01*
X72045252Y-129345769D01*
X71988866Y-129302975D01*
X71929160Y-129263352D01*
X71866134Y-129226898D01*
X71833376Y-129209859D01*
X71799788Y-129193614D01*
X71765370Y-129178160D01*
X71730122Y-129163499D01*
X71694043Y-129149631D01*
X71657135Y-129136555D01*
X71619396Y-129124272D01*
X71580828Y-129112781D01*
X71541430Y-129102082D01*
X71501201Y-129092177D01*
X71460143Y-129083063D01*
X71418254Y-129074742D01*
X71375535Y-129067213D01*
X71331987Y-129060477D01*
X71287608Y-129054534D01*
X71242399Y-129049383D01*
X71196360Y-129045024D01*
X71149491Y-129041458D01*
X71101792Y-129038684D01*
X71053264Y-129036703D01*
X71003905Y-129035514D01*
X70953715Y-129035118D01*
X70904546Y-129035577D01*
X70854926Y-129036954D01*
X70804855Y-129039248D01*
X70754333Y-129042460D01*
X70703361Y-129046589D01*
X70651937Y-129051637D01*
X70600063Y-129057602D01*
X70547738Y-129064485D01*
X70494962Y-129072285D01*
X70441736Y-129081003D01*
X70406001Y-129087325D01*
X70386767Y-129111139D01*
X70386767Y-132403838D01*
X70068025Y-132403838D01*
X70064724Y-132368443D01*
X70064366Y-132350715D01*
X70064366Y-129164262D01*
X70066602Y-129120461D01*
X70073311Y-129078359D01*
X70084491Y-129037957D01*
X70100144Y-128999255D01*
X70120269Y-128962251D01*
X70144866Y-128926948D01*
X70155957Y-128913302D01*
X70185698Y-128881478D01*
X70217674Y-128854126D01*
X70251886Y-128831246D01*
X70288335Y-128812838D01*
X70327020Y-128798903D01*
X70367941Y-128789439D01*
X70384935Y-128786906D01*
X70434289Y-128780359D01*
X70484465Y-128774456D01*
X70535462Y-128769196D01*
X70587280Y-128764581D01*
X70639919Y-128760610D01*
X70693379Y-128757282D01*
X70747660Y-128754599D01*
X70784303Y-128753168D01*
X70821312Y-128752023D01*
X70858685Y-128751164D01*
X70896424Y-128750592D01*
X70934527Y-128750306D01*
X70953715Y-128750270D01*
X71070416Y-128752179D01*
G37*
G36*
X75729274Y-132416660D02*
G01*
X75684852Y-132458917D01*
X75638141Y-132498448D01*
X75589139Y-132535253D01*
X75537848Y-132569331D01*
X75484268Y-132600683D01*
X75428397Y-132629309D01*
X75370237Y-132655209D01*
X75309787Y-132678382D01*
X75247047Y-132698829D01*
X75182017Y-132716550D01*
X75114698Y-132731544D01*
X75045088Y-132743812D01*
X74973189Y-132753354D01*
X74936381Y-132757103D01*
X74899001Y-132760170D01*
X74861048Y-132762555D01*
X74822522Y-132764259D01*
X74783424Y-132765282D01*
X74743754Y-132765622D01*
X74704083Y-132765282D01*
X74664982Y-132764259D01*
X74626452Y-132762555D01*
X74588493Y-132760170D01*
X74551104Y-132757103D01*
X74514286Y-132753354D01*
X74442362Y-132743812D01*
X74372721Y-132731544D01*
X74305362Y-132716550D01*
X74240286Y-132698829D01*
X74177492Y-132678382D01*
X74116981Y-132655209D01*
X74058753Y-132629309D01*
X74002807Y-132600683D01*
X73949144Y-132569331D01*
X73897764Y-132535253D01*
X73848666Y-132498448D01*
X73801851Y-132458917D01*
X73757318Y-132416660D01*
X73715394Y-132371759D01*
X73676174Y-132324296D01*
X73639659Y-132274272D01*
X73605849Y-132221686D01*
X73574744Y-132166538D01*
X73546344Y-132108828D01*
X73520648Y-132048557D01*
X73497657Y-131985724D01*
X73477371Y-131920330D01*
X73459790Y-131852374D01*
X73444914Y-131781856D01*
X73438490Y-131745636D01*
X73432742Y-131708776D01*
X73427671Y-131671275D01*
X73423275Y-131633135D01*
X73419556Y-131594353D01*
X73416513Y-131554932D01*
X73414147Y-131514869D01*
X73412456Y-131474167D01*
X73411442Y-131432824D01*
X73411104Y-131390840D01*
X73411104Y-128963677D01*
X73415844Y-128925127D01*
X73430066Y-128889617D01*
X73453769Y-128857149D01*
X73459647Y-128851020D01*
X73488619Y-128827554D01*
X73524719Y-128810488D01*
X73560726Y-128803235D01*
X73577800Y-128802477D01*
X73616744Y-128806949D01*
X73652289Y-128820366D01*
X73684435Y-128842727D01*
X73690457Y-128848272D01*
X73716056Y-128878827D01*
X73732173Y-128914390D01*
X73738573Y-128950679D01*
X73739000Y-128963677D01*
X73739000Y-131400915D01*
X73739986Y-131466958D01*
X73742946Y-131530903D01*
X73747879Y-131592752D01*
X73754785Y-131652505D01*
X73763664Y-131710160D01*
X73774516Y-131765720D01*
X73787342Y-131819182D01*
X73802140Y-131870549D01*
X73818912Y-131919818D01*
X73837657Y-131966991D01*
X73858375Y-132012068D01*
X73881066Y-132055047D01*
X73905730Y-132095931D01*
X73932368Y-132134717D01*
X73960978Y-132171407D01*
X73991562Y-132206001D01*
X74024119Y-132238498D01*
X74058649Y-132268898D01*
X74095152Y-132297202D01*
X74133629Y-132323409D01*
X74174078Y-132347520D01*
X74216501Y-132369534D01*
X74260896Y-132389451D01*
X74307265Y-132407272D01*
X74355607Y-132422997D01*
X74405922Y-132436624D01*
X74458211Y-132448156D01*
X74512472Y-132457590D01*
X74568707Y-132464928D01*
X74626914Y-132470170D01*
X74687095Y-132473314D01*
X74749249Y-132474363D01*
X74811065Y-132473314D01*
X74870919Y-132470170D01*
X74928810Y-132464928D01*
X74984739Y-132457590D01*
X75038705Y-132448156D01*
X75090709Y-132436624D01*
X75140750Y-132422997D01*
X75188829Y-132407272D01*
X75234946Y-132389451D01*
X75279100Y-132369534D01*
X75321292Y-132347520D01*
X75361521Y-132323409D01*
X75399788Y-132297202D01*
X75436093Y-132268898D01*
X75470435Y-132238498D01*
X75502815Y-132206001D01*
X75533232Y-132171407D01*
X75561687Y-132134717D01*
X75588180Y-132095931D01*
X75612710Y-132055047D01*
X75635278Y-132012068D01*
X75655883Y-131966991D01*
X75674526Y-131919818D01*
X75691206Y-131870549D01*
X75705924Y-131819182D01*
X75718680Y-131765720D01*
X75729473Y-131710160D01*
X75738304Y-131652505D01*
X75745172Y-131592752D01*
X75750079Y-131530903D01*
X75753022Y-131466958D01*
X75754003Y-131400915D01*
X75754003Y-128963677D01*
X75757553Y-128926406D01*
X75769825Y-128889411D01*
X75790862Y-128857068D01*
X75798883Y-128848272D01*
X75829831Y-128824122D01*
X75865430Y-128808917D01*
X75905680Y-128802656D01*
X75914288Y-128802477D01*
X75952002Y-128806099D01*
X75989318Y-128818622D01*
X76021804Y-128840088D01*
X76030608Y-128848272D01*
X76054758Y-128879220D01*
X76069964Y-128914819D01*
X76076225Y-128955069D01*
X76076404Y-128963677D01*
X76076404Y-131390840D01*
X76076065Y-131432824D01*
X76075048Y-131474167D01*
X76073353Y-131514869D01*
X76070980Y-131554932D01*
X76067929Y-131594353D01*
X76064200Y-131633135D01*
X76059793Y-131671275D01*
X76054708Y-131708776D01*
X76048945Y-131745636D01*
X76042504Y-131781856D01*
X76027589Y-131852374D01*
X76009961Y-131920330D01*
X75989621Y-131985724D01*
X75966570Y-132048557D01*
X75940806Y-132108828D01*
X75912331Y-132166538D01*
X75881143Y-132221686D01*
X75847244Y-132274272D01*
X75810632Y-132324296D01*
X75771309Y-132371759D01*
X75729274Y-132416660D01*
G37*
G36*
X77204806Y-132712500D02*
G01*
X77164131Y-132710107D01*
X77125111Y-132702929D01*
X77087745Y-132690966D01*
X77052035Y-132674217D01*
X77017979Y-132652684D01*
X76985578Y-132626365D01*
X76973080Y-132614497D01*
X76944847Y-132582758D01*
X76921399Y-132549364D01*
X76902737Y-132514315D01*
X76888860Y-132477611D01*
X76879768Y-132439253D01*
X76875461Y-132399240D01*
X76875078Y-132382772D01*
X76875078Y-129133121D01*
X76877471Y-129092204D01*
X76884649Y-129053032D01*
X76896612Y-129015604D01*
X76913360Y-128979920D01*
X76934894Y-128945981D01*
X76961213Y-128913785D01*
X76973080Y-128901395D01*
X77004820Y-128872898D01*
X77038214Y-128849231D01*
X77073263Y-128830394D01*
X77109966Y-128816387D01*
X77148324Y-128807210D01*
X77188337Y-128802863D01*
X77204806Y-128802477D01*
X78972513Y-128802477D01*
X79011584Y-128807672D01*
X79045675Y-128823257D01*
X79072348Y-128846441D01*
X79095292Y-128877984D01*
X79108712Y-128913424D01*
X79112648Y-128949023D01*
X79107886Y-128987158D01*
X79093600Y-129020964D01*
X79072348Y-129047941D01*
X79042369Y-129070885D01*
X79007844Y-129084305D01*
X78972513Y-129088241D01*
X77215797Y-129088241D01*
X77197479Y-129106559D01*
X77197479Y-130435546D01*
X77215797Y-130453864D01*
X78867184Y-130453864D01*
X78905319Y-130458626D01*
X78939126Y-130472912D01*
X78966102Y-130494164D01*
X78989568Y-130524143D01*
X79003293Y-130558668D01*
X79007318Y-130593998D01*
X79002448Y-130632655D01*
X78987837Y-130666766D01*
X78966102Y-130693832D01*
X78936231Y-130716777D01*
X78902031Y-130730197D01*
X78867184Y-130734132D01*
X77215797Y-130734132D01*
X77197479Y-130746955D01*
X77197479Y-132408417D01*
X77215797Y-132426735D01*
X78972513Y-132426735D01*
X79011170Y-132431497D01*
X79045282Y-132445783D01*
X79072348Y-132467035D01*
X79095292Y-132497015D01*
X79108712Y-132531539D01*
X79112648Y-132566870D01*
X79107886Y-132605438D01*
X79093600Y-132640543D01*
X79072348Y-132669452D01*
X79042782Y-132693960D01*
X79008238Y-132708296D01*
X78972513Y-132712500D01*
X77204806Y-132712500D01*
G37*
G36*
X79925976Y-129093736D02*
G01*
X79886995Y-129088650D01*
X79851909Y-129073390D01*
X79823394Y-129050689D01*
X79798886Y-129019145D01*
X79784551Y-128983705D01*
X79780347Y-128948107D01*
X79785433Y-128909125D01*
X79800693Y-128874039D01*
X79823394Y-128845525D01*
X79854938Y-128821016D01*
X79890378Y-128806681D01*
X79925976Y-128802477D01*
X82363215Y-128802477D01*
X82402088Y-128807564D01*
X82436849Y-128822824D01*
X82464881Y-128845525D01*
X82489390Y-128877068D01*
X82503725Y-128912508D01*
X82507929Y-128948107D01*
X82502842Y-128987088D01*
X82487582Y-129022174D01*
X82464881Y-129050689D01*
X82433859Y-129075197D01*
X82398724Y-129089533D01*
X82363215Y-129093736D01*
X81323656Y-129093736D01*
X81305338Y-129111139D01*
X81305338Y-132551299D01*
X81301498Y-132589013D01*
X81288225Y-132626330D01*
X81265470Y-132658816D01*
X81256795Y-132667620D01*
X81225328Y-132691287D01*
X81190463Y-132706188D01*
X81152198Y-132712324D01*
X81144138Y-132712500D01*
X81105587Y-132708117D01*
X81070078Y-132694968D01*
X81037609Y-132673055D01*
X81031481Y-132667620D01*
X81005882Y-132636583D01*
X80989764Y-132600715D01*
X80983364Y-132564305D01*
X80982937Y-132551299D01*
X80982937Y-129111139D01*
X80964619Y-129093736D01*
X79925976Y-129093736D01*
G37*
D10*
D11*
G36*
X85019155Y-130738692D02*
G01*
X84989511Y-130728339D01*
X84960809Y-130717621D01*
X84933047Y-130706538D01*
X84906226Y-130695089D01*
X84880347Y-130683276D01*
X84855408Y-130671097D01*
X84831411Y-130658554D01*
X84808354Y-130645645D01*
X84786239Y-130632371D01*
X84765065Y-130618732D01*
X84744832Y-130604728D01*
X84725540Y-130590359D01*
X84707189Y-130575624D01*
X84689779Y-130560525D01*
X84673310Y-130545060D01*
X84657783Y-130529231D01*
X84643196Y-130513036D01*
X84629550Y-130496476D01*
X84616846Y-130479551D01*
X84605082Y-130462261D01*
X84594260Y-130444606D01*
X84584379Y-130426585D01*
X84575439Y-130408200D01*
X84567439Y-130389449D01*
X84560381Y-130370334D01*
X84554264Y-130350853D01*
X84549088Y-130331007D01*
X84544854Y-130310796D01*
X84541560Y-130290220D01*
X84539207Y-130269279D01*
X84537796Y-130247972D01*
X84537325Y-130226301D01*
X84537823Y-130201886D01*
X84539316Y-130178153D01*
X84541804Y-130155102D01*
X84545288Y-130132733D01*
X84549767Y-130111046D01*
X84555241Y-130090042D01*
X84561711Y-130069720D01*
X84569176Y-130050080D01*
X84577636Y-130031122D01*
X84587092Y-130012846D01*
X84597543Y-129995252D01*
X84608989Y-129978341D01*
X84621431Y-129962112D01*
X84634868Y-129946565D01*
X84649300Y-129931700D01*
X84664728Y-129917517D01*
X84681040Y-129904108D01*
X84698123Y-129891564D01*
X84715979Y-129879885D01*
X84734606Y-129869071D01*
X84754006Y-129859122D01*
X84774178Y-129850039D01*
X84795122Y-129841820D01*
X84816838Y-129834467D01*
X84839326Y-129827978D01*
X84862586Y-129822355D01*
X84886619Y-129817597D01*
X84911423Y-129813704D01*
X84936999Y-129810676D01*
X84963348Y-129808514D01*
X84990469Y-129807216D01*
X85018361Y-129806783D01*
X85044242Y-129807027D01*
X85069889Y-129807757D01*
X85095305Y-129808974D01*
X85120487Y-129810678D01*
X85145437Y-129812869D01*
X85170155Y-129815546D01*
X85194640Y-129818710D01*
X85218892Y-129822361D01*
X85242912Y-129826499D01*
X85266700Y-129831124D01*
X85290254Y-129836236D01*
X85313577Y-129841834D01*
X85336666Y-129847919D01*
X85359523Y-129854491D01*
X85382148Y-129861550D01*
X85404540Y-129869096D01*
X85419177Y-129875640D01*
X85434878Y-129885144D01*
X85449097Y-129896661D01*
X85460107Y-129908136D01*
X85470027Y-129921089D01*
X85478660Y-129934940D01*
X85485506Y-129949405D01*
X85490567Y-129964484D01*
X85493841Y-129980177D01*
X85495329Y-129996483D01*
X85495429Y-130002056D01*
X85493469Y-130019370D01*
X85487590Y-130034402D01*
X85477792Y-130047153D01*
X85464074Y-130057621D01*
X85448446Y-130064715D01*
X85432521Y-130067742D01*
X85416298Y-130066700D01*
X85399777Y-130061590D01*
X85376900Y-130051785D01*
X85354010Y-130042613D01*
X85331108Y-130034074D01*
X85308194Y-130026167D01*
X85285267Y-130018893D01*
X85262327Y-130012251D01*
X85239376Y-130006241D01*
X85216412Y-130000865D01*
X85193435Y-129996121D01*
X85170446Y-129992009D01*
X85147445Y-129988530D01*
X85124431Y-129985684D01*
X85101405Y-129983470D01*
X85078367Y-129981888D01*
X85055316Y-129980939D01*
X85032253Y-129980623D01*
X85015842Y-129980862D01*
X84999850Y-129981578D01*
X84976647Y-129983548D01*
X84954385Y-129986592D01*
X84933066Y-129990711D01*
X84912688Y-129995904D01*
X84893252Y-130002171D01*
X84874758Y-130009513D01*
X84857206Y-130017929D01*
X84840596Y-130027420D01*
X84824928Y-130037985D01*
X84819914Y-130041745D01*
X84805799Y-130053686D01*
X84793072Y-130066735D01*
X84781734Y-130080895D01*
X84771784Y-130096163D01*
X84763223Y-130112541D01*
X84756050Y-130130028D01*
X84750265Y-130148624D01*
X84745868Y-130168330D01*
X84742860Y-130189144D01*
X84741241Y-130211069D01*
X84740932Y-130226301D01*
X84742067Y-130252685D01*
X84745471Y-130278158D01*
X84751146Y-130302719D01*
X84759090Y-130326368D01*
X84769304Y-130349106D01*
X84781787Y-130370932D01*
X84796541Y-130391846D01*
X84813564Y-130411849D01*
X84832857Y-130430940D01*
X84854419Y-130449120D01*
X84878251Y-130466388D01*
X84904353Y-130482745D01*
X84918256Y-130490581D01*
X84932725Y-130498189D01*
X84947762Y-130505570D01*
X84963367Y-130512722D01*
X84979539Y-130519647D01*
X84996278Y-130526344D01*
X85013585Y-130532813D01*
X85031459Y-130539054D01*
X85049228Y-130544987D01*
X85066665Y-130550978D01*
X85083770Y-130557027D01*
X85100543Y-130563134D01*
X85116985Y-130569300D01*
X85133095Y-130575523D01*
X85148873Y-130581805D01*
X85164319Y-130588145D01*
X85179434Y-130594543D01*
X85194217Y-130600999D01*
X85222787Y-130614086D01*
X85250030Y-130627405D01*
X85275946Y-130640957D01*
X85300535Y-130654741D01*
X85323797Y-130668758D01*
X85345731Y-130683007D01*
X85366339Y-130697489D01*
X85385619Y-130712204D01*
X85403572Y-130727151D01*
X85420199Y-130742331D01*
X85435498Y-130757743D01*
X85449676Y-130773547D01*
X85462939Y-130789904D01*
X85475288Y-130806812D01*
X85486722Y-130824272D01*
X85497241Y-130842285D01*
X85506846Y-130860849D01*
X85515535Y-130879965D01*
X85523311Y-130899633D01*
X85530171Y-130919853D01*
X85536117Y-130940624D01*
X85541148Y-130961948D01*
X85545264Y-130983824D01*
X85548465Y-131006252D01*
X85550752Y-131029231D01*
X85552124Y-131052763D01*
X85552581Y-131076846D01*
X85552039Y-131105143D01*
X85550411Y-131132585D01*
X85547698Y-131159171D01*
X85543899Y-131184901D01*
X85539016Y-131209775D01*
X85533047Y-131233793D01*
X85525993Y-131256956D01*
X85517853Y-131279262D01*
X85508629Y-131300713D01*
X85498319Y-131321308D01*
X85486923Y-131341048D01*
X85474443Y-131359931D01*
X85460877Y-131377959D01*
X85446226Y-131395131D01*
X85430490Y-131411447D01*
X85413668Y-131426907D01*
X85395810Y-131441422D01*
X85376962Y-131455000D01*
X85357125Y-131467642D01*
X85336299Y-131479347D01*
X85314483Y-131490116D01*
X85291679Y-131499948D01*
X85267886Y-131508844D01*
X85243103Y-131516804D01*
X85217331Y-131523827D01*
X85190570Y-131529914D01*
X85162820Y-131535064D01*
X85134081Y-131539278D01*
X85104353Y-131542555D01*
X85073635Y-131544897D01*
X85041928Y-131546301D01*
X85025704Y-131546652D01*
X85009233Y-131546769D01*
X84984481Y-131546487D01*
X84960036Y-131545641D01*
X84935899Y-131544230D01*
X84912068Y-131542255D01*
X84888544Y-131539715D01*
X84865327Y-131536611D01*
X84842418Y-131532943D01*
X84819815Y-131528711D01*
X84797519Y-131523914D01*
X84775530Y-131518553D01*
X84753848Y-131512627D01*
X84732473Y-131506137D01*
X84711405Y-131499083D01*
X84690644Y-131491465D01*
X84670190Y-131483282D01*
X84650043Y-131474535D01*
X84634368Y-131466563D01*
X84620234Y-131457530D01*
X84607642Y-131447437D01*
X84593252Y-131432330D01*
X84581602Y-131415338D01*
X84572694Y-131396461D01*
X84567812Y-131381066D01*
X84564471Y-131364610D01*
X84562672Y-131347094D01*
X84562329Y-131334828D01*
X84564289Y-131317588D01*
X84570168Y-131302778D01*
X84581467Y-131289024D01*
X84593684Y-131280453D01*
X84609535Y-131273904D01*
X84625336Y-131271721D01*
X84641088Y-131273904D01*
X84656790Y-131280453D01*
X84676021Y-131291075D01*
X84695512Y-131301011D01*
X84715264Y-131310262D01*
X84735276Y-131318828D01*
X84755549Y-131326708D01*
X84776082Y-131333904D01*
X84796876Y-131340414D01*
X84817930Y-131346238D01*
X84839244Y-131351378D01*
X84860819Y-131355832D01*
X84882654Y-131359601D01*
X84904750Y-131362685D01*
X84927107Y-131365083D01*
X84949723Y-131366796D01*
X84972601Y-131367824D01*
X84995738Y-131368167D01*
X85017178Y-131367882D01*
X85037936Y-131367029D01*
X85058014Y-131365606D01*
X85077412Y-131363615D01*
X85096129Y-131361054D01*
X85114165Y-131357925D01*
X85131520Y-131354227D01*
X85148195Y-131349959D01*
X85164190Y-131345123D01*
X85179504Y-131339718D01*
X85208089Y-131327200D01*
X85233953Y-131312406D01*
X85257093Y-131295337D01*
X85277512Y-131275991D01*
X85295208Y-131254370D01*
X85310181Y-131230472D01*
X85322432Y-131204299D01*
X85331961Y-131175850D01*
X85338767Y-131145124D01*
X85341149Y-131128908D01*
X85342851Y-131112123D01*
X85343872Y-131094769D01*
X85344212Y-131076846D01*
X85343553Y-131055012D01*
X85341575Y-131033861D01*
X85338278Y-131013393D01*
X85333663Y-130993610D01*
X85327729Y-130974510D01*
X85320477Y-130956094D01*
X85311906Y-130938362D01*
X85302017Y-130921313D01*
X85290809Y-130904948D01*
X85278282Y-130889267D01*
X85269199Y-130879193D01*
X85254255Y-130864470D01*
X85237553Y-130850067D01*
X85219092Y-130835986D01*
X85205809Y-130826777D01*
X85191744Y-130817710D01*
X85176897Y-130808786D01*
X85161270Y-130800005D01*
X85144861Y-130791367D01*
X85127670Y-130782870D01*
X85109698Y-130774517D01*
X85090945Y-130766306D01*
X85071410Y-130758238D01*
X85051094Y-130750313D01*
X85029997Y-130742530D01*
X85019155Y-130738692D01*
G37*
G36*
X85988769Y-131405078D02*
G01*
X85716896Y-130416810D01*
X85713936Y-130399595D01*
X85714432Y-130383026D01*
X85718385Y-130367103D01*
X85725795Y-130351825D01*
X85731581Y-130343385D01*
X85743549Y-130330240D01*
X85757226Y-130320323D01*
X85772612Y-130313635D01*
X85789707Y-130310176D01*
X85800244Y-130309649D01*
X85816904Y-130310640D01*
X85832950Y-130313612D01*
X85848383Y-130318565D01*
X85863201Y-130325500D01*
X85877406Y-130334416D01*
X85882004Y-130337828D01*
X85894897Y-130348861D01*
X85905892Y-130361121D01*
X85914990Y-130374609D01*
X85922190Y-130389325D01*
X85927492Y-130405269D01*
X85928838Y-130410857D01*
X86155861Y-131356260D01*
X86145145Y-131357848D01*
X86134826Y-131356260D01*
X86349943Y-130433480D01*
X86355344Y-130416858D01*
X86362121Y-130401225D01*
X86370274Y-130386579D01*
X86379803Y-130372923D01*
X86390708Y-130360254D01*
X86402989Y-130348574D01*
X86408286Y-130344179D01*
X86422220Y-130334231D01*
X86436736Y-130325970D01*
X86451832Y-130319394D01*
X86467510Y-130314505D01*
X86483770Y-130311301D01*
X86500611Y-130309784D01*
X86507510Y-130309649D01*
X86524717Y-130310502D01*
X86541362Y-130313060D01*
X86557445Y-130317323D01*
X86572967Y-130323292D01*
X86587926Y-130330966D01*
X86602323Y-130340346D01*
X86607924Y-130344576D01*
X86621145Y-130355860D01*
X86632777Y-130368133D01*
X86642819Y-130381395D01*
X86651273Y-130395645D01*
X86658137Y-130410883D01*
X86663412Y-130427109D01*
X86665077Y-130433877D01*
X86878210Y-131356260D01*
X86869875Y-131347528D01*
X86859556Y-131356260D01*
X87086182Y-130408079D01*
X87091699Y-130392535D01*
X87098722Y-130378051D01*
X87107252Y-130364628D01*
X87117289Y-130352265D01*
X87128833Y-130340963D01*
X87133016Y-130337431D01*
X87146341Y-130327990D01*
X87160420Y-130320501D01*
X87177798Y-130314234D01*
X87193509Y-130310978D01*
X87209974Y-130309676D01*
X87212792Y-130309649D01*
X87229879Y-130311263D01*
X87245371Y-130316106D01*
X87259268Y-130324178D01*
X87271569Y-130335478D01*
X87277882Y-130343385D01*
X87286803Y-130358334D01*
X87292381Y-130373664D01*
X87294664Y-130391648D01*
X87293079Y-130407791D01*
X87291377Y-130414826D01*
X87019504Y-131405078D01*
X87014103Y-131420766D01*
X87007326Y-131435582D01*
X86999173Y-131449525D01*
X86989644Y-131462597D01*
X86978739Y-131474796D01*
X86966458Y-131486124D01*
X86961161Y-131490410D01*
X86947389Y-131500015D01*
X86933114Y-131507992D01*
X86918335Y-131514340D01*
X86903053Y-131519061D01*
X86887266Y-131522154D01*
X86870976Y-131523619D01*
X86864318Y-131523750D01*
X86847816Y-131522906D01*
X86831799Y-131520377D01*
X86816266Y-131516162D01*
X86801218Y-131510261D01*
X86786654Y-131502674D01*
X86772575Y-131493401D01*
X86767079Y-131489220D01*
X86754257Y-131477993D01*
X86742831Y-131465894D01*
X86732800Y-131452924D01*
X86724165Y-131439081D01*
X86716925Y-131424366D01*
X86711080Y-131408779D01*
X86709132Y-131402300D01*
X86493619Y-130493014D01*
X86503938Y-130491427D01*
X86514654Y-130493014D01*
X86299140Y-131401903D01*
X86294644Y-131417848D01*
X86288598Y-131432941D01*
X86281001Y-131447181D01*
X86271854Y-131460569D01*
X86261156Y-131473104D01*
X86248908Y-131484786D01*
X86243575Y-131489220D01*
X86229690Y-131499167D01*
X86215320Y-131507429D01*
X86200465Y-131514004D01*
X86185126Y-131518894D01*
X86169303Y-131522097D01*
X86152995Y-131523615D01*
X86146336Y-131523750D01*
X86129815Y-131522936D01*
X86113739Y-131520494D01*
X86098110Y-131516424D01*
X86082926Y-131510726D01*
X86068188Y-131503401D01*
X86053895Y-131494448D01*
X86048303Y-131490410D01*
X86035129Y-131479432D01*
X86023388Y-131467581D01*
X86013082Y-131454858D01*
X86004210Y-131441264D01*
X85996772Y-131426797D01*
X85990769Y-131411458D01*
X85988769Y-131405078D01*
G37*
G36*
X87803768Y-131492792D02*
G01*
X87790042Y-131504854D01*
X87774911Y-131513954D01*
X87758374Y-131520091D01*
X87740432Y-131523266D01*
X87729549Y-131523750D01*
X87713381Y-131522661D01*
X87695789Y-131518640D01*
X87679565Y-131511657D01*
X87664707Y-131501710D01*
X87654932Y-131492792D01*
X87643334Y-131478580D01*
X87634584Y-131463381D01*
X87628683Y-131447195D01*
X87625630Y-131430020D01*
X87625165Y-131419763D01*
X87625165Y-130413635D01*
X87626590Y-130395916D01*
X87630863Y-130379222D01*
X87637985Y-130363553D01*
X87647956Y-130348910D01*
X87654932Y-130341004D01*
X87666746Y-130330348D01*
X87681799Y-130320703D01*
X87698219Y-130314058D01*
X87716006Y-130310414D01*
X87729549Y-130309649D01*
X87745702Y-130310751D01*
X87763242Y-130314824D01*
X87779377Y-130321897D01*
X87794107Y-130331971D01*
X87803768Y-130341004D01*
X87815367Y-130355060D01*
X87824116Y-130370143D01*
X87830018Y-130386251D01*
X87833070Y-130403384D01*
X87833535Y-130413635D01*
X87833535Y-131419763D01*
X87832111Y-131437502D01*
X87827837Y-131454253D01*
X87820715Y-131470016D01*
X87810744Y-131484792D01*
X87803768Y-131492792D01*
G37*
G36*
X87803371Y-130023885D02*
G01*
X87789664Y-130035483D01*
X87774590Y-130044233D01*
X87758148Y-130050134D01*
X87740339Y-130053187D01*
X87729549Y-130053652D01*
X87713516Y-130052605D01*
X87696046Y-130048739D01*
X87679906Y-130042024D01*
X87665095Y-130032460D01*
X87655329Y-130023885D01*
X87643576Y-130010023D01*
X87634709Y-129994832D01*
X87628730Y-129978312D01*
X87625637Y-129960462D01*
X87625165Y-129949665D01*
X87625165Y-129887750D01*
X87626590Y-129870030D01*
X87630863Y-129853336D01*
X87637985Y-129837668D01*
X87647956Y-129823025D01*
X87654932Y-129815118D01*
X87666746Y-129804462D01*
X87681799Y-129794817D01*
X87698219Y-129788173D01*
X87716006Y-129784529D01*
X87729549Y-129783763D01*
X87745702Y-129784866D01*
X87763242Y-129788938D01*
X87779377Y-129796011D01*
X87794107Y-129806085D01*
X87803768Y-129815118D01*
X87815367Y-129829175D01*
X87824116Y-129844257D01*
X87830018Y-129860365D01*
X87833070Y-129877499D01*
X87833535Y-129887750D01*
X87833535Y-129949665D01*
X87832474Y-129965698D01*
X87828557Y-129983168D01*
X87821752Y-129999308D01*
X87812061Y-130014119D01*
X87803371Y-130023885D01*
G37*
G36*
X88262975Y-130518019D02*
G01*
X88246231Y-130516580D01*
X88230926Y-130512264D01*
X88215427Y-130503968D01*
X88204631Y-130494999D01*
X88194560Y-130482571D01*
X88186670Y-130466870D01*
X88182713Y-130451385D01*
X88181612Y-130436655D01*
X88183050Y-130419936D01*
X88188108Y-130402906D01*
X88196808Y-130387760D01*
X88204631Y-130378709D01*
X88217059Y-130368464D01*
X88232760Y-130360437D01*
X88248245Y-130356412D01*
X88262975Y-130355292D01*
X88429671Y-130355292D01*
X88437609Y-130347354D01*
X88437609Y-130020313D01*
X88438995Y-130002707D01*
X88443154Y-129986355D01*
X88450086Y-129971256D01*
X88459791Y-129957411D01*
X88466582Y-129950062D01*
X88479865Y-129938773D01*
X88494364Y-129930256D01*
X88510079Y-129924513D01*
X88527009Y-129921542D01*
X88537229Y-129921089D01*
X88554854Y-129922475D01*
X88571263Y-129926635D01*
X88586456Y-129933567D01*
X88600435Y-129943272D01*
X88607876Y-129950062D01*
X88619166Y-129963191D01*
X88627682Y-129977574D01*
X88633426Y-129993209D01*
X88636397Y-130010099D01*
X88636850Y-130020313D01*
X88636850Y-130347354D01*
X88644788Y-130355292D01*
X88987704Y-130355292D01*
X89004424Y-130356755D01*
X89021454Y-130361901D01*
X89036600Y-130370750D01*
X89045651Y-130378709D01*
X89055896Y-130390963D01*
X89063923Y-130406528D01*
X89067947Y-130421944D01*
X89069068Y-130436655D01*
X89067604Y-130453399D01*
X89063214Y-130468704D01*
X89054775Y-130484203D01*
X89045651Y-130494999D01*
X89031761Y-130506126D01*
X89015986Y-130513612D01*
X89000383Y-130517209D01*
X88987704Y-130518019D01*
X88644788Y-130518019D01*
X88636850Y-130525560D01*
X88636850Y-131129236D01*
X88637006Y-131148791D01*
X88637476Y-131167468D01*
X88638259Y-131185268D01*
X88639355Y-131202190D01*
X88640764Y-131218235D01*
X88643465Y-131240657D01*
X88646871Y-131261104D01*
X88650982Y-131279578D01*
X88655797Y-131296076D01*
X88663313Y-131315003D01*
X88672082Y-131330420D01*
X88676936Y-131336812D01*
X88691352Y-131350419D01*
X88705607Y-131359643D01*
X88722279Y-131367392D01*
X88741371Y-131373665D01*
X88757276Y-131377401D01*
X88774542Y-131380307D01*
X88793169Y-131382382D01*
X88813156Y-131383627D01*
X88834503Y-131384043D01*
X88851985Y-131383869D01*
X88868711Y-131383348D01*
X88884679Y-131382480D01*
X88903576Y-131380906D01*
X88921291Y-131378790D01*
X88937824Y-131376131D01*
X88953175Y-131372930D01*
X88969859Y-131371688D01*
X88985979Y-131374213D01*
X89001533Y-131380506D01*
X89009931Y-131385630D01*
X89022977Y-131396967D01*
X89031754Y-131410439D01*
X89036261Y-131426046D01*
X89036919Y-131435639D01*
X89035530Y-131453425D01*
X89031363Y-131470268D01*
X89024417Y-131486169D01*
X89014693Y-131501127D01*
X89002811Y-131513976D01*
X88989391Y-131523948D01*
X88974433Y-131531042D01*
X88957937Y-131535259D01*
X88942260Y-131537957D01*
X88925590Y-131540295D01*
X88907929Y-131542273D01*
X88889275Y-131543892D01*
X88869628Y-131545151D01*
X88848990Y-131546050D01*
X88832860Y-131546488D01*
X88816172Y-131546724D01*
X88804736Y-131546769D01*
X88779383Y-131546428D01*
X88755019Y-131545405D01*
X88731644Y-131543700D01*
X88709258Y-131541312D01*
X88687861Y-131538242D01*
X88667454Y-131534490D01*
X88648036Y-131530056D01*
X88629606Y-131524940D01*
X88612166Y-131519142D01*
X88595715Y-131512661D01*
X88580253Y-131505499D01*
X88565781Y-131497654D01*
X88552297Y-131489127D01*
X88533926Y-131475057D01*
X88517781Y-131459453D01*
X88503454Y-131441785D01*
X88490535Y-131421676D01*
X88482706Y-131406914D01*
X88475503Y-131391066D01*
X88468926Y-131374133D01*
X88462976Y-131356114D01*
X88457652Y-131337011D01*
X88452954Y-131316822D01*
X88448883Y-131295547D01*
X88445438Y-131273188D01*
X88442619Y-131249743D01*
X88440427Y-131225213D01*
X88438861Y-131199598D01*
X88437922Y-131172898D01*
X88437609Y-131145112D01*
X88437609Y-130525560D01*
X88429671Y-130518019D01*
X88262975Y-130518019D01*
G37*
G36*
X89850950Y-131546769D02*
G01*
X89833859Y-131546613D01*
X89817014Y-131546143D01*
X89800417Y-131545360D01*
X89784067Y-131544264D01*
X89767965Y-131542855D01*
X89752110Y-131541132D01*
X89721141Y-131536748D01*
X89691161Y-131531111D01*
X89662171Y-131524221D01*
X89634170Y-131516078D01*
X89607158Y-131506683D01*
X89581135Y-131496035D01*
X89556101Y-131484134D01*
X89532056Y-131470981D01*
X89509001Y-131456575D01*
X89486934Y-131440916D01*
X89465857Y-131424005D01*
X89445769Y-131405841D01*
X89426670Y-131386424D01*
X89408647Y-131365751D01*
X89391787Y-131343919D01*
X89376089Y-131320927D01*
X89361554Y-131296775D01*
X89348182Y-131271464D01*
X89335973Y-131244993D01*
X89324927Y-131217362D01*
X89315043Y-131188572D01*
X89306323Y-131158622D01*
X89302398Y-131143212D01*
X89298764Y-131127512D01*
X89295421Y-131111522D01*
X89292369Y-131095243D01*
X89289608Y-131078673D01*
X89287137Y-131061814D01*
X89284956Y-131044664D01*
X89283067Y-131027225D01*
X89281468Y-131009496D01*
X89280160Y-130991477D01*
X89279143Y-130973168D01*
X89278416Y-130954568D01*
X89277980Y-130935680D01*
X89277834Y-130916501D01*
X89277975Y-130897492D01*
X89278397Y-130878766D01*
X89279101Y-130860323D01*
X89280086Y-130842164D01*
X89281352Y-130824287D01*
X89282900Y-130806693D01*
X89284729Y-130789382D01*
X89286839Y-130772354D01*
X89289231Y-130755608D01*
X89291904Y-130739146D01*
X89294859Y-130722967D01*
X89298095Y-130707071D01*
X89301612Y-130691457D01*
X89309491Y-130661079D01*
X89318496Y-130631833D01*
X89328626Y-130603719D01*
X89339881Y-130576736D01*
X89352263Y-130550885D01*
X89365769Y-130526166D01*
X89380402Y-130502579D01*
X89396160Y-130480123D01*
X89413043Y-130458799D01*
X89421907Y-130448562D01*
X89440423Y-130428953D01*
X89459854Y-130410609D01*
X89480200Y-130393530D01*
X89501460Y-130377716D01*
X89523635Y-130363168D01*
X89546724Y-130349884D01*
X89570729Y-130337866D01*
X89595648Y-130327112D01*
X89621482Y-130317624D01*
X89648230Y-130309401D01*
X89675893Y-130302443D01*
X89704471Y-130296750D01*
X89733964Y-130292322D01*
X89764371Y-130289159D01*
X89795694Y-130287261D01*
X89811698Y-130286787D01*
X89827930Y-130286629D01*
X89850598Y-130286856D01*
X89873502Y-130287536D01*
X89896644Y-130288670D01*
X89920022Y-130290257D01*
X89943638Y-130292297D01*
X89959514Y-130293910D01*
X89975495Y-130295724D01*
X89991582Y-130297739D01*
X90007774Y-130299956D01*
X90024072Y-130302375D01*
X90040474Y-130304995D01*
X90056983Y-130307817D01*
X90073597Y-130310840D01*
X90081943Y-130312427D01*
X90099282Y-130317587D01*
X90115183Y-130325525D01*
X90129645Y-130336241D01*
X90141119Y-130347896D01*
X90142668Y-130349735D01*
X90152411Y-130363059D01*
X90159761Y-130377333D01*
X90164718Y-130392557D01*
X90167282Y-130408730D01*
X90167672Y-130418398D01*
X90165837Y-130434547D01*
X90159383Y-130450520D01*
X90148283Y-130464170D01*
X90138302Y-130471979D01*
X90123567Y-130479817D01*
X90106398Y-130484603D01*
X90088600Y-130485120D01*
X90076386Y-130483092D01*
X90054746Y-130477843D01*
X90032987Y-130473111D01*
X90011109Y-130468894D01*
X89989113Y-130465194D01*
X89966998Y-130462011D01*
X89944765Y-130459343D01*
X89922413Y-130457192D01*
X89899942Y-130455557D01*
X89877353Y-130454439D01*
X89854645Y-130453836D01*
X89839440Y-130453722D01*
X89817708Y-130454174D01*
X89796666Y-130455529D01*
X89776313Y-130457789D01*
X89756651Y-130460953D01*
X89737678Y-130465020D01*
X89719395Y-130469991D01*
X89701802Y-130475866D01*
X89684900Y-130482645D01*
X89668687Y-130490328D01*
X89653163Y-130498915D01*
X89638330Y-130508405D01*
X89624187Y-130518800D01*
X89610734Y-130530098D01*
X89597970Y-130542300D01*
X89585897Y-130555406D01*
X89574513Y-130569416D01*
X89563820Y-130584330D01*
X89553816Y-130600148D01*
X89544502Y-130616869D01*
X89535878Y-130634495D01*
X89527944Y-130653024D01*
X89520700Y-130672457D01*
X89514146Y-130692794D01*
X89508281Y-130714035D01*
X89503107Y-130736180D01*
X89498623Y-130759228D01*
X89494828Y-130783181D01*
X89491723Y-130808037D01*
X89489309Y-130833797D01*
X89487584Y-130860461D01*
X89486549Y-130888029D01*
X89486204Y-130916501D01*
X89486565Y-130946249D01*
X89487649Y-130974968D01*
X89489455Y-131002658D01*
X89491984Y-131029318D01*
X89495235Y-131054949D01*
X89499209Y-131079550D01*
X89503905Y-131103122D01*
X89509323Y-131125664D01*
X89515464Y-131147177D01*
X89522328Y-131167661D01*
X89529914Y-131187115D01*
X89538222Y-131205539D01*
X89547253Y-131222934D01*
X89557006Y-131239300D01*
X89567482Y-131254636D01*
X89578681Y-131268943D01*
X89590671Y-131282304D01*
X89603424Y-131294803D01*
X89616941Y-131306440D01*
X89631220Y-131317215D01*
X89646261Y-131327129D01*
X89662066Y-131336180D01*
X89678633Y-131344369D01*
X89695963Y-131351696D01*
X89714056Y-131358161D01*
X89732911Y-131363764D01*
X89752530Y-131368505D01*
X89772911Y-131372384D01*
X89794055Y-131375401D01*
X89815962Y-131377556D01*
X89838631Y-131378849D01*
X89862063Y-131379280D01*
X89885526Y-131378987D01*
X89908584Y-131378108D01*
X89931237Y-131376643D01*
X89953486Y-131374592D01*
X89975329Y-131371954D01*
X89996769Y-131368731D01*
X90017803Y-131364922D01*
X90038433Y-131360527D01*
X90058659Y-131355545D01*
X90078479Y-131349978D01*
X90091468Y-131345941D01*
X90108662Y-131341947D01*
X90125417Y-131342913D01*
X90141732Y-131348840D01*
X90150606Y-131354275D01*
X90162934Y-131365091D01*
X90172593Y-131379393D01*
X90177795Y-131395956D01*
X90178785Y-131408253D01*
X90177684Y-131424736D01*
X90174379Y-131440496D01*
X90168871Y-131455535D01*
X90161161Y-131469852D01*
X90155765Y-131477710D01*
X90144934Y-131490112D01*
X90132584Y-131500576D01*
X90118715Y-131509104D01*
X90103326Y-131515694D01*
X90093850Y-131518590D01*
X90073236Y-131523626D01*
X90052176Y-131528167D01*
X90030669Y-131532212D01*
X90008716Y-131535762D01*
X89986316Y-131538816D01*
X89963470Y-131541376D01*
X89940177Y-131543440D01*
X89916438Y-131545008D01*
X89900364Y-131545779D01*
X89884091Y-131546329D01*
X89867620Y-131546659D01*
X89850950Y-131546769D01*
G37*
G36*
X90662600Y-131494776D02*
G01*
X90649452Y-131506066D01*
X90635013Y-131514582D01*
X90619282Y-131520326D01*
X90602259Y-131523297D01*
X90591953Y-131523750D01*
X90574271Y-131522382D01*
X90557691Y-131518280D01*
X90542212Y-131511443D01*
X90527835Y-131501871D01*
X90520115Y-131495173D01*
X90508516Y-131481871D01*
X90499766Y-131467314D01*
X90493865Y-131451505D01*
X90490813Y-131434442D01*
X90490348Y-131424129D01*
X90490348Y-129883384D01*
X90491772Y-129865624D01*
X90496045Y-129849155D01*
X90503167Y-129833978D01*
X90513138Y-129820092D01*
X90520115Y-129812737D01*
X90533862Y-129801447D01*
X90548711Y-129792931D01*
X90564662Y-129787187D01*
X90581714Y-129784216D01*
X90591953Y-129783763D01*
X90609713Y-129785150D01*
X90626182Y-129789309D01*
X90641359Y-129796241D01*
X90655245Y-129805946D01*
X90662600Y-129812737D01*
X90673889Y-129826020D01*
X90682406Y-129840519D01*
X90688150Y-129856234D01*
X90691120Y-129873164D01*
X90691573Y-129883384D01*
X90691573Y-130500555D01*
X90680857Y-130498174D01*
X90676491Y-130492220D01*
X90687038Y-130479572D01*
X90697694Y-130467325D01*
X90708458Y-130455479D01*
X90730312Y-130432992D01*
X90752600Y-130412112D01*
X90775323Y-130392838D01*
X90798479Y-130375170D01*
X90822069Y-130359108D01*
X90846094Y-130344652D01*
X90870552Y-130331803D01*
X90895445Y-130320560D01*
X90920772Y-130310922D01*
X90946533Y-130302892D01*
X90972728Y-130296467D01*
X90999357Y-130291648D01*
X91026420Y-130288436D01*
X91053918Y-130286830D01*
X91067829Y-130286629D01*
X91094113Y-130287097D01*
X91119481Y-130288502D01*
X91143935Y-130290843D01*
X91167475Y-130294120D01*
X91190099Y-130298334D01*
X91211809Y-130303485D01*
X91232604Y-130309571D01*
X91252484Y-130316594D01*
X91271450Y-130324554D01*
X91289501Y-130333450D01*
X91306637Y-130343283D01*
X91322859Y-130354051D01*
X91338166Y-130365757D01*
X91352558Y-130378398D01*
X91366035Y-130391977D01*
X91378598Y-130406491D01*
X91390373Y-130422037D01*
X91401388Y-130438807D01*
X91411644Y-130456802D01*
X91421140Y-130476022D01*
X91429876Y-130496467D01*
X91437853Y-130518136D01*
X91445070Y-130541031D01*
X91451527Y-130565150D01*
X91457225Y-130590494D01*
X91462163Y-130617062D01*
X91466341Y-130644856D01*
X91469759Y-130673874D01*
X91472418Y-130704117D01*
X91474318Y-130735585D01*
X91474982Y-130751778D01*
X91475457Y-130768278D01*
X91475742Y-130785083D01*
X91475837Y-130802195D01*
X91475837Y-131424129D01*
X91474507Y-131441754D01*
X91470519Y-131458163D01*
X91463872Y-131473356D01*
X91454566Y-131487334D01*
X91448054Y-131494776D01*
X91435370Y-131506066D01*
X91421281Y-131514582D01*
X91405786Y-131520326D01*
X91388886Y-131523297D01*
X91378598Y-131523750D01*
X91360973Y-131522363D01*
X91344564Y-131518204D01*
X91329370Y-131511272D01*
X91315392Y-131501567D01*
X91307950Y-131494776D01*
X91296661Y-131481493D01*
X91288145Y-131466994D01*
X91282401Y-131451279D01*
X91279430Y-131434349D01*
X91278977Y-131424129D01*
X91278977Y-130831962D01*
X91278752Y-130804276D01*
X91278078Y-130777774D01*
X91276954Y-130752456D01*
X91275380Y-130728323D01*
X91273357Y-130705374D01*
X91270884Y-130683610D01*
X91267962Y-130663031D01*
X91264590Y-130643636D01*
X91260768Y-130625425D01*
X91256497Y-130608399D01*
X91251776Y-130592557D01*
X91243852Y-130571016D01*
X91234916Y-130552139D01*
X91224968Y-130535928D01*
X91221427Y-130531116D01*
X91209961Y-130517710D01*
X91196995Y-130505623D01*
X91182529Y-130494855D01*
X91166563Y-130485405D01*
X91149097Y-130477274D01*
X91130131Y-130470461D01*
X91109665Y-130464967D01*
X91087699Y-130460791D01*
X91064233Y-130457934D01*
X91047755Y-130456762D01*
X91030611Y-130456176D01*
X91021789Y-130456103D01*
X91000551Y-130457066D01*
X90979404Y-130459954D01*
X90958347Y-130464768D01*
X90937381Y-130471507D01*
X90916506Y-130480172D01*
X90895721Y-130490763D01*
X90881915Y-130498893D01*
X90868149Y-130507879D01*
X90854424Y-130517721D01*
X90840739Y-130528418D01*
X90827094Y-130539972D01*
X90813490Y-130552381D01*
X90799925Y-130565646D01*
X90786805Y-130579308D01*
X90774530Y-130593007D01*
X90763103Y-130606743D01*
X90752521Y-130620517D01*
X90742786Y-130634327D01*
X90733898Y-130648175D01*
X90725856Y-130662060D01*
X90715381Y-130682958D01*
X90706810Y-130703939D01*
X90700144Y-130725004D01*
X90695382Y-130746152D01*
X90692525Y-130767385D01*
X90691573Y-130788701D01*
X90691573Y-131424129D01*
X90690187Y-131441754D01*
X90686027Y-131458163D01*
X90679095Y-131473356D01*
X90669390Y-131487334D01*
X90662600Y-131494776D01*
G37*
G36*
X92444657Y-130010390D02*
G01*
X92426846Y-130008728D01*
X92410325Y-130003742D01*
X92395094Y-129995432D01*
X92381154Y-129983798D01*
X92370792Y-129971652D01*
X92362067Y-129956514D01*
X92356665Y-129940036D01*
X92354588Y-129922220D01*
X92354562Y-129919898D01*
X92356224Y-129901914D01*
X92361210Y-129885269D01*
X92369520Y-129869964D01*
X92381154Y-129855998D01*
X92393281Y-129845637D01*
X92408351Y-129836911D01*
X92424710Y-129831510D01*
X92442360Y-129829432D01*
X92444657Y-129829406D01*
X93464279Y-129829406D01*
X93482263Y-129831068D01*
X93498908Y-129836054D01*
X93514213Y-129844364D01*
X93528179Y-129855998D01*
X93538541Y-129868145D01*
X93547266Y-129883283D01*
X93552667Y-129899760D01*
X93554745Y-129917577D01*
X93554771Y-129919898D01*
X93553109Y-129937883D01*
X93548123Y-129954527D01*
X93539813Y-129969833D01*
X93528179Y-129983798D01*
X93516032Y-129994160D01*
X93500894Y-130002885D01*
X93484417Y-130008287D01*
X93466600Y-130010364D01*
X93464279Y-130010390D01*
X93066591Y-130010390D01*
X93058653Y-130018328D01*
X93058653Y-131419763D01*
X93057228Y-131437502D01*
X93052955Y-131454253D01*
X93045833Y-131470016D01*
X93035862Y-131484792D01*
X93028886Y-131492792D01*
X93015160Y-131504854D01*
X93000029Y-131513954D01*
X92983492Y-131520091D01*
X92965550Y-131523266D01*
X92954666Y-131523750D01*
X92938513Y-131522661D01*
X92920972Y-131518640D01*
X92904837Y-131511657D01*
X92890108Y-131501710D01*
X92880447Y-131492792D01*
X92868848Y-131478580D01*
X92860098Y-131463381D01*
X92854197Y-131447195D01*
X92851145Y-131430020D01*
X92850680Y-131419763D01*
X92850680Y-130018328D01*
X92842742Y-130010390D01*
X92444657Y-130010390D01*
G37*
G36*
X94112306Y-130287161D02*
G01*
X94139933Y-130288756D01*
X94166712Y-130291415D01*
X94192643Y-130295137D01*
X94217725Y-130299923D01*
X94241960Y-130305773D01*
X94265346Y-130312686D01*
X94287885Y-130320663D01*
X94309575Y-130329703D01*
X94330418Y-130339807D01*
X94350412Y-130350974D01*
X94369558Y-130363205D01*
X94387857Y-130376499D01*
X94405307Y-130390857D01*
X94421909Y-130406279D01*
X94437663Y-130422764D01*
X94452569Y-130440312D01*
X94466627Y-130458925D01*
X94479837Y-130478600D01*
X94492199Y-130499340D01*
X94503713Y-130521143D01*
X94514378Y-130544009D01*
X94524196Y-130567939D01*
X94533166Y-130592932D01*
X94541287Y-130618989D01*
X94548561Y-130646110D01*
X94554987Y-130674294D01*
X94560564Y-130703542D01*
X94565293Y-130733853D01*
X94569175Y-130765228D01*
X94572208Y-130797666D01*
X94574393Y-130831168D01*
X94574118Y-130849794D01*
X94571556Y-130867470D01*
X94566707Y-130884197D01*
X94559572Y-130899974D01*
X94550149Y-130914801D01*
X94538440Y-130928679D01*
X94533116Y-130933964D01*
X94518961Y-130945855D01*
X94504031Y-130955731D01*
X94488326Y-130963592D01*
X94471846Y-130969437D01*
X94454590Y-130973266D01*
X94436559Y-130975080D01*
X94429130Y-130975241D01*
X93752424Y-130975241D01*
X93746868Y-130982385D01*
X93748461Y-131007390D01*
X93750759Y-131031600D01*
X93753763Y-131055017D01*
X93757472Y-131077640D01*
X93761887Y-131099469D01*
X93767007Y-131120505D01*
X93772833Y-131140746D01*
X93779364Y-131160194D01*
X93786600Y-131178848D01*
X93794542Y-131196708D01*
X93803189Y-131213775D01*
X93812542Y-131230047D01*
X93822600Y-131245526D01*
X93833363Y-131260211D01*
X93844832Y-131274103D01*
X93857006Y-131287200D01*
X93869886Y-131299504D01*
X93883471Y-131311014D01*
X93897762Y-131321730D01*
X93912758Y-131331653D01*
X93928459Y-131340781D01*
X93944866Y-131349116D01*
X93961978Y-131356657D01*
X93979795Y-131363404D01*
X93998319Y-131369357D01*
X94017547Y-131374517D01*
X94037481Y-131378883D01*
X94058120Y-131382455D01*
X94079465Y-131385233D01*
X94101515Y-131387218D01*
X94124271Y-131388408D01*
X94147732Y-131388805D01*
X94163829Y-131388621D01*
X94179973Y-131388067D01*
X94196164Y-131387145D01*
X94212401Y-131385853D01*
X94228684Y-131384193D01*
X94245014Y-131382164D01*
X94261391Y-131379765D01*
X94277814Y-131376998D01*
X94294283Y-131373861D01*
X94310799Y-131370356D01*
X94327362Y-131366482D01*
X94343971Y-131362238D01*
X94360627Y-131357626D01*
X94377329Y-131352645D01*
X94394078Y-131347294D01*
X94410873Y-131341575D01*
X94426352Y-131337854D01*
X94443291Y-131338056D01*
X94459728Y-131342905D01*
X94470407Y-131348719D01*
X94482909Y-131358865D01*
X94492704Y-131372710D01*
X94497979Y-131389129D01*
X94498983Y-131401506D01*
X94497724Y-131422293D01*
X94493948Y-131440997D01*
X94487653Y-131457617D01*
X94478841Y-131472153D01*
X94467511Y-131484606D01*
X94453663Y-131494975D01*
X94437297Y-131503260D01*
X94418414Y-131509461D01*
X94399992Y-131513979D01*
X94381639Y-131518205D01*
X94363354Y-131522140D01*
X94345137Y-131525784D01*
X94326988Y-131529135D01*
X94308908Y-131532196D01*
X94290896Y-131534965D01*
X94272952Y-131537442D01*
X94255076Y-131539628D01*
X94237268Y-131541523D01*
X94219529Y-131543126D01*
X94201858Y-131544438D01*
X94184255Y-131545458D01*
X94166720Y-131546186D01*
X94149254Y-131546624D01*
X94131856Y-131546769D01*
X94114079Y-131546615D01*
X94096569Y-131546152D01*
X94079326Y-131545381D01*
X94062350Y-131544301D01*
X94045640Y-131542913D01*
X94029196Y-131541216D01*
X94013020Y-131539211D01*
X93997110Y-131536897D01*
X93966090Y-131531343D01*
X93936137Y-131524556D01*
X93907251Y-131516534D01*
X93879431Y-131507278D01*
X93852678Y-131496789D01*
X93826991Y-131485065D01*
X93802371Y-131472107D01*
X93778818Y-131457915D01*
X93756331Y-131442488D01*
X93734912Y-131425828D01*
X93714558Y-131407934D01*
X93695272Y-131388805D01*
X93677104Y-131368402D01*
X93660109Y-131346784D01*
X93644286Y-131323950D01*
X93629635Y-131299901D01*
X93616156Y-131274636D01*
X93603849Y-131248156D01*
X93592715Y-131220460D01*
X93582752Y-131191549D01*
X93573961Y-131161422D01*
X93570006Y-131145903D01*
X93566343Y-131130080D01*
X93562973Y-131113953D01*
X93559896Y-131097522D01*
X93557113Y-131080787D01*
X93554622Y-131063749D01*
X93552424Y-131046406D01*
X93550520Y-131028760D01*
X93548908Y-131010810D01*
X93547590Y-130992556D01*
X93546564Y-130973998D01*
X93545832Y-130955136D01*
X93545392Y-130935970D01*
X93545245Y-130916501D01*
X93545386Y-130896499D01*
X93545808Y-130876827D01*
X93546512Y-130857485D01*
X93547497Y-130838474D01*
X93548763Y-130819793D01*
X93549611Y-130809736D01*
X93749249Y-130809736D01*
X93757187Y-130814896D01*
X94371977Y-130814896D01*
X94377534Y-130809736D01*
X94376430Y-130787271D01*
X94374805Y-130765520D01*
X94372659Y-130744481D01*
X94369993Y-130724156D01*
X94366805Y-130704543D01*
X94363096Y-130685644D01*
X94358867Y-130667459D01*
X94354117Y-130649986D01*
X94348845Y-130633226D01*
X94343053Y-130617180D01*
X94336740Y-130601847D01*
X94329906Y-130587227D01*
X94314675Y-130560127D01*
X94297361Y-130535879D01*
X94277963Y-130514484D01*
X94256481Y-130495941D01*
X94232915Y-130480252D01*
X94207266Y-130467414D01*
X94179533Y-130457430D01*
X94149716Y-130450298D01*
X94134026Y-130447802D01*
X94117816Y-130446019D01*
X94101084Y-130444950D01*
X94083831Y-130444593D01*
X94065001Y-130444950D01*
X94046711Y-130446019D01*
X94028961Y-130447802D01*
X94011752Y-130450298D01*
X93995083Y-130453508D01*
X93978954Y-130457430D01*
X93963365Y-130462066D01*
X93948317Y-130467414D01*
X93919841Y-130480252D01*
X93893527Y-130495941D01*
X93869374Y-130514484D01*
X93847382Y-130535879D01*
X93827551Y-130560127D01*
X93818446Y-130573320D01*
X93809881Y-130587227D01*
X93801857Y-130601847D01*
X93794373Y-130617180D01*
X93787429Y-130633226D01*
X93781026Y-130649986D01*
X93775163Y-130667459D01*
X93769840Y-130685644D01*
X93765057Y-130704543D01*
X93760815Y-130724156D01*
X93757113Y-130744481D01*
X93753952Y-130765520D01*
X93751330Y-130787271D01*
X93749249Y-130809736D01*
X93549611Y-130809736D01*
X93550311Y-130801442D01*
X93552140Y-130783421D01*
X93554250Y-130765730D01*
X93556642Y-130748370D01*
X93559315Y-130731340D01*
X93562270Y-130714640D01*
X93565506Y-130698271D01*
X93569023Y-130682231D01*
X93572822Y-130666522D01*
X93576902Y-130651143D01*
X93585907Y-130621376D01*
X93596037Y-130592930D01*
X93607292Y-130565805D01*
X93619674Y-130540000D01*
X93633181Y-130515517D01*
X93647813Y-130492354D01*
X93663571Y-130470513D01*
X93680454Y-130449992D01*
X93689318Y-130440227D01*
X93707789Y-130421627D01*
X93727085Y-130404228D01*
X93747206Y-130388028D01*
X93768151Y-130373028D01*
X93789922Y-130359228D01*
X93812517Y-130346628D01*
X93835937Y-130335228D01*
X93860181Y-130325029D01*
X93885251Y-130316029D01*
X93911145Y-130308229D01*
X93937864Y-130301629D01*
X93965408Y-130296229D01*
X93993777Y-130292029D01*
X94022970Y-130289029D01*
X94052988Y-130287229D01*
X94083831Y-130286629D01*
X94112306Y-130287161D01*
G37*
G36*
X95204662Y-130990720D02*
G01*
X95177075Y-130983895D01*
X95150473Y-130976816D01*
X95124858Y-130969483D01*
X95100229Y-130961896D01*
X95076586Y-130954054D01*
X95053929Y-130945958D01*
X95032258Y-130937607D01*
X95011573Y-130929003D01*
X94991874Y-130920144D01*
X94973161Y-130911031D01*
X94955434Y-130901664D01*
X94938693Y-130892042D01*
X94922938Y-130882166D01*
X94908169Y-130872036D01*
X94894386Y-130861652D01*
X94881590Y-130851013D01*
X94869719Y-130839996D01*
X94858613Y-130828576D01*
X94843391Y-130810690D01*
X94829893Y-130791898D01*
X94818117Y-130772198D01*
X94808065Y-130751591D01*
X94799736Y-130730077D01*
X94793130Y-130707657D01*
X94788248Y-130684329D01*
X94785950Y-130668273D01*
X94784418Y-130651815D01*
X94783652Y-130634953D01*
X94783557Y-130626371D01*
X94784014Y-130606982D01*
X94785386Y-130588108D01*
X94787673Y-130569748D01*
X94790874Y-130551903D01*
X94794991Y-130534573D01*
X94800022Y-130517758D01*
X94805967Y-130501457D01*
X94812828Y-130485672D01*
X94820603Y-130470400D01*
X94829293Y-130455644D01*
X94838897Y-130441402D01*
X94849416Y-130427675D01*
X94860850Y-130414463D01*
X94873199Y-130401766D01*
X94886463Y-130389583D01*
X94900641Y-130377915D01*
X94915706Y-130366861D01*
X94931530Y-130356520D01*
X94948115Y-130346892D01*
X94965458Y-130337977D01*
X94983562Y-130329776D01*
X95002426Y-130322287D01*
X95022049Y-130315512D01*
X95042431Y-130309450D01*
X95063574Y-130304102D01*
X95085476Y-130299466D01*
X95108137Y-130295544D01*
X95131559Y-130292334D01*
X95155740Y-130289838D01*
X95180681Y-130288055D01*
X95206381Y-130286986D01*
X95232841Y-130286629D01*
X95252728Y-130286792D01*
X95272599Y-130287280D01*
X95292455Y-130288094D01*
X95312295Y-130289234D01*
X95332119Y-130290699D01*
X95351928Y-130292489D01*
X95371722Y-130294606D01*
X95391500Y-130297047D01*
X95411263Y-130299815D01*
X95431010Y-130302908D01*
X95450741Y-130306326D01*
X95470457Y-130310071D01*
X95490158Y-130314140D01*
X95509843Y-130318536D01*
X95529512Y-130323256D01*
X95549166Y-130328303D01*
X95567957Y-130334473D01*
X95584242Y-130342666D01*
X95598022Y-130352879D01*
X95609296Y-130365115D01*
X95618065Y-130379372D01*
X95624328Y-130395651D01*
X95628086Y-130413952D01*
X95629339Y-130434274D01*
X95627727Y-130450274D01*
X95622058Y-130465723D01*
X95612308Y-130478473D01*
X95603541Y-130485473D01*
X95588656Y-130493095D01*
X95572579Y-130496761D01*
X95555308Y-130496472D01*
X95545198Y-130494602D01*
X95526449Y-130489123D01*
X95507710Y-130483997D01*
X95488980Y-130479225D01*
X95470259Y-130474807D01*
X95451547Y-130470742D01*
X95432845Y-130467030D01*
X95414153Y-130463672D01*
X95395469Y-130460667D01*
X95376795Y-130458016D01*
X95358130Y-130455718D01*
X95339474Y-130453774D01*
X95320828Y-130452184D01*
X95302191Y-130450946D01*
X95283563Y-130450063D01*
X95264945Y-130449532D01*
X95246336Y-130449356D01*
X95230244Y-130449515D01*
X95199593Y-130450789D01*
X95170986Y-130453338D01*
X95144422Y-130457161D01*
X95119901Y-130462259D01*
X95097424Y-130468631D01*
X95076990Y-130476278D01*
X95058600Y-130485198D01*
X95042253Y-130495394D01*
X95027949Y-130506863D01*
X95015689Y-130519607D01*
X95005472Y-130533626D01*
X94997298Y-130548919D01*
X94991168Y-130565486D01*
X94987081Y-130583327D01*
X94985038Y-130602444D01*
X94984782Y-130612479D01*
X94985588Y-130630166D01*
X94988007Y-130647108D01*
X94992038Y-130663307D01*
X94997681Y-130678761D01*
X95004937Y-130693471D01*
X95013805Y-130707436D01*
X95024286Y-130720658D01*
X95036379Y-130733135D01*
X95050667Y-130744974D01*
X95067733Y-130756279D01*
X95082356Y-130764408D01*
X95098542Y-130772237D01*
X95116291Y-130779766D01*
X95135602Y-130786995D01*
X95156476Y-130793924D01*
X95178913Y-130800553D01*
X95194740Y-130804806D01*
X95211260Y-130808925D01*
X95228476Y-130812911D01*
X95243977Y-130816415D01*
X95274073Y-130823612D01*
X95302959Y-130831060D01*
X95330636Y-130838759D01*
X95357104Y-130846710D01*
X95382363Y-130854911D01*
X95406412Y-130863364D01*
X95429252Y-130872068D01*
X95450883Y-130881022D01*
X95471305Y-130890229D01*
X95490517Y-130899686D01*
X95508520Y-130909394D01*
X95525313Y-130919354D01*
X95540898Y-130929565D01*
X95555273Y-130940026D01*
X95568438Y-130950739D01*
X95574568Y-130956190D01*
X95586199Y-130967402D01*
X95597079Y-130979210D01*
X95607209Y-130991613D01*
X95616589Y-131004611D01*
X95625218Y-131018205D01*
X95633097Y-131032394D01*
X95640226Y-131047178D01*
X95646604Y-131062558D01*
X95652232Y-131078533D01*
X95657109Y-131095103D01*
X95661236Y-131112269D01*
X95664613Y-131130030D01*
X95667240Y-131148386D01*
X95669115Y-131167338D01*
X95670241Y-131186885D01*
X95670616Y-131207028D01*
X95670140Y-131226700D01*
X95668712Y-131245830D01*
X95666333Y-131264418D01*
X95663001Y-131282462D01*
X95658717Y-131299964D01*
X95653482Y-131316924D01*
X95647294Y-131333341D01*
X95640155Y-131349215D01*
X95632063Y-131364547D01*
X95623020Y-131379336D01*
X95613025Y-131393582D01*
X95602077Y-131407286D01*
X95590178Y-131420447D01*
X95577327Y-131433065D01*
X95563524Y-131445141D01*
X95548770Y-131456674D01*
X95533157Y-131467584D01*
X95516782Y-131477790D01*
X95499645Y-131487293D01*
X95481744Y-131496091D01*
X95463081Y-131504185D01*
X95443655Y-131511576D01*
X95423466Y-131518263D01*
X95402514Y-131524246D01*
X95380799Y-131529525D01*
X95358322Y-131534100D01*
X95335082Y-131537971D01*
X95311079Y-131541138D01*
X95286314Y-131543602D01*
X95260785Y-131545362D01*
X95234494Y-131546417D01*
X95207440Y-131546769D01*
X95186417Y-131546569D01*
X95165518Y-131545969D01*
X95144743Y-131544969D01*
X95124092Y-131543569D01*
X95103565Y-131541769D01*
X95083163Y-131539569D01*
X95062884Y-131536970D01*
X95042729Y-131533970D01*
X95022698Y-131530570D01*
X95002791Y-131526770D01*
X94983009Y-131522570D01*
X94963350Y-131517970D01*
X94943815Y-131512970D01*
X94924405Y-131507570D01*
X94905118Y-131501770D01*
X94885956Y-131495570D01*
X94867258Y-131488203D01*
X94851054Y-131479000D01*
X94837342Y-131467961D01*
X94826124Y-131455087D01*
X94817398Y-131440377D01*
X94811166Y-131423831D01*
X94807426Y-131405450D01*
X94806180Y-131385233D01*
X94808409Y-131368440D01*
X94815096Y-131353782D01*
X94826241Y-131341259D01*
X94834359Y-131335225D01*
X94848821Y-131327758D01*
X94865506Y-131323806D01*
X94882630Y-131324563D01*
X94894290Y-131327684D01*
X94912623Y-131334508D01*
X94931009Y-131340893D01*
X94949448Y-131346837D01*
X94967939Y-131352341D01*
X94986483Y-131357404D01*
X95005080Y-131362027D01*
X95023729Y-131366210D01*
X95042431Y-131369953D01*
X95061186Y-131373255D01*
X95079994Y-131376117D01*
X95098854Y-131378539D01*
X95117767Y-131380520D01*
X95136732Y-131382061D01*
X95155751Y-131383162D01*
X95174822Y-131383822D01*
X95193946Y-131384043D01*
X95210892Y-131383870D01*
X95227300Y-131383351D01*
X95243171Y-131382487D01*
X95273298Y-131379721D01*
X95301272Y-131375572D01*
X95327095Y-131370040D01*
X95350766Y-131363126D01*
X95372286Y-131354828D01*
X95391653Y-131345148D01*
X95408868Y-131334084D01*
X95423931Y-131321638D01*
X95436843Y-131307809D01*
X95447603Y-131292596D01*
X95456210Y-131276001D01*
X95462666Y-131258023D01*
X95466970Y-131238662D01*
X95469122Y-131217918D01*
X95469391Y-131207028D01*
X95468529Y-131188262D01*
X95465943Y-131170265D01*
X95461633Y-131153038D01*
X95455599Y-131136579D01*
X95447840Y-131120889D01*
X95438358Y-131105968D01*
X95427152Y-131091817D01*
X95414222Y-131078434D01*
X95398880Y-131065690D01*
X95385338Y-131056465D01*
X95370052Y-131047527D01*
X95353022Y-131038875D01*
X95334248Y-131030509D01*
X95313730Y-131022429D01*
X95291467Y-131014634D01*
X95275656Y-131009597D01*
X95259071Y-131004687D01*
X95241710Y-130999904D01*
X95223573Y-130995249D01*
X95204662Y-130990720D01*
G37*
G36*
X95926216Y-130518019D02*
G01*
X95909472Y-130516580D01*
X95894167Y-130512264D01*
X95878668Y-130503968D01*
X95867873Y-130494999D01*
X95857802Y-130482571D01*
X95849911Y-130466870D01*
X95845954Y-130451385D01*
X95844853Y-130436655D01*
X95846292Y-130419936D01*
X95851350Y-130402906D01*
X95860050Y-130387760D01*
X95867873Y-130378709D01*
X95880301Y-130368464D01*
X95896002Y-130360437D01*
X95911487Y-130356412D01*
X95926216Y-130355292D01*
X96092912Y-130355292D01*
X96100850Y-130347354D01*
X96100850Y-130020313D01*
X96102236Y-130002707D01*
X96106396Y-129986355D01*
X96113328Y-129971256D01*
X96123033Y-129957411D01*
X96129823Y-129950062D01*
X96143107Y-129938773D01*
X96157606Y-129930256D01*
X96173320Y-129924513D01*
X96190251Y-129921542D01*
X96200471Y-129921089D01*
X96218095Y-129922475D01*
X96234504Y-129926635D01*
X96249698Y-129933567D01*
X96263676Y-129943272D01*
X96271118Y-129950062D01*
X96282407Y-129963191D01*
X96290924Y-129977574D01*
X96296667Y-129993209D01*
X96299638Y-130010099D01*
X96300091Y-130020313D01*
X96300091Y-130347354D01*
X96308029Y-130355292D01*
X96650946Y-130355292D01*
X96667665Y-130356755D01*
X96684695Y-130361901D01*
X96699841Y-130370750D01*
X96708893Y-130378709D01*
X96719137Y-130390963D01*
X96727164Y-130406528D01*
X96731189Y-130421944D01*
X96732309Y-130436655D01*
X96730846Y-130453399D01*
X96726455Y-130468704D01*
X96718017Y-130484203D01*
X96708893Y-130494999D01*
X96695002Y-130506126D01*
X96679228Y-130513612D01*
X96663625Y-130517209D01*
X96650946Y-130518019D01*
X96308029Y-130518019D01*
X96300091Y-130525560D01*
X96300091Y-131129236D01*
X96300248Y-131148791D01*
X96300717Y-131167468D01*
X96301500Y-131185268D01*
X96302596Y-131202190D01*
X96304006Y-131218235D01*
X96306707Y-131240657D01*
X96310113Y-131261104D01*
X96314223Y-131279578D01*
X96319038Y-131296076D01*
X96326554Y-131315003D01*
X96335323Y-131330420D01*
X96340177Y-131336812D01*
X96354594Y-131350419D01*
X96368848Y-131359643D01*
X96385521Y-131367392D01*
X96404612Y-131373665D01*
X96420518Y-131377401D01*
X96437784Y-131380307D01*
X96456410Y-131382382D01*
X96476397Y-131383627D01*
X96497745Y-131384043D01*
X96515227Y-131383869D01*
X96531952Y-131383348D01*
X96547921Y-131382480D01*
X96566818Y-131380906D01*
X96584533Y-131378790D01*
X96601066Y-131376131D01*
X96616416Y-131372930D01*
X96633101Y-131371688D01*
X96649220Y-131374213D01*
X96664775Y-131380506D01*
X96673172Y-131385630D01*
X96686218Y-131396967D01*
X96694995Y-131410439D01*
X96699502Y-131426046D01*
X96700161Y-131435639D01*
X96698772Y-131453425D01*
X96694604Y-131470268D01*
X96687659Y-131486169D01*
X96677935Y-131501127D01*
X96666053Y-131513976D01*
X96652633Y-131523948D01*
X96637675Y-131531042D01*
X96621179Y-131535259D01*
X96605502Y-131537957D01*
X96588832Y-131540295D01*
X96571170Y-131542273D01*
X96552516Y-131543892D01*
X96532870Y-131545151D01*
X96512231Y-131546050D01*
X96496101Y-131546488D01*
X96479413Y-131546724D01*
X96467978Y-131546769D01*
X96442624Y-131546428D01*
X96418260Y-131545405D01*
X96394885Y-131543700D01*
X96372500Y-131541312D01*
X96351103Y-131538242D01*
X96330695Y-131534490D01*
X96311277Y-131530056D01*
X96292848Y-131524940D01*
X96275408Y-131519142D01*
X96258957Y-131512661D01*
X96243495Y-131505499D01*
X96229022Y-131497654D01*
X96215539Y-131489127D01*
X96197168Y-131475057D01*
X96181023Y-131459453D01*
X96166695Y-131441785D01*
X96153777Y-131421676D01*
X96145947Y-131406914D01*
X96138744Y-131391066D01*
X96132167Y-131374133D01*
X96126217Y-131356114D01*
X96120893Y-131337011D01*
X96116196Y-131316822D01*
X96112124Y-131295547D01*
X96108679Y-131273188D01*
X96105861Y-131249743D01*
X96103669Y-131225213D01*
X96102103Y-131199598D01*
X96101163Y-131172898D01*
X96100850Y-131145112D01*
X96100850Y-130525560D01*
X96092912Y-130518019D01*
X95926216Y-130518019D01*
G37*
G36*
X97508137Y-130287161D02*
G01*
X97535764Y-130288756D01*
X97562542Y-130291415D01*
X97588473Y-130295137D01*
X97613556Y-130299923D01*
X97637790Y-130305773D01*
X97661177Y-130312686D01*
X97683715Y-130320663D01*
X97705406Y-130329703D01*
X97726248Y-130339807D01*
X97746243Y-130350974D01*
X97765389Y-130363205D01*
X97783687Y-130376499D01*
X97801137Y-130390857D01*
X97817739Y-130406279D01*
X97833493Y-130422764D01*
X97848400Y-130440312D01*
X97862457Y-130458925D01*
X97875667Y-130478600D01*
X97888029Y-130499340D01*
X97899543Y-130521143D01*
X97910209Y-130544009D01*
X97920027Y-130567939D01*
X97928996Y-130592932D01*
X97937118Y-130618989D01*
X97944391Y-130646110D01*
X97950817Y-130674294D01*
X97956394Y-130703542D01*
X97961124Y-130733853D01*
X97965005Y-130765228D01*
X97968038Y-130797666D01*
X97970224Y-130831168D01*
X97969948Y-130849794D01*
X97967387Y-130867470D01*
X97962538Y-130884197D01*
X97955402Y-130899974D01*
X97945980Y-130914801D01*
X97934271Y-130928679D01*
X97928947Y-130933964D01*
X97914792Y-130945855D01*
X97899862Y-130955731D01*
X97884156Y-130963592D01*
X97867676Y-130969437D01*
X97850420Y-130973266D01*
X97832390Y-130975080D01*
X97824960Y-130975241D01*
X97148255Y-130975241D01*
X97142698Y-130982385D01*
X97144291Y-131007390D01*
X97146590Y-131031600D01*
X97149594Y-131055017D01*
X97153303Y-131077640D01*
X97157718Y-131099469D01*
X97162838Y-131120505D01*
X97168663Y-131140746D01*
X97175194Y-131160194D01*
X97182430Y-131178848D01*
X97190372Y-131196708D01*
X97199019Y-131213775D01*
X97208372Y-131230047D01*
X97218430Y-131245526D01*
X97229194Y-131260211D01*
X97240662Y-131274103D01*
X97252837Y-131287200D01*
X97265716Y-131299504D01*
X97279301Y-131311014D01*
X97293592Y-131321730D01*
X97308588Y-131331653D01*
X97324289Y-131340781D01*
X97340696Y-131349116D01*
X97357808Y-131356657D01*
X97375626Y-131363404D01*
X97394149Y-131369357D01*
X97413377Y-131374517D01*
X97433311Y-131378883D01*
X97453951Y-131382455D01*
X97475295Y-131385233D01*
X97497345Y-131387218D01*
X97520101Y-131388408D01*
X97543562Y-131388805D01*
X97559659Y-131388621D01*
X97575803Y-131388067D01*
X97591994Y-131387145D01*
X97608231Y-131385853D01*
X97624515Y-131384193D01*
X97640845Y-131382164D01*
X97657221Y-131379765D01*
X97673644Y-131376998D01*
X97690114Y-131373861D01*
X97706630Y-131370356D01*
X97723192Y-131366482D01*
X97739802Y-131362238D01*
X97756457Y-131357626D01*
X97773159Y-131352645D01*
X97789908Y-131347294D01*
X97806703Y-131341575D01*
X97822182Y-131337854D01*
X97839121Y-131338056D01*
X97855558Y-131342905D01*
X97866237Y-131348719D01*
X97878739Y-131358865D01*
X97888535Y-131372710D01*
X97893809Y-131389129D01*
X97894814Y-131401506D01*
X97893555Y-131422293D01*
X97889778Y-131440997D01*
X97883484Y-131457617D01*
X97874671Y-131472153D01*
X97863341Y-131484606D01*
X97849493Y-131494975D01*
X97833128Y-131503260D01*
X97814244Y-131509461D01*
X97795823Y-131513979D01*
X97777469Y-131518205D01*
X97759184Y-131522140D01*
X97740967Y-131525784D01*
X97722819Y-131529135D01*
X97704738Y-131532196D01*
X97686726Y-131534965D01*
X97668782Y-131537442D01*
X97650906Y-131539628D01*
X97633099Y-131541523D01*
X97615360Y-131543126D01*
X97597688Y-131544438D01*
X97580086Y-131545458D01*
X97562551Y-131546186D01*
X97545084Y-131546624D01*
X97527686Y-131546769D01*
X97509910Y-131546615D01*
X97492400Y-131546152D01*
X97475157Y-131545381D01*
X97458180Y-131544301D01*
X97441470Y-131542913D01*
X97425027Y-131541216D01*
X97408850Y-131539211D01*
X97392940Y-131536897D01*
X97361921Y-131531343D01*
X97331968Y-131524556D01*
X97303081Y-131516534D01*
X97275261Y-131507278D01*
X97248508Y-131496789D01*
X97222821Y-131485065D01*
X97198202Y-131472107D01*
X97174648Y-131457915D01*
X97152162Y-131442488D01*
X97130742Y-131425828D01*
X97110389Y-131407934D01*
X97091102Y-131388805D01*
X97072935Y-131368402D01*
X97055940Y-131346784D01*
X97040117Y-131323950D01*
X97025466Y-131299901D01*
X97011987Y-131274636D01*
X96999680Y-131248156D01*
X96988545Y-131220460D01*
X96978582Y-131191549D01*
X96969792Y-131161422D01*
X96965836Y-131145903D01*
X96962173Y-131130080D01*
X96958804Y-131113953D01*
X96955727Y-131097522D01*
X96952943Y-131080787D01*
X96950453Y-131063749D01*
X96948255Y-131046406D01*
X96946350Y-131028760D01*
X96944739Y-131010810D01*
X96943420Y-130992556D01*
X96942395Y-130973998D01*
X96941662Y-130955136D01*
X96941222Y-130935970D01*
X96941076Y-130916501D01*
X96941217Y-130896499D01*
X96941639Y-130876827D01*
X96942342Y-130857485D01*
X96943327Y-130838474D01*
X96944593Y-130819793D01*
X96945441Y-130809736D01*
X97145080Y-130809736D01*
X97153018Y-130814896D01*
X97767807Y-130814896D01*
X97773364Y-130809736D01*
X97772260Y-130787271D01*
X97770635Y-130765520D01*
X97768490Y-130744481D01*
X97765823Y-130724156D01*
X97762635Y-130704543D01*
X97758927Y-130685644D01*
X97754697Y-130667459D01*
X97749947Y-130649986D01*
X97744676Y-130633226D01*
X97738884Y-130617180D01*
X97732571Y-130601847D01*
X97725737Y-130587227D01*
X97710506Y-130560127D01*
X97693191Y-130535879D01*
X97673793Y-130514484D01*
X97652311Y-130495941D01*
X97628745Y-130480252D01*
X97603096Y-130467414D01*
X97575363Y-130457430D01*
X97545546Y-130450298D01*
X97529857Y-130447802D01*
X97513646Y-130446019D01*
X97496914Y-130444950D01*
X97479662Y-130444593D01*
X97460832Y-130444950D01*
X97442541Y-130446019D01*
X97424792Y-130447802D01*
X97407582Y-130450298D01*
X97390913Y-130453508D01*
X97374784Y-130457430D01*
X97359195Y-130462066D01*
X97344147Y-130467414D01*
X97315672Y-130480252D01*
X97289357Y-130495941D01*
X97265204Y-130514484D01*
X97243212Y-130535879D01*
X97223381Y-130560127D01*
X97214276Y-130573320D01*
X97205712Y-130587227D01*
X97197687Y-130601847D01*
X97190203Y-130617180D01*
X97183260Y-130633226D01*
X97176856Y-130649986D01*
X97170993Y-130667459D01*
X97165670Y-130685644D01*
X97160888Y-130704543D01*
X97156646Y-130724156D01*
X97152944Y-130744481D01*
X97149782Y-130765520D01*
X97147161Y-130787271D01*
X97145080Y-130809736D01*
X96945441Y-130809736D01*
X96946141Y-130801442D01*
X96947970Y-130783421D01*
X96950080Y-130765730D01*
X96952472Y-130748370D01*
X96955146Y-130731340D01*
X96958100Y-130714640D01*
X96961336Y-130698271D01*
X96964854Y-130682231D01*
X96968652Y-130666522D01*
X96972733Y-130651143D01*
X96981737Y-130621376D01*
X96991867Y-130592930D01*
X97003123Y-130565805D01*
X97015504Y-130540000D01*
X97029011Y-130515517D01*
X97043643Y-130492354D01*
X97059401Y-130470513D01*
X97076285Y-130449992D01*
X97085149Y-130440227D01*
X97103620Y-130421627D01*
X97122916Y-130404228D01*
X97143036Y-130388028D01*
X97163982Y-130373028D01*
X97185752Y-130359228D01*
X97208347Y-130346628D01*
X97231767Y-130335228D01*
X97256012Y-130325029D01*
X97281081Y-130316029D01*
X97306976Y-130308229D01*
X97333695Y-130301629D01*
X97361238Y-130296229D01*
X97389607Y-130292029D01*
X97418801Y-130289029D01*
X97448819Y-130287229D01*
X97479662Y-130286629D01*
X97508137Y-130287161D01*
G37*
G36*
X98391726Y-131492792D02*
G01*
X98378000Y-131504854D01*
X98362869Y-131513954D01*
X98346332Y-131520091D01*
X98328390Y-131523266D01*
X98317506Y-131523750D01*
X98301353Y-131522661D01*
X98283813Y-131518640D01*
X98267678Y-131511657D01*
X98252948Y-131501710D01*
X98243287Y-131492792D01*
X98231688Y-131478580D01*
X98222939Y-131463381D01*
X98217037Y-131447195D01*
X98213985Y-131430020D01*
X98213520Y-131419763D01*
X98213520Y-130409269D01*
X98214907Y-130391645D01*
X98219066Y-130375236D01*
X98225998Y-130360042D01*
X98235703Y-130346064D01*
X98242493Y-130338622D01*
X98255777Y-130327333D01*
X98270276Y-130318816D01*
X98285991Y-130313072D01*
X98302921Y-130310102D01*
X98313141Y-130309649D01*
X98330765Y-130311035D01*
X98347174Y-130315195D01*
X98362368Y-130322127D01*
X98376346Y-130331832D01*
X98383788Y-130338622D01*
X98395077Y-130351906D01*
X98403594Y-130366405D01*
X98409338Y-130382119D01*
X98412308Y-130399049D01*
X98412761Y-130409269D01*
X98412761Y-130585094D01*
X98402442Y-130574774D01*
X98394107Y-130579140D01*
X98403352Y-130564300D01*
X98413028Y-130549845D01*
X98423135Y-130535773D01*
X98433673Y-130522087D01*
X98444641Y-130508785D01*
X98456041Y-130495867D01*
X98467872Y-130483334D01*
X98480134Y-130471185D01*
X98492827Y-130459421D01*
X98505951Y-130448041D01*
X98519506Y-130437046D01*
X98533492Y-130426435D01*
X98547908Y-130416209D01*
X98562756Y-130406367D01*
X98578035Y-130396910D01*
X98593745Y-130387837D01*
X98609790Y-130379160D01*
X98626073Y-130370988D01*
X98642596Y-130363321D01*
X98659357Y-130356160D01*
X98676357Y-130349504D01*
X98693595Y-130343354D01*
X98711072Y-130337709D01*
X98728789Y-130332570D01*
X98746743Y-130327935D01*
X98764937Y-130323807D01*
X98783369Y-130320184D01*
X98802040Y-130317066D01*
X98820950Y-130314453D01*
X98840099Y-130312346D01*
X98859486Y-130310745D01*
X98879112Y-130309649D01*
X98895077Y-130309858D01*
X98912019Y-130313585D01*
X98927572Y-130321033D01*
X98941736Y-130332202D01*
X98943409Y-130333859D01*
X98953925Y-130346006D01*
X98962781Y-130361144D01*
X98968263Y-130377621D01*
X98970372Y-130395438D01*
X98970398Y-130397759D01*
X98968835Y-130414702D01*
X98964147Y-130430602D01*
X98956333Y-130445461D01*
X98945394Y-130459278D01*
X98932123Y-130470912D01*
X98917313Y-130479619D01*
X98900966Y-130485399D01*
X98883081Y-130488251D01*
X98855795Y-130489772D01*
X98829302Y-130492152D01*
X98803603Y-130495391D01*
X98778698Y-130499488D01*
X98754587Y-130504445D01*
X98731269Y-130510260D01*
X98708745Y-130516935D01*
X98687015Y-130524468D01*
X98666079Y-130532860D01*
X98645937Y-130542111D01*
X98626588Y-130552221D01*
X98608033Y-130563190D01*
X98590272Y-130575018D01*
X98573305Y-130587705D01*
X98557132Y-130601250D01*
X98541752Y-130615655D01*
X98527237Y-130630862D01*
X98513659Y-130646817D01*
X98501018Y-130663519D01*
X98489312Y-130680969D01*
X98478543Y-130699165D01*
X98468711Y-130718109D01*
X98459815Y-130737800D01*
X98451855Y-130758239D01*
X98444832Y-130779425D01*
X98438745Y-130801358D01*
X98433595Y-130824038D01*
X98429381Y-130847466D01*
X98426104Y-130871641D01*
X98423763Y-130896563D01*
X98422358Y-130922232D01*
X98421890Y-130948649D01*
X98421890Y-131419763D01*
X98420446Y-131437502D01*
X98416116Y-131454253D01*
X98408899Y-131470016D01*
X98398795Y-131484792D01*
X98391726Y-131492792D01*
G37*
D12*
X371468650Y-131841400D02*
X371144800Y-131841400D01*
X371144800Y-131517550D01*
X371468650Y-131517550D01*
X371468650Y-131841400D01*
%TA.AperFunction,EtchedComponent*%
G36*
X371468650Y-131841400D02*
G01*
X371144800Y-131841400D01*
X371144800Y-131517550D01*
X371468650Y-131517550D01*
X371468650Y-131841400D01*
G37*
%TD.AperFunction*%
X371792500Y-131212750D02*
X371468650Y-131212750D01*
X371468650Y-130888900D01*
X371792500Y-130888900D01*
X371792500Y-131212750D01*
%TA.AperFunction,EtchedComponent*%
G36*
X371792500Y-131212750D02*
G01*
X371468650Y-131212750D01*
X371468650Y-130888900D01*
X371792500Y-130888900D01*
X371792500Y-131212750D01*
G37*
%TD.AperFunction*%
X372097300Y-130565050D02*
X371792500Y-130565050D01*
X371792500Y-130260250D01*
X372097300Y-130260250D01*
X372097300Y-130565050D01*
%TA.AperFunction,EtchedComponent*%
G36*
X372097300Y-130565050D02*
G01*
X371792500Y-130565050D01*
X371792500Y-130260250D01*
X372097300Y-130260250D01*
X372097300Y-130565050D01*
G37*
%TD.AperFunction*%
X372421150Y-129936400D02*
X372097300Y-129936400D01*
X372097300Y-129612550D01*
X372421150Y-129612550D01*
X372421150Y-129936400D01*
%TA.AperFunction,EtchedComponent*%
G36*
X372421150Y-129936400D02*
G01*
X372097300Y-129936400D01*
X372097300Y-129612550D01*
X372421150Y-129612550D01*
X372421150Y-129936400D01*
G37*
%TD.AperFunction*%
X372421150Y-131212750D02*
X372097300Y-131212750D01*
X372097300Y-130888900D01*
X372421150Y-130888900D01*
X372421150Y-131212750D01*
%TA.AperFunction,EtchedComponent*%
G36*
X372421150Y-131212750D02*
G01*
X372097300Y-131212750D01*
X372097300Y-130888900D01*
X372421150Y-130888900D01*
X372421150Y-131212750D01*
G37*
%TD.AperFunction*%
X372745000Y-130565050D02*
X372421150Y-130565050D01*
X372421150Y-130260250D01*
X372745000Y-130260250D01*
X372745000Y-130565050D01*
%TA.AperFunction,EtchedComponent*%
G36*
X372745000Y-130565050D02*
G01*
X372421150Y-130565050D01*
X372421150Y-130260250D01*
X372745000Y-130260250D01*
X372745000Y-130565050D01*
G37*
%TD.AperFunction*%
X373049800Y-131212750D02*
X372745000Y-131212750D01*
X372745000Y-130888900D01*
X373049800Y-130888900D01*
X373049800Y-131212750D01*
%TA.AperFunction,EtchedComponent*%
G36*
X373049800Y-131212750D02*
G01*
X372745000Y-131212750D01*
X372745000Y-130888900D01*
X373049800Y-130888900D01*
X373049800Y-131212750D01*
G37*
%TD.AperFunction*%
X373373650Y-131841400D02*
X373049800Y-131841400D01*
X373049800Y-131517550D01*
X373373650Y-131517550D01*
X373373650Y-131841400D01*
%TA.AperFunction,EtchedComponent*%
G36*
X373373650Y-131841400D02*
G01*
X373049800Y-131841400D01*
X373049800Y-131517550D01*
X373373650Y-131517550D01*
X373373650Y-131841400D01*
G37*
%TD.AperFunction*%
X372271925Y-128422435D02*
X372371219Y-128423532D01*
X372460589Y-128426857D01*
X372542663Y-128432735D01*
X372620074Y-128441487D01*
X372695452Y-128453438D01*
X372771427Y-128468909D01*
X372850631Y-128488224D01*
X372886853Y-128497934D01*
X373053691Y-128550125D01*
X373215361Y-128613593D01*
X373371252Y-128688022D01*
X373520749Y-128773094D01*
X373663241Y-128868492D01*
X373784957Y-128962893D01*
X373911092Y-129075473D01*
X374028961Y-129196629D01*
X374138018Y-129325507D01*
X374237716Y-129461253D01*
X374327507Y-129603013D01*
X374406845Y-129749932D01*
X374475183Y-129901157D01*
X374531974Y-130055834D01*
X374570977Y-130190242D01*
X374597433Y-130302231D01*
X374617721Y-130407779D01*
X374632435Y-130511197D01*
X374642170Y-130616794D01*
X374647518Y-130728879D01*
X374648041Y-130749200D01*
X374645865Y-130923837D01*
X374631310Y-131095664D01*
X374604378Y-131264656D01*
X374565075Y-131430790D01*
X374513405Y-131594043D01*
X374462047Y-131725189D01*
X374439581Y-131777401D01*
X374420331Y-131820727D01*
X374402836Y-131858090D01*
X374385635Y-131892410D01*
X374367266Y-131926610D01*
X374346270Y-131963612D01*
X374322970Y-132003325D01*
X374227595Y-132152341D01*
X374123511Y-132292122D01*
X374010613Y-132422771D01*
X373888793Y-132544397D01*
X373757947Y-132657103D01*
X373617969Y-132760998D01*
X373472075Y-132854220D01*
X373429811Y-132878995D01*
X373393080Y-132899776D01*
X373358961Y-132918024D01*
X373324532Y-132935200D01*
X373286870Y-132952765D01*
X373243055Y-132972180D01*
X373193939Y-132993297D01*
X373116952Y-133024935D01*
X373045978Y-133051366D01*
X372976287Y-133074156D01*
X372903148Y-133094871D01*
X372837075Y-133111457D01*
X372705461Y-133139901D01*
X372579786Y-133160442D01*
X372456403Y-133173514D01*
X372331669Y-133179548D01*
X372259225Y-133180010D01*
X372218250Y-133179598D01*
X372179753Y-133179034D01*
X372146248Y-133178367D01*
X372120252Y-133177650D01*
X372104277Y-133176932D01*
X372103650Y-133176886D01*
X371930710Y-133157725D01*
X371760505Y-133126536D01*
X371593720Y-133083573D01*
X371431044Y-133029090D01*
X371273162Y-132963341D01*
X371120764Y-132886580D01*
X370974535Y-132799061D01*
X370853771Y-132715036D01*
X370715428Y-132604359D01*
X370586882Y-132485670D01*
X370468310Y-132359231D01*
X370359892Y-132225305D01*
X370261809Y-132084154D01*
X370174238Y-131936041D01*
X370097360Y-131781228D01*
X370031354Y-131619977D01*
X369976400Y-131452550D01*
X369966684Y-131418103D01*
X369945591Y-131336668D01*
X369928483Y-131259608D01*
X369915037Y-131184293D01*
X369904929Y-131108093D01*
X369897838Y-131028376D01*
X369893439Y-130942511D01*
X369891410Y-130847869D01*
X369891185Y-130803175D01*
X369891725Y-130758886D01*
X370317385Y-130758886D01*
X370317467Y-130822996D01*
X370318800Y-130886728D01*
X370321357Y-130946829D01*
X370325114Y-131000047D01*
X370328090Y-131028600D01*
X370353589Y-131186438D01*
X370390911Y-131339730D01*
X370439910Y-131488177D01*
X370500445Y-131631478D01*
X370572371Y-131769335D01*
X370655544Y-131901447D01*
X370749822Y-132027514D01*
X370855060Y-132147237D01*
X370872929Y-132165808D01*
X370980316Y-132267467D01*
X371096878Y-132361816D01*
X371220454Y-132447271D01*
X371348885Y-132522253D01*
X371385516Y-132541202D01*
X371445042Y-132570522D01*
X371497235Y-132594697D01*
X371545633Y-132615151D01*
X371593772Y-132633307D01*
X371645190Y-132650586D01*
X371697250Y-132666581D01*
X371848620Y-132706112D01*
X371997221Y-132733672D01*
X372144211Y-132749371D01*
X372290752Y-132753313D01*
X372438001Y-132745608D01*
X372491234Y-132740024D01*
X372641100Y-132716869D01*
X372784765Y-132683422D01*
X372924235Y-132639082D01*
X373061516Y-132583251D01*
X373139082Y-132546292D01*
X373275588Y-132471557D01*
X373403121Y-132388569D01*
X373522287Y-132296779D01*
X373633693Y-132195639D01*
X373737945Y-132084603D01*
X373835649Y-131963122D01*
X373922263Y-131838607D01*
X373942364Y-131805654D01*
X373965822Y-131763951D01*
X373991182Y-131716397D01*
X374016988Y-131665885D01*
X374041784Y-131615311D01*
X374064114Y-131567573D01*
X374082521Y-131525565D01*
X374093272Y-131498500D01*
X374143566Y-131345267D01*
X374181482Y-131191076D01*
X374206989Y-131036359D01*
X374220054Y-130881551D01*
X374220644Y-130727085D01*
X374208727Y-130573393D01*
X374184271Y-130420909D01*
X374176428Y-130384075D01*
X374149509Y-130275040D01*
X374118863Y-130174094D01*
X374082913Y-130076805D01*
X374040080Y-129978745D01*
X374009952Y-129916766D01*
X373934989Y-129781687D01*
X373849529Y-129653338D01*
X373754188Y-129532294D01*
X373649579Y-129419131D01*
X373536318Y-129314425D01*
X373415017Y-129218751D01*
X373286291Y-129132687D01*
X373150755Y-129056808D01*
X373035410Y-129002783D01*
X372898107Y-128949667D01*
X372760064Y-128908069D01*
X372619674Y-128877662D01*
X372475330Y-128858120D01*
X372325426Y-128849117D01*
X372275100Y-128848405D01*
X372116624Y-128853501D01*
X371963322Y-128870017D01*
X371814574Y-128898138D01*
X371669761Y-128938053D01*
X371528264Y-128989948D01*
X371389465Y-129054010D01*
X371252743Y-129130427D01*
X371172185Y-129181795D01*
X371060639Y-129263017D01*
X370953280Y-129354622D01*
X370851422Y-129455071D01*
X370756378Y-129562824D01*
X370669459Y-129676344D01*
X370591978Y-129794092D01*
X370525247Y-129914528D01*
X370497411Y-129972864D01*
X370448288Y-130088751D01*
X370408103Y-130200142D01*
X370375898Y-130310500D01*
X370350714Y-130423291D01*
X370331594Y-130541976D01*
X370324873Y-130596800D01*
X370321063Y-130642536D01*
X370318575Y-130697648D01*
X370317385Y-130758886D01*
X369891725Y-130758886D01*
X369892581Y-130688778D01*
X369897280Y-130584085D01*
X369905740Y-130486419D01*
X369918418Y-130393108D01*
X369935771Y-130301475D01*
X369958259Y-130208847D01*
X369986338Y-130112549D01*
X370020467Y-130009906D01*
X370033022Y-129974500D01*
X370095730Y-129818724D01*
X370170003Y-129668057D01*
X370255687Y-129522708D01*
X370352631Y-129382886D01*
X370460683Y-129248802D01*
X370579689Y-129120666D01*
X370709496Y-128998687D01*
X370794966Y-128926543D01*
X370863629Y-128874148D01*
X370941660Y-128820288D01*
X371026148Y-128766729D01*
X371114178Y-128715244D01*
X371202840Y-128667599D01*
X371289221Y-128625566D01*
X371294025Y-128623371D01*
X371349993Y-128599473D01*
X371414938Y-128574364D01*
X371485363Y-128549229D01*
X371557773Y-128525249D01*
X371628671Y-128503608D01*
X371694561Y-128485491D01*
X371720069Y-128479176D01*
X371794649Y-128462562D01*
X371865828Y-128449234D01*
X371936232Y-128438921D01*
X372008485Y-128431355D01*
X372085212Y-128426265D01*
X372169037Y-128423382D01*
X372262586Y-128422434D01*
X372271925Y-128422435D01*
%TA.AperFunction,EtchedComponent*%
G36*
X372271925Y-128422435D02*
G01*
X372371219Y-128423532D01*
X372460589Y-128426857D01*
X372542663Y-128432735D01*
X372620074Y-128441487D01*
X372695452Y-128453438D01*
X372771427Y-128468909D01*
X372850631Y-128488224D01*
X372886853Y-128497934D01*
X373053691Y-128550125D01*
X373215361Y-128613593D01*
X373371252Y-128688022D01*
X373520749Y-128773094D01*
X373663241Y-128868492D01*
X373784957Y-128962893D01*
X373911092Y-129075473D01*
X374028961Y-129196629D01*
X374138018Y-129325507D01*
X374237716Y-129461253D01*
X374327507Y-129603013D01*
X374406845Y-129749932D01*
X374475183Y-129901157D01*
X374531974Y-130055834D01*
X374570977Y-130190242D01*
X374597433Y-130302231D01*
X374617721Y-130407779D01*
X374632435Y-130511197D01*
X374642170Y-130616794D01*
X374647518Y-130728879D01*
X374648041Y-130749200D01*
X374645865Y-130923837D01*
X374631310Y-131095664D01*
X374604378Y-131264656D01*
X374565075Y-131430790D01*
X374513405Y-131594043D01*
X374462047Y-131725189D01*
X374439581Y-131777401D01*
X374420331Y-131820727D01*
X374402836Y-131858090D01*
X374385635Y-131892410D01*
X374367266Y-131926610D01*
X374346270Y-131963612D01*
X374322970Y-132003325D01*
X374227595Y-132152341D01*
X374123511Y-132292122D01*
X374010613Y-132422771D01*
X373888793Y-132544397D01*
X373757947Y-132657103D01*
X373617969Y-132760998D01*
X373472075Y-132854220D01*
X373429811Y-132878995D01*
X373393080Y-132899776D01*
X373358961Y-132918024D01*
X373324532Y-132935200D01*
X373286870Y-132952765D01*
X373243055Y-132972180D01*
X373193939Y-132993297D01*
X373116952Y-133024935D01*
X373045978Y-133051366D01*
X372976287Y-133074156D01*
X372903148Y-133094871D01*
X372837075Y-133111457D01*
X372705461Y-133139901D01*
X372579786Y-133160442D01*
X372456403Y-133173514D01*
X372331669Y-133179548D01*
X372259225Y-133180010D01*
X372218250Y-133179598D01*
X372179753Y-133179034D01*
X372146248Y-133178367D01*
X372120252Y-133177650D01*
X372104277Y-133176932D01*
X372103650Y-133176886D01*
X371930710Y-133157725D01*
X371760505Y-133126536D01*
X371593720Y-133083573D01*
X371431044Y-133029090D01*
X371273162Y-132963341D01*
X371120764Y-132886580D01*
X370974535Y-132799061D01*
X370853771Y-132715036D01*
X370715428Y-132604359D01*
X370586882Y-132485670D01*
X370468310Y-132359231D01*
X370359892Y-132225305D01*
X370261809Y-132084154D01*
X370174238Y-131936041D01*
X370097360Y-131781228D01*
X370031354Y-131619977D01*
X369976400Y-131452550D01*
X369966684Y-131418103D01*
X369945591Y-131336668D01*
X369928483Y-131259608D01*
X369915037Y-131184293D01*
X369904929Y-131108093D01*
X369897838Y-131028376D01*
X369893439Y-130942511D01*
X369891410Y-130847869D01*
X369891185Y-130803175D01*
X369891725Y-130758886D01*
X370317385Y-130758886D01*
X370317467Y-130822996D01*
X370318800Y-130886728D01*
X370321357Y-130946829D01*
X370325114Y-131000047D01*
X370328090Y-131028600D01*
X370353589Y-131186438D01*
X370390911Y-131339730D01*
X370439910Y-131488177D01*
X370500445Y-131631478D01*
X370572371Y-131769335D01*
X370655544Y-131901447D01*
X370749822Y-132027514D01*
X370855060Y-132147237D01*
X370872929Y-132165808D01*
X370980316Y-132267467D01*
X371096878Y-132361816D01*
X371220454Y-132447271D01*
X371348885Y-132522253D01*
X371385516Y-132541202D01*
X371445042Y-132570522D01*
X371497235Y-132594697D01*
X371545633Y-132615151D01*
X371593772Y-132633307D01*
X371645190Y-132650586D01*
X371697250Y-132666581D01*
X371848620Y-132706112D01*
X371997221Y-132733672D01*
X372144211Y-132749371D01*
X372290752Y-132753313D01*
X372438001Y-132745608D01*
X372491234Y-132740024D01*
X372641100Y-132716869D01*
X372784765Y-132683422D01*
X372924235Y-132639082D01*
X373061516Y-132583251D01*
X373139082Y-132546292D01*
X373275588Y-132471557D01*
X373403121Y-132388569D01*
X373522287Y-132296779D01*
X373633693Y-132195639D01*
X373737945Y-132084603D01*
X373835649Y-131963122D01*
X373922263Y-131838607D01*
X373942364Y-131805654D01*
X373965822Y-131763951D01*
X373991182Y-131716397D01*
X374016988Y-131665885D01*
X374041784Y-131615311D01*
X374064114Y-131567573D01*
X374082521Y-131525565D01*
X374093272Y-131498500D01*
X374143566Y-131345267D01*
X374181482Y-131191076D01*
X374206989Y-131036359D01*
X374220054Y-130881551D01*
X374220644Y-130727085D01*
X374208727Y-130573393D01*
X374184271Y-130420909D01*
X374176428Y-130384075D01*
X374149509Y-130275040D01*
X374118863Y-130174094D01*
X374082913Y-130076805D01*
X374040080Y-129978745D01*
X374009952Y-129916766D01*
X373934989Y-129781687D01*
X373849529Y-129653338D01*
X373754188Y-129532294D01*
X373649579Y-129419131D01*
X373536318Y-129314425D01*
X373415017Y-129218751D01*
X373286291Y-129132687D01*
X373150755Y-129056808D01*
X373035410Y-129002783D01*
X372898107Y-128949667D01*
X372760064Y-128908069D01*
X372619674Y-128877662D01*
X372475330Y-128858120D01*
X372325426Y-128849117D01*
X372275100Y-128848405D01*
X372116624Y-128853501D01*
X371963322Y-128870017D01*
X371814574Y-128898138D01*
X371669761Y-128938053D01*
X371528264Y-128989948D01*
X371389465Y-129054010D01*
X371252743Y-129130427D01*
X371172185Y-129181795D01*
X371060639Y-129263017D01*
X370953280Y-129354622D01*
X370851422Y-129455071D01*
X370756378Y-129562824D01*
X370669459Y-129676344D01*
X370591978Y-129794092D01*
X370525247Y-129914528D01*
X370497411Y-129972864D01*
X370448288Y-130088751D01*
X370408103Y-130200142D01*
X370375898Y-130310500D01*
X370350714Y-130423291D01*
X370331594Y-130541976D01*
X370324873Y-130596800D01*
X370321063Y-130642536D01*
X370318575Y-130697648D01*
X370317385Y-130758886D01*
X369891725Y-130758886D01*
X369892581Y-130688778D01*
X369897280Y-130584085D01*
X369905740Y-130486419D01*
X369918418Y-130393108D01*
X369935771Y-130301475D01*
X369958259Y-130208847D01*
X369986338Y-130112549D01*
X370020467Y-130009906D01*
X370033022Y-129974500D01*
X370095730Y-129818724D01*
X370170003Y-129668057D01*
X370255687Y-129522708D01*
X370352631Y-129382886D01*
X370460683Y-129248802D01*
X370579689Y-129120666D01*
X370709496Y-128998687D01*
X370794966Y-128926543D01*
X370863629Y-128874148D01*
X370941660Y-128820288D01*
X371026148Y-128766729D01*
X371114178Y-128715244D01*
X371202840Y-128667599D01*
X371289221Y-128625566D01*
X371294025Y-128623371D01*
X371349993Y-128599473D01*
X371414938Y-128574364D01*
X371485363Y-128549229D01*
X371557773Y-128525249D01*
X371628671Y-128503608D01*
X371694561Y-128485491D01*
X371720069Y-128479176D01*
X371794649Y-128462562D01*
X371865828Y-128449234D01*
X371936232Y-128438921D01*
X372008485Y-128431355D01*
X372085212Y-128426265D01*
X372169037Y-128423382D01*
X372262586Y-128422434D01*
X372271925Y-128422435D01*
G37*
%TD.AperFunction*%
D13*
X219075000Y-57150000D03*
X133350000Y-133350000D03*
X47625000Y-57150000D03*
X390525000Y-57150000D03*
X219075000Y-133350000D03*
X390525000Y-133350000D03*
X304800000Y-133350000D03*
X304800000Y-57150000D03*
X47625000Y-133350000D03*
X133350000Y-57150000D03*
D14*
X379775000Y-77475000D03*
X379775000Y-76200000D03*
X379775000Y-74925000D03*
X378500000Y-77475000D03*
X378500000Y-76200000D03*
X378500000Y-74925000D03*
X377225000Y-77475000D03*
X377225000Y-76200000D03*
X377225000Y-74925000D03*
D15*
X374298750Y-34950000D03*
D16*
X374298750Y-39130000D03*
D15*
X382938750Y-34950000D03*
D16*
X382938750Y-39130000D03*
D17*
X380800000Y-56200000D03*
X375800000Y-84100000D03*
X409700000Y-53700000D03*
X375200000Y-41600000D03*
X380000000Y-81700000D03*
X387200000Y-78100000D03*
X382400000Y-72400000D03*
X380500000Y-64100000D03*
X387300000Y-53000000D03*
X384150000Y-90650000D03*
X373500000Y-56200000D03*
X372200000Y-68900000D03*
X382400000Y-70000000D03*
X409600000Y-76500000D03*
X369000000Y-69400000D03*
X372000000Y-53100000D03*
X386400000Y-50100000D03*
X373100000Y-90650000D03*
X380500000Y-65200000D03*
X382000000Y-41600000D03*
X370800000Y-77700000D03*
X383800000Y-66800000D03*
X379600000Y-84300000D03*
X372300000Y-78600000D03*
X387900000Y-69700000D03*
X370575000Y-72225000D03*
X384600000Y-73200000D03*
X380800000Y-66500000D03*
X378100000Y-67500000D03*
X376900000Y-82200000D03*
X373300000Y-69500000D03*
X386100000Y-78100000D03*
X375500000Y-70100000D03*
X374700000Y-82300000D03*
X379200000Y-67300000D03*
X382300000Y-53100000D03*
X369200000Y-50800000D03*
X385000000Y-60100000D03*
X382300000Y-59300000D03*
X373500000Y-59300000D03*
X398000000Y-73600000D03*
X400300000Y-89000000D03*
X388700000Y-94300000D03*
X394700000Y-94300000D03*
X399100000Y-74500000D03*
X399800000Y-107700000D03*
X399800000Y-126700000D03*
X399100000Y-75600000D03*
X397100000Y-145800000D03*
X398000000Y-75600000D03*
X396800000Y-92100000D03*
X396800000Y-82700000D03*
X380100000Y-42700000D03*
X377100000Y-42700000D03*
X40500000Y-81200000D03*
X40500000Y-62100000D03*
X40500000Y-43100000D03*
X40500000Y-119300000D03*
X40500000Y-138300000D03*
X40500000Y-100200000D03*
X59600000Y-119300000D03*
X59600000Y-81200000D03*
X59600000Y-100200000D03*
X59600000Y-138300000D03*
X59600000Y-43100000D03*
X59600000Y-62100000D03*
X83400000Y-81200000D03*
X83400000Y-119300000D03*
X83400000Y-62100000D03*
X83400000Y-43100000D03*
X83400000Y-138300000D03*
X83400000Y-100200000D03*
X102400000Y-138300000D03*
X102400000Y-100200000D03*
X102400000Y-81200000D03*
X102400000Y-119300000D03*
X102400000Y-62100000D03*
X102400000Y-43100000D03*
X126300000Y-100200000D03*
X126300000Y-119300000D03*
X126300000Y-43100000D03*
X126300000Y-62100000D03*
X126300000Y-81200000D03*
X126300000Y-138300000D03*
X145300000Y-43100000D03*
X145300000Y-81200000D03*
X145300000Y-100200000D03*
X145300000Y-138300000D03*
X145300000Y-62100000D03*
X145300000Y-119300000D03*
X169100000Y-43100000D03*
X169100000Y-119300000D03*
X169100000Y-138300000D03*
X169100000Y-62100000D03*
X169100000Y-81200000D03*
X169100000Y-100200000D03*
X188200000Y-62100000D03*
X188200000Y-100200000D03*
X188200000Y-81200000D03*
X188200000Y-43100000D03*
X188200000Y-119300000D03*
X188200000Y-138300000D03*
X212000000Y-119300000D03*
X362800000Y-78900000D03*
X212000000Y-81200000D03*
X212000000Y-62100000D03*
X373800000Y-78500000D03*
X212000000Y-100200000D03*
X212000000Y-43100000D03*
X212000000Y-138300000D03*
X231000000Y-100200000D03*
X231000000Y-119300000D03*
X381400000Y-81700000D03*
X231000000Y-43100000D03*
X231000000Y-62100000D03*
X231000000Y-81200000D03*
X231000000Y-138300000D03*
X392900000Y-87700000D03*
X254900000Y-81200000D03*
X254900000Y-119300000D03*
X254900000Y-43100000D03*
X254900000Y-62100000D03*
X254900000Y-138300000D03*
X254900000Y-100200000D03*
X273900000Y-43100000D03*
X273900000Y-138300000D03*
X273900000Y-100200000D03*
X273900000Y-119300000D03*
X273900000Y-81200000D03*
X273900000Y-62100000D03*
X297700000Y-119300000D03*
X297700000Y-43100000D03*
X297700000Y-62100000D03*
X297700000Y-81200000D03*
X297700000Y-138300000D03*
X297700000Y-100200000D03*
X316800000Y-62100000D03*
X316800000Y-119300000D03*
X316800000Y-43100000D03*
X316800000Y-138300000D03*
X316800000Y-81200000D03*
X316800000Y-100200000D03*
X340600000Y-81200000D03*
X340600000Y-43100000D03*
X340600000Y-138300000D03*
X340600000Y-100200000D03*
X340600000Y-119300000D03*
X340600000Y-62100000D03*
X359600000Y-43100000D03*
X359600000Y-138300000D03*
X359600000Y-100200000D03*
X359600000Y-81200000D03*
X359200000Y-62100000D03*
X359600000Y-119300000D03*
X388000000Y-61900000D03*
X383700000Y-85200000D03*
X389700000Y-77200000D03*
X383400000Y-100200000D03*
X383500000Y-43100000D03*
X383400000Y-138300000D03*
X383400000Y-119300000D03*
X402500000Y-62100000D03*
X402500000Y-81200000D03*
X402500000Y-100200000D03*
X402500000Y-138300000D03*
X402500000Y-43100000D03*
X402500000Y-119300000D03*
X395800000Y-70800000D03*
X392500000Y-70500000D03*
X374700000Y-79750000D03*
X382300000Y-54200000D03*
X382300000Y-52000000D03*
X377100000Y-41600000D03*
X382300000Y-50100000D03*
X380100000Y-41600000D03*
D18*
X412500000Y-73600000D02*
X412500000Y-65400000D01*
X409700000Y-62600000D02*
X409700000Y-53700000D01*
X375200000Y-41600000D02*
X376100000Y-40700000D01*
X382400000Y-72400000D02*
X382400000Y-70000000D01*
D19*
X372200000Y-68900000D02*
X369500000Y-68900000D01*
D20*
X375800000Y-84100000D02*
X375800000Y-87950000D01*
D19*
X387200000Y-73000000D02*
X389000000Y-71200000D01*
D18*
X380500000Y-65200000D02*
X375900000Y-65200000D01*
X381100000Y-40700000D02*
X382000000Y-41600000D01*
D19*
X384600000Y-68100000D02*
X383800000Y-67300000D01*
X369500000Y-68900000D02*
X369000000Y-69400000D01*
D18*
X380500000Y-65200000D02*
X380500000Y-64100000D01*
X386500000Y-79300000D02*
X387200000Y-78600000D01*
X387200000Y-78600000D02*
X387200000Y-78100000D01*
X409600000Y-76500000D02*
X412500000Y-73600000D01*
X412500000Y-65400000D02*
X409700000Y-62600000D01*
X382400000Y-76700000D02*
X385000000Y-79300000D01*
X383800000Y-66800000D02*
X382200000Y-65200000D01*
D21*
X372000000Y-53100000D02*
X372000000Y-54700000D01*
D19*
X369000000Y-69400000D02*
X369000000Y-75900000D01*
D18*
X386400000Y-52100000D02*
X387300000Y-53000000D01*
D21*
X373500000Y-56200000D02*
X380800000Y-56200000D01*
D18*
X382400000Y-72400000D02*
X382400000Y-76700000D01*
D19*
X369000000Y-75900000D02*
X370800000Y-77700000D01*
D18*
X385000000Y-79300000D02*
X386500000Y-79300000D01*
D20*
X380000000Y-79100000D02*
X382400000Y-76700000D01*
D19*
X387200000Y-78100000D02*
X387200000Y-73000000D01*
X389000000Y-69100000D02*
X388000000Y-68100000D01*
X388000000Y-68100000D02*
X384600000Y-68100000D01*
D18*
X376100000Y-40700000D02*
X381100000Y-40700000D01*
X382200000Y-65200000D02*
X380500000Y-65200000D01*
D19*
X389000000Y-71200000D02*
X389000000Y-69100000D01*
D18*
X386400000Y-50100000D02*
X386400000Y-52100000D01*
D21*
X372000000Y-54700000D02*
X373500000Y-56200000D01*
D20*
X375800000Y-87950000D02*
X373100000Y-90650000D01*
D19*
X383800000Y-67300000D02*
X383800000Y-66800000D01*
D20*
X380000000Y-81700000D02*
X380000000Y-79100000D01*
D18*
X375900000Y-65200000D02*
X372200000Y-68900000D01*
D20*
X373100000Y-90650000D02*
X384150000Y-90650000D01*
D18*
X374200000Y-77600000D02*
X373300000Y-77600000D01*
X380700000Y-66400000D02*
X380800000Y-66500000D01*
X378100000Y-67500000D02*
X378100000Y-67100000D01*
X373800000Y-81900000D02*
X375600000Y-80100000D01*
X377500000Y-67700000D02*
X376500000Y-67700000D01*
X373300000Y-69500000D02*
X370575000Y-72225000D01*
X376200000Y-82200000D02*
X375200000Y-83200000D01*
X378800000Y-66400000D02*
X380700000Y-66400000D01*
X375200000Y-83200000D02*
X374300000Y-83200000D01*
X373300000Y-77600000D02*
X372300000Y-78600000D01*
X378100000Y-67100000D02*
X378800000Y-66400000D01*
X374500000Y-69700000D02*
X374500000Y-69900000D01*
X384600000Y-76600000D02*
X384600000Y-70300000D01*
X374500000Y-77300000D02*
X374500000Y-69900000D01*
X385200000Y-69700000D02*
X384600000Y-70300000D01*
X384200000Y-69900000D02*
X380800000Y-66500000D01*
X387900000Y-69700000D02*
X385200000Y-69700000D01*
X374500000Y-69700000D02*
X373500000Y-69700000D01*
X373500000Y-69700000D02*
X373300000Y-69500000D01*
X376900000Y-82200000D02*
X376200000Y-82200000D01*
X376500000Y-67700000D02*
X374500000Y-69700000D01*
X374200000Y-77600000D02*
X374500000Y-77300000D01*
X375600000Y-80100000D02*
X375600000Y-79000000D01*
X386100000Y-78100000D02*
X384600000Y-76600000D01*
X373800000Y-82700000D02*
X373800000Y-81900000D01*
X378100000Y-67100000D02*
X377500000Y-67700000D01*
X375600000Y-79000000D02*
X374200000Y-77600000D01*
X374300000Y-83200000D02*
X373800000Y-82700000D01*
X384600000Y-70300000D02*
X384200000Y-69900000D01*
X374700000Y-82000000D02*
X374700000Y-82300000D01*
X375500000Y-70100000D02*
X375500000Y-69700000D01*
X378500000Y-68400000D02*
X379200000Y-67700000D01*
X375200000Y-70000000D02*
X375500000Y-69700000D01*
X376300000Y-80400000D02*
X374700000Y-82000000D01*
X376800000Y-68400000D02*
X378500000Y-68400000D01*
X375500000Y-70100000D02*
X375200000Y-70400000D01*
X375200000Y-70400000D02*
X375200000Y-70600000D01*
X375200000Y-70600000D02*
X375200000Y-77600000D01*
X375200000Y-77600000D02*
X376300000Y-78700000D01*
X375200000Y-70600000D02*
X375200000Y-70000000D01*
X379200000Y-67700000D02*
X379200000Y-67300000D01*
X376300000Y-78700000D02*
X376300000Y-80400000D01*
X375500000Y-69700000D02*
X376800000Y-68400000D01*
D20*
X385000000Y-59500000D02*
X383100000Y-57600000D01*
X369200000Y-50800000D02*
X369600000Y-51200000D01*
X369600000Y-51200000D02*
X379800000Y-51200000D01*
X381700000Y-53100000D02*
X382300000Y-53100000D01*
X383100000Y-53900000D02*
X382300000Y-53100000D01*
X383100000Y-57600000D02*
X383100000Y-57400000D01*
X385000000Y-60100000D02*
X385000000Y-59500000D01*
X379800000Y-51200000D02*
X381700000Y-53100000D01*
X383100000Y-57400000D02*
X383100000Y-53900000D01*
X373500000Y-59300000D02*
X382300000Y-59300000D01*
X399400000Y-73600000D02*
X398000000Y-73600000D01*
X398800000Y-87500000D02*
X398800000Y-77700000D01*
X400300000Y-76200000D02*
X400300000Y-74500000D01*
X400300000Y-89000000D02*
X398800000Y-87500000D01*
X400300000Y-74500000D02*
X399400000Y-73600000D01*
X398800000Y-77700000D02*
X400300000Y-76200000D01*
X388700000Y-94300000D02*
X394700000Y-94300000D01*
X399900000Y-76000000D02*
X398400000Y-77500000D01*
X399900000Y-75200000D02*
X399900000Y-76000000D01*
X398400000Y-77500000D02*
X398400000Y-106300000D01*
X399100000Y-74500000D02*
X399200000Y-74500000D01*
X399200000Y-74500000D02*
X399900000Y-75200000D01*
X398400000Y-106300000D02*
X399800000Y-107700000D01*
X399100000Y-75600000D02*
X399100000Y-76200000D01*
X398000000Y-77300000D02*
X398000000Y-124900000D01*
X398000000Y-124900000D02*
X399800000Y-126700000D01*
X399100000Y-76200000D02*
X398000000Y-77300000D01*
X397600000Y-76000000D02*
X398000000Y-75600000D01*
X397600000Y-145300000D02*
X397600000Y-76000000D01*
X397100000Y-145800000D02*
X397600000Y-145300000D01*
X396800000Y-92100000D02*
X397200000Y-91700000D01*
X397200000Y-83100000D02*
X396800000Y-82700000D01*
X397200000Y-91700000D02*
X397200000Y-83100000D01*
D21*
X377100000Y-42700000D02*
X380100000Y-42700000D01*
D20*
X40500000Y-100200000D02*
X40500000Y-81200000D01*
X40500000Y-119300000D02*
X40500000Y-100200000D01*
X40500000Y-81200000D02*
X40500000Y-62100000D01*
X40500000Y-62100000D02*
X40500000Y-43100000D01*
X40500000Y-138300000D02*
X40500000Y-119300000D01*
X59600000Y-119300000D02*
X59600000Y-100200000D01*
X59600000Y-62100000D02*
X59600000Y-43100000D01*
X59600000Y-81200000D02*
X59600000Y-62100000D01*
X59600000Y-100200000D02*
X59600000Y-81200000D01*
X59600000Y-138300000D02*
X59600000Y-119300000D01*
X83400000Y-119300000D02*
X83400000Y-100200000D01*
X83400000Y-62100000D02*
X83400000Y-43100000D01*
X83400000Y-100200000D02*
X83400000Y-81200000D01*
X83400000Y-81200000D02*
X83400000Y-62100000D01*
X83400000Y-138300000D02*
X83400000Y-119300000D01*
X102400000Y-100200000D02*
X102400000Y-81200000D01*
X102400000Y-138300000D02*
X102400000Y-119300000D01*
X102400000Y-81200000D02*
X102400000Y-62100000D01*
X102400000Y-62100000D02*
X102400000Y-43100000D01*
X102400000Y-119300000D02*
X102400000Y-100200000D01*
X126300000Y-100200000D02*
X126300000Y-81200000D01*
X126300000Y-138300000D02*
X126300000Y-119300000D01*
X126300000Y-119300000D02*
X126300000Y-100200000D01*
X126300000Y-62100000D02*
X126300000Y-43100000D01*
X126300000Y-81200000D02*
X126300000Y-62100000D01*
X145300000Y-81200000D02*
X145300000Y-62100000D01*
X145300000Y-119300000D02*
X145300000Y-100200000D01*
X145300000Y-138300000D02*
X145300000Y-119300000D01*
X145300000Y-100200000D02*
X145300000Y-81200000D01*
X145300000Y-62100000D02*
X145300000Y-43100000D01*
X169100000Y-138300000D02*
X169100000Y-119300000D01*
X169100000Y-119300000D02*
X169100000Y-100200000D01*
X169100000Y-62100000D02*
X169100000Y-43100000D01*
X169100000Y-81200000D02*
X169100000Y-62100000D01*
X169100000Y-100200000D02*
X169100000Y-81200000D01*
X188200000Y-100200000D02*
X188200000Y-81200000D01*
X188200000Y-81200000D02*
X188200000Y-62100000D01*
X188200000Y-138300000D02*
X188200000Y-119300000D01*
X188200000Y-119300000D02*
X188200000Y-100200000D01*
X188200000Y-62100000D02*
X188200000Y-43100000D01*
X212000000Y-62100000D02*
X212000000Y-43100000D01*
X212000000Y-100200000D02*
X212000000Y-81200000D01*
X370100000Y-82700000D02*
X366000000Y-82700000D01*
X373800000Y-79000000D02*
X370100000Y-82700000D01*
X373800000Y-78500000D02*
X373800000Y-79000000D01*
X212000000Y-81200000D02*
X212000000Y-62100000D01*
X212000000Y-119300000D02*
X212000000Y-100200000D01*
X362800000Y-79500000D02*
X362800000Y-78900000D01*
X366000000Y-82700000D02*
X362800000Y-79500000D01*
X212000000Y-138300000D02*
X212000000Y-119300000D01*
X382000000Y-81100000D02*
X389700000Y-81100000D01*
X231000000Y-81200000D02*
X231000000Y-62100000D01*
X393300000Y-87300000D02*
X392900000Y-87700000D01*
X393300000Y-86200000D02*
X393300000Y-87300000D01*
X231000000Y-119300000D02*
X231000000Y-100200000D01*
X231000000Y-138300000D02*
X231000000Y-119300000D01*
X231000000Y-100200000D02*
X231000000Y-81200000D01*
X381400000Y-81700000D02*
X382000000Y-81100000D01*
X389700000Y-81100000D02*
X393300000Y-84700000D01*
X393300000Y-84700000D02*
X393300000Y-86200000D01*
X231000000Y-62100000D02*
X231000000Y-43100000D01*
X254900000Y-81200000D02*
X254900000Y-62100000D01*
X254900000Y-62100000D02*
X254900000Y-43100000D01*
X254900000Y-100200000D02*
X254900000Y-81200000D01*
X254900000Y-138300000D02*
X254900000Y-119300000D01*
X254900000Y-119300000D02*
X254900000Y-100200000D01*
X273900000Y-100200000D02*
X273900000Y-81200000D01*
X273900000Y-138300000D02*
X273900000Y-119300000D01*
X273900000Y-62100000D02*
X273900000Y-43100000D01*
X273900000Y-119300000D02*
X273900000Y-100200000D01*
X273900000Y-81200000D02*
X273900000Y-62100000D01*
X297700000Y-100200000D02*
X297700000Y-81200000D01*
X297700000Y-62100000D02*
X297700000Y-43100000D01*
X297700000Y-81200000D02*
X297700000Y-62100000D01*
X297700000Y-138300000D02*
X297700000Y-119300000D01*
X297700000Y-119300000D02*
X297700000Y-100200000D01*
X316800000Y-81200000D02*
X316800000Y-62100000D01*
X316800000Y-138300000D02*
X316800000Y-119300000D01*
X316800000Y-62100000D02*
X316800000Y-43100000D01*
X316800000Y-119300000D02*
X316800000Y-100200000D01*
X316800000Y-100200000D02*
X316800000Y-81200000D01*
X340600000Y-100200000D02*
X340600000Y-81200000D01*
X340600000Y-119300000D02*
X340600000Y-100200000D01*
X340600000Y-62100000D02*
X340600000Y-43100000D01*
X340600000Y-81200000D02*
X340600000Y-62100000D01*
X340600000Y-138300000D02*
X340600000Y-119300000D01*
X359600000Y-61700000D02*
X359200000Y-62100000D01*
X359600000Y-61500000D02*
X359600000Y-43100000D01*
X359600000Y-138300000D02*
X359600000Y-119300000D01*
X359600000Y-62800000D02*
X359600000Y-62500000D01*
X359600000Y-61500000D02*
X359600000Y-61700000D01*
X359600000Y-62800000D02*
X359600000Y-68600000D01*
X359600000Y-62800000D02*
X359600000Y-61500000D01*
X359600000Y-119300000D02*
X359600000Y-100200000D01*
X359600000Y-68600000D02*
X359600000Y-81200000D01*
X359600000Y-100200000D02*
X359600000Y-81200000D01*
X359600000Y-62500000D02*
X359200000Y-62100000D01*
X383500000Y-43200000D02*
X383500000Y-43100000D01*
X392000000Y-88900000D02*
X392800000Y-88900000D01*
X383500000Y-57400000D02*
X388000000Y-61900000D01*
X386600000Y-88900000D02*
X386600000Y-91500000D01*
X390000000Y-63900000D02*
X395100000Y-63900000D01*
X392800000Y-88900000D02*
X393700000Y-88000000D01*
X383500000Y-43200000D02*
X383500000Y-57400000D01*
X389900000Y-77400000D02*
X389700000Y-77200000D01*
X386200000Y-88500000D02*
X383700000Y-86000000D01*
X383700000Y-86000000D02*
X383700000Y-85200000D01*
X397200000Y-81000000D02*
X393700000Y-84500000D01*
X395100000Y-63900000D02*
X397200000Y-66000000D01*
X393700000Y-84500000D02*
X389900000Y-80700000D01*
X393700000Y-88000000D02*
X393700000Y-84500000D01*
X389900000Y-80700000D02*
X389900000Y-77400000D01*
X397200000Y-66000000D02*
X397200000Y-76400000D01*
X383400000Y-119300000D02*
X383400000Y-100200000D01*
X397200000Y-79900000D02*
X397200000Y-81000000D01*
X383400000Y-138300000D02*
X383400000Y-119300000D01*
X386600000Y-88900000D02*
X386200000Y-88500000D01*
X383400000Y-94700000D02*
X383400000Y-100200000D01*
X386600000Y-91500000D02*
X383400000Y-94700000D01*
X388000000Y-61900000D02*
X390000000Y-63900000D01*
X397200000Y-76400000D02*
X397200000Y-79900000D01*
X392000000Y-88900000D02*
X386600000Y-88900000D01*
X402500000Y-119300000D02*
X402500000Y-100200000D01*
X402500000Y-77900000D02*
X402500000Y-62100000D01*
X402500000Y-100200000D02*
X402500000Y-81200000D01*
X402500000Y-138300000D02*
X402500000Y-119300000D01*
X402500000Y-62100000D02*
X402500000Y-43100000D01*
X402500000Y-81200000D02*
X402500000Y-77900000D01*
X395500000Y-70500000D02*
X395800000Y-70800000D01*
X392500000Y-70500000D02*
X395500000Y-70500000D01*
X382200000Y-54200000D02*
X379600000Y-51600000D01*
X370300000Y-83100000D02*
X373650000Y-79750000D01*
X365800000Y-83100000D02*
X370300000Y-83100000D01*
X379600000Y-51600000D02*
X365800000Y-51600000D01*
X360000000Y-77300000D02*
X365800000Y-83100000D01*
X365800000Y-51600000D02*
X360000000Y-57400000D01*
X360000000Y-57400000D02*
X360000000Y-77300000D01*
X382300000Y-54200000D02*
X382200000Y-54200000D01*
X373650000Y-79750000D02*
X374700000Y-79750000D01*
X381500000Y-51200000D02*
X381500000Y-45000000D01*
X380000000Y-43500000D02*
X376700000Y-43500000D01*
X381500000Y-45000000D02*
X380000000Y-43500000D01*
X376300000Y-42300000D02*
X377000000Y-41600000D01*
X382300000Y-52000000D02*
X381500000Y-51200000D01*
X376300000Y-43100000D02*
X376300000Y-42300000D01*
X376700000Y-43500000D02*
X376300000Y-43100000D01*
X377000000Y-41600000D02*
X377100000Y-41600000D01*
X382300000Y-50100000D02*
X381900000Y-49700000D01*
X381900000Y-49700000D02*
X381900000Y-43000000D01*
X380500000Y-41600000D02*
X380100000Y-41600000D01*
X381900000Y-43000000D02*
X380500000Y-41600000D01*
%TA.AperFunction,Conductor*%
G36*
X383356444Y-34131801D02*
G01*
X383379477Y-34132446D01*
X383382864Y-34132635D01*
X383425460Y-34136221D01*
X383467861Y-34140989D01*
X383471245Y-34141466D01*
X383553326Y-34155399D01*
X383560114Y-34156948D01*
X383578421Y-34162221D01*
X383638423Y-34179506D01*
X383644977Y-34181800D01*
X383677496Y-34195271D01*
X383720265Y-34212991D01*
X383726532Y-34216009D01*
X383797850Y-34255429D01*
X383803741Y-34259131D01*
X383870195Y-34306285D01*
X383875627Y-34310617D01*
X383875677Y-34310661D01*
X383936393Y-34364925D01*
X383941312Y-34369845D01*
X383995606Y-34430604D01*
X383999944Y-34436043D01*
X384047093Y-34502496D01*
X384050795Y-34508388D01*
X384090212Y-34579710D01*
X384093231Y-34585979D01*
X384124413Y-34661264D01*
X384126711Y-34667831D01*
X384149268Y-34746130D01*
X384150816Y-34752914D01*
X384164756Y-34834961D01*
X384165242Y-34838404D01*
X384170009Y-34880702D01*
X384173604Y-34923334D01*
X384173799Y-34926805D01*
X384174500Y-34951756D01*
X384174500Y-37254838D01*
X384174449Y-37255011D01*
X384174452Y-37419828D01*
X384174842Y-37425268D01*
X384175000Y-37429693D01*
X384175000Y-41271517D01*
X384174610Y-41278457D01*
X384167905Y-41337963D01*
X384156663Y-41437739D01*
X384150484Y-41464810D01*
X384101006Y-41606209D01*
X384088959Y-41631226D01*
X384009260Y-41758067D01*
X383991947Y-41779776D01*
X383886026Y-41885697D01*
X383864317Y-41903010D01*
X383737476Y-41982709D01*
X383712459Y-41994756D01*
X383571060Y-42044234D01*
X383543989Y-42050413D01*
X383453456Y-42060614D01*
X383384706Y-42068360D01*
X383377768Y-42068750D01*
X381701055Y-42068750D01*
X381634016Y-42049065D01*
X381613374Y-42032431D01*
X380886505Y-41305562D01*
X380869869Y-41284918D01*
X380867635Y-41281441D01*
X380829974Y-41248808D01*
X380826748Y-41245805D01*
X380816123Y-41235180D01*
X380804095Y-41226175D01*
X380800650Y-41223399D01*
X380783184Y-41208264D01*
X380759394Y-41180524D01*
X380714867Y-41109660D01*
X380590340Y-40985133D01*
X380590334Y-40985128D01*
X380441229Y-40891438D01*
X380274994Y-40833271D01*
X380100004Y-40813555D01*
X380099996Y-40813555D01*
X379925005Y-40833271D01*
X379758770Y-40891438D01*
X379609665Y-40985128D01*
X379609659Y-40985133D01*
X379485133Y-41109659D01*
X379485128Y-41109665D01*
X379391438Y-41258770D01*
X379333271Y-41425005D01*
X379313555Y-41599996D01*
X379313555Y-41600003D01*
X379333271Y-41774994D01*
X379378253Y-41903546D01*
X379381814Y-41973325D01*
X379347085Y-42033952D01*
X379285091Y-42066179D01*
X379261211Y-42068500D01*
X377938789Y-42068500D01*
X377871750Y-42048815D01*
X377825995Y-41996011D01*
X377816051Y-41926853D01*
X377821747Y-41903546D01*
X377828557Y-41884081D01*
X377866727Y-41775000D01*
X377883347Y-41627497D01*
X377886445Y-41600003D01*
X377886445Y-41599996D01*
X377866728Y-41425005D01*
X377866727Y-41425003D01*
X377866727Y-41425000D01*
X377824934Y-41305562D01*
X377808561Y-41258770D01*
X377714871Y-41109665D01*
X377714866Y-41109659D01*
X377590340Y-40985133D01*
X377590334Y-40985128D01*
X377441229Y-40891438D01*
X377274994Y-40833271D01*
X377100004Y-40813555D01*
X377099996Y-40813555D01*
X376925005Y-40833271D01*
X376758770Y-40891438D01*
X376609665Y-40985128D01*
X376609659Y-40985133D01*
X376485133Y-41109659D01*
X376485128Y-41109665D01*
X376391438Y-41258770D01*
X376333271Y-41425005D01*
X376317714Y-41563083D01*
X376290647Y-41627497D01*
X376282175Y-41636880D01*
X376005558Y-41913497D01*
X375984925Y-41930126D01*
X375981444Y-41932362D01*
X375981440Y-41932366D01*
X375948816Y-41970015D01*
X375945806Y-41973248D01*
X375935179Y-41983876D01*
X375935178Y-41983878D01*
X375926180Y-41995897D01*
X375923408Y-41999337D01*
X375907840Y-42017305D01*
X375900351Y-42025947D01*
X375841577Y-42063725D01*
X375806635Y-42068750D01*
X373859732Y-42068750D01*
X373852793Y-42068360D01*
X373777026Y-42059823D01*
X373693510Y-42050413D01*
X373666439Y-42044234D01*
X373525040Y-41994756D01*
X373500023Y-41982709D01*
X373373182Y-41903010D01*
X373351473Y-41885697D01*
X373245552Y-41779776D01*
X373228239Y-41758067D01*
X373148540Y-41631226D01*
X373136493Y-41606209D01*
X373087015Y-41464810D01*
X373080836Y-41437739D01*
X373062887Y-41278440D01*
X373062500Y-41271534D01*
X373062500Y-38600000D01*
X375148284Y-38600000D01*
X375168062Y-38750234D01*
X375168063Y-38750236D01*
X375226052Y-38890233D01*
X375318299Y-39010451D01*
X375438517Y-39102698D01*
X375578514Y-39160687D01*
X375691030Y-39175500D01*
X375691037Y-39175500D01*
X375766463Y-39175500D01*
X375766470Y-39175500D01*
X375878986Y-39160687D01*
X376018983Y-39102698D01*
X376139201Y-39010451D01*
X376231448Y-38890233D01*
X376289437Y-38750236D01*
X376309216Y-38600000D01*
X380928284Y-38600000D01*
X380948062Y-38750234D01*
X380948063Y-38750236D01*
X381006052Y-38890233D01*
X381098299Y-39010451D01*
X381218517Y-39102698D01*
X381358514Y-39160687D01*
X381471030Y-39175500D01*
X381471037Y-39175500D01*
X381546463Y-39175500D01*
X381546470Y-39175500D01*
X381658986Y-39160687D01*
X381798983Y-39102698D01*
X381919201Y-39010451D01*
X382011448Y-38890233D01*
X382069437Y-38750236D01*
X382089216Y-38600000D01*
X382069437Y-38449764D01*
X382011448Y-38309767D01*
X381919201Y-38189549D01*
X381798983Y-38097302D01*
X381798979Y-38097300D01*
X381731190Y-38069221D01*
X381658986Y-38039313D01*
X381644921Y-38037461D01*
X381546477Y-38024500D01*
X381546470Y-38024500D01*
X381471030Y-38024500D01*
X381471022Y-38024500D01*
X381358514Y-38039313D01*
X381358513Y-38039313D01*
X381218520Y-38097300D01*
X381218517Y-38097301D01*
X381218517Y-38097302D01*
X381098299Y-38189549D01*
X381043981Y-38260338D01*
X381006050Y-38309770D01*
X380948063Y-38449763D01*
X380948062Y-38449765D01*
X380928284Y-38599999D01*
X380928284Y-38600000D01*
X376309216Y-38600000D01*
X376289437Y-38449764D01*
X376231448Y-38309767D01*
X376139201Y-38189549D01*
X376018983Y-38097302D01*
X376018979Y-38097300D01*
X375951190Y-38069221D01*
X375878986Y-38039313D01*
X375864921Y-38037461D01*
X375766477Y-38024500D01*
X375766470Y-38024500D01*
X375691030Y-38024500D01*
X375691022Y-38024500D01*
X375578514Y-38039313D01*
X375578513Y-38039313D01*
X375438520Y-38097300D01*
X375438517Y-38097301D01*
X375438517Y-38097302D01*
X375318299Y-38189549D01*
X375263981Y-38260338D01*
X375226050Y-38309770D01*
X375168063Y-38449763D01*
X375168062Y-38449765D01*
X375148284Y-38599999D01*
X375148284Y-38600000D01*
X373062500Y-38600000D01*
X373062500Y-37428946D01*
X373062658Y-37424536D01*
X373062996Y-37419823D01*
X373063000Y-37306250D01*
X373063000Y-34951910D01*
X373063706Y-34926809D01*
X373063902Y-34923328D01*
X373067515Y-34880598D01*
X373067515Y-34880597D01*
X373072282Y-34838392D01*
X373072765Y-34834985D01*
X373086725Y-34752918D01*
X373088267Y-34746160D01*
X373110840Y-34667831D01*
X373113132Y-34661283D01*
X373113140Y-34661264D01*
X373144317Y-34585990D01*
X373147326Y-34579742D01*
X373186748Y-34508411D01*
X373190446Y-34502527D01*
X373237594Y-34436074D01*
X373241932Y-34430634D01*
X373241959Y-34430604D01*
X373296226Y-34369875D01*
X373301141Y-34364961D01*
X373310166Y-34356895D01*
X373361907Y-34310653D01*
X373367322Y-34306334D01*
X373433802Y-34259160D01*
X373439667Y-34255474D01*
X373510993Y-34216050D01*
X373517257Y-34213034D01*
X373535252Y-34205578D01*
X373592536Y-34181848D01*
X373599085Y-34179555D01*
X373658507Y-34162433D01*
X373677395Y-34156991D01*
X373684174Y-34155442D01*
X373766247Y-34141493D01*
X373769627Y-34141015D01*
X373805973Y-34136917D01*
X373811932Y-34136246D01*
X373854591Y-34132646D01*
X373858066Y-34132451D01*
X373883039Y-34131750D01*
X383354611Y-34131750D01*
X383356444Y-34131801D01*
G37*
%TD.AperFunction*%
%TA.AperFunction,Conductor*%
G36*
X384978012Y-63519685D02*
G01*
X385023767Y-63572489D01*
X385033711Y-63641647D01*
X385029464Y-63660550D01*
X385005867Y-63737050D01*
X385003604Y-63744385D01*
X385000485Y-63765081D01*
X384964500Y-64003812D01*
X384964500Y-64266187D01*
X384982441Y-64385212D01*
X385003604Y-64525615D01*
X385003605Y-64525617D01*
X385003606Y-64525623D01*
X385080938Y-64776326D01*
X385194767Y-65012696D01*
X385194768Y-65012697D01*
X385194770Y-65012700D01*
X385194772Y-65012704D01*
X385261938Y-65111218D01*
X385342567Y-65229479D01*
X385469282Y-65366046D01*
X385500450Y-65428579D01*
X385492863Y-65498035D01*
X385448929Y-65552364D01*
X385390171Y-65573825D01*
X385235610Y-65588583D01*
X385235611Y-65588584D01*
X385235607Y-65588585D01*
X385033791Y-65647843D01*
X384846831Y-65744228D01*
X384681490Y-65874252D01*
X384681489Y-65874253D01*
X384543749Y-66033214D01*
X384543740Y-66033225D01*
X384438574Y-66215379D01*
X384369779Y-66414148D01*
X384369778Y-66414153D01*
X384369778Y-66414154D01*
X384339843Y-66622355D01*
X384349852Y-66832459D01*
X384399442Y-67036871D01*
X384439689Y-67125000D01*
X384486820Y-67228204D01*
X384486821Y-67228205D01*
X384608826Y-67399539D01*
X384608831Y-67399544D01*
X384761063Y-67544697D01*
X384938014Y-67658416D01*
X385133288Y-67736593D01*
X385262084Y-67761416D01*
X385339828Y-67776400D01*
X385339829Y-67776400D01*
X385497461Y-67776400D01*
X385497468Y-67776400D01*
X385654389Y-67761416D01*
X385856211Y-67702156D01*
X386043170Y-67605771D01*
X386208510Y-67475747D01*
X386346255Y-67316781D01*
X386451426Y-67134619D01*
X386520222Y-66935846D01*
X386550157Y-66727645D01*
X386540148Y-66517541D01*
X386490558Y-66313129D01*
X386403179Y-66121795D01*
X386364881Y-66068013D01*
X386342030Y-66001988D01*
X386358503Y-65934088D01*
X386409070Y-65885872D01*
X386475157Y-65872435D01*
X386649500Y-65885500D01*
X386649506Y-65885500D01*
X386780500Y-65885500D01*
X386976620Y-65870803D01*
X386976622Y-65870802D01*
X386976630Y-65870802D01*
X387232416Y-65812420D01*
X387476643Y-65716568D01*
X387703857Y-65585386D01*
X387908981Y-65421805D01*
X388087433Y-65229479D01*
X388235228Y-65012704D01*
X388349063Y-64776323D01*
X388426396Y-64525615D01*
X388465500Y-64266182D01*
X388465500Y-64003818D01*
X388426396Y-63744385D01*
X388400535Y-63660548D01*
X388399586Y-63590687D01*
X388436557Y-63531401D01*
X388499712Y-63501514D01*
X388519027Y-63500000D01*
X388867695Y-63500000D01*
X388934734Y-63519685D01*
X388955376Y-63536319D01*
X389613495Y-64194438D01*
X389630130Y-64215080D01*
X389632364Y-64218557D01*
X389670023Y-64251189D01*
X389673250Y-64254193D01*
X389683877Y-64264820D01*
X389693150Y-64271761D01*
X389695899Y-64273819D01*
X389699347Y-64276598D01*
X389737004Y-64309228D01*
X389737005Y-64309229D01*
X389740761Y-64310944D01*
X389763569Y-64324477D01*
X389766866Y-64326945D01*
X389766869Y-64326947D01*
X389771097Y-64328524D01*
X389827032Y-64370392D01*
X389851452Y-64435855D01*
X389836603Y-64504129D01*
X389787200Y-64553536D01*
X389768444Y-64561846D01*
X389646843Y-64604071D01*
X389378662Y-64739589D01*
X389130918Y-64909655D01*
X388908062Y-65111216D01*
X388714058Y-65340686D01*
X388714056Y-65340688D01*
X388552366Y-65593972D01*
X388425886Y-65866531D01*
X388425882Y-65866540D01*
X388399852Y-65950454D01*
X388336854Y-66153535D01*
X388286874Y-66449842D01*
X388276833Y-66750167D01*
X388306910Y-67049142D01*
X388306911Y-67049149D01*
X388376568Y-67341441D01*
X388376571Y-67341453D01*
X388484566Y-67621853D01*
X388484573Y-67621868D01*
X388628979Y-67885375D01*
X388628983Y-67885381D01*
X388720296Y-68009312D01*
X388807223Y-68127290D01*
X389016121Y-68343289D01*
X389251946Y-68529518D01*
X389510487Y-68682652D01*
X389787133Y-68799960D01*
X389787136Y-68799960D01*
X389787139Y-68799962D01*
X389908760Y-68833277D01*
X389968217Y-68869973D01*
X389998396Y-68932989D01*
X390000000Y-68952871D01*
X390000000Y-76308600D01*
X389980315Y-76375639D01*
X389927511Y-76421394D01*
X389862117Y-76431820D01*
X389700004Y-76413555D01*
X389699996Y-76413555D01*
X389525005Y-76433271D01*
X389358770Y-76491438D01*
X389209665Y-76585128D01*
X389209659Y-76585133D01*
X389085133Y-76709659D01*
X389085128Y-76709665D01*
X388991438Y-76858770D01*
X388933271Y-77025005D01*
X388913555Y-77199996D01*
X388913555Y-77200003D01*
X388933271Y-77374994D01*
X388991438Y-77541229D01*
X389085128Y-77690334D01*
X389085133Y-77690340D01*
X389209660Y-77814867D01*
X389238950Y-77833271D01*
X389360472Y-77909629D01*
X389406763Y-77961964D01*
X389418500Y-78014623D01*
X389418500Y-80494500D01*
X389398815Y-80561539D01*
X389346011Y-80607294D01*
X389294500Y-80618500D01*
X382065097Y-80618500D01*
X382038739Y-80615666D01*
X382034703Y-80614788D01*
X382034700Y-80614788D01*
X382004767Y-80616929D01*
X381985012Y-80618342D01*
X381980591Y-80618500D01*
X381965563Y-80618500D01*
X381950696Y-80620637D01*
X381946300Y-80621110D01*
X381908577Y-80623808D01*
X381896597Y-80624666D01*
X381896595Y-80624666D01*
X381896591Y-80624667D01*
X381892716Y-80626113D01*
X381867052Y-80632664D01*
X381862951Y-80633254D01*
X381862948Y-80633254D01*
X381817620Y-80653953D01*
X381813536Y-80655645D01*
X381766869Y-80673053D01*
X381766861Y-80673057D01*
X381763557Y-80675531D01*
X381740779Y-80689046D01*
X381737011Y-80690767D01*
X381737004Y-80690771D01*
X381699344Y-80723403D01*
X381695901Y-80726178D01*
X381683879Y-80735178D01*
X381683868Y-80735187D01*
X381673249Y-80745805D01*
X381670016Y-80748815D01*
X381632367Y-80781440D01*
X381632362Y-80781444D01*
X381630126Y-80784925D01*
X381613497Y-80805558D01*
X381537042Y-80882013D01*
X381475719Y-80915498D01*
X381435478Y-80917552D01*
X381400003Y-80913555D01*
X381399996Y-80913555D01*
X381225005Y-80933271D01*
X381058770Y-80991438D01*
X380909665Y-81085128D01*
X380909659Y-81085133D01*
X380785133Y-81209659D01*
X380785128Y-81209665D01*
X380691438Y-81358770D01*
X380633271Y-81525005D01*
X380613555Y-81699996D01*
X380613555Y-81700003D01*
X380633271Y-81874994D01*
X380691438Y-82041229D01*
X380785128Y-82190334D01*
X380785133Y-82190340D01*
X380909659Y-82314866D01*
X380909665Y-82314871D01*
X381058770Y-82408561D01*
X381116580Y-82428789D01*
X381225000Y-82466727D01*
X381225003Y-82466727D01*
X381225005Y-82466728D01*
X381399996Y-82486445D01*
X381400000Y-82486445D01*
X381400004Y-82486445D01*
X381574994Y-82466728D01*
X381574995Y-82466727D01*
X381575000Y-82466727D01*
X381741226Y-82408562D01*
X381741225Y-82408562D01*
X381741229Y-82408561D01*
X381890334Y-82314871D01*
X381890335Y-82314870D01*
X381890340Y-82314867D01*
X382014867Y-82190340D01*
X382056204Y-82124553D01*
X382108561Y-82041229D01*
X382146274Y-81933450D01*
X382166727Y-81875000D01*
X382168135Y-81862508D01*
X382187225Y-81693081D01*
X382189999Y-81693393D01*
X382206130Y-81638461D01*
X382258934Y-81592706D01*
X382310445Y-81581500D01*
X385563771Y-81581500D01*
X385630810Y-81601185D01*
X385676565Y-81653989D01*
X385686509Y-81723147D01*
X385657484Y-81786703D01*
X385641088Y-81802442D01*
X385592006Y-81841584D01*
X385521014Y-81898198D01*
X385342567Y-82090520D01*
X385194768Y-82307302D01*
X385194767Y-82307303D01*
X385080938Y-82543673D01*
X385003606Y-82794376D01*
X385003605Y-82794381D01*
X385003604Y-82794385D01*
X384995323Y-82849325D01*
X384964500Y-83053812D01*
X384964500Y-83316187D01*
X384976295Y-83394435D01*
X385003604Y-83575615D01*
X385003605Y-83575617D01*
X385003606Y-83575623D01*
X385080938Y-83826326D01*
X385194767Y-84062696D01*
X385194768Y-84062697D01*
X385194770Y-84062700D01*
X385194772Y-84062704D01*
X385261938Y-84161218D01*
X385342567Y-84279479D01*
X385469282Y-84416046D01*
X385500450Y-84478579D01*
X385492863Y-84548035D01*
X385448929Y-84602364D01*
X385390171Y-84623825D01*
X385235610Y-84638583D01*
X385235611Y-84638584D01*
X385235607Y-84638585D01*
X385033791Y-84697843D01*
X384846831Y-84794228D01*
X384681490Y-84924252D01*
X384681487Y-84924255D01*
X384643489Y-84968107D01*
X384584710Y-85005881D01*
X384514841Y-85005880D01*
X384456063Y-84968105D01*
X384432735Y-84927857D01*
X384430266Y-84920802D01*
X384408562Y-84858774D01*
X384408561Y-84858770D01*
X384314871Y-84709665D01*
X384314866Y-84709659D01*
X384190340Y-84585133D01*
X384190334Y-84585128D01*
X384041229Y-84491438D01*
X383874994Y-84433271D01*
X383700004Y-84413555D01*
X383699996Y-84413555D01*
X383525005Y-84433271D01*
X383358770Y-84491438D01*
X383209665Y-84585128D01*
X383209659Y-84585133D01*
X383085133Y-84709659D01*
X383085128Y-84709665D01*
X382991438Y-84858770D01*
X382933271Y-85025005D01*
X382913555Y-85199996D01*
X382913555Y-85200003D01*
X382933271Y-85374994D01*
X382991438Y-85541229D01*
X383085128Y-85690334D01*
X383085133Y-85690340D01*
X383182181Y-85787388D01*
X383215666Y-85848711D01*
X383218500Y-85875069D01*
X383218500Y-85934903D01*
X383215667Y-85961252D01*
X383214788Y-85965297D01*
X383214788Y-85965299D01*
X383214788Y-85965300D01*
X383218342Y-86014984D01*
X383218500Y-86019409D01*
X383218500Y-86034434D01*
X383220637Y-86049303D01*
X383221110Y-86053700D01*
X383224666Y-86103403D01*
X383224667Y-86103409D01*
X383226108Y-86107271D01*
X383232666Y-86132960D01*
X383233254Y-86137050D01*
X383233254Y-86137051D01*
X383253944Y-86182357D01*
X383255638Y-86186445D01*
X383273051Y-86233128D01*
X383273053Y-86233133D01*
X383275524Y-86236433D01*
X383289052Y-86259232D01*
X383290769Y-86262991D01*
X383290773Y-86262998D01*
X383323400Y-86300652D01*
X383326174Y-86304094D01*
X383335168Y-86316108D01*
X383335173Y-86316114D01*
X383335180Y-86316123D01*
X383345805Y-86326748D01*
X383348808Y-86329974D01*
X383381441Y-86367635D01*
X383384918Y-86369869D01*
X383405562Y-86386505D01*
X384713682Y-87694625D01*
X384747166Y-87755946D01*
X384750000Y-87782304D01*
X384750000Y-90745934D01*
X384749469Y-90754035D01*
X384735093Y-90863224D01*
X384726715Y-90894491D01*
X384689259Y-90984918D01*
X384673074Y-91012951D01*
X384613491Y-91090601D01*
X384590601Y-91113491D01*
X384512951Y-91173074D01*
X384484918Y-91189259D01*
X384394491Y-91226715D01*
X384363224Y-91235093D01*
X384274783Y-91246737D01*
X384254031Y-91249469D01*
X384245934Y-91250000D01*
X373004066Y-91250000D01*
X372995968Y-91249469D01*
X372972457Y-91246374D01*
X372886775Y-91235093D01*
X372855508Y-91226715D01*
X372765081Y-91189259D01*
X372737048Y-91173074D01*
X372659398Y-91113491D01*
X372636508Y-91090601D01*
X372576925Y-91012951D01*
X372560740Y-90984918D01*
X372523284Y-90894491D01*
X372514906Y-90863223D01*
X372500531Y-90754035D01*
X372500000Y-90745933D01*
X372500000Y-87707113D01*
X372500000Y-87707107D01*
X372500000Y-87500000D01*
X372353554Y-87353554D01*
X372353548Y-87353547D01*
X372002428Y-87002427D01*
X371968943Y-86941104D01*
X371973927Y-86871412D01*
X372015799Y-86815479D01*
X372055170Y-86795771D01*
X372203711Y-86752156D01*
X372390670Y-86655771D01*
X372556010Y-86525747D01*
X372693755Y-86366781D01*
X372798926Y-86184619D01*
X372867722Y-85985846D01*
X372897657Y-85777645D01*
X372887648Y-85567541D01*
X372838058Y-85363129D01*
X372750679Y-85171795D01*
X372718744Y-85126948D01*
X372628673Y-85000460D01*
X372628667Y-85000454D01*
X372476439Y-84855305D01*
X372476437Y-84855303D01*
X372299486Y-84741584D01*
X372299484Y-84741583D01*
X372104221Y-84663410D01*
X372104214Y-84663407D01*
X372104212Y-84663407D01*
X372104209Y-84663406D01*
X372104208Y-84663406D01*
X371897672Y-84623600D01*
X371897671Y-84623600D01*
X371740032Y-84623600D01*
X371583110Y-84638584D01*
X371583111Y-84638584D01*
X371583107Y-84638585D01*
X371381291Y-84697843D01*
X371194331Y-84794228D01*
X371028990Y-84924252D01*
X371028989Y-84924253D01*
X370891249Y-85083214D01*
X370891240Y-85083225D01*
X370786075Y-85265378D01*
X370716985Y-85465000D01*
X370676456Y-85521914D01*
X370611592Y-85547882D01*
X370542985Y-85534658D01*
X370512124Y-85512124D01*
X368793181Y-83793181D01*
X368759696Y-83731858D01*
X368764680Y-83662166D01*
X368806552Y-83606233D01*
X368872016Y-83581816D01*
X368880862Y-83581500D01*
X370234903Y-83581500D01*
X370261260Y-83584333D01*
X370265297Y-83585212D01*
X370314987Y-83581657D01*
X370319409Y-83581500D01*
X370334432Y-83581500D01*
X370334434Y-83581500D01*
X370349339Y-83579356D01*
X370353678Y-83578890D01*
X370403403Y-83575334D01*
X370407273Y-83573890D01*
X370432972Y-83567332D01*
X370433519Y-83567253D01*
X370437049Y-83566746D01*
X370482380Y-83546043D01*
X370486416Y-83544371D01*
X370533131Y-83526948D01*
X370536430Y-83524477D01*
X370559239Y-83510943D01*
X370562995Y-83509229D01*
X370600661Y-83476590D01*
X370604074Y-83473839D01*
X370616123Y-83464820D01*
X370626759Y-83454182D01*
X370629965Y-83451197D01*
X370667635Y-83418558D01*
X370669868Y-83415081D01*
X370686501Y-83394440D01*
X373813124Y-80267819D01*
X373874448Y-80234334D01*
X373900806Y-80231500D01*
X374024931Y-80231500D01*
X374091970Y-80251185D01*
X374112612Y-80267819D01*
X374209661Y-80364868D01*
X374272397Y-80404288D01*
X374318687Y-80456623D01*
X374329335Y-80525676D01*
X374300960Y-80589524D01*
X374294105Y-80596962D01*
X373424920Y-81466149D01*
X373418818Y-81471500D01*
X373392045Y-81492044D01*
X373369023Y-81522047D01*
X373323403Y-81581500D01*
X373300358Y-81611532D01*
X373242724Y-81750674D01*
X373242723Y-81750678D01*
X373227457Y-81866634D01*
X373227455Y-81866647D01*
X373223065Y-81900000D01*
X373227469Y-81933450D01*
X373228000Y-81941552D01*
X373228000Y-82658447D01*
X373227469Y-82666549D01*
X373223065Y-82699998D01*
X373227521Y-82733855D01*
X373227523Y-82733869D01*
X373228000Y-82737491D01*
X373228000Y-82737492D01*
X373235490Y-82794385D01*
X373237275Y-82807938D01*
X373242722Y-82849320D01*
X373242724Y-82849325D01*
X373300358Y-82988467D01*
X373300359Y-82988468D01*
X373360409Y-83066727D01*
X373392045Y-83107955D01*
X373406570Y-83119100D01*
X373418818Y-83128499D01*
X373424913Y-83133843D01*
X373685505Y-83394435D01*
X373866143Y-83575073D01*
X373871496Y-83581176D01*
X373892043Y-83607953D01*
X373892045Y-83607955D01*
X373920756Y-83629985D01*
X373920772Y-83629999D01*
X373952141Y-83654069D01*
X374011532Y-83699641D01*
X374150678Y-83757277D01*
X374282627Y-83774648D01*
X374299999Y-83776936D01*
X374300000Y-83776936D01*
X374300001Y-83776936D01*
X374319411Y-83774380D01*
X374333459Y-83772530D01*
X374341559Y-83772000D01*
X375158447Y-83772000D01*
X375166545Y-83772530D01*
X375186891Y-83775209D01*
X375199999Y-83776935D01*
X375200000Y-83776935D01*
X375235560Y-83772253D01*
X375235583Y-83772251D01*
X375237489Y-83772000D01*
X375237492Y-83772000D01*
X375349322Y-83757277D01*
X375488468Y-83699641D01*
X375577954Y-83630976D01*
X375577953Y-83630976D01*
X375589135Y-83622397D01*
X375589140Y-83622392D01*
X375607953Y-83607957D01*
X375607955Y-83607955D01*
X375628503Y-83581174D01*
X375633845Y-83575083D01*
X376330159Y-82878769D01*
X376391480Y-82845286D01*
X376461172Y-82850270D01*
X376483808Y-82861457D01*
X376558774Y-82908562D01*
X376725000Y-82966727D01*
X376725003Y-82966727D01*
X376725005Y-82966728D01*
X376899996Y-82986445D01*
X376900000Y-82986445D01*
X376900004Y-82986445D01*
X377074994Y-82966728D01*
X377074995Y-82966727D01*
X377075000Y-82966727D01*
X377241226Y-82908562D01*
X377241225Y-82908562D01*
X377241229Y-82908561D01*
X377390334Y-82814871D01*
X377390335Y-82814870D01*
X377390340Y-82814867D01*
X377514867Y-82690340D01*
X377534907Y-82658447D01*
X377608561Y-82541229D01*
X377625613Y-82492497D01*
X377666727Y-82375000D01*
X377673502Y-82314871D01*
X377686445Y-82200003D01*
X377686445Y-82199996D01*
X377666728Y-82025005D01*
X377666727Y-82025003D01*
X377666727Y-82025000D01*
X377611317Y-81866647D01*
X377608561Y-81858770D01*
X377514871Y-81709665D01*
X377514866Y-81709659D01*
X377390340Y-81585133D01*
X377390334Y-81585128D01*
X377241229Y-81491438D01*
X377074994Y-81433271D01*
X376900004Y-81413555D01*
X376899996Y-81413555D01*
X376725005Y-81433271D01*
X376558770Y-81491438D01*
X376409665Y-81585128D01*
X376409659Y-81585133D01*
X376403112Y-81591681D01*
X376341789Y-81625166D01*
X376315431Y-81628000D01*
X376241561Y-81628000D01*
X376233462Y-81627469D01*
X376213338Y-81624820D01*
X376200001Y-81623064D01*
X376191873Y-81623064D01*
X376191873Y-81621682D01*
X376131359Y-81612240D01*
X376079108Y-81565855D01*
X376060228Y-81498585D01*
X376080715Y-81431786D01*
X376096533Y-81412395D01*
X376675091Y-80833837D01*
X376681174Y-80828503D01*
X376707955Y-80807955D01*
X376732336Y-80776182D01*
X376799641Y-80688468D01*
X376857277Y-80549322D01*
X376876936Y-80400000D01*
X376872531Y-80366541D01*
X376872000Y-80358439D01*
X376872000Y-78741558D01*
X376872531Y-78733457D01*
X376876936Y-78700000D01*
X376876935Y-78700000D01*
X376857277Y-78550678D01*
X376799641Y-78411532D01*
X376755402Y-78353879D01*
X376729999Y-78320772D01*
X376729985Y-78320756D01*
X376707955Y-78292045D01*
X376707953Y-78292044D01*
X376707953Y-78292043D01*
X376681176Y-78271496D01*
X376675073Y-78266143D01*
X375808319Y-77399388D01*
X375774834Y-77338065D01*
X375772000Y-77311707D01*
X375772000Y-70919814D01*
X375791685Y-70852775D01*
X375836098Y-70813491D01*
X375835330Y-70812268D01*
X375990334Y-70714871D01*
X375990335Y-70714870D01*
X375990340Y-70714867D01*
X376114867Y-70590340D01*
X376116154Y-70588292D01*
X376208561Y-70441229D01*
X376211078Y-70434033D01*
X376266727Y-70275000D01*
X376266746Y-70274834D01*
X376286445Y-70100003D01*
X376286445Y-70099996D01*
X376266728Y-69925005D01*
X376266727Y-69925003D01*
X376266727Y-69925000D01*
X376245075Y-69863125D01*
X376241513Y-69793350D01*
X376274434Y-69734494D01*
X377000610Y-69008319D01*
X377061934Y-68974834D01*
X377088292Y-68972000D01*
X378458447Y-68972000D01*
X378466545Y-68972530D01*
X378484041Y-68974834D01*
X378499999Y-68976935D01*
X378500000Y-68976935D01*
X378535560Y-68972253D01*
X378535583Y-68972251D01*
X378537489Y-68972000D01*
X378537492Y-68972000D01*
X378649322Y-68957277D01*
X378788468Y-68899641D01*
X378907955Y-68807955D01*
X378928506Y-68781172D01*
X378933844Y-68775085D01*
X379575087Y-68133842D01*
X379581178Y-68128500D01*
X379607955Y-68107955D01*
X379626406Y-68083907D01*
X379626415Y-68083898D01*
X379630973Y-68077956D01*
X379630976Y-68077955D01*
X379699641Y-67988468D01*
X379748823Y-67869729D01*
X379775703Y-67829502D01*
X379814867Y-67790340D01*
X379908562Y-67641226D01*
X379966727Y-67475000D01*
X379975230Y-67399539D01*
X379986445Y-67300003D01*
X379986445Y-67299996D01*
X379966728Y-67125004D01*
X379966407Y-67123597D01*
X379966464Y-67122661D01*
X379965948Y-67118079D01*
X379966750Y-67117988D01*
X379970678Y-67053858D01*
X380011974Y-66997499D01*
X380077185Y-66972413D01*
X380087297Y-66972000D01*
X380115431Y-66972000D01*
X380182470Y-66991685D01*
X380203112Y-67008319D01*
X380309659Y-67114866D01*
X380309665Y-67114871D01*
X380458769Y-67208560D01*
X380458773Y-67208561D01*
X380458774Y-67208562D01*
X380625000Y-67266727D01*
X380625005Y-67266728D01*
X380731541Y-67278731D01*
X380795956Y-67305797D01*
X380805340Y-67314270D01*
X383991681Y-70500611D01*
X384025166Y-70561934D01*
X384028000Y-70588292D01*
X384028000Y-72615431D01*
X384008315Y-72682470D01*
X383991681Y-72703112D01*
X383985133Y-72709659D01*
X383985128Y-72709665D01*
X383891438Y-72858770D01*
X383833271Y-73025005D01*
X383813555Y-73199996D01*
X383813555Y-73200003D01*
X383833271Y-73374994D01*
X383891437Y-73541225D01*
X383985133Y-73690341D01*
X383991680Y-73696888D01*
X384025165Y-73758211D01*
X384027999Y-73784569D01*
X384028000Y-76558447D01*
X384027469Y-76566549D01*
X384023065Y-76599998D01*
X384027521Y-76633855D01*
X384027523Y-76633870D01*
X384039266Y-76723065D01*
X384042723Y-76749322D01*
X384100358Y-76888467D01*
X384100359Y-76888468D01*
X384136202Y-76935180D01*
X384192045Y-77007955D01*
X384212354Y-77023538D01*
X384218818Y-77028499D01*
X384224913Y-77033843D01*
X384775364Y-77584294D01*
X385285728Y-78094658D01*
X385319213Y-78155981D01*
X385321267Y-78168455D01*
X385333271Y-78274994D01*
X385391438Y-78441229D01*
X385485128Y-78590334D01*
X385485133Y-78590340D01*
X385609659Y-78714866D01*
X385609665Y-78714871D01*
X385758770Y-78808561D01*
X385816580Y-78828789D01*
X385925000Y-78866727D01*
X385925003Y-78866727D01*
X385925005Y-78866728D01*
X386099996Y-78886445D01*
X386100000Y-78886445D01*
X386100004Y-78886445D01*
X386274994Y-78866728D01*
X386274995Y-78866727D01*
X386275000Y-78866727D01*
X386441226Y-78808562D01*
X386441225Y-78808562D01*
X386441229Y-78808561D01*
X386590334Y-78714871D01*
X386590335Y-78714870D01*
X386590340Y-78714867D01*
X386714867Y-78590340D01*
X386714871Y-78590334D01*
X386808561Y-78441229D01*
X386814240Y-78425000D01*
X386866727Y-78275000D01*
X386867122Y-78271496D01*
X386886445Y-78100003D01*
X386886445Y-78099996D01*
X386866728Y-77925005D01*
X386866727Y-77925003D01*
X386866727Y-77925000D01*
X386808562Y-77758774D01*
X386808561Y-77758770D01*
X386714871Y-77609665D01*
X386714866Y-77609659D01*
X386590340Y-77485133D01*
X386590334Y-77485128D01*
X386441229Y-77391438D01*
X386274994Y-77333271D01*
X386168455Y-77321267D01*
X386104041Y-77294200D01*
X386094658Y-77285728D01*
X385208319Y-76399388D01*
X385174834Y-76338065D01*
X385172000Y-76311707D01*
X385172000Y-73784569D01*
X385191685Y-73717530D01*
X385208323Y-73696884D01*
X385209189Y-73696017D01*
X385214867Y-73690340D01*
X385308562Y-73541226D01*
X385366727Y-73375000D01*
X385386445Y-73200000D01*
X385366727Y-73025000D01*
X385308562Y-72858774D01*
X385308561Y-72858770D01*
X385214871Y-72709665D01*
X385214866Y-72709659D01*
X385208318Y-72703111D01*
X385174833Y-72641788D01*
X385172000Y-72615439D01*
X385172000Y-70588291D01*
X385191685Y-70521251D01*
X385208319Y-70500610D01*
X385400611Y-70308319D01*
X385461934Y-70274834D01*
X385488292Y-70272000D01*
X387315431Y-70272000D01*
X387382470Y-70291685D01*
X387403112Y-70308319D01*
X387409659Y-70314866D01*
X387409665Y-70314871D01*
X387558770Y-70408561D01*
X387616580Y-70428789D01*
X387725000Y-70466727D01*
X387725003Y-70466727D01*
X387725005Y-70466728D01*
X387899996Y-70486445D01*
X387900000Y-70486445D01*
X387900004Y-70486445D01*
X388074994Y-70466728D01*
X388074995Y-70466727D01*
X388075000Y-70466727D01*
X388241226Y-70408562D01*
X388241225Y-70408562D01*
X388241229Y-70408561D01*
X388390334Y-70314871D01*
X388390335Y-70314870D01*
X388390340Y-70314867D01*
X388514867Y-70190340D01*
X388571632Y-70100000D01*
X388608561Y-70041229D01*
X388649229Y-69925005D01*
X388666727Y-69875000D01*
X388686445Y-69700000D01*
X388666727Y-69525000D01*
X388608562Y-69358774D01*
X388608561Y-69358770D01*
X388514871Y-69209665D01*
X388514866Y-69209659D01*
X388390340Y-69085133D01*
X388390334Y-69085128D01*
X388241229Y-68991438D01*
X388074994Y-68933271D01*
X387900004Y-68913555D01*
X387899996Y-68913555D01*
X387725005Y-68933271D01*
X387558770Y-68991438D01*
X387409665Y-69085128D01*
X387409659Y-69085133D01*
X387403112Y-69091681D01*
X387341789Y-69125166D01*
X387315431Y-69128000D01*
X385241553Y-69128000D01*
X385233454Y-69127469D01*
X385213108Y-69124790D01*
X385200001Y-69123065D01*
X385200000Y-69123065D01*
X385195720Y-69123628D01*
X385166647Y-69127455D01*
X385166634Y-69127457D01*
X385162510Y-69128000D01*
X385162508Y-69128000D01*
X385050677Y-69142723D01*
X385050678Y-69142723D01*
X385050674Y-69142724D01*
X384911535Y-69200357D01*
X384911532Y-69200358D01*
X384911532Y-69200359D01*
X384851788Y-69246202D01*
X384792042Y-69292047D01*
X384771500Y-69318818D01*
X384766148Y-69324920D01*
X384687680Y-69403388D01*
X384626357Y-69436873D01*
X384556665Y-69431889D01*
X384512320Y-69403389D01*
X381614269Y-66505339D01*
X381580785Y-66444017D01*
X381578731Y-66431541D01*
X381566728Y-66325005D01*
X381566727Y-66325000D01*
X381508562Y-66158774D01*
X381508561Y-66158773D01*
X381508560Y-66158769D01*
X381414871Y-66009665D01*
X381414866Y-66009659D01*
X381290340Y-65885133D01*
X381290334Y-65885128D01*
X381141229Y-65791438D01*
X380974994Y-65733271D01*
X380800004Y-65713555D01*
X380799996Y-65713555D01*
X380625005Y-65733271D01*
X380458772Y-65791438D01*
X380430835Y-65808993D01*
X380364862Y-65828000D01*
X378841553Y-65828000D01*
X378833454Y-65827469D01*
X378813108Y-65824790D01*
X378800001Y-65823065D01*
X378799999Y-65823065D01*
X378764882Y-65827688D01*
X378764853Y-65827690D01*
X378636871Y-65844539D01*
X378623964Y-65853788D01*
X378511530Y-65900359D01*
X378423029Y-65968269D01*
X378423024Y-65968273D01*
X378392045Y-65992045D01*
X378371500Y-66018818D01*
X378366149Y-66024919D01*
X377724923Y-66666147D01*
X377718820Y-66671499D01*
X377692045Y-66692045D01*
X377671501Y-66718817D01*
X377666149Y-66724919D01*
X377299389Y-67091681D01*
X377238066Y-67125166D01*
X377211708Y-67128000D01*
X376541553Y-67128000D01*
X376533454Y-67127469D01*
X376513108Y-67124790D01*
X376500001Y-67123065D01*
X376499999Y-67123065D01*
X376464882Y-67127688D01*
X376464853Y-67127690D01*
X376336870Y-67144539D01*
X376323964Y-67153787D01*
X376211534Y-67200357D01*
X376211531Y-67200359D01*
X376175242Y-67228205D01*
X376092045Y-67292043D01*
X376071500Y-67318818D01*
X376066148Y-67324920D01*
X374299389Y-69091681D01*
X374238066Y-69125166D01*
X374211708Y-69128000D01*
X374057757Y-69128000D01*
X373990718Y-69108315D01*
X373952764Y-69069973D01*
X373914867Y-69009660D01*
X373790340Y-68885133D01*
X373790334Y-68885128D01*
X373641229Y-68791438D01*
X373474994Y-68733271D01*
X373300004Y-68713555D01*
X373299996Y-68713555D01*
X373125005Y-68733271D01*
X372958770Y-68791438D01*
X372809665Y-68885128D01*
X372809659Y-68885133D01*
X372685133Y-69009659D01*
X372685128Y-69009665D01*
X372591438Y-69158770D01*
X372533271Y-69325005D01*
X372521267Y-69431543D01*
X372494200Y-69495957D01*
X372485728Y-69505340D01*
X370580340Y-71410728D01*
X370519017Y-71444213D01*
X370506543Y-71446267D01*
X370400005Y-71458271D01*
X370233770Y-71516438D01*
X370084665Y-71610128D01*
X370084659Y-71610133D01*
X369960133Y-71734659D01*
X369960128Y-71734665D01*
X369866438Y-71883770D01*
X369808271Y-72050005D01*
X369788555Y-72224996D01*
X369788555Y-72225003D01*
X369808271Y-72399994D01*
X369866438Y-72566229D01*
X369960128Y-72715334D01*
X369960133Y-72715340D01*
X370084659Y-72839866D01*
X370084665Y-72839871D01*
X370233770Y-72933561D01*
X370291580Y-72953789D01*
X370400000Y-72991727D01*
X370400003Y-72991727D01*
X370400005Y-72991728D01*
X370574996Y-73011445D01*
X370575000Y-73011445D01*
X370575004Y-73011445D01*
X370749994Y-72991728D01*
X370749995Y-72991727D01*
X370750000Y-72991727D01*
X370916226Y-72933562D01*
X370916225Y-72933562D01*
X370916229Y-72933561D01*
X371065334Y-72839871D01*
X371065335Y-72839870D01*
X371065340Y-72839867D01*
X371189867Y-72715340D01*
X371193437Y-72709659D01*
X371283560Y-72566230D01*
X371283560Y-72566228D01*
X371283562Y-72566226D01*
X371341727Y-72400000D01*
X371353731Y-72293456D01*
X371380797Y-72229043D01*
X371389260Y-72219668D01*
X373294660Y-70314268D01*
X373355981Y-70280785D01*
X373368446Y-70278732D01*
X373431642Y-70271612D01*
X373461694Y-70271892D01*
X373500000Y-70276936D01*
X373533459Y-70272530D01*
X373541560Y-70272000D01*
X373804000Y-70272000D01*
X373871039Y-70291685D01*
X373916794Y-70344489D01*
X373928000Y-70396000D01*
X373928000Y-76904000D01*
X373908315Y-76971039D01*
X373855511Y-77016794D01*
X373804000Y-77028000D01*
X373341561Y-77028000D01*
X373333462Y-77027469D01*
X373313338Y-77024820D01*
X373300001Y-77023064D01*
X373299999Y-77023064D01*
X373150679Y-77042721D01*
X373150675Y-77042723D01*
X373052287Y-77083477D01*
X373011530Y-77100359D01*
X372963773Y-77137005D01*
X372924855Y-77166869D01*
X372892045Y-77192043D01*
X372871500Y-77218818D01*
X372866148Y-77224920D01*
X372305340Y-77785728D01*
X372244017Y-77819213D01*
X372231543Y-77821267D01*
X372125005Y-77833271D01*
X371958770Y-77891438D01*
X371809665Y-77985128D01*
X371809659Y-77985133D01*
X371685133Y-78109659D01*
X371685128Y-78109665D01*
X371591438Y-78258770D01*
X371533271Y-78425005D01*
X371513555Y-78599996D01*
X371513555Y-78600003D01*
X371533271Y-78774994D01*
X371591438Y-78941229D01*
X371685128Y-79090334D01*
X371685133Y-79090340D01*
X371809659Y-79214866D01*
X371809665Y-79214871D01*
X371958770Y-79308561D01*
X372016580Y-79328789D01*
X372125000Y-79366727D01*
X372125003Y-79366727D01*
X372125005Y-79366728D01*
X372299996Y-79386445D01*
X372300000Y-79386445D01*
X372300002Y-79386445D01*
X372435399Y-79371189D01*
X372504221Y-79383243D01*
X372555600Y-79430592D01*
X372573225Y-79498202D01*
X372551499Y-79564608D01*
X372536964Y-79582090D01*
X371209140Y-80909915D01*
X371147817Y-80943400D01*
X371078125Y-80938416D01*
X371022192Y-80896544D01*
X370997775Y-80831080D01*
X370998845Y-80803749D01*
X371002999Y-80776193D01*
X371003000Y-80776182D01*
X371003000Y-80513817D01*
X371002999Y-80513812D01*
X370994379Y-80456623D01*
X370963896Y-80254385D01*
X370886563Y-80003677D01*
X370874621Y-79978880D01*
X370772732Y-79767303D01*
X370772731Y-79767302D01*
X370772730Y-79767301D01*
X370772728Y-79767296D01*
X370624933Y-79550521D01*
X370576388Y-79498202D01*
X370446485Y-79358198D01*
X370266753Y-79214867D01*
X370241357Y-79194614D01*
X370014143Y-79063432D01*
X369769916Y-78967580D01*
X369769911Y-78967578D01*
X369769902Y-78967576D01*
X369552318Y-78917914D01*
X369514130Y-78909198D01*
X369514129Y-78909197D01*
X369514125Y-78909197D01*
X369514120Y-78909196D01*
X369318000Y-78894500D01*
X369317994Y-78894500D01*
X369187006Y-78894500D01*
X369187000Y-78894500D01*
X368990879Y-78909196D01*
X368990874Y-78909197D01*
X368735097Y-78967576D01*
X368735078Y-78967582D01*
X368490856Y-79063432D01*
X368263643Y-79194614D01*
X368058514Y-79358198D01*
X367880067Y-79550520D01*
X367732268Y-79767302D01*
X367732267Y-79767303D01*
X367618438Y-80003673D01*
X367541106Y-80254376D01*
X367541105Y-80254381D01*
X367541104Y-80254385D01*
X367526353Y-80352247D01*
X367502000Y-80513812D01*
X367502000Y-80513817D01*
X367502000Y-80513818D01*
X367502000Y-80776182D01*
X367541104Y-81035615D01*
X367541105Y-81035617D01*
X367541106Y-81035623D01*
X367618438Y-81286326D01*
X367732267Y-81522696D01*
X367732268Y-81522697D01*
X367732270Y-81522700D01*
X367732272Y-81522704D01*
X367859736Y-81709659D01*
X367880067Y-81739479D01*
X368058514Y-81931801D01*
X368058518Y-81931804D01*
X368058519Y-81931805D01*
X368140965Y-81997554D01*
X368181105Y-82054741D01*
X368183955Y-82124553D01*
X368148610Y-82184823D01*
X368086291Y-82216416D01*
X368063652Y-82218500D01*
X367269862Y-82218500D01*
X367202823Y-82198815D01*
X367182181Y-82182181D01*
X366675447Y-81675447D01*
X366149319Y-81149319D01*
X366143974Y-81143224D01*
X366076924Y-81055842D01*
X366060739Y-81027808D01*
X366023284Y-80937383D01*
X366014906Y-80906116D01*
X366000531Y-80796928D01*
X366000000Y-80788826D01*
X366000000Y-68969443D01*
X366019685Y-68902404D01*
X366072489Y-68856649D01*
X366141647Y-68846705D01*
X366156745Y-68849845D01*
X366264446Y-68879348D01*
X366562255Y-68919400D01*
X366562260Y-68919400D01*
X366787541Y-68919400D01*
X366951013Y-68908456D01*
X367012319Y-68904352D01*
X367306787Y-68844499D01*
X367590651Y-68745931D01*
X367858843Y-68610407D01*
X368106580Y-68440346D01*
X368329439Y-68238782D01*
X368523443Y-68009312D01*
X368685131Y-67756032D01*
X368811618Y-67483460D01*
X368900646Y-67196462D01*
X368950626Y-66900158D01*
X368959914Y-66622355D01*
X370687343Y-66622355D01*
X370697352Y-66832459D01*
X370746942Y-67036871D01*
X370787189Y-67125000D01*
X370834320Y-67228204D01*
X370834321Y-67228205D01*
X370956326Y-67399539D01*
X370956331Y-67399544D01*
X371108563Y-67544697D01*
X371285514Y-67658416D01*
X371480788Y-67736593D01*
X371609584Y-67761416D01*
X371687328Y-67776400D01*
X371687329Y-67776400D01*
X371844961Y-67776400D01*
X371844968Y-67776400D01*
X372001889Y-67761416D01*
X372203711Y-67702156D01*
X372390670Y-67605771D01*
X372556010Y-67475747D01*
X372693755Y-67316781D01*
X372798926Y-67134619D01*
X372867722Y-66935846D01*
X372897657Y-66727645D01*
X372887648Y-66517541D01*
X372838058Y-66313129D01*
X372750679Y-66121795D01*
X372750675Y-66121789D01*
X372628673Y-65950460D01*
X372628667Y-65950454D01*
X372527287Y-65853788D01*
X372476437Y-65805303D01*
X372299486Y-65691584D01*
X372299484Y-65691583D01*
X372104221Y-65613410D01*
X372104214Y-65613407D01*
X372104212Y-65613407D01*
X372104209Y-65613406D01*
X372104208Y-65613406D01*
X371897672Y-65573600D01*
X371897671Y-65573600D01*
X371740032Y-65573600D01*
X371583110Y-65588584D01*
X371583111Y-65588584D01*
X371583107Y-65588585D01*
X371381291Y-65647843D01*
X371194331Y-65744228D01*
X371028990Y-65874252D01*
X371028989Y-65874253D01*
X370891249Y-66033214D01*
X370891240Y-66033225D01*
X370786074Y-66215379D01*
X370717279Y-66414148D01*
X370717278Y-66414153D01*
X370717278Y-66414154D01*
X370687343Y-66622355D01*
X368959914Y-66622355D01*
X368960667Y-66599836D01*
X368930589Y-66300855D01*
X368860930Y-66008551D01*
X368752931Y-65728140D01*
X368608521Y-65464625D01*
X368430277Y-65222710D01*
X368221379Y-65006711D01*
X368221372Y-65006705D01*
X367985555Y-64820483D01*
X367985556Y-64820483D01*
X367985554Y-64820482D01*
X367727013Y-64667348D01*
X367450367Y-64550040D01*
X367450360Y-64550037D01*
X367160559Y-64470653D01*
X367160556Y-64470652D01*
X367160554Y-64470652D01*
X366862745Y-64430600D01*
X366637467Y-64430600D01*
X366637459Y-64430600D01*
X366412683Y-64445647D01*
X366412671Y-64445649D01*
X366148698Y-64499303D01*
X366079081Y-64493366D01*
X366023726Y-64450734D01*
X366000207Y-64384942D01*
X366000000Y-64377788D01*
X366000000Y-64004066D01*
X366000531Y-63995964D01*
X366014906Y-63886776D01*
X366023284Y-63855508D01*
X366060740Y-63765081D01*
X366076923Y-63737050D01*
X366136513Y-63659392D01*
X366159392Y-63636513D01*
X366237050Y-63576923D01*
X366265079Y-63560740D01*
X366355509Y-63523283D01*
X366386775Y-63514906D01*
X366495967Y-63500530D01*
X366504067Y-63500000D01*
X384910973Y-63500000D01*
X384978012Y-63519685D01*
G37*
%TD.AperFunction*%
M02*
