%TF.GenerationSoftware,KiCad,Pcbnew,7.0.7*%
%TF.CreationDate,2023-09-25T11:45:10+09:00*%
%TF.ProjectId,Duet-Switch-Tester,44756574-2d53-4776-9974-63682d546573,rev?*%
%TF.SameCoordinates,Original*%
%TF.FileFunction,Paste,Bot*%
%TF.FilePolarity,Positive*%
%FSLAX46Y46*%
G04 Gerber Fmt 4.6, Leading zero omitted, Abs format (unit mm)*
G04 Created by KiCad (PCBNEW 7.0.7) date 2023-09-25 11:45:10*
%MOMM*%
%LPD*%
G01*
G04 APERTURE LIST*
G04 Aperture macros list*
%AMRoundRect*
0 Rectangle with rounded corners*
0 $1 Rounding radius*
0 $2 $3 $4 $5 $6 $7 $8 $9 X,Y pos of 4 corners*
0 Add a 4 corners polygon primitive as box body*
4,1,4,$2,$3,$4,$5,$6,$7,$8,$9,$2,$3,0*
0 Add four circle primitives for the rounded corners*
1,1,$1+$1,$2,$3*
1,1,$1+$1,$4,$5*
1,1,$1+$1,$6,$7*
1,1,$1+$1,$8,$9*
0 Add four rect primitives between the rounded corners*
20,1,$1+$1,$2,$3,$4,$5,0*
20,1,$1+$1,$4,$5,$6,$7,0*
20,1,$1+$1,$6,$7,$8,$9,0*
20,1,$1+$1,$8,$9,$2,$3,0*%
G04 Aperture macros list end*
%ADD10RoundRect,0.200000X-1.075000X-1.050000X1.075000X-1.050000X1.075000X1.050000X-1.075000X1.050000X0*%
%ADD11RoundRect,0.150300X0.449700X-0.299700X0.449700X0.299700X-0.449700X0.299700X-0.449700X-0.299700X0*%
%ADD12RoundRect,0.135000X0.135000X0.185000X-0.135000X0.185000X-0.135000X-0.185000X0.135000X-0.185000X0*%
%ADD13RoundRect,0.050000X-0.250000X0.550000X-0.250000X-0.550000X0.250000X-0.550000X0.250000X0.550000X0*%
%ADD14RoundRect,0.050000X0.250000X0.050000X-0.250000X0.050000X-0.250000X-0.050000X0.250000X-0.050000X0*%
%ADD15RoundRect,0.140000X0.140000X0.170000X-0.140000X0.170000X-0.140000X-0.170000X0.140000X-0.170000X0*%
%ADD16RoundRect,0.225000X0.225000X0.250000X-0.225000X0.250000X-0.225000X-0.250000X0.225000X-0.250000X0*%
%ADD17RoundRect,0.250000X0.292217X0.292217X-0.292217X0.292217X-0.292217X-0.292217X0.292217X-0.292217X0*%
%ADD18RoundRect,0.050000X0.387500X0.050000X-0.387500X0.050000X-0.387500X-0.050000X0.387500X-0.050000X0*%
%ADD19RoundRect,0.050000X0.050000X0.387500X-0.050000X0.387500X-0.050000X-0.387500X0.050000X-0.387500X0*%
%ADD20RoundRect,0.140000X-0.170000X0.140000X-0.170000X-0.140000X0.170000X-0.140000X0.170000X0.140000X0*%
%ADD21RoundRect,0.140000X0.170000X-0.140000X0.170000X0.140000X-0.170000X0.140000X-0.170000X-0.140000X0*%
%ADD22RoundRect,0.200000X0.200000X0.275000X-0.200000X0.275000X-0.200000X-0.275000X0.200000X-0.275000X0*%
%ADD23RoundRect,0.140000X-0.140000X-0.170000X0.140000X-0.170000X0.140000X0.170000X-0.140000X0.170000X0*%
%ADD24RoundRect,0.200000X-0.275000X0.200000X-0.275000X-0.200000X0.275000X-0.200000X0.275000X0.200000X0*%
%ADD25RoundRect,0.135000X-0.185000X0.135000X-0.185000X-0.135000X0.185000X-0.135000X0.185000X0.135000X0*%
%ADD26R,1.700000X1.000000*%
%ADD27RoundRect,0.135000X0.185000X-0.135000X0.185000X0.135000X-0.185000X0.135000X-0.185000X-0.135000X0*%
%ADD28RoundRect,0.150000X-0.150000X0.587500X-0.150000X-0.587500X0.150000X-0.587500X0.150000X0.587500X0*%
%ADD29R,1.400000X1.200000*%
%ADD30RoundRect,0.225000X-0.225000X-0.375000X0.225000X-0.375000X0.225000X0.375000X-0.225000X0.375000X0*%
%ADD31RoundRect,0.250000X0.625000X-0.375000X0.625000X0.375000X-0.625000X0.375000X-0.625000X-0.375000X0*%
%ADD32R,0.700000X1.000000*%
%ADD33R,0.700000X0.600000*%
%ADD34RoundRect,0.135000X-0.135000X-0.185000X0.135000X-0.185000X0.135000X0.185000X-0.135000X0.185000X0*%
%ADD35R,0.600000X1.450000*%
%ADD36R,0.300000X1.450000*%
%ADD37RoundRect,0.200000X0.275000X-0.200000X0.275000X0.200000X-0.275000X0.200000X-0.275000X-0.200000X0*%
G04 APERTURE END LIST*
D10*
X316765000Y-140335000D03*
X329692000Y-137795000D03*
X188177500Y-83185000D03*
X201104500Y-80645000D03*
X83402500Y-45085000D03*
X96329500Y-42545000D03*
X402490000Y-83185000D03*
X415417000Y-80645000D03*
X145315000Y-45085000D03*
X158242000Y-42545000D03*
X59590000Y-64135000D03*
X72517000Y-61595000D03*
X383440000Y-121285000D03*
X396367000Y-118745000D03*
X402490000Y-102235000D03*
X415417000Y-99695000D03*
X383440000Y-102235000D03*
X396367000Y-99695000D03*
X383440000Y-140335000D03*
X396367000Y-137795000D03*
X188177500Y-102235000D03*
X201104500Y-99695000D03*
X59590000Y-83185000D03*
X72517000Y-80645000D03*
X254852500Y-64135000D03*
X267779500Y-61595000D03*
X383440000Y-45085000D03*
X396367000Y-42545000D03*
X231040000Y-102235000D03*
X243967000Y-99695000D03*
X297715000Y-45085000D03*
X310642000Y-42545000D03*
X254852500Y-140335000D03*
X267779500Y-137795000D03*
X359627500Y-121285000D03*
X372554500Y-118745000D03*
X402490000Y-121285000D03*
X415417000Y-118745000D03*
X169127500Y-121285000D03*
X182054500Y-118745000D03*
X188177500Y-45085000D03*
X201104500Y-42545000D03*
X231040000Y-140335000D03*
X243967000Y-137795000D03*
X340577500Y-45085000D03*
X353504500Y-42545000D03*
X188177500Y-64135000D03*
X201104500Y-61595000D03*
X169127500Y-83185000D03*
X182054500Y-80645000D03*
X83402500Y-121285000D03*
X96329500Y-118745000D03*
X359627500Y-83185000D03*
X372554500Y-80645000D03*
X102452500Y-45085000D03*
X115379500Y-42545000D03*
X340577500Y-64135000D03*
X353504500Y-61595000D03*
X340577500Y-83185000D03*
X353504500Y-80645000D03*
X273902500Y-140335000D03*
X286829500Y-137795000D03*
X297715000Y-140335000D03*
X310642000Y-137795000D03*
X126265000Y-102235000D03*
X139192000Y-99695000D03*
X145315000Y-64135000D03*
X158242000Y-61595000D03*
X126265000Y-121285000D03*
X139192000Y-118745000D03*
X340577500Y-140335000D03*
X353504500Y-137795000D03*
X102452500Y-102235000D03*
X115379500Y-99695000D03*
X297715000Y-102235000D03*
X310642000Y-99695000D03*
X126265000Y-64135000D03*
X139192000Y-61595000D03*
X297715000Y-83185000D03*
X310642000Y-80645000D03*
X340577500Y-121285000D03*
X353504500Y-118745000D03*
X316765000Y-102235000D03*
X329692000Y-99695000D03*
X145315000Y-121285000D03*
X158242000Y-118745000D03*
X273902500Y-83185000D03*
X286829500Y-80645000D03*
X297715000Y-64135000D03*
X310642000Y-61595000D03*
X102452500Y-121285000D03*
X115379500Y-118745000D03*
X273902500Y-102235000D03*
X286829500Y-99695000D03*
X359627500Y-102235000D03*
X372554500Y-99695000D03*
X402490000Y-45085000D03*
X415417000Y-42545000D03*
X359627500Y-45085000D03*
X372554500Y-42545000D03*
X59590000Y-45085000D03*
X72517000Y-42545000D03*
X83402500Y-83185000D03*
X96329500Y-80645000D03*
X316765000Y-121285000D03*
X329692000Y-118745000D03*
X59590000Y-121285000D03*
X72517000Y-118745000D03*
X402490000Y-64135000D03*
X415417000Y-61595000D03*
X254852500Y-83185000D03*
X267779500Y-80645000D03*
X211990000Y-45085000D03*
X224917000Y-42545000D03*
X254852500Y-102235000D03*
X267779500Y-99695000D03*
X145315000Y-83185000D03*
X158242000Y-80645000D03*
X126265000Y-83185000D03*
X139192000Y-80645000D03*
X211990000Y-140335000D03*
X224917000Y-137795000D03*
X59590000Y-140335000D03*
X72517000Y-137795000D03*
X59590000Y-102235000D03*
X72517000Y-99695000D03*
X126265000Y-140335000D03*
X139192000Y-137795000D03*
X169127500Y-102235000D03*
X182054500Y-99695000D03*
X340577500Y-102235000D03*
X353504500Y-99695000D03*
X383440000Y-64135000D03*
X396367000Y-61595000D03*
X126265000Y-45085000D03*
X139192000Y-42545000D03*
X169127500Y-45085000D03*
X182054500Y-42545000D03*
X102452500Y-64135000D03*
X115379500Y-61595000D03*
X211990000Y-121285000D03*
X224917000Y-118745000D03*
X40540000Y-140335000D03*
X53467000Y-137795000D03*
X231040000Y-121285000D03*
X243967000Y-118745000D03*
X145315000Y-140335000D03*
X158242000Y-137795000D03*
X169127500Y-64135000D03*
X182054500Y-61595000D03*
X359627500Y-140335000D03*
X372554500Y-137795000D03*
X83402500Y-102235000D03*
X96329500Y-99695000D03*
X231040000Y-45085000D03*
X243967000Y-42545000D03*
X40540000Y-45085000D03*
X53467000Y-42545000D03*
X297715000Y-121285000D03*
X310642000Y-118745000D03*
X273902500Y-45085000D03*
X286829500Y-42545000D03*
X273902500Y-64135000D03*
X286829500Y-61595000D03*
X40540000Y-64135000D03*
X53467000Y-61595000D03*
X102452500Y-140335000D03*
X115379500Y-137795000D03*
X40540000Y-83185000D03*
X53467000Y-80645000D03*
X40540000Y-121285000D03*
X53467000Y-118745000D03*
X83402500Y-64135000D03*
X96329500Y-61595000D03*
X145315000Y-102235000D03*
X158242000Y-99695000D03*
X316765000Y-83185000D03*
X329692000Y-80645000D03*
X211990000Y-64135000D03*
X224917000Y-61595000D03*
X211990000Y-102235000D03*
X224917000Y-99695000D03*
X83402500Y-140335000D03*
X96329500Y-137795000D03*
X316765000Y-45085000D03*
X329692000Y-42545000D03*
X188177500Y-121285000D03*
X201104500Y-118745000D03*
X359627500Y-64135000D03*
X372554500Y-61595000D03*
X383440000Y-83185000D03*
X396367000Y-80645000D03*
X254852500Y-121285000D03*
X267779500Y-118745000D03*
X254852500Y-45085000D03*
X267779500Y-42545000D03*
X316765000Y-64135000D03*
X329692000Y-61595000D03*
X231040000Y-83185000D03*
X243967000Y-80645000D03*
X231040000Y-64135000D03*
X243967000Y-61595000D03*
X211990000Y-83185000D03*
X224917000Y-80645000D03*
X169127500Y-140335000D03*
X182054500Y-137795000D03*
X188177500Y-140335000D03*
X201104500Y-137795000D03*
X40540000Y-102235000D03*
X53467000Y-99695000D03*
X273902500Y-121285000D03*
X286829500Y-118745000D03*
X402490000Y-140335000D03*
X415417000Y-137795000D03*
X102452500Y-83185000D03*
X115379500Y-80645000D03*
D11*
X312737500Y-88962500D03*
X312737500Y-85662500D03*
X355600000Y-146112500D03*
X355600000Y-142812500D03*
X141287500Y-108012500D03*
X141287500Y-104712500D03*
X315912500Y-108012500D03*
X315912500Y-104712500D03*
X58737500Y-108012500D03*
X58737500Y-104712500D03*
X187325000Y-146112500D03*
X187325000Y-142812500D03*
D12*
X386910000Y-69100000D03*
X385890000Y-69100000D03*
D11*
X55562500Y-127062500D03*
X55562500Y-123762500D03*
X312737500Y-127062500D03*
X312737500Y-123762500D03*
X187325000Y-108012500D03*
X187325000Y-104712500D03*
X355600000Y-108012500D03*
X355600000Y-104712500D03*
X98425000Y-108012500D03*
X98425000Y-104712500D03*
D13*
X382700000Y-68600000D03*
D14*
X383550000Y-68000000D03*
X383550000Y-68400000D03*
X383550000Y-68800000D03*
X383550000Y-69200000D03*
X381850000Y-69200000D03*
X381850000Y-68800000D03*
X381850000Y-68400000D03*
X381850000Y-68000000D03*
D11*
X358775000Y-69912500D03*
X358775000Y-66612500D03*
X230187500Y-108012500D03*
X230187500Y-104712500D03*
X230187500Y-127062500D03*
X230187500Y-123762500D03*
D15*
X376380000Y-71200000D03*
X375420000Y-71200000D03*
D11*
X269875000Y-88962500D03*
X269875000Y-85662500D03*
X312737500Y-146112500D03*
X312737500Y-142812500D03*
X355600000Y-88962500D03*
X355600000Y-85662500D03*
X144462500Y-108012500D03*
X144462500Y-104712500D03*
D15*
X372780000Y-77600000D03*
X371820000Y-77600000D03*
D11*
X315912500Y-50862500D03*
X315912500Y-47562500D03*
D16*
X370575000Y-70500000D03*
X369025000Y-70500000D03*
D11*
X227012500Y-50862500D03*
X227012500Y-47562500D03*
D17*
X379137500Y-76837500D03*
X379137500Y-75562500D03*
X377862500Y-76837500D03*
X377862500Y-75562500D03*
D18*
X381937500Y-73600000D03*
X381937500Y-74000000D03*
X381937500Y-74400000D03*
X381937500Y-74800000D03*
X381937500Y-75200000D03*
X381937500Y-75600000D03*
X381937500Y-76000000D03*
X381937500Y-76400000D03*
X381937500Y-76800000D03*
X381937500Y-77200000D03*
X381937500Y-77600000D03*
X381937500Y-78000000D03*
X381937500Y-78400000D03*
X381937500Y-78800000D03*
D19*
X381100000Y-79637500D03*
X380700000Y-79637500D03*
X380300000Y-79637500D03*
X379900000Y-79637500D03*
X379500000Y-79637500D03*
X379100000Y-79637500D03*
X378700000Y-79637500D03*
X378300000Y-79637500D03*
X377900000Y-79637500D03*
X377500000Y-79637500D03*
X377100000Y-79637500D03*
X376700000Y-79637500D03*
X376300000Y-79637500D03*
X375900000Y-79637500D03*
D18*
X375062500Y-78800000D03*
X375062500Y-78400000D03*
X375062500Y-78000000D03*
X375062500Y-77600000D03*
X375062500Y-77200000D03*
X375062500Y-76800000D03*
X375062500Y-76400000D03*
X375062500Y-76000000D03*
X375062500Y-75600000D03*
X375062500Y-75200000D03*
X375062500Y-74800000D03*
X375062500Y-74400000D03*
X375062500Y-74000000D03*
X375062500Y-73600000D03*
D19*
X375900000Y-72762500D03*
X376300000Y-72762500D03*
X376700000Y-72762500D03*
X377100000Y-72762500D03*
X377500000Y-72762500D03*
X377900000Y-72762500D03*
X378300000Y-72762500D03*
X378700000Y-72762500D03*
X379100000Y-72762500D03*
X379500000Y-72762500D03*
X379900000Y-72762500D03*
X380300000Y-72762500D03*
X380700000Y-72762500D03*
X381100000Y-72762500D03*
D11*
X141287500Y-69912500D03*
X141287500Y-66612500D03*
X98425000Y-146112500D03*
X98425000Y-142812500D03*
X273050000Y-69912500D03*
X273050000Y-66612500D03*
D12*
X386910000Y-70400000D03*
X385890000Y-70400000D03*
D20*
X375800000Y-81720000D03*
X375800000Y-82680000D03*
D21*
X372500000Y-71280000D03*
X372500000Y-70320000D03*
D11*
X230187500Y-69912500D03*
X230187500Y-66612500D03*
D21*
X379900000Y-69180000D03*
X379900000Y-68220000D03*
D20*
X375700000Y-86020000D03*
X375700000Y-86980000D03*
D11*
X227012500Y-127062500D03*
X227012500Y-123762500D03*
D22*
X385125000Y-52000000D03*
X383475000Y-52000000D03*
D11*
X55562500Y-88962500D03*
X55562500Y-85662500D03*
X273050000Y-50862500D03*
X273050000Y-47562500D03*
D23*
X378120000Y-89000000D03*
X379080000Y-89000000D03*
D11*
X358775000Y-88962500D03*
X358775000Y-85662500D03*
X101600000Y-108012500D03*
X101600000Y-104712500D03*
X401637500Y-50862500D03*
X401637500Y-47562500D03*
X141287500Y-88962500D03*
X141287500Y-85662500D03*
X398462500Y-50862500D03*
X398462500Y-47562500D03*
X401637500Y-127062500D03*
X401637500Y-123762500D03*
D24*
X375500000Y-52075000D03*
X375500000Y-53725000D03*
D11*
X273050000Y-127062500D03*
X273050000Y-123762500D03*
X230187500Y-146112500D03*
X230187500Y-142812500D03*
X315912500Y-127062500D03*
X315912500Y-123762500D03*
X184150000Y-50862500D03*
X184150000Y-47562500D03*
X312737500Y-108012500D03*
X312737500Y-104712500D03*
X401637500Y-88962500D03*
X401637500Y-85662500D03*
X144462500Y-127062500D03*
X144462500Y-123762500D03*
X101600000Y-127062500D03*
X101600000Y-123762500D03*
X273050000Y-88962500D03*
X273050000Y-85662500D03*
X187325000Y-127062500D03*
X187325000Y-123762500D03*
D21*
X369500000Y-56180000D03*
X369500000Y-55220000D03*
D11*
X401637500Y-69912500D03*
X401637500Y-66612500D03*
X401637500Y-108012500D03*
X401637500Y-104712500D03*
X398462500Y-146112500D03*
X398462500Y-142812500D03*
D25*
X375000000Y-67490000D03*
X375000000Y-68510000D03*
D11*
X98425000Y-88962500D03*
X98425000Y-85662500D03*
X355600000Y-127062500D03*
X355600000Y-123762500D03*
X144462500Y-146112500D03*
X144462500Y-142812500D03*
D26*
X401662500Y-76512500D03*
X407962500Y-76512500D03*
X401662500Y-72712500D03*
X407962500Y-72712500D03*
D11*
X101600000Y-69912500D03*
X101600000Y-66612500D03*
X358775000Y-108012500D03*
X358775000Y-104712500D03*
D21*
X374100000Y-71280000D03*
X374100000Y-70320000D03*
D20*
X374600000Y-55220000D03*
X374600000Y-56180000D03*
D27*
X376300000Y-68510000D03*
X376300000Y-67490000D03*
D11*
X269875000Y-127062500D03*
X269875000Y-123762500D03*
X184150000Y-88962500D03*
X184150000Y-85662500D03*
X398462500Y-127062500D03*
X398462500Y-123762500D03*
X269875000Y-108012500D03*
X269875000Y-104712500D03*
X98425000Y-50862500D03*
X98425000Y-47562500D03*
D20*
X377900000Y-81720000D03*
X377900000Y-82680000D03*
D11*
X401637500Y-94518750D03*
X401637500Y-91218750D03*
X58737500Y-69912500D03*
X58737500Y-66612500D03*
X227012500Y-69912500D03*
X227012500Y-66612500D03*
D22*
X385125000Y-50100000D03*
X383475000Y-50100000D03*
D26*
X407962500Y-53700000D03*
X401662500Y-53700000D03*
X407962500Y-57500000D03*
X401662500Y-57500000D03*
D15*
X373480000Y-72800000D03*
X372520000Y-72800000D03*
D11*
X55562500Y-108012500D03*
X55562500Y-104712500D03*
X141287500Y-146112500D03*
X141287500Y-142812500D03*
X315912500Y-146112500D03*
X315912500Y-142812500D03*
X187325000Y-69912500D03*
X187325000Y-66612500D03*
X184150000Y-127062500D03*
X184150000Y-123762500D03*
X398462500Y-108012500D03*
X398462500Y-104712500D03*
X358775000Y-127062500D03*
X358775000Y-123762500D03*
D28*
X371050000Y-54262500D03*
X372950000Y-54262500D03*
X372000000Y-56137500D03*
D11*
X187325000Y-88962500D03*
X187325000Y-85662500D03*
X58737500Y-146112500D03*
X58737500Y-142812500D03*
X269875000Y-69912500D03*
X269875000Y-66612500D03*
D29*
X379700000Y-87350000D03*
X377500000Y-87350000D03*
X377500000Y-85650000D03*
X379700000Y-85650000D03*
D11*
X184150000Y-108012500D03*
X184150000Y-104712500D03*
D30*
X370350000Y-51700000D03*
X373650000Y-51700000D03*
D11*
X184150000Y-146112500D03*
X184150000Y-142812500D03*
X55562500Y-50862500D03*
X55562500Y-47562500D03*
X315912500Y-69912500D03*
X315912500Y-66612500D03*
X355600000Y-50862500D03*
X355600000Y-47562500D03*
X101600000Y-88962500D03*
X101600000Y-85662500D03*
X101600000Y-50862500D03*
X101600000Y-47562500D03*
D23*
X381820000Y-66800000D03*
X382780000Y-66800000D03*
D11*
X141287500Y-127062500D03*
X141287500Y-123762500D03*
D21*
X377700000Y-69580000D03*
X377700000Y-68620000D03*
D11*
X58737500Y-88962500D03*
X58737500Y-85662500D03*
X55562500Y-146112500D03*
X55562500Y-142812500D03*
X230187500Y-50862500D03*
X230187500Y-47562500D03*
D23*
X384120000Y-77600000D03*
X385080000Y-77600000D03*
D11*
X312737500Y-69912500D03*
X312737500Y-66612500D03*
X187325000Y-50862500D03*
X187325000Y-47562500D03*
X398462500Y-69912500D03*
X398462500Y-66612500D03*
X144462500Y-69912500D03*
X144462500Y-66612500D03*
X312737500Y-50862500D03*
X312737500Y-47562500D03*
X355600000Y-69912500D03*
X355600000Y-66612500D03*
X55562500Y-69912500D03*
X55562500Y-66612500D03*
X227012500Y-108012500D03*
X227012500Y-104712500D03*
D31*
X375500000Y-47800000D03*
X375500000Y-45000000D03*
D11*
X230187500Y-88962500D03*
X230187500Y-85662500D03*
X315912500Y-88962500D03*
X315912500Y-85662500D03*
X358775000Y-146112500D03*
X358775000Y-142812500D03*
D32*
X379600000Y-44850000D03*
D33*
X379600000Y-46550000D03*
X377600000Y-46550000D03*
X377600000Y-44650000D03*
D11*
X98425000Y-69912500D03*
X98425000Y-66612500D03*
X269875000Y-50862500D03*
X269875000Y-47562500D03*
X358775000Y-50862500D03*
X358775000Y-47562500D03*
D34*
X377390000Y-84000000D03*
X378410000Y-84000000D03*
D11*
X273050000Y-108012500D03*
X273050000Y-104712500D03*
X58737500Y-50862500D03*
X58737500Y-47562500D03*
X184150000Y-69912500D03*
X184150000Y-66612500D03*
X401637500Y-146112500D03*
X401637500Y-142812500D03*
X273050000Y-146112500D03*
X273050000Y-142812500D03*
X144462500Y-88962500D03*
X144462500Y-85662500D03*
D27*
X399712500Y-56110000D03*
X399712500Y-55090000D03*
D21*
X383500000Y-73280000D03*
X383500000Y-72320000D03*
D11*
X144462500Y-50862500D03*
X144462500Y-47562500D03*
X227012500Y-88962500D03*
X227012500Y-85662500D03*
X269875000Y-146112500D03*
X269875000Y-142812500D03*
X141287500Y-50862500D03*
X141287500Y-47562500D03*
X58737500Y-127062500D03*
X58737500Y-123762500D03*
X101600000Y-146112500D03*
X101600000Y-142812500D03*
D35*
X375393750Y-40045000D03*
X376168750Y-40045000D03*
D36*
X376868750Y-40045000D03*
X377368750Y-40045000D03*
X377868750Y-40045000D03*
X378368750Y-40045000D03*
X378868750Y-40045000D03*
X379368750Y-40045000D03*
X379868750Y-40045000D03*
X380368750Y-40045000D03*
D35*
X381068750Y-40045000D03*
X381843750Y-40045000D03*
D37*
X368500000Y-53725000D03*
X368500000Y-52075000D03*
D11*
X227012500Y-146112500D03*
X227012500Y-142812500D03*
X98425000Y-127062500D03*
X98425000Y-123762500D03*
M02*
