%TF.GenerationSoftware,KiCad,Pcbnew,7.0.7*%
%TF.CreationDate,2023-09-25T11:45:26+09:00*%
%TF.ProjectId,Duet-Switch-Tester,44756574-2d53-4776-9974-63682d546573,rev?*%
%TF.SameCoordinates,Original*%
%TF.FileFunction,Drillmap*%
%TF.FilePolarity,Positive*%
%FSLAX45Y45*%
G04 Gerber Fmt 4.5, Leading zero omitted, Abs format (unit mm)*
G04 Created by KiCad (PCBNEW 7.0.7) date 2023-09-25 11:45:26*
%MOMM*%
%LPD*%
G01*
G04 APERTURE LIST*
%ADD10C,0.100000*%
%ADD11C,0.200000*%
%ADD12C,0.035000*%
%ADD13C,0.040000*%
%ADD14C,0.060000*%
%ADD15C,0.220000*%
G04 APERTURE END LIST*
D10*
X41830625Y-4048125D02*
G75*
G03*
X41671875Y-3889375I-158755J-5D01*
G01*
X41671875Y-15160625D02*
X4048125Y-15160625D01*
X4048125Y-3889375D02*
X37147500Y-3889375D01*
X37306250Y-3730625D02*
X37306250Y-3492500D01*
X37147500Y-3889370D02*
G75*
G03*
X37306250Y-3730625I0J158750D01*
G01*
X3889375Y-15001875D02*
G75*
G03*
X4048125Y-15160625I158755J5D01*
G01*
X37385625Y-3413120D02*
G75*
G03*
X37306250Y-3492500I5J-79380D01*
G01*
X3889375Y-15001875D02*
X3889375Y-4048125D01*
X38417495Y-3492500D02*
G75*
G03*
X38338125Y-3413125I-79375J0D01*
G01*
X38576250Y-3889375D02*
X41671875Y-3889375D01*
X38417500Y-3492500D02*
X38417500Y-3730625D01*
X41671875Y-15160625D02*
G75*
G03*
X41830625Y-15001875I-5J158755D01*
G01*
X38417495Y-3730625D02*
G75*
G03*
X38576250Y-3889375I158755J5D01*
G01*
X4048125Y-3889375D02*
G75*
G03*
X3889375Y-4048125I0J-158750D01*
G01*
X37385625Y-3413125D02*
X38338125Y-3413125D01*
X41830625Y-4048125D02*
X41830625Y-15001875D01*
D11*
D12*
X37705000Y-7475000D02*
X37740000Y-7510000D01*
X37740000Y-7475000D02*
X37705000Y-7510000D01*
X37705000Y-7602500D02*
X37740000Y-7637500D01*
X37740000Y-7602500D02*
X37705000Y-7637500D01*
X37705000Y-7730000D02*
X37740000Y-7765000D01*
X37740000Y-7730000D02*
X37705000Y-7765000D01*
X37832500Y-7475000D02*
X37867500Y-7510000D01*
X37867500Y-7475000D02*
X37832500Y-7510000D01*
X37832500Y-7602500D02*
X37867500Y-7637500D01*
X37867500Y-7602500D02*
X37832500Y-7637500D01*
X37832500Y-7730000D02*
X37867500Y-7765000D01*
X37867500Y-7730000D02*
X37832500Y-7765000D01*
X37960000Y-7475000D02*
X37995000Y-7510000D01*
X37995000Y-7475000D02*
X37960000Y-7510000D01*
X37960000Y-7602500D02*
X37995000Y-7637500D01*
X37995000Y-7602500D02*
X37960000Y-7637500D01*
X37960000Y-7730000D02*
X37995000Y-7765000D01*
X37995000Y-7730000D02*
X37960000Y-7765000D01*
D13*
X4070000Y-4310000D02*
G75*
G03*
X4070000Y-4310000I-20000J0D01*
G01*
X4070000Y-6210000D02*
G75*
G03*
X4070000Y-6210000I-20000J0D01*
G01*
X4070000Y-8120000D02*
G75*
G03*
X4070000Y-8120000I-20000J0D01*
G01*
X4070000Y-10020000D02*
G75*
G03*
X4070000Y-10020000I-20000J0D01*
G01*
X4070000Y-11930000D02*
G75*
G03*
X4070000Y-11930000I-20000J0D01*
G01*
X4070000Y-13830000D02*
G75*
G03*
X4070000Y-13830000I-20000J0D01*
G01*
X5980000Y-4310000D02*
G75*
G03*
X5980000Y-4310000I-20000J0D01*
G01*
X5980000Y-6210000D02*
G75*
G03*
X5980000Y-6210000I-20000J0D01*
G01*
X5980000Y-8120000D02*
G75*
G03*
X5980000Y-8120000I-20000J0D01*
G01*
X5980000Y-10020000D02*
G75*
G03*
X5980000Y-10020000I-20000J0D01*
G01*
X5980000Y-11930000D02*
G75*
G03*
X5980000Y-11930000I-20000J0D01*
G01*
X5980000Y-13830000D02*
G75*
G03*
X5980000Y-13830000I-20000J0D01*
G01*
X8360000Y-4310000D02*
G75*
G03*
X8360000Y-4310000I-20000J0D01*
G01*
X8360000Y-6210000D02*
G75*
G03*
X8360000Y-6210000I-20000J0D01*
G01*
X8360000Y-8120000D02*
G75*
G03*
X8360000Y-8120000I-20000J0D01*
G01*
X8360000Y-10020000D02*
G75*
G03*
X8360000Y-10020000I-20000J0D01*
G01*
X8360000Y-11930000D02*
G75*
G03*
X8360000Y-11930000I-20000J0D01*
G01*
X8360000Y-13830000D02*
G75*
G03*
X8360000Y-13830000I-20000J0D01*
G01*
X10260000Y-4310000D02*
G75*
G03*
X10260000Y-4310000I-20000J0D01*
G01*
X10260000Y-6210000D02*
G75*
G03*
X10260000Y-6210000I-20000J0D01*
G01*
X10260000Y-8120000D02*
G75*
G03*
X10260000Y-8120000I-20000J0D01*
G01*
X10260000Y-10020000D02*
G75*
G03*
X10260000Y-10020000I-20000J0D01*
G01*
X10260000Y-11930000D02*
G75*
G03*
X10260000Y-11930000I-20000J0D01*
G01*
X10260000Y-13830000D02*
G75*
G03*
X10260000Y-13830000I-20000J0D01*
G01*
X12650000Y-4310000D02*
G75*
G03*
X12650000Y-4310000I-20000J0D01*
G01*
X12650000Y-6210000D02*
G75*
G03*
X12650000Y-6210000I-20000J0D01*
G01*
X12650000Y-8120000D02*
G75*
G03*
X12650000Y-8120000I-20000J0D01*
G01*
X12650000Y-10020000D02*
G75*
G03*
X12650000Y-10020000I-20000J0D01*
G01*
X12650000Y-11930000D02*
G75*
G03*
X12650000Y-11930000I-20000J0D01*
G01*
X12650000Y-13830000D02*
G75*
G03*
X12650000Y-13830000I-20000J0D01*
G01*
X14550000Y-4310000D02*
G75*
G03*
X14550000Y-4310000I-20000J0D01*
G01*
X14550000Y-6210000D02*
G75*
G03*
X14550000Y-6210000I-20000J0D01*
G01*
X14550000Y-8120000D02*
G75*
G03*
X14550000Y-8120000I-20000J0D01*
G01*
X14550000Y-10020000D02*
G75*
G03*
X14550000Y-10020000I-20000J0D01*
G01*
X14550000Y-11930000D02*
G75*
G03*
X14550000Y-11930000I-20000J0D01*
G01*
X14550000Y-13830000D02*
G75*
G03*
X14550000Y-13830000I-20000J0D01*
G01*
X16930000Y-4310000D02*
G75*
G03*
X16930000Y-4310000I-20000J0D01*
G01*
X16930000Y-6210000D02*
G75*
G03*
X16930000Y-6210000I-20000J0D01*
G01*
X16930000Y-8120000D02*
G75*
G03*
X16930000Y-8120000I-20000J0D01*
G01*
X16930000Y-10020000D02*
G75*
G03*
X16930000Y-10020000I-20000J0D01*
G01*
X16930000Y-11930000D02*
G75*
G03*
X16930000Y-11930000I-20000J0D01*
G01*
X16930000Y-13830000D02*
G75*
G03*
X16930000Y-13830000I-20000J0D01*
G01*
X18840000Y-4310000D02*
G75*
G03*
X18840000Y-4310000I-20000J0D01*
G01*
X18840000Y-6210000D02*
G75*
G03*
X18840000Y-6210000I-20000J0D01*
G01*
X18840000Y-8120000D02*
G75*
G03*
X18840000Y-8120000I-20000J0D01*
G01*
X18840000Y-10020000D02*
G75*
G03*
X18840000Y-10020000I-20000J0D01*
G01*
X18840000Y-11930000D02*
G75*
G03*
X18840000Y-11930000I-20000J0D01*
G01*
X18840000Y-13830000D02*
G75*
G03*
X18840000Y-13830000I-20000J0D01*
G01*
X21220000Y-4310000D02*
G75*
G03*
X21220000Y-4310000I-20000J0D01*
G01*
X21220000Y-6210000D02*
G75*
G03*
X21220000Y-6210000I-20000J0D01*
G01*
X21220000Y-8120000D02*
G75*
G03*
X21220000Y-8120000I-20000J0D01*
G01*
X21220000Y-10020000D02*
G75*
G03*
X21220000Y-10020000I-20000J0D01*
G01*
X21220000Y-11930000D02*
G75*
G03*
X21220000Y-11930000I-20000J0D01*
G01*
X21220000Y-13830000D02*
G75*
G03*
X21220000Y-13830000I-20000J0D01*
G01*
X23120000Y-4310000D02*
G75*
G03*
X23120000Y-4310000I-20000J0D01*
G01*
X23120000Y-6210000D02*
G75*
G03*
X23120000Y-6210000I-20000J0D01*
G01*
X23120000Y-8120000D02*
G75*
G03*
X23120000Y-8120000I-20000J0D01*
G01*
X23120000Y-10020000D02*
G75*
G03*
X23120000Y-10020000I-20000J0D01*
G01*
X23120000Y-11930000D02*
G75*
G03*
X23120000Y-11930000I-20000J0D01*
G01*
X23120000Y-13830000D02*
G75*
G03*
X23120000Y-13830000I-20000J0D01*
G01*
X25510000Y-4310000D02*
G75*
G03*
X25510000Y-4310000I-20000J0D01*
G01*
X25510000Y-6210000D02*
G75*
G03*
X25510000Y-6210000I-20000J0D01*
G01*
X25510000Y-8120000D02*
G75*
G03*
X25510000Y-8120000I-20000J0D01*
G01*
X25510000Y-10020000D02*
G75*
G03*
X25510000Y-10020000I-20000J0D01*
G01*
X25510000Y-11930000D02*
G75*
G03*
X25510000Y-11930000I-20000J0D01*
G01*
X25510000Y-13830000D02*
G75*
G03*
X25510000Y-13830000I-20000J0D01*
G01*
X27410000Y-4310000D02*
G75*
G03*
X27410000Y-4310000I-20000J0D01*
G01*
X27410000Y-6210000D02*
G75*
G03*
X27410000Y-6210000I-20000J0D01*
G01*
X27410000Y-8120000D02*
G75*
G03*
X27410000Y-8120000I-20000J0D01*
G01*
X27410000Y-10020000D02*
G75*
G03*
X27410000Y-10020000I-20000J0D01*
G01*
X27410000Y-11930000D02*
G75*
G03*
X27410000Y-11930000I-20000J0D01*
G01*
X27410000Y-13830000D02*
G75*
G03*
X27410000Y-13830000I-20000J0D01*
G01*
X29790000Y-4310000D02*
G75*
G03*
X29790000Y-4310000I-20000J0D01*
G01*
X29790000Y-6210000D02*
G75*
G03*
X29790000Y-6210000I-20000J0D01*
G01*
X29790000Y-8120000D02*
G75*
G03*
X29790000Y-8120000I-20000J0D01*
G01*
X29790000Y-10020000D02*
G75*
G03*
X29790000Y-10020000I-20000J0D01*
G01*
X29790000Y-11930000D02*
G75*
G03*
X29790000Y-11930000I-20000J0D01*
G01*
X29790000Y-13830000D02*
G75*
G03*
X29790000Y-13830000I-20000J0D01*
G01*
X31700000Y-4310000D02*
G75*
G03*
X31700000Y-4310000I-20000J0D01*
G01*
X31700000Y-6210000D02*
G75*
G03*
X31700000Y-6210000I-20000J0D01*
G01*
X31700000Y-8120000D02*
G75*
G03*
X31700000Y-8120000I-20000J0D01*
G01*
X31700000Y-10020000D02*
G75*
G03*
X31700000Y-10020000I-20000J0D01*
G01*
X31700000Y-11930000D02*
G75*
G03*
X31700000Y-11930000I-20000J0D01*
G01*
X31700000Y-13830000D02*
G75*
G03*
X31700000Y-13830000I-20000J0D01*
G01*
X34080000Y-4310000D02*
G75*
G03*
X34080000Y-4310000I-20000J0D01*
G01*
X34080000Y-6210000D02*
G75*
G03*
X34080000Y-6210000I-20000J0D01*
G01*
X34080000Y-8120000D02*
G75*
G03*
X34080000Y-8120000I-20000J0D01*
G01*
X34080000Y-10020000D02*
G75*
G03*
X34080000Y-10020000I-20000J0D01*
G01*
X34080000Y-11930000D02*
G75*
G03*
X34080000Y-11930000I-20000J0D01*
G01*
X34080000Y-13830000D02*
G75*
G03*
X34080000Y-13830000I-20000J0D01*
G01*
X35940000Y-6210000D02*
G75*
G03*
X35940000Y-6210000I-20000J0D01*
G01*
X35980000Y-4310000D02*
G75*
G03*
X35980000Y-4310000I-20000J0D01*
G01*
X35980000Y-8120000D02*
G75*
G03*
X35980000Y-8120000I-20000J0D01*
G01*
X35980000Y-10020000D02*
G75*
G03*
X35980000Y-10020000I-20000J0D01*
G01*
X35980000Y-11930000D02*
G75*
G03*
X35980000Y-11930000I-20000J0D01*
G01*
X35980000Y-13830000D02*
G75*
G03*
X35980000Y-13830000I-20000J0D01*
G01*
X36300000Y-7890000D02*
G75*
G03*
X36300000Y-7890000I-20000J0D01*
G01*
X36920000Y-6940000D02*
G75*
G03*
X36920000Y-6940000I-20000J0D01*
G01*
X36940000Y-5080000D02*
G75*
G03*
X36940000Y-5080000I-20000J0D01*
G01*
X37077500Y-7222500D02*
G75*
G03*
X37077500Y-7222500I-20000J0D01*
G01*
X37100000Y-7770000D02*
G75*
G03*
X37100000Y-7770000I-20000J0D01*
G01*
X37220000Y-5310000D02*
G75*
G03*
X37220000Y-5310000I-20000J0D01*
G01*
X37240000Y-6890000D02*
G75*
G03*
X37240000Y-6890000I-20000J0D01*
G01*
X37250000Y-7860000D02*
G75*
G03*
X37250000Y-7860000I-20000J0D01*
G01*
X37330000Y-9065000D02*
G75*
G03*
X37330000Y-9065000I-20000J0D01*
G01*
X37350000Y-6950000D02*
G75*
G03*
X37350000Y-6950000I-20000J0D01*
G01*
X37370000Y-5620000D02*
G75*
G03*
X37370000Y-5620000I-20000J0D01*
G01*
X37370000Y-5930000D02*
G75*
G03*
X37370000Y-5930000I-20000J0D01*
G01*
X37400000Y-7850000D02*
G75*
G03*
X37400000Y-7850000I-20000J0D01*
G01*
X37490000Y-7975000D02*
G75*
G03*
X37490000Y-7975000I-20000J0D01*
G01*
X37490000Y-8230000D02*
G75*
G03*
X37490000Y-8230000I-20000J0D01*
G01*
X37540000Y-4160000D02*
G75*
G03*
X37540000Y-4160000I-20000J0D01*
G01*
X37570000Y-7010000D02*
G75*
G03*
X37570000Y-7010000I-20000J0D01*
G01*
X37600000Y-8410000D02*
G75*
G03*
X37600000Y-8410000I-20000J0D01*
G01*
X37710000Y-8220000D02*
G75*
G03*
X37710000Y-8220000I-20000J0D01*
G01*
X37730000Y-4160000D02*
G75*
G03*
X37730000Y-4160000I-20000J0D01*
G01*
X37730000Y-4270000D02*
G75*
G03*
X37730000Y-4270000I-20000J0D01*
G01*
X37830000Y-6750000D02*
G75*
G03*
X37830000Y-6750000I-20000J0D01*
G01*
X37940000Y-6730000D02*
G75*
G03*
X37940000Y-6730000I-20000J0D01*
G01*
X37980000Y-8430000D02*
G75*
G03*
X37980000Y-8430000I-20000J0D01*
G01*
X38020000Y-8170000D02*
G75*
G03*
X38020000Y-8170000I-20000J0D01*
G01*
X38030000Y-4160000D02*
G75*
G03*
X38030000Y-4160000I-20000J0D01*
G01*
X38030000Y-4270000D02*
G75*
G03*
X38030000Y-4270000I-20000J0D01*
G01*
X38070000Y-6410000D02*
G75*
G03*
X38070000Y-6410000I-20000J0D01*
G01*
X38070000Y-6520000D02*
G75*
G03*
X38070000Y-6520000I-20000J0D01*
G01*
X38100000Y-5620000D02*
G75*
G03*
X38100000Y-5620000I-20000J0D01*
G01*
X38100000Y-6650000D02*
G75*
G03*
X38100000Y-6650000I-20000J0D01*
G01*
X38160000Y-8170000D02*
G75*
G03*
X38160000Y-8170000I-20000J0D01*
G01*
X38220000Y-4160000D02*
G75*
G03*
X38220000Y-4160000I-20000J0D01*
G01*
X38250000Y-5010000D02*
G75*
G03*
X38250000Y-5010000I-20000J0D01*
G01*
X38250000Y-5200000D02*
G75*
G03*
X38250000Y-5200000I-20000J0D01*
G01*
X38250000Y-5310000D02*
G75*
G03*
X38250000Y-5310000I-20000J0D01*
G01*
X38250000Y-5420000D02*
G75*
G03*
X38250000Y-5420000I-20000J0D01*
G01*
X38250000Y-5930000D02*
G75*
G03*
X38250000Y-5930000I-20000J0D01*
G01*
X38260000Y-7000000D02*
G75*
G03*
X38260000Y-7000000I-20000J0D01*
G01*
X38260000Y-7240000D02*
G75*
G03*
X38260000Y-7240000I-20000J0D01*
G01*
X38360000Y-10020000D02*
G75*
G03*
X38360000Y-10020000I-20000J0D01*
G01*
X38360000Y-11930000D02*
G75*
G03*
X38360000Y-11930000I-20000J0D01*
G01*
X38360000Y-13830000D02*
G75*
G03*
X38360000Y-13830000I-20000J0D01*
G01*
X38370000Y-4310000D02*
G75*
G03*
X38370000Y-4310000I-20000J0D01*
G01*
X38390000Y-8520000D02*
G75*
G03*
X38390000Y-8520000I-20000J0D01*
G01*
X38400000Y-6680000D02*
G75*
G03*
X38400000Y-6680000I-20000J0D01*
G01*
X38435000Y-9065000D02*
G75*
G03*
X38435000Y-9065000I-20000J0D01*
G01*
X38480000Y-7320000D02*
G75*
G03*
X38480000Y-7320000I-20000J0D01*
G01*
X38520000Y-6010000D02*
G75*
G03*
X38520000Y-6010000I-20000J0D01*
G01*
X38630000Y-7810000D02*
G75*
G03*
X38630000Y-7810000I-20000J0D01*
G01*
X38660000Y-5010000D02*
G75*
G03*
X38660000Y-5010000I-20000J0D01*
G01*
X38740000Y-7810000D02*
G75*
G03*
X38740000Y-7810000I-20000J0D01*
G01*
X38750000Y-5300000D02*
G75*
G03*
X38750000Y-5300000I-20000J0D01*
G01*
X38810000Y-6970000D02*
G75*
G03*
X38810000Y-6970000I-20000J0D01*
G01*
X38820000Y-6190000D02*
G75*
G03*
X38820000Y-6190000I-20000J0D01*
G01*
X38890000Y-9430000D02*
G75*
G03*
X38890000Y-9430000I-20000J0D01*
G01*
X38990000Y-7720000D02*
G75*
G03*
X38990000Y-7720000I-20000J0D01*
G01*
X39270000Y-7050000D02*
G75*
G03*
X39270000Y-7050000I-20000J0D01*
G01*
X39310000Y-8770000D02*
G75*
G03*
X39310000Y-8770000I-20000J0D01*
G01*
X39490000Y-9430000D02*
G75*
G03*
X39490000Y-9430000I-20000J0D01*
G01*
X39600000Y-7080000D02*
G75*
G03*
X39600000Y-7080000I-20000J0D01*
G01*
X39700000Y-8270000D02*
G75*
G03*
X39700000Y-8270000I-20000J0D01*
G01*
X39700000Y-9210000D02*
G75*
G03*
X39700000Y-9210000I-20000J0D01*
G01*
X39730000Y-14580000D02*
G75*
G03*
X39730000Y-14580000I-20000J0D01*
G01*
X39820000Y-7360000D02*
G75*
G03*
X39820000Y-7360000I-20000J0D01*
G01*
X39820000Y-7560000D02*
G75*
G03*
X39820000Y-7560000I-20000J0D01*
G01*
X39930000Y-7450000D02*
G75*
G03*
X39930000Y-7450000I-20000J0D01*
G01*
X39930000Y-7560000D02*
G75*
G03*
X39930000Y-7560000I-20000J0D01*
G01*
X40000000Y-10770000D02*
G75*
G03*
X40000000Y-10770000I-20000J0D01*
G01*
X40000000Y-12670000D02*
G75*
G03*
X40000000Y-12670000I-20000J0D01*
G01*
X40050000Y-8900000D02*
G75*
G03*
X40050000Y-8900000I-20000J0D01*
G01*
X40270000Y-4310000D02*
G75*
G03*
X40270000Y-4310000I-20000J0D01*
G01*
X40270000Y-6210000D02*
G75*
G03*
X40270000Y-6210000I-20000J0D01*
G01*
X40270000Y-8120000D02*
G75*
G03*
X40270000Y-8120000I-20000J0D01*
G01*
X40270000Y-10020000D02*
G75*
G03*
X40270000Y-10020000I-20000J0D01*
G01*
X40270000Y-11930000D02*
G75*
G03*
X40270000Y-11930000I-20000J0D01*
G01*
X40270000Y-13830000D02*
G75*
G03*
X40270000Y-13830000I-20000J0D01*
G01*
X40980000Y-7650000D02*
G75*
G03*
X40980000Y-7650000I-20000J0D01*
G01*
X40990000Y-5370000D02*
G75*
G03*
X40990000Y-5370000I-20000J0D01*
G01*
D14*
X37429875Y-3465000D02*
X37429875Y-3525000D01*
X37399875Y-3495000D02*
X37459875Y-3495000D01*
D11*
X37399875Y-3465000D02*
X37399875Y-3525000D01*
X37399875Y-3525000D02*
G75*
G03*
X37459875Y-3525000I30000J0D01*
G01*
X37459875Y-3525000D02*
X37459875Y-3465000D01*
X37459875Y-3465000D02*
G75*
G03*
X37399875Y-3465000I-30000J0D01*
G01*
D14*
X37429875Y-3883000D02*
X37429875Y-3943000D01*
X37399875Y-3913000D02*
X37459875Y-3913000D01*
D11*
X37399875Y-3858000D02*
X37399875Y-3968000D01*
X37399875Y-3968000D02*
G75*
G03*
X37459875Y-3968000I30000J0D01*
G01*
X37459875Y-3968000D02*
X37459875Y-3858000D01*
X37459875Y-3858000D02*
G75*
G03*
X37399875Y-3858000I-30000J0D01*
G01*
D14*
X38293875Y-3465000D02*
X38293875Y-3525000D01*
X38263875Y-3495000D02*
X38323875Y-3495000D01*
D11*
X38263875Y-3465000D02*
X38263875Y-3525000D01*
X38263875Y-3525000D02*
G75*
G03*
X38323875Y-3525000I30000J0D01*
G01*
X38323875Y-3525000D02*
X38323875Y-3465000D01*
X38323875Y-3465000D02*
G75*
G03*
X38263875Y-3465000I-30000J0D01*
G01*
D14*
X38293875Y-3883000D02*
X38293875Y-3943000D01*
X38263875Y-3913000D02*
X38323875Y-3913000D01*
D11*
X38263875Y-3858000D02*
X38263875Y-3968000D01*
X38263875Y-3968000D02*
G75*
G03*
X38323875Y-3968000I30000J0D01*
G01*
X38323875Y-3968000D02*
X38323875Y-3858000D01*
X38323875Y-3858000D02*
G75*
G03*
X38263875Y-3858000I-30000J0D01*
G01*
D15*
X4840283Y-5792782D02*
X4840283Y-5637217D01*
X4684718Y-5637217D01*
X4684718Y-5792782D01*
X4840283Y-5792782D01*
X4840283Y-13412782D02*
X4840283Y-13257217D01*
X4684718Y-13257217D01*
X4684718Y-13412782D01*
X4840283Y-13412782D01*
X13412782Y-5792782D02*
X13412782Y-5637217D01*
X13257217Y-5637217D01*
X13257217Y-5792782D01*
X13412782Y-5792782D01*
X13412782Y-13412782D02*
X13412782Y-13257217D01*
X13257217Y-13257217D01*
X13257217Y-13412782D01*
X13412782Y-13412782D01*
X21985283Y-5792782D02*
X21985283Y-5637217D01*
X21829718Y-5637217D01*
X21829718Y-5792782D01*
X21985283Y-5792782D01*
X21985283Y-13412782D02*
X21985283Y-13257217D01*
X21829718Y-13257217D01*
X21829718Y-13412782D01*
X21985283Y-13412782D01*
X30557782Y-5792782D02*
X30557782Y-5637217D01*
X30402217Y-5637217D01*
X30402217Y-5792782D01*
X30557782Y-5792782D01*
X30557782Y-13412782D02*
X30557782Y-13257217D01*
X30402217Y-13257217D01*
X30402217Y-13412782D01*
X30557782Y-13412782D01*
X39130283Y-5792782D02*
X39130283Y-5637217D01*
X38974718Y-5637217D01*
X38974718Y-5792782D01*
X39130283Y-5792782D01*
X39130283Y-13412782D02*
X39130283Y-13257217D01*
X38974718Y-13257217D01*
X38974718Y-13412782D01*
X39130283Y-13412782D01*
D11*
X4145152Y-15477109D02*
X4145152Y-15277109D01*
X4145152Y-15277109D02*
X4192771Y-15277109D01*
X4192771Y-15277109D02*
X4221342Y-15286633D01*
X4221342Y-15286633D02*
X4240390Y-15305680D01*
X4240390Y-15305680D02*
X4249914Y-15324728D01*
X4249914Y-15324728D02*
X4259438Y-15362823D01*
X4259438Y-15362823D02*
X4259438Y-15391394D01*
X4259438Y-15391394D02*
X4249914Y-15429490D01*
X4249914Y-15429490D02*
X4240390Y-15448537D01*
X4240390Y-15448537D02*
X4221342Y-15467585D01*
X4221342Y-15467585D02*
X4192771Y-15477109D01*
X4192771Y-15477109D02*
X4145152Y-15477109D01*
X4345152Y-15477109D02*
X4345152Y-15343775D01*
X4345152Y-15381871D02*
X4354676Y-15362823D01*
X4354676Y-15362823D02*
X4364199Y-15353299D01*
X4364199Y-15353299D02*
X4383247Y-15343775D01*
X4383247Y-15343775D02*
X4402295Y-15343775D01*
X4468961Y-15477109D02*
X4468961Y-15343775D01*
X4468961Y-15277109D02*
X4459438Y-15286633D01*
X4459438Y-15286633D02*
X4468961Y-15296156D01*
X4468961Y-15296156D02*
X4478485Y-15286633D01*
X4478485Y-15286633D02*
X4468961Y-15277109D01*
X4468961Y-15277109D02*
X4468961Y-15296156D01*
X4592771Y-15477109D02*
X4573723Y-15467585D01*
X4573723Y-15467585D02*
X4564199Y-15448537D01*
X4564199Y-15448537D02*
X4564199Y-15277109D01*
X4697533Y-15477109D02*
X4678485Y-15467585D01*
X4678485Y-15467585D02*
X4668961Y-15448537D01*
X4668961Y-15448537D02*
X4668961Y-15277109D01*
X4926104Y-15477109D02*
X4926104Y-15277109D01*
X4926104Y-15277109D02*
X4992771Y-15419966D01*
X4992771Y-15419966D02*
X5059438Y-15277109D01*
X5059438Y-15277109D02*
X5059438Y-15477109D01*
X5240390Y-15477109D02*
X5240390Y-15372347D01*
X5240390Y-15372347D02*
X5230866Y-15353299D01*
X5230866Y-15353299D02*
X5211819Y-15343775D01*
X5211819Y-15343775D02*
X5173723Y-15343775D01*
X5173723Y-15343775D02*
X5154676Y-15353299D01*
X5240390Y-15467585D02*
X5221342Y-15477109D01*
X5221342Y-15477109D02*
X5173723Y-15477109D01*
X5173723Y-15477109D02*
X5154676Y-15467585D01*
X5154676Y-15467585D02*
X5145152Y-15448537D01*
X5145152Y-15448537D02*
X5145152Y-15429490D01*
X5145152Y-15429490D02*
X5154676Y-15410442D01*
X5154676Y-15410442D02*
X5173723Y-15400918D01*
X5173723Y-15400918D02*
X5221342Y-15400918D01*
X5221342Y-15400918D02*
X5240390Y-15391394D01*
X5335628Y-15343775D02*
X5335628Y-15543775D01*
X5335628Y-15353299D02*
X5354676Y-15343775D01*
X5354676Y-15343775D02*
X5392771Y-15343775D01*
X5392771Y-15343775D02*
X5411819Y-15353299D01*
X5411819Y-15353299D02*
X5421342Y-15362823D01*
X5421342Y-15362823D02*
X5430866Y-15381871D01*
X5430866Y-15381871D02*
X5430866Y-15439013D01*
X5430866Y-15439013D02*
X5421342Y-15458061D01*
X5421342Y-15458061D02*
X5411819Y-15467585D01*
X5411819Y-15467585D02*
X5392771Y-15477109D01*
X5392771Y-15477109D02*
X5354676Y-15477109D01*
X5354676Y-15477109D02*
X5335628Y-15467585D01*
X5516580Y-15458061D02*
X5526104Y-15467585D01*
X5526104Y-15467585D02*
X5516580Y-15477109D01*
X5516580Y-15477109D02*
X5507057Y-15467585D01*
X5507057Y-15467585D02*
X5516580Y-15458061D01*
X5516580Y-15458061D02*
X5516580Y-15477109D01*
X5516580Y-15353299D02*
X5526104Y-15362823D01*
X5526104Y-15362823D02*
X5516580Y-15372347D01*
X5516580Y-15372347D02*
X5507057Y-15362823D01*
X5507057Y-15362823D02*
X5516580Y-15353299D01*
X5516580Y-15353299D02*
X5516580Y-15372347D01*
D12*
X3849375Y-15788125D02*
X3884375Y-15823125D01*
X3884375Y-15788125D02*
X3849375Y-15823125D01*
D11*
X4183247Y-15697109D02*
X4202295Y-15697109D01*
X4202295Y-15697109D02*
X4221342Y-15706633D01*
X4221342Y-15706633D02*
X4230866Y-15716156D01*
X4230866Y-15716156D02*
X4240390Y-15735204D01*
X4240390Y-15735204D02*
X4249914Y-15773299D01*
X4249914Y-15773299D02*
X4249914Y-15820918D01*
X4249914Y-15820918D02*
X4240390Y-15859013D01*
X4240390Y-15859013D02*
X4230866Y-15878061D01*
X4230866Y-15878061D02*
X4221342Y-15887585D01*
X4221342Y-15887585D02*
X4202295Y-15897109D01*
X4202295Y-15897109D02*
X4183247Y-15897109D01*
X4183247Y-15897109D02*
X4164199Y-15887585D01*
X4164199Y-15887585D02*
X4154676Y-15878061D01*
X4154676Y-15878061D02*
X4145152Y-15859013D01*
X4145152Y-15859013D02*
X4135628Y-15820918D01*
X4135628Y-15820918D02*
X4135628Y-15773299D01*
X4135628Y-15773299D02*
X4145152Y-15735204D01*
X4145152Y-15735204D02*
X4154676Y-15716156D01*
X4154676Y-15716156D02*
X4164199Y-15706633D01*
X4164199Y-15706633D02*
X4183247Y-15697109D01*
X4335628Y-15878061D02*
X4345152Y-15887585D01*
X4345152Y-15887585D02*
X4335628Y-15897109D01*
X4335628Y-15897109D02*
X4326104Y-15887585D01*
X4326104Y-15887585D02*
X4335628Y-15878061D01*
X4335628Y-15878061D02*
X4335628Y-15897109D01*
X4411819Y-15697109D02*
X4535628Y-15697109D01*
X4535628Y-15697109D02*
X4468961Y-15773299D01*
X4468961Y-15773299D02*
X4497533Y-15773299D01*
X4497533Y-15773299D02*
X4516580Y-15782823D01*
X4516580Y-15782823D02*
X4526104Y-15792347D01*
X4526104Y-15792347D02*
X4535628Y-15811394D01*
X4535628Y-15811394D02*
X4535628Y-15859013D01*
X4535628Y-15859013D02*
X4526104Y-15878061D01*
X4526104Y-15878061D02*
X4516580Y-15887585D01*
X4516580Y-15887585D02*
X4497533Y-15897109D01*
X4497533Y-15897109D02*
X4440390Y-15897109D01*
X4440390Y-15897109D02*
X4421342Y-15887585D01*
X4421342Y-15887585D02*
X4411819Y-15878061D01*
X4716580Y-15697109D02*
X4621342Y-15697109D01*
X4621342Y-15697109D02*
X4611819Y-15792347D01*
X4611819Y-15792347D02*
X4621342Y-15782823D01*
X4621342Y-15782823D02*
X4640390Y-15773299D01*
X4640390Y-15773299D02*
X4688009Y-15773299D01*
X4688009Y-15773299D02*
X4707057Y-15782823D01*
X4707057Y-15782823D02*
X4716580Y-15792347D01*
X4716580Y-15792347D02*
X4726104Y-15811394D01*
X4726104Y-15811394D02*
X4726104Y-15859013D01*
X4726104Y-15859013D02*
X4716580Y-15878061D01*
X4716580Y-15878061D02*
X4707057Y-15887585D01*
X4707057Y-15887585D02*
X4688009Y-15897109D01*
X4688009Y-15897109D02*
X4640390Y-15897109D01*
X4640390Y-15897109D02*
X4621342Y-15887585D01*
X4621342Y-15887585D02*
X4611819Y-15878061D01*
X4849914Y-15697109D02*
X4868961Y-15697109D01*
X4868961Y-15697109D02*
X4888009Y-15706633D01*
X4888009Y-15706633D02*
X4897533Y-15716156D01*
X4897533Y-15716156D02*
X4907057Y-15735204D01*
X4907057Y-15735204D02*
X4916580Y-15773299D01*
X4916580Y-15773299D02*
X4916580Y-15820918D01*
X4916580Y-15820918D02*
X4907057Y-15859013D01*
X4907057Y-15859013D02*
X4897533Y-15878061D01*
X4897533Y-15878061D02*
X4888009Y-15887585D01*
X4888009Y-15887585D02*
X4868961Y-15897109D01*
X4868961Y-15897109D02*
X4849914Y-15897109D01*
X4849914Y-15897109D02*
X4830866Y-15887585D01*
X4830866Y-15887585D02*
X4821342Y-15878061D01*
X4821342Y-15878061D02*
X4811819Y-15859013D01*
X4811819Y-15859013D02*
X4802295Y-15820918D01*
X4802295Y-15820918D02*
X4802295Y-15773299D01*
X4802295Y-15773299D02*
X4811819Y-15735204D01*
X4811819Y-15735204D02*
X4821342Y-15716156D01*
X4821342Y-15716156D02*
X4830866Y-15706633D01*
X4830866Y-15706633D02*
X4849914Y-15697109D01*
X5002295Y-15897109D02*
X5002295Y-15763775D01*
X5002295Y-15782823D02*
X5011819Y-15773299D01*
X5011819Y-15773299D02*
X5030866Y-15763775D01*
X5030866Y-15763775D02*
X5059438Y-15763775D01*
X5059438Y-15763775D02*
X5078485Y-15773299D01*
X5078485Y-15773299D02*
X5088009Y-15792347D01*
X5088009Y-15792347D02*
X5088009Y-15897109D01*
X5088009Y-15792347D02*
X5097533Y-15773299D01*
X5097533Y-15773299D02*
X5116580Y-15763775D01*
X5116580Y-15763775D02*
X5145152Y-15763775D01*
X5145152Y-15763775D02*
X5164200Y-15773299D01*
X5164200Y-15773299D02*
X5173723Y-15792347D01*
X5173723Y-15792347D02*
X5173723Y-15897109D01*
X5268961Y-15897109D02*
X5268961Y-15763775D01*
X5268961Y-15782823D02*
X5278485Y-15773299D01*
X5278485Y-15773299D02*
X5297533Y-15763775D01*
X5297533Y-15763775D02*
X5326104Y-15763775D01*
X5326104Y-15763775D02*
X5345152Y-15773299D01*
X5345152Y-15773299D02*
X5354676Y-15792347D01*
X5354676Y-15792347D02*
X5354676Y-15897109D01*
X5354676Y-15792347D02*
X5364200Y-15773299D01*
X5364200Y-15773299D02*
X5383247Y-15763775D01*
X5383247Y-15763775D02*
X5411819Y-15763775D01*
X5411819Y-15763775D02*
X5430866Y-15773299D01*
X5430866Y-15773299D02*
X5440390Y-15792347D01*
X5440390Y-15792347D02*
X5440390Y-15897109D01*
X5830866Y-15687585D02*
X5659438Y-15944728D01*
X6088009Y-15697109D02*
X6107057Y-15697109D01*
X6107057Y-15697109D02*
X6126104Y-15706633D01*
X6126104Y-15706633D02*
X6135628Y-15716156D01*
X6135628Y-15716156D02*
X6145152Y-15735204D01*
X6145152Y-15735204D02*
X6154676Y-15773299D01*
X6154676Y-15773299D02*
X6154676Y-15820918D01*
X6154676Y-15820918D02*
X6145152Y-15859013D01*
X6145152Y-15859013D02*
X6135628Y-15878061D01*
X6135628Y-15878061D02*
X6126104Y-15887585D01*
X6126104Y-15887585D02*
X6107057Y-15897109D01*
X6107057Y-15897109D02*
X6088009Y-15897109D01*
X6088009Y-15897109D02*
X6068961Y-15887585D01*
X6068961Y-15887585D02*
X6059438Y-15878061D01*
X6059438Y-15878061D02*
X6049914Y-15859013D01*
X6049914Y-15859013D02*
X6040390Y-15820918D01*
X6040390Y-15820918D02*
X6040390Y-15773299D01*
X6040390Y-15773299D02*
X6049914Y-15735204D01*
X6049914Y-15735204D02*
X6059438Y-15716156D01*
X6059438Y-15716156D02*
X6068961Y-15706633D01*
X6068961Y-15706633D02*
X6088009Y-15697109D01*
X6240390Y-15878061D02*
X6249914Y-15887585D01*
X6249914Y-15887585D02*
X6240390Y-15897109D01*
X6240390Y-15897109D02*
X6230866Y-15887585D01*
X6230866Y-15887585D02*
X6240390Y-15878061D01*
X6240390Y-15878061D02*
X6240390Y-15897109D01*
X6373723Y-15697109D02*
X6392771Y-15697109D01*
X6392771Y-15697109D02*
X6411819Y-15706633D01*
X6411819Y-15706633D02*
X6421342Y-15716156D01*
X6421342Y-15716156D02*
X6430866Y-15735204D01*
X6430866Y-15735204D02*
X6440390Y-15773299D01*
X6440390Y-15773299D02*
X6440390Y-15820918D01*
X6440390Y-15820918D02*
X6430866Y-15859013D01*
X6430866Y-15859013D02*
X6421342Y-15878061D01*
X6421342Y-15878061D02*
X6411819Y-15887585D01*
X6411819Y-15887585D02*
X6392771Y-15897109D01*
X6392771Y-15897109D02*
X6373723Y-15897109D01*
X6373723Y-15897109D02*
X6354676Y-15887585D01*
X6354676Y-15887585D02*
X6345152Y-15878061D01*
X6345152Y-15878061D02*
X6335628Y-15859013D01*
X6335628Y-15859013D02*
X6326104Y-15820918D01*
X6326104Y-15820918D02*
X6326104Y-15773299D01*
X6326104Y-15773299D02*
X6335628Y-15735204D01*
X6335628Y-15735204D02*
X6345152Y-15716156D01*
X6345152Y-15716156D02*
X6354676Y-15706633D01*
X6354676Y-15706633D02*
X6373723Y-15697109D01*
X6630866Y-15897109D02*
X6516581Y-15897109D01*
X6573723Y-15897109D02*
X6573723Y-15697109D01*
X6573723Y-15697109D02*
X6554676Y-15725680D01*
X6554676Y-15725680D02*
X6535628Y-15744728D01*
X6535628Y-15744728D02*
X6516581Y-15754252D01*
X6697533Y-15697109D02*
X6821342Y-15697109D01*
X6821342Y-15697109D02*
X6754676Y-15773299D01*
X6754676Y-15773299D02*
X6783247Y-15773299D01*
X6783247Y-15773299D02*
X6802295Y-15782823D01*
X6802295Y-15782823D02*
X6811819Y-15792347D01*
X6811819Y-15792347D02*
X6821342Y-15811394D01*
X6821342Y-15811394D02*
X6821342Y-15859013D01*
X6821342Y-15859013D02*
X6811819Y-15878061D01*
X6811819Y-15878061D02*
X6802295Y-15887585D01*
X6802295Y-15887585D02*
X6783247Y-15897109D01*
X6783247Y-15897109D02*
X6726104Y-15897109D01*
X6726104Y-15897109D02*
X6707057Y-15887585D01*
X6707057Y-15887585D02*
X6697533Y-15878061D01*
X6935628Y-15782823D02*
X6916581Y-15773299D01*
X6916581Y-15773299D02*
X6907057Y-15763775D01*
X6907057Y-15763775D02*
X6897533Y-15744728D01*
X6897533Y-15744728D02*
X6897533Y-15735204D01*
X6897533Y-15735204D02*
X6907057Y-15716156D01*
X6907057Y-15716156D02*
X6916581Y-15706633D01*
X6916581Y-15706633D02*
X6935628Y-15697109D01*
X6935628Y-15697109D02*
X6973723Y-15697109D01*
X6973723Y-15697109D02*
X6992771Y-15706633D01*
X6992771Y-15706633D02*
X7002295Y-15716156D01*
X7002295Y-15716156D02*
X7011819Y-15735204D01*
X7011819Y-15735204D02*
X7011819Y-15744728D01*
X7011819Y-15744728D02*
X7002295Y-15763775D01*
X7002295Y-15763775D02*
X6992771Y-15773299D01*
X6992771Y-15773299D02*
X6973723Y-15782823D01*
X6973723Y-15782823D02*
X6935628Y-15782823D01*
X6935628Y-15782823D02*
X6916581Y-15792347D01*
X6916581Y-15792347D02*
X6907057Y-15801871D01*
X6907057Y-15801871D02*
X6897533Y-15820918D01*
X6897533Y-15820918D02*
X6897533Y-15859013D01*
X6897533Y-15859013D02*
X6907057Y-15878061D01*
X6907057Y-15878061D02*
X6916581Y-15887585D01*
X6916581Y-15887585D02*
X6935628Y-15897109D01*
X6935628Y-15897109D02*
X6973723Y-15897109D01*
X6973723Y-15897109D02*
X6992771Y-15887585D01*
X6992771Y-15887585D02*
X7002295Y-15878061D01*
X7002295Y-15878061D02*
X7011819Y-15859013D01*
X7011819Y-15859013D02*
X7011819Y-15820918D01*
X7011819Y-15820918D02*
X7002295Y-15801871D01*
X7002295Y-15801871D02*
X6992771Y-15792347D01*
X6992771Y-15792347D02*
X6973723Y-15782823D01*
X7088009Y-15697109D02*
X7088009Y-15735204D01*
X7164200Y-15697109D02*
X7164200Y-15735204D01*
X7459438Y-15973299D02*
X7449914Y-15963775D01*
X7449914Y-15963775D02*
X7430866Y-15935204D01*
X7430866Y-15935204D02*
X7421343Y-15916156D01*
X7421343Y-15916156D02*
X7411819Y-15887585D01*
X7411819Y-15887585D02*
X7402295Y-15839966D01*
X7402295Y-15839966D02*
X7402295Y-15801871D01*
X7402295Y-15801871D02*
X7411819Y-15754252D01*
X7411819Y-15754252D02*
X7421343Y-15725680D01*
X7421343Y-15725680D02*
X7430866Y-15706633D01*
X7430866Y-15706633D02*
X7449914Y-15678061D01*
X7449914Y-15678061D02*
X7459438Y-15668537D01*
X7545152Y-15897109D02*
X7583247Y-15897109D01*
X7583247Y-15897109D02*
X7602295Y-15887585D01*
X7602295Y-15887585D02*
X7611819Y-15878061D01*
X7611819Y-15878061D02*
X7630866Y-15849490D01*
X7630866Y-15849490D02*
X7640390Y-15811394D01*
X7640390Y-15811394D02*
X7640390Y-15735204D01*
X7640390Y-15735204D02*
X7630866Y-15716156D01*
X7630866Y-15716156D02*
X7621343Y-15706633D01*
X7621343Y-15706633D02*
X7602295Y-15697109D01*
X7602295Y-15697109D02*
X7564200Y-15697109D01*
X7564200Y-15697109D02*
X7545152Y-15706633D01*
X7545152Y-15706633D02*
X7535628Y-15716156D01*
X7535628Y-15716156D02*
X7526104Y-15735204D01*
X7526104Y-15735204D02*
X7526104Y-15782823D01*
X7526104Y-15782823D02*
X7535628Y-15801871D01*
X7535628Y-15801871D02*
X7545152Y-15811394D01*
X7545152Y-15811394D02*
X7564200Y-15820918D01*
X7564200Y-15820918D02*
X7602295Y-15820918D01*
X7602295Y-15820918D02*
X7621343Y-15811394D01*
X7621343Y-15811394D02*
X7630866Y-15801871D01*
X7630866Y-15801871D02*
X7640390Y-15782823D01*
X7878485Y-15897109D02*
X7878485Y-15697109D01*
X7964200Y-15897109D02*
X7964200Y-15792347D01*
X7964200Y-15792347D02*
X7954676Y-15773299D01*
X7954676Y-15773299D02*
X7935628Y-15763775D01*
X7935628Y-15763775D02*
X7907057Y-15763775D01*
X7907057Y-15763775D02*
X7888009Y-15773299D01*
X7888009Y-15773299D02*
X7878485Y-15782823D01*
X8088009Y-15897109D02*
X8068962Y-15887585D01*
X8068962Y-15887585D02*
X8059438Y-15878061D01*
X8059438Y-15878061D02*
X8049914Y-15859013D01*
X8049914Y-15859013D02*
X8049914Y-15801871D01*
X8049914Y-15801871D02*
X8059438Y-15782823D01*
X8059438Y-15782823D02*
X8068962Y-15773299D01*
X8068962Y-15773299D02*
X8088009Y-15763775D01*
X8088009Y-15763775D02*
X8116581Y-15763775D01*
X8116581Y-15763775D02*
X8135628Y-15773299D01*
X8135628Y-15773299D02*
X8145152Y-15782823D01*
X8145152Y-15782823D02*
X8154676Y-15801871D01*
X8154676Y-15801871D02*
X8154676Y-15859013D01*
X8154676Y-15859013D02*
X8145152Y-15878061D01*
X8145152Y-15878061D02*
X8135628Y-15887585D01*
X8135628Y-15887585D02*
X8116581Y-15897109D01*
X8116581Y-15897109D02*
X8088009Y-15897109D01*
X8268962Y-15897109D02*
X8249914Y-15887585D01*
X8249914Y-15887585D02*
X8240390Y-15868537D01*
X8240390Y-15868537D02*
X8240390Y-15697109D01*
X8421343Y-15887585D02*
X8402295Y-15897109D01*
X8402295Y-15897109D02*
X8364200Y-15897109D01*
X8364200Y-15897109D02*
X8345152Y-15887585D01*
X8345152Y-15887585D02*
X8335628Y-15868537D01*
X8335628Y-15868537D02*
X8335628Y-15792347D01*
X8335628Y-15792347D02*
X8345152Y-15773299D01*
X8345152Y-15773299D02*
X8364200Y-15763775D01*
X8364200Y-15763775D02*
X8402295Y-15763775D01*
X8402295Y-15763775D02*
X8421343Y-15773299D01*
X8421343Y-15773299D02*
X8430867Y-15792347D01*
X8430867Y-15792347D02*
X8430867Y-15811394D01*
X8430867Y-15811394D02*
X8335628Y-15830442D01*
X8507057Y-15887585D02*
X8526105Y-15897109D01*
X8526105Y-15897109D02*
X8564200Y-15897109D01*
X8564200Y-15897109D02*
X8583248Y-15887585D01*
X8583248Y-15887585D02*
X8592771Y-15868537D01*
X8592771Y-15868537D02*
X8592771Y-15859013D01*
X8592771Y-15859013D02*
X8583248Y-15839966D01*
X8583248Y-15839966D02*
X8564200Y-15830442D01*
X8564200Y-15830442D02*
X8535628Y-15830442D01*
X8535628Y-15830442D02*
X8516581Y-15820918D01*
X8516581Y-15820918D02*
X8507057Y-15801871D01*
X8507057Y-15801871D02*
X8507057Y-15792347D01*
X8507057Y-15792347D02*
X8516581Y-15773299D01*
X8516581Y-15773299D02*
X8535628Y-15763775D01*
X8535628Y-15763775D02*
X8564200Y-15763775D01*
X8564200Y-15763775D02*
X8583248Y-15773299D01*
X8659438Y-15973299D02*
X8668962Y-15963775D01*
X8668962Y-15963775D02*
X8688009Y-15935204D01*
X8688009Y-15935204D02*
X8697533Y-15916156D01*
X8697533Y-15916156D02*
X8707057Y-15887585D01*
X8707057Y-15887585D02*
X8716581Y-15839966D01*
X8716581Y-15839966D02*
X8716581Y-15801871D01*
X8716581Y-15801871D02*
X8707057Y-15754252D01*
X8707057Y-15754252D02*
X8697533Y-15725680D01*
X8697533Y-15725680D02*
X8688009Y-15706633D01*
X8688009Y-15706633D02*
X8668962Y-15678061D01*
X8668962Y-15678061D02*
X8659438Y-15668537D01*
D13*
X3884375Y-16069625D02*
G75*
G03*
X3884375Y-16069625I-20000J0D01*
G01*
D11*
X4183247Y-15961109D02*
X4202295Y-15961109D01*
X4202295Y-15961109D02*
X4221342Y-15970633D01*
X4221342Y-15970633D02*
X4230866Y-15980156D01*
X4230866Y-15980156D02*
X4240390Y-15999204D01*
X4240390Y-15999204D02*
X4249914Y-16037299D01*
X4249914Y-16037299D02*
X4249914Y-16084918D01*
X4249914Y-16084918D02*
X4240390Y-16123013D01*
X4240390Y-16123013D02*
X4230866Y-16142061D01*
X4230866Y-16142061D02*
X4221342Y-16151585D01*
X4221342Y-16151585D02*
X4202295Y-16161109D01*
X4202295Y-16161109D02*
X4183247Y-16161109D01*
X4183247Y-16161109D02*
X4164199Y-16151585D01*
X4164199Y-16151585D02*
X4154676Y-16142061D01*
X4154676Y-16142061D02*
X4145152Y-16123013D01*
X4145152Y-16123013D02*
X4135628Y-16084918D01*
X4135628Y-16084918D02*
X4135628Y-16037299D01*
X4135628Y-16037299D02*
X4145152Y-15999204D01*
X4145152Y-15999204D02*
X4154676Y-15980156D01*
X4154676Y-15980156D02*
X4164199Y-15970633D01*
X4164199Y-15970633D02*
X4183247Y-15961109D01*
X4335628Y-16142061D02*
X4345152Y-16151585D01*
X4345152Y-16151585D02*
X4335628Y-16161109D01*
X4335628Y-16161109D02*
X4326104Y-16151585D01*
X4326104Y-16151585D02*
X4335628Y-16142061D01*
X4335628Y-16142061D02*
X4335628Y-16161109D01*
X4516580Y-16027775D02*
X4516580Y-16161109D01*
X4468961Y-15951585D02*
X4421342Y-16094442D01*
X4421342Y-16094442D02*
X4545152Y-16094442D01*
X4659438Y-15961109D02*
X4678485Y-15961109D01*
X4678485Y-15961109D02*
X4697533Y-15970633D01*
X4697533Y-15970633D02*
X4707057Y-15980156D01*
X4707057Y-15980156D02*
X4716580Y-15999204D01*
X4716580Y-15999204D02*
X4726104Y-16037299D01*
X4726104Y-16037299D02*
X4726104Y-16084918D01*
X4726104Y-16084918D02*
X4716580Y-16123013D01*
X4716580Y-16123013D02*
X4707057Y-16142061D01*
X4707057Y-16142061D02*
X4697533Y-16151585D01*
X4697533Y-16151585D02*
X4678485Y-16161109D01*
X4678485Y-16161109D02*
X4659438Y-16161109D01*
X4659438Y-16161109D02*
X4640390Y-16151585D01*
X4640390Y-16151585D02*
X4630866Y-16142061D01*
X4630866Y-16142061D02*
X4621342Y-16123013D01*
X4621342Y-16123013D02*
X4611819Y-16084918D01*
X4611819Y-16084918D02*
X4611819Y-16037299D01*
X4611819Y-16037299D02*
X4621342Y-15999204D01*
X4621342Y-15999204D02*
X4630866Y-15980156D01*
X4630866Y-15980156D02*
X4640390Y-15970633D01*
X4640390Y-15970633D02*
X4659438Y-15961109D01*
X4849914Y-15961109D02*
X4868961Y-15961109D01*
X4868961Y-15961109D02*
X4888009Y-15970633D01*
X4888009Y-15970633D02*
X4897533Y-15980156D01*
X4897533Y-15980156D02*
X4907057Y-15999204D01*
X4907057Y-15999204D02*
X4916580Y-16037299D01*
X4916580Y-16037299D02*
X4916580Y-16084918D01*
X4916580Y-16084918D02*
X4907057Y-16123013D01*
X4907057Y-16123013D02*
X4897533Y-16142061D01*
X4897533Y-16142061D02*
X4888009Y-16151585D01*
X4888009Y-16151585D02*
X4868961Y-16161109D01*
X4868961Y-16161109D02*
X4849914Y-16161109D01*
X4849914Y-16161109D02*
X4830866Y-16151585D01*
X4830866Y-16151585D02*
X4821342Y-16142061D01*
X4821342Y-16142061D02*
X4811819Y-16123013D01*
X4811819Y-16123013D02*
X4802295Y-16084918D01*
X4802295Y-16084918D02*
X4802295Y-16037299D01*
X4802295Y-16037299D02*
X4811819Y-15999204D01*
X4811819Y-15999204D02*
X4821342Y-15980156D01*
X4821342Y-15980156D02*
X4830866Y-15970633D01*
X4830866Y-15970633D02*
X4849914Y-15961109D01*
X5002295Y-16161109D02*
X5002295Y-16027775D01*
X5002295Y-16046823D02*
X5011819Y-16037299D01*
X5011819Y-16037299D02*
X5030866Y-16027775D01*
X5030866Y-16027775D02*
X5059438Y-16027775D01*
X5059438Y-16027775D02*
X5078485Y-16037299D01*
X5078485Y-16037299D02*
X5088009Y-16056347D01*
X5088009Y-16056347D02*
X5088009Y-16161109D01*
X5088009Y-16056347D02*
X5097533Y-16037299D01*
X5097533Y-16037299D02*
X5116580Y-16027775D01*
X5116580Y-16027775D02*
X5145152Y-16027775D01*
X5145152Y-16027775D02*
X5164200Y-16037299D01*
X5164200Y-16037299D02*
X5173723Y-16056347D01*
X5173723Y-16056347D02*
X5173723Y-16161109D01*
X5268961Y-16161109D02*
X5268961Y-16027775D01*
X5268961Y-16046823D02*
X5278485Y-16037299D01*
X5278485Y-16037299D02*
X5297533Y-16027775D01*
X5297533Y-16027775D02*
X5326104Y-16027775D01*
X5326104Y-16027775D02*
X5345152Y-16037299D01*
X5345152Y-16037299D02*
X5354676Y-16056347D01*
X5354676Y-16056347D02*
X5354676Y-16161109D01*
X5354676Y-16056347D02*
X5364200Y-16037299D01*
X5364200Y-16037299D02*
X5383247Y-16027775D01*
X5383247Y-16027775D02*
X5411819Y-16027775D01*
X5411819Y-16027775D02*
X5430866Y-16037299D01*
X5430866Y-16037299D02*
X5440390Y-16056347D01*
X5440390Y-16056347D02*
X5440390Y-16161109D01*
X5830866Y-15951585D02*
X5659438Y-16208728D01*
X6088009Y-15961109D02*
X6107057Y-15961109D01*
X6107057Y-15961109D02*
X6126104Y-15970633D01*
X6126104Y-15970633D02*
X6135628Y-15980156D01*
X6135628Y-15980156D02*
X6145152Y-15999204D01*
X6145152Y-15999204D02*
X6154676Y-16037299D01*
X6154676Y-16037299D02*
X6154676Y-16084918D01*
X6154676Y-16084918D02*
X6145152Y-16123013D01*
X6145152Y-16123013D02*
X6135628Y-16142061D01*
X6135628Y-16142061D02*
X6126104Y-16151585D01*
X6126104Y-16151585D02*
X6107057Y-16161109D01*
X6107057Y-16161109D02*
X6088009Y-16161109D01*
X6088009Y-16161109D02*
X6068961Y-16151585D01*
X6068961Y-16151585D02*
X6059438Y-16142061D01*
X6059438Y-16142061D02*
X6049914Y-16123013D01*
X6049914Y-16123013D02*
X6040390Y-16084918D01*
X6040390Y-16084918D02*
X6040390Y-16037299D01*
X6040390Y-16037299D02*
X6049914Y-15999204D01*
X6049914Y-15999204D02*
X6059438Y-15980156D01*
X6059438Y-15980156D02*
X6068961Y-15970633D01*
X6068961Y-15970633D02*
X6088009Y-15961109D01*
X6240390Y-16142061D02*
X6249914Y-16151585D01*
X6249914Y-16151585D02*
X6240390Y-16161109D01*
X6240390Y-16161109D02*
X6230866Y-16151585D01*
X6230866Y-16151585D02*
X6240390Y-16142061D01*
X6240390Y-16142061D02*
X6240390Y-16161109D01*
X6373723Y-15961109D02*
X6392771Y-15961109D01*
X6392771Y-15961109D02*
X6411819Y-15970633D01*
X6411819Y-15970633D02*
X6421342Y-15980156D01*
X6421342Y-15980156D02*
X6430866Y-15999204D01*
X6430866Y-15999204D02*
X6440390Y-16037299D01*
X6440390Y-16037299D02*
X6440390Y-16084918D01*
X6440390Y-16084918D02*
X6430866Y-16123013D01*
X6430866Y-16123013D02*
X6421342Y-16142061D01*
X6421342Y-16142061D02*
X6411819Y-16151585D01*
X6411819Y-16151585D02*
X6392771Y-16161109D01*
X6392771Y-16161109D02*
X6373723Y-16161109D01*
X6373723Y-16161109D02*
X6354676Y-16151585D01*
X6354676Y-16151585D02*
X6345152Y-16142061D01*
X6345152Y-16142061D02*
X6335628Y-16123013D01*
X6335628Y-16123013D02*
X6326104Y-16084918D01*
X6326104Y-16084918D02*
X6326104Y-16037299D01*
X6326104Y-16037299D02*
X6335628Y-15999204D01*
X6335628Y-15999204D02*
X6345152Y-15980156D01*
X6345152Y-15980156D02*
X6354676Y-15970633D01*
X6354676Y-15970633D02*
X6373723Y-15961109D01*
X6630866Y-16161109D02*
X6516581Y-16161109D01*
X6573723Y-16161109D02*
X6573723Y-15961109D01*
X6573723Y-15961109D02*
X6554676Y-15989680D01*
X6554676Y-15989680D02*
X6535628Y-16008728D01*
X6535628Y-16008728D02*
X6516581Y-16018252D01*
X6811819Y-15961109D02*
X6716581Y-15961109D01*
X6716581Y-15961109D02*
X6707057Y-16056347D01*
X6707057Y-16056347D02*
X6716581Y-16046823D01*
X6716581Y-16046823D02*
X6735628Y-16037299D01*
X6735628Y-16037299D02*
X6783247Y-16037299D01*
X6783247Y-16037299D02*
X6802295Y-16046823D01*
X6802295Y-16046823D02*
X6811819Y-16056347D01*
X6811819Y-16056347D02*
X6821342Y-16075394D01*
X6821342Y-16075394D02*
X6821342Y-16123013D01*
X6821342Y-16123013D02*
X6811819Y-16142061D01*
X6811819Y-16142061D02*
X6802295Y-16151585D01*
X6802295Y-16151585D02*
X6783247Y-16161109D01*
X6783247Y-16161109D02*
X6735628Y-16161109D01*
X6735628Y-16161109D02*
X6716581Y-16151585D01*
X6716581Y-16151585D02*
X6707057Y-16142061D01*
X6888009Y-15961109D02*
X7021342Y-15961109D01*
X7021342Y-15961109D02*
X6935628Y-16161109D01*
X7088009Y-15961109D02*
X7088009Y-15999204D01*
X7164200Y-15961109D02*
X7164200Y-15999204D01*
X7459438Y-16237299D02*
X7449914Y-16227775D01*
X7449914Y-16227775D02*
X7430866Y-16199204D01*
X7430866Y-16199204D02*
X7421343Y-16180156D01*
X7421343Y-16180156D02*
X7411819Y-16151585D01*
X7411819Y-16151585D02*
X7402295Y-16103966D01*
X7402295Y-16103966D02*
X7402295Y-16065871D01*
X7402295Y-16065871D02*
X7411819Y-16018252D01*
X7411819Y-16018252D02*
X7421343Y-15989680D01*
X7421343Y-15989680D02*
X7430866Y-15970633D01*
X7430866Y-15970633D02*
X7449914Y-15942061D01*
X7449914Y-15942061D02*
X7459438Y-15932537D01*
X7640390Y-16161109D02*
X7526104Y-16161109D01*
X7583247Y-16161109D02*
X7583247Y-15961109D01*
X7583247Y-15961109D02*
X7564200Y-15989680D01*
X7564200Y-15989680D02*
X7545152Y-16008728D01*
X7545152Y-16008728D02*
X7526104Y-16018252D01*
X7707057Y-15961109D02*
X7840390Y-15961109D01*
X7840390Y-15961109D02*
X7754676Y-16161109D01*
X8011819Y-15961109D02*
X7916581Y-15961109D01*
X7916581Y-15961109D02*
X7907057Y-16056347D01*
X7907057Y-16056347D02*
X7916581Y-16046823D01*
X7916581Y-16046823D02*
X7935628Y-16037299D01*
X7935628Y-16037299D02*
X7983247Y-16037299D01*
X7983247Y-16037299D02*
X8002295Y-16046823D01*
X8002295Y-16046823D02*
X8011819Y-16056347D01*
X8011819Y-16056347D02*
X8021343Y-16075394D01*
X8021343Y-16075394D02*
X8021343Y-16123013D01*
X8021343Y-16123013D02*
X8011819Y-16142061D01*
X8011819Y-16142061D02*
X8002295Y-16151585D01*
X8002295Y-16151585D02*
X7983247Y-16161109D01*
X7983247Y-16161109D02*
X7935628Y-16161109D01*
X7935628Y-16161109D02*
X7916581Y-16151585D01*
X7916581Y-16151585D02*
X7907057Y-16142061D01*
X8259438Y-16161109D02*
X8259438Y-15961109D01*
X8345152Y-16161109D02*
X8345152Y-16056347D01*
X8345152Y-16056347D02*
X8335628Y-16037299D01*
X8335628Y-16037299D02*
X8316581Y-16027775D01*
X8316581Y-16027775D02*
X8288009Y-16027775D01*
X8288009Y-16027775D02*
X8268962Y-16037299D01*
X8268962Y-16037299D02*
X8259438Y-16046823D01*
X8468962Y-16161109D02*
X8449914Y-16151585D01*
X8449914Y-16151585D02*
X8440390Y-16142061D01*
X8440390Y-16142061D02*
X8430867Y-16123013D01*
X8430867Y-16123013D02*
X8430867Y-16065871D01*
X8430867Y-16065871D02*
X8440390Y-16046823D01*
X8440390Y-16046823D02*
X8449914Y-16037299D01*
X8449914Y-16037299D02*
X8468962Y-16027775D01*
X8468962Y-16027775D02*
X8497533Y-16027775D01*
X8497533Y-16027775D02*
X8516581Y-16037299D01*
X8516581Y-16037299D02*
X8526105Y-16046823D01*
X8526105Y-16046823D02*
X8535628Y-16065871D01*
X8535628Y-16065871D02*
X8535628Y-16123013D01*
X8535628Y-16123013D02*
X8526105Y-16142061D01*
X8526105Y-16142061D02*
X8516581Y-16151585D01*
X8516581Y-16151585D02*
X8497533Y-16161109D01*
X8497533Y-16161109D02*
X8468962Y-16161109D01*
X8649914Y-16161109D02*
X8630867Y-16151585D01*
X8630867Y-16151585D02*
X8621343Y-16132537D01*
X8621343Y-16132537D02*
X8621343Y-15961109D01*
X8802295Y-16151585D02*
X8783248Y-16161109D01*
X8783248Y-16161109D02*
X8745152Y-16161109D01*
X8745152Y-16161109D02*
X8726105Y-16151585D01*
X8726105Y-16151585D02*
X8716581Y-16132537D01*
X8716581Y-16132537D02*
X8716581Y-16056347D01*
X8716581Y-16056347D02*
X8726105Y-16037299D01*
X8726105Y-16037299D02*
X8745152Y-16027775D01*
X8745152Y-16027775D02*
X8783248Y-16027775D01*
X8783248Y-16027775D02*
X8802295Y-16037299D01*
X8802295Y-16037299D02*
X8811819Y-16056347D01*
X8811819Y-16056347D02*
X8811819Y-16075394D01*
X8811819Y-16075394D02*
X8716581Y-16094442D01*
X8888009Y-16151585D02*
X8907057Y-16161109D01*
X8907057Y-16161109D02*
X8945152Y-16161109D01*
X8945152Y-16161109D02*
X8964200Y-16151585D01*
X8964200Y-16151585D02*
X8973724Y-16132537D01*
X8973724Y-16132537D02*
X8973724Y-16123013D01*
X8973724Y-16123013D02*
X8964200Y-16103966D01*
X8964200Y-16103966D02*
X8945152Y-16094442D01*
X8945152Y-16094442D02*
X8916581Y-16094442D01*
X8916581Y-16094442D02*
X8897533Y-16084918D01*
X8897533Y-16084918D02*
X8888009Y-16065871D01*
X8888009Y-16065871D02*
X8888009Y-16056347D01*
X8888009Y-16056347D02*
X8897533Y-16037299D01*
X8897533Y-16037299D02*
X8916581Y-16027775D01*
X8916581Y-16027775D02*
X8945152Y-16027775D01*
X8945152Y-16027775D02*
X8964200Y-16037299D01*
X9040390Y-16237299D02*
X9049914Y-16227775D01*
X9049914Y-16227775D02*
X9068962Y-16199204D01*
X9068962Y-16199204D02*
X9078486Y-16180156D01*
X9078486Y-16180156D02*
X9088009Y-16151585D01*
X9088009Y-16151585D02*
X9097533Y-16103966D01*
X9097533Y-16103966D02*
X9097533Y-16065871D01*
X9097533Y-16065871D02*
X9088009Y-16018252D01*
X9088009Y-16018252D02*
X9078486Y-15989680D01*
X9078486Y-15989680D02*
X9068962Y-15970633D01*
X9068962Y-15970633D02*
X9049914Y-15942061D01*
X9049914Y-15942061D02*
X9040390Y-15932537D01*
D14*
X3854375Y-16303625D02*
X3854375Y-16363625D01*
X3824375Y-16333625D02*
X3884375Y-16333625D01*
D11*
X4183247Y-16225109D02*
X4202295Y-16225109D01*
X4202295Y-16225109D02*
X4221342Y-16234633D01*
X4221342Y-16234633D02*
X4230866Y-16244156D01*
X4230866Y-16244156D02*
X4240390Y-16263204D01*
X4240390Y-16263204D02*
X4249914Y-16301299D01*
X4249914Y-16301299D02*
X4249914Y-16348918D01*
X4249914Y-16348918D02*
X4240390Y-16387013D01*
X4240390Y-16387013D02*
X4230866Y-16406061D01*
X4230866Y-16406061D02*
X4221342Y-16415585D01*
X4221342Y-16415585D02*
X4202295Y-16425109D01*
X4202295Y-16425109D02*
X4183247Y-16425109D01*
X4183247Y-16425109D02*
X4164199Y-16415585D01*
X4164199Y-16415585D02*
X4154676Y-16406061D01*
X4154676Y-16406061D02*
X4145152Y-16387013D01*
X4145152Y-16387013D02*
X4135628Y-16348918D01*
X4135628Y-16348918D02*
X4135628Y-16301299D01*
X4135628Y-16301299D02*
X4145152Y-16263204D01*
X4145152Y-16263204D02*
X4154676Y-16244156D01*
X4154676Y-16244156D02*
X4164199Y-16234633D01*
X4164199Y-16234633D02*
X4183247Y-16225109D01*
X4335628Y-16406061D02*
X4345152Y-16415585D01*
X4345152Y-16415585D02*
X4335628Y-16425109D01*
X4335628Y-16425109D02*
X4326104Y-16415585D01*
X4326104Y-16415585D02*
X4335628Y-16406061D01*
X4335628Y-16406061D02*
X4335628Y-16425109D01*
X4516580Y-16225109D02*
X4478485Y-16225109D01*
X4478485Y-16225109D02*
X4459438Y-16234633D01*
X4459438Y-16234633D02*
X4449914Y-16244156D01*
X4449914Y-16244156D02*
X4430866Y-16272728D01*
X4430866Y-16272728D02*
X4421342Y-16310823D01*
X4421342Y-16310823D02*
X4421342Y-16387013D01*
X4421342Y-16387013D02*
X4430866Y-16406061D01*
X4430866Y-16406061D02*
X4440390Y-16415585D01*
X4440390Y-16415585D02*
X4459438Y-16425109D01*
X4459438Y-16425109D02*
X4497533Y-16425109D01*
X4497533Y-16425109D02*
X4516580Y-16415585D01*
X4516580Y-16415585D02*
X4526104Y-16406061D01*
X4526104Y-16406061D02*
X4535628Y-16387013D01*
X4535628Y-16387013D02*
X4535628Y-16339394D01*
X4535628Y-16339394D02*
X4526104Y-16320347D01*
X4526104Y-16320347D02*
X4516580Y-16310823D01*
X4516580Y-16310823D02*
X4497533Y-16301299D01*
X4497533Y-16301299D02*
X4459438Y-16301299D01*
X4459438Y-16301299D02*
X4440390Y-16310823D01*
X4440390Y-16310823D02*
X4430866Y-16320347D01*
X4430866Y-16320347D02*
X4421342Y-16339394D01*
X4659438Y-16225109D02*
X4678485Y-16225109D01*
X4678485Y-16225109D02*
X4697533Y-16234633D01*
X4697533Y-16234633D02*
X4707057Y-16244156D01*
X4707057Y-16244156D02*
X4716580Y-16263204D01*
X4716580Y-16263204D02*
X4726104Y-16301299D01*
X4726104Y-16301299D02*
X4726104Y-16348918D01*
X4726104Y-16348918D02*
X4716580Y-16387013D01*
X4716580Y-16387013D02*
X4707057Y-16406061D01*
X4707057Y-16406061D02*
X4697533Y-16415585D01*
X4697533Y-16415585D02*
X4678485Y-16425109D01*
X4678485Y-16425109D02*
X4659438Y-16425109D01*
X4659438Y-16425109D02*
X4640390Y-16415585D01*
X4640390Y-16415585D02*
X4630866Y-16406061D01*
X4630866Y-16406061D02*
X4621342Y-16387013D01*
X4621342Y-16387013D02*
X4611819Y-16348918D01*
X4611819Y-16348918D02*
X4611819Y-16301299D01*
X4611819Y-16301299D02*
X4621342Y-16263204D01*
X4621342Y-16263204D02*
X4630866Y-16244156D01*
X4630866Y-16244156D02*
X4640390Y-16234633D01*
X4640390Y-16234633D02*
X4659438Y-16225109D01*
X4849914Y-16225109D02*
X4868961Y-16225109D01*
X4868961Y-16225109D02*
X4888009Y-16234633D01*
X4888009Y-16234633D02*
X4897533Y-16244156D01*
X4897533Y-16244156D02*
X4907057Y-16263204D01*
X4907057Y-16263204D02*
X4916580Y-16301299D01*
X4916580Y-16301299D02*
X4916580Y-16348918D01*
X4916580Y-16348918D02*
X4907057Y-16387013D01*
X4907057Y-16387013D02*
X4897533Y-16406061D01*
X4897533Y-16406061D02*
X4888009Y-16415585D01*
X4888009Y-16415585D02*
X4868961Y-16425109D01*
X4868961Y-16425109D02*
X4849914Y-16425109D01*
X4849914Y-16425109D02*
X4830866Y-16415585D01*
X4830866Y-16415585D02*
X4821342Y-16406061D01*
X4821342Y-16406061D02*
X4811819Y-16387013D01*
X4811819Y-16387013D02*
X4802295Y-16348918D01*
X4802295Y-16348918D02*
X4802295Y-16301299D01*
X4802295Y-16301299D02*
X4811819Y-16263204D01*
X4811819Y-16263204D02*
X4821342Y-16244156D01*
X4821342Y-16244156D02*
X4830866Y-16234633D01*
X4830866Y-16234633D02*
X4849914Y-16225109D01*
X5002295Y-16425109D02*
X5002295Y-16291775D01*
X5002295Y-16310823D02*
X5011819Y-16301299D01*
X5011819Y-16301299D02*
X5030866Y-16291775D01*
X5030866Y-16291775D02*
X5059438Y-16291775D01*
X5059438Y-16291775D02*
X5078485Y-16301299D01*
X5078485Y-16301299D02*
X5088009Y-16320347D01*
X5088009Y-16320347D02*
X5088009Y-16425109D01*
X5088009Y-16320347D02*
X5097533Y-16301299D01*
X5097533Y-16301299D02*
X5116580Y-16291775D01*
X5116580Y-16291775D02*
X5145152Y-16291775D01*
X5145152Y-16291775D02*
X5164200Y-16301299D01*
X5164200Y-16301299D02*
X5173723Y-16320347D01*
X5173723Y-16320347D02*
X5173723Y-16425109D01*
X5268961Y-16425109D02*
X5268961Y-16291775D01*
X5268961Y-16310823D02*
X5278485Y-16301299D01*
X5278485Y-16301299D02*
X5297533Y-16291775D01*
X5297533Y-16291775D02*
X5326104Y-16291775D01*
X5326104Y-16291775D02*
X5345152Y-16301299D01*
X5345152Y-16301299D02*
X5354676Y-16320347D01*
X5354676Y-16320347D02*
X5354676Y-16425109D01*
X5354676Y-16320347D02*
X5364200Y-16301299D01*
X5364200Y-16301299D02*
X5383247Y-16291775D01*
X5383247Y-16291775D02*
X5411819Y-16291775D01*
X5411819Y-16291775D02*
X5430866Y-16301299D01*
X5430866Y-16301299D02*
X5440390Y-16320347D01*
X5440390Y-16320347D02*
X5440390Y-16425109D01*
X5830866Y-16215585D02*
X5659438Y-16472728D01*
X6088009Y-16225109D02*
X6107057Y-16225109D01*
X6107057Y-16225109D02*
X6126104Y-16234633D01*
X6126104Y-16234633D02*
X6135628Y-16244156D01*
X6135628Y-16244156D02*
X6145152Y-16263204D01*
X6145152Y-16263204D02*
X6154676Y-16301299D01*
X6154676Y-16301299D02*
X6154676Y-16348918D01*
X6154676Y-16348918D02*
X6145152Y-16387013D01*
X6145152Y-16387013D02*
X6135628Y-16406061D01*
X6135628Y-16406061D02*
X6126104Y-16415585D01*
X6126104Y-16415585D02*
X6107057Y-16425109D01*
X6107057Y-16425109D02*
X6088009Y-16425109D01*
X6088009Y-16425109D02*
X6068961Y-16415585D01*
X6068961Y-16415585D02*
X6059438Y-16406061D01*
X6059438Y-16406061D02*
X6049914Y-16387013D01*
X6049914Y-16387013D02*
X6040390Y-16348918D01*
X6040390Y-16348918D02*
X6040390Y-16301299D01*
X6040390Y-16301299D02*
X6049914Y-16263204D01*
X6049914Y-16263204D02*
X6059438Y-16244156D01*
X6059438Y-16244156D02*
X6068961Y-16234633D01*
X6068961Y-16234633D02*
X6088009Y-16225109D01*
X6240390Y-16406061D02*
X6249914Y-16415585D01*
X6249914Y-16415585D02*
X6240390Y-16425109D01*
X6240390Y-16425109D02*
X6230866Y-16415585D01*
X6230866Y-16415585D02*
X6240390Y-16406061D01*
X6240390Y-16406061D02*
X6240390Y-16425109D01*
X6373723Y-16225109D02*
X6392771Y-16225109D01*
X6392771Y-16225109D02*
X6411819Y-16234633D01*
X6411819Y-16234633D02*
X6421342Y-16244156D01*
X6421342Y-16244156D02*
X6430866Y-16263204D01*
X6430866Y-16263204D02*
X6440390Y-16301299D01*
X6440390Y-16301299D02*
X6440390Y-16348918D01*
X6440390Y-16348918D02*
X6430866Y-16387013D01*
X6430866Y-16387013D02*
X6421342Y-16406061D01*
X6421342Y-16406061D02*
X6411819Y-16415585D01*
X6411819Y-16415585D02*
X6392771Y-16425109D01*
X6392771Y-16425109D02*
X6373723Y-16425109D01*
X6373723Y-16425109D02*
X6354676Y-16415585D01*
X6354676Y-16415585D02*
X6345152Y-16406061D01*
X6345152Y-16406061D02*
X6335628Y-16387013D01*
X6335628Y-16387013D02*
X6326104Y-16348918D01*
X6326104Y-16348918D02*
X6326104Y-16301299D01*
X6326104Y-16301299D02*
X6335628Y-16263204D01*
X6335628Y-16263204D02*
X6345152Y-16244156D01*
X6345152Y-16244156D02*
X6354676Y-16234633D01*
X6354676Y-16234633D02*
X6373723Y-16225109D01*
X6516581Y-16244156D02*
X6526104Y-16234633D01*
X6526104Y-16234633D02*
X6545152Y-16225109D01*
X6545152Y-16225109D02*
X6592771Y-16225109D01*
X6592771Y-16225109D02*
X6611819Y-16234633D01*
X6611819Y-16234633D02*
X6621342Y-16244156D01*
X6621342Y-16244156D02*
X6630866Y-16263204D01*
X6630866Y-16263204D02*
X6630866Y-16282252D01*
X6630866Y-16282252D02*
X6621342Y-16310823D01*
X6621342Y-16310823D02*
X6507057Y-16425109D01*
X6507057Y-16425109D02*
X6630866Y-16425109D01*
X6697533Y-16225109D02*
X6821342Y-16225109D01*
X6821342Y-16225109D02*
X6754676Y-16301299D01*
X6754676Y-16301299D02*
X6783247Y-16301299D01*
X6783247Y-16301299D02*
X6802295Y-16310823D01*
X6802295Y-16310823D02*
X6811819Y-16320347D01*
X6811819Y-16320347D02*
X6821342Y-16339394D01*
X6821342Y-16339394D02*
X6821342Y-16387013D01*
X6821342Y-16387013D02*
X6811819Y-16406061D01*
X6811819Y-16406061D02*
X6802295Y-16415585D01*
X6802295Y-16415585D02*
X6783247Y-16425109D01*
X6783247Y-16425109D02*
X6726104Y-16425109D01*
X6726104Y-16425109D02*
X6707057Y-16415585D01*
X6707057Y-16415585D02*
X6697533Y-16406061D01*
X6992771Y-16225109D02*
X6954676Y-16225109D01*
X6954676Y-16225109D02*
X6935628Y-16234633D01*
X6935628Y-16234633D02*
X6926104Y-16244156D01*
X6926104Y-16244156D02*
X6907057Y-16272728D01*
X6907057Y-16272728D02*
X6897533Y-16310823D01*
X6897533Y-16310823D02*
X6897533Y-16387013D01*
X6897533Y-16387013D02*
X6907057Y-16406061D01*
X6907057Y-16406061D02*
X6916581Y-16415585D01*
X6916581Y-16415585D02*
X6935628Y-16425109D01*
X6935628Y-16425109D02*
X6973723Y-16425109D01*
X6973723Y-16425109D02*
X6992771Y-16415585D01*
X6992771Y-16415585D02*
X7002295Y-16406061D01*
X7002295Y-16406061D02*
X7011819Y-16387013D01*
X7011819Y-16387013D02*
X7011819Y-16339394D01*
X7011819Y-16339394D02*
X7002295Y-16320347D01*
X7002295Y-16320347D02*
X6992771Y-16310823D01*
X6992771Y-16310823D02*
X6973723Y-16301299D01*
X6973723Y-16301299D02*
X6935628Y-16301299D01*
X6935628Y-16301299D02*
X6916581Y-16310823D01*
X6916581Y-16310823D02*
X6907057Y-16320347D01*
X6907057Y-16320347D02*
X6897533Y-16339394D01*
X7088009Y-16225109D02*
X7088009Y-16263204D01*
X7164200Y-16225109D02*
X7164200Y-16263204D01*
X7459438Y-16501299D02*
X7449914Y-16491775D01*
X7449914Y-16491775D02*
X7430866Y-16463204D01*
X7430866Y-16463204D02*
X7421343Y-16444156D01*
X7421343Y-16444156D02*
X7411819Y-16415585D01*
X7411819Y-16415585D02*
X7402295Y-16367966D01*
X7402295Y-16367966D02*
X7402295Y-16329871D01*
X7402295Y-16329871D02*
X7411819Y-16282252D01*
X7411819Y-16282252D02*
X7421343Y-16253680D01*
X7421343Y-16253680D02*
X7430866Y-16234633D01*
X7430866Y-16234633D02*
X7449914Y-16206061D01*
X7449914Y-16206061D02*
X7459438Y-16196537D01*
X7573723Y-16225109D02*
X7592771Y-16225109D01*
X7592771Y-16225109D02*
X7611819Y-16234633D01*
X7611819Y-16234633D02*
X7621343Y-16244156D01*
X7621343Y-16244156D02*
X7630866Y-16263204D01*
X7630866Y-16263204D02*
X7640390Y-16301299D01*
X7640390Y-16301299D02*
X7640390Y-16348918D01*
X7640390Y-16348918D02*
X7630866Y-16387013D01*
X7630866Y-16387013D02*
X7621343Y-16406061D01*
X7621343Y-16406061D02*
X7611819Y-16415585D01*
X7611819Y-16415585D02*
X7592771Y-16425109D01*
X7592771Y-16425109D02*
X7573723Y-16425109D01*
X7573723Y-16425109D02*
X7554676Y-16415585D01*
X7554676Y-16415585D02*
X7545152Y-16406061D01*
X7545152Y-16406061D02*
X7535628Y-16387013D01*
X7535628Y-16387013D02*
X7526104Y-16348918D01*
X7526104Y-16348918D02*
X7526104Y-16301299D01*
X7526104Y-16301299D02*
X7535628Y-16263204D01*
X7535628Y-16263204D02*
X7545152Y-16244156D01*
X7545152Y-16244156D02*
X7554676Y-16234633D01*
X7554676Y-16234633D02*
X7573723Y-16225109D01*
X7878485Y-16425109D02*
X7878485Y-16225109D01*
X7964200Y-16425109D02*
X7964200Y-16320347D01*
X7964200Y-16320347D02*
X7954676Y-16301299D01*
X7954676Y-16301299D02*
X7935628Y-16291775D01*
X7935628Y-16291775D02*
X7907057Y-16291775D01*
X7907057Y-16291775D02*
X7888009Y-16301299D01*
X7888009Y-16301299D02*
X7878485Y-16310823D01*
X8088009Y-16425109D02*
X8068962Y-16415585D01*
X8068962Y-16415585D02*
X8059438Y-16406061D01*
X8059438Y-16406061D02*
X8049914Y-16387013D01*
X8049914Y-16387013D02*
X8049914Y-16329871D01*
X8049914Y-16329871D02*
X8059438Y-16310823D01*
X8059438Y-16310823D02*
X8068962Y-16301299D01*
X8068962Y-16301299D02*
X8088009Y-16291775D01*
X8088009Y-16291775D02*
X8116581Y-16291775D01*
X8116581Y-16291775D02*
X8135628Y-16301299D01*
X8135628Y-16301299D02*
X8145152Y-16310823D01*
X8145152Y-16310823D02*
X8154676Y-16329871D01*
X8154676Y-16329871D02*
X8154676Y-16387013D01*
X8154676Y-16387013D02*
X8145152Y-16406061D01*
X8145152Y-16406061D02*
X8135628Y-16415585D01*
X8135628Y-16415585D02*
X8116581Y-16425109D01*
X8116581Y-16425109D02*
X8088009Y-16425109D01*
X8268962Y-16425109D02*
X8249914Y-16415585D01*
X8249914Y-16415585D02*
X8240390Y-16396537D01*
X8240390Y-16396537D02*
X8240390Y-16225109D01*
X8421343Y-16415585D02*
X8402295Y-16425109D01*
X8402295Y-16425109D02*
X8364200Y-16425109D01*
X8364200Y-16425109D02*
X8345152Y-16415585D01*
X8345152Y-16415585D02*
X8335628Y-16396537D01*
X8335628Y-16396537D02*
X8335628Y-16320347D01*
X8335628Y-16320347D02*
X8345152Y-16301299D01*
X8345152Y-16301299D02*
X8364200Y-16291775D01*
X8364200Y-16291775D02*
X8402295Y-16291775D01*
X8402295Y-16291775D02*
X8421343Y-16301299D01*
X8421343Y-16301299D02*
X8430867Y-16320347D01*
X8430867Y-16320347D02*
X8430867Y-16339394D01*
X8430867Y-16339394D02*
X8335628Y-16358442D01*
X8507057Y-16415585D02*
X8526105Y-16425109D01*
X8526105Y-16425109D02*
X8564200Y-16425109D01*
X8564200Y-16425109D02*
X8583248Y-16415585D01*
X8583248Y-16415585D02*
X8592771Y-16396537D01*
X8592771Y-16396537D02*
X8592771Y-16387013D01*
X8592771Y-16387013D02*
X8583248Y-16367966D01*
X8583248Y-16367966D02*
X8564200Y-16358442D01*
X8564200Y-16358442D02*
X8535628Y-16358442D01*
X8535628Y-16358442D02*
X8516581Y-16348918D01*
X8516581Y-16348918D02*
X8507057Y-16329871D01*
X8507057Y-16329871D02*
X8507057Y-16320347D01*
X8507057Y-16320347D02*
X8516581Y-16301299D01*
X8516581Y-16301299D02*
X8535628Y-16291775D01*
X8535628Y-16291775D02*
X8564200Y-16291775D01*
X8564200Y-16291775D02*
X8583248Y-16301299D01*
X8830867Y-16348918D02*
X8983248Y-16348918D01*
X8907057Y-16425109D02*
X8907057Y-16272728D01*
X9316581Y-16291775D02*
X9316581Y-16425109D01*
X9268962Y-16215585D02*
X9221343Y-16358442D01*
X9221343Y-16358442D02*
X9345152Y-16358442D01*
X9564200Y-16415585D02*
X9583248Y-16425109D01*
X9583248Y-16425109D02*
X9621343Y-16425109D01*
X9621343Y-16425109D02*
X9640391Y-16415585D01*
X9640391Y-16415585D02*
X9649914Y-16396537D01*
X9649914Y-16396537D02*
X9649914Y-16387013D01*
X9649914Y-16387013D02*
X9640391Y-16367966D01*
X9640391Y-16367966D02*
X9621343Y-16358442D01*
X9621343Y-16358442D02*
X9592771Y-16358442D01*
X9592771Y-16358442D02*
X9573724Y-16348918D01*
X9573724Y-16348918D02*
X9564200Y-16329871D01*
X9564200Y-16329871D02*
X9564200Y-16320347D01*
X9564200Y-16320347D02*
X9573724Y-16301299D01*
X9573724Y-16301299D02*
X9592771Y-16291775D01*
X9592771Y-16291775D02*
X9621343Y-16291775D01*
X9621343Y-16291775D02*
X9640391Y-16301299D01*
X9764200Y-16425109D02*
X9745152Y-16415585D01*
X9745152Y-16415585D02*
X9735629Y-16396537D01*
X9735629Y-16396537D02*
X9735629Y-16225109D01*
X9868962Y-16425109D02*
X9849914Y-16415585D01*
X9849914Y-16415585D02*
X9840391Y-16406061D01*
X9840391Y-16406061D02*
X9830867Y-16387013D01*
X9830867Y-16387013D02*
X9830867Y-16329871D01*
X9830867Y-16329871D02*
X9840391Y-16310823D01*
X9840391Y-16310823D02*
X9849914Y-16301299D01*
X9849914Y-16301299D02*
X9868962Y-16291775D01*
X9868962Y-16291775D02*
X9897533Y-16291775D01*
X9897533Y-16291775D02*
X9916581Y-16301299D01*
X9916581Y-16301299D02*
X9926105Y-16310823D01*
X9926105Y-16310823D02*
X9935629Y-16329871D01*
X9935629Y-16329871D02*
X9935629Y-16387013D01*
X9935629Y-16387013D02*
X9926105Y-16406061D01*
X9926105Y-16406061D02*
X9916581Y-16415585D01*
X9916581Y-16415585D02*
X9897533Y-16425109D01*
X9897533Y-16425109D02*
X9868962Y-16425109D01*
X9992772Y-16291775D02*
X10068962Y-16291775D01*
X10021343Y-16225109D02*
X10021343Y-16396537D01*
X10021343Y-16396537D02*
X10030867Y-16415585D01*
X10030867Y-16415585D02*
X10049914Y-16425109D01*
X10049914Y-16425109D02*
X10068962Y-16425109D01*
X10126105Y-16415585D02*
X10145152Y-16425109D01*
X10145152Y-16425109D02*
X10183248Y-16425109D01*
X10183248Y-16425109D02*
X10202295Y-16415585D01*
X10202295Y-16415585D02*
X10211819Y-16396537D01*
X10211819Y-16396537D02*
X10211819Y-16387013D01*
X10211819Y-16387013D02*
X10202295Y-16367966D01*
X10202295Y-16367966D02*
X10183248Y-16358442D01*
X10183248Y-16358442D02*
X10154676Y-16358442D01*
X10154676Y-16358442D02*
X10135629Y-16348918D01*
X10135629Y-16348918D02*
X10126105Y-16329871D01*
X10126105Y-16329871D02*
X10126105Y-16320347D01*
X10126105Y-16320347D02*
X10135629Y-16301299D01*
X10135629Y-16301299D02*
X10154676Y-16291775D01*
X10154676Y-16291775D02*
X10183248Y-16291775D01*
X10183248Y-16291775D02*
X10202295Y-16301299D01*
X10278486Y-16501299D02*
X10288010Y-16491775D01*
X10288010Y-16491775D02*
X10307057Y-16463204D01*
X10307057Y-16463204D02*
X10316581Y-16444156D01*
X10316581Y-16444156D02*
X10326105Y-16415585D01*
X10326105Y-16415585D02*
X10335629Y-16367966D01*
X10335629Y-16367966D02*
X10335629Y-16329871D01*
X10335629Y-16329871D02*
X10326105Y-16282252D01*
X10326105Y-16282252D02*
X10316581Y-16253680D01*
X10316581Y-16253680D02*
X10307057Y-16234633D01*
X10307057Y-16234633D02*
X10288010Y-16206061D01*
X10288010Y-16206061D02*
X10278486Y-16196537D01*
X3855086Y-16668336D02*
X3855086Y-16526914D01*
X3713664Y-16526914D01*
X3713664Y-16668336D01*
X3855086Y-16668336D01*
X4135628Y-16508156D02*
X4145152Y-16498633D01*
X4145152Y-16498633D02*
X4164199Y-16489109D01*
X4164199Y-16489109D02*
X4211819Y-16489109D01*
X4211819Y-16489109D02*
X4230866Y-16498633D01*
X4230866Y-16498633D02*
X4240390Y-16508156D01*
X4240390Y-16508156D02*
X4249914Y-16527204D01*
X4249914Y-16527204D02*
X4249914Y-16546252D01*
X4249914Y-16546252D02*
X4240390Y-16574823D01*
X4240390Y-16574823D02*
X4126104Y-16689109D01*
X4126104Y-16689109D02*
X4249914Y-16689109D01*
X4335628Y-16670061D02*
X4345152Y-16679585D01*
X4345152Y-16679585D02*
X4335628Y-16689109D01*
X4335628Y-16689109D02*
X4326104Y-16679585D01*
X4326104Y-16679585D02*
X4335628Y-16670061D01*
X4335628Y-16670061D02*
X4335628Y-16689109D01*
X4421342Y-16508156D02*
X4430866Y-16498633D01*
X4430866Y-16498633D02*
X4449914Y-16489109D01*
X4449914Y-16489109D02*
X4497533Y-16489109D01*
X4497533Y-16489109D02*
X4516580Y-16498633D01*
X4516580Y-16498633D02*
X4526104Y-16508156D01*
X4526104Y-16508156D02*
X4535628Y-16527204D01*
X4535628Y-16527204D02*
X4535628Y-16546252D01*
X4535628Y-16546252D02*
X4526104Y-16574823D01*
X4526104Y-16574823D02*
X4411819Y-16689109D01*
X4411819Y-16689109D02*
X4535628Y-16689109D01*
X4659438Y-16489109D02*
X4678485Y-16489109D01*
X4678485Y-16489109D02*
X4697533Y-16498633D01*
X4697533Y-16498633D02*
X4707057Y-16508156D01*
X4707057Y-16508156D02*
X4716580Y-16527204D01*
X4716580Y-16527204D02*
X4726104Y-16565299D01*
X4726104Y-16565299D02*
X4726104Y-16612918D01*
X4726104Y-16612918D02*
X4716580Y-16651013D01*
X4716580Y-16651013D02*
X4707057Y-16670061D01*
X4707057Y-16670061D02*
X4697533Y-16679585D01*
X4697533Y-16679585D02*
X4678485Y-16689109D01*
X4678485Y-16689109D02*
X4659438Y-16689109D01*
X4659438Y-16689109D02*
X4640390Y-16679585D01*
X4640390Y-16679585D02*
X4630866Y-16670061D01*
X4630866Y-16670061D02*
X4621342Y-16651013D01*
X4621342Y-16651013D02*
X4611819Y-16612918D01*
X4611819Y-16612918D02*
X4611819Y-16565299D01*
X4611819Y-16565299D02*
X4621342Y-16527204D01*
X4621342Y-16527204D02*
X4630866Y-16508156D01*
X4630866Y-16508156D02*
X4640390Y-16498633D01*
X4640390Y-16498633D02*
X4659438Y-16489109D01*
X4849914Y-16489109D02*
X4868961Y-16489109D01*
X4868961Y-16489109D02*
X4888009Y-16498633D01*
X4888009Y-16498633D02*
X4897533Y-16508156D01*
X4897533Y-16508156D02*
X4907057Y-16527204D01*
X4907057Y-16527204D02*
X4916580Y-16565299D01*
X4916580Y-16565299D02*
X4916580Y-16612918D01*
X4916580Y-16612918D02*
X4907057Y-16651013D01*
X4907057Y-16651013D02*
X4897533Y-16670061D01*
X4897533Y-16670061D02*
X4888009Y-16679585D01*
X4888009Y-16679585D02*
X4868961Y-16689109D01*
X4868961Y-16689109D02*
X4849914Y-16689109D01*
X4849914Y-16689109D02*
X4830866Y-16679585D01*
X4830866Y-16679585D02*
X4821342Y-16670061D01*
X4821342Y-16670061D02*
X4811819Y-16651013D01*
X4811819Y-16651013D02*
X4802295Y-16612918D01*
X4802295Y-16612918D02*
X4802295Y-16565299D01*
X4802295Y-16565299D02*
X4811819Y-16527204D01*
X4811819Y-16527204D02*
X4821342Y-16508156D01*
X4821342Y-16508156D02*
X4830866Y-16498633D01*
X4830866Y-16498633D02*
X4849914Y-16489109D01*
X5002295Y-16689109D02*
X5002295Y-16555775D01*
X5002295Y-16574823D02*
X5011819Y-16565299D01*
X5011819Y-16565299D02*
X5030866Y-16555775D01*
X5030866Y-16555775D02*
X5059438Y-16555775D01*
X5059438Y-16555775D02*
X5078485Y-16565299D01*
X5078485Y-16565299D02*
X5088009Y-16584347D01*
X5088009Y-16584347D02*
X5088009Y-16689109D01*
X5088009Y-16584347D02*
X5097533Y-16565299D01*
X5097533Y-16565299D02*
X5116580Y-16555775D01*
X5116580Y-16555775D02*
X5145152Y-16555775D01*
X5145152Y-16555775D02*
X5164200Y-16565299D01*
X5164200Y-16565299D02*
X5173723Y-16584347D01*
X5173723Y-16584347D02*
X5173723Y-16689109D01*
X5268961Y-16689109D02*
X5268961Y-16555775D01*
X5268961Y-16574823D02*
X5278485Y-16565299D01*
X5278485Y-16565299D02*
X5297533Y-16555775D01*
X5297533Y-16555775D02*
X5326104Y-16555775D01*
X5326104Y-16555775D02*
X5345152Y-16565299D01*
X5345152Y-16565299D02*
X5354676Y-16584347D01*
X5354676Y-16584347D02*
X5354676Y-16689109D01*
X5354676Y-16584347D02*
X5364200Y-16565299D01*
X5364200Y-16565299D02*
X5383247Y-16555775D01*
X5383247Y-16555775D02*
X5411819Y-16555775D01*
X5411819Y-16555775D02*
X5430866Y-16565299D01*
X5430866Y-16565299D02*
X5440390Y-16584347D01*
X5440390Y-16584347D02*
X5440390Y-16689109D01*
X5830866Y-16479585D02*
X5659438Y-16736728D01*
X6088009Y-16489109D02*
X6107057Y-16489109D01*
X6107057Y-16489109D02*
X6126104Y-16498633D01*
X6126104Y-16498633D02*
X6135628Y-16508156D01*
X6135628Y-16508156D02*
X6145152Y-16527204D01*
X6145152Y-16527204D02*
X6154676Y-16565299D01*
X6154676Y-16565299D02*
X6154676Y-16612918D01*
X6154676Y-16612918D02*
X6145152Y-16651013D01*
X6145152Y-16651013D02*
X6135628Y-16670061D01*
X6135628Y-16670061D02*
X6126104Y-16679585D01*
X6126104Y-16679585D02*
X6107057Y-16689109D01*
X6107057Y-16689109D02*
X6088009Y-16689109D01*
X6088009Y-16689109D02*
X6068961Y-16679585D01*
X6068961Y-16679585D02*
X6059438Y-16670061D01*
X6059438Y-16670061D02*
X6049914Y-16651013D01*
X6049914Y-16651013D02*
X6040390Y-16612918D01*
X6040390Y-16612918D02*
X6040390Y-16565299D01*
X6040390Y-16565299D02*
X6049914Y-16527204D01*
X6049914Y-16527204D02*
X6059438Y-16508156D01*
X6059438Y-16508156D02*
X6068961Y-16498633D01*
X6068961Y-16498633D02*
X6088009Y-16489109D01*
X6240390Y-16670061D02*
X6249914Y-16679585D01*
X6249914Y-16679585D02*
X6240390Y-16689109D01*
X6240390Y-16689109D02*
X6230866Y-16679585D01*
X6230866Y-16679585D02*
X6240390Y-16670061D01*
X6240390Y-16670061D02*
X6240390Y-16689109D01*
X6373723Y-16489109D02*
X6392771Y-16489109D01*
X6392771Y-16489109D02*
X6411819Y-16498633D01*
X6411819Y-16498633D02*
X6421342Y-16508156D01*
X6421342Y-16508156D02*
X6430866Y-16527204D01*
X6430866Y-16527204D02*
X6440390Y-16565299D01*
X6440390Y-16565299D02*
X6440390Y-16612918D01*
X6440390Y-16612918D02*
X6430866Y-16651013D01*
X6430866Y-16651013D02*
X6421342Y-16670061D01*
X6421342Y-16670061D02*
X6411819Y-16679585D01*
X6411819Y-16679585D02*
X6392771Y-16689109D01*
X6392771Y-16689109D02*
X6373723Y-16689109D01*
X6373723Y-16689109D02*
X6354676Y-16679585D01*
X6354676Y-16679585D02*
X6345152Y-16670061D01*
X6345152Y-16670061D02*
X6335628Y-16651013D01*
X6335628Y-16651013D02*
X6326104Y-16612918D01*
X6326104Y-16612918D02*
X6326104Y-16565299D01*
X6326104Y-16565299D02*
X6335628Y-16527204D01*
X6335628Y-16527204D02*
X6345152Y-16508156D01*
X6345152Y-16508156D02*
X6354676Y-16498633D01*
X6354676Y-16498633D02*
X6373723Y-16489109D01*
X6554676Y-16574823D02*
X6535628Y-16565299D01*
X6535628Y-16565299D02*
X6526104Y-16555775D01*
X6526104Y-16555775D02*
X6516581Y-16536728D01*
X6516581Y-16536728D02*
X6516581Y-16527204D01*
X6516581Y-16527204D02*
X6526104Y-16508156D01*
X6526104Y-16508156D02*
X6535628Y-16498633D01*
X6535628Y-16498633D02*
X6554676Y-16489109D01*
X6554676Y-16489109D02*
X6592771Y-16489109D01*
X6592771Y-16489109D02*
X6611819Y-16498633D01*
X6611819Y-16498633D02*
X6621342Y-16508156D01*
X6621342Y-16508156D02*
X6630866Y-16527204D01*
X6630866Y-16527204D02*
X6630866Y-16536728D01*
X6630866Y-16536728D02*
X6621342Y-16555775D01*
X6621342Y-16555775D02*
X6611819Y-16565299D01*
X6611819Y-16565299D02*
X6592771Y-16574823D01*
X6592771Y-16574823D02*
X6554676Y-16574823D01*
X6554676Y-16574823D02*
X6535628Y-16584347D01*
X6535628Y-16584347D02*
X6526104Y-16593871D01*
X6526104Y-16593871D02*
X6516581Y-16612918D01*
X6516581Y-16612918D02*
X6516581Y-16651013D01*
X6516581Y-16651013D02*
X6526104Y-16670061D01*
X6526104Y-16670061D02*
X6535628Y-16679585D01*
X6535628Y-16679585D02*
X6554676Y-16689109D01*
X6554676Y-16689109D02*
X6592771Y-16689109D01*
X6592771Y-16689109D02*
X6611819Y-16679585D01*
X6611819Y-16679585D02*
X6621342Y-16670061D01*
X6621342Y-16670061D02*
X6630866Y-16651013D01*
X6630866Y-16651013D02*
X6630866Y-16612918D01*
X6630866Y-16612918D02*
X6621342Y-16593871D01*
X6621342Y-16593871D02*
X6611819Y-16584347D01*
X6611819Y-16584347D02*
X6592771Y-16574823D01*
X6802295Y-16489109D02*
X6764200Y-16489109D01*
X6764200Y-16489109D02*
X6745152Y-16498633D01*
X6745152Y-16498633D02*
X6735628Y-16508156D01*
X6735628Y-16508156D02*
X6716581Y-16536728D01*
X6716581Y-16536728D02*
X6707057Y-16574823D01*
X6707057Y-16574823D02*
X6707057Y-16651013D01*
X6707057Y-16651013D02*
X6716581Y-16670061D01*
X6716581Y-16670061D02*
X6726104Y-16679585D01*
X6726104Y-16679585D02*
X6745152Y-16689109D01*
X6745152Y-16689109D02*
X6783247Y-16689109D01*
X6783247Y-16689109D02*
X6802295Y-16679585D01*
X6802295Y-16679585D02*
X6811819Y-16670061D01*
X6811819Y-16670061D02*
X6821342Y-16651013D01*
X6821342Y-16651013D02*
X6821342Y-16603394D01*
X6821342Y-16603394D02*
X6811819Y-16584347D01*
X6811819Y-16584347D02*
X6802295Y-16574823D01*
X6802295Y-16574823D02*
X6783247Y-16565299D01*
X6783247Y-16565299D02*
X6745152Y-16565299D01*
X6745152Y-16565299D02*
X6726104Y-16574823D01*
X6726104Y-16574823D02*
X6716581Y-16584347D01*
X6716581Y-16584347D02*
X6707057Y-16603394D01*
X6992771Y-16489109D02*
X6954676Y-16489109D01*
X6954676Y-16489109D02*
X6935628Y-16498633D01*
X6935628Y-16498633D02*
X6926104Y-16508156D01*
X6926104Y-16508156D02*
X6907057Y-16536728D01*
X6907057Y-16536728D02*
X6897533Y-16574823D01*
X6897533Y-16574823D02*
X6897533Y-16651013D01*
X6897533Y-16651013D02*
X6907057Y-16670061D01*
X6907057Y-16670061D02*
X6916581Y-16679585D01*
X6916581Y-16679585D02*
X6935628Y-16689109D01*
X6935628Y-16689109D02*
X6973723Y-16689109D01*
X6973723Y-16689109D02*
X6992771Y-16679585D01*
X6992771Y-16679585D02*
X7002295Y-16670061D01*
X7002295Y-16670061D02*
X7011819Y-16651013D01*
X7011819Y-16651013D02*
X7011819Y-16603394D01*
X7011819Y-16603394D02*
X7002295Y-16584347D01*
X7002295Y-16584347D02*
X6992771Y-16574823D01*
X6992771Y-16574823D02*
X6973723Y-16565299D01*
X6973723Y-16565299D02*
X6935628Y-16565299D01*
X6935628Y-16565299D02*
X6916581Y-16574823D01*
X6916581Y-16574823D02*
X6907057Y-16584347D01*
X6907057Y-16584347D02*
X6897533Y-16603394D01*
X7088009Y-16489109D02*
X7088009Y-16527204D01*
X7164200Y-16489109D02*
X7164200Y-16527204D01*
X7459438Y-16765299D02*
X7449914Y-16755775D01*
X7449914Y-16755775D02*
X7430866Y-16727204D01*
X7430866Y-16727204D02*
X7421343Y-16708156D01*
X7421343Y-16708156D02*
X7411819Y-16679585D01*
X7411819Y-16679585D02*
X7402295Y-16631966D01*
X7402295Y-16631966D02*
X7402295Y-16593871D01*
X7402295Y-16593871D02*
X7411819Y-16546252D01*
X7411819Y-16546252D02*
X7421343Y-16517680D01*
X7421343Y-16517680D02*
X7430866Y-16498633D01*
X7430866Y-16498633D02*
X7449914Y-16470061D01*
X7449914Y-16470061D02*
X7459438Y-16460537D01*
X7640390Y-16689109D02*
X7526104Y-16689109D01*
X7583247Y-16689109D02*
X7583247Y-16489109D01*
X7583247Y-16489109D02*
X7564200Y-16517680D01*
X7564200Y-16517680D02*
X7545152Y-16536728D01*
X7545152Y-16536728D02*
X7526104Y-16546252D01*
X7764200Y-16489109D02*
X7783247Y-16489109D01*
X7783247Y-16489109D02*
X7802295Y-16498633D01*
X7802295Y-16498633D02*
X7811819Y-16508156D01*
X7811819Y-16508156D02*
X7821343Y-16527204D01*
X7821343Y-16527204D02*
X7830866Y-16565299D01*
X7830866Y-16565299D02*
X7830866Y-16612918D01*
X7830866Y-16612918D02*
X7821343Y-16651013D01*
X7821343Y-16651013D02*
X7811819Y-16670061D01*
X7811819Y-16670061D02*
X7802295Y-16679585D01*
X7802295Y-16679585D02*
X7783247Y-16689109D01*
X7783247Y-16689109D02*
X7764200Y-16689109D01*
X7764200Y-16689109D02*
X7745152Y-16679585D01*
X7745152Y-16679585D02*
X7735628Y-16670061D01*
X7735628Y-16670061D02*
X7726104Y-16651013D01*
X7726104Y-16651013D02*
X7716581Y-16612918D01*
X7716581Y-16612918D02*
X7716581Y-16565299D01*
X7716581Y-16565299D02*
X7726104Y-16527204D01*
X7726104Y-16527204D02*
X7735628Y-16508156D01*
X7735628Y-16508156D02*
X7745152Y-16498633D01*
X7745152Y-16498633D02*
X7764200Y-16489109D01*
X8068962Y-16689109D02*
X8068962Y-16489109D01*
X8154676Y-16689109D02*
X8154676Y-16584347D01*
X8154676Y-16584347D02*
X8145152Y-16565299D01*
X8145152Y-16565299D02*
X8126105Y-16555775D01*
X8126105Y-16555775D02*
X8097533Y-16555775D01*
X8097533Y-16555775D02*
X8078485Y-16565299D01*
X8078485Y-16565299D02*
X8068962Y-16574823D01*
X8278485Y-16689109D02*
X8259438Y-16679585D01*
X8259438Y-16679585D02*
X8249914Y-16670061D01*
X8249914Y-16670061D02*
X8240390Y-16651013D01*
X8240390Y-16651013D02*
X8240390Y-16593871D01*
X8240390Y-16593871D02*
X8249914Y-16574823D01*
X8249914Y-16574823D02*
X8259438Y-16565299D01*
X8259438Y-16565299D02*
X8278485Y-16555775D01*
X8278485Y-16555775D02*
X8307057Y-16555775D01*
X8307057Y-16555775D02*
X8326105Y-16565299D01*
X8326105Y-16565299D02*
X8335628Y-16574823D01*
X8335628Y-16574823D02*
X8345152Y-16593871D01*
X8345152Y-16593871D02*
X8345152Y-16651013D01*
X8345152Y-16651013D02*
X8335628Y-16670061D01*
X8335628Y-16670061D02*
X8326105Y-16679585D01*
X8326105Y-16679585D02*
X8307057Y-16689109D01*
X8307057Y-16689109D02*
X8278485Y-16689109D01*
X8459438Y-16689109D02*
X8440390Y-16679585D01*
X8440390Y-16679585D02*
X8430867Y-16660537D01*
X8430867Y-16660537D02*
X8430867Y-16489109D01*
X8611819Y-16679585D02*
X8592771Y-16689109D01*
X8592771Y-16689109D02*
X8554676Y-16689109D01*
X8554676Y-16689109D02*
X8535628Y-16679585D01*
X8535628Y-16679585D02*
X8526105Y-16660537D01*
X8526105Y-16660537D02*
X8526105Y-16584347D01*
X8526105Y-16584347D02*
X8535628Y-16565299D01*
X8535628Y-16565299D02*
X8554676Y-16555775D01*
X8554676Y-16555775D02*
X8592771Y-16555775D01*
X8592771Y-16555775D02*
X8611819Y-16565299D01*
X8611819Y-16565299D02*
X8621343Y-16584347D01*
X8621343Y-16584347D02*
X8621343Y-16603394D01*
X8621343Y-16603394D02*
X8526105Y-16622442D01*
X8697533Y-16679585D02*
X8716581Y-16689109D01*
X8716581Y-16689109D02*
X8754676Y-16689109D01*
X8754676Y-16689109D02*
X8773724Y-16679585D01*
X8773724Y-16679585D02*
X8783248Y-16660537D01*
X8783248Y-16660537D02*
X8783248Y-16651013D01*
X8783248Y-16651013D02*
X8773724Y-16631966D01*
X8773724Y-16631966D02*
X8754676Y-16622442D01*
X8754676Y-16622442D02*
X8726105Y-16622442D01*
X8726105Y-16622442D02*
X8707057Y-16612918D01*
X8707057Y-16612918D02*
X8697533Y-16593871D01*
X8697533Y-16593871D02*
X8697533Y-16584347D01*
X8697533Y-16584347D02*
X8707057Y-16565299D01*
X8707057Y-16565299D02*
X8726105Y-16555775D01*
X8726105Y-16555775D02*
X8754676Y-16555775D01*
X8754676Y-16555775D02*
X8773724Y-16565299D01*
X8849914Y-16765299D02*
X8859438Y-16755775D01*
X8859438Y-16755775D02*
X8878486Y-16727204D01*
X8878486Y-16727204D02*
X8888009Y-16708156D01*
X8888009Y-16708156D02*
X8897533Y-16679585D01*
X8897533Y-16679585D02*
X8907057Y-16631966D01*
X8907057Y-16631966D02*
X8907057Y-16593871D01*
X8907057Y-16593871D02*
X8897533Y-16546252D01*
X8897533Y-16546252D02*
X8888009Y-16517680D01*
X8888009Y-16517680D02*
X8878486Y-16498633D01*
X8878486Y-16498633D02*
X8859438Y-16470061D01*
X8859438Y-16470061D02*
X8849914Y-16460537D01*
M02*
