0
SECTION
2
HEADER
9
$INSUNITS
70
4
9
$ACADVER
1
AC1014
9
$HANDSEED
5
FFFF
0
ENDSEC
0
SECTION
2
TABLES
0
TABLE
2
VPORT
5
8
100
AcDbSymbolTable
0
ENDTAB
0
TABLE
2
LTYPE
5
5
100
AcDbSymbolTable
0
LTYPE
5
14
100
AcDbSymbolTableRecord
100
AcDbLinetypeTableRecord
2
BYBLOCK
70
0
0
LTYPE
5
15
100
AcDbSymbolTableRecord
100
AcDbLinetypeTableRecord
2
BYLAYER
70
0
0
ENDTAB
0
TABLE
2
LAYER
5
2
100
AcDbSymbolTable
70
2
0
LAYER
5
50
100
AcDbSymbolTableRecord
100
AcDbLayerTableRecord
2
0
70
0
6
CONTINUOUS
0
ENDTAB
0
TABLE
2
STYLE
5
3
100
AcDbSymbolTable
70
1
0
STYLE
5
11
100
AcDbSymbolTableRecord
100
AcDbTextStyleTableRecord
2
STANDARD
70
0
0
ENDTAB
0
TABLE
2
VIEW
5
6
100
AcDbSymbolTable
70
0
0
ENDTAB
0
TABLE
2
UCS
5
7
100
AcDbSymbolTable
70
0
0
ENDTAB
0
TABLE
2
APPID
5
9
100
AcDbSymbolTable
70
2
0
APPID
5
12
100
AcDbSymbolTableRecord
100
AcDbRegAppTableRecord
2
ACAD
70
0
0
ENDTAB
0
TABLE
2
DIMSTYLE
5
A
100
AcDbSymbolTable
70
1
0
ENDTAB
0
TABLE
2
BLOCK_RECORD
5
1
100
AcDbSymbolTable
70
1
0
BLOCK_RECORD
5
1F
100
AcDbSymbolTableRecord
100
AcDbBlockTableRecord
2
*MODEL_SPACE
0
BLOCK_RECORD
5
1B
100
AcDbSymbolTableRecord
100
AcDbBlockTableRecord
2
*PAPER_SPACE
0
ENDTAB
0
ENDSEC
0
SECTION
2
BLOCKS
0
BLOCK
5
20
100
AcDbEntity
100
AcDbBlockBegin
2
*MODEL_SPACE
0
ENDBLK
5
21
100
AcDbEntity
100
AcDbBlockEnd
0
BLOCK
5
1C
100
AcDbEntity
100
AcDbBlockBegin
2
*PAPER_SPACE
0
ENDBLK
5
1D
100
AcDbEntity
100
AcDbBlockEnd
0
ENDSEC
0
SECTION
2
ENTITIES
0
CIRCLE
5
100
100
AcDbEntity
8
0
100
AcDbCircle
10
35.09375
20
-155.18125000000003
30
0
40
1.0999999999999899
210
0
220
0
230
1
0
CIRCLE
5
101
100
AcDbEntity
8
0
100
AcDbCircle
10
420.85624999999987
20
-35.318749999999966
30
0
40
1.0999999999999943
210
0
220
0
230
1
0
CIRCLE
5
102
100
AcDbEntity
8
0
100
AcDbCircle
10
163.68125000000032
20
-35.318749999999937
30
0
40
1.0999999999999943
210
0
220
0
230
1
0
CIRCLE
5
103
100
AcDbEntity
8
0
100
AcDbCircle
10
163.68124999999995
20
-155.18124999999952
30
0
40
1.1000000000000298
210
0
220
0
230
1
0
CIRCLE
5
104
100
AcDbEntity
8
0
100
AcDbCircle
10
292.26875000000001
20
-155.18125000000018
30
0
40
1.0999999999999943
210
0
220
0
230
1
0
CIRCLE
5
105
100
AcDbEntity
8
0
100
AcDbCircle
10
35.093749999999702
20
-35.318749999999611
30
0
40
1.0999999999999985
210
0
220
0
230
1
0
CIRCLE
5
106
100
AcDbEntity
8
0
100
AcDbCircle
10
292.26874999999995
20
-35.318749999999966
30
0
40
1.0999999999999943
210
0
220
0
230
1
0
CIRCLE
5
107
100
AcDbEntity
8
0
100
AcDbCircle
10
420.85624999999999
20
-155.18124999999989
30
0
40
1.0999999999999943
210
0
220
0
230
1
0
SPLINE
5
108
100
AcDbEntity
8
0
100
AcDbSpline
70
0
71
3
72
16
73
12
74
0
42
0.000000001
43
0.0000000001
44
0.0000000001
40
0
40
0
40
0
40
0
40
0.12854791520353848
40
0.12854791520353848
40
0.2052957714730459
40
0.2052957714730459
40
0.26863574461786988
40
0.26863574461786988
40
0.33541513151293267
40
0.33541513151293267
40
0.47274625637807965
40
0.47274625637807965
40
0.47274625637807965
40
0.47274625637807965
10
421.96250000000009
20
-30.812500000000004
30
0
10
422.3909930506785
20
-30.812500000000004
30
0
10
422.77511932332186
20
-30.812500000000004
30
0
10
423.31724601733561
20
-30.926146996080355
30
0
10
423.50995018702355
20
-30.99524733634242
30
0
10
423.82438793492338
20
-31.2031256515872
30
0
10
423.94347050914945
20
-31.321699360319183
30
0
10
424.13768629628976
20
-31.612969920439387
30
0
10
424.20360784884934
20
-31.77834888187807
30
0
10
424.33750000000009
20
-32.312296178440519
30
0
10
424.33750000000009
20
-32.7246763793135
30
0
10
424.33750000000009
20
-33.187499999999986
30
0
0
LINE
5
109
100
AcDbEntity
8
0
100
AcDbLine
10
421.96250000000009
20
-30.812500000000004
30
0
11
386.49375000000009
21
-30.812500000000004
31
0
0
SPLINE
5
110
100
AcDbEntity
8
0
100
AcDbSpline
70
0
71
3
72
16
73
12
74
0
42
0.000000001
43
0.0000000001
44
0.0000000001
40
0
40
0
40
0
40
0
40
0.041007133691038394
40
0.041007133691038394
40
0.072256548815662389
40
0.072256548815662389
40
0.10100742698871103
40
0.10100742698871103
40
0.12464332949235118
40
0.12464332949235118
40
0.15299284096798002
40
0.15299284096798002
40
0.15299284096798002
40
0.15299284096798002
10
385.36875000000009
20
-31.937500000000007
30
0
10
385.36875000000009
20
-31.800809554363209
30
0
10
385.36875000000009
20
-31.654744462743722
30
0
10
385.45518633244353
20
-31.378725800161931
30
0
10
385.51502333516839
20
-31.270750500625113
30
0
10
385.6747896724209
20
-31.080042520690448
30
0
10
385.77789117317934
20
-30.989227876944689
30
0
10
386.00994200320173
20
-30.868714218170616
30
0
10
386.10911463236323
20
-30.842390272794518
30
0
10
386.29959819349102
20
-30.812500000000039
30
0
10
386.39832286117087
20
-30.812500000000039
30
0
10
386.49375000000009
20
-30.812500000000039
30
0
0
LINE
5
111
100
AcDbEntity
8
0
100
AcDbLine
10
385.36875000000009
20
-31.937500000000007
30
0
11
385.36875000000009
21
-39.024999999999899
31
0
0
SPLINE
5
112
100
AcDbEntity
8
0
100
AcDbSpline
70
0
71
3
72
16
73
12
74
0
42
0.000000001
43
0.0000000001
44
0.0000000001
40
0
40
0
40
0
40
0
40
0.04100713369098561
40
0.04100713369098561
40
0.072256548815559485
40
0.072256548815559485
40
0.10100742698849824
40
0.10100742698849824
40
0.12464332949230925
40
0.12464332949230925
40
0.15299284096873764
40
0.15299284096873764
40
0.15299284096873764
40
0.15299284096873764
10
384.24375000000009
20
-40.149999999999871
30
0
10
384.38044044563674
20
-40.149999999999871
30
0
10
384.5265055372563
20
-40.149999999999871
30
0
10
384.80252419983822
20
-40.063563667556366
30
0
10
384.91049949937508
20
-40.003726664831547
30
0
10
385.10120747930932
20
-39.84396032757931
30
0
10
385.19202212305527
20
-39.740858826820883
30
0
10
385.31253578183021
20
-39.508807996796818
30
0
10
385.33885972720589
20
-39.409635367634806
30
0
10
385.36875000000009
20
-39.219151806508982
30
0
10
385.36875000000009
20
-39.120427138829371
30
0
10
385.36875000000009
20
-39.024999999999899
30
0
0
LINE
5
113
100
AcDbEntity
8
0
100
AcDbLine
10
384.24375000000009
20
-40.149999999999871
30
0
11
372.99375000000003
21
-40.149999999999963
31
0
0
SPLINE
5
114
100
AcDbEntity
8
0
100
AcDbSpline
70
0
71
3
72
16
73
12
74
0
42
0.000000001
43
0.0000000001
44
0.0000000001
40
0
40
0
40
0
40
0
40
0.041007133691030137
40
0.041007133691030137
40
0.072256548815645402
40
0.072256548815645402
40
0.10100742698863127
40
0.10100742698863127
40
0.12464332949219677
40
0.12464332949219677
40
0.15299284096775542
40
0.15299284096775542
40
0.15299284096775542
40
0.15299284096775542
10
371.86875000000009
20
-39.024999999999956
30
0
10
371.86875000000009
20
-39.161690445636722
30
0
10
371.86875000000009
20
-39.307755537256227
30
0
10
371.95518633244353
20
-39.583774199838032
30
0
10
372.01502333516834
20
-39.691749499374851
30
0
10
372.17478967242073
20
-39.882457479309352
30
0
10
372.27789117317917
20
-39.973272123055203
30
0
10
372.50994200320179
20
-40.093785781829389
30
0
10
372.60911463236323
20
-40.120109727205474
30
0
10
372.79959819349102
20
-40.149999999999949
30
0
10
372.89832286117087
20
-40.149999999999949
30
0
10
372.99375000000003
20
-40.149999999999949
30
0
0
LINE
5
115
100
AcDbEntity
8
0
100
AcDbLine
10
371.86875000000009
20
-39.024999999999956
30
0
11
371.86875000000009
21
-31.937499999999996
31
0
0
SPLINE
5
116
100
AcDbEntity
8
0
100
AcDbSpline
70
0
71
3
72
16
73
12
74
0
42
0.000000001
43
0.0000000001
44
0.0000000001
40
0
40
0
40
0
40
0
40
0.041007133691010007
40
0.041007133691010007
40
0.072256548815610763
40
0.072256548815610763
40
0.10100742698857913
40
0.10100742698857913
40
0.12464332949241448
40
0.12464332949241448
40
0.15299284096887208
40
0.15299284096887208
40
0.15299284096887208
40
0.15299284096887208
10
370.74375000000009
20
-30.812500000000028
30
0
10
370.88044044563679
20
-30.812500000000028
30
0
10
371.02650553725641
20
-30.812500000000025
30
0
10
371.30252419983827
20
-30.89893633244353
30
0
10
371.41049949937502
20
-30.958773335168367
30
0
10
371.60120747930932
20
-31.118539672420585
30
0
10
371.69202212305527
20
-31.221641173179012
30
0
10
371.81253578183021
20
-31.453692003203081
30
0
10
371.83885972720589
20
-31.55286463236509
30
0
10
371.86875000000009
20
-31.743348193490913
30
0
10
371.86875000000009
20
-31.842072861170525
30
0
10
371.86875000000009
20
-31.937499999999996
30
0
0
LINE
5
117
100
AcDbEntity
8
0
100
AcDbLine
10
370.74375000000009
20
-30.812500000000028
30
0
11
33.987499999999997
21
-30.812500000000004
31
0
0
SPLINE
5
118
100
AcDbEntity
8
0
100
AcDbSpline
70
0
71
3
72
16
73
12
74
0
42
0.000000001
43
0.0000000001
44
0.0000000001
40
0
40
0
40
0
40
0
40
0.12854791520352227
40
0.12854791520352227
40
0.20529577147301423
40
0.20529577147301423
40
0.26863574461779827
40
0.26863574461779827
40
0.33541513151280739
40
0.33541513151280739
40
0.47274625637783885
40
0.47274625637783885
40
0.47274625637783885
40
0.47274625637783885
10
31.61249999999999
20
-33.187499999999986
30
0
10
31.612499999999994
20
-32.759006949321574
30
0
10
31.612499999999994
20
-32.374880676678202
30
0
10
31.726146996080352
20
-31.832753982664435
30
0
10
31.795247336342413
20
-31.6400498129765
30
0
10
32.003125651587155
20
-31.32561206507674
30
0
10
32.121699360319148
20
-31.20652949085062
30
0
10
32.412969920439409
20
-31.012313703710312
30
0
10
32.578348881878128
20
-30.9463921511507
30
0
10
33.112296178440403
20
-30.812500000000004
30
0
10
33.524676379313092
20
-30.812500000000004
30
0
10
33.987499999999997
20
-30.812500000000004
30
0
0
LINE
5
119
100
AcDbEntity
8
0
100
AcDbLine
10
31.61249999999999
20
-33.187499999999986
30
0
11
31.612499999999997
21
-157.3125
31
0
0
SPLINE
5
120
100
AcDbEntity
8
0
100
AcDbSpline
70
0
71
3
72
16
73
12
74
0
42
0.000000001
43
0.0000000001
44
0.0000000001
40
0
40
0
40
0
40
0
40
0.12854791520353381
40
0.12854791520353381
40
0.2052957714730162
40
0.2052957714730162
40
0.26863574461778117
40
0.26863574461778117
40
0.33541513151276714
40
0.33541513151276714
40
0.47274625637773632
40
0.47274625637773632
40
0.47274625637773632
40
0.47274625637773632
10
33.987499999999997
20
-159.6875
30
0
10
33.559006949321549
20
-159.6875
30
0
10
33.1748806766782
20
-159.6875
30
0
10
32.632753982664482
20
-159.57385300391965
30
0
10
32.440049812976504
20
-159.5047526636576
30
0
10
32.125612065076744
20
-159.29687434841287
30
0
10
32.00652949085061
20
-159.17830063968086
30
0
10
31.812313703710299
20
-158.88703007956059
30
0
10
31.74639215115068
20
-158.72165111812188
30
0
10
31.612499999999983
20
-158.18770382155964
30
0
10
31.612499999999983
20
-157.77532362068695
30
0
10
31.612499999999976
20
-157.3125
30
0
0
LINE
5
121
100
AcDbEntity
8
0
100
AcDbLine
10
33.987499999999997
20
-159.6875
30
0
11
421.96250000000009
21
-159.6875
31
0
0
SPLINE
5
122
100
AcDbEntity
8
0
100
AcDbSpline
70
0
71
3
72
16
73
12
74
0
42
0.000000001
43
0.0000000001
44
0.0000000001
40
0
40
0
40
0
40
0
40
0.12854791520348
40
0.12854791520348
40
0.20529577147295253
40
0.20529577147295253
40
0.26863574461773054
40
0.26863574461773054
40
0.33541513151272717
40
0.33541513151272717
40
0.47274625637771356
40
0.47274625637771356
40
0.47274625637771356
40
0.47274625637771356
10
424.33750000000009
20
-157.3125
30
0
10
424.33750000000009
20
-157.7409930506783
30
0
10
424.33750000000009
20
-158.12511932332174
30
0
10
424.22385300391971
20
-158.66724601733557
30
0
10
424.15475266365769
20
-158.85995018702349
30
0
10
423.94687434841285
20
-159.17438793492326
30
0
10
423.82830063968095
20
-159.29347050914939
30
0
10
423.53703007956074
20
-159.4876862962897
30
0
10
423.37165111812197
20
-159.55360784884928
30
0
10
422.83770382155967
20
-159.6875
30
0
10
422.42532362068692
20
-159.6875
30
0
10
421.96250000000009
20
-159.6875
30
0
0
LINE
5
123
100
AcDbEntity
8
0
100
AcDbLine
10
424.33750000000009
20
-157.3125
30
0
11
424.33750000000009
21
-33.187499999999986
31
0
0
CIRCLE
5
124
100
AcDbEntity
8
0
100
AcDbCircle
10
44.112500000000992
20
-147.18750000000003
30
0
40
4.250000000000008
210
0
220
-0
230
1
0
CIRCLE
5
125
100
AcDbEntity
8
0
100
AcDbCircle
10
44.112500000001013
20
-43.312500000000071
30
0
40
4.2499999999999991
210
0
220
-0
230
1
0
CIRCLE
5
126
100
AcDbEntity
8
0
100
AcDbCircle
10
136.04375000000053
20
-43.312500000000028
30
0
40
4.2500000000000027
210
0
220
-0
230
1
0
CIRCLE
5
127
100
AcDbEntity
8
0
100
AcDbCircle
10
136.04375000000056
20
-147.18750000000003
30
0
40
4.2499999999999991
210
0
220
-0
230
1
0
CIRCLE
5
128
100
AcDbEntity
8
0
100
AcDbCircle
10
227.97500000000002
20
-147.18750000000003
30
0
40
4.2499999999999947
210
0
220
-0
230
1
0
CIRCLE
5
129
100
AcDbEntity
8
0
100
AcDbCircle
10
227.97499999999999
20
-43.312500000000043
30
0
40
4.2500000000000018
210
0
220
-0
230
1
0
CIRCLE
5
130
100
AcDbEntity
8
0
100
AcDbCircle
10
319.9062499999996
20
-43.312500000000036
30
0
40
4.2499999999999991
210
0
220
-0
230
1
0
CIRCLE
5
131
100
AcDbEntity
8
0
100
AcDbCircle
10
319.90624999999955
20
-147.18750000000003
30
0
40
4.2500000000000027
210
0
220
-0
230
1
0
CIRCLE
5
132
100
AcDbEntity
8
0
100
AcDbCircle
10
411.83749999999907
20
-147.1875
30
0
40
4.2500000000000053
210
0
220
-0
230
1
0
CIRCLE
5
133
100
AcDbEntity
8
0
100
AcDbCircle
10
411.83749999999907
20
-43.312500000000078
30
0
40
4.2500000000000089
210
0
220
-0
230
1
0
ENDSEC
0
SECTION
2
OBJECTS
0
DICTIONARY
5
C
100
AcDbDictionary
3
ACAD_GROUP
350
D
3
ACAD_MLINESTYLE
350
17
0
DICTIONARY
5
D
100
AcDbDictionary
0
DICTIONARY
5
1A
330
C
100
AcDbDictionary
0
DICTIONARY
5
17
100
AcDbDictionary
0
ENDSEC
0
EOF
