0
SECTION
2
HEADER
9
$INSUNITS
70
4
9
$ACADVER
1
AC1014
9
$HANDSEED
5
FFFF
0
ENDSEC
0
SECTION
2
TABLES
0
TABLE
2
VPORT
5
8
100
AcDbSymbolTable
0
ENDTAB
0
TABLE
2
LTYPE
5
5
100
AcDbSymbolTable
0
LTYPE
5
14
100
AcDbSymbolTableRecord
100
AcDbLinetypeTableRecord
2
BYBLOCK
70
0
0
LTYPE
5
15
100
AcDbSymbolTableRecord
100
AcDbLinetypeTableRecord
2
BYLAYER
70
0
0
ENDTAB
0
TABLE
2
LAYER
5
2
100
AcDbSymbolTable
70
2
0
LAYER
5
50
100
AcDbSymbolTableRecord
100
AcDbLayerTableRecord
2
0
70
0
6
CONTINUOUS
0
ENDTAB
0
TABLE
2
STYLE
5
3
100
AcDbSymbolTable
70
1
0
STYLE
5
11
100
AcDbSymbolTableRecord
100
AcDbTextStyleTableRecord
2
STANDARD
70
0
0
ENDTAB
0
TABLE
2
VIEW
5
6
100
AcDbSymbolTable
70
0
0
ENDTAB
0
TABLE
2
UCS
5
7
100
AcDbSymbolTable
70
0
0
ENDTAB
0
TABLE
2
APPID
5
9
100
AcDbSymbolTable
70
2
0
APPID
5
12
100
AcDbSymbolTableRecord
100
AcDbRegAppTableRecord
2
ACAD
70
0
0
ENDTAB
0
TABLE
2
DIMSTYLE
5
A
100
AcDbSymbolTable
70
1
0
ENDTAB
0
TABLE
2
BLOCK_RECORD
5
1
100
AcDbSymbolTable
70
1
0
BLOCK_RECORD
5
1F
100
AcDbSymbolTableRecord
100
AcDbBlockTableRecord
2
*MODEL_SPACE
0
BLOCK_RECORD
5
1B
100
AcDbSymbolTableRecord
100
AcDbBlockTableRecord
2
*PAPER_SPACE
0
ENDTAB
0
ENDSEC
0
SECTION
2
BLOCKS
0
BLOCK
5
20
100
AcDbEntity
100
AcDbBlockBegin
2
*MODEL_SPACE
0
ENDBLK
5
21
100
AcDbEntity
100
AcDbBlockEnd
0
BLOCK
5
1C
100
AcDbEntity
100
AcDbBlockBegin
2
*PAPER_SPACE
0
ENDBLK
5
1D
100
AcDbEntity
100
AcDbBlockEnd
0
ENDSEC
0
SECTION
2
ENTITIES
0
CIRCLE
5
100
100
AcDbEntity
8
0
100
AcDbCircle
10
133.35000000000002
20
-57.149999999999999
30
0
40
1.0999999999999943
210
0
220
-0
230
1
0
CIRCLE
5
101
100
AcDbEntity
8
0
100
AcDbCircle
10
390.52500000000003
20
-133.35000000000002
30
0
40
1.0999999999999943
210
0
220
-0
230
1
0
CIRCLE
5
102
100
AcDbEntity
8
0
100
AcDbCircle
10
47.625
20
-133.35000000000002
30
0
40
1.1000000000000032
210
0
220
-0
230
1
0
CIRCLE
5
103
100
AcDbEntity
8
0
100
AcDbCircle
10
304.80000000000007
20
-133.35000000000002
30
0
40
1.0999999999999943
210
0
220
-0
230
1
0
CIRCLE
5
104
100
AcDbEntity
8
0
100
AcDbCircle
10
304.80000000000007
20
-57.149999999999999
30
0
40
1.0999999999999943
210
0
220
-0
230
1
0
CIRCLE
5
105
100
AcDbEntity
8
0
100
AcDbCircle
10
390.52500000000003
20
-57.149999999999999
30
0
40
1.0999999999999943
210
0
220
-0
230
1
0
CIRCLE
5
106
100
AcDbEntity
8
0
100
AcDbCircle
10
133.35000000000002
20
-133.35000000000002
30
0
40
1.0999999999999943
210
0
220
-0
230
1
0
CIRCLE
5
107
100
AcDbEntity
8
0
100
AcDbCircle
10
219.07499999999999
20
-133.35000000000002
30
0
40
1.0999999999999943
210
0
220
-0
230
1
0
CIRCLE
5
108
100
AcDbEntity
8
0
100
AcDbCircle
10
219.07499999999999
20
-57.149999999999999
30
0
40
1.0999999999999943
210
0
220
-0
230
1
0
CIRCLE
5
109
100
AcDbEntity
8
0
100
AcDbCircle
10
47.625
20
-57.149999999999999
30
0
40
1.1000000000000032
210
0
220
-0
230
1
0
CIRCLE
5
110
100
AcDbEntity
8
0
100
AcDbCircle
10
35.09375
20
-155.18125000000003
30
0
40
1.0999999999999899
210
0
220
0
230
1
0
CIRCLE
5
111
100
AcDbEntity
8
0
100
AcDbCircle
10
420.85624999999987
20
-35.318749999999966
30
0
40
1.0999999999999943
210
0
220
0
230
1
0
CIRCLE
5
112
100
AcDbEntity
8
0
100
AcDbCircle
10
163.68125000000032
20
-35.318749999999937
30
0
40
1.0999999999999943
210
0
220
0
230
1
0
CIRCLE
5
113
100
AcDbEntity
8
0
100
AcDbCircle
10
163.68124999999995
20
-155.18124999999952
30
0
40
1.1000000000000298
210
0
220
0
230
1
0
CIRCLE
5
114
100
AcDbEntity
8
0
100
AcDbCircle
10
292.26875000000001
20
-155.18125000000018
30
0
40
1.0999999999999943
210
0
220
0
230
1
0
CIRCLE
5
115
100
AcDbEntity
8
0
100
AcDbCircle
10
35.093749999999702
20
-35.318749999999611
30
0
40
1.0999999999999985
210
0
220
0
230
1
0
CIRCLE
5
116
100
AcDbEntity
8
0
100
AcDbCircle
10
292.26874999999995
20
-35.318749999999966
30
0
40
1.0999999999999943
210
0
220
0
230
1
0
CIRCLE
5
117
100
AcDbEntity
8
0
100
AcDbCircle
10
420.85624999999999
20
-155.18124999999989
30
0
40
1.0999999999999943
210
0
220
0
230
1
0
SPLINE
5
118
100
AcDbEntity
8
0
100
AcDbSpline
70
0
71
3
72
16
73
12
74
0
42
0.000000001
43
0.0000000001
44
0.0000000001
40
0
40
0
40
0
40
0
40
0.12854791520353825
40
0.12854791520353825
40
0.20529577147303602
40
0.20529577147303602
40
0.268635744617856
40
0.268635744617856
40
0.33541513151291741
40
0.33541513151291741
40
0.47274625637806134
40
0.47274625637806134
40
0.47274625637806134
40
0.47274625637806134
10
421.96250000000009
20
-30.812500000000004
30
0
10
422.3909930506785
20
-30.812500000000004
30
0
10
422.77511932332186
20
-30.812500000000004
30
0
10
423.31724601733561
20
-30.926146996080352
30
0
10
423.50995018702355
20
-30.995247336342409
30
0
10
423.82438793492338
20
-31.203125651587204
30
0
10
423.94347050914945
20
-31.321699360319187
30
0
10
424.13768629628976
20
-31.612969920439387
30
0
10
424.20360784884934
20
-31.77834888187807
30
0
10
424.33750000000009
20
-32.312296178440519
30
0
10
424.33750000000009
20
-32.7246763793135
30
0
10
424.33750000000009
20
-33.187499999999986
30
0
0
LINE
5
119
100
AcDbEntity
8
0
100
AcDbLine
10
421.96250000000009
20
-30.812500000000004
30
0
11
33.987499999999997
21
-30.812500000000004
31
0
0
SPLINE
5
120
100
AcDbEntity
8
0
100
AcDbSpline
70
0
71
3
72
16
73
12
74
0
42
0.000000001
43
0.0000000001
44
0.0000000001
40
0
40
0
40
0
40
0
40
0.12854791520352246
40
0.12854791520352246
40
0.20529577147301134
40
0.20529577147301134
40
0.26863574461779161
40
0.26863574461779161
40
0.33541513151279839
40
0.33541513151279839
40
0.47274625637783274
40
0.47274625637783274
40
0.47274625637783274
40
0.47274625637783274
10
31.612499999999986
20
-33.187499999999986
30
0
10
31.61249999999999
20
-32.759006949321581
30
0
10
31.61249999999999
20
-32.37488067667821
30
0
10
31.726146996080349
20
-31.83275398266445
30
0
10
31.795247336342406
20
-31.640049812976507
30
0
10
32.003125651587155
20
-31.32561206507674
30
0
10
32.121699360319141
20
-31.20652949085062
30
0
10
32.412969920439409
20
-31.012313703710305
30
0
10
32.578348881878142
20
-30.946392151150697
30
0
10
33.112296178440403
20
-30.812500000000004
30
0
10
33.524676379313092
20
-30.812500000000004
30
0
10
33.987499999999997
20
-30.812500000000004
30
0
0
LINE
5
121
100
AcDbEntity
8
0
100
AcDbLine
10
31.612499999999986
20
-33.187499999999986
30
0
11
31.612499999999997
21
-157.3125
31
0
0
SPLINE
5
122
100
AcDbEntity
8
0
100
AcDbSpline
70
0
71
3
72
16
73
12
74
0
42
0.000000001
43
0.0000000001
44
0.0000000001
40
0
40
0
40
0
40
0
40
0.12854791520353381
40
0.12854791520353381
40
0.2052957714730162
40
0.2052957714730162
40
0.26863574461778117
40
0.26863574461778117
40
0.33541513151276714
40
0.33541513151276714
40
0.47274625637773632
40
0.47274625637773632
40
0.47274625637773632
40
0.47274625637773632
10
33.987499999999997
20
-159.6875
30
0
10
33.559006949321549
20
-159.6875
30
0
10
33.1748806766782
20
-159.6875
30
0
10
32.632753982664482
20
-159.57385300391965
30
0
10
32.440049812976504
20
-159.5047526636576
30
0
10
32.125612065076744
20
-159.29687434841287
30
0
10
32.00652949085061
20
-159.17830063968086
30
0
10
31.812313703710299
20
-158.88703007956059
30
0
10
31.74639215115068
20
-158.72165111812188
30
0
10
31.612499999999983
20
-158.18770382155964
30
0
10
31.612499999999983
20
-157.77532362068695
30
0
10
31.612499999999976
20
-157.3125
30
0
0
LINE
5
123
100
AcDbEntity
8
0
100
AcDbLine
10
33.987499999999997
20
-159.6875
30
0
11
421.96250000000009
21
-159.6875
31
0
0
SPLINE
5
124
100
AcDbEntity
8
0
100
AcDbSpline
70
0
71
3
72
16
73
12
74
0
42
0.000000001
43
0.0000000001
44
0.0000000001
40
0
40
0
40
0
40
0
40
0.12854791520348
40
0.12854791520348
40
0.20529577147295253
40
0.20529577147295253
40
0.26863574461773054
40
0.26863574461773054
40
0.33541513151272717
40
0.33541513151272717
40
0.47274625637771356
40
0.47274625637771356
40
0.47274625637771356
40
0.47274625637771356
10
424.33750000000009
20
-157.3125
30
0
10
424.33750000000009
20
-157.7409930506783
30
0
10
424.33750000000009
20
-158.12511932332174
30
0
10
424.22385300391971
20
-158.66724601733557
30
0
10
424.15475266365769
20
-158.85995018702349
30
0
10
423.94687434841285
20
-159.17438793492326
30
0
10
423.82830063968095
20
-159.29347050914939
30
0
10
423.53703007956074
20
-159.4876862962897
30
0
10
423.37165111812197
20
-159.55360784884928
30
0
10
422.83770382155967
20
-159.6875
30
0
10
422.42532362068692
20
-159.6875
30
0
10
421.96250000000009
20
-159.6875
30
0
0
LINE
5
125
100
AcDbEntity
8
0
100
AcDbLine
10
424.33750000000009
20
-157.3125
30
0
11
424.33750000000009
21
-33.187499999999986
31
0
0
LWPOLYLINE
5
126
100
AcDbEntity
8
0
100
AcDbPolyline
90
8
70
1
43
0.0
10
373.71250000000003
20
-98.275000000000077
10
373.71250000000003
20
-111.27500000000009
42
-0.41421356237307422
10
373.21250000000009
20
-111.77500000000006
10
360.21249999999998
20
-111.77500000000002
42
-0.41421356237309503
10
359.71249999999998
20
-111.27500000000005
10
359.71249999999998
20
-98.275000000000077
42
-0.41421356237309503
10
360.21249999999998
20
-97.775000000000063
10
373.21250000000009
20
-97.775000000000105
42
-0.41421356237309503
0
LWPOLYLINE
5
127
100
AcDbEntity
8
0
100
AcDbPolyline
90
8
70
1
43
0.0
10
255.4375
20
-97.775000000000063
42
0.41421356237309503
10
254.9375
20
-98.275000000000077
10
254.93750000000003
20
-111.27500000000005
42
0.41421356237309503
10
255.4375
20
-111.77500000000002
10
268.43750000000006
20
-111.77500000000006
42
0.41421356237307422
10
268.93750000000006
20
-111.27500000000009
10
268.9375
20
-98.275000000000077
42
0.41421356237309503
10
268.43750000000006
20
-97.775000000000063
0
LWPOLYLINE
5
128
100
AcDbEntity
8
0
100
AcDbPolyline
90
8
70
1
43
0.0
10
116.53749999999999
20
-98.275000000000077
10
116.53749999999999
20
-111.27500000000009
42
-0.41421356237307422
10
116.03749999999998
20
-111.77500000000006
10
103.03749999999997
20
-111.77500000000006
42
-0.41421356237309503
10
102.53749999999997
20
-111.27500000000005
10
102.53749999999997
20
-98.275000000000077
42
-0.41421356237309503
10
103.03749999999997
20
-97.775000000000063
10
116.03749999999998
20
-97.775000000000063
42
-0.41421356237309503
0
LWPOLYLINE
5
129
100
AcDbEntity
8
0
100
AcDbPolyline
90
8
70
1
43
0.0
10
287.98750000000001
20
-98.275000000000077
10
287.98749999999995
20
-111.27500000000009
42
-0.41421356237307422
10
287.48749999999995
20
-111.77500000000006
10
274.48750000000001
20
-111.77500000000009
42
-0.41421356237307422
10
273.98749999999995
20
-111.27500000000009
10
273.98750000000001
20
-98.275000000000077
42
-0.41421356237309503
10
274.48750000000001
20
-97.775000000000063
10
287.48749999999995
20
-97.775000000000034
42
-0.41421356237309503
0
LWPOLYLINE
5
130
100
AcDbEntity
8
0
100
AcDbPolyline
90
8
70
1
43
0.0
10
169.71250000000001
20
-97.775000000000063
10
182.71249999999998
20
-97.775000000000063
42
-0.41421356237309503
10
183.21249999999998
20
-98.275000000000077
10
183.21249999999998
20
-111.27500000000005
42
-0.41421356237309503
10
182.71249999999998
20
-111.77500000000006
10
169.71250000000001
20
-111.77500000000006
42
-0.41421356237307422
10
169.21250000000001
20
-111.27500000000009
10
169.21250000000001
20
-98.275000000000077
42
-0.41421356237309503
0
LWPOLYLINE
5
131
100
AcDbEntity
8
0
100
AcDbPolyline
90
8
70
1
43
0.0
10
231.62499999999997
20
-97.775000000000063
10
244.62499999999994
20
-97.775000000000105
42
-0.41421356237313667
10
245.125
20
-98.275000000000077
10
245.12500000000003
20
-111.27500000000005
42
-0.41421356237309503
10
244.62500000000003
20
-111.77500000000006
10
231.62499999999997
20
-111.77500000000002
42
-0.41421356237307422
10
231.125
20
-111.27500000000009
10
231.12499999999997
20
-98.275000000000077
42
-0.41421356237309503
0
LWPOLYLINE
5
132
100
AcDbEntity
8
0
100
AcDbPolyline
90
8
70
1
43
0.0
10
298.30000000000001
20
-97.775000000000063
42
0.41421356237309503
10
297.80000000000001
20
-98.275000000000077
10
297.80000000000007
20
-111.27500000000005
42
0.41421356237309503
10
298.30000000000001
20
-111.77500000000006
10
311.30000000000001
20
-111.77500000000006
42
0.41421356237307422
10
311.80000000000001
20
-111.27500000000009
10
311.79999999999995
20
-98.275000000000077
42
0.41421356237309503
10
311.30000000000001
20
-97.775000000000063
0
LWPOLYLINE
5
133
100
AcDbEntity
8
0
100
AcDbPolyline
90
8
70
1
43
0.0
10
341.16249999999991
20
-97.775000000000063
10
354.16250000000002
20
-97.775000000000105
42
-0.41421356237309503
10
354.66250000000002
20
-98.275000000000077
10
354.66250000000002
20
-111.27500000000005
42
-0.41421356237309503
10
354.16250000000002
20
-111.77500000000006
10
341.16249999999991
20
-111.77500000000002
42
-0.41421356237307422
10
340.66249999999997
20
-111.27500000000009
10
340.66249999999997
20
-98.275000000000077
42
-0.41421356237309503
0
LWPOLYLINE
5
134
100
AcDbEntity
8
0
100
AcDbPolyline
90
8
70
1
43
0.0
10
330.84999999999991
20
-98.275000000000077
10
330.84999999999991
20
-111.27500000000009
42
-0.41421356237307422
10
330.34999999999997
20
-111.77500000000006
10
317.35000000000002
20
-111.77500000000009
42
-0.41421356237307422
10
316.84999999999997
20
-111.27500000000009
10
316.85000000000002
20
-98.275000000000077
42
-0.41421356237309503
10
317.35000000000002
20
-97.775000000000063
10
330.34999999999997
20
-97.775000000000105
42
-0.41421356237309503
0
LWPOLYLINE
5
135
100
AcDbEntity
8
0
100
AcDbPolyline
90
8
70
1
43
0.0
10
298.30000000000001
20
-135.87500000000006
10
311.30000000000001
20
-135.87500000000009
42
-0.41421356237309503
10
311.79999999999995
20
-136.37500000000006
10
311.79999999999995
20
-149.37500000000006
42
-0.41421356237309503
10
311.30000000000001
20
-149.87500000000006
10
298.30000000000001
20
-149.87500000000011
42
-0.41421356237309503
10
297.79999999999995
20
-149.37500000000006
10
297.80000000000001
20
-136.37500000000006
42
-0.41421356237309503
0
LWPOLYLINE
5
136
100
AcDbEntity
8
0
100
AcDbPolyline
90
8
70
1
43
0.0
10
403.07500000000005
20
-135.87500000000006
10
416.07500000000005
20
-135.87500000000009
42
-0.41421356237309503
10
416.57499999999999
20
-136.37500000000006
10
416.57500000000005
20
-149.37500000000006
42
-0.41421356237309503
10
416.07500000000005
20
-149.87500000000011
10
403.07500000000005
20
-149.87500000000006
42
-0.41421356237309503
10
402.57500000000005
20
-149.37500000000006
10
402.57500000000005
20
-136.37500000000006
42
-0.41421356237309503
0
LWPOLYLINE
5
137
100
AcDbEntity
8
0
100
AcDbPolyline
90
8
70
1
43
0.0
10
384.02500000000003
20
-135.87500000000006
10
397.02499999999998
20
-135.87500000000009
42
-0.41421356237309503
10
397.52499999999998
20
-136.37500000000006
10
397.52500000000003
20
-149.37500000000006
42
-0.41421356237309503
10
397.02499999999998
20
-149.87500000000011
10
384.02500000000003
20
-149.87500000000006
42
-0.41421356237309503
10
383.52500000000009
20
-149.37500000000006
10
383.52500000000009
20
-136.37500000000006
42
-0.41421356237309503
0
LWPOLYLINE
5
138
100
AcDbEntity
8
0
100
AcDbPolyline
90
8
70
1
43
0.0
10
231.62499999999997
20
-135.87500000000006
10
244.62499999999994
20
-135.87500000000009
42
-0.41421356237313667
10
245.125
20
-136.37500000000006
10
245.125
20
-149.37500000000006
42
-0.41421356237309503
10
244.62500000000003
20
-149.87500000000006
10
231.62499999999997
20
-149.87500000000006
42
-0.41421356237309503
10
231.125
20
-149.37500000000006
10
231.12499999999997
20
-136.37500000000006
42
-0.41421356237309503
0
LWPOLYLINE
5
139
100
AcDbEntity
8
0
100
AcDbPolyline
90
8
70
1
43
0.0
10
226.0749999999999
20
-136.37500000000006
10
226.07499999999999
20
-149.37500000000006
42
-0.41421356237309503
10
225.57499999999993
20
-149.87500000000011
10
212.57499999999999
20
-149.87500000000009
42
-0.41421356237309503
10
212.07499999999999
20
-149.37500000000006
10
212.07499999999999
20
-136.37500000000006
42
-0.41421356237309503
10
212.57499999999999
20
-135.87500000000006
10
225.57499999999993
20
-135.87500000000009
42
-0.41421356237309503
0
LWPOLYLINE
5
140
100
AcDbEntity
8
0
100
AcDbPolyline
90
8
70
1
43
0.0
10
274.48750000000001
20
-135.87500000000006
10
287.48749999999995
20
-135.87500000000009
42
-0.41421356237309503
10
287.98749999999995
20
-136.37500000000006
10
287.98749999999995
20
-149.37500000000006
42
-0.41421356237309503
10
287.48749999999995
20
-149.87500000000006
10
274.48750000000001
20
-149.87500000000011
42
-0.41421356237309503
10
273.98749999999995
20
-149.37500000000006
10
273.98750000000001
20
-136.37500000000006
42
-0.41421356237309503
0
LWPOLYLINE
5
141
100
AcDbEntity
8
0
100
AcDbPolyline
90
8
70
1
43
0.0
10
255.4375
20
-135.87500000000006
10
268.43750000000006
20
-135.87500000000009
42
-0.41421356237309503
10
268.9375
20
-136.37500000000006
10
268.9375
20
-149.37500000000006
42
-0.41421356237309503
10
268.43750000000006
20
-149.87500000000006
10
255.4375
20
-149.87500000000006
42
-0.41421356237309503
10
254.93750000000003
20
-149.37500000000006
10
254.9375
20
-136.37500000000006
42
-0.41421356237309503
0
LWPOLYLINE
5
142
100
AcDbEntity
8
0
100
AcDbPolyline
90
8
70
1
43
0.0
10
360.21249999999998
20
-135.87500000000006
10
373.21250000000009
20
-135.87500000000009
42
-0.41421356237309503
10
373.71250000000003
20
-136.37500000000006
10
373.71250000000009
20
-149.37500000000006
42
-0.41421356237309503
10
373.21250000000009
20
-149.87500000000011
10
360.21249999999998
20
-149.87500000000006
42
-0.41421356237309503
10
359.71249999999998
20
-149.37500000000006
10
359.71249999999998
20
-136.37500000000006
42
-0.41421356237309503
0
LWPOLYLINE
5
143
100
AcDbEntity
8
0
100
AcDbPolyline
90
8
70
1
43
0.0
10
317.35000000000002
20
-135.87500000000006
10
330.34999999999997
20
-135.87500000000009
42
-0.41421356237309503
10
330.84999999999991
20
-136.37500000000006
10
330.85000000000002
20
-149.37500000000006
42
-0.41421356237309503
10
330.34999999999997
20
-149.87500000000011
10
317.35000000000002
20
-149.87500000000006
42
-0.41421356237309503
10
316.85000000000008
20
-149.37500000000006
10
316.85000000000002
20
-136.37500000000006
42
-0.41421356237309503
0
LWPOLYLINE
5
144
100
AcDbEntity
8
0
100
AcDbPolyline
90
8
70
1
43
0.0
10
341.16249999999991
20
-135.87500000000006
10
354.16249999999991
20
-135.87500000000009
42
-0.4142135623731783
10
354.66250000000002
20
-136.37500000000006
10
354.66250000000008
20
-149.37500000000006
42
-0.4142135623731783
10
354.16249999999991
20
-149.87500000000011
10
341.16249999999991
20
-149.87500000000006
42
-0.41421356237309503
10
340.66249999999997
20
-149.37500000000006
10
340.66249999999997
20
-136.37500000000006
42
-0.41421356237309503
0
LWPOLYLINE
5
145
100
AcDbEntity
8
0
100
AcDbPolyline
90
8
70
1
43
0.0
10
169.71250000000001
20
-135.87500000000006
10
182.71249999999998
20
-135.87500000000003
42
-0.41421356237309503
10
183.21250000000003
20
-136.37500000000006
10
183.21250000000003
20
-149.37500000000006
42
-0.41421356237309503
10
182.71249999999998
20
-149.87500000000011
10
169.71250000000001
20
-149.87500000000009
42
-0.41421356237309503
10
169.21250000000001
20
-149.37500000000006
10
169.21250000000001
20
-136.37500000000006
42
-0.41421356237309503
0
LWPOLYLINE
5
146
100
AcDbEntity
8
0
100
AcDbPolyline
90
8
70
1
43
0.0
10
54.624999999999986
20
-136.37500000000006
10
54.625000000000021
20
-149.37500000000006
42
-0.4142135623730846
10
54.125
20
-149.87500000000011
10
41.124999999999986
20
-149.87500000000009
42
-0.41421356237309503
10
40.624999999999986
20
-149.37500000000006
10
40.624999999999986
20
-136.37500000000006
42
-0.41421356237309503
10
41.124999999999986
20
-135.87500000000006
10
54.125
20
-135.87500000000006
42
-0.4142135623730846
0
LWPOLYLINE
5
147
100
AcDbEntity
8
0
100
AcDbPolyline
90
8
70
1
43
0.0
10
60.174999999999983
20
-135.87500000000006
10
73.174999999999983
20
-135.87500000000006
42
-0.41421356237309503
10
73.674999999999997
20
-136.37500000000006
10
73.67500000000004
20
-149.37500000000006
42
-0.41421356237309503
10
73.174999999999983
20
-149.87500000000011
10
60.174999999999983
20
-149.87500000000009
42
-0.41421356237309503
10
59.674999999999976
20
-149.37500000000006
10
59.674999999999976
20
-136.37500000000006
42
-0.41421356237309503
0
LWPOLYLINE
5
148
100
AcDbEntity
8
0
100
AcDbPolyline
90
8
70
1
43
0.0
10
145.90000000000001
20
-135.87500000000006
10
158.89999999999998
20
-135.87500000000006
42
-0.41421356237309503
10
159.39999999999998
20
-136.37500000000006
10
159.40000000000001
20
-149.37500000000006
42
-0.41421356237309503
10
158.89999999999998
20
-149.87500000000011
10
145.90000000000001
20
-149.87500000000009
42
-0.41421356237309503
10
145.39999999999998
20
-149.37500000000006
10
145.39999999999998
20
-136.37500000000006
42
-0.41421356237309503
0
LWPOLYLINE
5
149
100
AcDbEntity
8
0
100
AcDbPolyline
90
8
70
1
43
0.0
10
103.03749999999997
20
-135.87500000000006
10
116.03749999999998
20
-135.87500000000006
42
-0.41421356237309503
10
116.53749999999999
20
-136.37500000000006
10
116.53749999999995
20
-149.37500000000006
42
-0.41421356237309503
10
116.03749999999998
20
-149.87500000000006
10
103.03749999999997
20
-149.87500000000009
42
-0.41421356237309503
10
102.53749999999997
20
-149.37500000000006
10
102.53749999999997
20
-136.37500000000006
42
-0.41421356237309503
0
LWPOLYLINE
5
150
100
AcDbEntity
8
0
100
AcDbPolyline
90
8
70
1
43
0.0
10
126.84999999999999
20
-135.87500000000006
10
139.84999999999999
20
-135.87500000000006
42
-0.41421356237309503
10
140.34999999999999
20
-136.37500000000006
10
140.35000000000002
20
-149.37500000000006
42
-0.41421356237309503
10
139.84999999999999
20
-149.87500000000011
10
126.84999999999999
20
-149.87500000000006
42
-0.41421356237309503
10
126.35000000000002
20
-149.37500000000006
10
126.34999999999998
20
-136.37500000000006
42
-0.41421356237309503
0
LWPOLYLINE
5
151
100
AcDbEntity
8
0
100
AcDbPolyline
90
8
70
1
43
0.0
10
188.76249999999999
20
-135.87500000000006
42
0.41421356237309503
10
188.26249999999999
20
-136.37500000000006
10
188.26249999999999
20
-149.37500000000006
42
0.41421356237309503
10
188.76249999999999
20
-149.87500000000006
10
201.76249999999999
20
-149.87500000000006
42
0.41421356237309503
10
202.26249999999996
20
-149.37500000000006
10
202.26249999999999
20
-136.37500000000006
42
0.41421356237309503
10
201.76249999999999
20
-135.87500000000006
0
LWPOLYLINE
5
152
100
AcDbEntity
8
0
100
AcDbPolyline
90
8
70
1
43
0.0
10
83.987499999999997
20
-135.87500000000006
10
96.987500000000011
20
-135.87500000000009
42
-0.41421356237309503
10
97.487499999999983
20
-136.37500000000006
10
97.48750000000004
20
-149.37500000000006
42
-0.41421356237309503
10
96.987500000000011
20
-149.87500000000011
10
83.987499999999997
20
-149.87500000000009
42
-0.41421356237309503
10
83.487499999999983
20
-149.37500000000006
10
83.487499999999983
20
-136.37500000000006
42
-0.41421356237309503
0
LWPOLYLINE
5
153
100
AcDbEntity
8
0
100
AcDbPolyline
90
8
70
1
43
0.0
10
384.02500000000003
20
-116.82500000000005
10
397.02499999999998
20
-116.82500000000007
42
-0.41421356237309503
10
397.52499999999998
20
-117.32500000000005
10
397.52499999999998
20
-130.32500000000005
42
-0.41421356237309503
10
397.02499999999998
20
-130.82500000000007
10
384.02500000000003
20
-130.82500000000005
42
-0.41421356237309503
10
383.52500000000009
20
-130.32500000000005
10
383.52500000000009
20
-117.32500000000005
42
-0.41421356237309503
0
LWPOLYLINE
5
154
100
AcDbEntity
8
0
100
AcDbPolyline
90
8
70
1
43
0.0
10
298.30000000000001
20
-116.82500000000005
10
311.30000000000001
20
-116.82500000000007
42
-0.41421356237309503
10
311.79999999999995
20
-117.32500000000005
10
311.80000000000001
20
-130.32500000000005
42
-0.41421356237309503
10
311.30000000000001
20
-130.82500000000007
10
298.30000000000001
20
-130.82500000000005
42
-0.41421356237309503
10
297.80000000000007
20
-130.32500000000005
10
297.80000000000001
20
-117.32500000000005
42
-0.41421356237309503
0
LWPOLYLINE
5
155
100
AcDbEntity
8
0
100
AcDbPolyline
90
8
70
1
43
0.0
10
360.21249999999998
20
-116.82500000000005
10
373.21250000000009
20
-116.82500000000007
42
-0.41421356237309503
10
373.71250000000003
20
-117.32500000000005
10
373.71250000000003
20
-130.32500000000005
42
-0.41421356237309503
10
373.21250000000009
20
-130.82500000000005
10
360.21249999999998
20
-130.82500000000005
42
-0.41421356237309503
10
359.71249999999998
20
-130.32500000000005
10
359.71249999999998
20
-117.32500000000005
42
-0.41421356237309503
0
LWPOLYLINE
5
156
100
AcDbEntity
8
0
100
AcDbPolyline
90
8
70
1
43
0.0
10
274.48750000000001
20
-116.82500000000005
10
287.48749999999995
20
-116.82500000000007
42
-0.41421356237309503
10
287.98749999999995
20
-117.32500000000005
10
287.98749999999995
20
-130.32500000000005
42
-0.41421356237309503
10
287.48749999999995
20
-130.82500000000007
10
274.48750000000001
20
-130.82500000000005
42
-0.41421356237309503
10
273.98750000000001
20
-130.32500000000005
10
273.98750000000001
20
-117.32500000000005
42
-0.41421356237309503
0
LWPOLYLINE
5
157
100
AcDbEntity
8
0
100
AcDbPolyline
90
8
70
1
43
0.0
10
317.35000000000002
20
-116.82500000000005
10
330.34999999999997
20
-116.82500000000007
42
-0.41421356237309503
10
330.84999999999991
20
-117.32500000000005
10
330.84999999999991
20
-130.32500000000005
42
-0.41421356237309503
10
330.34999999999997
20
-130.82500000000005
10
317.35000000000002
20
-130.82500000000005
42
-0.41421356237309503
10
316.85000000000008
20
-130.32500000000005
10
316.85000000000002
20
-117.32500000000005
42
-0.41421356237309503
0
LWPOLYLINE
5
158
100
AcDbEntity
8
0
100
AcDbPolyline
90
8
70
1
43
0.0
10
255.4375
20
-116.82500000000005
10
268.43750000000006
20
-116.82500000000007
42
-0.41421356237309503
10
268.9375
20
-117.32500000000005
10
268.9375
20
-130.32500000000005
42
-0.41421356237309503
10
268.43750000000006
20
-130.82500000000005
10
255.4375
20
-130.82500000000005
42
-0.41421356237309503
10
254.93750000000003
20
-130.32500000000005
10
254.9375
20
-117.32500000000005
42
-0.41421356237309503
0
LWPOLYLINE
5
159
100
AcDbEntity
8
0
100
AcDbPolyline
90
8
70
1
43
0.0
10
341.16249999999991
20
-116.82500000000005
10
354.16249999999991
20
-116.82500000000007
42
-0.4142135623731783
10
354.66250000000002
20
-117.32500000000005
10
354.66250000000002
20
-130.32500000000005
42
-0.41421356237309503
10
354.16250000000002
20
-130.82500000000007
10
341.16249999999991
20
-130.82500000000005
42
-0.41421356237309503
10
340.66249999999997
20
-130.32500000000005
10
340.66249999999997
20
-117.32500000000005
42
-0.41421356237309503
0
LWPOLYLINE
5
160
100
AcDbEntity
8
0
100
AcDbPolyline
90
8
70
1
43
0.0
10
403.07500000000005
20
-116.82500000000005
10
416.07500000000005
20
-116.82500000000007
42
-0.41421356237309503
10
416.57499999999999
20
-117.32500000000005
10
416.57499999999999
20
-130.32500000000005
42
-0.41421356237309503
10
416.07500000000005
20
-130.82500000000007
10
403.07500000000005
20
-130.82500000000005
42
-0.41421356237309503
10
402.57500000000005
20
-130.32500000000005
10
402.57500000000005
20
-117.32500000000005
42
-0.41421356237309503
0
LWPOLYLINE
5
161
100
AcDbEntity
8
0
100
AcDbPolyline
90
8
70
1
43
0.0
10
231.62499999999997
20
-116.82500000000005
10
244.62499999999994
20
-116.82500000000007
42
-0.41421356237313667
10
245.125
20
-117.32500000000005
10
245.12500000000003
20
-130.32500000000005
42
-0.41421356237309503
10
244.62500000000003
20
-130.82500000000007
10
231.62499999999997
20
-130.82500000000005
42
-0.41421356237309503
10
231.125
20
-130.32500000000005
10
231.12499999999997
20
-117.32500000000005
42
-0.41421356237309503
0
LWPOLYLINE
5
162
100
AcDbEntity
8
0
100
AcDbPolyline
90
8
70
1
43
0.0
10
159.40000000000001
20
-117.32500000000005
10
159.39999999999998
20
-130.32500000000005
42
-0.41421356237309503
10
158.89999999999998
20
-130.82500000000007
10
145.90000000000001
20
-130.82500000000007
42
-0.41421356237309503
10
145.39999999999998
20
-130.32500000000005
10
145.39999999999998
20
-117.32500000000005
42
-0.41421356237309503
10
145.90000000000001
20
-116.82500000000005
10
158.89999999999998
20
-116.82500000000002
42
-0.41421356237309503
0
LWPOLYLINE
5
163
100
AcDbEntity
8
0
100
AcDbPolyline
90
8
70
1
43
0.0
10
103.03749999999997
20
-116.82500000000005
10
116.03749999999998
20
-116.82500000000005
42
-0.41421356237309503
10
116.53749999999999
20
-117.32500000000005
10
116.53749999999995
20
-130.32500000000005
42
-0.41421356237309503
10
116.03749999999998
20
-130.82500000000005
10
103.03749999999997
20
-130.82500000000005
42
-0.41421356237309503
10
102.53749999999999
20
-130.32500000000005
10
102.53749999999997
20
-117.32500000000005
42
-0.41421356237309503
0
LWPOLYLINE
5
164
100
AcDbEntity
8
0
100
AcDbPolyline
90
8
70
1
43
0.0
10
183.21250000000003
20
-117.32500000000005
10
183.21249999999995
20
-130.32500000000005
42
-0.41421356237309503
10
182.71249999999998
20
-130.82500000000005
10
169.71250000000001
20
-130.82500000000007
42
-0.41421356237309503
10
169.21250000000001
20
-130.32500000000005
10
169.21250000000001
20
-117.32500000000005
42
-0.41421356237309503
10
169.71250000000001
20
-116.82500000000005
10
182.71249999999998
20
-116.82500000000002
42
-0.41421356237309503
0
LWPOLYLINE
5
165
100
AcDbEntity
8
0
100
AcDbPolyline
90
8
70
1
43
0.0
10
83.987499999999997
20
-116.82500000000005
10
96.987500000000011
20
-116.82500000000005
42
-0.41421356237309503
10
97.487500000000011
20
-117.32500000000005
10
97.487499999999983
20
-130.32500000000005
42
-0.41421356237309503
10
96.987500000000011
20
-130.82500000000005
10
83.987499999999997
20
-130.82500000000007
42
-0.41421356237309503
10
83.487499999999983
20
-130.32500000000005
10
83.487499999999983
20
-117.32500000000005
42
-0.41421356237309503
0
LWPOLYLINE
5
166
100
AcDbEntity
8
0
100
AcDbPolyline
90
8
70
1
43
0.0
10
126.84999999999999
20
-116.82500000000005
10
139.84999999999999
20
-116.82500000000005
42
-0.41421356237309503
10
140.34999999999999
20
-117.32500000000005
10
140.34999999999999
20
-130.32500000000005
42
-0.41421356237309503
10
139.84999999999999
20
-130.82500000000007
10
126.84999999999999
20
-130.82500000000005
42
-0.41421356237309503
10
126.35000000000002
20
-130.32500000000005
10
126.34999999999998
20
-117.32500000000005
42
-0.41421356237309503
0
LWPOLYLINE
5
167
100
AcDbEntity
8
0
100
AcDbPolyline
90
8
70
1
43
0.0
10
188.76249999999999
20
-116.82500000000005
10
201.76249999999999
20
-116.82500000000005
42
-0.41421356237309503
10
202.26249999999999
20
-117.32500000000005
10
202.26249999999996
20
-130.32500000000005
42
-0.41421356237309503
10
201.76249999999999
20
-130.82500000000005
10
188.76249999999999
20
-130.82500000000007
42
-0.41421356237309503
10
188.26249999999999
20
-130.32500000000005
10
188.26249999999999
20
-117.32500000000005
42
-0.41421356237309503
0
LWPOLYLINE
5
168
100
AcDbEntity
8
0
100
AcDbPolyline
90
8
70
1
43
0.0
10
212.57499999999999
20
-116.82500000000005
10
225.57499999999993
20
-116.82500000000007
42
-0.41421356237309503
10
226.0749999999999
20
-117.32500000000005
10
226.0749999999999
20
-130.32500000000005
42
-0.41421356237309503
10
225.57499999999993
20
-130.82500000000005
10
212.57499999999999
20
-130.82500000000007
42
-0.41421356237309503
10
212.07499999999999
20
-130.32500000000005
10
212.07499999999999
20
-117.32500000000005
42
-0.41421356237309503
0
LWPOLYLINE
5
169
100
AcDbEntity
8
0
100
AcDbPolyline
90
8
70
1
43
0.0
10
54.624999999999986
20
-117.32500000000005
10
54.62499999999995
20
-130.32500000000005
42
-0.4142135623730846
10
54.125
20
-130.82500000000005
10
41.124999999999986
20
-130.82500000000007
42
-0.41421356237309503
10
40.624999999999986
20
-130.32500000000005
10
40.624999999999986
20
-117.32500000000005
42
-0.41421356237309503
10
41.124999999999986
20
-116.82500000000005
10
54.125
20
-116.82500000000005
42
-0.4142135623730846
0
LWPOLYLINE
5
170
100
AcDbEntity
8
0
100
AcDbPolyline
90
8
70
1
43
0.0
10
403.07500000000005
20
-97.775000000000063
10
416.07500000000005
20
-97.775000000000105
42
-0.41421356237309503
10
416.57499999999999
20
-98.275000000000077
10
416.57499999999999
20
-111.27500000000009
42
-0.41421356237307422
10
416.07500000000005
20
-111.77500000000006
10
403.07500000000005
20
-111.77500000000002
42
-0.41421356237307422
10
402.57500000000005
20
-111.27500000000009
10
402.57500000000005
20
-98.275000000000077
42
-0.41421356237309503
0
LWPOLYLINE
5
171
100
AcDbEntity
8
0
100
AcDbPolyline
90
8
70
1
43
0.0
10
384.02500000000003
20
-97.775000000000063
10
397.02499999999998
20
-97.775000000000105
42
-0.41421356237309503
10
397.52499999999998
20
-98.275000000000077
10
397.52499999999998
20
-111.27500000000009
42
-0.41421356237307422
10
397.02499999999998
20
-111.77500000000006
10
384.02500000000003
20
-111.77500000000002
42
-0.41421356237307422
10
383.52500000000009
20
-111.27500000000009
10
383.52500000000009
20
-98.275000000000077
42
-0.41421356237309503
0
LWPOLYLINE
5
172
100
AcDbEntity
8
0
100
AcDbPolyline
90
8
70
1
43
0.0
10
103.03749999999997
20
-40.625000000000071
10
116.03749999999998
20
-40.625000000000036
42
-0.41421356237309503
10
116.53749999999999
20
-41.125000000000043
10
116.53749999999999
20
-54.12500000000005
42
-0.41421356237309503
10
116.03749999999998
20
-54.625000000000057
10
103.03749999999997
20
-54.625000000000021
42
-0.41421356237309503
10
102.53749999999999
20
-54.12500000000005
10
102.53749999999999
20
-41.125000000000043
42
-0.41421356237309503
0
LWPOLYLINE
5
173
100
AcDbEntity
8
0
100
AcDbPolyline
90
8
70
1
43
0.0
10
126.84999999999999
20
-40.625000000000071
10
139.84999999999999
20
-40.625000000000036
42
-0.41421356237309503
10
140.34999999999999
20
-41.125000000000043
10
140.34999999999999
20
-54.12500000000005
42
-0.41421356237309503
10
139.84999999999999
20
-54.625000000000057
10
126.84999999999999
20
-54.625000000000057
42
-0.41421356237309503
10
126.34999999999998
20
-54.12500000000005
10
126.35000000000002
20
-41.125000000000043
42
-0.41421356237309503
0
LWPOLYLINE
5
174
100
AcDbEntity
8
0
100
AcDbPolyline
90
8
70
1
43
0.0
10
60.174999999999983
20
-116.82500000000005
42
0.41421356237309503
10
59.674999999999976
20
-117.32500000000005
10
59.674999999999976
20
-130.32500000000005
42
0.41421356237309503
10
60.174999999999983
20
-130.82500000000007
10
73.174999999999983
20
-130.82500000000007
42
0.41421356237309503
10
73.674999999999997
20
-130.32500000000005
10
73.674999999999997
20
-117.32500000000005
42
0.41421356237309503
10
73.174999999999983
20
-116.82500000000005
0
LWPOLYLINE
5
175
100
AcDbEntity
8
0
100
AcDbPolyline
90
8
70
1
43
0.0
10
188.76249999999999
20
-97.775000000000063
10
201.76249999999999
20
-97.775000000000063
42
-0.41421356237309503
10
202.26249999999999
20
-98.275000000000077
10
202.26249999999999
20
-111.27500000000009
42
-0.41421356237307422
10
201.76249999999999
20
-111.77500000000006
10
188.76249999999999
20
-111.77500000000006
42
-0.41421356237307422
10
188.26249999999999
20
-111.27500000000009
10
188.26249999999999
20
-98.275000000000077
42
-0.41421356237309503
0
LWPOLYLINE
5
176
100
AcDbEntity
8
0
100
AcDbPolyline
90
8
70
1
43
0.0
10
403.07500000000005
20
-78.725000000000051
10
416.07500000000005
20
-78.725000000000094
42
-0.41421356237309503
10
416.57499999999999
20
-79.225000000000065
10
416.57499999999999
20
-92.22500000000008
42
-0.41421356237309503
10
416.07500000000005
20
-92.72500000000008
10
403.07500000000005
20
-92.725000000000051
42
-0.41421356237309503
10
402.57500000000005
20
-92.22500000000008
10
402.57500000000005
20
-79.225000000000065
42
-0.41421356237309503
0
LWPOLYLINE
5
177
100
AcDbEntity
8
0
100
AcDbPolyline
90
8
70
1
43
0.0
10
145.90000000000001
20
-97.775000000000063
10
158.89999999999998
20
-97.775000000000063
42
-0.41421356237309503
10
159.39999999999998
20
-98.275000000000077
10
159.39999999999998
20
-111.27500000000005
42
-0.41421356237309503
10
158.89999999999998
20
-111.77500000000006
10
145.90000000000001
20
-111.77500000000006
42
-0.41421356237307422
10
145.39999999999998
20
-111.27500000000009
10
145.39999999999998
20
-98.275000000000077
42
-0.41421356237309503
0
LWPOLYLINE
5
178
100
AcDbEntity
8
0
100
AcDbPolyline
90
8
70
1
43
0.0
10
330.84999999999991
20
-79.225000000000065
10
330.84999999999991
20
-92.22500000000008
42
-0.41421356237309503
10
330.34999999999997
20
-92.72500000000008
10
317.35000000000002
20
-92.725000000000051
42
-0.41421356237309503
10
316.85000000000008
20
-92.22500000000008
10
316.85000000000002
20
-79.225000000000065
42
-0.41421356237309503
10
317.35000000000002
20
-78.725000000000051
10
330.34999999999997
20
-78.725000000000094
42
-0.41421356237309503
0
LWPOLYLINE
5
179
100
AcDbEntity
8
0
100
AcDbPolyline
90
8
70
1
43
0.0
10
83.987499999999997
20
-97.775000000000063
10
96.987500000000011
20
-97.775000000000105
42
-0.41421356237309503
10
97.487499999999983
20
-98.275000000000077
10
97.487500000000011
20
-111.27500000000009
42
-0.41421356237307422
10
96.987500000000011
20
-111.77500000000006
10
83.987499999999997
20
-111.77500000000006
42
-0.41421356237307422
10
83.487499999999983
20
-111.27500000000009
10
83.487499999999983
20
-98.275000000000077
42
-0.41421356237309503
0
LWPOLYLINE
5
180
100
AcDbEntity
8
0
100
AcDbPolyline
90
8
70
1
43
0.0
10
298.30000000000001
20
-78.725000000000051
10
311.30000000000001
20
-78.725000000000094
42
-0.41421356237309503
10
311.79999999999995
20
-79.225000000000065
10
311.80000000000001
20
-92.22500000000008
42
-0.41421356237309503
10
311.30000000000001
20
-92.72500000000008
10
298.30000000000001
20
-92.725000000000108
42
-0.41421356237309503
10
297.79999999999995
20
-92.22500000000008
10
297.80000000000001
20
-79.225000000000065
42
-0.41421356237309503
0
LWPOLYLINE
5
181
100
AcDbEntity
8
0
100
AcDbPolyline
90
8
70
1
43
0.0
10
384.02500000000003
20
-78.725000000000051
10
397.02499999999998
20
-78.725000000000094
42
-0.41421356237309503
10
397.52499999999998
20
-79.225000000000065
10
397.52499999999998
20
-92.22500000000008
42
-0.41421356237309503
10
397.02499999999998
20
-92.72500000000008
10
384.02500000000003
20
-92.725000000000051
42
-0.41421356237309503
10
383.52500000000009
20
-92.22500000000008
10
383.52500000000009
20
-79.225000000000065
42
-0.41421356237309503
0
LWPOLYLINE
5
182
100
AcDbEntity
8
0
100
AcDbPolyline
90
8
70
1
43
0.0
10
41.124999999999986
20
-97.775000000000063
10
54.125
20
-97.775000000000063
42
-0.4142135623730846
10
54.624999999999986
20
-98.275000000000077
10
54.624999999999986
20
-111.27500000000009
42
-0.41421356237306384
10
54.125
20
-111.77500000000006
10
41.124999999999986
20
-111.77500000000006
42
-0.41421356237307422
10
40.624999999999986
20
-111.27500000000009
10
40.624999999999986
20
-98.275000000000077
42
-0.41421356237309503
0
LWPOLYLINE
5
183
100
AcDbEntity
8
0
100
AcDbPolyline
90
8
70
1
43
0.0
10
274.48750000000001
20
-78.725000000000051
10
287.48749999999995
20
-78.725000000000023
42
-0.41421356237309503
10
287.98750000000001
20
-79.225000000000065
10
287.98749999999995
20
-92.22500000000008
42
-0.41421356237309503
10
287.48749999999995
20
-92.72500000000008
10
274.48750000000001
20
-92.725000000000108
42
-0.41421356237309503
10
273.98749999999995
20
-92.22500000000008
10
273.98750000000001
20
-79.225000000000065
42
-0.41421356237309503
0
LWPOLYLINE
5
184
100
AcDbEntity
8
0
100
AcDbPolyline
90
8
70
1
43
0.0
10
373.71250000000003
20
-79.225000000000065
10
373.71250000000003
20
-92.22500000000008
42
-0.41421356237309503
10
373.21250000000009
20
-92.72500000000008
10
360.21249999999998
20
-92.725000000000051
42
-0.41421356237309503
10
359.71249999999998
20
-92.22500000000008
10
359.71249999999998
20
-79.225000000000065
42
-0.41421356237309503
10
360.21249999999998
20
-78.725000000000051
10
373.21250000000009
20
-78.725000000000094
42
-0.41421356237309503
0
LWPOLYLINE
5
185
100
AcDbEntity
8
0
100
AcDbPolyline
90
8
70
1
43
0.0
10
341.16249999999991
20
-78.725000000000051
10
354.16249999999991
20
-78.725000000000094
42
-0.4142135623731783
10
354.66250000000002
20
-79.225000000000065
10
354.66250000000002
20
-92.22500000000008
42
-0.4142135623731783
10
354.16249999999991
20
-92.72500000000008
10
341.16249999999991
20
-92.725000000000051
42
-0.41421356237309503
10
340.66249999999997
20
-92.22500000000008
10
340.66249999999997
20
-79.225000000000065
42
-0.41421356237309503
0
LWPOLYLINE
5
186
100
AcDbEntity
8
0
100
AcDbPolyline
90
8
70
1
43
0.0
10
188.76249999999999
20
-78.725000000000051
10
201.76249999999999
20
-78.725000000000051
42
-0.41421356237309503
10
202.26249999999999
20
-79.225000000000065
10
202.26249999999999
20
-92.22500000000008
42
-0.41421356237309503
10
201.76249999999999
20
-92.72500000000008
10
188.76249999999999
20
-92.72500000000008
42
-0.41421356237309503
10
188.26249999999999
20
-92.22500000000008
10
188.26249999999999
20
-79.225000000000065
42
-0.41421356237309503
0
LWPOLYLINE
5
187
100
AcDbEntity
8
0
100
AcDbPolyline
90
8
70
1
43
0.0
10
103.03749999999997
20
-78.725000000000051
10
116.03749999999998
20
-78.725000000000051
42
-0.41421356237309503
10
116.53749999999999
20
-79.225000000000065
10
116.53749999999999
20
-92.22500000000008
42
-0.41421356237309503
10
116.03749999999998
20
-92.72500000000008
10
103.03749999999997
20
-92.725000000000051
42
-0.41421356237309503
10
102.53749999999999
20
-92.22500000000008
10
102.53749999999997
20
-79.225000000000065
42
-0.41421356237309503
0
LWPOLYLINE
5
188
100
AcDbEntity
8
0
100
AcDbPolyline
90
8
70
1
43
0.0
10
212.57499999999999
20
-78.725000000000051
10
225.57499999999993
20
-78.725000000000094
42
-0.41421356237309503
10
226.0749999999999
20
-79.225000000000065
10
226.07499999999993
20
-92.22500000000008
42
-0.41421356237309503
10
225.57499999999993
20
-92.72500000000008
10
212.57499999999999
20
-92.72500000000008
42
-0.41421356237309503
10
212.07499999999999
20
-92.22500000000008
10
212.07499999999999
20
-79.225000000000065
42
-0.41421356237309503
0
LWPOLYLINE
5
189
100
AcDbEntity
8
0
100
AcDbPolyline
90
8
70
1
43
0.0
10
231.62499999999997
20
-78.725000000000051
10
244.62499999999994
20
-78.725000000000094
42
-0.41421356237313667
10
245.125
20
-79.225000000000065
10
245.12500000000003
20
-92.22500000000008
42
-0.41421356237309503
10
244.62500000000003
20
-92.72500000000008
10
231.62499999999997
20
-92.725000000000051
42
-0.41421356237309503
10
231.125
20
-92.22500000000008
10
231.12499999999997
20
-79.225000000000065
42
-0.41421356237309503
0
LWPOLYLINE
5
190
100
AcDbEntity
8
0
100
AcDbPolyline
90
8
70
1
43
0.0
10
126.84999999999999
20
-78.725000000000051
10
139.84999999999999
20
-78.725000000000051
42
-0.41421356237309503
10
140.34999999999999
20
-79.225000000000065
10
140.34999999999999
20
-92.22500000000008
42
-0.41421356237309503
10
139.84999999999999
20
-92.72500000000008
10
126.84999999999999
20
-92.725000000000051
42
-0.41421356237309503
10
126.35000000000002
20
-92.22500000000008
10
126.34999999999998
20
-79.225000000000065
42
-0.41421356237309503
0
LWPOLYLINE
5
191
100
AcDbEntity
8
0
100
AcDbPolyline
90
8
70
1
43
0.0
10
169.71250000000001
20
-78.725000000000051
10
182.71249999999998
20
-78.725000000000023
42
-0.41421356237309503
10
183.21250000000003
20
-79.225000000000065
10
183.21249999999998
20
-92.22500000000008
42
-0.41421356237309503
10
182.71249999999998
20
-92.72500000000008
10
169.71250000000001
20
-92.72500000000008
42
-0.41421356237309503
10
169.21250000000001
20
-92.22500000000008
10
169.21250000000001
20
-79.225000000000065
42
-0.41421356237309503
0
LWPOLYLINE
5
192
100
AcDbEntity
8
0
100
AcDbPolyline
90
8
70
1
43
0.0
10
145.90000000000001
20
-78.725000000000051
10
158.89999999999998
20
-78.725000000000051
42
-0.41421356237309503
10
159.39999999999998
20
-79.225000000000065
10
159.39999999999998
20
-92.22500000000008
42
-0.41421356237309503
10
158.89999999999998
20
-92.72500000000008
10
145.90000000000001
20
-92.72500000000008
42
-0.41421356237309503
10
145.39999999999998
20
-92.22500000000008
10
145.39999999999998
20
-79.225000000000065
42
-0.41421356237309503
0
LWPOLYLINE
5
193
100
AcDbEntity
8
0
100
AcDbPolyline
90
8
70
1
43
0.0
10
255.4375
20
-78.725000000000051
10
268.43750000000006
20
-78.725000000000094
42
-0.41421356237309503
10
268.9375
20
-79.225000000000065
10
268.93750000000006
20
-92.22500000000008
42
-0.41421356237309503
10
268.43750000000006
20
-92.72500000000008
10
255.4375
20
-92.725000000000051
42
-0.41421356237309503
10
254.93750000000003
20
-92.22500000000008
10
254.9375
20
-79.225000000000065
42
-0.41421356237309503
0
LWPOLYLINE
5
194
100
AcDbEntity
8
0
100
AcDbPolyline
90
8
70
1
43
0.0
10
83.987499999999997
20
-78.725000000000051
10
96.987500000000011
20
-78.725000000000051
42
-0.41421356237309503
10
97.487500000000011
20
-79.225000000000065
10
97.487500000000011
20
-92.22500000000008
42
-0.41421356237309503
10
96.987500000000011
20
-92.72500000000008
10
83.987499999999997
20
-92.72500000000008
42
-0.41421356237309503
10
83.487499999999983
20
-92.22500000000008
10
83.487499999999983
20
-79.225000000000065
42
-0.41421356237309503
0
LWPOLYLINE
5
195
100
AcDbEntity
8
0
100
AcDbPolyline
90
8
70
1
43
0.0
10
60.174999999999983
20
-78.725000000000051
10
73.174999999999983
20
-78.725000000000051
42
-0.41421356237309503
10
73.674999999999997
20
-79.225000000000065
10
73.674999999999997
20
-92.22500000000008
42
-0.41421356237309503
10
73.174999999999983
20
-92.72500000000008
10
60.174999999999983
20
-92.72500000000008
42
-0.41421356237309503
10
59.674999999999976
20
-92.22500000000008
10
59.674999999999976
20
-79.225000000000065
42
-0.41421356237309503
0
LWPOLYLINE
5
196
100
AcDbEntity
8
0
100
AcDbPolyline
90
8
70
1
43
0.0
10
360.21249999999998
20
-59.675000000000047
10
373.21250000000009
20
-59.675000000000082
42
-0.41421356237309503
10
373.71250000000003
20
-60.175000000000054
10
373.71250000000003
20
-73.175000000000068
42
-0.41421356237309503
10
373.21250000000009
20
-73.675000000000068
10
360.21249999999998
20
-73.67500000000004
42
-0.41421356237309503
10
359.71249999999998
20
-73.175000000000068
10
359.71249999999998
20
-60.175000000000054
42
-0.41421356237309503
0
LWPOLYLINE
5
197
100
AcDbEntity
8
0
100
AcDbPolyline
90
8
70
1
43
0.0
10
317.35000000000002
20
-59.675000000000047
10
330.34999999999997
20
-59.675000000000082
42
-0.41421356237309503
10
330.84999999999991
20
-60.175000000000054
10
330.84999999999991
20
-73.175000000000068
42
-0.41421356237309503
10
330.34999999999997
20
-73.675000000000068
10
317.35000000000002
20
-73.675000000000097
42
-0.41421356237309503
10
316.84999999999997
20
-73.175000000000068
10
316.85000000000002
20
-60.175000000000054
42
-0.41421356237309503
0
LWPOLYLINE
5
198
100
AcDbEntity
8
0
100
AcDbPolyline
90
8
70
1
43
0.0
10
384.02500000000003
20
-59.675000000000047
10
397.02499999999998
20
-59.675000000000082
42
-0.41421356237309503
10
397.52499999999998
20
-60.175000000000054
10
397.52499999999998
20
-73.175000000000068
42
-0.41421356237309503
10
397.02499999999998
20
-73.675000000000068
10
384.02500000000003
20
-73.67500000000004
42
-0.41421356237309503
10
383.52500000000009
20
-73.175000000000068
10
383.52500000000009
20
-60.175000000000054
42
-0.41421356237309503
0
LWPOLYLINE
5
199
100
AcDbEntity
8
0
100
AcDbPolyline
90
8
70
1
43
0.0
10
341.16249999999991
20
-59.675000000000047
10
354.16249999999991
20
-59.675000000000082
42
-0.4142135623731783
10
354.66250000000002
20
-60.175000000000054
10
354.66250000000002
20
-73.175000000000068
42
-0.4142135623731783
10
354.16249999999991
20
-73.675000000000068
10
341.16249999999991
20
-73.67500000000004
42
-0.41421356237309503
10
340.66249999999997
20
-73.175000000000068
10
340.66249999999997
20
-60.175000000000054
42
-0.41421356237309503
0
LWPOLYLINE
5
200
100
AcDbEntity
8
0
100
AcDbPolyline
90
8
70
1
43
0.0
10
41.124999999999986
20
-78.725000000000051
10
54.125
20
-78.725000000000051
42
-0.4142135623730846
10
54.624999999999986
20
-79.225000000000065
10
54.624999999999986
20
-92.22500000000008
42
-0.4142135623730846
10
54.125
20
-92.72500000000008
10
41.124999999999986
20
-92.72500000000008
42
-0.41421356237309503
10
40.624999999999986
20
-92.22500000000008
10
40.624999999999986
20
-79.225000000000065
42
-0.41421356237309503
0
LWPOLYLINE
5
201
100
AcDbEntity
8
0
100
AcDbPolyline
90
8
70
1
43
0.0
10
403.07500000000005
20
-59.675000000000047
42
0.41421356237309503
10
402.57500000000005
20
-60.175000000000054
10
402.57500000000005
20
-73.175000000000068
42
0.41421356237309503
10
403.07500000000005
20
-73.67500000000004
10
416.07500000000005
20
-73.675000000000068
42
0.41421356237309503
10
416.57499999999999
20
-73.175000000000068
10
416.57499999999999
20
-60.175000000000054
42
0.41421356237309503
10
416.07500000000005
20
-59.675000000000047
0
LWPOLYLINE
5
202
100
AcDbEntity
8
0
100
AcDbPolyline
90
8
70
1
43
0.0
10
145.90000000000001
20
-59.675000000000047
10
158.89999999999998
20
-59.675000000000047
42
-0.41421356237309503
10
159.39999999999998
20
-60.175000000000054
10
159.39999999999998
20
-73.175000000000068
42
-0.41421356237309503
10
158.89999999999998
20
-73.675000000000068
10
145.90000000000001
20
-73.675000000000068
42
-0.41421356237309503
10
145.39999999999998
20
-73.175000000000068
10
145.39999999999998
20
-60.175000000000054
42
-0.41421356237309503
0
LWPOLYLINE
5
203
100
AcDbEntity
8
0
100
AcDbPolyline
90
8
70
1
43
0.0
10
231.62499999999997
20
-59.675000000000047
10
244.62499999999994
20
-59.675000000000082
42
-0.41421356237313667
10
245.125
20
-60.175000000000054
10
245.12500000000003
20
-73.175000000000068
42
-0.41421356237309503
10
244.62500000000003
20
-73.675000000000068
10
231.62499999999997
20
-73.67500000000004
42
-0.41421356237309503
10
231.125
20
-73.175000000000068
10
231.12499999999997
20
-60.175000000000054
42
-0.41421356237309503
0
LWPOLYLINE
5
204
100
AcDbEntity
8
0
100
AcDbPolyline
90
8
70
1
43
0.0
10
169.71250000000001
20
-59.675000000000047
10
182.71249999999998
20
-59.675000000000047
42
-0.41421356237309503
10
183.21249999999998
20
-60.175000000000054
10
183.21249999999998
20
-73.175000000000068
42
-0.41421356237309503
10
182.71249999999998
20
-73.675000000000068
10
169.71250000000001
20
-73.675000000000068
42
-0.41421356237309503
10
169.21250000000001
20
-73.175000000000068
10
169.21250000000001
20
-60.175000000000054
42
-0.41421356237309503
0
LWPOLYLINE
5
205
100
AcDbEntity
8
0
100
AcDbPolyline
90
8
70
1
43
0.0
10
298.30000000000001
20
-59.675000000000047
10
311.30000000000001
20
-59.675000000000082
42
-0.41421356237309503
10
311.79999999999995
20
-60.175000000000054
10
311.80000000000001
20
-73.175000000000068
42
-0.41421356237309503
10
311.30000000000001
20
-73.675000000000068
10
298.30000000000001
20
-73.675000000000097
42
-0.41421356237309503
10
297.79999999999995
20
-73.175000000000068
10
297.80000000000001
20
-60.175000000000054
42
-0.41421356237309503
0
LWPOLYLINE
5
206
100
AcDbEntity
8
0
100
AcDbPolyline
90
8
70
1
43
0.0
10
202.26249999999999
20
-60.175000000000054
10
202.26249999999999
20
-73.175000000000068
42
-0.41421356237309503
10
201.76249999999999
20
-73.675000000000068
10
188.76249999999999
20
-73.675000000000068
42
-0.41421356237309503
10
188.26249999999999
20
-73.175000000000068
10
188.26249999999999
20
-60.175000000000054
42
-0.41421356237309503
10
188.76249999999999
20
-59.675000000000047
10
201.76249999999999
20
-59.675000000000047
42
-0.41421356237309503
0
LWPOLYLINE
5
207
100
AcDbEntity
8
0
100
AcDbPolyline
90
8
70
1
43
0.0
10
274.48750000000001
20
-59.675000000000047
42
0.41421356237309503
10
273.98750000000001
20
-60.175000000000054
10
273.98749999999995
20
-73.175000000000068
42
0.41421356237309503
10
274.48750000000001
20
-73.675000000000097
10
287.48749999999995
20
-73.675000000000068
42
0.41421356237309503
10
287.98749999999995
20
-73.175000000000068
10
287.98750000000001
20
-60.175000000000054
42
0.41421356237309503
10
287.48749999999995
20
-59.675000000000047
0
LWPOLYLINE
5
208
100
AcDbEntity
8
0
100
AcDbPolyline
90
8
70
1
43
0.0
10
255.4375
20
-59.675000000000047
10
268.43750000000006
20
-59.675000000000082
42
-0.41421356237309503
10
268.9375
20
-60.175000000000054
10
268.93750000000006
20
-73.175000000000068
42
-0.41421356237309503
10
268.43750000000006
20
-73.675000000000068
10
255.4375
20
-73.67500000000004
42
-0.41421356237309503
10
254.93750000000003
20
-73.175000000000068
10
254.9375
20
-60.175000000000054
42
-0.41421356237309503
0
LWPOLYLINE
5
209
100
AcDbEntity
8
0
100
AcDbPolyline
90
8
70
1
43
0.0
10
226.0749999999999
20
-60.175000000000054
10
226.07499999999993
20
-73.175000000000068
42
-0.41421356237309503
10
225.57499999999993
20
-73.675000000000068
10
212.57499999999999
20
-73.675000000000068
42
-0.41421356237309503
10
212.07499999999999
20
-73.175000000000068
10
212.07499999999999
20
-60.175000000000054
42
-0.41421356237309503
10
212.57499999999999
20
-59.675000000000047
10
225.57499999999993
20
-59.675000000000082
42
-0.41421356237309503
0
LWPOLYLINE
5
210
100
AcDbEntity
8
0
100
AcDbPolyline
90
8
70
1
43
0.0
10
403.07500000000005
20
-40.625000000000036
10
416.07500000000005
20
-40.625000000000071
42
-0.41421356237309503
10
416.57499999999999
20
-41.125000000000043
10
416.57499999999999
20
-54.12500000000005
42
-0.41421356237309503
10
416.07500000000005
20
-54.625000000000057
10
403.07500000000005
20
-54.625000000000021
42
-0.41421356237309503
10
402.57500000000005
20
-54.12500000000005
10
402.57500000000005
20
-41.125000000000043
42
-0.41421356237309503
0
LWPOLYLINE
5
211
100
AcDbEntity
8
0
100
AcDbPolyline
90
8
70
1
43
0.0
10
97.487500000000011
20
-60.175000000000054
10
97.487500000000011
20
-73.175000000000068
42
-0.41421356237309503
10
96.987500000000011
20
-73.675000000000068
10
83.987499999999997
20
-73.675000000000068
42
-0.41421356237309503
10
83.487499999999983
20
-73.175000000000068
10
83.487499999999983
20
-60.175000000000054
42
-0.41421356237309503
10
83.987499999999997
20
-59.675000000000047
10
96.987500000000011
20
-59.675000000000047
42
-0.41421356237309503
0
LWPOLYLINE
5
212
100
AcDbEntity
8
0
100
AcDbPolyline
90
8
70
1
43
0.0
10
60.174999999999983
20
-59.675000000000047
42
0.41421356237309503
10
59.674999999999976
20
-60.175000000000054
10
59.674999999999976
20
-73.175000000000068
42
0.41421356237309503
10
60.174999999999983
20
-73.675000000000068
10
73.174999999999983
20
-73.675000000000068
42
0.41421356237309503
10
73.674999999999997
20
-73.175000000000068
10
73.674999999999997
20
-60.175000000000054
42
0.41421356237309503
10
73.174999999999983
20
-59.675000000000047
0
LWPOLYLINE
5
213
100
AcDbEntity
8
0
100
AcDbPolyline
90
8
70
1
43
0.0
10
41.124999999999986
20
-59.675000000000047
10
54.125
20
-59.675000000000047
42
-0.4142135623730846
10
54.624999999999986
20
-60.175000000000054
10
54.624999999999986
20
-73.175000000000068
42
-0.41421356237309503
10
54.124999999999979
20
-73.675000000000068
10
41.124999999999986
20
-73.675000000000068
42
-0.41421356237309503
10
40.624999999999986
20
-73.175000000000068
10
40.624999999999986
20
-60.175000000000054
42
-0.41421356237309503
0
LWPOLYLINE
5
214
100
AcDbEntity
8
0
100
AcDbPolyline
90
8
70
1
43
0.0
10
103.03749999999997
20
-59.675000000000047
10
116.03749999999998
20
-59.675000000000047
42
-0.41421356237309503
10
116.53749999999999
20
-60.175000000000054
10
116.53749999999999
20
-73.175000000000068
42
-0.41421356237309503
10
116.03749999999998
20
-73.675000000000068
10
103.03749999999997
20
-73.675000000000068
42
-0.41421356237309503
10
102.53749999999997
20
-73.175000000000068
10
102.53749999999997
20
-60.175000000000054
42
-0.41421356237309503
0
LWPOLYLINE
5
215
100
AcDbEntity
8
0
100
AcDbPolyline
90
8
70
1
43
0.0
10
126.84999999999999
20
-59.675000000000047
10
139.84999999999999
20
-59.675000000000047
42
-0.41421356237309503
10
140.34999999999999
20
-60.175000000000054
10
140.34999999999999
20
-73.175000000000068
42
-0.41421356237309503
10
139.84999999999999
20
-73.675000000000068
10
126.84999999999999
20
-73.67500000000004
42
-0.41421356237309503
10
126.35000000000002
20
-73.175000000000068
10
126.34999999999998
20
-60.175000000000054
42
-0.41421356237309503
0
LWPOLYLINE
5
216
100
AcDbEntity
8
0
100
AcDbPolyline
90
8
70
1
43
0.0
10
397.52499999999998
20
-41.125000000000043
10
397.52499999999998
20
-54.12500000000005
42
-0.41421356237309503
10
397.02499999999998
20
-54.625000000000057
10
384.02500000000003
20
-54.625000000000021
42
-0.41421356237309503
10
383.52500000000009
20
-54.12500000000005
10
383.52500000000009
20
-41.125000000000043
42
-0.41421356237309503
10
384.02500000000003
20
-40.625000000000071
10
397.02499999999998
20
-40.625000000000071
42
-0.41421356237309503
0
LWPOLYLINE
5
217
100
AcDbEntity
8
0
100
AcDbPolyline
90
8
70
1
43
0.0
10
360.21249999999998
20
-40.625000000000071
10
373.21250000000009
20
-40.625000000000071
42
-0.41421356237309503
10
373.71250000000003
20
-41.125000000000043
10
373.71250000000003
20
-54.12500000000005
42
-0.41421356237309503
10
373.21250000000009
20
-54.625000000000057
10
360.21249999999998
20
-54.625000000000021
42
-0.41421356237309503
10
359.71249999999998
20
-54.12500000000005
10
359.71249999999998
20
-41.125000000000043
42
-0.41421356237309503
0
LWPOLYLINE
5
218
100
AcDbEntity
8
0
100
AcDbPolyline
90
8
70
1
43
0.0
10
317.35000000000002
20
-40.625000000000036
42
0.41421356237309503
10
316.85000000000002
20
-41.125000000000043
10
316.84999999999997
20
-54.12500000000005
42
0.41421356237309503
10
317.35000000000002
20
-54.625000000000057
10
330.34999999999997
20
-54.625000000000057
42
0.41421356237309503
10
330.84999999999991
20
-54.12500000000005
10
330.84999999999991
20
-41.125000000000043
42
0.41421356237309503
10
330.34999999999997
20
-40.625000000000036
0
LWPOLYLINE
5
219
100
AcDbEntity
8
0
100
AcDbPolyline
90
8
70
1
43
0.0
10
212.57499999999999
20
-40.625000000000036
42
0.41421356237309503
10
212.07499999999999
20
-41.125000000000043
10
212.07499999999999
20
-54.12500000000005
42
0.41421356237309503
10
212.57499999999999
20
-54.625000000000057
10
225.57499999999993
20
-54.625000000000057
42
0.41421356237309503
10
226.07499999999993
20
-54.12500000000005
10
226.07499999999999
20
-41.125000000000043
42
0.41421356237309503
10
225.57499999999993
20
-40.625000000000036
0
LWPOLYLINE
5
220
100
AcDbEntity
8
0
100
AcDbPolyline
90
8
70
1
43
0.0
10
298.30000000000001
20
-40.625000000000071
10
311.30000000000001
20
-40.625000000000071
42
-0.41421356237309503
10
311.79999999999995
20
-41.125000000000043
10
311.80000000000001
20
-54.12500000000005
42
-0.41421356237309503
10
311.30000000000001
20
-54.625000000000057
10
298.30000000000001
20
-54.625000000000092
42
-0.41421356237309503
10
297.79999999999995
20
-54.12500000000005
10
297.80000000000007
20
-41.125000000000043
42
-0.41421356237309503
0
LWPOLYLINE
5
221
100
AcDbEntity
8
0
100
AcDbPolyline
90
8
70
1
43
0.0
10
341.16249999999991
20
-40.625000000000071
10
354.16249999999991
20
-40.625000000000071
42
-0.4142135623731783
10
354.66250000000002
20
-41.125000000000043
10
354.66250000000002
20
-54.12500000000005
42
-0.41421356237309503
10
354.16250000000002
20
-54.625000000000057
10
341.16249999999991
20
-54.625000000000021
42
-0.41421356237309503
10
340.66249999999997
20
-54.12500000000005
10
340.66249999999997
20
-41.125000000000043
42
-0.41421356237309503
0
LWPOLYLINE
5
222
100
AcDbEntity
8
0
100
AcDbPolyline
90
8
70
1
43
0.0
10
255.4375
20
-40.625000000000071
10
268.43750000000006
20
-40.625000000000071
42
-0.41421356237309503
10
268.9375
20
-41.125000000000043
10
268.93750000000006
20
-54.12500000000005
42
-0.41421356237309503
10
268.43750000000006
20
-54.625000000000057
10
255.4375
20
-54.625000000000021
42
-0.41421356237309503
10
254.93750000000003
20
-54.12500000000005
10
254.93750000000003
20
-41.125000000000043
42
-0.41421356237309503
0
LWPOLYLINE
5
223
100
AcDbEntity
8
0
100
AcDbPolyline
90
8
70
1
43
0.0
10
188.76249999999999
20
-40.625000000000036
10
201.76249999999999
20
-40.625000000000036
42
-0.41421356237309503
10
202.26249999999999
20
-41.125000000000043
10
202.26249999999999
20
-54.12500000000005
42
-0.41421356237309503
10
201.76249999999999
20
-54.625000000000057
10
188.76249999999999
20
-54.625000000000057
42
-0.41421356237309503
10
188.26249999999999
20
-54.12500000000005
10
188.26249999999999
20
-41.125000000000043
42
-0.41421356237309503
0
LWPOLYLINE
5
224
100
AcDbEntity
8
0
100
AcDbPolyline
90
8
70
1
43
0.0
10
274.48750000000001
20
-40.625000000000071
10
287.48749999999995
20
-40.625000000000071
42
-0.41421356237309503
10
287.98749999999995
20
-41.125000000000043
10
287.98749999999995
20
-54.12500000000005
42
-0.41421356237309503
10
287.48749999999995
20
-54.625000000000057
10
274.48750000000001
20
-54.625000000000021
42
-0.41421356237309503
10
273.98750000000001
20
-54.12500000000005
10
273.98750000000001
20
-41.125000000000043
42
-0.41421356237309503
0
LWPOLYLINE
5
225
100
AcDbEntity
8
0
100
AcDbPolyline
90
8
70
1
43
0.0
10
231.62499999999997
20
-40.625000000000071
10
244.62500000000003
20
-40.625000000000071
42
-0.41421356237309503
10
245.125
20
-41.125000000000043
10
245.12500000000003
20
-54.12500000000005
42
-0.41421356237313667
10
244.62499999999994
20
-54.625000000000057
10
231.62499999999997
20
-54.625000000000021
42
-0.41421356237309503
10
231.125
20
-54.12500000000005
10
231.125
20
-41.125000000000043
42
-0.41421356237309503
0
LWPOLYLINE
5
226
100
AcDbEntity
8
0
100
AcDbPolyline
90
8
70
1
43
0.0
10
83.987499999999997
20
-40.625000000000036
10
96.987500000000011
20
-40.625000000000071
42
-0.41421356237309503
10
97.487499999999983
20
-41.125000000000043
10
97.487500000000011
20
-54.12500000000005
42
-0.41421356237309503
10
96.987500000000011
20
-54.625000000000057
10
83.987499999999997
20
-54.625000000000057
42
-0.41421356237309503
10
83.487499999999983
20
-54.12500000000005
10
83.487499999999983
20
-41.125000000000043
42
-0.41421356237309503
0
LWPOLYLINE
5
227
100
AcDbEntity
8
0
100
AcDbPolyline
90
8
70
1
43
0.0
10
60.174999999999983
20
-40.625000000000036
10
73.174999999999983
20
-40.625000000000036
42
-0.41421356237309503
10
73.674999999999997
20
-41.125000000000043
10
73.674999999999997
20
-54.12500000000005
42
-0.41421356237309503
10
73.174999999999983
20
-54.625000000000057
10
60.174999999999983
20
-54.625000000000057
42
-0.41421356237309503
10
59.674999999999976
20
-54.12500000000005
10
59.674999999999976
20
-41.125000000000043
42
-0.41421356237309503
0
LWPOLYLINE
5
228
100
AcDbEntity
8
0
100
AcDbPolyline
90
8
70
1
43
0.0
10
145.90000000000001
20
-40.625000000000071
10
158.89999999999998
20
-40.625
42
-0.41421356237309503
10
159.40000000000001
20
-41.125000000000043
10
159.39999999999998
20
-54.12500000000005
42
-0.41421356237309503
10
158.89999999999998
20
-54.625000000000057
10
145.90000000000001
20
-54.625000000000057
42
-0.41421356237309503
10
145.39999999999998
20
-54.12500000000005
10
145.40000000000003
20
-41.125000000000043
42
-0.41421356237309503
0
LWPOLYLINE
5
229
100
AcDbEntity
8
0
100
AcDbPolyline
90
8
70
1
43
0.0
10
169.71250000000001
20
-40.625000000000036
10
182.71249999999998
20
-40.625000000000036
42
-0.41421356237309503
10
183.21249999999998
20
-41.125000000000043
10
183.21249999999998
20
-54.12500000000005
42
-0.41421356237309503
10
182.71249999999998
20
-54.625000000000057
10
169.71250000000001
20
-54.625000000000057
42
-0.41421356237309503
10
169.21250000000001
20
-54.12500000000005
10
169.21250000000001
20
-41.125000000000043
42
-0.41421356237309503
0
LWPOLYLINE
5
230
100
AcDbEntity
8
0
100
AcDbPolyline
90
8
70
1
43
0.0
10
41.124999999999986
20
-40.625000000000036
10
54.125
20
-40.625000000000036
42
-0.4142135623730846
10
54.624999999999986
20
-41.125000000000043
10
54.624999999999986
20
-54.12500000000005
42
-0.4142135623730846
10
54.125
20
-54.625000000000057
10
41.124999999999986
20
-54.625000000000057
42
-0.41421356237309503
10
40.624999999999986
20
-54.12500000000005
10
40.624999999999986
20
-41.125000000000043
42
-0.41421356237309503
0
LWPOLYLINE
5
231
100
AcDbEntity
8
0
100
AcDbPolyline
90
8
70
1
43
0.0
10
60.174999999999983
20
-97.775000000000063
10
73.174999999999983
20
-97.775000000000063
42
-0.41421356237309503
10
73.674999999999997
20
-98.275000000000077
10
73.674999999999997
20
-111.27500000000009
42
-0.41421356237307422
10
73.174999999999983
20
-111.77500000000006
10
60.174999999999983
20
-111.77500000000006
42
-0.41421356237307422
10
59.674999999999976
20
-111.27500000000009
10
59.674999999999976
20
-98.275000000000077
42
-0.41421356237309503
0
LWPOLYLINE
5
232
100
AcDbEntity
8
0
100
AcDbPolyline
90
8
70
1
43
0.0
10
140.34999999999999
20
-98.275000000000077
10
140.34999999999999
20
-111.27500000000005
42
-0.41421356237309503
10
139.84999999999999
20
-111.77500000000006
10
126.84999999999999
20
-111.77500000000002
42
-0.41421356237307422
10
126.35000000000002
20
-111.27500000000009
10
126.34999999999998
20
-98.275000000000077
42
-0.41421356237309503
10
126.84999999999999
20
-97.775000000000063
10
139.84999999999999
20
-97.775000000000063
42
-0.41421356237309503
0
LWPOLYLINE
5
233
100
AcDbEntity
8
0
100
AcDbPolyline
90
8
70
1
43
0.0
10
212.57499999999999
20
-97.775000000000063
10
225.57499999999993
20
-97.775000000000034
42
-0.41421356237309503
10
226.07499999999999
20
-98.275000000000077
10
226.07499999999993
20
-111.27500000000009
42
-0.41421356237307422
10
225.57499999999993
20
-111.77500000000006
10
212.57499999999999
20
-111.77500000000006
42
-0.41421356237307422
10
212.07499999999999
20
-111.27500000000009
10
212.07499999999999
20
-98.275000000000077
42
-0.41421356237309503
0
ENDSEC
0
SECTION
2
OBJECTS
0
DICTIONARY
5
C
100
AcDbDictionary
3
ACAD_GROUP
350
D
3
ACAD_MLINESTYLE
350
17
0
DICTIONARY
5
D
100
AcDbDictionary
0
DICTIONARY
5
1A
330
C
100
AcDbDictionary
0
DICTIONARY
5
17
100
AcDbDictionary
0
ENDSEC
0
EOF
