%TF.GenerationSoftware,KiCad,Pcbnew,7.0.7*%
%TF.CreationDate,2023-09-25T11:38:33+09:00*%
%TF.ProjectId,Duet-Switch-Tester,44756574-2d53-4776-9974-63682d546573,rev?*%
%TF.SameCoordinates,Original*%
%TF.FileFunction,Legend,Bot*%
%TF.FilePolarity,Positive*%
%FSLAX46Y46*%
G04 Gerber Fmt 4.6, Leading zero omitted, Abs format (unit mm)*
G04 Created by KiCad (PCBNEW 7.0.7) date 2023-09-25 11:38:33*
%MOMM*%
%LPD*%
G01*
G04 APERTURE LIST*
%ADD10C,0.200000*%
%ADD11C,0.300000*%
%ADD12C,0.010000*%
%ADD13C,2.200000*%
G04 APERTURE END LIST*
%LPC*%
D10*
X48362500Y-41725000D02*
G75*
G03*
X48362500Y-41725000I-4250000J0D01*
G01*
X416087500Y-41725000D02*
G75*
G03*
X416087500Y-41725000I-4250000J0D01*
G01*
X232225000Y-145600000D02*
G75*
G03*
X232225000Y-145600000I-4250000J0D01*
G01*
X416087500Y-145600000D02*
G75*
G03*
X416087500Y-145600000I-4250000J0D01*
G01*
X232225000Y-41725000D02*
G75*
G03*
X232225000Y-41725000I-4250000J0D01*
G01*
X140293750Y-41725000D02*
G75*
G03*
X140293750Y-41725000I-4250000J0D01*
G01*
X140293750Y-145600000D02*
G75*
G03*
X140293750Y-145600000I-4250000J0D01*
G01*
X48362500Y-145600000D02*
G75*
G03*
X48362500Y-145600000I-4250000J0D01*
G01*
X324156250Y-41725000D02*
G75*
G03*
X324156250Y-41725000I-4250000J0D01*
G01*
X324156250Y-145600000D02*
G75*
G03*
X324156250Y-145600000I-4250000J0D01*
G01*
D11*
G36*
X389374594Y-145669942D02*
G01*
X389404238Y-145659589D01*
X389432940Y-145648871D01*
X389460702Y-145637788D01*
X389487523Y-145626339D01*
X389513402Y-145614526D01*
X389538341Y-145602347D01*
X389562338Y-145589804D01*
X389585395Y-145576895D01*
X389607510Y-145563621D01*
X389628684Y-145549982D01*
X389648917Y-145535978D01*
X389668209Y-145521609D01*
X389686560Y-145506874D01*
X389703970Y-145491775D01*
X389720439Y-145476310D01*
X389735966Y-145460481D01*
X389750553Y-145444286D01*
X389764199Y-145427726D01*
X389776903Y-145410801D01*
X389788667Y-145393511D01*
X389799489Y-145375856D01*
X389809370Y-145357835D01*
X389818310Y-145339450D01*
X389826310Y-145320699D01*
X389833368Y-145301584D01*
X389839485Y-145282103D01*
X389844661Y-145262257D01*
X389848895Y-145242046D01*
X389852189Y-145221470D01*
X389854542Y-145200529D01*
X389855953Y-145179222D01*
X389856424Y-145157551D01*
X389855926Y-145133136D01*
X389854433Y-145109403D01*
X389851945Y-145086352D01*
X389848461Y-145063983D01*
X389843982Y-145042296D01*
X389838508Y-145021292D01*
X389832038Y-145000970D01*
X389824573Y-144981330D01*
X389816113Y-144962372D01*
X389806657Y-144944096D01*
X389796206Y-144926502D01*
X389784760Y-144909591D01*
X389772318Y-144893362D01*
X389758881Y-144877815D01*
X389744449Y-144862950D01*
X389729021Y-144848767D01*
X389712709Y-144835358D01*
X389695626Y-144822814D01*
X389677770Y-144811135D01*
X389659143Y-144800321D01*
X389639743Y-144790372D01*
X389619571Y-144781289D01*
X389598627Y-144773070D01*
X389576911Y-144765717D01*
X389554423Y-144759228D01*
X389531163Y-144753605D01*
X389507130Y-144748847D01*
X389482326Y-144744954D01*
X389456750Y-144741926D01*
X389430401Y-144739764D01*
X389403280Y-144738466D01*
X389375388Y-144738033D01*
X389349507Y-144738277D01*
X389323860Y-144739007D01*
X389298444Y-144740224D01*
X389273262Y-144741928D01*
X389248312Y-144744119D01*
X389223594Y-144746796D01*
X389199109Y-144749960D01*
X389174857Y-144753611D01*
X389150837Y-144757749D01*
X389127049Y-144762374D01*
X389103495Y-144767486D01*
X389080172Y-144773084D01*
X389057083Y-144779169D01*
X389034226Y-144785741D01*
X389011601Y-144792800D01*
X388989209Y-144800346D01*
X388974572Y-144806890D01*
X388958871Y-144816394D01*
X388944652Y-144827911D01*
X388933642Y-144839386D01*
X388923722Y-144852339D01*
X388915089Y-144866190D01*
X388908243Y-144880655D01*
X388903182Y-144895734D01*
X388899908Y-144911427D01*
X388898420Y-144927733D01*
X388898320Y-144933306D01*
X388900280Y-144950620D01*
X388906159Y-144965652D01*
X388915957Y-144978403D01*
X388929675Y-144988871D01*
X388945303Y-144995965D01*
X388961228Y-144998992D01*
X388977451Y-144997950D01*
X388993972Y-144992840D01*
X389016849Y-144983035D01*
X389039739Y-144973863D01*
X389062641Y-144965324D01*
X389085555Y-144957417D01*
X389108482Y-144950143D01*
X389131422Y-144943501D01*
X389154373Y-144937491D01*
X389177337Y-144932115D01*
X389200314Y-144927371D01*
X389223303Y-144923259D01*
X389246304Y-144919780D01*
X389269318Y-144916934D01*
X389292344Y-144914720D01*
X389315382Y-144913138D01*
X389338433Y-144912189D01*
X389361496Y-144911873D01*
X389377907Y-144912112D01*
X389393899Y-144912828D01*
X389417102Y-144914798D01*
X389439364Y-144917842D01*
X389460683Y-144921961D01*
X389481061Y-144927154D01*
X389500497Y-144933421D01*
X389518991Y-144940763D01*
X389536543Y-144949179D01*
X389553153Y-144958670D01*
X389568821Y-144969235D01*
X389573835Y-144972995D01*
X389587950Y-144984936D01*
X389600677Y-144997985D01*
X389612015Y-145012145D01*
X389621965Y-145027413D01*
X389630526Y-145043791D01*
X389637699Y-145061278D01*
X389643484Y-145079874D01*
X389647881Y-145099580D01*
X389650889Y-145120394D01*
X389652508Y-145142319D01*
X389652817Y-145157551D01*
X389651682Y-145183935D01*
X389648278Y-145209408D01*
X389642603Y-145233969D01*
X389634659Y-145257618D01*
X389624445Y-145280356D01*
X389611962Y-145302182D01*
X389597208Y-145323096D01*
X389580185Y-145343099D01*
X389560892Y-145362190D01*
X389539330Y-145380370D01*
X389515498Y-145397638D01*
X389489396Y-145413995D01*
X389475493Y-145421831D01*
X389461024Y-145429439D01*
X389445987Y-145436820D01*
X389430382Y-145443972D01*
X389414210Y-145450897D01*
X389397471Y-145457594D01*
X389380164Y-145464063D01*
X389362290Y-145470304D01*
X389344521Y-145476237D01*
X389327084Y-145482228D01*
X389309979Y-145488277D01*
X389293206Y-145494384D01*
X389276764Y-145500550D01*
X389260654Y-145506773D01*
X389244876Y-145513055D01*
X389229430Y-145519395D01*
X389214315Y-145525793D01*
X389199532Y-145532249D01*
X389170962Y-145545336D01*
X389143719Y-145558655D01*
X389117803Y-145572207D01*
X389093214Y-145585991D01*
X389069952Y-145600008D01*
X389048018Y-145614257D01*
X389027410Y-145628739D01*
X389008130Y-145643454D01*
X388990177Y-145658401D01*
X388973550Y-145673581D01*
X388958251Y-145688993D01*
X388944073Y-145704797D01*
X388930810Y-145721154D01*
X388918461Y-145738062D01*
X388907027Y-145755522D01*
X388896508Y-145773535D01*
X388886903Y-145792099D01*
X388878214Y-145811215D01*
X388870438Y-145830883D01*
X388863578Y-145851103D01*
X388857632Y-145871874D01*
X388852601Y-145893198D01*
X388848485Y-145915074D01*
X388845284Y-145937502D01*
X388842997Y-145960481D01*
X388841625Y-145984013D01*
X388841168Y-146008096D01*
X388841710Y-146036393D01*
X388843338Y-146063835D01*
X388846051Y-146090421D01*
X388849850Y-146116151D01*
X388854733Y-146141025D01*
X388860702Y-146165043D01*
X388867756Y-146188206D01*
X388875896Y-146210512D01*
X388885120Y-146231963D01*
X388895430Y-146252558D01*
X388906826Y-146272298D01*
X388919306Y-146291181D01*
X388932872Y-146309209D01*
X388947523Y-146326381D01*
X388963259Y-146342697D01*
X388980081Y-146358157D01*
X388997939Y-146372672D01*
X389016787Y-146386250D01*
X389036624Y-146398892D01*
X389057450Y-146410597D01*
X389079266Y-146421366D01*
X389102070Y-146431198D01*
X389125863Y-146440094D01*
X389150646Y-146448054D01*
X389176418Y-146455077D01*
X389203179Y-146461164D01*
X389230929Y-146466314D01*
X389259668Y-146470528D01*
X389289396Y-146473805D01*
X389320114Y-146476147D01*
X389351821Y-146477551D01*
X389368045Y-146477902D01*
X389384516Y-146478019D01*
X389409268Y-146477737D01*
X389433713Y-146476891D01*
X389457850Y-146475480D01*
X389481681Y-146473505D01*
X389505205Y-146470965D01*
X389528422Y-146467861D01*
X389551331Y-146464193D01*
X389573934Y-146459961D01*
X389596230Y-146455164D01*
X389618219Y-146449803D01*
X389639901Y-146443877D01*
X389661276Y-146437387D01*
X389682344Y-146430333D01*
X389703105Y-146422715D01*
X389723559Y-146414532D01*
X389743706Y-146405785D01*
X389759381Y-146397813D01*
X389773515Y-146388780D01*
X389786107Y-146378687D01*
X389800497Y-146363580D01*
X389812147Y-146346588D01*
X389821055Y-146327711D01*
X389825937Y-146312316D01*
X389829278Y-146295860D01*
X389831077Y-146278344D01*
X389831420Y-146266078D01*
X389829460Y-146248838D01*
X389823581Y-146234028D01*
X389812282Y-146220274D01*
X389800065Y-146211703D01*
X389784214Y-146205154D01*
X389768413Y-146202971D01*
X389752661Y-146205154D01*
X389736959Y-146211703D01*
X389717728Y-146222325D01*
X389698237Y-146232261D01*
X389678485Y-146241512D01*
X389658473Y-146250078D01*
X389638200Y-146257958D01*
X389617667Y-146265154D01*
X389596873Y-146271664D01*
X389575819Y-146277488D01*
X389554505Y-146282628D01*
X389532930Y-146287082D01*
X389511095Y-146290851D01*
X389488999Y-146293935D01*
X389466642Y-146296333D01*
X389444026Y-146298046D01*
X389421148Y-146299074D01*
X389398011Y-146299417D01*
X389376571Y-146299132D01*
X389355813Y-146298279D01*
X389335735Y-146296856D01*
X389316337Y-146294865D01*
X389297620Y-146292304D01*
X389279584Y-146289175D01*
X389262229Y-146285477D01*
X389245554Y-146281209D01*
X389229559Y-146276373D01*
X389214245Y-146270968D01*
X389185660Y-146258450D01*
X389159796Y-146243656D01*
X389136656Y-146226587D01*
X389116237Y-146207241D01*
X389098541Y-146185620D01*
X389083568Y-146161722D01*
X389071317Y-146135549D01*
X389061788Y-146107100D01*
X389054982Y-146076374D01*
X389052600Y-146060158D01*
X389050898Y-146043373D01*
X389049877Y-146026019D01*
X389049537Y-146008096D01*
X389050196Y-145986262D01*
X389052174Y-145965111D01*
X389055471Y-145944643D01*
X389060086Y-145924860D01*
X389066020Y-145905760D01*
X389073272Y-145887344D01*
X389081843Y-145869612D01*
X389091732Y-145852563D01*
X389102940Y-145836198D01*
X389115467Y-145820517D01*
X389124550Y-145810443D01*
X389139494Y-145795720D01*
X389156196Y-145781317D01*
X389174657Y-145767236D01*
X389187940Y-145758027D01*
X389202005Y-145748960D01*
X389216852Y-145740036D01*
X389232479Y-145731255D01*
X389248888Y-145722617D01*
X389266079Y-145714120D01*
X389284051Y-145705767D01*
X389302804Y-145697556D01*
X389322339Y-145689488D01*
X389342655Y-145681563D01*
X389363752Y-145673780D01*
X389374594Y-145669942D01*
G37*
G36*
X388404980Y-146336328D02*
G01*
X388676853Y-145348060D01*
X388679813Y-145330845D01*
X388679317Y-145314276D01*
X388675364Y-145298353D01*
X388667954Y-145283075D01*
X388662168Y-145274635D01*
X388650200Y-145261490D01*
X388636523Y-145251573D01*
X388621137Y-145244885D01*
X388604042Y-145241426D01*
X388593505Y-145240899D01*
X388576845Y-145241890D01*
X388560799Y-145244862D01*
X388545366Y-145249815D01*
X388530548Y-145256750D01*
X388516343Y-145265666D01*
X388511745Y-145269078D01*
X388498852Y-145280111D01*
X388487857Y-145292371D01*
X388478759Y-145305859D01*
X388471559Y-145320575D01*
X388466257Y-145336519D01*
X388464911Y-145342107D01*
X388237888Y-146287510D01*
X388248604Y-146289098D01*
X388258923Y-146287510D01*
X388043806Y-145364730D01*
X388038405Y-145348108D01*
X388031628Y-145332475D01*
X388023475Y-145317829D01*
X388013946Y-145304173D01*
X388003041Y-145291504D01*
X387990760Y-145279824D01*
X387985463Y-145275429D01*
X387971529Y-145265481D01*
X387957013Y-145257220D01*
X387941917Y-145250644D01*
X387926239Y-145245755D01*
X387909979Y-145242551D01*
X387893138Y-145241034D01*
X387886239Y-145240899D01*
X387869032Y-145241752D01*
X387852387Y-145244310D01*
X387836304Y-145248573D01*
X387820782Y-145254542D01*
X387805823Y-145262216D01*
X387791426Y-145271596D01*
X387785825Y-145275826D01*
X387772604Y-145287110D01*
X387760972Y-145299383D01*
X387750930Y-145312645D01*
X387742476Y-145326895D01*
X387735612Y-145342133D01*
X387730337Y-145358359D01*
X387728672Y-145365127D01*
X387515539Y-146287510D01*
X387523874Y-146278778D01*
X387534193Y-146287510D01*
X387307567Y-145339329D01*
X387302050Y-145323785D01*
X387295027Y-145309301D01*
X387286497Y-145295878D01*
X387276460Y-145283515D01*
X387264916Y-145272213D01*
X387260733Y-145268681D01*
X387247408Y-145259240D01*
X387233329Y-145251751D01*
X387215951Y-145245484D01*
X387200240Y-145242228D01*
X387183775Y-145240926D01*
X387180957Y-145240899D01*
X387163870Y-145242513D01*
X387148378Y-145247356D01*
X387134481Y-145255428D01*
X387122180Y-145266728D01*
X387115867Y-145274635D01*
X387106946Y-145289584D01*
X387101368Y-145304914D01*
X387099085Y-145322898D01*
X387100670Y-145339041D01*
X387102372Y-145346076D01*
X387374245Y-146336328D01*
X387379646Y-146352016D01*
X387386423Y-146366832D01*
X387394576Y-146380775D01*
X387404105Y-146393847D01*
X387415010Y-146406046D01*
X387427291Y-146417374D01*
X387432588Y-146421660D01*
X387446360Y-146431265D01*
X387460635Y-146439242D01*
X387475414Y-146445590D01*
X387490696Y-146450311D01*
X387506483Y-146453404D01*
X387522773Y-146454869D01*
X387529431Y-146455000D01*
X387545933Y-146454156D01*
X387561950Y-146451627D01*
X387577483Y-146447412D01*
X387592531Y-146441511D01*
X387607095Y-146433924D01*
X387621174Y-146424651D01*
X387626670Y-146420470D01*
X387639492Y-146409243D01*
X387650918Y-146397144D01*
X387660949Y-146384174D01*
X387669584Y-146370331D01*
X387676824Y-146355616D01*
X387682669Y-146340029D01*
X387684617Y-146333550D01*
X387900130Y-145424264D01*
X387889811Y-145422677D01*
X387879095Y-145424264D01*
X388094609Y-146333153D01*
X388099105Y-146349098D01*
X388105151Y-146364191D01*
X388112748Y-146378431D01*
X388121895Y-146391819D01*
X388132593Y-146404354D01*
X388144841Y-146416036D01*
X388150174Y-146420470D01*
X388164059Y-146430417D01*
X388178429Y-146438679D01*
X388193284Y-146445254D01*
X388208623Y-146450144D01*
X388224446Y-146453347D01*
X388240754Y-146454865D01*
X388247413Y-146455000D01*
X388263934Y-146454186D01*
X388280010Y-146451744D01*
X388295639Y-146447674D01*
X388310823Y-146441976D01*
X388325561Y-146434651D01*
X388339854Y-146425698D01*
X388345446Y-146421660D01*
X388358620Y-146410682D01*
X388370361Y-146398831D01*
X388380667Y-146386108D01*
X388389539Y-146372514D01*
X388396977Y-146358047D01*
X388402980Y-146342708D01*
X388404980Y-146336328D01*
G37*
G36*
X386589981Y-146424042D02*
G01*
X386603707Y-146436104D01*
X386618838Y-146445204D01*
X386635375Y-146451341D01*
X386653317Y-146454516D01*
X386664200Y-146455000D01*
X386680368Y-146453911D01*
X386697960Y-146449890D01*
X386714184Y-146442907D01*
X386729042Y-146432960D01*
X386738817Y-146424042D01*
X386750415Y-146409830D01*
X386759165Y-146394631D01*
X386765066Y-146378445D01*
X386768119Y-146361270D01*
X386768584Y-146351013D01*
X386768584Y-145344885D01*
X386767159Y-145327166D01*
X386762886Y-145310472D01*
X386755764Y-145294803D01*
X386745793Y-145280160D01*
X386738817Y-145272254D01*
X386727003Y-145261598D01*
X386711950Y-145251953D01*
X386695530Y-145245308D01*
X386677743Y-145241664D01*
X386664200Y-145240899D01*
X386648047Y-145242001D01*
X386630507Y-145246074D01*
X386614372Y-145253147D01*
X386599642Y-145263221D01*
X386589981Y-145272254D01*
X386578382Y-145286310D01*
X386569633Y-145301393D01*
X386563731Y-145317501D01*
X386560679Y-145334634D01*
X386560214Y-145344885D01*
X386560214Y-146351013D01*
X386561638Y-146368752D01*
X386565912Y-146385503D01*
X386573034Y-146401266D01*
X386583005Y-146416042D01*
X386589981Y-146424042D01*
G37*
G36*
X386590378Y-144955135D02*
G01*
X386604085Y-144966733D01*
X386619159Y-144975483D01*
X386635601Y-144981384D01*
X386653410Y-144984437D01*
X386664200Y-144984902D01*
X386680233Y-144983855D01*
X386697703Y-144979989D01*
X386713843Y-144973274D01*
X386728654Y-144963710D01*
X386738420Y-144955135D01*
X386750173Y-144941273D01*
X386759040Y-144926082D01*
X386765019Y-144909562D01*
X386768112Y-144891712D01*
X386768584Y-144880915D01*
X386768584Y-144819000D01*
X386767159Y-144801280D01*
X386762886Y-144784586D01*
X386755764Y-144768918D01*
X386745793Y-144754275D01*
X386738817Y-144746368D01*
X386727003Y-144735712D01*
X386711950Y-144726067D01*
X386695530Y-144719423D01*
X386677743Y-144715779D01*
X386664200Y-144715013D01*
X386648047Y-144716116D01*
X386630507Y-144720188D01*
X386614372Y-144727261D01*
X386599642Y-144737335D01*
X386589981Y-144746368D01*
X386578382Y-144760425D01*
X386569633Y-144775507D01*
X386563731Y-144791615D01*
X386560679Y-144808749D01*
X386560214Y-144819000D01*
X386560214Y-144880915D01*
X386561275Y-144896948D01*
X386565192Y-144914418D01*
X386571997Y-144930558D01*
X386581688Y-144945369D01*
X386590378Y-144955135D01*
G37*
G36*
X386130774Y-145449269D02*
G01*
X386147518Y-145447830D01*
X386162823Y-145443514D01*
X386178322Y-145435218D01*
X386189118Y-145426249D01*
X386199189Y-145413821D01*
X386207079Y-145398120D01*
X386211036Y-145382635D01*
X386212137Y-145367905D01*
X386210699Y-145351186D01*
X386205641Y-145334156D01*
X386196941Y-145319010D01*
X386189118Y-145309959D01*
X386176690Y-145299714D01*
X386160989Y-145291687D01*
X386145504Y-145287662D01*
X386130774Y-145286542D01*
X385964078Y-145286542D01*
X385956140Y-145278604D01*
X385956140Y-144951563D01*
X385954754Y-144933957D01*
X385950595Y-144917605D01*
X385943663Y-144902506D01*
X385933958Y-144888661D01*
X385927167Y-144881312D01*
X385913884Y-144870023D01*
X385899385Y-144861506D01*
X385883670Y-144855763D01*
X385866740Y-144852792D01*
X385856520Y-144852339D01*
X385838895Y-144853725D01*
X385822486Y-144857885D01*
X385807293Y-144864817D01*
X385793314Y-144874522D01*
X385785873Y-144881312D01*
X385774583Y-144894441D01*
X385766067Y-144908824D01*
X385760323Y-144924459D01*
X385757352Y-144941349D01*
X385756899Y-144951563D01*
X385756899Y-145278604D01*
X385748961Y-145286542D01*
X385406045Y-145286542D01*
X385389325Y-145288005D01*
X385372295Y-145293151D01*
X385357149Y-145302000D01*
X385348098Y-145309959D01*
X385337853Y-145322213D01*
X385329826Y-145337778D01*
X385325802Y-145353194D01*
X385324681Y-145367905D01*
X385326145Y-145384649D01*
X385330535Y-145399954D01*
X385338974Y-145415453D01*
X385348098Y-145426249D01*
X385361988Y-145437376D01*
X385377763Y-145444862D01*
X385393366Y-145448459D01*
X385406045Y-145449269D01*
X385748961Y-145449269D01*
X385756899Y-145456810D01*
X385756899Y-146060486D01*
X385756743Y-146080041D01*
X385756273Y-146098718D01*
X385755490Y-146116518D01*
X385754394Y-146133440D01*
X385752985Y-146149485D01*
X385750284Y-146171907D01*
X385746878Y-146192354D01*
X385742767Y-146210828D01*
X385737952Y-146227326D01*
X385730436Y-146246253D01*
X385721667Y-146261670D01*
X385716813Y-146268062D01*
X385702397Y-146281669D01*
X385688142Y-146290893D01*
X385671470Y-146298642D01*
X385652378Y-146304915D01*
X385636473Y-146308651D01*
X385619207Y-146311557D01*
X385600580Y-146313632D01*
X385580593Y-146314877D01*
X385559246Y-146315293D01*
X385541764Y-146315119D01*
X385525038Y-146314598D01*
X385509070Y-146313730D01*
X385490173Y-146312156D01*
X385472458Y-146310040D01*
X385455925Y-146307381D01*
X385440574Y-146304180D01*
X385423890Y-146302938D01*
X385407770Y-146305463D01*
X385392216Y-146311756D01*
X385383818Y-146316880D01*
X385370772Y-146328217D01*
X385361995Y-146341689D01*
X385357488Y-146357296D01*
X385356830Y-146366889D01*
X385358219Y-146384675D01*
X385362386Y-146401518D01*
X385369332Y-146417419D01*
X385379056Y-146432377D01*
X385390938Y-146445226D01*
X385404358Y-146455198D01*
X385419316Y-146462292D01*
X385435812Y-146466509D01*
X385451489Y-146469207D01*
X385468159Y-146471545D01*
X385485820Y-146473523D01*
X385504474Y-146475142D01*
X385524121Y-146476401D01*
X385544759Y-146477300D01*
X385560889Y-146477738D01*
X385577577Y-146477974D01*
X385589013Y-146478019D01*
X385614366Y-146477678D01*
X385638730Y-146476655D01*
X385662105Y-146474950D01*
X385684491Y-146472562D01*
X385705888Y-146469492D01*
X385726295Y-146465740D01*
X385745713Y-146461306D01*
X385764143Y-146456190D01*
X385781583Y-146450392D01*
X385798034Y-146443911D01*
X385813496Y-146436749D01*
X385827968Y-146428904D01*
X385841452Y-146420377D01*
X385859823Y-146406307D01*
X385875968Y-146390703D01*
X385890295Y-146373035D01*
X385903214Y-146352926D01*
X385911043Y-146338164D01*
X385918246Y-146322316D01*
X385924823Y-146305383D01*
X385930773Y-146287364D01*
X385936097Y-146268261D01*
X385940795Y-146248072D01*
X385944866Y-146226797D01*
X385948311Y-146204438D01*
X385951130Y-146180993D01*
X385953322Y-146156463D01*
X385954888Y-146130848D01*
X385955827Y-146104148D01*
X385956140Y-146076362D01*
X385956140Y-145456810D01*
X385964078Y-145449269D01*
X386130774Y-145449269D01*
G37*
G36*
X384542799Y-146478019D02*
G01*
X384559890Y-146477863D01*
X384576735Y-146477393D01*
X384593332Y-146476610D01*
X384609682Y-146475514D01*
X384625784Y-146474105D01*
X384641639Y-146472382D01*
X384672608Y-146467998D01*
X384702588Y-146462361D01*
X384731578Y-146455471D01*
X384759579Y-146447328D01*
X384786591Y-146437933D01*
X384812614Y-146427285D01*
X384837648Y-146415384D01*
X384861693Y-146402231D01*
X384884748Y-146387825D01*
X384906815Y-146372166D01*
X384927892Y-146355255D01*
X384947980Y-146337091D01*
X384967079Y-146317674D01*
X384985102Y-146297001D01*
X385001962Y-146275169D01*
X385017660Y-146252177D01*
X385032195Y-146228025D01*
X385045567Y-146202714D01*
X385057776Y-146176243D01*
X385068822Y-146148612D01*
X385078706Y-146119822D01*
X385087426Y-146089872D01*
X385091351Y-146074462D01*
X385094985Y-146058762D01*
X385098328Y-146042772D01*
X385101380Y-146026493D01*
X385104141Y-146009923D01*
X385106612Y-145993064D01*
X385108793Y-145975914D01*
X385110682Y-145958475D01*
X385112281Y-145940746D01*
X385113589Y-145922727D01*
X385114606Y-145904418D01*
X385115333Y-145885818D01*
X385115769Y-145866930D01*
X385115915Y-145847751D01*
X385115774Y-145828742D01*
X385115352Y-145810016D01*
X385114648Y-145791573D01*
X385113663Y-145773414D01*
X385112397Y-145755537D01*
X385110849Y-145737943D01*
X385109020Y-145720632D01*
X385106910Y-145703604D01*
X385104518Y-145686858D01*
X385101845Y-145670396D01*
X385098890Y-145654217D01*
X385095654Y-145638321D01*
X385092137Y-145622707D01*
X385084258Y-145592329D01*
X385075253Y-145563083D01*
X385065123Y-145534969D01*
X385053868Y-145507986D01*
X385041486Y-145482135D01*
X385027980Y-145457416D01*
X385013347Y-145433829D01*
X384997589Y-145411373D01*
X384980706Y-145390049D01*
X384971842Y-145379812D01*
X384953326Y-145360203D01*
X384933895Y-145341859D01*
X384913549Y-145324780D01*
X384892289Y-145308966D01*
X384870114Y-145294418D01*
X384847025Y-145281134D01*
X384823020Y-145269116D01*
X384798101Y-145258362D01*
X384772267Y-145248874D01*
X384745519Y-145240651D01*
X384717856Y-145233693D01*
X384689278Y-145228000D01*
X384659785Y-145223572D01*
X384629378Y-145220409D01*
X384598055Y-145218511D01*
X384582051Y-145218037D01*
X384565819Y-145217879D01*
X384543151Y-145218106D01*
X384520247Y-145218786D01*
X384497105Y-145219920D01*
X384473727Y-145221507D01*
X384450111Y-145223547D01*
X384434235Y-145225160D01*
X384418254Y-145226974D01*
X384402167Y-145228989D01*
X384385975Y-145231206D01*
X384369677Y-145233625D01*
X384353275Y-145236245D01*
X384336766Y-145239067D01*
X384320152Y-145242090D01*
X384311806Y-145243677D01*
X384294467Y-145248837D01*
X384278566Y-145256775D01*
X384264104Y-145267491D01*
X384252630Y-145279146D01*
X384251081Y-145280985D01*
X384241338Y-145294309D01*
X384233988Y-145308583D01*
X384229031Y-145323807D01*
X384226467Y-145339980D01*
X384226077Y-145349648D01*
X384227912Y-145365797D01*
X384234366Y-145381770D01*
X384245466Y-145395420D01*
X384255447Y-145403229D01*
X384270182Y-145411067D01*
X384287351Y-145415853D01*
X384305149Y-145416370D01*
X384317363Y-145414342D01*
X384339003Y-145409093D01*
X384360762Y-145404361D01*
X384382640Y-145400144D01*
X384404636Y-145396444D01*
X384426751Y-145393261D01*
X384448984Y-145390593D01*
X384471336Y-145388442D01*
X384493807Y-145386807D01*
X384516396Y-145385689D01*
X384539104Y-145385086D01*
X384554309Y-145384972D01*
X384576041Y-145385424D01*
X384597083Y-145386779D01*
X384617436Y-145389039D01*
X384637098Y-145392203D01*
X384656071Y-145396270D01*
X384674354Y-145401241D01*
X384691947Y-145407116D01*
X384708849Y-145413895D01*
X384725062Y-145421578D01*
X384740586Y-145430165D01*
X384755419Y-145439655D01*
X384769562Y-145450050D01*
X384783015Y-145461348D01*
X384795779Y-145473550D01*
X384807852Y-145486656D01*
X384819236Y-145500666D01*
X384829929Y-145515580D01*
X384839933Y-145531398D01*
X384849247Y-145548119D01*
X384857871Y-145565745D01*
X384865805Y-145584274D01*
X384873049Y-145603707D01*
X384879603Y-145624044D01*
X384885468Y-145645285D01*
X384890642Y-145667430D01*
X384895126Y-145690478D01*
X384898921Y-145714431D01*
X384902026Y-145739287D01*
X384904440Y-145765047D01*
X384906165Y-145791711D01*
X384907200Y-145819279D01*
X384907545Y-145847751D01*
X384907184Y-145877499D01*
X384906100Y-145906218D01*
X384904294Y-145933908D01*
X384901765Y-145960568D01*
X384898514Y-145986199D01*
X384894540Y-146010800D01*
X384889844Y-146034372D01*
X384884426Y-146056914D01*
X384878285Y-146078427D01*
X384871421Y-146098911D01*
X384863835Y-146118365D01*
X384855527Y-146136789D01*
X384846496Y-146154184D01*
X384836743Y-146170550D01*
X384826267Y-146185886D01*
X384815068Y-146200193D01*
X384803078Y-146213554D01*
X384790325Y-146226053D01*
X384776808Y-146237690D01*
X384762529Y-146248465D01*
X384747488Y-146258379D01*
X384731683Y-146267430D01*
X384715116Y-146275619D01*
X384697786Y-146282946D01*
X384679693Y-146289411D01*
X384660838Y-146295014D01*
X384641219Y-146299755D01*
X384620838Y-146303634D01*
X384599694Y-146306651D01*
X384577787Y-146308806D01*
X384555118Y-146310099D01*
X384531686Y-146310530D01*
X384508223Y-146310237D01*
X384485165Y-146309358D01*
X384462512Y-146307893D01*
X384440263Y-146305842D01*
X384418420Y-146303204D01*
X384396980Y-146299981D01*
X384375946Y-146296172D01*
X384355316Y-146291777D01*
X384335090Y-146286795D01*
X384315270Y-146281228D01*
X384302281Y-146277191D01*
X384285087Y-146273197D01*
X384268332Y-146274163D01*
X384252017Y-146280090D01*
X384243143Y-146285525D01*
X384230815Y-146296341D01*
X384221156Y-146310643D01*
X384215954Y-146327206D01*
X384214964Y-146339503D01*
X384216065Y-146355986D01*
X384219370Y-146371746D01*
X384224878Y-146386785D01*
X384232588Y-146401102D01*
X384237984Y-146408960D01*
X384248815Y-146421362D01*
X384261165Y-146431826D01*
X384275034Y-146440354D01*
X384290423Y-146446944D01*
X384299899Y-146449840D01*
X384320513Y-146454876D01*
X384341573Y-146459417D01*
X384363080Y-146463462D01*
X384385033Y-146467012D01*
X384407433Y-146470066D01*
X384430279Y-146472626D01*
X384453572Y-146474690D01*
X384477311Y-146476258D01*
X384493385Y-146477029D01*
X384509658Y-146477579D01*
X384526129Y-146477909D01*
X384542799Y-146478019D01*
G37*
G36*
X383731149Y-146426026D02*
G01*
X383744297Y-146437316D01*
X383758736Y-146445832D01*
X383774467Y-146451576D01*
X383791490Y-146454547D01*
X383801796Y-146455000D01*
X383819478Y-146453632D01*
X383836058Y-146449530D01*
X383851537Y-146442693D01*
X383865914Y-146433121D01*
X383873634Y-146426423D01*
X383885233Y-146413121D01*
X383893983Y-146398564D01*
X383899884Y-146382755D01*
X383902936Y-146365692D01*
X383903401Y-146355379D01*
X383903401Y-144814634D01*
X383901977Y-144796874D01*
X383897704Y-144780405D01*
X383890582Y-144765228D01*
X383880611Y-144751342D01*
X383873634Y-144743987D01*
X383859887Y-144732697D01*
X383845038Y-144724181D01*
X383829087Y-144718437D01*
X383812035Y-144715466D01*
X383801796Y-144715013D01*
X383784036Y-144716400D01*
X383767567Y-144720559D01*
X383752390Y-144727491D01*
X383738504Y-144737196D01*
X383731149Y-144743987D01*
X383719860Y-144757270D01*
X383711343Y-144771769D01*
X383705599Y-144787484D01*
X383702629Y-144804414D01*
X383702176Y-144814634D01*
X383702176Y-145431805D01*
X383712892Y-145429424D01*
X383717258Y-145423470D01*
X383706711Y-145410822D01*
X383696055Y-145398575D01*
X383685291Y-145386729D01*
X383663437Y-145364242D01*
X383641149Y-145343362D01*
X383618426Y-145324088D01*
X383595270Y-145306420D01*
X383571680Y-145290358D01*
X383547655Y-145275902D01*
X383523197Y-145263053D01*
X383498304Y-145251810D01*
X383472977Y-145242172D01*
X383447216Y-145234142D01*
X383421021Y-145227717D01*
X383394392Y-145222898D01*
X383367329Y-145219686D01*
X383339831Y-145218080D01*
X383325920Y-145217879D01*
X383299636Y-145218347D01*
X383274268Y-145219752D01*
X383249814Y-145222093D01*
X383226274Y-145225370D01*
X383203650Y-145229584D01*
X383181940Y-145234735D01*
X383161145Y-145240821D01*
X383141265Y-145247844D01*
X383122299Y-145255804D01*
X383104248Y-145264700D01*
X383087112Y-145274533D01*
X383070890Y-145285301D01*
X383055583Y-145297007D01*
X383041191Y-145309648D01*
X383027714Y-145323227D01*
X383015151Y-145337741D01*
X383003376Y-145353287D01*
X382992361Y-145370057D01*
X382982105Y-145388052D01*
X382972609Y-145407272D01*
X382963873Y-145427717D01*
X382955896Y-145449386D01*
X382948679Y-145472281D01*
X382942222Y-145496400D01*
X382936524Y-145521744D01*
X382931586Y-145548312D01*
X382927408Y-145576106D01*
X382923990Y-145605124D01*
X382921331Y-145635367D01*
X382919431Y-145666835D01*
X382918767Y-145683028D01*
X382918292Y-145699528D01*
X382918007Y-145716333D01*
X382917912Y-145733445D01*
X382917912Y-146355379D01*
X382919242Y-146373004D01*
X382923230Y-146389413D01*
X382929877Y-146404606D01*
X382939183Y-146418584D01*
X382945695Y-146426026D01*
X382958379Y-146437316D01*
X382972468Y-146445832D01*
X382987963Y-146451576D01*
X383004863Y-146454547D01*
X383015151Y-146455000D01*
X383032776Y-146453613D01*
X383049185Y-146449454D01*
X383064379Y-146442522D01*
X383078357Y-146432817D01*
X383085799Y-146426026D01*
X383097088Y-146412743D01*
X383105604Y-146398244D01*
X383111348Y-146382529D01*
X383114319Y-146365599D01*
X383114772Y-146355379D01*
X383114772Y-145763212D01*
X383114997Y-145735526D01*
X383115671Y-145709024D01*
X383116795Y-145683706D01*
X383118369Y-145659573D01*
X383120392Y-145636624D01*
X383122865Y-145614860D01*
X383125787Y-145594281D01*
X383129159Y-145574886D01*
X383132981Y-145556675D01*
X383137252Y-145539649D01*
X383141973Y-145523807D01*
X383149897Y-145502266D01*
X383158833Y-145483389D01*
X383168781Y-145467178D01*
X383172322Y-145462366D01*
X383183788Y-145448960D01*
X383196754Y-145436873D01*
X383211220Y-145426105D01*
X383227186Y-145416655D01*
X383244652Y-145408524D01*
X383263618Y-145401711D01*
X383284084Y-145396217D01*
X383306050Y-145392041D01*
X383329516Y-145389184D01*
X383345994Y-145388012D01*
X383363138Y-145387426D01*
X383371960Y-145387353D01*
X383393198Y-145388316D01*
X383414345Y-145391204D01*
X383435402Y-145396018D01*
X383456368Y-145402757D01*
X383477243Y-145411422D01*
X383498028Y-145422013D01*
X383511834Y-145430143D01*
X383525600Y-145439129D01*
X383539325Y-145448971D01*
X383553010Y-145459668D01*
X383566655Y-145471222D01*
X383580259Y-145483631D01*
X383593824Y-145496896D01*
X383606944Y-145510558D01*
X383619219Y-145524257D01*
X383630646Y-145537993D01*
X383641228Y-145551767D01*
X383650963Y-145565577D01*
X383659851Y-145579425D01*
X383667893Y-145593310D01*
X383678368Y-145614208D01*
X383686939Y-145635189D01*
X383693605Y-145656254D01*
X383698367Y-145677402D01*
X383701224Y-145698635D01*
X383702176Y-145719951D01*
X383702176Y-146355379D01*
X383703562Y-146373004D01*
X383707722Y-146389413D01*
X383714654Y-146404606D01*
X383724359Y-146418584D01*
X383731149Y-146426026D01*
G37*
G36*
X381949092Y-144941640D02*
G01*
X381966903Y-144939978D01*
X381983424Y-144934992D01*
X381998655Y-144926682D01*
X382012595Y-144915048D01*
X382022957Y-144902902D01*
X382031682Y-144887764D01*
X382037084Y-144871286D01*
X382039161Y-144853470D01*
X382039187Y-144851148D01*
X382037525Y-144833164D01*
X382032539Y-144816519D01*
X382024229Y-144801214D01*
X382012595Y-144787248D01*
X382000468Y-144776887D01*
X381985398Y-144768161D01*
X381969039Y-144762760D01*
X381951389Y-144760682D01*
X381949092Y-144760656D01*
X380929470Y-144760656D01*
X380911486Y-144762318D01*
X380894841Y-144767304D01*
X380879536Y-144775614D01*
X380865570Y-144787248D01*
X380855208Y-144799395D01*
X380846483Y-144814533D01*
X380841082Y-144831010D01*
X380839004Y-144848827D01*
X380838978Y-144851148D01*
X380840640Y-144869133D01*
X380845626Y-144885777D01*
X380853936Y-144901083D01*
X380865570Y-144915048D01*
X380877717Y-144925410D01*
X380892855Y-144934135D01*
X380909332Y-144939537D01*
X380927149Y-144941614D01*
X380929470Y-144941640D01*
X381327158Y-144941640D01*
X381335096Y-144949578D01*
X381335096Y-146351013D01*
X381336521Y-146368752D01*
X381340794Y-146385503D01*
X381347916Y-146401266D01*
X381357887Y-146416042D01*
X381364863Y-146424042D01*
X381378589Y-146436104D01*
X381393720Y-146445204D01*
X381410257Y-146451341D01*
X381428199Y-146454516D01*
X381439083Y-146455000D01*
X381455236Y-146453911D01*
X381472777Y-146449890D01*
X381488912Y-146442907D01*
X381503641Y-146432960D01*
X381513302Y-146424042D01*
X381524901Y-146409830D01*
X381533651Y-146394631D01*
X381539552Y-146378445D01*
X381542604Y-146361270D01*
X381543069Y-146351013D01*
X381543069Y-144949578D01*
X381551007Y-144941640D01*
X381949092Y-144941640D01*
G37*
G36*
X380340761Y-145218479D02*
G01*
X380370779Y-145220279D01*
X380399972Y-145223279D01*
X380428341Y-145227479D01*
X380455885Y-145232879D01*
X380482604Y-145239479D01*
X380508498Y-145247279D01*
X380533568Y-145256279D01*
X380557812Y-145266478D01*
X380581232Y-145277878D01*
X380603827Y-145290478D01*
X380625598Y-145304278D01*
X380646543Y-145319278D01*
X380666664Y-145335478D01*
X380685960Y-145352877D01*
X380704431Y-145371477D01*
X380713295Y-145381242D01*
X380730178Y-145401763D01*
X380745936Y-145423604D01*
X380760568Y-145446767D01*
X380774075Y-145471250D01*
X380786457Y-145497055D01*
X380797712Y-145524180D01*
X380807842Y-145552626D01*
X380816847Y-145582393D01*
X380820927Y-145597772D01*
X380824726Y-145613481D01*
X380828243Y-145629521D01*
X380831479Y-145645890D01*
X380834434Y-145662590D01*
X380837107Y-145679620D01*
X380839499Y-145696980D01*
X380841609Y-145714671D01*
X380843438Y-145732692D01*
X380844986Y-145751043D01*
X380846252Y-145769724D01*
X380847237Y-145788735D01*
X380847941Y-145808077D01*
X380848363Y-145827749D01*
X380848504Y-145847751D01*
X380848357Y-145867220D01*
X380847917Y-145886386D01*
X380847185Y-145905248D01*
X380846159Y-145923806D01*
X380844841Y-145942060D01*
X380843229Y-145960010D01*
X380841325Y-145977656D01*
X380839127Y-145994999D01*
X380836636Y-146012037D01*
X380833853Y-146028772D01*
X380830776Y-146045203D01*
X380827406Y-146061330D01*
X380823743Y-146077153D01*
X380819788Y-146092672D01*
X380810997Y-146122799D01*
X380801034Y-146151710D01*
X380789900Y-146179406D01*
X380777593Y-146205886D01*
X380764114Y-146231151D01*
X380749463Y-146255200D01*
X380733640Y-146278034D01*
X380716645Y-146299652D01*
X380698477Y-146320055D01*
X380679191Y-146339184D01*
X380658837Y-146357078D01*
X380637418Y-146373738D01*
X380614931Y-146389165D01*
X380591378Y-146403357D01*
X380566758Y-146416315D01*
X380541071Y-146428039D01*
X380514318Y-146438528D01*
X380486498Y-146447784D01*
X380457612Y-146455806D01*
X380427659Y-146462593D01*
X380396639Y-146468147D01*
X380380729Y-146470461D01*
X380364553Y-146472466D01*
X380348109Y-146474163D01*
X380331399Y-146475551D01*
X380314423Y-146476631D01*
X380297180Y-146477402D01*
X380279670Y-146477865D01*
X380261893Y-146478019D01*
X380244495Y-146477874D01*
X380227029Y-146477436D01*
X380209494Y-146476708D01*
X380191891Y-146475688D01*
X380174220Y-146474376D01*
X380156481Y-146472773D01*
X380138673Y-146470878D01*
X380120797Y-146468692D01*
X380102853Y-146466215D01*
X380084841Y-146463446D01*
X380066761Y-146460385D01*
X380048612Y-146457034D01*
X380030395Y-146453390D01*
X380012110Y-146449455D01*
X379993757Y-146445229D01*
X379975335Y-146440711D01*
X379956452Y-146434510D01*
X379940086Y-146426225D01*
X379926238Y-146415856D01*
X379914908Y-146403403D01*
X379906096Y-146388867D01*
X379899801Y-146372247D01*
X379896025Y-146353543D01*
X379894766Y-146332756D01*
X379895770Y-146320379D01*
X379901045Y-146303960D01*
X379910840Y-146290115D01*
X379923342Y-146279969D01*
X379934021Y-146274155D01*
X379950458Y-146269306D01*
X379967397Y-146269104D01*
X379982876Y-146272825D01*
X379999671Y-146278544D01*
X380016420Y-146283895D01*
X380033122Y-146288876D01*
X380049778Y-146293488D01*
X380066387Y-146297732D01*
X380082950Y-146301606D01*
X380099466Y-146305111D01*
X380115935Y-146308248D01*
X380132358Y-146311015D01*
X380148735Y-146313414D01*
X380165065Y-146315443D01*
X380181348Y-146317103D01*
X380197585Y-146318395D01*
X380213776Y-146319317D01*
X380229920Y-146319871D01*
X380246017Y-146320055D01*
X380269478Y-146319658D01*
X380292234Y-146318468D01*
X380314284Y-146316483D01*
X380335629Y-146313705D01*
X380356268Y-146310133D01*
X380376202Y-146305767D01*
X380395430Y-146300607D01*
X380413954Y-146294654D01*
X380431771Y-146287907D01*
X380448883Y-146280366D01*
X380465290Y-146272031D01*
X380480991Y-146262903D01*
X380495987Y-146252980D01*
X380510278Y-146242264D01*
X380523863Y-146230754D01*
X380536743Y-146218450D01*
X380548917Y-146205353D01*
X380560386Y-146191461D01*
X380571149Y-146176776D01*
X380581207Y-146161297D01*
X380590560Y-146145025D01*
X380599207Y-146127958D01*
X380607149Y-146110098D01*
X380614385Y-146091444D01*
X380620916Y-146071996D01*
X380626742Y-146051755D01*
X380631862Y-146030719D01*
X380636277Y-146008890D01*
X380639986Y-145986267D01*
X380642990Y-145962850D01*
X380645288Y-145938640D01*
X380646881Y-145913635D01*
X380641325Y-145906491D01*
X379964619Y-145906491D01*
X379957190Y-145906330D01*
X379939159Y-145904516D01*
X379921903Y-145900687D01*
X379905423Y-145894842D01*
X379889718Y-145886981D01*
X379874788Y-145877105D01*
X379860633Y-145865214D01*
X379855309Y-145859929D01*
X379843600Y-145846051D01*
X379834177Y-145831224D01*
X379827042Y-145815447D01*
X379822193Y-145798720D01*
X379819631Y-145781044D01*
X379819356Y-145762418D01*
X379820754Y-145740986D01*
X380016215Y-145740986D01*
X380021772Y-145746146D01*
X380636562Y-145746146D01*
X380644500Y-145740986D01*
X380642419Y-145718521D01*
X380639797Y-145696770D01*
X380636636Y-145675731D01*
X380632934Y-145655406D01*
X380628692Y-145635793D01*
X380623909Y-145616894D01*
X380618586Y-145598709D01*
X380612723Y-145581236D01*
X380606320Y-145564476D01*
X380599376Y-145548430D01*
X380591892Y-145533097D01*
X380583868Y-145518477D01*
X380575303Y-145504570D01*
X380566198Y-145491377D01*
X380546367Y-145467129D01*
X380524375Y-145445734D01*
X380500222Y-145427191D01*
X380473908Y-145411502D01*
X380445432Y-145398664D01*
X380430384Y-145393316D01*
X380414795Y-145388680D01*
X380398666Y-145384758D01*
X380381997Y-145381548D01*
X380364788Y-145379052D01*
X380347038Y-145377269D01*
X380328748Y-145376200D01*
X380309918Y-145375843D01*
X380292665Y-145376200D01*
X380275933Y-145377269D01*
X380259723Y-145379052D01*
X380244033Y-145381548D01*
X380214216Y-145388680D01*
X380186483Y-145398664D01*
X380160834Y-145411502D01*
X380137268Y-145427191D01*
X380115786Y-145445734D01*
X380096388Y-145467129D01*
X380079074Y-145491377D01*
X380063843Y-145518477D01*
X380057009Y-145533097D01*
X380050696Y-145548430D01*
X380044904Y-145564476D01*
X380039632Y-145581236D01*
X380034882Y-145598709D01*
X380030653Y-145616894D01*
X380026944Y-145635793D01*
X380023756Y-145655406D01*
X380021090Y-145675731D01*
X380018944Y-145696770D01*
X380017319Y-145718521D01*
X380016215Y-145740986D01*
X379820754Y-145740986D01*
X379821541Y-145728916D01*
X379824574Y-145696478D01*
X379828456Y-145665103D01*
X379833185Y-145634792D01*
X379838762Y-145605544D01*
X379845188Y-145577360D01*
X379852462Y-145550239D01*
X379860583Y-145524182D01*
X379869553Y-145499189D01*
X379879371Y-145475259D01*
X379890036Y-145452393D01*
X379901550Y-145430590D01*
X379913912Y-145409850D01*
X379927122Y-145390175D01*
X379941180Y-145371562D01*
X379956086Y-145354014D01*
X379971840Y-145337529D01*
X379988442Y-145322107D01*
X380005892Y-145307749D01*
X380024191Y-145294455D01*
X380043337Y-145282224D01*
X380063331Y-145271057D01*
X380084174Y-145260953D01*
X380105864Y-145251913D01*
X380128403Y-145243936D01*
X380151789Y-145237023D01*
X380176024Y-145231173D01*
X380201106Y-145226387D01*
X380227037Y-145222665D01*
X380253816Y-145220006D01*
X380281443Y-145218411D01*
X380309918Y-145217879D01*
X380340761Y-145218479D01*
G37*
G36*
X379189087Y-145921970D02*
G01*
X379216674Y-145915145D01*
X379243276Y-145908066D01*
X379268891Y-145900733D01*
X379293520Y-145893146D01*
X379317163Y-145885304D01*
X379339820Y-145877208D01*
X379361491Y-145868857D01*
X379382176Y-145860253D01*
X379401875Y-145851394D01*
X379420588Y-145842281D01*
X379438315Y-145832914D01*
X379455056Y-145823292D01*
X379470811Y-145813416D01*
X379485580Y-145803286D01*
X379499363Y-145792902D01*
X379512159Y-145782263D01*
X379524030Y-145771246D01*
X379535136Y-145759826D01*
X379550358Y-145741940D01*
X379563856Y-145723148D01*
X379575632Y-145703448D01*
X379585684Y-145682841D01*
X379594013Y-145661327D01*
X379600619Y-145638907D01*
X379605501Y-145615579D01*
X379607799Y-145599523D01*
X379609331Y-145583065D01*
X379610097Y-145566203D01*
X379610192Y-145557621D01*
X379609735Y-145538232D01*
X379608363Y-145519358D01*
X379606076Y-145500998D01*
X379602875Y-145483153D01*
X379598758Y-145465823D01*
X379593727Y-145449008D01*
X379587782Y-145432707D01*
X379580921Y-145416922D01*
X379573146Y-145401650D01*
X379564456Y-145386894D01*
X379554852Y-145372652D01*
X379544333Y-145358925D01*
X379532899Y-145345713D01*
X379520550Y-145333016D01*
X379507286Y-145320833D01*
X379493108Y-145309165D01*
X379478043Y-145298111D01*
X379462219Y-145287770D01*
X379445634Y-145278142D01*
X379428291Y-145269227D01*
X379410187Y-145261026D01*
X379391323Y-145253537D01*
X379371700Y-145246762D01*
X379351318Y-145240700D01*
X379330175Y-145235352D01*
X379308273Y-145230716D01*
X379285612Y-145226794D01*
X379262190Y-145223584D01*
X379238009Y-145221088D01*
X379213068Y-145219305D01*
X379187368Y-145218236D01*
X379160908Y-145217879D01*
X379141021Y-145218042D01*
X379121150Y-145218530D01*
X379101294Y-145219344D01*
X379081454Y-145220484D01*
X379061630Y-145221949D01*
X379041821Y-145223739D01*
X379022027Y-145225856D01*
X379002249Y-145228297D01*
X378982486Y-145231065D01*
X378962739Y-145234158D01*
X378943008Y-145237576D01*
X378923292Y-145241321D01*
X378903591Y-145245390D01*
X378883906Y-145249786D01*
X378864237Y-145254506D01*
X378844583Y-145259553D01*
X378825792Y-145265723D01*
X378809507Y-145273916D01*
X378795727Y-145284129D01*
X378784453Y-145296365D01*
X378775684Y-145310622D01*
X378769421Y-145326901D01*
X378765663Y-145345202D01*
X378764410Y-145365524D01*
X378766022Y-145381524D01*
X378771691Y-145396973D01*
X378781441Y-145409723D01*
X378790208Y-145416723D01*
X378805093Y-145424345D01*
X378821170Y-145428011D01*
X378838441Y-145427722D01*
X378848551Y-145425852D01*
X378867300Y-145420373D01*
X378886039Y-145415247D01*
X378904769Y-145410475D01*
X378923490Y-145406057D01*
X378942202Y-145401992D01*
X378960904Y-145398280D01*
X378979596Y-145394922D01*
X378998280Y-145391917D01*
X379016954Y-145389266D01*
X379035619Y-145386968D01*
X379054275Y-145385024D01*
X379072921Y-145383434D01*
X379091558Y-145382196D01*
X379110186Y-145381313D01*
X379128804Y-145380782D01*
X379147413Y-145380606D01*
X379163505Y-145380765D01*
X379194156Y-145382039D01*
X379222763Y-145384588D01*
X379249327Y-145388411D01*
X379273848Y-145393509D01*
X379296325Y-145399881D01*
X379316759Y-145407528D01*
X379335149Y-145416448D01*
X379351496Y-145426644D01*
X379365800Y-145438113D01*
X379378060Y-145450857D01*
X379388277Y-145464876D01*
X379396451Y-145480169D01*
X379402581Y-145496736D01*
X379406668Y-145514577D01*
X379408711Y-145533694D01*
X379408967Y-145543729D01*
X379408161Y-145561416D01*
X379405742Y-145578358D01*
X379401711Y-145594557D01*
X379396068Y-145610011D01*
X379388812Y-145624721D01*
X379379944Y-145638686D01*
X379369463Y-145651908D01*
X379357370Y-145664385D01*
X379343082Y-145676224D01*
X379326016Y-145687529D01*
X379311393Y-145695658D01*
X379295207Y-145703487D01*
X379277458Y-145711016D01*
X379258147Y-145718245D01*
X379237273Y-145725174D01*
X379214836Y-145731803D01*
X379199009Y-145736056D01*
X379182489Y-145740175D01*
X379165273Y-145744161D01*
X379149772Y-145747665D01*
X379119676Y-145754862D01*
X379090790Y-145762310D01*
X379063113Y-145770009D01*
X379036645Y-145777960D01*
X379011386Y-145786161D01*
X378987337Y-145794614D01*
X378964497Y-145803318D01*
X378942866Y-145812272D01*
X378922444Y-145821479D01*
X378903232Y-145830936D01*
X378885229Y-145840644D01*
X378868436Y-145850604D01*
X378852851Y-145860815D01*
X378838476Y-145871276D01*
X378825311Y-145881989D01*
X378819181Y-145887440D01*
X378807550Y-145898652D01*
X378796670Y-145910460D01*
X378786540Y-145922863D01*
X378777160Y-145935861D01*
X378768531Y-145949455D01*
X378760652Y-145963644D01*
X378753523Y-145978428D01*
X378747145Y-145993808D01*
X378741517Y-146009783D01*
X378736640Y-146026353D01*
X378732513Y-146043519D01*
X378729136Y-146061280D01*
X378726509Y-146079636D01*
X378724634Y-146098588D01*
X378723508Y-146118135D01*
X378723133Y-146138278D01*
X378723609Y-146157950D01*
X378725037Y-146177080D01*
X378727416Y-146195668D01*
X378730748Y-146213712D01*
X378735032Y-146231214D01*
X378740267Y-146248174D01*
X378746455Y-146264591D01*
X378753594Y-146280465D01*
X378761686Y-146295797D01*
X378770729Y-146310586D01*
X378780724Y-146324832D01*
X378791672Y-146338536D01*
X378803571Y-146351697D01*
X378816422Y-146364315D01*
X378830225Y-146376391D01*
X378844979Y-146387924D01*
X378860592Y-146398834D01*
X378876967Y-146409040D01*
X378894104Y-146418543D01*
X378912005Y-146427341D01*
X378930668Y-146435435D01*
X378950094Y-146442826D01*
X378970283Y-146449513D01*
X378991235Y-146455496D01*
X379012950Y-146460775D01*
X379035427Y-146465350D01*
X379058667Y-146469221D01*
X379082670Y-146472388D01*
X379107435Y-146474852D01*
X379132964Y-146476612D01*
X379159255Y-146477667D01*
X379186309Y-146478019D01*
X379207332Y-146477819D01*
X379228231Y-146477219D01*
X379249006Y-146476219D01*
X379269657Y-146474819D01*
X379290184Y-146473019D01*
X379310586Y-146470819D01*
X379330865Y-146468220D01*
X379351020Y-146465220D01*
X379371051Y-146461820D01*
X379390958Y-146458020D01*
X379410740Y-146453820D01*
X379430399Y-146449220D01*
X379449934Y-146444220D01*
X379469344Y-146438820D01*
X379488631Y-146433020D01*
X379507793Y-146426820D01*
X379526491Y-146419453D01*
X379542695Y-146410250D01*
X379556407Y-146399211D01*
X379567625Y-146386337D01*
X379576351Y-146371627D01*
X379582583Y-146355081D01*
X379586323Y-146336700D01*
X379587569Y-146316483D01*
X379585340Y-146299690D01*
X379578653Y-146285032D01*
X379567508Y-146272509D01*
X379559390Y-146266475D01*
X379544928Y-146259008D01*
X379528243Y-146255056D01*
X379511119Y-146255813D01*
X379499459Y-146258934D01*
X379481126Y-146265758D01*
X379462740Y-146272143D01*
X379444301Y-146278087D01*
X379425810Y-146283591D01*
X379407266Y-146288654D01*
X379388669Y-146293277D01*
X379370020Y-146297460D01*
X379351318Y-146301203D01*
X379332563Y-146304505D01*
X379313755Y-146307367D01*
X379294895Y-146309789D01*
X379275982Y-146311770D01*
X379257017Y-146313311D01*
X379237998Y-146314412D01*
X379218927Y-146315072D01*
X379199803Y-146315293D01*
X379182857Y-146315120D01*
X379166449Y-146314601D01*
X379150578Y-146313737D01*
X379120451Y-146310971D01*
X379092477Y-146306822D01*
X379066654Y-146301290D01*
X379042983Y-146294376D01*
X379021463Y-146286078D01*
X379002096Y-146276398D01*
X378984881Y-146265334D01*
X378969818Y-146252888D01*
X378956906Y-146239059D01*
X378946146Y-146223846D01*
X378937539Y-146207251D01*
X378931083Y-146189273D01*
X378926779Y-146169912D01*
X378924627Y-146149168D01*
X378924358Y-146138278D01*
X378925220Y-146119512D01*
X378927806Y-146101515D01*
X378932116Y-146084288D01*
X378938150Y-146067829D01*
X378945909Y-146052139D01*
X378955391Y-146037218D01*
X378966597Y-146023067D01*
X378979527Y-146009684D01*
X378994869Y-145996940D01*
X379008411Y-145987715D01*
X379023697Y-145978777D01*
X379040727Y-145970125D01*
X379059501Y-145961759D01*
X379080019Y-145953679D01*
X379102282Y-145945884D01*
X379118093Y-145940847D01*
X379134678Y-145935937D01*
X379152039Y-145931154D01*
X379170176Y-145926499D01*
X379189087Y-145921970D01*
G37*
G36*
X378467533Y-145449269D02*
G01*
X378484277Y-145447830D01*
X378499582Y-145443514D01*
X378515081Y-145435218D01*
X378525876Y-145426249D01*
X378535947Y-145413821D01*
X378543838Y-145398120D01*
X378547795Y-145382635D01*
X378548896Y-145367905D01*
X378547457Y-145351186D01*
X378542399Y-145334156D01*
X378533699Y-145319010D01*
X378525876Y-145309959D01*
X378513448Y-145299714D01*
X378497747Y-145291687D01*
X378482262Y-145287662D01*
X378467533Y-145286542D01*
X378300837Y-145286542D01*
X378292899Y-145278604D01*
X378292899Y-144951563D01*
X378291513Y-144933957D01*
X378287353Y-144917605D01*
X378280421Y-144902506D01*
X378270716Y-144888661D01*
X378263926Y-144881312D01*
X378250642Y-144870023D01*
X378236143Y-144861506D01*
X378220429Y-144855763D01*
X378203498Y-144852792D01*
X378193278Y-144852339D01*
X378175654Y-144853725D01*
X378159245Y-144857885D01*
X378144051Y-144864817D01*
X378130073Y-144874522D01*
X378122631Y-144881312D01*
X378111342Y-144894441D01*
X378102825Y-144908824D01*
X378097082Y-144924459D01*
X378094111Y-144941349D01*
X378093658Y-144951563D01*
X378093658Y-145278604D01*
X378085720Y-145286542D01*
X377742803Y-145286542D01*
X377726084Y-145288005D01*
X377709054Y-145293151D01*
X377693908Y-145302000D01*
X377684856Y-145309959D01*
X377674612Y-145322213D01*
X377666585Y-145337778D01*
X377662560Y-145353194D01*
X377661440Y-145367905D01*
X377662903Y-145384649D01*
X377667294Y-145399954D01*
X377675732Y-145415453D01*
X377684856Y-145426249D01*
X377698747Y-145437376D01*
X377714521Y-145444862D01*
X377730124Y-145448459D01*
X377742803Y-145449269D01*
X378085720Y-145449269D01*
X378093658Y-145456810D01*
X378093658Y-146060486D01*
X378093501Y-146080041D01*
X378093032Y-146098718D01*
X378092249Y-146116518D01*
X378091153Y-146133440D01*
X378089743Y-146149485D01*
X378087042Y-146171907D01*
X378083636Y-146192354D01*
X378079526Y-146210828D01*
X378074711Y-146227326D01*
X378067195Y-146246253D01*
X378058426Y-146261670D01*
X378053572Y-146268062D01*
X378039155Y-146281669D01*
X378024901Y-146290893D01*
X378008228Y-146298642D01*
X377989137Y-146304915D01*
X377973231Y-146308651D01*
X377955965Y-146311557D01*
X377937339Y-146313632D01*
X377917352Y-146314877D01*
X377896004Y-146315293D01*
X377878522Y-146315119D01*
X377861797Y-146314598D01*
X377845828Y-146313730D01*
X377826931Y-146312156D01*
X377809216Y-146310040D01*
X377792683Y-146307381D01*
X377777333Y-146304180D01*
X377760648Y-146302938D01*
X377744529Y-146305463D01*
X377728974Y-146311756D01*
X377720577Y-146316880D01*
X377707531Y-146328217D01*
X377698754Y-146341689D01*
X377694247Y-146357296D01*
X377693588Y-146366889D01*
X377694977Y-146384675D01*
X377699145Y-146401518D01*
X377706090Y-146417419D01*
X377715814Y-146432377D01*
X377727696Y-146445226D01*
X377741116Y-146455198D01*
X377756074Y-146462292D01*
X377772570Y-146466509D01*
X377788247Y-146469207D01*
X377804917Y-146471545D01*
X377822579Y-146473523D01*
X377841233Y-146475142D01*
X377860879Y-146476401D01*
X377881518Y-146477300D01*
X377897648Y-146477738D01*
X377914336Y-146477974D01*
X377925771Y-146478019D01*
X377951125Y-146477678D01*
X377975489Y-146476655D01*
X377998864Y-146474950D01*
X378021249Y-146472562D01*
X378042646Y-146469492D01*
X378063054Y-146465740D01*
X378082472Y-146461306D01*
X378100901Y-146456190D01*
X378118341Y-146450392D01*
X378134792Y-146443911D01*
X378150254Y-146436749D01*
X378164727Y-146428904D01*
X378178210Y-146420377D01*
X378196581Y-146406307D01*
X378212726Y-146390703D01*
X378227054Y-146373035D01*
X378239972Y-146352926D01*
X378247802Y-146338164D01*
X378255005Y-146322316D01*
X378261582Y-146305383D01*
X378267532Y-146287364D01*
X378272856Y-146268261D01*
X378277553Y-146248072D01*
X378281625Y-146226797D01*
X378285070Y-146204438D01*
X378287888Y-146180993D01*
X378290080Y-146156463D01*
X378291646Y-146130848D01*
X378292586Y-146104148D01*
X378292899Y-146076362D01*
X378292899Y-145456810D01*
X378300837Y-145449269D01*
X378467533Y-145449269D01*
G37*
G36*
X376944930Y-145218479D02*
G01*
X376974948Y-145220279D01*
X377004142Y-145223279D01*
X377032511Y-145227479D01*
X377060054Y-145232879D01*
X377086773Y-145239479D01*
X377112668Y-145247279D01*
X377137737Y-145256279D01*
X377161982Y-145266478D01*
X377185402Y-145277878D01*
X377207997Y-145290478D01*
X377229767Y-145304278D01*
X377250713Y-145319278D01*
X377270833Y-145335478D01*
X377290129Y-145352877D01*
X377308600Y-145371477D01*
X377317464Y-145381242D01*
X377334348Y-145401763D01*
X377350106Y-145423604D01*
X377364738Y-145446767D01*
X377378245Y-145471250D01*
X377390626Y-145497055D01*
X377401882Y-145524180D01*
X377412012Y-145552626D01*
X377421016Y-145582393D01*
X377425097Y-145597772D01*
X377428895Y-145613481D01*
X377432413Y-145629521D01*
X377435649Y-145645890D01*
X377438603Y-145662590D01*
X377441277Y-145679620D01*
X377443669Y-145696980D01*
X377445779Y-145714671D01*
X377447608Y-145732692D01*
X377449156Y-145751043D01*
X377450422Y-145769724D01*
X377451407Y-145788735D01*
X377452110Y-145808077D01*
X377452532Y-145827749D01*
X377452673Y-145847751D01*
X377452527Y-145867220D01*
X377452087Y-145886386D01*
X377451354Y-145905248D01*
X377450329Y-145923806D01*
X377449010Y-145942060D01*
X377447399Y-145960010D01*
X377445494Y-145977656D01*
X377443296Y-145994999D01*
X377440806Y-146012037D01*
X377438022Y-146028772D01*
X377434945Y-146045203D01*
X377431576Y-146061330D01*
X377427913Y-146077153D01*
X377423957Y-146092672D01*
X377415167Y-146122799D01*
X377405204Y-146151710D01*
X377394069Y-146179406D01*
X377381762Y-146205886D01*
X377368283Y-146231151D01*
X377353632Y-146255200D01*
X377337809Y-146278034D01*
X377320814Y-146299652D01*
X377302647Y-146320055D01*
X377283360Y-146339184D01*
X377263007Y-146357078D01*
X377241587Y-146373738D01*
X377219101Y-146389165D01*
X377195547Y-146403357D01*
X377170928Y-146416315D01*
X377145241Y-146428039D01*
X377118488Y-146438528D01*
X377090668Y-146447784D01*
X377061781Y-146455806D01*
X377031828Y-146462593D01*
X377000809Y-146468147D01*
X376984899Y-146470461D01*
X376968722Y-146472466D01*
X376952279Y-146474163D01*
X376935569Y-146475551D01*
X376918592Y-146476631D01*
X376901349Y-146477402D01*
X376883839Y-146477865D01*
X376866063Y-146478019D01*
X376848665Y-146477874D01*
X376831198Y-146477436D01*
X376813663Y-146476708D01*
X376796061Y-146475688D01*
X376778389Y-146474376D01*
X376760650Y-146472773D01*
X376742843Y-146470878D01*
X376724967Y-146468692D01*
X376707023Y-146466215D01*
X376689011Y-146463446D01*
X376670930Y-146460385D01*
X376652782Y-146457034D01*
X376634565Y-146453390D01*
X376616280Y-146449455D01*
X376597926Y-146445229D01*
X376579505Y-146440711D01*
X376560621Y-146434510D01*
X376544256Y-146426225D01*
X376530408Y-146415856D01*
X376519078Y-146403403D01*
X376510265Y-146388867D01*
X376503971Y-146372247D01*
X376500194Y-146353543D01*
X376498935Y-146332756D01*
X376499940Y-146320379D01*
X376505214Y-146303960D01*
X376515010Y-146290115D01*
X376527512Y-146279969D01*
X376538191Y-146274155D01*
X376554628Y-146269306D01*
X376571567Y-146269104D01*
X376587046Y-146272825D01*
X376603841Y-146278544D01*
X376620590Y-146283895D01*
X376637292Y-146288876D01*
X376653947Y-146293488D01*
X376670557Y-146297732D01*
X376687119Y-146301606D01*
X376703635Y-146305111D01*
X376720105Y-146308248D01*
X376736528Y-146311015D01*
X376752904Y-146313414D01*
X376769234Y-146315443D01*
X376785518Y-146317103D01*
X376801755Y-146318395D01*
X376817946Y-146319317D01*
X376834090Y-146319871D01*
X376850187Y-146320055D01*
X376873648Y-146319658D01*
X376896404Y-146318468D01*
X376918454Y-146316483D01*
X376939798Y-146313705D01*
X376960438Y-146310133D01*
X376980372Y-146305767D01*
X376999600Y-146300607D01*
X377018123Y-146294654D01*
X377035941Y-146287907D01*
X377053053Y-146280366D01*
X377069460Y-146272031D01*
X377085161Y-146262903D01*
X377100157Y-146252980D01*
X377114448Y-146242264D01*
X377128033Y-146230754D01*
X377140912Y-146218450D01*
X377153087Y-146205353D01*
X377164555Y-146191461D01*
X377175319Y-146176776D01*
X377185377Y-146161297D01*
X377194730Y-146145025D01*
X377203377Y-146127958D01*
X377211319Y-146110098D01*
X377218555Y-146091444D01*
X377225086Y-146071996D01*
X377230911Y-146051755D01*
X377236031Y-146030719D01*
X377240446Y-146008890D01*
X377244155Y-145986267D01*
X377247159Y-145962850D01*
X377249458Y-145938640D01*
X377251051Y-145913635D01*
X377245494Y-145906491D01*
X376568789Y-145906491D01*
X376561359Y-145906330D01*
X376543329Y-145904516D01*
X376526073Y-145900687D01*
X376509593Y-145894842D01*
X376493887Y-145886981D01*
X376478957Y-145877105D01*
X376464802Y-145865214D01*
X376459478Y-145859929D01*
X376447769Y-145846051D01*
X376438347Y-145831224D01*
X376431211Y-145815447D01*
X376426362Y-145798720D01*
X376423801Y-145781044D01*
X376423525Y-145762418D01*
X376424923Y-145740986D01*
X376620385Y-145740986D01*
X376625942Y-145746146D01*
X377240731Y-145746146D01*
X377248669Y-145740986D01*
X377246588Y-145718521D01*
X377243967Y-145696770D01*
X377240805Y-145675731D01*
X377237103Y-145655406D01*
X377232861Y-145635793D01*
X377228079Y-145616894D01*
X377222756Y-145598709D01*
X377216893Y-145581236D01*
X377210489Y-145564476D01*
X377203546Y-145548430D01*
X377196062Y-145533097D01*
X377188037Y-145518477D01*
X377179473Y-145504570D01*
X377170368Y-145491377D01*
X377150537Y-145467129D01*
X377128545Y-145445734D01*
X377104392Y-145427191D01*
X377078077Y-145411502D01*
X377049602Y-145398664D01*
X377034554Y-145393316D01*
X377018965Y-145388680D01*
X377002836Y-145384758D01*
X376986167Y-145381548D01*
X376968957Y-145379052D01*
X376951208Y-145377269D01*
X376932917Y-145376200D01*
X376914087Y-145375843D01*
X376896835Y-145376200D01*
X376880103Y-145377269D01*
X376863892Y-145379052D01*
X376848203Y-145381548D01*
X376818386Y-145388680D01*
X376790653Y-145398664D01*
X376765004Y-145411502D01*
X376741438Y-145427191D01*
X376719956Y-145445734D01*
X376700558Y-145467129D01*
X376683243Y-145491377D01*
X376668012Y-145518477D01*
X376661178Y-145533097D01*
X376654865Y-145548430D01*
X376649073Y-145564476D01*
X376643802Y-145581236D01*
X376639052Y-145598709D01*
X376634822Y-145616894D01*
X376631114Y-145635793D01*
X376627926Y-145655406D01*
X376625259Y-145675731D01*
X376623114Y-145696770D01*
X376621489Y-145718521D01*
X376620385Y-145740986D01*
X376424923Y-145740986D01*
X376425711Y-145728916D01*
X376428744Y-145696478D01*
X376432625Y-145665103D01*
X376437355Y-145634792D01*
X376442932Y-145605544D01*
X376449358Y-145577360D01*
X376456631Y-145550239D01*
X376464753Y-145524182D01*
X376473722Y-145499189D01*
X376483540Y-145475259D01*
X376494206Y-145452393D01*
X376505720Y-145430590D01*
X376518082Y-145409850D01*
X376531292Y-145390175D01*
X376545349Y-145371562D01*
X376560256Y-145354014D01*
X376576010Y-145337529D01*
X376592612Y-145322107D01*
X376610062Y-145307749D01*
X376628360Y-145294455D01*
X376647506Y-145282224D01*
X376667501Y-145271057D01*
X376688343Y-145260953D01*
X376710034Y-145251913D01*
X376732572Y-145243936D01*
X376755959Y-145237023D01*
X376780193Y-145231173D01*
X376805276Y-145226387D01*
X376831207Y-145222665D01*
X376857985Y-145220006D01*
X376885612Y-145218411D01*
X376914087Y-145217879D01*
X376944930Y-145218479D01*
G37*
G36*
X376002023Y-146424042D02*
G01*
X376015749Y-146436104D01*
X376030880Y-146445204D01*
X376047417Y-146451341D01*
X376065359Y-146454516D01*
X376076243Y-146455000D01*
X376092396Y-146453911D01*
X376109936Y-146449890D01*
X376126071Y-146442907D01*
X376140801Y-146432960D01*
X376150462Y-146424042D01*
X376162061Y-146409830D01*
X376170810Y-146394631D01*
X376176712Y-146378445D01*
X376179764Y-146361270D01*
X376180229Y-146351013D01*
X376180229Y-145340519D01*
X376178842Y-145322895D01*
X376174683Y-145306486D01*
X376167751Y-145291292D01*
X376158046Y-145277314D01*
X376151256Y-145269872D01*
X376137972Y-145258583D01*
X376123473Y-145250066D01*
X376107758Y-145244322D01*
X376090828Y-145241352D01*
X376080608Y-145240899D01*
X376062984Y-145242285D01*
X376046575Y-145246445D01*
X376031381Y-145253377D01*
X376017403Y-145263082D01*
X376009961Y-145269872D01*
X375998672Y-145283156D01*
X375990155Y-145297655D01*
X375984411Y-145313369D01*
X375981441Y-145330299D01*
X375980988Y-145340519D01*
X375980988Y-145516344D01*
X375991307Y-145506024D01*
X375999642Y-145510390D01*
X375990397Y-145495550D01*
X375980721Y-145481095D01*
X375970614Y-145467023D01*
X375960076Y-145453337D01*
X375949108Y-145440035D01*
X375937708Y-145427117D01*
X375925877Y-145414584D01*
X375913615Y-145402435D01*
X375900922Y-145390671D01*
X375887798Y-145379291D01*
X375874243Y-145368296D01*
X375860257Y-145357685D01*
X375845841Y-145347459D01*
X375830993Y-145337617D01*
X375815714Y-145328160D01*
X375800004Y-145319087D01*
X375783959Y-145310410D01*
X375767676Y-145302238D01*
X375751153Y-145294571D01*
X375734392Y-145287410D01*
X375717392Y-145280754D01*
X375700154Y-145274604D01*
X375682677Y-145268959D01*
X375664960Y-145263820D01*
X375647006Y-145259185D01*
X375628812Y-145255057D01*
X375610380Y-145251434D01*
X375591709Y-145248316D01*
X375572799Y-145245703D01*
X375553650Y-145243596D01*
X375534263Y-145241995D01*
X375514637Y-145240899D01*
X375498672Y-145241108D01*
X375481730Y-145244835D01*
X375466177Y-145252283D01*
X375452013Y-145263452D01*
X375450340Y-145265109D01*
X375439824Y-145277256D01*
X375430968Y-145292394D01*
X375425486Y-145308871D01*
X375423377Y-145326688D01*
X375423351Y-145329009D01*
X375424914Y-145345952D01*
X375429602Y-145361852D01*
X375437416Y-145376711D01*
X375448355Y-145390528D01*
X375461626Y-145402162D01*
X375476436Y-145410869D01*
X375492783Y-145416649D01*
X375510668Y-145419501D01*
X375537954Y-145421022D01*
X375564447Y-145423402D01*
X375590146Y-145426641D01*
X375615051Y-145430738D01*
X375639162Y-145435695D01*
X375662480Y-145441510D01*
X375685004Y-145448185D01*
X375706734Y-145455718D01*
X375727670Y-145464110D01*
X375747812Y-145473361D01*
X375767161Y-145483471D01*
X375785716Y-145494440D01*
X375803477Y-145506268D01*
X375820444Y-145518955D01*
X375836617Y-145532500D01*
X375851997Y-145546905D01*
X375866512Y-145562112D01*
X375880090Y-145578067D01*
X375892731Y-145594769D01*
X375904437Y-145612219D01*
X375915206Y-145630415D01*
X375925038Y-145649359D01*
X375933934Y-145669050D01*
X375941894Y-145689489D01*
X375948917Y-145710675D01*
X375955004Y-145732608D01*
X375960154Y-145755288D01*
X375964368Y-145778716D01*
X375967645Y-145802891D01*
X375969986Y-145827813D01*
X375971391Y-145853482D01*
X375971859Y-145879899D01*
X375971859Y-146351013D01*
X375973303Y-146368752D01*
X375977633Y-146385503D01*
X375984850Y-146401266D01*
X375994954Y-146416042D01*
X376002023Y-146424042D01*
G37*
G36*
X403459222Y-143631556D02*
G01*
X403497325Y-143631842D01*
X403535064Y-143632414D01*
X403572437Y-143633273D01*
X403609446Y-143634418D01*
X403646089Y-143635849D01*
X403700370Y-143638532D01*
X403753830Y-143641860D01*
X403806469Y-143645831D01*
X403858287Y-143650446D01*
X403909284Y-143655706D01*
X403959460Y-143661609D01*
X404008814Y-143668156D01*
X404025808Y-143670689D01*
X404066729Y-143680153D01*
X404105414Y-143694088D01*
X404141863Y-143712496D01*
X404176075Y-143735376D01*
X404208051Y-143762728D01*
X404237792Y-143794552D01*
X404248883Y-143808198D01*
X404273480Y-143843501D01*
X404293605Y-143880505D01*
X404309258Y-143919207D01*
X404320438Y-143959609D01*
X404327147Y-144001711D01*
X404329383Y-144045512D01*
X404329383Y-147231965D01*
X404329025Y-147249693D01*
X404325000Y-147292854D01*
X404316503Y-147334361D01*
X404303533Y-147374213D01*
X404286092Y-147412410D01*
X404264178Y-147448952D01*
X404237792Y-147483840D01*
X404226142Y-147496996D01*
X404195266Y-147526785D01*
X404161886Y-147552147D01*
X404126001Y-147573082D01*
X404087611Y-147589589D01*
X404046717Y-147601668D01*
X404003319Y-147609320D01*
X403983803Y-147611630D01*
X403945141Y-147616031D01*
X403906974Y-147620138D01*
X403869300Y-147623952D01*
X403832119Y-147627473D01*
X403795433Y-147630700D01*
X403741329Y-147634991D01*
X403688336Y-147638621D01*
X403636453Y-147641592D01*
X403585682Y-147643902D01*
X403536022Y-147645552D01*
X403487472Y-147646542D01*
X403440034Y-147646872D01*
X403323333Y-147644860D01*
X403210337Y-147638822D01*
X403101045Y-147628760D01*
X402995459Y-147614672D01*
X402893577Y-147596560D01*
X402795401Y-147574422D01*
X402700928Y-147548260D01*
X402610161Y-147518072D01*
X402523099Y-147483860D01*
X402439741Y-147445622D01*
X402360088Y-147403360D01*
X402284140Y-147357072D01*
X402211897Y-147306760D01*
X402143358Y-147252423D01*
X402078524Y-147194060D01*
X402017395Y-147131673D01*
X401959971Y-147065260D01*
X401906252Y-146994823D01*
X401856237Y-146920360D01*
X401809927Y-146841873D01*
X401767322Y-146759360D01*
X401728422Y-146672823D01*
X401693226Y-146582260D01*
X401661736Y-146487673D01*
X401633950Y-146389060D01*
X401609869Y-146286423D01*
X401589492Y-146179761D01*
X401572821Y-146069073D01*
X401559854Y-145954361D01*
X401550592Y-145835623D01*
X401545035Y-145712861D01*
X401543183Y-145586073D01*
X401860088Y-145586073D01*
X401860461Y-145643290D01*
X401861583Y-145699535D01*
X401863453Y-145754809D01*
X401866070Y-145809112D01*
X401869435Y-145862443D01*
X401873547Y-145914803D01*
X401878408Y-145966191D01*
X401884016Y-146016609D01*
X401890372Y-146066054D01*
X401897475Y-146114529D01*
X401905327Y-146162032D01*
X401913926Y-146208563D01*
X401923273Y-146254124D01*
X401933368Y-146298713D01*
X401944210Y-146342330D01*
X401955800Y-146384976D01*
X401968138Y-146426651D01*
X401981224Y-146467355D01*
X401995057Y-146507087D01*
X402009639Y-146545848D01*
X402024968Y-146583637D01*
X402041044Y-146620455D01*
X402057869Y-146656302D01*
X402075441Y-146691177D01*
X402093761Y-146725081D01*
X402112829Y-146758013D01*
X402132644Y-146789974D01*
X402153208Y-146820964D01*
X402196577Y-146880030D01*
X402242938Y-146935210D01*
X402292372Y-146986783D01*
X402345191Y-147035030D01*
X402401394Y-147079949D01*
X402460982Y-147121540D01*
X402492045Y-147141088D01*
X402523955Y-147159805D01*
X402556710Y-147177689D01*
X402590312Y-147194742D01*
X402624759Y-147210962D01*
X402660053Y-147226351D01*
X402696193Y-147240908D01*
X402733179Y-147254634D01*
X402771012Y-147267527D01*
X402809690Y-147279589D01*
X402849215Y-147290818D01*
X402889586Y-147301216D01*
X402930802Y-147310782D01*
X402972865Y-147319517D01*
X403015775Y-147327419D01*
X403059530Y-147334490D01*
X403104131Y-147340728D01*
X403149579Y-147346135D01*
X403195873Y-147350710D01*
X403243013Y-147354454D01*
X403290999Y-147357365D01*
X403339831Y-147359445D01*
X403389509Y-147360692D01*
X403440034Y-147361108D01*
X403472763Y-147360904D01*
X403522233Y-147359834D01*
X403572154Y-147357845D01*
X403622525Y-147354939D01*
X403673347Y-147351115D01*
X403724621Y-147346374D01*
X403776344Y-147340715D01*
X403828519Y-147334138D01*
X403881145Y-147326643D01*
X403934221Y-147318231D01*
X403987748Y-147308901D01*
X404006982Y-147285088D01*
X404006982Y-143992389D01*
X403987748Y-143968575D01*
X403952013Y-143962253D01*
X403898787Y-143953535D01*
X403846011Y-143945735D01*
X403793686Y-143938852D01*
X403741812Y-143932887D01*
X403690388Y-143927839D01*
X403639416Y-143923710D01*
X403588894Y-143920498D01*
X403538823Y-143918204D01*
X403489203Y-143916827D01*
X403440034Y-143916368D01*
X403389844Y-143916764D01*
X403340485Y-143917953D01*
X403291957Y-143919934D01*
X403244258Y-143922708D01*
X403197389Y-143926274D01*
X403151350Y-143930633D01*
X403106141Y-143935784D01*
X403061762Y-143941727D01*
X403018214Y-143948463D01*
X402975495Y-143955992D01*
X402933606Y-143964313D01*
X402892548Y-143973427D01*
X402852319Y-143983332D01*
X402812921Y-143994031D01*
X402774353Y-144005522D01*
X402736614Y-144017805D01*
X402699706Y-144030881D01*
X402663627Y-144044749D01*
X402628379Y-144059410D01*
X402593961Y-144074864D01*
X402560373Y-144091109D01*
X402527615Y-144108148D01*
X402464589Y-144144602D01*
X402404883Y-144184225D01*
X402348497Y-144227019D01*
X402295431Y-144272983D01*
X402245686Y-144322117D01*
X402221963Y-144347918D01*
X402176775Y-144402171D01*
X402134601Y-144459959D01*
X402095438Y-144521282D01*
X402076987Y-144553270D01*
X402059288Y-144586140D01*
X402042343Y-144619895D01*
X402026151Y-144654533D01*
X402010712Y-144690055D01*
X401996026Y-144726461D01*
X401982093Y-144763750D01*
X401968914Y-144801923D01*
X401956487Y-144840980D01*
X401944814Y-144880920D01*
X401933894Y-144921745D01*
X401923726Y-144963453D01*
X401914312Y-145006044D01*
X401905651Y-145049520D01*
X401897744Y-145093879D01*
X401890589Y-145139121D01*
X401884188Y-145185248D01*
X401878539Y-145232258D01*
X401873644Y-145280152D01*
X401869502Y-145328930D01*
X401866113Y-145378591D01*
X401863477Y-145429136D01*
X401861594Y-145480565D01*
X401860464Y-145532877D01*
X401860088Y-145586073D01*
X401543183Y-145586073D01*
X401545035Y-145465822D01*
X401550592Y-145349389D01*
X401559854Y-145236773D01*
X401572821Y-145127975D01*
X401589492Y-145022994D01*
X401609869Y-144921831D01*
X401633950Y-144824485D01*
X401661736Y-144730956D01*
X401693226Y-144641245D01*
X401728422Y-144555352D01*
X401767322Y-144473276D01*
X401809927Y-144395017D01*
X401856237Y-144320576D01*
X401906252Y-144249953D01*
X401959971Y-144183147D01*
X402017395Y-144120158D01*
X402078524Y-144060987D01*
X402143358Y-144005634D01*
X402211897Y-143954098D01*
X402284140Y-143906379D01*
X402360088Y-143862478D01*
X402439741Y-143822394D01*
X402523099Y-143786128D01*
X402610161Y-143753679D01*
X402700928Y-143725048D01*
X402795401Y-143700235D01*
X402893577Y-143679239D01*
X402995459Y-143662060D01*
X403101045Y-143648699D01*
X403210337Y-143639155D01*
X403323333Y-143633429D01*
X403440034Y-143631520D01*
X403459222Y-143631556D01*
G37*
G36*
X398664475Y-147297910D02*
G01*
X398708897Y-147340167D01*
X398755608Y-147379698D01*
X398804610Y-147416503D01*
X398855901Y-147450581D01*
X398909481Y-147481933D01*
X398965352Y-147510559D01*
X399023512Y-147536459D01*
X399083962Y-147559632D01*
X399146702Y-147580079D01*
X399211732Y-147597800D01*
X399279051Y-147612794D01*
X399348661Y-147625062D01*
X399420560Y-147634604D01*
X399457368Y-147638353D01*
X399494748Y-147641420D01*
X399532701Y-147643805D01*
X399571227Y-147645509D01*
X399610325Y-147646532D01*
X399649995Y-147646872D01*
X399689666Y-147646532D01*
X399728767Y-147645509D01*
X399767297Y-147643805D01*
X399805256Y-147641420D01*
X399842645Y-147638353D01*
X399879463Y-147634604D01*
X399951387Y-147625062D01*
X400021028Y-147612794D01*
X400088387Y-147597800D01*
X400153463Y-147580079D01*
X400216257Y-147559632D01*
X400276768Y-147536459D01*
X400334996Y-147510559D01*
X400390942Y-147481933D01*
X400444605Y-147450581D01*
X400495985Y-147416503D01*
X400545083Y-147379698D01*
X400591898Y-147340167D01*
X400636431Y-147297910D01*
X400678355Y-147253009D01*
X400717575Y-147205546D01*
X400754090Y-147155522D01*
X400787900Y-147102936D01*
X400819005Y-147047788D01*
X400847405Y-146990078D01*
X400873101Y-146929807D01*
X400896092Y-146866974D01*
X400916378Y-146801580D01*
X400933959Y-146733624D01*
X400948835Y-146663106D01*
X400955259Y-146626886D01*
X400961007Y-146590026D01*
X400966078Y-146552525D01*
X400970474Y-146514385D01*
X400974193Y-146475603D01*
X400977236Y-146436182D01*
X400979602Y-146396119D01*
X400981293Y-146355417D01*
X400982307Y-146314074D01*
X400982645Y-146272090D01*
X400982645Y-143844927D01*
X400977905Y-143806377D01*
X400963683Y-143770867D01*
X400939980Y-143738399D01*
X400934102Y-143732270D01*
X400905130Y-143708804D01*
X400869030Y-143691738D01*
X400833023Y-143684485D01*
X400815949Y-143683727D01*
X400777005Y-143688199D01*
X400741460Y-143701616D01*
X400709314Y-143723977D01*
X400703292Y-143729522D01*
X400677693Y-143760077D01*
X400661576Y-143795640D01*
X400655176Y-143831929D01*
X400654749Y-143844927D01*
X400654749Y-146282165D01*
X400653763Y-146348208D01*
X400650803Y-146412153D01*
X400645870Y-146474002D01*
X400638964Y-146533755D01*
X400630085Y-146591410D01*
X400619233Y-146646970D01*
X400606407Y-146700432D01*
X400591609Y-146751799D01*
X400574837Y-146801068D01*
X400556092Y-146848241D01*
X400535374Y-146893318D01*
X400512683Y-146936297D01*
X400488019Y-146977181D01*
X400461381Y-147015967D01*
X400432771Y-147052657D01*
X400402187Y-147087251D01*
X400369630Y-147119748D01*
X400335100Y-147150148D01*
X400298597Y-147178452D01*
X400260120Y-147204659D01*
X400219671Y-147228770D01*
X400177248Y-147250784D01*
X400132853Y-147270701D01*
X400086484Y-147288522D01*
X400038142Y-147304247D01*
X399987827Y-147317874D01*
X399935538Y-147329406D01*
X399881277Y-147338840D01*
X399825042Y-147346178D01*
X399766835Y-147351420D01*
X399706654Y-147354564D01*
X399644500Y-147355613D01*
X399582684Y-147354564D01*
X399522830Y-147351420D01*
X399464939Y-147346178D01*
X399409010Y-147338840D01*
X399355044Y-147329406D01*
X399303040Y-147317874D01*
X399252999Y-147304247D01*
X399204920Y-147288522D01*
X399158803Y-147270701D01*
X399114649Y-147250784D01*
X399072457Y-147228770D01*
X399032228Y-147204659D01*
X398993961Y-147178452D01*
X398957656Y-147150148D01*
X398923314Y-147119748D01*
X398890934Y-147087251D01*
X398860517Y-147052657D01*
X398832062Y-147015967D01*
X398805569Y-146977181D01*
X398781039Y-146936297D01*
X398758471Y-146893318D01*
X398737866Y-146848241D01*
X398719223Y-146801068D01*
X398702543Y-146751799D01*
X398687825Y-146700432D01*
X398675069Y-146646970D01*
X398664276Y-146591410D01*
X398655445Y-146533755D01*
X398648577Y-146474002D01*
X398643670Y-146412153D01*
X398640727Y-146348208D01*
X398639746Y-146282165D01*
X398639746Y-143844927D01*
X398636196Y-143807656D01*
X398623924Y-143770661D01*
X398602887Y-143738318D01*
X398594866Y-143729522D01*
X398563918Y-143705372D01*
X398528319Y-143690167D01*
X398488069Y-143683906D01*
X398479461Y-143683727D01*
X398441747Y-143687349D01*
X398404431Y-143699872D01*
X398371945Y-143721338D01*
X398363141Y-143729522D01*
X398338991Y-143760470D01*
X398323785Y-143796069D01*
X398317524Y-143836319D01*
X398317345Y-143844927D01*
X398317345Y-146272090D01*
X398317684Y-146314074D01*
X398318701Y-146355417D01*
X398320396Y-146396119D01*
X398322769Y-146436182D01*
X398325820Y-146475603D01*
X398329549Y-146514385D01*
X398333956Y-146552525D01*
X398339041Y-146590026D01*
X398344804Y-146626886D01*
X398351245Y-146663106D01*
X398366160Y-146733624D01*
X398383788Y-146801580D01*
X398404128Y-146866974D01*
X398427179Y-146929807D01*
X398452943Y-146990078D01*
X398481418Y-147047788D01*
X398512606Y-147102936D01*
X398546505Y-147155522D01*
X398583117Y-147205546D01*
X398622440Y-147253009D01*
X398664475Y-147297910D01*
G37*
G36*
X397188943Y-147593750D02*
G01*
X397229618Y-147591357D01*
X397268638Y-147584179D01*
X397306004Y-147572216D01*
X397341714Y-147555467D01*
X397375770Y-147533934D01*
X397408171Y-147507615D01*
X397420669Y-147495747D01*
X397448902Y-147464008D01*
X397472350Y-147430614D01*
X397491012Y-147395565D01*
X397504889Y-147358861D01*
X397513981Y-147320503D01*
X397518288Y-147280490D01*
X397518671Y-147264022D01*
X397518671Y-144014371D01*
X397516278Y-143973454D01*
X397509100Y-143934282D01*
X397497137Y-143896854D01*
X397480389Y-143861170D01*
X397458855Y-143827231D01*
X397432536Y-143795035D01*
X397420669Y-143782645D01*
X397388929Y-143754148D01*
X397355535Y-143730481D01*
X397320486Y-143711644D01*
X397283783Y-143697637D01*
X397245425Y-143688460D01*
X397205412Y-143684113D01*
X397188943Y-143683727D01*
X395421236Y-143683727D01*
X395382165Y-143688922D01*
X395348074Y-143704507D01*
X395321401Y-143727691D01*
X395298457Y-143759234D01*
X395285037Y-143794674D01*
X395281101Y-143830273D01*
X395285863Y-143868408D01*
X395300149Y-143902214D01*
X395321401Y-143929191D01*
X395351380Y-143952135D01*
X395385905Y-143965555D01*
X395421236Y-143969491D01*
X397177952Y-143969491D01*
X397196270Y-143987809D01*
X397196270Y-145316796D01*
X397177952Y-145335114D01*
X395526565Y-145335114D01*
X395488430Y-145339876D01*
X395454623Y-145354162D01*
X395427647Y-145375414D01*
X395404181Y-145405393D01*
X395390456Y-145439918D01*
X395386431Y-145475248D01*
X395391301Y-145513905D01*
X395405912Y-145548016D01*
X395427647Y-145575082D01*
X395457518Y-145598027D01*
X395491718Y-145611447D01*
X395526565Y-145615382D01*
X397177952Y-145615382D01*
X397196270Y-145628205D01*
X397196270Y-147289667D01*
X397177952Y-147307985D01*
X395421236Y-147307985D01*
X395382579Y-147312747D01*
X395348467Y-147327033D01*
X395321401Y-147348285D01*
X395298457Y-147378265D01*
X395285037Y-147412789D01*
X395281101Y-147448120D01*
X395285863Y-147486688D01*
X395300149Y-147521793D01*
X395321401Y-147550702D01*
X395350967Y-147575210D01*
X395385511Y-147589546D01*
X395421236Y-147593750D01*
X397188943Y-147593750D01*
G37*
G36*
X394467773Y-143974986D02*
G01*
X394506754Y-143969900D01*
X394541840Y-143954640D01*
X394570355Y-143931939D01*
X394594863Y-143900395D01*
X394609198Y-143864955D01*
X394613402Y-143829357D01*
X394608316Y-143790375D01*
X394593056Y-143755289D01*
X394570355Y-143726775D01*
X394538811Y-143702266D01*
X394503371Y-143687931D01*
X394467773Y-143683727D01*
X392030534Y-143683727D01*
X391991661Y-143688814D01*
X391956900Y-143704074D01*
X391928868Y-143726775D01*
X391904359Y-143758318D01*
X391890024Y-143793758D01*
X391885820Y-143829357D01*
X391890907Y-143868338D01*
X391906167Y-143903424D01*
X391928868Y-143931939D01*
X391959890Y-143956447D01*
X391995025Y-143970783D01*
X392030534Y-143974986D01*
X393070093Y-143974986D01*
X393088411Y-143992389D01*
X393088411Y-147432549D01*
X393092251Y-147470263D01*
X393105524Y-147507580D01*
X393128279Y-147540066D01*
X393136954Y-147548870D01*
X393168421Y-147572537D01*
X393203286Y-147587438D01*
X393241551Y-147593574D01*
X393249611Y-147593750D01*
X393288162Y-147589367D01*
X393323671Y-147576218D01*
X393356140Y-147554305D01*
X393362268Y-147548870D01*
X393387867Y-147517833D01*
X393403985Y-147481965D01*
X393410385Y-147445555D01*
X393410812Y-147432549D01*
X393410812Y-143992389D01*
X393429130Y-143974986D01*
X394467773Y-143974986D01*
G37*
D12*
X55267700Y-146691400D02*
X54943850Y-146691400D01*
X54943850Y-146367550D01*
X55267700Y-146367550D01*
X55267700Y-146691400D01*
G36*
X55267700Y-146691400D02*
G01*
X54943850Y-146691400D01*
X54943850Y-146367550D01*
X55267700Y-146367550D01*
X55267700Y-146691400D01*
G37*
X54943850Y-146062750D02*
X54620000Y-146062750D01*
X54620000Y-145738900D01*
X54943850Y-145738900D01*
X54943850Y-146062750D01*
G36*
X54943850Y-146062750D02*
G01*
X54620000Y-146062750D01*
X54620000Y-145738900D01*
X54943850Y-145738900D01*
X54943850Y-146062750D01*
G37*
X54620000Y-145415050D02*
X54315200Y-145415050D01*
X54315200Y-145110250D01*
X54620000Y-145110250D01*
X54620000Y-145415050D01*
G36*
X54620000Y-145415050D02*
G01*
X54315200Y-145415050D01*
X54315200Y-145110250D01*
X54620000Y-145110250D01*
X54620000Y-145415050D01*
G37*
X54315200Y-146062750D02*
X53991350Y-146062750D01*
X53991350Y-145738900D01*
X54315200Y-145738900D01*
X54315200Y-146062750D01*
G36*
X54315200Y-146062750D02*
G01*
X53991350Y-146062750D01*
X53991350Y-145738900D01*
X54315200Y-145738900D01*
X54315200Y-146062750D01*
G37*
X54315200Y-144786400D02*
X53991350Y-144786400D01*
X53991350Y-144462550D01*
X54315200Y-144462550D01*
X54315200Y-144786400D01*
G36*
X54315200Y-144786400D02*
G01*
X53991350Y-144786400D01*
X53991350Y-144462550D01*
X54315200Y-144462550D01*
X54315200Y-144786400D01*
G37*
X53991350Y-145415050D02*
X53667500Y-145415050D01*
X53667500Y-145110250D01*
X53991350Y-145110250D01*
X53991350Y-145415050D01*
G36*
X53991350Y-145415050D02*
G01*
X53667500Y-145415050D01*
X53667500Y-145110250D01*
X53991350Y-145110250D01*
X53991350Y-145415050D01*
G37*
X53667500Y-146062750D02*
X53362700Y-146062750D01*
X53362700Y-145738900D01*
X53667500Y-145738900D01*
X53667500Y-146062750D01*
G36*
X53667500Y-146062750D02*
G01*
X53362700Y-146062750D01*
X53362700Y-145738900D01*
X53667500Y-145738900D01*
X53667500Y-146062750D01*
G37*
X53362700Y-146691400D02*
X53038850Y-146691400D01*
X53038850Y-146367550D01*
X53362700Y-146367550D01*
X53362700Y-146691400D01*
G36*
X53362700Y-146691400D02*
G01*
X53038850Y-146691400D01*
X53038850Y-146367550D01*
X53362700Y-146367550D01*
X53362700Y-146691400D01*
G37*
X56521315Y-145653175D02*
X56521090Y-145697869D01*
X56519061Y-145792511D01*
X56514662Y-145878376D01*
X56507571Y-145958093D01*
X56497463Y-146034293D01*
X56484017Y-146109608D01*
X56466909Y-146186668D01*
X56445816Y-146268103D01*
X56436100Y-146302550D01*
X56381146Y-146469977D01*
X56315140Y-146631228D01*
X56238262Y-146786041D01*
X56150691Y-146934154D01*
X56052608Y-147075305D01*
X55944190Y-147209231D01*
X55825618Y-147335670D01*
X55697072Y-147454359D01*
X55558729Y-147565036D01*
X55437965Y-147649061D01*
X55291736Y-147736580D01*
X55139338Y-147813341D01*
X54981456Y-147879090D01*
X54818780Y-147933573D01*
X54651995Y-147976536D01*
X54481790Y-148007725D01*
X54308850Y-148026886D01*
X54308223Y-148026932D01*
X54292248Y-148027650D01*
X54266252Y-148028367D01*
X54232747Y-148029034D01*
X54194250Y-148029598D01*
X54153275Y-148030010D01*
X54080831Y-148029548D01*
X53956097Y-148023514D01*
X53832714Y-148010442D01*
X53707039Y-147989901D01*
X53575425Y-147961457D01*
X53509352Y-147944871D01*
X53436213Y-147924156D01*
X53366522Y-147901366D01*
X53295548Y-147874935D01*
X53218561Y-147843297D01*
X53169445Y-147822180D01*
X53125630Y-147802765D01*
X53087968Y-147785200D01*
X53053539Y-147768024D01*
X53019420Y-147749776D01*
X52982689Y-147728995D01*
X52940425Y-147704220D01*
X52794531Y-147610998D01*
X52654553Y-147507103D01*
X52523707Y-147394397D01*
X52401887Y-147272771D01*
X52288989Y-147142122D01*
X52184905Y-147002341D01*
X52089530Y-146853325D01*
X52066230Y-146813612D01*
X52045234Y-146776610D01*
X52026865Y-146742410D01*
X52009664Y-146708090D01*
X51992169Y-146670727D01*
X51972919Y-146627401D01*
X51950453Y-146575189D01*
X51899095Y-146444043D01*
X51847425Y-146280790D01*
X51808122Y-146114656D01*
X51781190Y-145945664D01*
X51766635Y-145773837D01*
X51764459Y-145599200D01*
X51764982Y-145578879D01*
X51765068Y-145577085D01*
X52191856Y-145577085D01*
X52192446Y-145731551D01*
X52205511Y-145886359D01*
X52231018Y-146041076D01*
X52268934Y-146195267D01*
X52319228Y-146348500D01*
X52329979Y-146375565D01*
X52348386Y-146417573D01*
X52370716Y-146465311D01*
X52395512Y-146515885D01*
X52421318Y-146566397D01*
X52446678Y-146613951D01*
X52470136Y-146655654D01*
X52490237Y-146688607D01*
X52576851Y-146813122D01*
X52674555Y-146934603D01*
X52778807Y-147045639D01*
X52890213Y-147146779D01*
X53009379Y-147238569D01*
X53136912Y-147321557D01*
X53273418Y-147396292D01*
X53350984Y-147433251D01*
X53488265Y-147489082D01*
X53627735Y-147533422D01*
X53771400Y-147566869D01*
X53921266Y-147590024D01*
X53974499Y-147595608D01*
X54121748Y-147603313D01*
X54268289Y-147599371D01*
X54415279Y-147583672D01*
X54563880Y-147556112D01*
X54715250Y-147516581D01*
X54767310Y-147500586D01*
X54818728Y-147483307D01*
X54866867Y-147465151D01*
X54915265Y-147444697D01*
X54967458Y-147420522D01*
X55026984Y-147391202D01*
X55063615Y-147372253D01*
X55192046Y-147297271D01*
X55315622Y-147211816D01*
X55432184Y-147117467D01*
X55539571Y-147015808D01*
X55557440Y-146997237D01*
X55662678Y-146877514D01*
X55756956Y-146751447D01*
X55840129Y-146619335D01*
X55912055Y-146481478D01*
X55972590Y-146338177D01*
X56021589Y-146189730D01*
X56058911Y-146036438D01*
X56084410Y-145878600D01*
X56087386Y-145850047D01*
X56091143Y-145796829D01*
X56093700Y-145736728D01*
X56095033Y-145672996D01*
X56095115Y-145608886D01*
X56093925Y-145547648D01*
X56091437Y-145492536D01*
X56087627Y-145446800D01*
X56080906Y-145391976D01*
X56061786Y-145273291D01*
X56036602Y-145160500D01*
X56004397Y-145050142D01*
X55964212Y-144938751D01*
X55915089Y-144822864D01*
X55887253Y-144764528D01*
X55820522Y-144644092D01*
X55743041Y-144526344D01*
X55656122Y-144412824D01*
X55561078Y-144305071D01*
X55459220Y-144204622D01*
X55351861Y-144113017D01*
X55240315Y-144031795D01*
X55159757Y-143980427D01*
X55023035Y-143904010D01*
X54884236Y-143839948D01*
X54742739Y-143788053D01*
X54597926Y-143748138D01*
X54449178Y-143720017D01*
X54295876Y-143703501D01*
X54137400Y-143698405D01*
X54087074Y-143699117D01*
X53937170Y-143708120D01*
X53792826Y-143727662D01*
X53652436Y-143758069D01*
X53514393Y-143799667D01*
X53377090Y-143852783D01*
X53261745Y-143906808D01*
X53126209Y-143982687D01*
X52997483Y-144068751D01*
X52876182Y-144164425D01*
X52762921Y-144269131D01*
X52658312Y-144382294D01*
X52562971Y-144503338D01*
X52477511Y-144631687D01*
X52402548Y-144766766D01*
X52372420Y-144828745D01*
X52329587Y-144926805D01*
X52293637Y-145024094D01*
X52262991Y-145125040D01*
X52236072Y-145234075D01*
X52228229Y-145270909D01*
X52203773Y-145423393D01*
X52191856Y-145577085D01*
X51765068Y-145577085D01*
X51770330Y-145466794D01*
X51780065Y-145361197D01*
X51794779Y-145257779D01*
X51815067Y-145152231D01*
X51841523Y-145040242D01*
X51880526Y-144905834D01*
X51937317Y-144751157D01*
X52005655Y-144599932D01*
X52084993Y-144453013D01*
X52174784Y-144311253D01*
X52274482Y-144175507D01*
X52383539Y-144046629D01*
X52501408Y-143925473D01*
X52627543Y-143812893D01*
X52749259Y-143718492D01*
X52891751Y-143623094D01*
X53041248Y-143538022D01*
X53197139Y-143463593D01*
X53358809Y-143400125D01*
X53525647Y-143347934D01*
X53561869Y-143338224D01*
X53641073Y-143318909D01*
X53717048Y-143303438D01*
X53792426Y-143291487D01*
X53869837Y-143282735D01*
X53951911Y-143276857D01*
X54041281Y-143273532D01*
X54140575Y-143272435D01*
X54149914Y-143272434D01*
X54243463Y-143273382D01*
X54327288Y-143276265D01*
X54404015Y-143281355D01*
X54476268Y-143288921D01*
X54546672Y-143299234D01*
X54617851Y-143312562D01*
X54692431Y-143329176D01*
X54717939Y-143335491D01*
X54783829Y-143353608D01*
X54854727Y-143375249D01*
X54927137Y-143399229D01*
X54997562Y-143424364D01*
X55062507Y-143449473D01*
X55118475Y-143473371D01*
X55123279Y-143475566D01*
X55209660Y-143517599D01*
X55298322Y-143565244D01*
X55386352Y-143616729D01*
X55470840Y-143670288D01*
X55548871Y-143724148D01*
X55617534Y-143776543D01*
X55703004Y-143848687D01*
X55832811Y-143970666D01*
X55951817Y-144098802D01*
X56059869Y-144232886D01*
X56156813Y-144372708D01*
X56242497Y-144518057D01*
X56316770Y-144668724D01*
X56379478Y-144824500D01*
X56392033Y-144859906D01*
X56426162Y-144962549D01*
X56454241Y-145058847D01*
X56476729Y-145151475D01*
X56494082Y-145243108D01*
X56506760Y-145336419D01*
X56515220Y-145434085D01*
X56519919Y-145538778D01*
X56520775Y-145608886D01*
X56521315Y-145653175D01*
G36*
X56521315Y-145653175D02*
G01*
X56521090Y-145697869D01*
X56519061Y-145792511D01*
X56514662Y-145878376D01*
X56507571Y-145958093D01*
X56497463Y-146034293D01*
X56484017Y-146109608D01*
X56466909Y-146186668D01*
X56445816Y-146268103D01*
X56436100Y-146302550D01*
X56381146Y-146469977D01*
X56315140Y-146631228D01*
X56238262Y-146786041D01*
X56150691Y-146934154D01*
X56052608Y-147075305D01*
X55944190Y-147209231D01*
X55825618Y-147335670D01*
X55697072Y-147454359D01*
X55558729Y-147565036D01*
X55437965Y-147649061D01*
X55291736Y-147736580D01*
X55139338Y-147813341D01*
X54981456Y-147879090D01*
X54818780Y-147933573D01*
X54651995Y-147976536D01*
X54481790Y-148007725D01*
X54308850Y-148026886D01*
X54308223Y-148026932D01*
X54292248Y-148027650D01*
X54266252Y-148028367D01*
X54232747Y-148029034D01*
X54194250Y-148029598D01*
X54153275Y-148030010D01*
X54080831Y-148029548D01*
X53956097Y-148023514D01*
X53832714Y-148010442D01*
X53707039Y-147989901D01*
X53575425Y-147961457D01*
X53509352Y-147944871D01*
X53436213Y-147924156D01*
X53366522Y-147901366D01*
X53295548Y-147874935D01*
X53218561Y-147843297D01*
X53169445Y-147822180D01*
X53125630Y-147802765D01*
X53087968Y-147785200D01*
X53053539Y-147768024D01*
X53019420Y-147749776D01*
X52982689Y-147728995D01*
X52940425Y-147704220D01*
X52794531Y-147610998D01*
X52654553Y-147507103D01*
X52523707Y-147394397D01*
X52401887Y-147272771D01*
X52288989Y-147142122D01*
X52184905Y-147002341D01*
X52089530Y-146853325D01*
X52066230Y-146813612D01*
X52045234Y-146776610D01*
X52026865Y-146742410D01*
X52009664Y-146708090D01*
X51992169Y-146670727D01*
X51972919Y-146627401D01*
X51950453Y-146575189D01*
X51899095Y-146444043D01*
X51847425Y-146280790D01*
X51808122Y-146114656D01*
X51781190Y-145945664D01*
X51766635Y-145773837D01*
X51764459Y-145599200D01*
X51764982Y-145578879D01*
X51765068Y-145577085D01*
X52191856Y-145577085D01*
X52192446Y-145731551D01*
X52205511Y-145886359D01*
X52231018Y-146041076D01*
X52268934Y-146195267D01*
X52319228Y-146348500D01*
X52329979Y-146375565D01*
X52348386Y-146417573D01*
X52370716Y-146465311D01*
X52395512Y-146515885D01*
X52421318Y-146566397D01*
X52446678Y-146613951D01*
X52470136Y-146655654D01*
X52490237Y-146688607D01*
X52576851Y-146813122D01*
X52674555Y-146934603D01*
X52778807Y-147045639D01*
X52890213Y-147146779D01*
X53009379Y-147238569D01*
X53136912Y-147321557D01*
X53273418Y-147396292D01*
X53350984Y-147433251D01*
X53488265Y-147489082D01*
X53627735Y-147533422D01*
X53771400Y-147566869D01*
X53921266Y-147590024D01*
X53974499Y-147595608D01*
X54121748Y-147603313D01*
X54268289Y-147599371D01*
X54415279Y-147583672D01*
X54563880Y-147556112D01*
X54715250Y-147516581D01*
X54767310Y-147500586D01*
X54818728Y-147483307D01*
X54866867Y-147465151D01*
X54915265Y-147444697D01*
X54967458Y-147420522D01*
X55026984Y-147391202D01*
X55063615Y-147372253D01*
X55192046Y-147297271D01*
X55315622Y-147211816D01*
X55432184Y-147117467D01*
X55539571Y-147015808D01*
X55557440Y-146997237D01*
X55662678Y-146877514D01*
X55756956Y-146751447D01*
X55840129Y-146619335D01*
X55912055Y-146481478D01*
X55972590Y-146338177D01*
X56021589Y-146189730D01*
X56058911Y-146036438D01*
X56084410Y-145878600D01*
X56087386Y-145850047D01*
X56091143Y-145796829D01*
X56093700Y-145736728D01*
X56095033Y-145672996D01*
X56095115Y-145608886D01*
X56093925Y-145547648D01*
X56091437Y-145492536D01*
X56087627Y-145446800D01*
X56080906Y-145391976D01*
X56061786Y-145273291D01*
X56036602Y-145160500D01*
X56004397Y-145050142D01*
X55964212Y-144938751D01*
X55915089Y-144822864D01*
X55887253Y-144764528D01*
X55820522Y-144644092D01*
X55743041Y-144526344D01*
X55656122Y-144412824D01*
X55561078Y-144305071D01*
X55459220Y-144204622D01*
X55351861Y-144113017D01*
X55240315Y-144031795D01*
X55159757Y-143980427D01*
X55023035Y-143904010D01*
X54884236Y-143839948D01*
X54742739Y-143788053D01*
X54597926Y-143748138D01*
X54449178Y-143720017D01*
X54295876Y-143703501D01*
X54137400Y-143698405D01*
X54087074Y-143699117D01*
X53937170Y-143708120D01*
X53792826Y-143727662D01*
X53652436Y-143758069D01*
X53514393Y-143799667D01*
X53377090Y-143852783D01*
X53261745Y-143906808D01*
X53126209Y-143982687D01*
X52997483Y-144068751D01*
X52876182Y-144164425D01*
X52762921Y-144269131D01*
X52658312Y-144382294D01*
X52562971Y-144503338D01*
X52477511Y-144631687D01*
X52402548Y-144766766D01*
X52372420Y-144828745D01*
X52329587Y-144926805D01*
X52293637Y-145024094D01*
X52262991Y-145125040D01*
X52236072Y-145234075D01*
X52228229Y-145270909D01*
X52203773Y-145423393D01*
X52191856Y-145577085D01*
X51765068Y-145577085D01*
X51770330Y-145466794D01*
X51780065Y-145361197D01*
X51794779Y-145257779D01*
X51815067Y-145152231D01*
X51841523Y-145040242D01*
X51880526Y-144905834D01*
X51937317Y-144751157D01*
X52005655Y-144599932D01*
X52084993Y-144453013D01*
X52174784Y-144311253D01*
X52274482Y-144175507D01*
X52383539Y-144046629D01*
X52501408Y-143925473D01*
X52627543Y-143812893D01*
X52749259Y-143718492D01*
X52891751Y-143623094D01*
X53041248Y-143538022D01*
X53197139Y-143463593D01*
X53358809Y-143400125D01*
X53525647Y-143347934D01*
X53561869Y-143338224D01*
X53641073Y-143318909D01*
X53717048Y-143303438D01*
X53792426Y-143291487D01*
X53869837Y-143282735D01*
X53951911Y-143276857D01*
X54041281Y-143273532D01*
X54140575Y-143272435D01*
X54149914Y-143272434D01*
X54243463Y-143273382D01*
X54327288Y-143276265D01*
X54404015Y-143281355D01*
X54476268Y-143288921D01*
X54546672Y-143299234D01*
X54617851Y-143312562D01*
X54692431Y-143329176D01*
X54717939Y-143335491D01*
X54783829Y-143353608D01*
X54854727Y-143375249D01*
X54927137Y-143399229D01*
X54997562Y-143424364D01*
X55062507Y-143449473D01*
X55118475Y-143473371D01*
X55123279Y-143475566D01*
X55209660Y-143517599D01*
X55298322Y-143565244D01*
X55386352Y-143616729D01*
X55470840Y-143670288D01*
X55548871Y-143724148D01*
X55617534Y-143776543D01*
X55703004Y-143848687D01*
X55832811Y-143970666D01*
X55951817Y-144098802D01*
X56059869Y-144232886D01*
X56156813Y-144372708D01*
X56242497Y-144518057D01*
X56316770Y-144668724D01*
X56379478Y-144824500D01*
X56392033Y-144859906D01*
X56426162Y-144962549D01*
X56454241Y-145058847D01*
X56476729Y-145151475D01*
X56494082Y-145243108D01*
X56506760Y-145336419D01*
X56515220Y-145434085D01*
X56519919Y-145538778D01*
X56520775Y-145608886D01*
X56521315Y-145653175D01*
G37*
D13*
X163681250Y-153593750D03*
X292268750Y-153593750D03*
X292268750Y-33731250D03*
X420856250Y-153593750D03*
X35093750Y-153593750D03*
X163681250Y-33731250D03*
X35093750Y-33731250D03*
X420856250Y-33731250D03*
%LPD*%
M02*
