%TF.GenerationSoftware,KiCad,Pcbnew,7.0.7*%
%TF.CreationDate,2023-09-25T11:38:33+09:00*%
%TF.ProjectId,Duet-Switch-Tester,44756574-2d53-4776-9974-63682d546573,rev?*%
%TF.SameCoordinates,Original*%
%TF.FileFunction,Copper,L1,Top*%
%TF.FilePolarity,Positive*%
%FSLAX46Y46*%
G04 Gerber Fmt 4.6, Leading zero omitted, Abs format (unit mm)*
G04 Created by KiCad (PCBNEW 7.0.7) date 2023-09-25 11:38:33*
%MOMM*%
%LPD*%
G01*
G04 APERTURE LIST*
G04 APERTURE END LIST*
%TA.AperFunction,NonConductor*%
G36*
X370766448Y-29975543D02*
G01*
X370789951Y-29975586D01*
X370828238Y-29976074D01*
X370830513Y-29976103D01*
X370864382Y-29977255D01*
X370892151Y-29979064D01*
X370900259Y-29979920D01*
X370912959Y-29981261D01*
X370915937Y-29981649D01*
X370920839Y-29982408D01*
X370930424Y-29983892D01*
X370933813Y-29984514D01*
X370944370Y-29986757D01*
X370948090Y-29987668D01*
X370957276Y-29990221D01*
X370961025Y-29991393D01*
X370963628Y-29992297D01*
X370967641Y-29993693D01*
X370971261Y-29995082D01*
X370972265Y-29995504D01*
X370977496Y-29997701D01*
X370981050Y-29999328D01*
X370987138Y-30002351D01*
X370990533Y-30004172D01*
X370995626Y-30007114D01*
X370997254Y-30008055D01*
X371000497Y-30010064D01*
X371008393Y-30015298D01*
X371011421Y-30017439D01*
X371023348Y-30026418D01*
X371027144Y-30029520D01*
X371032604Y-30034356D01*
X371038001Y-30039137D01*
X371040514Y-30041491D01*
X371049846Y-30050731D01*
X371052314Y-30053321D01*
X371062848Y-30065030D01*
X371065016Y-30067573D01*
X371069903Y-30073633D01*
X371071805Y-30076117D01*
X371077387Y-30083801D01*
X371079224Y-30086474D01*
X371083948Y-30093749D01*
X371085710Y-30096631D01*
X371090019Y-30104131D01*
X371092089Y-30108052D01*
X371093678Y-30111342D01*
X371095794Y-30115724D01*
X371097221Y-30118943D01*
X371098017Y-30120866D01*
X371098838Y-30122896D01*
X371099972Y-30125924D01*
X371102936Y-30134514D01*
X371104068Y-30138157D01*
X371104613Y-30140121D01*
X371106156Y-30145688D01*
X371106993Y-30149076D01*
X371108108Y-30154206D01*
X371109606Y-30161097D01*
X371110496Y-30166225D01*
X371113385Y-30188360D01*
X371113689Y-30191206D01*
X371115733Y-30215596D01*
X371117238Y-30247793D01*
X371118029Y-30287007D01*
X371118246Y-30333921D01*
X371118250Y-30348316D01*
X371118250Y-37346210D01*
X371118086Y-37349067D01*
X371118177Y-37399159D01*
X371117845Y-37405676D01*
X371117286Y-37411052D01*
X371117893Y-37458571D01*
X371116603Y-37472406D01*
X371117062Y-37472444D01*
X371116467Y-37479645D01*
X371118261Y-37532380D01*
X371116968Y-37551712D01*
X371116720Y-37556541D01*
X371120477Y-37614226D01*
X371119735Y-37638034D01*
X371119318Y-37641283D01*
X371125889Y-37703507D01*
X371126187Y-37726314D01*
X371125640Y-37733213D01*
X371125641Y-37733219D01*
X371136051Y-37800458D01*
X371136439Y-37803438D01*
X371137098Y-37809690D01*
X371137424Y-37817652D01*
X371137099Y-37831549D01*
X371150623Y-37895205D01*
X371151247Y-37898605D01*
X371153870Y-37915549D01*
X371154554Y-37922651D01*
X371155035Y-37935135D01*
X371155036Y-37935140D01*
X371171801Y-37995448D01*
X371172713Y-37999169D01*
X371177332Y-38020910D01*
X371176994Y-38020981D01*
X371179503Y-38034451D01*
X371180125Y-38040536D01*
X371200459Y-38099015D01*
X371201632Y-38102768D01*
X371208059Y-38125882D01*
X371209484Y-38132311D01*
X371211062Y-38141786D01*
X371211063Y-38141792D01*
X371235119Y-38199065D01*
X371236518Y-38202712D01*
X371244151Y-38224663D01*
X371245984Y-38231002D01*
X371248253Y-38240776D01*
X371275831Y-38296311D01*
X371277462Y-38299874D01*
X371286424Y-38321209D01*
X371288657Y-38327436D01*
X371291494Y-38336907D01*
X371291495Y-38336911D01*
X371322591Y-38390755D01*
X371324432Y-38394187D01*
X371334391Y-38414243D01*
X371337044Y-38420401D01*
X371340436Y-38429615D01*
X371340437Y-38429616D01*
X371340438Y-38429618D01*
X371341588Y-38431353D01*
X371375060Y-38481842D01*
X371377075Y-38485095D01*
X371387605Y-38503328D01*
X371390714Y-38509477D01*
X371394638Y-38518442D01*
X371432739Y-38569050D01*
X371434872Y-38572065D01*
X371436677Y-38574786D01*
X371439547Y-38579116D01*
X371443615Y-38586228D01*
X371446601Y-38592358D01*
X371457583Y-38605774D01*
X371463646Y-38613181D01*
X371476974Y-38633127D01*
X371478252Y-38635511D01*
X371478253Y-38635512D01*
X371506777Y-38667717D01*
X371508976Y-38670409D01*
X371509612Y-38671158D01*
X371509616Y-38671162D01*
X371509619Y-38671166D01*
X371512611Y-38674303D01*
X371518704Y-38681182D01*
X371522770Y-38685774D01*
X371535790Y-38703397D01*
X371541050Y-38712017D01*
X371541054Y-38712023D01*
X371586872Y-38758293D01*
X371589216Y-38760794D01*
X371595783Y-38768210D01*
X371599426Y-38772323D01*
X371603992Y-38778144D01*
X371610547Y-38787613D01*
X371610552Y-38787619D01*
X371610553Y-38787620D01*
X371658353Y-38830622D01*
X371660934Y-38833083D01*
X371666492Y-38838696D01*
X371673136Y-38845405D01*
X371678079Y-38851042D01*
X371683778Y-38858393D01*
X371728819Y-38894711D01*
X371745044Y-38910439D01*
X371750066Y-38916285D01*
X371759075Y-38922831D01*
X371798462Y-38951450D01*
X371815273Y-38966151D01*
X371816666Y-38967611D01*
X371821243Y-38972406D01*
X371859699Y-38997383D01*
X371873078Y-39006072D01*
X371890430Y-39019679D01*
X371897474Y-39026295D01*
X371897475Y-39026296D01*
X371922262Y-39040532D01*
X371944430Y-39053264D01*
X371964336Y-39067480D01*
X371965131Y-39068176D01*
X371965133Y-39068177D01*
X371978391Y-39075184D01*
X371998667Y-39088596D01*
X371999885Y-39089586D01*
X371999888Y-39089588D01*
X371999892Y-39089591D01*
X371999895Y-39089592D01*
X371999896Y-39089593D01*
X372046782Y-39112235D01*
X372050697Y-39114301D01*
X372057486Y-39118200D01*
X372057493Y-39118203D01*
X372060709Y-39119809D01*
X372060614Y-39119997D01*
X372060618Y-39119999D01*
X372060588Y-39120050D01*
X372060560Y-39120105D01*
X372080011Y-39131114D01*
X372085804Y-39135295D01*
X372145341Y-39159939D01*
X372148529Y-39161368D01*
X372152292Y-39163185D01*
X372154923Y-39164457D01*
X372161127Y-39167907D01*
X372173921Y-39176015D01*
X372210941Y-39188784D01*
X372233665Y-39196622D01*
X372237161Y-39197947D01*
X372256831Y-39206089D01*
X372263002Y-39209052D01*
X372272263Y-39214149D01*
X372332618Y-39230878D01*
X372336273Y-39232014D01*
X372343458Y-39234491D01*
X372349483Y-39236570D01*
X372356044Y-39239262D01*
X372365965Y-39244015D01*
X372421780Y-39256144D01*
X372444206Y-39263305D01*
X372448171Y-39265001D01*
X372485111Y-39271397D01*
X372507925Y-39277639D01*
X372511600Y-39279033D01*
X372511602Y-39279033D01*
X372511606Y-39279035D01*
X372575415Y-39287363D01*
X372597917Y-39292466D01*
X372603585Y-39294321D01*
X372662261Y-39299233D01*
X372686110Y-39303609D01*
X372687840Y-39304106D01*
X372741043Y-39306592D01*
X372756436Y-39308915D01*
X372756462Y-39308731D01*
X372763622Y-39309714D01*
X372763624Y-39309714D01*
X372763628Y-39309715D01*
X372814695Y-39310743D01*
X372820922Y-39311184D01*
X372830332Y-39312328D01*
X372830342Y-39312331D01*
X372866823Y-39312498D01*
X372867492Y-39312502D01*
X372868734Y-39312560D01*
X372875074Y-39312857D01*
X372875091Y-39312855D01*
X372881874Y-39312778D01*
X372885605Y-39312975D01*
X372887928Y-39312975D01*
X372887930Y-39312976D01*
X372902264Y-39312979D01*
X372902617Y-39313000D01*
X372926638Y-39313000D01*
X372934462Y-39313157D01*
X372950108Y-39313473D01*
X372950108Y-39313472D01*
X372950110Y-39313473D01*
X372952049Y-39313285D01*
X372958000Y-39313000D01*
X372974978Y-39313000D01*
X372975164Y-39313000D01*
X373016057Y-39313190D01*
X373016071Y-39313188D01*
X373017814Y-39313095D01*
X373021162Y-39313006D01*
X373025100Y-39313006D01*
X373037292Y-39313010D01*
X373037295Y-39313009D01*
X373038893Y-39313010D01*
X373039255Y-39313000D01*
X384152460Y-39313000D01*
X384155342Y-39313165D01*
X384157419Y-39313161D01*
X384157423Y-39313162D01*
X384205441Y-39313072D01*
X384211969Y-39313405D01*
X384217296Y-39313958D01*
X384217310Y-39313962D01*
X384264812Y-39313355D01*
X384278646Y-39314646D01*
X384278685Y-39314186D01*
X384285888Y-39314780D01*
X384285890Y-39314781D01*
X384285891Y-39314780D01*
X384285892Y-39314781D01*
X384290057Y-39314639D01*
X384338631Y-39312986D01*
X384357839Y-39314273D01*
X384362785Y-39314526D01*
X384362793Y-39314528D01*
X384420475Y-39310770D01*
X384444306Y-39311515D01*
X384447535Y-39311930D01*
X384509769Y-39305358D01*
X384532581Y-39305062D01*
X384539468Y-39305608D01*
X384606680Y-39295201D01*
X384609606Y-39294819D01*
X384611260Y-39294642D01*
X384615910Y-39294151D01*
X384623863Y-39293822D01*
X384637799Y-39294149D01*
X384701456Y-39280623D01*
X384704825Y-39280004D01*
X384721799Y-39277376D01*
X384728895Y-39276693D01*
X384741377Y-39276215D01*
X384801721Y-39259440D01*
X384805395Y-39258540D01*
X384823630Y-39254667D01*
X384823633Y-39254665D01*
X384827168Y-39253915D01*
X384827242Y-39254266D01*
X384840702Y-39251745D01*
X384846795Y-39251122D01*
X384905276Y-39230785D01*
X384908999Y-39229621D01*
X384926254Y-39224826D01*
X384926255Y-39224825D01*
X384932169Y-39223182D01*
X384938597Y-39221758D01*
X384941070Y-39221346D01*
X384948041Y-39220186D01*
X385005341Y-39196117D01*
X385008913Y-39194747D01*
X385026064Y-39188784D01*
X385026069Y-39188781D01*
X385030917Y-39187096D01*
X385037259Y-39185263D01*
X385039326Y-39184782D01*
X385047026Y-39182995D01*
X385102597Y-39155399D01*
X385106111Y-39153791D01*
X385122741Y-39146807D01*
X385122747Y-39146803D01*
X385127470Y-39144820D01*
X385133679Y-39142593D01*
X385143161Y-39139754D01*
X385197010Y-39108654D01*
X385200438Y-39106816D01*
X385216723Y-39098730D01*
X385216728Y-39098726D01*
X385220507Y-39096850D01*
X385226641Y-39094207D01*
X385235868Y-39090811D01*
X385288116Y-39056171D01*
X385291313Y-39054191D01*
X385307474Y-39044859D01*
X385307482Y-39044852D01*
X385309579Y-39043642D01*
X385315727Y-39040534D01*
X385324689Y-39036612D01*
X385375313Y-38998497D01*
X385378343Y-38996356D01*
X385385368Y-38991699D01*
X385392461Y-38987644D01*
X385398588Y-38984661D01*
X385419421Y-38967606D01*
X385439375Y-38954274D01*
X385441767Y-38952993D01*
X385473996Y-38924446D01*
X385476637Y-38922290D01*
X385477401Y-38921640D01*
X385477416Y-38921630D01*
X385480534Y-38918655D01*
X385492024Y-38908478D01*
X385509658Y-38895449D01*
X385518273Y-38890195D01*
X385518740Y-38889732D01*
X385564536Y-38844383D01*
X385567051Y-38842027D01*
X385577148Y-38833083D01*
X385578573Y-38831820D01*
X385584388Y-38827258D01*
X385593870Y-38820696D01*
X385636871Y-38772894D01*
X385639309Y-38770336D01*
X385651660Y-38758107D01*
X385657284Y-38753175D01*
X385664644Y-38747470D01*
X385700964Y-38702425D01*
X385716692Y-38686201D01*
X385722535Y-38681183D01*
X385757705Y-38632778D01*
X385772404Y-38615972D01*
X385778656Y-38610006D01*
X385812324Y-38558166D01*
X385825936Y-38540811D01*
X385826217Y-38540511D01*
X385832545Y-38533775D01*
X385859510Y-38486825D01*
X385873732Y-38466913D01*
X385874412Y-38466137D01*
X385881427Y-38452864D01*
X385894846Y-38432580D01*
X385895844Y-38431353D01*
X385918501Y-38384431D01*
X385920535Y-38380577D01*
X385924450Y-38373763D01*
X385924455Y-38373749D01*
X385924459Y-38373744D01*
X385926067Y-38370526D01*
X385926254Y-38370619D01*
X385926256Y-38370618D01*
X385926287Y-38370636D01*
X385926367Y-38370675D01*
X385937365Y-38351234D01*
X385941545Y-38345445D01*
X385966168Y-38285958D01*
X385967621Y-38282714D01*
X385970689Y-38276359D01*
X385974149Y-38270133D01*
X385982265Y-38257328D01*
X386002881Y-38197556D01*
X386004190Y-38194100D01*
X386011546Y-38176333D01*
X386011547Y-38176326D01*
X386012340Y-38174413D01*
X386015312Y-38168228D01*
X386020399Y-38158986D01*
X386035981Y-38102768D01*
X386037129Y-38098628D01*
X386038265Y-38094972D01*
X386042819Y-38081768D01*
X386045511Y-38075206D01*
X386050265Y-38065284D01*
X386062393Y-38009473D01*
X386069560Y-37987032D01*
X386071250Y-37983082D01*
X386077647Y-37946137D01*
X386083890Y-37923318D01*
X386085285Y-37919642D01*
X386093612Y-37855836D01*
X386098721Y-37833315D01*
X386099299Y-37831549D01*
X386100571Y-37827664D01*
X386105483Y-37768985D01*
X386109863Y-37745125D01*
X386110356Y-37743409D01*
X386112842Y-37690203D01*
X386115166Y-37674806D01*
X386114981Y-37674781D01*
X386115964Y-37667623D01*
X386115965Y-37667621D01*
X386116993Y-37616557D01*
X386117434Y-37610332D01*
X386118579Y-37600913D01*
X386118581Y-37600907D01*
X386118752Y-37563752D01*
X386119107Y-37556175D01*
X386119105Y-37556157D01*
X386119028Y-37549372D01*
X386119225Y-37545644D01*
X386119227Y-37539703D01*
X386119229Y-37529009D01*
X386119250Y-37528661D01*
X386119250Y-37504609D01*
X386119723Y-37481141D01*
X386119723Y-37481140D01*
X386119536Y-37479200D01*
X386119250Y-37473248D01*
X386119250Y-37456204D01*
X386119344Y-37435878D01*
X386119440Y-37415192D01*
X386119437Y-37415173D01*
X386119345Y-37413442D01*
X386119256Y-37410093D01*
X386119257Y-37405676D01*
X386119260Y-37393958D01*
X386119259Y-37393954D01*
X386119260Y-37392347D01*
X386119250Y-37391984D01*
X386119250Y-33731250D01*
X419250801Y-33731250D01*
X419270567Y-33982401D01*
X419329376Y-34227360D01*
X419425783Y-34460109D01*
X419557410Y-34674903D01*
X419557411Y-34674906D01*
X419557414Y-34674909D01*
X419721026Y-34866474D01*
X419869316Y-34993125D01*
X419912593Y-35030088D01*
X419912596Y-35030089D01*
X420127390Y-35161716D01*
X420360139Y-35258122D01*
X420360139Y-35258123D01*
X420605102Y-35316933D01*
X420761200Y-35329218D01*
X420793366Y-35331750D01*
X420793368Y-35331750D01*
X420919134Y-35331750D01*
X420948768Y-35329417D01*
X421107398Y-35316933D01*
X421352361Y-35258123D01*
X421585109Y-35161716D01*
X421799909Y-35030086D01*
X421991474Y-34866474D01*
X422155086Y-34674909D01*
X422286716Y-34460109D01*
X422383123Y-34227361D01*
X422441933Y-33982398D01*
X422461699Y-33731250D01*
X422441933Y-33480102D01*
X422383123Y-33235139D01*
X422286716Y-33002391D01*
X422286716Y-33002390D01*
X422155089Y-32787596D01*
X422155088Y-32787593D01*
X422118125Y-32744316D01*
X421991474Y-32596026D01*
X421864821Y-32487854D01*
X421799906Y-32432411D01*
X421799903Y-32432410D01*
X421585109Y-32300783D01*
X421352360Y-32204376D01*
X421107400Y-32145567D01*
X420919134Y-32130750D01*
X420919132Y-32130750D01*
X420793368Y-32130750D01*
X420793366Y-32130750D01*
X420605099Y-32145567D01*
X420360139Y-32204376D01*
X420127390Y-32300783D01*
X419912596Y-32432410D01*
X419912593Y-32432411D01*
X419721026Y-32596026D01*
X419557411Y-32787593D01*
X419557410Y-32787596D01*
X419425783Y-33002390D01*
X419329376Y-33235139D01*
X419270567Y-33480098D01*
X419250801Y-33731250D01*
X386119250Y-33731250D01*
X386119250Y-30350803D01*
X386119336Y-30303797D01*
X386119853Y-30263235D01*
X386121005Y-30229366D01*
X386122814Y-30201597D01*
X386125011Y-30180788D01*
X386125399Y-30177809D01*
X386127642Y-30163325D01*
X386128265Y-30159931D01*
X386130504Y-30149390D01*
X386131410Y-30145688D01*
X386133975Y-30136462D01*
X386135145Y-30132716D01*
X386135150Y-30132704D01*
X386137438Y-30126119D01*
X386138825Y-30122503D01*
X386141458Y-30116232D01*
X386143057Y-30112741D01*
X386146102Y-30106608D01*
X386147927Y-30103206D01*
X386151808Y-30096486D01*
X386153804Y-30093264D01*
X386159061Y-30085335D01*
X386161172Y-30082347D01*
X386170179Y-30070385D01*
X386173255Y-30066621D01*
X386182891Y-30055742D01*
X386185245Y-30053229D01*
X386194506Y-30043876D01*
X386197071Y-30041433D01*
X386208780Y-30030899D01*
X386211310Y-30028741D01*
X386217415Y-30023819D01*
X386219839Y-30021963D01*
X386227564Y-30016350D01*
X386230206Y-30014534D01*
X386237502Y-30009796D01*
X386240357Y-30008050D01*
X386247894Y-30003721D01*
X386251792Y-30001663D01*
X386259376Y-29998001D01*
X386262618Y-29996557D01*
X386264452Y-29995798D01*
X386266352Y-29995022D01*
X386269585Y-29993805D01*
X386269939Y-29993683D01*
X386278263Y-29990811D01*
X386281876Y-29989688D01*
X386289480Y-29987581D01*
X386292813Y-29986757D01*
X386304840Y-29984143D01*
X386309961Y-29983253D01*
X386332162Y-29980356D01*
X386334941Y-29980058D01*
X386352077Y-29978623D01*
X386359350Y-29978015D01*
X386384355Y-29976846D01*
X386391543Y-29976510D01*
X386430810Y-29975719D01*
X386454197Y-29975611D01*
X386477586Y-29975503D01*
X386495764Y-29975500D01*
X421963814Y-29975500D01*
X422041690Y-29975516D01*
X422118813Y-29975635D01*
X422194086Y-29975955D01*
X422267212Y-29976567D01*
X422287106Y-29976846D01*
X422338016Y-29977560D01*
X422406685Y-29979015D01*
X422472929Y-29981002D01*
X422537012Y-29983596D01*
X422598608Y-29986844D01*
X422641087Y-29989683D01*
X422657845Y-29990803D01*
X422714578Y-29995504D01*
X422743784Y-29998451D01*
X422768827Y-30000978D01*
X422820563Y-30007241D01*
X422869685Y-30014285D01*
X422916274Y-30022116D01*
X422920086Y-30022860D01*
X422960903Y-30030828D01*
X422986277Y-30036493D01*
X422997758Y-30039057D01*
X423033291Y-30048016D01*
X423033291Y-30048017D01*
X423067014Y-30057578D01*
X423098808Y-30067674D01*
X423128816Y-30078310D01*
X423138986Y-30082321D01*
X423157020Y-30089434D01*
X423183536Y-30101040D01*
X423208409Y-30113093D01*
X423231861Y-30125652D01*
X423256357Y-30140121D01*
X423265164Y-30145760D01*
X423288883Y-30162289D01*
X423291351Y-30164101D01*
X423309460Y-30178097D01*
X423311863Y-30180053D01*
X423317318Y-30184722D01*
X423328840Y-30194585D01*
X423331115Y-30196634D01*
X423334862Y-30200182D01*
X423347076Y-30211749D01*
X423349284Y-30213947D01*
X423364476Y-30229856D01*
X423366540Y-30232129D01*
X423381118Y-30249020D01*
X423383069Y-30251398D01*
X423397124Y-30269430D01*
X423398950Y-30271896D01*
X423414571Y-30294123D01*
X423425312Y-30310919D01*
X423436654Y-30330214D01*
X423446579Y-30348604D01*
X423461021Y-30378212D01*
X423462184Y-30380738D01*
X423475830Y-30412229D01*
X423484745Y-30435108D01*
X423494023Y-30461250D01*
X423502918Y-30488824D01*
X423511402Y-30517846D01*
X423519016Y-30546668D01*
X423529720Y-30592558D01*
X423539174Y-30639715D01*
X423547728Y-30689813D01*
X423555375Y-30742966D01*
X423562095Y-30799098D01*
X423567901Y-30858223D01*
X423572808Y-30920279D01*
X423576853Y-30985182D01*
X423580090Y-31052926D01*
X423582578Y-31123307D01*
X423584403Y-31196505D01*
X423585652Y-31272282D01*
X423586424Y-31350576D01*
X423586826Y-31431320D01*
X423586978Y-31514935D01*
X423587000Y-31600173D01*
X423587000Y-155724826D01*
X423586981Y-155804477D01*
X423586863Y-155881312D01*
X423586543Y-155956587D01*
X423585931Y-156029712D01*
X423584938Y-156100576D01*
X423583486Y-156169098D01*
X423581496Y-156235429D01*
X423580847Y-156251460D01*
X423578902Y-156299518D01*
X423575654Y-156361105D01*
X423571695Y-156420345D01*
X423571462Y-156423161D01*
X423566994Y-156477081D01*
X423561520Y-156531323D01*
X423555262Y-156583028D01*
X423548213Y-156632182D01*
X423540377Y-156678804D01*
X423531676Y-156723375D01*
X423529653Y-156732438D01*
X423523442Y-156760256D01*
X423514481Y-156795791D01*
X423504920Y-156829514D01*
X423494822Y-156861313D01*
X423493956Y-156863757D01*
X423484186Y-156891319D01*
X423473065Y-156919517D01*
X423473065Y-156919518D01*
X423461462Y-156946031D01*
X423449396Y-156970929D01*
X423446394Y-156976535D01*
X423436861Y-156994335D01*
X423422376Y-157018859D01*
X423416730Y-157027676D01*
X423400198Y-157051398D01*
X423398387Y-157053864D01*
X423384404Y-157071955D01*
X423382449Y-157074357D01*
X423367931Y-157091319D01*
X423365848Y-157093632D01*
X423350746Y-157109579D01*
X423348544Y-157111791D01*
X423332645Y-157126972D01*
X423330337Y-157129067D01*
X423313496Y-157143602D01*
X423311103Y-157145566D01*
X423293073Y-157159619D01*
X423290609Y-157161444D01*
X423268362Y-157177080D01*
X423251589Y-157187805D01*
X423232286Y-157199153D01*
X423224058Y-157203594D01*
X423213895Y-157209079D01*
X423208120Y-157211896D01*
X423184292Y-157223518D01*
X423181767Y-157224680D01*
X423158090Y-157234940D01*
X423150251Y-157238338D01*
X423127386Y-157247247D01*
X423101256Y-157256520D01*
X423073672Y-157265418D01*
X423044659Y-157273898D01*
X423044660Y-157273899D01*
X423015823Y-157281518D01*
X422969943Y-157292219D01*
X422946369Y-157296944D01*
X422922795Y-157301671D01*
X422897726Y-157305951D01*
X422872658Y-157310231D01*
X422819532Y-157317875D01*
X422763397Y-157324596D01*
X422763398Y-157324597D01*
X422704277Y-157330401D01*
X422642215Y-157335309D01*
X422609767Y-157337331D01*
X422577319Y-157339353D01*
X422512482Y-157342451D01*
X422509573Y-157342590D01*
X422439189Y-157345078D01*
X422365993Y-157346903D01*
X422290216Y-157348152D01*
X422211922Y-157348924D01*
X422131178Y-157349326D01*
X422047562Y-157349478D01*
X421962122Y-157349500D01*
X33987368Y-157349500D01*
X33908021Y-157349481D01*
X33831186Y-157349363D01*
X33755911Y-157349043D01*
X33682786Y-157348431D01*
X33611922Y-157347438D01*
X33543400Y-157345986D01*
X33508501Y-157344939D01*
X33477069Y-157343996D01*
X33412980Y-157341402D01*
X33351393Y-157338154D01*
X33351392Y-157338154D01*
X33292153Y-157334195D01*
X33235417Y-157329494D01*
X33181175Y-157324020D01*
X33181174Y-157324020D01*
X33129435Y-157317757D01*
X33080316Y-157310713D01*
X33033716Y-157302881D01*
X33027517Y-157301671D01*
X32989105Y-157294173D01*
X32952246Y-157285943D01*
X32934699Y-157281518D01*
X32916706Y-157276980D01*
X32882985Y-157267420D01*
X32865582Y-157261894D01*
X32851185Y-157257322D01*
X32843332Y-157254538D01*
X32821179Y-157246686D01*
X32792980Y-157235565D01*
X32766467Y-157223962D01*
X32741569Y-157211896D01*
X32718162Y-157199361D01*
X32693623Y-157184865D01*
X32684834Y-157179239D01*
X32661114Y-157162708D01*
X32658644Y-157160895D01*
X32640532Y-157146895D01*
X32638131Y-157144942D01*
X32621179Y-157130431D01*
X32618866Y-157128348D01*
X32606098Y-157116257D01*
X32602907Y-157113235D01*
X32600718Y-157111056D01*
X32585519Y-157095139D01*
X32583429Y-157092836D01*
X32568891Y-157075991D01*
X32566928Y-157073599D01*
X32552878Y-157055573D01*
X32551051Y-157053106D01*
X32535426Y-157030873D01*
X32524683Y-157014075D01*
X32513344Y-156994785D01*
X32513101Y-156994335D01*
X32503419Y-156976395D01*
X32488969Y-156946771D01*
X32487816Y-156944265D01*
X32474160Y-156912751D01*
X32465251Y-156889886D01*
X32455978Y-156863757D01*
X32447080Y-156836173D01*
X32438599Y-156807162D01*
X32430983Y-156778332D01*
X32420278Y-156732438D01*
X32410827Y-156685296D01*
X32409718Y-156678803D01*
X32402267Y-156635159D01*
X32400045Y-156619715D01*
X32394623Y-156582032D01*
X32387901Y-156525898D01*
X32382097Y-156466777D01*
X32377189Y-156404716D01*
X32373145Y-156339819D01*
X32369908Y-156272073D01*
X32367420Y-156201690D01*
X32365595Y-156128493D01*
X32364346Y-156052716D01*
X32363574Y-155974422D01*
X32363172Y-155893678D01*
X32363020Y-155809627D01*
X32363000Y-155724826D01*
X32363000Y-153593750D01*
X33488301Y-153593750D01*
X33508067Y-153844901D01*
X33566876Y-154089860D01*
X33663283Y-154322609D01*
X33794910Y-154537403D01*
X33794911Y-154537406D01*
X33794914Y-154537409D01*
X33958526Y-154728974D01*
X34106816Y-154855625D01*
X34150093Y-154892588D01*
X34150096Y-154892589D01*
X34364890Y-155024216D01*
X34597638Y-155120623D01*
X34597639Y-155120623D01*
X34842602Y-155179433D01*
X34998700Y-155191718D01*
X35030866Y-155194250D01*
X35030868Y-155194250D01*
X35156634Y-155194250D01*
X35186268Y-155191917D01*
X35344898Y-155179433D01*
X35589861Y-155120623D01*
X35822609Y-155024216D01*
X36037409Y-154892586D01*
X36228974Y-154728974D01*
X36392586Y-154537409D01*
X36524216Y-154322609D01*
X36620623Y-154089861D01*
X36679433Y-153844898D01*
X36699199Y-153593750D01*
X162075801Y-153593750D01*
X162095567Y-153844901D01*
X162154376Y-154089860D01*
X162250783Y-154322609D01*
X162382410Y-154537403D01*
X162382411Y-154537406D01*
X162382414Y-154537409D01*
X162546026Y-154728974D01*
X162694316Y-154855625D01*
X162737593Y-154892588D01*
X162737596Y-154892589D01*
X162952390Y-155024216D01*
X163185139Y-155120623D01*
X163430102Y-155179433D01*
X163586200Y-155191718D01*
X163618366Y-155194250D01*
X163618368Y-155194250D01*
X163744134Y-155194250D01*
X163773768Y-155191917D01*
X163932398Y-155179433D01*
X164177361Y-155120623D01*
X164410109Y-155024216D01*
X164624909Y-154892586D01*
X164816474Y-154728974D01*
X164980086Y-154537409D01*
X165111716Y-154322609D01*
X165208123Y-154089861D01*
X165266933Y-153844898D01*
X165286699Y-153593750D01*
X290663301Y-153593750D01*
X290683067Y-153844901D01*
X290741876Y-154089860D01*
X290838283Y-154322609D01*
X290969910Y-154537403D01*
X290969911Y-154537406D01*
X290969914Y-154537409D01*
X291133526Y-154728974D01*
X291281816Y-154855625D01*
X291325093Y-154892588D01*
X291325096Y-154892589D01*
X291539890Y-155024216D01*
X291772639Y-155120623D01*
X292017602Y-155179433D01*
X292173700Y-155191718D01*
X292205866Y-155194250D01*
X292205868Y-155194250D01*
X292331634Y-155194250D01*
X292361267Y-155191917D01*
X292519898Y-155179433D01*
X292764861Y-155120623D01*
X292997609Y-155024216D01*
X293212409Y-154892586D01*
X293403974Y-154728974D01*
X293567586Y-154537409D01*
X293699216Y-154322609D01*
X293795623Y-154089861D01*
X293854433Y-153844898D01*
X293874199Y-153593750D01*
X419250801Y-153593750D01*
X419270567Y-153844901D01*
X419329376Y-154089860D01*
X419425783Y-154322609D01*
X419557410Y-154537403D01*
X419557411Y-154537406D01*
X419557414Y-154537409D01*
X419721026Y-154728974D01*
X419869316Y-154855625D01*
X419912593Y-154892588D01*
X419912596Y-154892589D01*
X420127390Y-155024216D01*
X420360138Y-155120623D01*
X420360139Y-155120623D01*
X420605102Y-155179433D01*
X420761200Y-155191718D01*
X420793366Y-155194250D01*
X420793368Y-155194250D01*
X420919134Y-155194250D01*
X420948768Y-155191917D01*
X421107398Y-155179433D01*
X421352361Y-155120623D01*
X421585109Y-155024216D01*
X421799909Y-154892586D01*
X421991474Y-154728974D01*
X422155086Y-154537409D01*
X422286716Y-154322609D01*
X422383123Y-154089861D01*
X422441933Y-153844898D01*
X422461699Y-153593750D01*
X422441933Y-153342602D01*
X422383123Y-153097639D01*
X422286716Y-152864891D01*
X422286716Y-152864890D01*
X422155089Y-152650096D01*
X422155088Y-152650093D01*
X422118125Y-152606816D01*
X421991474Y-152458526D01*
X421864821Y-152350354D01*
X421799906Y-152294911D01*
X421799903Y-152294910D01*
X421585109Y-152163283D01*
X421352360Y-152066876D01*
X421107400Y-152008067D01*
X420919134Y-151993250D01*
X420919132Y-151993250D01*
X420793368Y-151993250D01*
X420793366Y-151993250D01*
X420605099Y-152008067D01*
X420360139Y-152066876D01*
X420127390Y-152163283D01*
X419912596Y-152294910D01*
X419912593Y-152294911D01*
X419721026Y-152458526D01*
X419557411Y-152650093D01*
X419557410Y-152650096D01*
X419425783Y-152864890D01*
X419329376Y-153097639D01*
X419270567Y-153342598D01*
X419250801Y-153593750D01*
X293874199Y-153593750D01*
X293854433Y-153342602D01*
X293795623Y-153097639D01*
X293699216Y-152864891D01*
X293699216Y-152864890D01*
X293567589Y-152650096D01*
X293567588Y-152650093D01*
X293530625Y-152606816D01*
X293403974Y-152458526D01*
X293277321Y-152350354D01*
X293212406Y-152294911D01*
X293212403Y-152294910D01*
X292997609Y-152163283D01*
X292764860Y-152066876D01*
X292519900Y-152008067D01*
X292331634Y-151993250D01*
X292331632Y-151993250D01*
X292205868Y-151993250D01*
X292205866Y-151993250D01*
X292017599Y-152008067D01*
X291772639Y-152066876D01*
X291539890Y-152163283D01*
X291325096Y-152294910D01*
X291325093Y-152294911D01*
X291133526Y-152458526D01*
X290969911Y-152650093D01*
X290969910Y-152650096D01*
X290838283Y-152864890D01*
X290741876Y-153097639D01*
X290683067Y-153342598D01*
X290663301Y-153593750D01*
X165286699Y-153593750D01*
X165266933Y-153342602D01*
X165208123Y-153097639D01*
X165111716Y-152864891D01*
X165111716Y-152864890D01*
X164980089Y-152650096D01*
X164980088Y-152650093D01*
X164943125Y-152606816D01*
X164816474Y-152458526D01*
X164689821Y-152350354D01*
X164624906Y-152294911D01*
X164624903Y-152294910D01*
X164410109Y-152163283D01*
X164177360Y-152066876D01*
X163932400Y-152008067D01*
X163744134Y-151993250D01*
X163744132Y-151993250D01*
X163618368Y-151993250D01*
X163618366Y-151993250D01*
X163430099Y-152008067D01*
X163185139Y-152066876D01*
X162952390Y-152163283D01*
X162737596Y-152294910D01*
X162737593Y-152294911D01*
X162546026Y-152458526D01*
X162382411Y-152650093D01*
X162382410Y-152650096D01*
X162250783Y-152864890D01*
X162154376Y-153097639D01*
X162095567Y-153342598D01*
X162075801Y-153593750D01*
X36699199Y-153593750D01*
X36679433Y-153342602D01*
X36620623Y-153097639D01*
X36524216Y-152864891D01*
X36524216Y-152864890D01*
X36392589Y-152650096D01*
X36392588Y-152650093D01*
X36355625Y-152606816D01*
X36228974Y-152458526D01*
X36102321Y-152350354D01*
X36037406Y-152294911D01*
X36037403Y-152294910D01*
X35822609Y-152163283D01*
X35589860Y-152066876D01*
X35344900Y-152008067D01*
X35156634Y-151993250D01*
X35156632Y-151993250D01*
X35030868Y-151993250D01*
X35030866Y-151993250D01*
X34842599Y-152008067D01*
X34597639Y-152066876D01*
X34364890Y-152163283D01*
X34150096Y-152294910D01*
X34150093Y-152294911D01*
X33958526Y-152458526D01*
X33794911Y-152650093D01*
X33794910Y-152650096D01*
X33663283Y-152864890D01*
X33566876Y-153097639D01*
X33508067Y-153342598D01*
X33488301Y-153593750D01*
X32363000Y-153593750D01*
X32363000Y-33731250D01*
X33488301Y-33731250D01*
X33508067Y-33982401D01*
X33566876Y-34227360D01*
X33663283Y-34460109D01*
X33794910Y-34674903D01*
X33794911Y-34674906D01*
X33794914Y-34674909D01*
X33958526Y-34866474D01*
X34106816Y-34993125D01*
X34150093Y-35030088D01*
X34150096Y-35030089D01*
X34364890Y-35161716D01*
X34597638Y-35258123D01*
X34597639Y-35258123D01*
X34842602Y-35316933D01*
X34998700Y-35329218D01*
X35030866Y-35331750D01*
X35030868Y-35331750D01*
X35156634Y-35331750D01*
X35186267Y-35329417D01*
X35344898Y-35316933D01*
X35589861Y-35258123D01*
X35822609Y-35161716D01*
X36037409Y-35030086D01*
X36228974Y-34866474D01*
X36392586Y-34674909D01*
X36524216Y-34460109D01*
X36620623Y-34227361D01*
X36679433Y-33982398D01*
X36699199Y-33731250D01*
X162075801Y-33731250D01*
X162095567Y-33982401D01*
X162154376Y-34227360D01*
X162250783Y-34460109D01*
X162382410Y-34674903D01*
X162382411Y-34674906D01*
X162382414Y-34674909D01*
X162546026Y-34866474D01*
X162694316Y-34993125D01*
X162737593Y-35030088D01*
X162737596Y-35030089D01*
X162952390Y-35161716D01*
X163185138Y-35258123D01*
X163185139Y-35258123D01*
X163430102Y-35316933D01*
X163586200Y-35329218D01*
X163618366Y-35331750D01*
X163618368Y-35331750D01*
X163744134Y-35331750D01*
X163773767Y-35329417D01*
X163932398Y-35316933D01*
X164177361Y-35258123D01*
X164410109Y-35161716D01*
X164624909Y-35030086D01*
X164816474Y-34866474D01*
X164980086Y-34674909D01*
X165111716Y-34460109D01*
X165208123Y-34227361D01*
X165266933Y-33982398D01*
X165286699Y-33731250D01*
X290663301Y-33731250D01*
X290683067Y-33982401D01*
X290741876Y-34227360D01*
X290838283Y-34460109D01*
X290969910Y-34674903D01*
X290969911Y-34674906D01*
X290969914Y-34674909D01*
X291133526Y-34866474D01*
X291281816Y-34993125D01*
X291325093Y-35030088D01*
X291325096Y-35030089D01*
X291539890Y-35161716D01*
X291772639Y-35258122D01*
X291772639Y-35258123D01*
X292017602Y-35316933D01*
X292173700Y-35329218D01*
X292205866Y-35331750D01*
X292205868Y-35331750D01*
X292331634Y-35331750D01*
X292361268Y-35329417D01*
X292519898Y-35316933D01*
X292764861Y-35258123D01*
X292997609Y-35161716D01*
X293212409Y-35030086D01*
X293403974Y-34866474D01*
X293567586Y-34674909D01*
X293699216Y-34460109D01*
X293795623Y-34227361D01*
X293854433Y-33982398D01*
X293874199Y-33731250D01*
X293854433Y-33480102D01*
X293795623Y-33235139D01*
X293699216Y-33002391D01*
X293699216Y-33002390D01*
X293567589Y-32787596D01*
X293567588Y-32787593D01*
X293530625Y-32744316D01*
X293403974Y-32596026D01*
X293277321Y-32487854D01*
X293212406Y-32432411D01*
X293212403Y-32432410D01*
X292997609Y-32300783D01*
X292764860Y-32204376D01*
X292519900Y-32145567D01*
X292331634Y-32130750D01*
X292331632Y-32130750D01*
X292205868Y-32130750D01*
X292205866Y-32130750D01*
X292017599Y-32145567D01*
X291772639Y-32204376D01*
X291539890Y-32300783D01*
X291325096Y-32432410D01*
X291325093Y-32432411D01*
X291133526Y-32596026D01*
X290969911Y-32787593D01*
X290969910Y-32787596D01*
X290838283Y-33002390D01*
X290741876Y-33235139D01*
X290683067Y-33480098D01*
X290663301Y-33731250D01*
X165286699Y-33731250D01*
X165266933Y-33480102D01*
X165208123Y-33235139D01*
X165111716Y-33002391D01*
X165111716Y-33002390D01*
X164980089Y-32787596D01*
X164980088Y-32787593D01*
X164943125Y-32744316D01*
X164816474Y-32596026D01*
X164689821Y-32487854D01*
X164624906Y-32432411D01*
X164624903Y-32432410D01*
X164410109Y-32300783D01*
X164177360Y-32204376D01*
X163932400Y-32145567D01*
X163744134Y-32130750D01*
X163744132Y-32130750D01*
X163618368Y-32130750D01*
X163618366Y-32130750D01*
X163430099Y-32145567D01*
X163185139Y-32204376D01*
X162952390Y-32300783D01*
X162737596Y-32432410D01*
X162737593Y-32432411D01*
X162546026Y-32596026D01*
X162382411Y-32787593D01*
X162382410Y-32787596D01*
X162250783Y-33002390D01*
X162154376Y-33235139D01*
X162095567Y-33480098D01*
X162075801Y-33731250D01*
X36699199Y-33731250D01*
X36679433Y-33480102D01*
X36620623Y-33235139D01*
X36524216Y-33002391D01*
X36524216Y-33002390D01*
X36392589Y-32787596D01*
X36392588Y-32787593D01*
X36355625Y-32744316D01*
X36228974Y-32596026D01*
X36102321Y-32487854D01*
X36037406Y-32432411D01*
X36037403Y-32432410D01*
X35822609Y-32300783D01*
X35589860Y-32204376D01*
X35344900Y-32145567D01*
X35156634Y-32130750D01*
X35156632Y-32130750D01*
X35030868Y-32130750D01*
X35030866Y-32130750D01*
X34842599Y-32145567D01*
X34597639Y-32204376D01*
X34364890Y-32300783D01*
X34150096Y-32432410D01*
X34150093Y-32432411D01*
X33958526Y-32596026D01*
X33794911Y-32787593D01*
X33794910Y-32787596D01*
X33663283Y-33002390D01*
X33566876Y-33235139D01*
X33508067Y-33480098D01*
X33488301Y-33731250D01*
X32363000Y-33731250D01*
X32363000Y-31596424D01*
X32363016Y-31520808D01*
X32363135Y-31443685D01*
X32363455Y-31368412D01*
X32364067Y-31295286D01*
X32365060Y-31224482D01*
X32366515Y-31155813D01*
X32368502Y-31089568D01*
X32371096Y-31025485D01*
X32374344Y-30963889D01*
X32378303Y-30904653D01*
X32383004Y-30847920D01*
X32388478Y-30793671D01*
X32394741Y-30741934D01*
X32401785Y-30692813D01*
X32402289Y-30689813D01*
X32409617Y-30646222D01*
X32418330Y-30601587D01*
X32426554Y-30564748D01*
X32435517Y-30529208D01*
X32445078Y-30495485D01*
X32455174Y-30463690D01*
X32456039Y-30461249D01*
X32465810Y-30433682D01*
X32470197Y-30422558D01*
X32476934Y-30405478D01*
X32488540Y-30378962D01*
X32500593Y-30354089D01*
X32513151Y-30330637D01*
X32527615Y-30306152D01*
X32533269Y-30297323D01*
X32541716Y-30285199D01*
X32549813Y-30273579D01*
X32551602Y-30271144D01*
X32553400Y-30268818D01*
X32565620Y-30253007D01*
X32567526Y-30250665D01*
X32582081Y-30233662D01*
X32584136Y-30231380D01*
X32599257Y-30215412D01*
X32601437Y-30213222D01*
X32617384Y-30197995D01*
X32619627Y-30195959D01*
X32636543Y-30181359D01*
X32638899Y-30179428D01*
X32656925Y-30165378D01*
X32659358Y-30163574D01*
X32681631Y-30147923D01*
X32690806Y-30142055D01*
X32698424Y-30137183D01*
X32717711Y-30125845D01*
X32718069Y-30125652D01*
X32736103Y-30115919D01*
X32765730Y-30101467D01*
X32768240Y-30100313D01*
X32799731Y-30086667D01*
X32807066Y-30083809D01*
X32822606Y-30077754D01*
X32834366Y-30073579D01*
X32848750Y-30068475D01*
X32865400Y-30063104D01*
X32876325Y-30059580D01*
X32905350Y-30051095D01*
X32934153Y-30043486D01*
X32980059Y-30032778D01*
X33027214Y-30023324D01*
X33077313Y-30014770D01*
X33130466Y-30007123D01*
X33186598Y-30000403D01*
X33241395Y-29995022D01*
X33245724Y-29994597D01*
X33286242Y-29991393D01*
X33307779Y-29989690D01*
X33354936Y-29986751D01*
X33372683Y-29985645D01*
X33440426Y-29982408D01*
X33440425Y-29982408D01*
X33510807Y-29979920D01*
X33584005Y-29978095D01*
X33659782Y-29976846D01*
X33738076Y-29976074D01*
X33818820Y-29975672D01*
X33902553Y-29975520D01*
X33986226Y-29975500D01*
X370742945Y-29975500D01*
X370766448Y-29975543D01*
G37*
%TD.AperFunction*%
M02*
