%TF.GenerationSoftware,KiCad,Pcbnew,7.0.7*%
%TF.CreationDate,2023-09-25T11:43:51+09:00*%
%TF.ProjectId,Duet-Switch-Tester,44756574-2d53-4776-9974-63682d546573,rev?*%
%TF.SameCoordinates,Original*%
%TF.FileFunction,Profile,NP*%
%FSLAX46Y46*%
G04 Gerber Fmt 4.6, Leading zero omitted, Abs format (unit mm)*
G04 Created by KiCad (PCBNEW 7.0.7) date 2023-09-25 11:43:51*
%MOMM*%
%LPD*%
G01*
G04 APERTURE LIST*
%TA.AperFunction,Profile*%
%ADD10C,0.050000*%
%TD*%
%ADD11C,0.050000*%
G04 APERTURE END LIST*
D10*
X201762500Y-148287500D02*
G75*
G03*
X202262500Y-147787500I0J500000D01*
G01*
X139850000Y-72087500D02*
X126850000Y-72087500D01*
X226075000Y-58587500D02*
G75*
G03*
X225575000Y-58087500I-500000J0D01*
G01*
X341162500Y-115237500D02*
G75*
G03*
X340662500Y-115737500I0J-500000D01*
G01*
X254937500Y-147787500D02*
X254937500Y-134787500D01*
X287487500Y-53037500D02*
X274487500Y-53037500D01*
X182712500Y-129237500D02*
G75*
G03*
X183212500Y-128737500I0J500000D01*
G01*
X359712500Y-52537500D02*
G75*
G03*
X360212500Y-53037500I500000J0D01*
G01*
X139850000Y-148287500D02*
G75*
G03*
X140350000Y-147787500I0J500000D01*
G01*
X97487500Y-77637500D02*
X97487500Y-90637500D01*
D11*
X424038012Y-29875985D02*
X424065164Y-29918441D01*
X424090595Y-29961703D01*
X424114361Y-30005738D01*
X424143558Y-30065598D01*
X424170034Y-30126697D01*
X424188188Y-30173288D01*
X424204945Y-30220501D01*
X424220363Y-30268302D01*
X424234500Y-30316660D01*
X424247414Y-30365542D01*
D10*
X226075000Y-58587500D02*
X226075000Y-71587500D01*
X83987500Y-96187500D02*
G75*
G03*
X83487500Y-96687500I0J-500000D01*
G01*
X116037500Y-148287500D02*
G75*
G03*
X116537500Y-147787500I0J500000D01*
G01*
X116037500Y-110187500D02*
X103037500Y-110187500D01*
X298300000Y-58087500D02*
G75*
G03*
X297800000Y-58587500I0J-500000D01*
G01*
X384025000Y-96187500D02*
X397025000Y-96187500D01*
X330350000Y-129237500D02*
G75*
G03*
X330850000Y-128737500I0J500000D01*
G01*
X274487500Y-96187500D02*
G75*
G03*
X273987500Y-96687500I0J-500000D01*
G01*
X254937500Y-96687500D02*
X254937500Y-109687500D01*
X145400000Y-52537500D02*
X145400000Y-39537500D01*
X183212500Y-96687500D02*
G75*
G03*
X182712500Y-96187500I-500000J0D01*
G01*
X73175000Y-91137500D02*
X60175000Y-91137500D01*
X158900000Y-53037500D02*
G75*
G03*
X159400000Y-52537500I0J500000D01*
G01*
X287487500Y-148287500D02*
X274487500Y-148287500D01*
X231625000Y-39037500D02*
G75*
G03*
X231125000Y-39537500I0J-500000D01*
G01*
X354662500Y-39537500D02*
X354662500Y-52537500D01*
X103037500Y-134287500D02*
X116037500Y-134287500D01*
X397525000Y-77637500D02*
X397525000Y-90637500D01*
X330350000Y-148287500D02*
X317350000Y-148287500D01*
X145400000Y-128737500D02*
G75*
G03*
X145900000Y-129237500I500000J0D01*
G01*
X403075000Y-39037500D02*
G75*
G03*
X402575000Y-39537500I0J-500000D01*
G01*
X145900000Y-96187500D02*
X158900000Y-96187500D01*
X102537500Y-147787500D02*
G75*
G03*
X103037500Y-148287500I500000J0D01*
G01*
X360212500Y-39037500D02*
G75*
G03*
X359712500Y-39537500I0J-500000D01*
G01*
X96987500Y-72087500D02*
G75*
G03*
X97487500Y-71587500I0J500000D01*
G01*
X311800000Y-115737500D02*
G75*
G03*
X311300000Y-115237500I-500000J0D01*
G01*
X169212500Y-109687500D02*
G75*
G03*
X169712500Y-110187500I500000J0D01*
G01*
X202262500Y-77637500D02*
G75*
G03*
X201762500Y-77137500I-500000J0D01*
G01*
X397525000Y-134787500D02*
G75*
G03*
X397025000Y-134287500I-500000J0D01*
G01*
X102537500Y-90637500D02*
X102537500Y-77637500D01*
X139850000Y-72087500D02*
G75*
G03*
X140350000Y-71587500I0J500000D01*
G01*
X83487500Y-128737500D02*
G75*
G03*
X83987500Y-129237500I500000J0D01*
G01*
X255437500Y-115237500D02*
G75*
G03*
X254937500Y-115737500I0J-500000D01*
G01*
X231125000Y-128737500D02*
G75*
G03*
X231625000Y-129237500I500000J0D01*
G01*
X402575000Y-147787500D02*
G75*
G03*
X403075000Y-148287500I500000J0D01*
G01*
X73175000Y-72087500D02*
G75*
G03*
X73675000Y-71587500I0J500000D01*
G01*
D11*
X33987500Y-158100000D02*
X33907677Y-158099982D01*
X33828895Y-158099861D01*
X33751154Y-158099530D01*
X33674453Y-158098888D01*
X33598795Y-158097828D01*
X33524178Y-158096247D01*
X33450604Y-158094040D01*
X33378073Y-158091104D01*
X33306585Y-158087334D01*
X33236141Y-158082626D01*
X33166742Y-158076876D01*
X33098387Y-158069978D01*
X33031077Y-158061830D01*
X32964812Y-158052327D01*
X32899594Y-158041365D01*
X32835423Y-158028839D01*
D10*
X116037500Y-110187500D02*
G75*
G03*
X116537500Y-109687500I0J500000D01*
G01*
X317350000Y-134287500D02*
X330350000Y-134287500D01*
X416075000Y-148287500D02*
X403075000Y-148287500D01*
X116537500Y-134787500D02*
X116537500Y-147787500D01*
D11*
X423114577Y-29296161D02*
X423171306Y-29308826D01*
X423227458Y-29322986D01*
X423282981Y-29338728D01*
X423337823Y-29356143D01*
X423391932Y-29375322D01*
X423445258Y-29396353D01*
X423497747Y-29419326D01*
X423549348Y-29444332D01*
X423600009Y-29471461D01*
X423649679Y-29500801D01*
X423682217Y-29521635D01*
D10*
X60175000Y-115237500D02*
G75*
G03*
X59675000Y-115737500I0J-500000D01*
G01*
X254937500Y-71587500D02*
G75*
G03*
X255437500Y-72087500I500000J0D01*
G01*
X158900000Y-129237500D02*
X145900000Y-129237500D01*
X268437500Y-91137500D02*
X255437500Y-91137500D01*
X383525000Y-90637500D02*
X383525000Y-77637500D01*
X268437500Y-96187500D02*
X255437500Y-96187500D01*
X159400000Y-58587500D02*
X159400000Y-71587500D01*
X316850000Y-128737500D02*
G75*
G03*
X317350000Y-129237500I500000J0D01*
G01*
X316850000Y-109687500D02*
G75*
G03*
X317350000Y-110187500I500000J0D01*
G01*
D11*
X423682217Y-29521635D02*
X423734446Y-29558031D01*
X423784493Y-29596715D01*
X423832342Y-29637673D01*
X423877975Y-29680886D01*
X423921376Y-29726340D01*
X423962527Y-29774019D01*
X424001411Y-29823906D01*
X424038012Y-29875985D01*
D10*
X416575000Y-115737500D02*
X416575000Y-128737500D01*
X73175000Y-58087500D02*
X60175000Y-58087500D01*
X340662500Y-128737500D02*
G75*
G03*
X341162500Y-129237500I500000J0D01*
G01*
X298300000Y-115237500D02*
X311300000Y-115237500D01*
D11*
X31683661Y-30447923D02*
X31696326Y-30391193D01*
X31710486Y-30335041D01*
X31726228Y-30279518D01*
X31743643Y-30224676D01*
X31762822Y-30170567D01*
X31783853Y-30117241D01*
X31806826Y-30064752D01*
X31831832Y-30013151D01*
X31858961Y-29962490D01*
X31888301Y-29912820D01*
X31909135Y-29880283D01*
D10*
X126350000Y-90637500D02*
G75*
G03*
X126850000Y-91137500I500000J0D01*
G01*
X354162500Y-53037500D02*
X341162500Y-53037500D01*
X73675000Y-77637500D02*
X73675000Y-90637500D01*
X140350000Y-115737500D02*
G75*
G03*
X139850000Y-115237500I-500000J0D01*
G01*
X212575000Y-58087500D02*
G75*
G03*
X212075000Y-58587500I0J-500000D01*
G01*
X373212500Y-72087500D02*
X360212500Y-72087500D01*
X226075000Y-134787500D02*
G75*
G03*
X225575000Y-134287500I-500000J0D01*
G01*
X126850000Y-58087500D02*
G75*
G03*
X126350000Y-58587500I0J-500000D01*
G01*
X54125000Y-129237500D02*
X41125000Y-129237500D01*
X126850000Y-96187500D02*
X139850000Y-96187500D01*
X231625000Y-96187500D02*
G75*
G03*
X231125000Y-96687500I0J-500000D01*
G01*
X201762500Y-53037500D02*
X188762500Y-53037500D01*
X145400000Y-90637500D02*
G75*
G03*
X145900000Y-91137500I500000J0D01*
G01*
X403075000Y-134287500D02*
X416075000Y-134287500D01*
X244625000Y-72087500D02*
G75*
G03*
X245125000Y-71587500I0J500000D01*
G01*
X212075000Y-71587500D02*
X212075000Y-58587500D01*
X201762500Y-110187500D02*
X188762500Y-110187500D01*
X73675000Y-134787500D02*
X73675000Y-147787500D01*
X402575000Y-52537500D02*
G75*
G03*
X403075000Y-53037500I500000J0D01*
G01*
X97487500Y-58587500D02*
G75*
G03*
X96987500Y-58087500I-500000J0D01*
G01*
X116037500Y-53037500D02*
X103037500Y-53037500D01*
X116537500Y-39537500D02*
X116537500Y-52537500D01*
X354162500Y-148287500D02*
G75*
G03*
X354662500Y-147787500I0J500000D01*
G01*
X145900000Y-39037500D02*
G75*
G03*
X145400000Y-39537500I0J-500000D01*
G01*
X59675000Y-115737500D02*
X59675000Y-128737500D01*
X373212500Y-110187500D02*
G75*
G03*
X373712500Y-109687500I0J500000D01*
G01*
X231625000Y-115237500D02*
G75*
G03*
X231125000Y-115737500I0J-500000D01*
G01*
X274487500Y-77137500D02*
X287487500Y-77137500D01*
X297800000Y-147787500D02*
G75*
G03*
X298300000Y-148287500I500000J0D01*
G01*
X287487500Y-110187500D02*
X274487500Y-110187500D01*
X354662500Y-134787500D02*
G75*
G03*
X354162500Y-134287500I-500000J0D01*
G01*
X97487500Y-39537500D02*
G75*
G03*
X96987500Y-39037500I-500000J0D01*
G01*
X145900000Y-134287500D02*
X158900000Y-134287500D01*
X373712500Y-58587500D02*
X373712500Y-71587500D01*
X73675000Y-134787500D02*
G75*
G03*
X73175000Y-134287500I-500000J0D01*
G01*
X97487500Y-58587500D02*
X97487500Y-71587500D01*
X354162500Y-148287500D02*
X341162500Y-148287500D01*
X231125000Y-52537500D02*
X231125000Y-39537500D01*
X268437500Y-72087500D02*
X255437500Y-72087500D01*
X116037500Y-72087500D02*
G75*
G03*
X116537500Y-71587500I0J500000D01*
G01*
X226075000Y-52537500D02*
X226075000Y-39537500D01*
X126350000Y-128737500D02*
G75*
G03*
X126850000Y-129237500I500000J0D01*
G01*
X416075000Y-148287500D02*
G75*
G03*
X416575000Y-147787500I0J500000D01*
G01*
X159400000Y-39537500D02*
G75*
G03*
X158900000Y-39037500I-500000J0D01*
G01*
X140350000Y-58587500D02*
X140350000Y-71587500D01*
X226075000Y-115737500D02*
X226075000Y-128737500D01*
X59675000Y-147787500D02*
G75*
G03*
X60175000Y-148287500I500000J0D01*
G01*
X140350000Y-77637500D02*
G75*
G03*
X139850000Y-77137500I-500000J0D01*
G01*
X397025000Y-91137500D02*
X384025000Y-91137500D01*
X140350000Y-39537500D02*
G75*
G03*
X139850000Y-39037500I-500000J0D01*
G01*
X59675000Y-128737500D02*
G75*
G03*
X60175000Y-129237500I500000J0D01*
G01*
X60175000Y-129237500D02*
X73175000Y-129237500D01*
X188262500Y-52537500D02*
G75*
G03*
X188762500Y-53037500I500000J0D01*
G01*
X188762500Y-77137500D02*
G75*
G03*
X188262500Y-77637500I0J-500000D01*
G01*
X384025000Y-58087500D02*
G75*
G03*
X383525000Y-58587500I0J-500000D01*
G01*
X340662500Y-90637500D02*
G75*
G03*
X341162500Y-91137500I500000J0D01*
G01*
X274487500Y-134287500D02*
X287487500Y-134287500D01*
X268437500Y-148287500D02*
X255437500Y-148287500D01*
X225575000Y-129237500D02*
X212575000Y-129237500D01*
X54625000Y-77637500D02*
X54625000Y-90637500D01*
X83487500Y-109687500D02*
G75*
G03*
X83987500Y-110187500I500000J0D01*
G01*
X183212500Y-58587500D02*
G75*
G03*
X182712500Y-58087500I-500000J0D01*
G01*
X373712500Y-77637500D02*
G75*
G03*
X373212500Y-77137500I-500000J0D01*
G01*
X245125000Y-96687500D02*
G75*
G03*
X244625000Y-96187500I-500000J0D01*
G01*
X287487500Y-148287500D02*
G75*
G03*
X287987500Y-147787500I0J500000D01*
G01*
X416075000Y-110187500D02*
X403075000Y-110187500D01*
X254937500Y-90637500D02*
X254937500Y-77637500D01*
X231625000Y-77137500D02*
X244625000Y-77137500D01*
X139850000Y-148287500D02*
X126850000Y-148287500D01*
X31612500Y-31600000D02*
X31612500Y-155725000D01*
X103037500Y-115237500D02*
G75*
G03*
X102537500Y-115737500I0J-500000D01*
G01*
X297800000Y-147787500D02*
X297800000Y-134787500D01*
X360212500Y-134287500D02*
X373212500Y-134287500D01*
X73675000Y-128737500D02*
X73675000Y-115737500D01*
X245125000Y-39537500D02*
X245125000Y-52537500D01*
X103037500Y-134287500D02*
G75*
G03*
X102537500Y-134787500I0J-500000D01*
G01*
X416575000Y-58587500D02*
G75*
G03*
X416075000Y-58087500I-500000J0D01*
G01*
X340662500Y-71587500D02*
G75*
G03*
X341162500Y-72087500I500000J0D01*
G01*
X311800000Y-58587500D02*
G75*
G03*
X311300000Y-58087500I-500000J0D01*
G01*
X201762500Y-72087500D02*
G75*
G03*
X202262500Y-71587500I0J500000D01*
G01*
X373212500Y-53037500D02*
X360212500Y-53037500D01*
X212075000Y-147787500D02*
G75*
G03*
X212575000Y-148287500I500000J0D01*
G01*
X373212500Y-91137500D02*
X360212500Y-91137500D01*
X273987500Y-58587500D02*
X273987500Y-71587500D01*
X330850000Y-134787500D02*
G75*
G03*
X330350000Y-134287500I-500000J0D01*
G01*
X311300000Y-110187500D02*
G75*
G03*
X311800000Y-109687500I0J500000D01*
G01*
X359712500Y-71587500D02*
X359712500Y-58587500D01*
X360212500Y-77137500D02*
X373212500Y-77137500D01*
X159400000Y-115737500D02*
G75*
G03*
X158900000Y-115237500I-500000J0D01*
G01*
X231125000Y-109687500D02*
X231125000Y-96687500D01*
X244625000Y-53037500D02*
G75*
G03*
X245125000Y-52537500I0J500000D01*
G01*
X340662500Y-90637500D02*
X340662500Y-77637500D01*
X212075000Y-39537500D02*
X212075000Y-52537500D01*
X202262500Y-58587500D02*
G75*
G03*
X201762500Y-58087500I-500000J0D01*
G01*
X373212500Y-148287500D02*
X360212500Y-148287500D01*
X212075000Y-147787500D02*
X212075000Y-134787500D01*
X202262500Y-147787500D02*
X202262500Y-134787500D01*
X273987500Y-90637500D02*
X273987500Y-77637500D01*
X245125000Y-134787500D02*
X245125000Y-147787500D01*
X159400000Y-58587500D02*
G75*
G03*
X158900000Y-58087500I-500000J0D01*
G01*
X188262500Y-134787500D02*
X188262500Y-147787500D01*
X359712500Y-90637500D02*
G75*
G03*
X360212500Y-91137500I500000J0D01*
G01*
X145900000Y-77137500D02*
G75*
G03*
X145400000Y-77637500I0J-500000D01*
G01*
X145400000Y-71587500D02*
X145400000Y-58587500D01*
X54125000Y-148287500D02*
G75*
G03*
X54625000Y-147787500I0J500000D01*
G01*
X383525000Y-71587500D02*
G75*
G03*
X384025000Y-72087500I500000J0D01*
G01*
X73675000Y-115737500D02*
G75*
G03*
X73175000Y-115237500I-500000J0D01*
G01*
X311800000Y-58587500D02*
X311800000Y-71587500D01*
X402575000Y-109687500D02*
G75*
G03*
X403075000Y-110187500I500000J0D01*
G01*
X54625000Y-115737500D02*
X54625000Y-128737500D01*
X188762500Y-58087500D02*
G75*
G03*
X188262500Y-58587500I0J-500000D01*
G01*
X83487500Y-52537500D02*
G75*
G03*
X83987500Y-53037500I500000J0D01*
G01*
X182712500Y-148287500D02*
X169712500Y-148287500D01*
X416075000Y-91137500D02*
G75*
G03*
X416575000Y-90637500I0J500000D01*
G01*
X140350000Y-134787500D02*
G75*
G03*
X139850000Y-134287500I-500000J0D01*
G01*
X287987500Y-58587500D02*
G75*
G03*
X287487500Y-58087500I-500000J0D01*
G01*
X159400000Y-77637500D02*
G75*
G03*
X158900000Y-77137500I-500000J0D01*
G01*
X354162500Y-110187500D02*
X341162500Y-110187500D01*
X59675000Y-52537500D02*
G75*
G03*
X60175000Y-53037500I500000J0D01*
G01*
X188762500Y-148287500D02*
X201762500Y-148287500D01*
X126850000Y-115237500D02*
G75*
G03*
X126350000Y-115737500I0J-500000D01*
G01*
X116037500Y-129237500D02*
X103037500Y-129237500D01*
X341162500Y-58087500D02*
G75*
G03*
X340662500Y-58587500I0J-500000D01*
G01*
X83987500Y-39037500D02*
G75*
G03*
X83487500Y-39537500I0J-500000D01*
G01*
D11*
X423686515Y-157800512D02*
X423644058Y-157827664D01*
X423600796Y-157853095D01*
X423556761Y-157876861D01*
X423496901Y-157906058D01*
X423435802Y-157932534D01*
X423389211Y-157950688D01*
X423341998Y-157967445D01*
X423294197Y-157982863D01*
X423245839Y-157997000D01*
X423196958Y-158009914D01*
D10*
X311300000Y-53037500D02*
X298300000Y-53037500D01*
D11*
X32267783Y-157803365D02*
X32215553Y-157766968D01*
X32165506Y-157728284D01*
X32117657Y-157687326D01*
X32072024Y-157644113D01*
X32028623Y-157598659D01*
X31987472Y-157550980D01*
X31948588Y-157501093D01*
X31911988Y-157449015D01*
D10*
X297800000Y-52537500D02*
G75*
G03*
X298300000Y-53037500I500000J0D01*
G01*
X102537500Y-52537500D02*
G75*
G03*
X103037500Y-53037500I500000J0D01*
G01*
X255437500Y-39037500D02*
X268437500Y-39037500D01*
X397525000Y-77637500D02*
G75*
G03*
X397025000Y-77137500I-500000J0D01*
G01*
X403075000Y-96187500D02*
X416075000Y-96187500D01*
X330850000Y-96687500D02*
X330850000Y-109687500D01*
X298300000Y-110187500D02*
X311300000Y-110187500D01*
X268937500Y-58587500D02*
G75*
G03*
X268437500Y-58087500I-500000J0D01*
G01*
X96987500Y-129237500D02*
G75*
G03*
X97487500Y-128737500I0J500000D01*
G01*
X268437500Y-53037500D02*
G75*
G03*
X268937500Y-52537500I0J500000D01*
G01*
X188762500Y-115237500D02*
X201762500Y-115237500D01*
X212075000Y-52537500D02*
G75*
G03*
X212575000Y-53037500I500000J0D01*
G01*
X145900000Y-96187500D02*
G75*
G03*
X145400000Y-96687500I0J-500000D01*
G01*
X188762500Y-134287500D02*
G75*
G03*
X188262500Y-134787500I0J-500000D01*
G01*
X145400000Y-128737500D02*
X145400000Y-115737500D01*
X54625000Y-134787500D02*
X54625000Y-147787500D01*
X341162500Y-39037500D02*
X354162500Y-39037500D01*
X73675000Y-39537500D02*
X73675000Y-52537500D01*
X54625000Y-115737500D02*
G75*
G03*
X54125000Y-115237500I-500000J0D01*
G01*
X159400000Y-134787500D02*
X159400000Y-147787500D01*
X126350000Y-147787500D02*
G75*
G03*
X126850000Y-148287500I500000J0D01*
G01*
X73675000Y-71587500D02*
X73675000Y-58587500D01*
X231125000Y-90637500D02*
G75*
G03*
X231625000Y-91137500I500000J0D01*
G01*
X41125000Y-39037500D02*
G75*
G03*
X40625000Y-39537500I0J-500000D01*
G01*
X416575000Y-77637500D02*
G75*
G03*
X416075000Y-77137500I-500000J0D01*
G01*
X245125000Y-58587500D02*
G75*
G03*
X244625000Y-58087500I-500000J0D01*
G01*
D11*
X31911988Y-157449015D02*
X31884835Y-157406558D01*
X31859404Y-157363296D01*
X31835638Y-157319261D01*
X31806441Y-157259401D01*
X31779965Y-157198302D01*
X31761811Y-157151711D01*
X31745054Y-157104498D01*
X31729636Y-157056697D01*
X31715499Y-157008339D01*
X31702586Y-156959458D01*
D10*
X41125000Y-134287500D02*
X54125000Y-134287500D01*
X403075000Y-115237500D02*
G75*
G03*
X402575000Y-115737500I0J-500000D01*
G01*
X341162500Y-39037500D02*
G75*
G03*
X340662500Y-39537500I0J-500000D01*
G01*
X384025000Y-39037500D02*
X397025000Y-39037500D01*
X73175000Y-148287500D02*
G75*
G03*
X73675000Y-147787500I0J500000D01*
G01*
X373712500Y-96687500D02*
G75*
G03*
X373212500Y-96187500I-500000J0D01*
G01*
X188762500Y-39037500D02*
G75*
G03*
X188262500Y-39537500I0J-500000D01*
G01*
X231125000Y-52537500D02*
G75*
G03*
X231625000Y-53037500I500000J0D01*
G01*
X298300000Y-39037500D02*
X311300000Y-39037500D01*
X340662500Y-109687500D02*
X340662500Y-96687500D01*
X397525000Y-39537500D02*
X397525000Y-52537500D01*
X373212500Y-72087500D02*
G75*
G03*
X373712500Y-71587500I0J500000D01*
G01*
X126850000Y-96187500D02*
G75*
G03*
X126350000Y-96687500I0J-500000D01*
G01*
X297800000Y-128737500D02*
X297800000Y-115737500D01*
X416575000Y-115737500D02*
G75*
G03*
X416075000Y-115237500I-500000J0D01*
G01*
X116537500Y-96687500D02*
X116537500Y-109687500D01*
X126350000Y-71587500D02*
X126350000Y-58587500D01*
X416075000Y-53037500D02*
X403075000Y-53037500D01*
X40625000Y-90637500D02*
X40625000Y-77637500D01*
X103037500Y-39037500D02*
G75*
G03*
X102537500Y-39537500I0J-500000D01*
G01*
D11*
X424040865Y-157444717D02*
X424004468Y-157496946D01*
X423965784Y-157546993D01*
X423924826Y-157594842D01*
X423881613Y-157640475D01*
X423836159Y-157683876D01*
X423788480Y-157725027D01*
X423738593Y-157763911D01*
X423686515Y-157800512D01*
X421962500Y-29225000D02*
X422042322Y-29225017D01*
X422121104Y-29225138D01*
X422198845Y-29225469D01*
X422275546Y-29226111D01*
X422351204Y-29227171D01*
X422425821Y-29228752D01*
X422499395Y-29230959D01*
X422571926Y-29233895D01*
X422643414Y-29237665D01*
X422713858Y-29242373D01*
X422783257Y-29248123D01*
X422851612Y-29255021D01*
X422918922Y-29263169D01*
X422985187Y-29272672D01*
X423050405Y-29283634D01*
X423114577Y-29296161D01*
D10*
X226075000Y-96687500D02*
G75*
G03*
X225575000Y-96187500I-500000J0D01*
G01*
X126350000Y-52537500D02*
X126350000Y-39537500D01*
X330850000Y-134787500D02*
X330850000Y-147787500D01*
X402575000Y-52537500D02*
X402575000Y-39537500D01*
X182712500Y-110187500D02*
G75*
G03*
X183212500Y-109687500I0J500000D01*
G01*
X158900000Y-129237500D02*
G75*
G03*
X159400000Y-128737500I0J500000D01*
G01*
X225575000Y-39037500D02*
X212575000Y-39037500D01*
X169212500Y-147787500D02*
X169212500Y-134787500D01*
X54625000Y-39537500D02*
G75*
G03*
X54125000Y-39037500I-500000J0D01*
G01*
X274487500Y-77137500D02*
G75*
G03*
X273987500Y-77637500I0J-500000D01*
G01*
X402575000Y-58587500D02*
X402575000Y-71587500D01*
X226075000Y-96687500D02*
X226075000Y-109687500D01*
X97487500Y-134787500D02*
G75*
G03*
X96987500Y-134287500I-500000J0D01*
G01*
X245125000Y-115737500D02*
G75*
G03*
X244625000Y-115237500I-500000J0D01*
G01*
X245125000Y-58587500D02*
X245125000Y-71587500D01*
X273987500Y-52537500D02*
X273987500Y-39537500D01*
X383525000Y-71587500D02*
X383525000Y-58587500D01*
X403075000Y-58087500D02*
G75*
G03*
X402575000Y-58587500I0J-500000D01*
G01*
X311300000Y-96187500D02*
X298300000Y-96187500D01*
X97487500Y-96687500D02*
X97487500Y-109687500D01*
X188762500Y-58087500D02*
X201762500Y-58087500D01*
X169212500Y-71587500D02*
X169212500Y-58587500D01*
X397525000Y-115737500D02*
X397525000Y-128737500D01*
X340662500Y-147787500D02*
G75*
G03*
X341162500Y-148287500I500000J0D01*
G01*
X40625000Y-147787500D02*
X40625000Y-134787500D01*
X116537500Y-77637500D02*
X116537500Y-90637500D01*
X231625000Y-58087500D02*
G75*
G03*
X231125000Y-58587500I0J-500000D01*
G01*
X268437500Y-129237500D02*
G75*
G03*
X268937500Y-128737500I0J500000D01*
G01*
X169212500Y-71587500D02*
G75*
G03*
X169712500Y-72087500I500000J0D01*
G01*
X73675000Y-96687500D02*
G75*
G03*
X73175000Y-96187500I-500000J0D01*
G01*
X40625000Y-109687500D02*
G75*
G03*
X41125000Y-110187500I500000J0D01*
G01*
X311800000Y-96687500D02*
G75*
G03*
X311300000Y-96187500I-500000J0D01*
G01*
X373212500Y-148287500D02*
G75*
G03*
X373712500Y-147787500I0J500000D01*
G01*
X254937500Y-52537500D02*
X254937500Y-39537500D01*
X102537500Y-128737500D02*
X102537500Y-115737500D01*
X41125000Y-58087500D02*
X54125000Y-58087500D01*
X41125000Y-77137500D02*
G75*
G03*
X40625000Y-77637500I0J-500000D01*
G01*
X373212500Y-53037500D02*
G75*
G03*
X373712500Y-52537500I0J500000D01*
G01*
X126850000Y-77137500D02*
G75*
G03*
X126350000Y-77637500I0J-500000D01*
G01*
X116537500Y-115737500D02*
G75*
G03*
X116037500Y-115237500I-500000J0D01*
G01*
X298300000Y-115237500D02*
G75*
G03*
X297800000Y-115737500I0J-500000D01*
G01*
X126350000Y-52537500D02*
G75*
G03*
X126850000Y-53037500I500000J0D01*
G01*
X139850000Y-129237500D02*
G75*
G03*
X140350000Y-128737500I0J500000D01*
G01*
X245125000Y-115737500D02*
X245125000Y-128737500D01*
X340662500Y-128737500D02*
X340662500Y-115737500D01*
X244625000Y-129237500D02*
X231625000Y-129237500D01*
X169212500Y-147787500D02*
G75*
G03*
X169712500Y-148287500I500000J0D01*
G01*
X373712500Y-96687500D02*
X373712500Y-109687500D01*
X145900000Y-77137500D02*
X158900000Y-77137500D01*
X244625000Y-91137500D02*
X231625000Y-91137500D01*
X254937500Y-147787500D02*
G75*
G03*
X255437500Y-148287500I500000J0D01*
G01*
X158900000Y-110187500D02*
X145900000Y-110187500D01*
X354162500Y-53037500D02*
G75*
G03*
X354662500Y-52537500I0J500000D01*
G01*
X231125000Y-71587500D02*
G75*
G03*
X231625000Y-72087500I500000J0D01*
G01*
X145400000Y-109687500D02*
G75*
G03*
X145900000Y-110187500I500000J0D01*
G01*
X83487500Y-109687500D02*
X83487500Y-96687500D01*
X397025000Y-72087500D02*
G75*
G03*
X397525000Y-71587500I0J500000D01*
G01*
X54125000Y-91137500D02*
X41125000Y-91137500D01*
X182712500Y-53037500D02*
G75*
G03*
X183212500Y-52537500I0J500000D01*
G01*
X354662500Y-58587500D02*
G75*
G03*
X354162500Y-58087500I-500000J0D01*
G01*
X202262500Y-39537500D02*
X202262500Y-52537500D01*
X59675000Y-109687500D02*
G75*
G03*
X60175000Y-110187500I500000J0D01*
G01*
X297800000Y-128737500D02*
G75*
G03*
X298300000Y-129237500I500000J0D01*
G01*
X268937500Y-115737500D02*
G75*
G03*
X268437500Y-115237500I-500000J0D01*
G01*
X102537500Y-71587500D02*
G75*
G03*
X103037500Y-72087500I500000J0D01*
G01*
X126350000Y-147787500D02*
X126350000Y-134787500D01*
X274487500Y-39037500D02*
X287487500Y-39037500D01*
X287487500Y-129237500D02*
G75*
G03*
X287987500Y-128737500I0J500000D01*
G01*
X311800000Y-39537500D02*
X311800000Y-52537500D01*
X298300000Y-77137500D02*
G75*
G03*
X297800000Y-77637500I0J-500000D01*
G01*
X330850000Y-115737500D02*
G75*
G03*
X330350000Y-115237500I-500000J0D01*
G01*
X311300000Y-91137500D02*
G75*
G03*
X311800000Y-90637500I0J500000D01*
G01*
X159400000Y-39537500D02*
X159400000Y-52537500D01*
X158900000Y-53037500D02*
X145900000Y-53037500D01*
X183212500Y-77637500D02*
X183212500Y-90637500D01*
X244625000Y-110187500D02*
G75*
G03*
X245125000Y-109687500I0J500000D01*
G01*
X183212500Y-134787500D02*
X183212500Y-147787500D01*
X384025000Y-115237500D02*
G75*
G03*
X383525000Y-115737500I0J-500000D01*
G01*
X287987500Y-96687500D02*
X287987500Y-109687500D01*
X231625000Y-77137500D02*
G75*
G03*
X231125000Y-77637500I0J-500000D01*
G01*
X297800000Y-96687500D02*
X297800000Y-109687500D01*
X169212500Y-128737500D02*
G75*
G03*
X169712500Y-129237500I500000J0D01*
G01*
X145400000Y-71587500D02*
G75*
G03*
X145900000Y-72087500I500000J0D01*
G01*
X102537500Y-109687500D02*
G75*
G03*
X103037500Y-110187500I500000J0D01*
G01*
X158900000Y-72087500D02*
G75*
G03*
X159400000Y-71587500I0J500000D01*
G01*
X383525000Y-52537500D02*
X383525000Y-39537500D01*
X274487500Y-72087500D02*
X287487500Y-72087500D01*
X116037500Y-91137500D02*
G75*
G03*
X116537500Y-90637500I0J500000D01*
G01*
X317350000Y-115237500D02*
G75*
G03*
X316850000Y-115737500I0J-500000D01*
G01*
X158900000Y-91137500D02*
G75*
G03*
X159400000Y-90637500I0J500000D01*
G01*
X384025000Y-134287500D02*
X397025000Y-134287500D01*
X255437500Y-110187500D02*
X268437500Y-110187500D01*
X311800000Y-77637500D02*
G75*
G03*
X311300000Y-77137500I-500000J0D01*
G01*
X182712500Y-72087500D02*
G75*
G03*
X183212500Y-71587500I0J500000D01*
G01*
X416075000Y-53037500D02*
G75*
G03*
X416575000Y-52537500I0J500000D01*
G01*
X126350000Y-109687500D02*
G75*
G03*
X126850000Y-110187500I500000J0D01*
G01*
X140350000Y-96687500D02*
G75*
G03*
X139850000Y-96187500I-500000J0D01*
G01*
X188262500Y-109687500D02*
X188262500Y-96687500D01*
X83987500Y-58087500D02*
X96987500Y-58087500D01*
X60175000Y-39037500D02*
G75*
G03*
X59675000Y-39537500I0J-500000D01*
G01*
X403075000Y-115237500D02*
X416075000Y-115237500D01*
X311300000Y-72087500D02*
G75*
G03*
X311800000Y-71587500I0J500000D01*
G01*
X311300000Y-129237500D02*
G75*
G03*
X311800000Y-128737500I0J500000D01*
G01*
X416075000Y-129237500D02*
X403075000Y-129237500D01*
X287987500Y-77637500D02*
X287987500Y-90637500D01*
X116537500Y-77637500D02*
G75*
G03*
X116037500Y-77137500I-500000J0D01*
G01*
X297800000Y-71587500D02*
X297800000Y-58587500D01*
X317350000Y-115237500D02*
X330350000Y-115237500D01*
X96987500Y-53037500D02*
G75*
G03*
X97487500Y-52537500I0J500000D01*
G01*
X169212500Y-52537500D02*
X169212500Y-39537500D01*
X201762500Y-129237500D02*
X188762500Y-129237500D01*
X330850000Y-39537500D02*
G75*
G03*
X330350000Y-39037500I-500000J0D01*
G01*
X41125000Y-77137500D02*
X54125000Y-77137500D01*
X231625000Y-96187500D02*
X244625000Y-96187500D01*
X416575000Y-96687500D02*
X416575000Y-109687500D01*
X212575000Y-134287500D02*
G75*
G03*
X212075000Y-134787500I0J-500000D01*
G01*
X383525000Y-109687500D02*
G75*
G03*
X384025000Y-110187500I500000J0D01*
G01*
X116537500Y-39537500D02*
G75*
G03*
X116037500Y-39037500I-500000J0D01*
G01*
X354662500Y-39537500D02*
G75*
G03*
X354162500Y-39037500I-500000J0D01*
G01*
X354162500Y-91137500D02*
G75*
G03*
X354662500Y-90637500I0J500000D01*
G01*
X402575000Y-90637500D02*
X402575000Y-77637500D01*
X139850000Y-110187500D02*
G75*
G03*
X140350000Y-109687500I0J500000D01*
G01*
X145400000Y-109687500D02*
X145400000Y-96687500D01*
X83987500Y-134287500D02*
G75*
G03*
X83487500Y-134787500I0J-500000D01*
G01*
X397525000Y-58587500D02*
G75*
G03*
X397025000Y-58087500I-500000J0D01*
G01*
X297800000Y-71587500D02*
G75*
G03*
X298300000Y-72087500I500000J0D01*
G01*
X311800000Y-39537500D02*
G75*
G03*
X311300000Y-39037500I-500000J0D01*
G01*
X226075000Y-39537500D02*
G75*
G03*
X225575000Y-39037500I-500000J0D01*
G01*
X182712500Y-91137500D02*
X169712500Y-91137500D01*
X231125000Y-147787500D02*
X231125000Y-134787500D01*
X311300000Y-148287500D02*
X298300000Y-148287500D01*
X139850000Y-91137500D02*
X126850000Y-91137500D01*
X354162500Y-72087500D02*
G75*
G03*
X354662500Y-71587500I0J500000D01*
G01*
X354162500Y-129237500D02*
X341162500Y-129237500D01*
X116037500Y-53037500D02*
G75*
G03*
X116537500Y-52537500I0J500000D01*
G01*
X268437500Y-72087500D02*
G75*
G03*
X268937500Y-71587500I0J500000D01*
G01*
X403075000Y-134287500D02*
G75*
G03*
X402575000Y-134787500I0J-500000D01*
G01*
X287987500Y-115737500D02*
G75*
G03*
X287487500Y-115237500I-500000J0D01*
G01*
X354662500Y-77637500D02*
G75*
G03*
X354162500Y-77137500I-500000J0D01*
G01*
X383525000Y-109687500D02*
X383525000Y-96687500D01*
X244625000Y-148287500D02*
G75*
G03*
X245125000Y-147787500I0J500000D01*
G01*
X397525000Y-96687500D02*
X397525000Y-109687500D01*
X268937500Y-109687500D02*
X268937500Y-96687500D01*
X83987500Y-39037500D02*
X96987500Y-39037500D01*
X188262500Y-71587500D02*
X188262500Y-58587500D01*
X287487500Y-58087500D02*
X274487500Y-58087500D01*
X373212500Y-91137500D02*
G75*
G03*
X373712500Y-90637500I0J500000D01*
G01*
X201762500Y-91137500D02*
G75*
G03*
X202262500Y-90637500I0J500000D01*
G01*
X226075000Y-115737500D02*
G75*
G03*
X225575000Y-115237500I-500000J0D01*
G01*
X373712500Y-134787500D02*
X373712500Y-147787500D01*
X416075000Y-72087500D02*
G75*
G03*
X416575000Y-71587500I0J500000D01*
G01*
X59675000Y-90637500D02*
G75*
G03*
X60175000Y-91137500I500000J0D01*
G01*
X297800000Y-90637500D02*
G75*
G03*
X298300000Y-91137500I500000J0D01*
G01*
X360212500Y-96187500D02*
X373212500Y-96187500D01*
X397025000Y-91137500D02*
G75*
G03*
X397525000Y-90637500I0J500000D01*
G01*
X54625000Y-96687500D02*
X54625000Y-109687500D01*
X159400000Y-96687500D02*
X159400000Y-109687500D01*
X231125000Y-71587500D02*
X231125000Y-58587500D01*
X83987500Y-77137500D02*
G75*
G03*
X83487500Y-77637500I0J-500000D01*
G01*
X59675000Y-147787500D02*
X59675000Y-134787500D01*
X60175000Y-96187500D02*
G75*
G03*
X59675000Y-96687500I0J-500000D01*
G01*
X59675000Y-58587500D02*
X59675000Y-71587500D01*
X360212500Y-96187500D02*
G75*
G03*
X359712500Y-96687500I0J-500000D01*
G01*
X316850000Y-39537500D02*
X316850000Y-52537500D01*
D11*
X423196958Y-158009914D02*
X423128975Y-158025771D01*
X423059752Y-158039649D01*
X422989292Y-158051679D01*
X422917598Y-158061994D01*
X422844674Y-158070726D01*
X422770526Y-158078006D01*
X422695155Y-158083966D01*
X422618567Y-158088739D01*
X422540766Y-158092456D01*
X422461754Y-158095249D01*
X422381537Y-158097250D01*
X422300117Y-158098592D01*
X422217500Y-158099406D01*
X422133689Y-158099824D01*
X422048687Y-158099978D01*
X421962500Y-158100000D01*
D10*
X383525000Y-147787500D02*
G75*
G03*
X384025000Y-148287500I500000J0D01*
G01*
X201762500Y-134287500D02*
X188762500Y-134287500D01*
X402575000Y-71587500D02*
G75*
G03*
X403075000Y-72087500I500000J0D01*
G01*
X140350000Y-77637500D02*
X140350000Y-90637500D01*
X254937500Y-109687500D02*
G75*
G03*
X255437500Y-110187500I500000J0D01*
G01*
X212075000Y-90637500D02*
X212075000Y-77637500D01*
X140350000Y-58587500D02*
G75*
G03*
X139850000Y-58087500I-500000J0D01*
G01*
X330850000Y-52537500D02*
X330850000Y-39537500D01*
X359712500Y-52537500D02*
X359712500Y-39537500D01*
X225575000Y-148287500D02*
X212575000Y-148287500D01*
X73175000Y-129237500D02*
G75*
G03*
X73675000Y-128737500I0J500000D01*
G01*
X383525000Y-52537500D02*
G75*
G03*
X384025000Y-53037500I500000J0D01*
G01*
X416075000Y-129237500D02*
G75*
G03*
X416575000Y-128737500I0J500000D01*
G01*
X330350000Y-91137500D02*
X317350000Y-91137500D01*
X188262500Y-147787500D02*
G75*
G03*
X188762500Y-148287500I500000J0D01*
G01*
X416575000Y-134787500D02*
X416575000Y-147787500D01*
X268937500Y-134787500D02*
X268937500Y-147787500D01*
X373712500Y-39537500D02*
X373712500Y-52537500D01*
X73675000Y-77637500D02*
G75*
G03*
X73175000Y-77137500I-500000J0D01*
G01*
X397525000Y-39537500D02*
G75*
G03*
X397025000Y-39037500I-500000J0D01*
G01*
X384025000Y-115237500D02*
X397025000Y-115237500D01*
X403075000Y-77137500D02*
X416075000Y-77137500D01*
X126350000Y-109687500D02*
X126350000Y-96687500D01*
X330350000Y-53037500D02*
G75*
G03*
X330850000Y-52537500I0J500000D01*
G01*
X397025000Y-129237500D02*
X384025000Y-129237500D01*
X402575000Y-90637500D02*
G75*
G03*
X403075000Y-91137500I500000J0D01*
G01*
X54625000Y-58587500D02*
X54625000Y-71587500D01*
X73175000Y-91137500D02*
G75*
G03*
X73675000Y-90637500I0J500000D01*
G01*
X244625000Y-148287500D02*
X231625000Y-148287500D01*
X182712500Y-53037500D02*
X169712500Y-53037500D01*
X244625000Y-110187500D02*
X231625000Y-110187500D01*
X41125000Y-58087500D02*
G75*
G03*
X40625000Y-58587500I0J-500000D01*
G01*
X316850000Y-90637500D02*
G75*
G03*
X317350000Y-91137500I500000J0D01*
G01*
X359712500Y-109687500D02*
X359712500Y-96687500D01*
X139850000Y-110187500D02*
X126850000Y-110187500D01*
X231125000Y-109687500D02*
G75*
G03*
X231625000Y-110187500I500000J0D01*
G01*
X169712500Y-58087500D02*
G75*
G03*
X169212500Y-58587500I0J-500000D01*
G01*
X245125000Y-39537500D02*
G75*
G03*
X244625000Y-39037500I-500000J0D01*
G01*
X54125000Y-129237500D02*
G75*
G03*
X54625000Y-128737500I0J500000D01*
G01*
X397025000Y-129237500D02*
G75*
G03*
X397525000Y-128737500I0J500000D01*
G01*
X397525000Y-115737500D02*
G75*
G03*
X397025000Y-115237500I-500000J0D01*
G01*
X311300000Y-148287500D02*
G75*
G03*
X311800000Y-147787500I0J500000D01*
G01*
X96987500Y-148287500D02*
G75*
G03*
X97487500Y-147787500I0J500000D01*
G01*
X254937500Y-128737500D02*
X254937500Y-115737500D01*
X384025000Y-39037500D02*
G75*
G03*
X383525000Y-39537500I0J-500000D01*
G01*
X169212500Y-109687500D02*
X169212500Y-96687500D01*
X341162500Y-77137500D02*
G75*
G03*
X340662500Y-77637500I0J-500000D01*
G01*
X225575000Y-72087500D02*
G75*
G03*
X226075000Y-71587500I0J500000D01*
G01*
X96987500Y-110187500D02*
X83987500Y-110187500D01*
X73175000Y-148287500D02*
X60175000Y-148287500D01*
X354662500Y-96687500D02*
X354662500Y-109687500D01*
X126350000Y-128737500D02*
X126350000Y-115737500D01*
X59675000Y-71587500D02*
G75*
G03*
X60175000Y-72087500I500000J0D01*
G01*
X40625000Y-128737500D02*
G75*
G03*
X41125000Y-129237500I500000J0D01*
G01*
X255437500Y-134287500D02*
X268437500Y-134287500D01*
X188262500Y-71587500D02*
G75*
G03*
X188762500Y-72087500I500000J0D01*
G01*
X212575000Y-96187500D02*
X225575000Y-96187500D01*
X317350000Y-77137500D02*
G75*
G03*
X316850000Y-77637500I0J-500000D01*
G01*
X330850000Y-77637500D02*
G75*
G03*
X330350000Y-77137500I-500000J0D01*
G01*
X225575000Y-148287500D02*
G75*
G03*
X226075000Y-147787500I0J500000D01*
G01*
X397025000Y-72087500D02*
X384025000Y-72087500D01*
X83487500Y-71587500D02*
X83487500Y-58587500D01*
X188762500Y-96187500D02*
X201762500Y-96187500D01*
X102537500Y-147787500D02*
X102537500Y-134787500D01*
X83987500Y-115237500D02*
X96987500Y-115237500D01*
X373212500Y-129237500D02*
X360212500Y-129237500D01*
X83487500Y-128737500D02*
X83487500Y-115737500D01*
X59675000Y-109687500D02*
X59675000Y-96687500D01*
X40625000Y-90637500D02*
G75*
G03*
X41125000Y-91137500I500000J0D01*
G01*
X188262500Y-90637500D02*
X188262500Y-77637500D01*
X103037500Y-96187500D02*
G75*
G03*
X102537500Y-96687500I0J-500000D01*
G01*
X158900000Y-148287500D02*
X145900000Y-148287500D01*
X287487500Y-53037500D02*
G75*
G03*
X287987500Y-52537500I0J500000D01*
G01*
X83987500Y-58087500D02*
G75*
G03*
X83487500Y-58587500I0J-500000D01*
G01*
X182712500Y-110187500D02*
X169712500Y-110187500D01*
X73175000Y-115237500D02*
X60175000Y-115237500D01*
X298300000Y-134287500D02*
G75*
G03*
X297800000Y-134787500I0J-500000D01*
G01*
X403075000Y-77137500D02*
G75*
G03*
X402575000Y-77637500I0J-500000D01*
G01*
X311300000Y-53037500D02*
G75*
G03*
X311800000Y-52537500I0J500000D01*
G01*
D11*
X32263485Y-29524488D02*
X32305941Y-29497335D01*
X32349203Y-29471904D01*
X32393238Y-29448138D01*
X32453098Y-29418941D01*
X32514197Y-29392465D01*
X32560788Y-29374311D01*
X32608001Y-29357554D01*
X32655802Y-29342136D01*
X32704160Y-29327999D01*
X32753042Y-29315086D01*
D10*
X202262500Y-58587500D02*
X202262500Y-71587500D01*
X183212500Y-39537500D02*
G75*
G03*
X182712500Y-39037500I-500000J0D01*
G01*
X212075000Y-71587500D02*
G75*
G03*
X212575000Y-72087500I500000J0D01*
G01*
X254937500Y-71587500D02*
X254937500Y-58587500D01*
X145900000Y-134287500D02*
G75*
G03*
X145400000Y-134787500I0J-500000D01*
G01*
X287487500Y-129237500D02*
X274487500Y-129237500D01*
X158900000Y-110187500D02*
G75*
G03*
X159400000Y-109687500I0J500000D01*
G01*
X83487500Y-52537500D02*
X83487500Y-39537500D01*
X159400000Y-96687500D02*
G75*
G03*
X158900000Y-96187500I-500000J0D01*
G01*
X231125000Y-147787500D02*
G75*
G03*
X231625000Y-148287500I500000J0D01*
G01*
X60175000Y-58087500D02*
G75*
G03*
X59675000Y-58587500I0J-500000D01*
G01*
X268937500Y-115737500D02*
X268937500Y-128737500D01*
X298300000Y-39037500D02*
G75*
G03*
X297800000Y-39537500I0J-500000D01*
G01*
X83987500Y-77137500D02*
X96987500Y-77137500D01*
X212075000Y-128737500D02*
G75*
G03*
X212575000Y-129237500I500000J0D01*
G01*
X268937500Y-77637500D02*
G75*
G03*
X268437500Y-77137500I-500000J0D01*
G01*
X139850000Y-53037500D02*
G75*
G03*
X140350000Y-52537500I0J500000D01*
G01*
X183212500Y-58587500D02*
X183212500Y-71587500D01*
X140350000Y-134787500D02*
X140350000Y-147787500D01*
X274487500Y-115237500D02*
X287487500Y-115237500D01*
X268937500Y-77637500D02*
X268937500Y-90637500D01*
X60175000Y-96187500D02*
X73175000Y-96187500D01*
X158900000Y-148287500D02*
G75*
G03*
X159400000Y-147787500I0J500000D01*
G01*
X354162500Y-91137500D02*
X341162500Y-91137500D01*
X255437500Y-134287500D02*
G75*
G03*
X254937500Y-134787500I0J-500000D01*
G01*
X60175000Y-77137500D02*
X73175000Y-77137500D01*
X373712500Y-115737500D02*
G75*
G03*
X373212500Y-115237500I-500000J0D01*
G01*
X102537500Y-90637500D02*
G75*
G03*
X103037500Y-91137500I500000J0D01*
G01*
X59675000Y-90637500D02*
X59675000Y-77637500D01*
X354162500Y-110187500D02*
G75*
G03*
X354662500Y-109687500I0J500000D01*
G01*
X245125000Y-77637500D02*
X245125000Y-90637500D01*
X255437500Y-39037500D02*
G75*
G03*
X254937500Y-39537500I0J-500000D01*
G01*
X298300000Y-96187500D02*
G75*
G03*
X297800000Y-96687500I0J-500000D01*
G01*
X126850000Y-39037500D02*
G75*
G03*
X126350000Y-39537500I0J-500000D01*
G01*
X202262500Y-96687500D02*
G75*
G03*
X201762500Y-96187500I-500000J0D01*
G01*
X188262500Y-52537500D02*
X188262500Y-39537500D01*
X255437500Y-77137500D02*
G75*
G03*
X254937500Y-77637500I0J-500000D01*
G01*
X416575000Y-77637500D02*
X416575000Y-90637500D01*
X359712500Y-147787500D02*
G75*
G03*
X360212500Y-148287500I500000J0D01*
G01*
X145900000Y-58087500D02*
G75*
G03*
X145400000Y-58587500I0J-500000D01*
G01*
X126850000Y-134287500D02*
X139850000Y-134287500D01*
X254937500Y-128737500D02*
G75*
G03*
X255437500Y-129237500I500000J0D01*
G01*
X40625000Y-52537500D02*
G75*
G03*
X41125000Y-53037500I500000J0D01*
G01*
X340662500Y-52537500D02*
X340662500Y-39537500D01*
X311800000Y-77637500D02*
X311800000Y-90637500D01*
X226075000Y-77637500D02*
X226075000Y-90637500D01*
X183212500Y-96687500D02*
X183212500Y-109687500D01*
X231625000Y-115237500D02*
X244625000Y-115237500D01*
X330350000Y-110187500D02*
X317350000Y-110187500D01*
D11*
X31612500Y-31600000D02*
X31612517Y-31520177D01*
X31612638Y-31441395D01*
X31612969Y-31363654D01*
X31613611Y-31286953D01*
X31614671Y-31211295D01*
X31616252Y-31136678D01*
X31618459Y-31063104D01*
X31621395Y-30990573D01*
X31625165Y-30919085D01*
X31629873Y-30848641D01*
X31635623Y-30779242D01*
X31642521Y-30710887D01*
X31650669Y-30643577D01*
X31660172Y-30577312D01*
X31671134Y-30512094D01*
X31683661Y-30447923D01*
D10*
X226075000Y-77637500D02*
G75*
G03*
X225575000Y-77137500I-500000J0D01*
G01*
X341162500Y-134287500D02*
G75*
G03*
X340662500Y-134787500I0J-500000D01*
G01*
X255437500Y-58087500D02*
X268437500Y-58087500D01*
X316850000Y-52537500D02*
G75*
G03*
X317350000Y-53037500I500000J0D01*
G01*
X159400000Y-115737500D02*
X159400000Y-128737500D01*
X145900000Y-115237500D02*
G75*
G03*
X145400000Y-115737500I0J-500000D01*
G01*
X244625000Y-91137500D02*
G75*
G03*
X245125000Y-90637500I0J500000D01*
G01*
X40625000Y-71587500D02*
X40625000Y-58587500D01*
X59675000Y-52537500D02*
X59675000Y-39537500D01*
X202262500Y-77637500D02*
X202262500Y-90637500D01*
X225575000Y-53037500D02*
G75*
G03*
X226075000Y-52537500I0J500000D01*
G01*
X73175000Y-110187500D02*
G75*
G03*
X73675000Y-109687500I0J500000D01*
G01*
X354162500Y-72087500D02*
X341162500Y-72087500D01*
X255437500Y-96187500D02*
G75*
G03*
X254937500Y-96687500I0J-500000D01*
G01*
X373712500Y-115737500D02*
X373712500Y-128737500D01*
X373212500Y-129237500D02*
G75*
G03*
X373712500Y-128737500I0J500000D01*
G01*
X169712500Y-77137500D02*
X182712500Y-77137500D01*
X116037500Y-129237500D02*
G75*
G03*
X116537500Y-128737500I0J500000D01*
G01*
X202262500Y-115737500D02*
G75*
G03*
X201762500Y-115237500I-500000J0D01*
G01*
X182712500Y-148287500D02*
G75*
G03*
X183212500Y-147787500I0J500000D01*
G01*
X83987500Y-115237500D02*
G75*
G03*
X83487500Y-115737500I0J-500000D01*
G01*
X402575000Y-128737500D02*
G75*
G03*
X403075000Y-129237500I500000J0D01*
G01*
X41125000Y-115237500D02*
X54125000Y-115237500D01*
X103037500Y-77137500D02*
X116037500Y-77137500D01*
X201762500Y-72087500D02*
X188762500Y-72087500D01*
X316850000Y-147787500D02*
G75*
G03*
X317350000Y-148287500I500000J0D01*
G01*
X97487500Y-134787500D02*
X97487500Y-147787500D01*
X116537500Y-134787500D02*
G75*
G03*
X116037500Y-134287500I-500000J0D01*
G01*
X354662500Y-96687500D02*
G75*
G03*
X354162500Y-96187500I-500000J0D01*
G01*
X287987500Y-134787500D02*
G75*
G03*
X287487500Y-134287500I-500000J0D01*
G01*
X40625000Y-109687500D02*
X40625000Y-96687500D01*
X212575000Y-115237500D02*
G75*
G03*
X212075000Y-115737500I0J-500000D01*
G01*
X287987500Y-96687500D02*
G75*
G03*
X287487500Y-96187500I-500000J0D01*
G01*
X359712500Y-128737500D02*
X359712500Y-115737500D01*
X188262500Y-90637500D02*
G75*
G03*
X188762500Y-91137500I500000J0D01*
G01*
X202262500Y-115737500D02*
X202262500Y-128737500D01*
X212575000Y-115237500D02*
X225575000Y-115237500D01*
X273987500Y-147787500D02*
X273987500Y-134787500D01*
X139850000Y-91137500D02*
G75*
G03*
X140350000Y-90637500I0J500000D01*
G01*
X274487500Y-96187500D02*
X287487500Y-96187500D01*
X54125000Y-110187500D02*
G75*
G03*
X54625000Y-109687500I0J500000D01*
G01*
X273987500Y-52537500D02*
G75*
G03*
X274487500Y-53037500I500000J0D01*
G01*
X255437500Y-115237500D02*
X268437500Y-115237500D01*
X54125000Y-72087500D02*
X41125000Y-72087500D01*
X83487500Y-147787500D02*
X83487500Y-134787500D01*
X145400000Y-147787500D02*
G75*
G03*
X145900000Y-148287500I500000J0D01*
G01*
X226075000Y-134787500D02*
X226075000Y-147787500D01*
X317350000Y-58087500D02*
X330350000Y-58087500D01*
X145900000Y-58087500D02*
X158900000Y-58087500D01*
X231625000Y-39037500D02*
X244625000Y-39037500D01*
X317350000Y-134287500D02*
G75*
G03*
X316850000Y-134787500I0J-500000D01*
G01*
X340662500Y-147787500D02*
X340662500Y-134787500D01*
X60175000Y-134287500D02*
X73175000Y-134287500D01*
X287487500Y-110187500D02*
G75*
G03*
X287987500Y-109687500I0J500000D01*
G01*
X354662500Y-77637500D02*
X354662500Y-90637500D01*
X202262500Y-96687500D02*
X202262500Y-109687500D01*
X97487500Y-115737500D02*
X97487500Y-128737500D01*
X341162500Y-134287500D02*
X354162500Y-134287500D01*
X317350000Y-77137500D02*
X330350000Y-77137500D01*
X383525000Y-128737500D02*
X383525000Y-115737500D01*
X373212500Y-110187500D02*
X360212500Y-110187500D01*
X245125000Y-96687500D02*
X245125000Y-109687500D01*
X126850000Y-115237500D02*
X139850000Y-115237500D01*
X182712500Y-72087500D02*
X169712500Y-72087500D01*
X268437500Y-53037500D02*
X255437500Y-53037500D01*
X274487500Y-39037500D02*
G75*
G03*
X273987500Y-39537500I0J-500000D01*
G01*
X145400000Y-90637500D02*
X145400000Y-77637500D01*
X311800000Y-134787500D02*
X311800000Y-147787500D01*
X311300000Y-129237500D02*
X298300000Y-129237500D01*
X311300000Y-91137500D02*
X298300000Y-91137500D01*
X373712500Y-39537500D02*
G75*
G03*
X373212500Y-39037500I-500000J0D01*
G01*
X54625000Y-96687500D02*
G75*
G03*
X54125000Y-96187500I-500000J0D01*
G01*
X40625000Y-128737500D02*
X40625000Y-115737500D01*
X287487500Y-72087500D02*
G75*
G03*
X287987500Y-71587500I0J500000D01*
G01*
X40625000Y-71587500D02*
G75*
G03*
X41125000Y-72087500I500000J0D01*
G01*
X298300000Y-134287500D02*
X311300000Y-134287500D01*
X54125000Y-148287500D02*
X41125000Y-148287500D01*
X274487500Y-115237500D02*
G75*
G03*
X273987500Y-115737500I0J-500000D01*
G01*
X311800000Y-115737500D02*
X311800000Y-128737500D01*
X126850000Y-77137500D02*
X139850000Y-77137500D01*
X354662500Y-115737500D02*
G75*
G03*
X354162500Y-115237500I-500000J0D01*
G01*
X54625000Y-77637500D02*
G75*
G03*
X54125000Y-77137500I-500000J0D01*
G01*
X316850000Y-71587500D02*
X316850000Y-58587500D01*
X33987500Y-158100000D02*
X421962500Y-158100000D01*
X268437500Y-148287500D02*
G75*
G03*
X268937500Y-147787500I0J500000D01*
G01*
X359712500Y-128737500D02*
G75*
G03*
X360212500Y-129237500I500000J0D01*
G01*
X145400000Y-147787500D02*
X145400000Y-134787500D01*
X188762500Y-39037500D02*
X201762500Y-39037500D01*
X403075000Y-72087500D02*
X416075000Y-72087500D01*
X54125000Y-91137500D02*
G75*
G03*
X54625000Y-90637500I0J500000D01*
G01*
X397525000Y-134787500D02*
X397525000Y-147787500D01*
X287987500Y-39537500D02*
X287987500Y-52537500D01*
X397025000Y-110187500D02*
X384025000Y-110187500D01*
X212075000Y-128737500D02*
X212075000Y-115737500D01*
X126850000Y-58087500D02*
X139850000Y-58087500D01*
X416575000Y-39537500D02*
X416575000Y-52537500D01*
X103037500Y-77137500D02*
G75*
G03*
X102537500Y-77637500I0J-500000D01*
G01*
X225575000Y-91137500D02*
G75*
G03*
X226075000Y-90637500I0J500000D01*
G01*
X244625000Y-72087500D02*
X231625000Y-72087500D01*
X54625000Y-58587500D02*
G75*
G03*
X54125000Y-58087500I-500000J0D01*
G01*
X360212500Y-58087500D02*
X373212500Y-58087500D01*
X97487500Y-77637500D02*
G75*
G03*
X96987500Y-77137500I-500000J0D01*
G01*
X41125000Y-115237500D02*
G75*
G03*
X40625000Y-115737500I0J-500000D01*
G01*
X73675000Y-39537500D02*
G75*
G03*
X73175000Y-39037500I-500000J0D01*
G01*
X231625000Y-58087500D02*
X244625000Y-58087500D01*
X317350000Y-58087500D02*
G75*
G03*
X316850000Y-58587500I0J-500000D01*
G01*
X330850000Y-77637500D02*
X330850000Y-90637500D01*
X116037500Y-72087500D02*
X103037500Y-72087500D01*
X97487500Y-39537500D02*
X97487500Y-52537500D01*
D11*
X31909135Y-29880283D02*
X31945531Y-29828053D01*
X31984215Y-29778006D01*
X32025173Y-29730157D01*
X32068386Y-29684524D01*
X32113840Y-29641123D01*
X32161519Y-29599972D01*
X32211406Y-29561088D01*
X32263485Y-29524488D01*
D10*
X360212500Y-39037500D02*
X373212500Y-39037500D01*
X268937500Y-134787500D02*
G75*
G03*
X268437500Y-134287500I-500000J0D01*
G01*
X96987500Y-72087500D02*
X83987500Y-72087500D01*
X397025000Y-148287500D02*
G75*
G03*
X397525000Y-147787500I0J500000D01*
G01*
X54125000Y-110187500D02*
X41125000Y-110187500D01*
X139850000Y-129237500D02*
X126850000Y-129237500D01*
X102537500Y-71587500D02*
X102537500Y-58587500D01*
X183212500Y-115737500D02*
X183212500Y-128737500D01*
X274487500Y-134287500D02*
G75*
G03*
X273987500Y-134787500I0J-500000D01*
G01*
X83487500Y-71587500D02*
G75*
G03*
X83987500Y-72087500I500000J0D01*
G01*
X41125000Y-134287500D02*
G75*
G03*
X40625000Y-134787500I0J-500000D01*
G01*
X96987500Y-53037500D02*
X83987500Y-53037500D01*
X287987500Y-115737500D02*
X287987500Y-128737500D01*
X360212500Y-77137500D02*
G75*
G03*
X359712500Y-77637500I0J-500000D01*
G01*
X54125000Y-53037500D02*
G75*
G03*
X54625000Y-52537500I0J500000D01*
G01*
X212575000Y-96187500D02*
G75*
G03*
X212075000Y-96687500I0J-500000D01*
G01*
X416575000Y-39537500D02*
G75*
G03*
X416075000Y-39037500I-500000J0D01*
G01*
X158900000Y-91137500D02*
X145900000Y-91137500D01*
X231625000Y-134287500D02*
X244625000Y-134287500D01*
X316850000Y-109687500D02*
X316850000Y-96687500D01*
X383525000Y-90637500D02*
G75*
G03*
X384025000Y-91137500I500000J0D01*
G01*
X354662500Y-115737500D02*
X354662500Y-128737500D01*
X145900000Y-39037500D02*
X158900000Y-39037500D01*
X169212500Y-128737500D02*
X169212500Y-115737500D01*
X268437500Y-91137500D02*
G75*
G03*
X268937500Y-90637500I0J500000D01*
G01*
X116537500Y-96687500D02*
G75*
G03*
X116037500Y-96187500I-500000J0D01*
G01*
X397025000Y-53037500D02*
G75*
G03*
X397525000Y-52537500I0J500000D01*
G01*
X245125000Y-134787500D02*
G75*
G03*
X244625000Y-134287500I-500000J0D01*
G01*
X40625000Y-147787500D02*
G75*
G03*
X41125000Y-148287500I500000J0D01*
G01*
X298300000Y-77137500D02*
X311300000Y-77137500D01*
X245125000Y-77637500D02*
G75*
G03*
X244625000Y-77137500I-500000J0D01*
G01*
X383525000Y-128737500D02*
G75*
G03*
X384025000Y-129237500I500000J0D01*
G01*
X212575000Y-58087500D02*
X225575000Y-58087500D01*
X145900000Y-115237500D02*
X158900000Y-115237500D01*
X402575000Y-128737500D02*
X402575000Y-115737500D01*
X402575000Y-147787500D02*
X402575000Y-134787500D01*
X360212500Y-115237500D02*
X373212500Y-115237500D01*
D11*
X32753042Y-29315086D02*
X32821024Y-29299228D01*
X32890247Y-29285350D01*
X32960707Y-29273320D01*
X33032401Y-29263005D01*
X33105325Y-29254273D01*
X33179473Y-29246993D01*
X33254844Y-29241033D01*
X33331432Y-29236260D01*
X33409233Y-29232543D01*
X33488245Y-29229750D01*
X33568462Y-29227749D01*
X33649882Y-29226407D01*
X33732499Y-29225593D01*
X33816310Y-29225175D01*
X33901312Y-29225021D01*
X33987500Y-29225000D01*
D10*
X183212500Y-134787500D02*
G75*
G03*
X182712500Y-134287500I-500000J0D01*
G01*
X202262500Y-134787500D02*
G75*
G03*
X201762500Y-134287500I-500000J0D01*
G01*
X188262500Y-128737500D02*
G75*
G03*
X188762500Y-129237500I500000J0D01*
G01*
X384025000Y-96187500D02*
G75*
G03*
X383525000Y-96687500I0J-500000D01*
G01*
D11*
X31702586Y-156959458D02*
X31686728Y-156891475D01*
X31672850Y-156822252D01*
X31660820Y-156751792D01*
X31650505Y-156680098D01*
X31641773Y-156607174D01*
X31634493Y-156533026D01*
X31628533Y-156457655D01*
X31623760Y-156381067D01*
X31620043Y-156303266D01*
X31617250Y-156224254D01*
X31615249Y-156144037D01*
X31613907Y-156062617D01*
X31613093Y-155980000D01*
X31612675Y-155896189D01*
X31612521Y-155811187D01*
X31612500Y-155725000D01*
D10*
X73175000Y-110187500D02*
X60175000Y-110187500D01*
X416575000Y-96687500D02*
G75*
G03*
X416075000Y-96187500I-500000J0D01*
G01*
X354662500Y-58587500D02*
X354662500Y-71587500D01*
X97487500Y-115737500D02*
G75*
G03*
X96987500Y-115237500I-500000J0D01*
G01*
X169712500Y-96187500D02*
X182712500Y-96187500D01*
X73175000Y-53037500D02*
X60175000Y-53037500D01*
X341162500Y-115237500D02*
X354162500Y-115237500D01*
X297800000Y-90637500D02*
X297800000Y-77637500D01*
X140350000Y-96687500D02*
X140350000Y-109687500D01*
X373712500Y-77637500D02*
X373712500Y-90637500D01*
X188762500Y-96187500D02*
G75*
G03*
X188262500Y-96687500I0J-500000D01*
G01*
X169212500Y-90637500D02*
X169212500Y-77637500D01*
X340662500Y-71587500D02*
X340662500Y-58587500D01*
X316850000Y-71587500D02*
G75*
G03*
X317350000Y-72087500I500000J0D01*
G01*
X102537500Y-109687500D02*
X102537500Y-96687500D01*
X96987500Y-129237500D02*
X83987500Y-129237500D01*
X212075000Y-109687500D02*
X212075000Y-96687500D01*
X359712500Y-147787500D02*
X359712500Y-134787500D01*
X397025000Y-148287500D02*
X384025000Y-148287500D01*
X340662500Y-52537500D02*
G75*
G03*
X341162500Y-53037500I500000J0D01*
G01*
X403075000Y-39037500D02*
X416075000Y-39037500D01*
X244625000Y-53037500D02*
X231625000Y-53037500D01*
X225575000Y-91137500D02*
X212575000Y-91137500D01*
X317350000Y-39037500D02*
G75*
G03*
X316850000Y-39537500I0J-500000D01*
G01*
X103037500Y-96187500D02*
X116037500Y-96187500D01*
X316850000Y-90637500D02*
X316850000Y-77637500D01*
X54125000Y-72087500D02*
G75*
G03*
X54625000Y-71587500I0J500000D01*
G01*
X126350000Y-90637500D02*
X126350000Y-77637500D01*
X402575000Y-109687500D02*
X402575000Y-96687500D01*
X354162500Y-129237500D02*
G75*
G03*
X354662500Y-128737500I0J500000D01*
G01*
X158900000Y-72087500D02*
X145900000Y-72087500D01*
X273987500Y-128737500D02*
X273987500Y-115737500D01*
X268937500Y-39537500D02*
G75*
G03*
X268437500Y-39037500I-500000J0D01*
G01*
X384025000Y-77137500D02*
X397025000Y-77137500D01*
X116537500Y-115737500D02*
X116537500Y-128737500D01*
X255437500Y-58087500D02*
G75*
G03*
X254937500Y-58587500I0J-500000D01*
G01*
X201762500Y-110187500D02*
G75*
G03*
X202262500Y-109687500I0J500000D01*
G01*
X169712500Y-134287500D02*
G75*
G03*
X169212500Y-134787500I0J-500000D01*
G01*
X384025000Y-77137500D02*
G75*
G03*
X383525000Y-77637500I0J-500000D01*
G01*
X360212500Y-134287500D02*
G75*
G03*
X359712500Y-134787500I0J-500000D01*
G01*
X317350000Y-53037500D02*
X330350000Y-53037500D01*
X416075000Y-58087500D02*
X403075000Y-58087500D01*
X116537500Y-58587500D02*
G75*
G03*
X116037500Y-58087500I-500000J0D01*
G01*
X188762500Y-77137500D02*
X201762500Y-77137500D01*
X244625000Y-129237500D02*
G75*
G03*
X245125000Y-128737500I0J500000D01*
G01*
X96987500Y-148287500D02*
X83987500Y-148287500D01*
X424337500Y-155725000D02*
X424337500Y-31600000D01*
X360212500Y-58087500D02*
G75*
G03*
X359712500Y-58587500I0J-500000D01*
G01*
X397025000Y-53037500D02*
X384025000Y-53037500D01*
X183212500Y-39537500D02*
X183212500Y-52537500D01*
X268937500Y-58587500D02*
X268937500Y-71587500D01*
X126350000Y-71587500D02*
G75*
G03*
X126850000Y-72087500I500000J0D01*
G01*
X330850000Y-115737500D02*
X330850000Y-128737500D01*
X201762500Y-91137500D02*
X188762500Y-91137500D01*
X60175000Y-134287500D02*
G75*
G03*
X59675000Y-134787500I0J-500000D01*
G01*
X317350000Y-96187500D02*
X330350000Y-96187500D01*
X360212500Y-115237500D02*
G75*
G03*
X359712500Y-115737500I0J-500000D01*
G01*
X416575000Y-71587500D02*
X416575000Y-58587500D01*
X273987500Y-90637500D02*
G75*
G03*
X274487500Y-91137500I500000J0D01*
G01*
X384025000Y-58087500D02*
X397025000Y-58087500D01*
X416575000Y-134787500D02*
G75*
G03*
X416075000Y-134287500I-500000J0D01*
G01*
X274487500Y-58087500D02*
G75*
G03*
X273987500Y-58587500I0J-500000D01*
G01*
X60175000Y-39037500D02*
X73175000Y-39037500D01*
X341162500Y-96187500D02*
G75*
G03*
X340662500Y-96687500I0J-500000D01*
G01*
X298300000Y-58087500D02*
X311300000Y-58087500D01*
X212575000Y-77137500D02*
G75*
G03*
X212075000Y-77637500I0J-500000D01*
G01*
X212575000Y-77137500D02*
X225575000Y-77137500D01*
X212575000Y-134287500D02*
X225575000Y-134287500D01*
X182712500Y-129237500D02*
X169712500Y-129237500D01*
X341162500Y-77137500D02*
X354162500Y-77137500D01*
X126850000Y-134287500D02*
G75*
G03*
X126350000Y-134787500I0J-500000D01*
G01*
X359712500Y-71587500D02*
G75*
G03*
X360212500Y-72087500I500000J0D01*
G01*
X273987500Y-128737500D02*
G75*
G03*
X274487500Y-129237500I500000J0D01*
G01*
D11*
X424266339Y-156877077D02*
X424253673Y-156933806D01*
X424239513Y-156989958D01*
X424223771Y-157045481D01*
X424206356Y-157100323D01*
X424187177Y-157154432D01*
X424166146Y-157207758D01*
X424143173Y-157260247D01*
X424118167Y-157311848D01*
X424091038Y-157362509D01*
X424061698Y-157412179D01*
X424040865Y-157444717D01*
D10*
X340662500Y-109687500D02*
G75*
G03*
X341162500Y-110187500I500000J0D01*
G01*
X268437500Y-110187500D02*
G75*
G03*
X268937500Y-109687500I0J500000D01*
G01*
X116037500Y-91137500D02*
X103037500Y-91137500D01*
X397025000Y-110187500D02*
G75*
G03*
X397525000Y-109687500I0J500000D01*
G01*
X169712500Y-58087500D02*
X182712500Y-58087500D01*
D11*
X424337500Y-155725000D02*
X424337482Y-155804822D01*
X424337361Y-155883604D01*
X424337030Y-155961345D01*
X424336388Y-156038046D01*
X424335328Y-156113704D01*
X424333747Y-156188321D01*
X424331540Y-156261895D01*
X424328604Y-156334426D01*
X424324834Y-156405914D01*
X424320126Y-156476358D01*
X424314376Y-156545757D01*
X424307478Y-156614112D01*
X424299330Y-156681422D01*
X424289827Y-156747687D01*
X424278865Y-156812905D01*
X424266339Y-156877077D01*
D10*
X297800000Y-109687500D02*
G75*
G03*
X298300000Y-110187500I500000J0D01*
G01*
X273987500Y-109687500D02*
G75*
G03*
X274487500Y-110187500I500000J0D01*
G01*
X255437500Y-77137500D02*
X268437500Y-77137500D01*
X397525000Y-96687500D02*
G75*
G03*
X397025000Y-96187500I-500000J0D01*
G01*
X311800000Y-134787500D02*
G75*
G03*
X311300000Y-134287500I-500000J0D01*
G01*
X202262500Y-39537500D02*
G75*
G03*
X201762500Y-39037500I-500000J0D01*
G01*
X83487500Y-147787500D02*
G75*
G03*
X83987500Y-148287500I500000J0D01*
G01*
X83987500Y-134287500D02*
X96987500Y-134287500D01*
X126850000Y-39037500D02*
X139850000Y-39037500D01*
X73675000Y-58587500D02*
G75*
G03*
X73175000Y-58087500I-500000J0D01*
G01*
X169712500Y-134287500D02*
X182712500Y-134287500D01*
X83487500Y-90637500D02*
X83487500Y-77637500D01*
X96987500Y-91137500D02*
G75*
G03*
X97487500Y-90637500I0J500000D01*
G01*
X169712500Y-39037500D02*
X182712500Y-39037500D01*
X341162500Y-96187500D02*
X354162500Y-96187500D01*
X421962500Y-29225000D02*
X33987500Y-29225000D01*
X41125000Y-96187500D02*
X54125000Y-96187500D01*
X102537500Y-52537500D02*
X102537500Y-39537500D01*
X103037500Y-39037500D02*
X116037500Y-39037500D01*
X287987500Y-39537500D02*
G75*
G03*
X287487500Y-39037500I-500000J0D01*
G01*
X354662500Y-134787500D02*
X354662500Y-147787500D01*
X103037500Y-115237500D02*
X116037500Y-115237500D01*
X317350000Y-96187500D02*
G75*
G03*
X316850000Y-96687500I0J-500000D01*
G01*
X159400000Y-134787500D02*
G75*
G03*
X158900000Y-134287500I-500000J0D01*
G01*
X188262500Y-128737500D02*
X188262500Y-115737500D01*
X225575000Y-129237500D02*
G75*
G03*
X226075000Y-128737500I0J500000D01*
G01*
X287487500Y-91137500D02*
G75*
G03*
X287987500Y-90637500I0J500000D01*
G01*
X225575000Y-72087500D02*
X212575000Y-72087500D01*
X330850000Y-58587500D02*
X330850000Y-71587500D01*
X83487500Y-90637500D02*
G75*
G03*
X83987500Y-91137500I500000J0D01*
G01*
X116037500Y-148287500D02*
X103037500Y-148287500D01*
X231125000Y-90637500D02*
X231125000Y-77637500D01*
X383525000Y-147787500D02*
X383525000Y-134787500D01*
X316850000Y-128737500D02*
X316850000Y-115737500D01*
X182712500Y-91137500D02*
G75*
G03*
X183212500Y-90637500I0J500000D01*
G01*
X140350000Y-115737500D02*
X140350000Y-128737500D01*
X73175000Y-53037500D02*
G75*
G03*
X73675000Y-52537500I0J500000D01*
G01*
X254937500Y-52537500D02*
G75*
G03*
X255437500Y-53037500I500000J0D01*
G01*
X225575000Y-110187500D02*
X212575000Y-110187500D01*
X273987500Y-109687500D02*
X273987500Y-96687500D01*
X359712500Y-90637500D02*
X359712500Y-77637500D01*
X287487500Y-91137500D02*
X274487500Y-91137500D01*
X169712500Y-77137500D02*
G75*
G03*
X169212500Y-77637500I0J-500000D01*
G01*
X330350000Y-72087500D02*
X317350000Y-72087500D01*
D11*
X424247414Y-30365542D02*
X424263271Y-30433524D01*
X424277149Y-30502747D01*
X424289179Y-30573207D01*
X424299494Y-30644901D01*
X424308226Y-30717825D01*
X424315506Y-30791973D01*
X424321466Y-30867344D01*
X424326239Y-30943932D01*
X424329956Y-31021733D01*
X424332749Y-31100745D01*
X424334750Y-31180962D01*
X424336092Y-31262382D01*
X424336906Y-31344999D01*
X424337324Y-31428810D01*
X424337478Y-31513812D01*
X424337500Y-31600000D01*
D10*
X188262500Y-109687500D02*
G75*
G03*
X188762500Y-110187500I500000J0D01*
G01*
D11*
X32835423Y-158028839D02*
X32778693Y-158016173D01*
X32722541Y-158002013D01*
X32667018Y-157986271D01*
X32612176Y-157968856D01*
X32558067Y-157949677D01*
X32504741Y-157928646D01*
X32452252Y-157905673D01*
X32400651Y-157880667D01*
X32349990Y-157853538D01*
X32300320Y-157824198D01*
X32267783Y-157803365D01*
D10*
X183212500Y-115737500D02*
G75*
G03*
X182712500Y-115237500I-500000J0D01*
G01*
X54125000Y-53037500D02*
X41125000Y-53037500D01*
X169712500Y-96187500D02*
G75*
G03*
X169212500Y-96687500I0J-500000D01*
G01*
X373712500Y-134787500D02*
G75*
G03*
X373212500Y-134287500I-500000J0D01*
G01*
X96987500Y-110187500D02*
G75*
G03*
X97487500Y-109687500I0J500000D01*
G01*
X268937500Y-96687500D02*
G75*
G03*
X268437500Y-96187500I-500000J0D01*
G01*
X54625000Y-134787500D02*
G75*
G03*
X54125000Y-134287500I-500000J0D01*
G01*
X212575000Y-39037500D02*
G75*
G03*
X212075000Y-39537500I0J-500000D01*
G01*
X169212500Y-52537500D02*
G75*
G03*
X169712500Y-53037500I500000J0D01*
G01*
X159400000Y-77637500D02*
X159400000Y-90637500D01*
X97487500Y-96687500D02*
G75*
G03*
X96987500Y-96187500I-500000J0D01*
G01*
X316850000Y-147787500D02*
X316850000Y-134787500D01*
X201762500Y-53037500D02*
G75*
G03*
X202262500Y-52537500I0J500000D01*
G01*
X373712500Y-58587500D02*
G75*
G03*
X373212500Y-58087500I-500000J0D01*
G01*
X201762500Y-129237500D02*
G75*
G03*
X202262500Y-128737500I0J500000D01*
G01*
X139850000Y-53037500D02*
X126850000Y-53037500D01*
X140350000Y-39537500D02*
X140350000Y-52537500D01*
X273987500Y-147787500D02*
G75*
G03*
X274487500Y-148287500I500000J0D01*
G01*
X103037500Y-58087500D02*
X116037500Y-58087500D01*
X330850000Y-58587500D02*
G75*
G03*
X330350000Y-58087500I-500000J0D01*
G01*
X330350000Y-148287500D02*
G75*
G03*
X330850000Y-147787500I0J500000D01*
G01*
X60175000Y-77137500D02*
G75*
G03*
X59675000Y-77637500I0J-500000D01*
G01*
X102537500Y-128737500D02*
G75*
G03*
X103037500Y-129237500I500000J0D01*
G01*
X397525000Y-58587500D02*
X397525000Y-71587500D01*
X287987500Y-71587500D02*
X287987500Y-58587500D01*
X311300000Y-72087500D02*
X298300000Y-72087500D01*
X330350000Y-110187500D02*
G75*
G03*
X330850000Y-109687500I0J500000D01*
G01*
X96987500Y-91137500D02*
X83987500Y-91137500D01*
X273987500Y-71587500D02*
G75*
G03*
X274487500Y-72087500I500000J0D01*
G01*
X54625000Y-39537500D02*
X54625000Y-52537500D01*
X225575000Y-110187500D02*
G75*
G03*
X226075000Y-109687500I0J500000D01*
G01*
X183212500Y-77637500D02*
G75*
G03*
X182712500Y-77137500I-500000J0D01*
G01*
X212575000Y-53037500D02*
X225575000Y-53037500D01*
X416075000Y-110187500D02*
G75*
G03*
X416575000Y-109687500I0J500000D01*
G01*
X40625000Y-52537500D02*
X40625000Y-39537500D01*
X268937500Y-39537500D02*
X268937500Y-52537500D01*
X83987500Y-96187500D02*
X96987500Y-96187500D01*
X341162500Y-58087500D02*
X354162500Y-58087500D01*
X188762500Y-115237500D02*
G75*
G03*
X188262500Y-115737500I0J-500000D01*
G01*
X311800000Y-109687500D02*
X311800000Y-96687500D01*
X73675000Y-96687500D02*
X73675000Y-109687500D01*
X41125000Y-96187500D02*
G75*
G03*
X40625000Y-96687500I0J-500000D01*
G01*
X403075000Y-96187500D02*
G75*
G03*
X402575000Y-96687500I0J-500000D01*
G01*
X287987500Y-77637500D02*
G75*
G03*
X287487500Y-77137500I-500000J0D01*
G01*
X212075000Y-90637500D02*
G75*
G03*
X212575000Y-91137500I500000J0D01*
G01*
X145400000Y-52537500D02*
G75*
G03*
X145900000Y-53037500I500000J0D01*
G01*
X297800000Y-52537500D02*
X297800000Y-39537500D01*
X103037500Y-58087500D02*
G75*
G03*
X102537500Y-58587500I0J-500000D01*
G01*
X169712500Y-115237500D02*
G75*
G03*
X169212500Y-115737500I0J-500000D01*
G01*
X116537500Y-58587500D02*
X116537500Y-71587500D01*
X416075000Y-91137500D02*
X403075000Y-91137500D01*
X212075000Y-109687500D02*
G75*
G03*
X212575000Y-110187500I500000J0D01*
G01*
X287987500Y-134787500D02*
X287987500Y-147787500D01*
X169712500Y-115237500D02*
X182712500Y-115237500D01*
X268437500Y-129237500D02*
X255437500Y-129237500D01*
X41125000Y-39037500D02*
X54125000Y-39037500D01*
X359712500Y-109687500D02*
G75*
G03*
X360212500Y-110187500I500000J0D01*
G01*
X330350000Y-72087500D02*
G75*
G03*
X330850000Y-71587500I0J500000D01*
G01*
X330850000Y-96687500D02*
G75*
G03*
X330350000Y-96187500I-500000J0D01*
G01*
X254937500Y-90637500D02*
G75*
G03*
X255437500Y-91137500I500000J0D01*
G01*
X231125000Y-128737500D02*
X231125000Y-115737500D01*
X169212500Y-90637500D02*
G75*
G03*
X169712500Y-91137500I500000J0D01*
G01*
X60175000Y-72087500D02*
X73175000Y-72087500D01*
X330350000Y-39037500D02*
X317350000Y-39037500D01*
X169712500Y-39037500D02*
G75*
G03*
X169212500Y-39537500I0J-500000D01*
G01*
X330350000Y-91137500D02*
G75*
G03*
X330850000Y-90637500I0J500000D01*
G01*
X330350000Y-129237500D02*
X317350000Y-129237500D01*
X231625000Y-134287500D02*
G75*
G03*
X231125000Y-134787500I0J-500000D01*
G01*
X384025000Y-134287500D02*
G75*
G03*
X383525000Y-134787500I0J-500000D01*
G01*
M02*
