%TF.GenerationSoftware,KiCad,Pcbnew,7.0.7*%
%TF.CreationDate,2023-09-25T11:43:55+09:00*%
%TF.ProjectId,Duet-Switch-Tester,44756574-2d53-4776-9974-63682d546573,rev?*%
%TF.SameCoordinates,Original*%
%TF.FileFunction,Drillmap*%
%TF.FilePolarity,Positive*%
%FSLAX45Y45*%
G04 Gerber Fmt 4.5, Leading zero omitted, Abs format (unit mm)*
G04 Created by KiCad (PCBNEW 7.0.7) date 2023-09-25 11:43:55*
%MOMM*%
%LPD*%
G01*
G04 APERTURE LIST*
%ADD10C,0.050000*%
%ADD11C,0.200000*%
%ADD12C,0.220000*%
G04 APERTURE END LIST*
D10*
X20176250Y-14828750D02*
G75*
G03*
X20226250Y-14778750I0J50000D01*
G01*
X13985000Y-7208750D02*
X12685000Y-7208750D01*
X22607500Y-5858750D02*
G75*
G03*
X22557500Y-5808750I-50000J0D01*
G01*
X34116250Y-11523750D02*
G75*
G03*
X34066250Y-11573750I0J-50000D01*
G01*
X25493750Y-14778750D02*
X25493750Y-13478750D01*
X28748750Y-5303750D02*
X27448750Y-5303750D01*
X18271250Y-12923750D02*
G75*
G03*
X18321250Y-12873750I0J50000D01*
G01*
X35971250Y-5253750D02*
G75*
G03*
X36021250Y-5303750I50000J0D01*
G01*
X13985000Y-14828750D02*
G75*
G03*
X14035000Y-14778750I0J50000D01*
G01*
X9748750Y-7763750D02*
X9748750Y-9063750D01*
X42403801Y-2987598D02*
X42406516Y-2991844D01*
X42409060Y-2996170D01*
X42411436Y-3000574D01*
X42414356Y-3006560D01*
X42417003Y-3012670D01*
X42418819Y-3017329D01*
X42420495Y-3022050D01*
X42422036Y-3026830D01*
X42423450Y-3031666D01*
X42424741Y-3036554D01*
X22607500Y-5858750D02*
X22607500Y-7158750D01*
X8398750Y-9618750D02*
G75*
G03*
X8348750Y-9668750I0J-50000D01*
G01*
X11603750Y-14828750D02*
G75*
G03*
X11653750Y-14778750I0J50000D01*
G01*
X11603750Y-11018750D02*
X10303750Y-11018750D01*
X29830000Y-5808750D02*
G75*
G03*
X29780000Y-5858750I0J-50000D01*
G01*
X38402500Y-9618750D02*
X39702500Y-9618750D01*
X33035000Y-12923750D02*
G75*
G03*
X33085000Y-12873750I0J50000D01*
G01*
X27448750Y-9618750D02*
G75*
G03*
X27398750Y-9668750I0J-50000D01*
G01*
X25493750Y-9668750D02*
X25493750Y-10968750D01*
X14540000Y-5253750D02*
X14540000Y-3953750D01*
X18321250Y-9668750D02*
G75*
G03*
X18271250Y-9618750I-50000J0D01*
G01*
X7317500Y-9113750D02*
X6017500Y-9113750D01*
X15890000Y-5303750D02*
G75*
G03*
X15940000Y-5253750I0J50000D01*
G01*
X28748750Y-14828750D02*
X27448750Y-14828750D01*
X23162500Y-3903750D02*
G75*
G03*
X23112500Y-3953750I0J-50000D01*
G01*
X35466250Y-3953750D02*
X35466250Y-5253750D01*
X10303750Y-13428750D02*
X11603750Y-13428750D01*
X39752500Y-7763750D02*
X39752500Y-9063750D01*
X33035000Y-14828750D02*
X31735000Y-14828750D01*
X14540000Y-12873750D02*
G75*
G03*
X14590000Y-12923750I50000J0D01*
G01*
X40307500Y-3903750D02*
G75*
G03*
X40257500Y-3953750I0J-50000D01*
G01*
X14590000Y-9618750D02*
X15890000Y-9618750D01*
X10253750Y-14778750D02*
G75*
G03*
X10303750Y-14828750I50000J0D01*
G01*
X36021250Y-3903750D02*
G75*
G03*
X35971250Y-3953750I0J-50000D01*
G01*
X9698750Y-7208750D02*
G75*
G03*
X9748750Y-7158750I0J50000D01*
G01*
X31180000Y-11573750D02*
G75*
G03*
X31130000Y-11523750I-50000J0D01*
G01*
X16921250Y-10968750D02*
G75*
G03*
X16971250Y-11018750I50000J0D01*
G01*
X20226250Y-7763750D02*
G75*
G03*
X20176250Y-7713750I-50000J0D01*
G01*
X39752500Y-13478750D02*
G75*
G03*
X39702500Y-13428750I-50000J0D01*
G01*
X10253750Y-9063750D02*
X10253750Y-7763750D01*
X13985000Y-7208750D02*
G75*
G03*
X14035000Y-7158750I0J50000D01*
G01*
X8348750Y-12873750D02*
G75*
G03*
X8398750Y-12923750I50000J0D01*
G01*
X25543750Y-11523750D02*
G75*
G03*
X25493750Y-11573750I0J-50000D01*
G01*
X23112500Y-12873750D02*
G75*
G03*
X23162500Y-12923750I50000J0D01*
G01*
X40257500Y-14778750D02*
G75*
G03*
X40307500Y-14828750I50000J0D01*
G01*
X7317500Y-7208750D02*
G75*
G03*
X7367500Y-7158750I0J50000D01*
G01*
X3398750Y-15810000D02*
X3390768Y-15809998D01*
X3382889Y-15809986D01*
X3375115Y-15809953D01*
X3367445Y-15809889D01*
X3359879Y-15809783D01*
X3352418Y-15809625D01*
X3345060Y-15809404D01*
X3337807Y-15809110D01*
X3330658Y-15808733D01*
X3323614Y-15808263D01*
X3316674Y-15807688D01*
X3309839Y-15806998D01*
X3303108Y-15806183D01*
X3296481Y-15805233D01*
X3289959Y-15804136D01*
X3283542Y-15802884D01*
X11603750Y-11018750D02*
G75*
G03*
X11653750Y-10968750I0J50000D01*
G01*
X31735000Y-13428750D02*
X33035000Y-13428750D01*
X41607500Y-14828750D02*
X40307500Y-14828750D01*
X11653750Y-13478750D02*
X11653750Y-14778750D01*
X42311458Y-2929616D02*
X42317131Y-2930883D01*
X42322746Y-2932299D01*
X42328298Y-2933873D01*
X42333782Y-2935614D01*
X42339193Y-2937532D01*
X42344526Y-2939635D01*
X42349775Y-2941933D01*
X42354935Y-2944433D01*
X42360001Y-2947146D01*
X42364968Y-2950080D01*
X42368222Y-2952163D01*
X6017500Y-11523750D02*
G75*
G03*
X5967500Y-11573750I0J-50000D01*
G01*
X25493750Y-7158750D02*
G75*
G03*
X25543750Y-7208750I50000J0D01*
G01*
X15890000Y-12923750D02*
X14590000Y-12923750D01*
X26843750Y-9113750D02*
X25543750Y-9113750D01*
X38352500Y-9063750D02*
X38352500Y-7763750D01*
X26843750Y-9618750D02*
X25543750Y-9618750D01*
X15940000Y-5858750D02*
X15940000Y-7158750D01*
X31685000Y-12873750D02*
G75*
G03*
X31735000Y-12923750I50000J0D01*
G01*
X31685000Y-10968750D02*
G75*
G03*
X31735000Y-11018750I50000J0D01*
G01*
X42368222Y-2952163D02*
X42373445Y-2955803D01*
X42378449Y-2959671D01*
X42383234Y-2963767D01*
X42387798Y-2968089D01*
X42392138Y-2972634D01*
X42396253Y-2977402D01*
X42400141Y-2982391D01*
X42403801Y-2987598D01*
X41657500Y-11573750D02*
X41657500Y-12873750D01*
X7317500Y-5808750D02*
X6017500Y-5808750D01*
X34066250Y-12873750D02*
G75*
G03*
X34116250Y-12923750I50000J0D01*
G01*
X29830000Y-11523750D02*
X31130000Y-11523750D01*
X3168366Y-3044792D02*
X3169633Y-3039119D01*
X3171049Y-3033504D01*
X3172623Y-3027952D01*
X3174364Y-3022468D01*
X3176282Y-3017057D01*
X3178385Y-3011724D01*
X3180683Y-3006475D01*
X3183183Y-3001315D01*
X3185896Y-2996249D01*
X3188830Y-2991282D01*
X3190913Y-2988028D01*
X12635000Y-9063750D02*
G75*
G03*
X12685000Y-9113750I50000J0D01*
G01*
X35416250Y-5303750D02*
X34116250Y-5303750D01*
X7367500Y-7763750D02*
X7367500Y-9063750D01*
X14035000Y-11573750D02*
G75*
G03*
X13985000Y-11523750I-50000J0D01*
G01*
X21257500Y-5808750D02*
G75*
G03*
X21207500Y-5858750I0J-50000D01*
G01*
X37321250Y-7208750D02*
X36021250Y-7208750D01*
X22607500Y-13478750D02*
G75*
G03*
X22557500Y-13428750I-50000J0D01*
G01*
X12685000Y-5808750D02*
G75*
G03*
X12635000Y-5858750I0J-50000D01*
G01*
X5412500Y-12923750D02*
X4112500Y-12923750D01*
X12685000Y-9618750D02*
X13985000Y-9618750D01*
X23162500Y-9618750D02*
G75*
G03*
X23112500Y-9668750I0J-50000D01*
G01*
X20176250Y-5303750D02*
X18876250Y-5303750D01*
X14540000Y-9063750D02*
G75*
G03*
X14590000Y-9113750I50000J0D01*
G01*
X40307500Y-13428750D02*
X41607500Y-13428750D01*
X24462500Y-7208750D02*
G75*
G03*
X24512500Y-7158750I0J50000D01*
G01*
X21207500Y-7158750D02*
X21207500Y-5858750D01*
X20176250Y-11018750D02*
X18876250Y-11018750D01*
X7367500Y-13478750D02*
X7367500Y-14778750D01*
X40257500Y-5253750D02*
G75*
G03*
X40307500Y-5303750I50000J0D01*
G01*
X9748750Y-5858750D02*
G75*
G03*
X9698750Y-5808750I-50000J0D01*
G01*
X11603750Y-5303750D02*
X10303750Y-5303750D01*
X11653750Y-3953750D02*
X11653750Y-5253750D01*
X35416250Y-14828750D02*
G75*
G03*
X35466250Y-14778750I0J50000D01*
G01*
X14590000Y-3903750D02*
G75*
G03*
X14540000Y-3953750I0J-50000D01*
G01*
X5967500Y-11573750D02*
X5967500Y-12873750D01*
X37321250Y-11018750D02*
G75*
G03*
X37371250Y-10968750I0J50000D01*
G01*
X23162500Y-11523750D02*
G75*
G03*
X23112500Y-11573750I0J-50000D01*
G01*
X27448750Y-7713750D02*
X28748750Y-7713750D01*
X29780000Y-14778750D02*
G75*
G03*
X29830000Y-14828750I50000J0D01*
G01*
X28748750Y-11018750D02*
X27448750Y-11018750D01*
X35466250Y-13478750D02*
G75*
G03*
X35416250Y-13428750I-50000J0D01*
G01*
X9748750Y-3953750D02*
G75*
G03*
X9698750Y-3903750I-50000J0D01*
G01*
X14590000Y-13428750D02*
X15890000Y-13428750D01*
X37371250Y-5858750D02*
X37371250Y-7158750D01*
X7367500Y-13478750D02*
G75*
G03*
X7317500Y-13428750I-50000J0D01*
G01*
X9748750Y-5858750D02*
X9748750Y-7158750D01*
X35416250Y-14828750D02*
X34116250Y-14828750D01*
X23112500Y-5253750D02*
X23112500Y-3953750D01*
X26843750Y-7208750D02*
X25543750Y-7208750D01*
X11603750Y-7208750D02*
G75*
G03*
X11653750Y-7158750I0J50000D01*
G01*
X22607500Y-5253750D02*
X22607500Y-3953750D01*
X12635000Y-12873750D02*
G75*
G03*
X12685000Y-12923750I50000J0D01*
G01*
X41607500Y-14828750D02*
G75*
G03*
X41657500Y-14778750I0J50000D01*
G01*
X15940000Y-3953750D02*
G75*
G03*
X15890000Y-3903750I-50000J0D01*
G01*
X14035000Y-5858750D02*
X14035000Y-7158750D01*
X22607500Y-11573750D02*
X22607500Y-12873750D01*
X5967500Y-14778750D02*
G75*
G03*
X6017500Y-14828750I50000J0D01*
G01*
X14035000Y-7763750D02*
G75*
G03*
X13985000Y-7713750I-50000J0D01*
G01*
X39702500Y-9113750D02*
X38402500Y-9113750D01*
X14035000Y-3953750D02*
G75*
G03*
X13985000Y-3903750I-50000J0D01*
G01*
X5967500Y-12873750D02*
G75*
G03*
X6017500Y-12923750I50000J0D01*
G01*
X6017500Y-12923750D02*
X7317500Y-12923750D01*
X18826250Y-5253750D02*
G75*
G03*
X18876250Y-5303750I50000J0D01*
G01*
X18876250Y-7713750D02*
G75*
G03*
X18826250Y-7763750I0J-50000D01*
G01*
X38402500Y-5808750D02*
G75*
G03*
X38352500Y-5858750I0J-50000D01*
G01*
X34066250Y-9063750D02*
G75*
G03*
X34116250Y-9113750I50000J0D01*
G01*
X27448750Y-13428750D02*
X28748750Y-13428750D01*
X26843750Y-14828750D02*
X25543750Y-14828750D01*
X22557500Y-12923750D02*
X21257500Y-12923750D01*
X5462500Y-7763750D02*
X5462500Y-9063750D01*
X8348750Y-10968750D02*
G75*
G03*
X8398750Y-11018750I50000J0D01*
G01*
X18321250Y-5858750D02*
G75*
G03*
X18271250Y-5808750I-50000J0D01*
G01*
X37371250Y-7763750D02*
G75*
G03*
X37321250Y-7713750I-50000J0D01*
G01*
X24512500Y-9668750D02*
G75*
G03*
X24462500Y-9618750I-50000J0D01*
G01*
X28748750Y-14828750D02*
G75*
G03*
X28798750Y-14778750I0J50000D01*
G01*
X41607500Y-11018750D02*
X40307500Y-11018750D01*
X25493750Y-9063750D02*
X25493750Y-7763750D01*
X23162500Y-7713750D02*
X24462500Y-7713750D01*
X13985000Y-14828750D02*
X12685000Y-14828750D01*
X3161250Y-3160000D02*
X3161250Y-15572500D01*
X10303750Y-11523750D02*
G75*
G03*
X10253750Y-11573750I0J-50000D01*
G01*
X29780000Y-14778750D02*
X29780000Y-13478750D01*
X36021250Y-13428750D02*
X37321250Y-13428750D01*
X7367500Y-12873750D02*
X7367500Y-11573750D01*
X24512500Y-3953750D02*
X24512500Y-5253750D01*
X10303750Y-13428750D02*
G75*
G03*
X10253750Y-13478750I0J-50000D01*
G01*
X41657500Y-5858750D02*
G75*
G03*
X41607500Y-5808750I-50000J0D01*
G01*
X34066250Y-7158750D02*
G75*
G03*
X34116250Y-7208750I50000J0D01*
G01*
X31180000Y-5858750D02*
G75*
G03*
X31130000Y-5808750I-50000J0D01*
G01*
X20176250Y-7208750D02*
G75*
G03*
X20226250Y-7158750I0J50000D01*
G01*
X37321250Y-5303750D02*
X36021250Y-5303750D01*
X21207500Y-14778750D02*
G75*
G03*
X21257500Y-14828750I50000J0D01*
G01*
X37321250Y-9113750D02*
X36021250Y-9113750D01*
X27398750Y-5858750D02*
X27398750Y-7158750D01*
X33085000Y-13478750D02*
G75*
G03*
X33035000Y-13428750I-50000J0D01*
G01*
X31130000Y-11018750D02*
G75*
G03*
X31180000Y-10968750I0J50000D01*
G01*
X35971250Y-7158750D02*
X35971250Y-5858750D01*
X36021250Y-7713750D02*
X37321250Y-7713750D01*
X15940000Y-11573750D02*
G75*
G03*
X15890000Y-11523750I-50000J0D01*
G01*
X23112500Y-10968750D02*
X23112500Y-9668750D01*
X24462500Y-5303750D02*
G75*
G03*
X24512500Y-5253750I0J50000D01*
G01*
X34066250Y-9063750D02*
X34066250Y-7763750D01*
X21207500Y-3953750D02*
X21207500Y-5253750D01*
X20226250Y-5858750D02*
G75*
G03*
X20176250Y-5808750I-50000J0D01*
G01*
X37321250Y-14828750D02*
X36021250Y-14828750D01*
X21207500Y-14778750D02*
X21207500Y-13478750D01*
X20226250Y-14778750D02*
X20226250Y-13478750D01*
X27398750Y-9063750D02*
X27398750Y-7763750D01*
X24512500Y-13478750D02*
X24512500Y-14778750D01*
X15940000Y-5858750D02*
G75*
G03*
X15890000Y-5808750I-50000J0D01*
G01*
X18826250Y-13478750D02*
X18826250Y-14778750D01*
X35971250Y-9063750D02*
G75*
G03*
X36021250Y-9113750I50000J0D01*
G01*
X14590000Y-7713750D02*
G75*
G03*
X14540000Y-7763750I0J-50000D01*
G01*
X14540000Y-7158750D02*
X14540000Y-5858750D01*
X5412500Y-14828750D02*
G75*
G03*
X5462500Y-14778750I0J50000D01*
G01*
X38352500Y-7158750D02*
G75*
G03*
X38402500Y-7208750I50000J0D01*
G01*
X7367500Y-11573750D02*
G75*
G03*
X7317500Y-11523750I-50000J0D01*
G01*
X31180000Y-5858750D02*
X31180000Y-7158750D01*
X40257500Y-10968750D02*
G75*
G03*
X40307500Y-11018750I50000J0D01*
G01*
X5462500Y-11573750D02*
X5462500Y-12873750D01*
X18876250Y-5808750D02*
G75*
G03*
X18826250Y-5858750I0J-50000D01*
G01*
X8348750Y-5253750D02*
G75*
G03*
X8398750Y-5303750I50000J0D01*
G01*
X18271250Y-14828750D02*
X16971250Y-14828750D01*
X41607500Y-9113750D02*
G75*
G03*
X41657500Y-9063750I0J50000D01*
G01*
X14035000Y-13478750D02*
G75*
G03*
X13985000Y-13428750I-50000J0D01*
G01*
X28798750Y-5858750D02*
G75*
G03*
X28748750Y-5808750I-50000J0D01*
G01*
X15940000Y-7763750D02*
G75*
G03*
X15890000Y-7713750I-50000J0D01*
G01*
X35416250Y-11018750D02*
X34116250Y-11018750D01*
X5967500Y-5253750D02*
G75*
G03*
X6017500Y-5303750I50000J0D01*
G01*
X18876250Y-14828750D02*
X20176250Y-14828750D01*
X12685000Y-11523750D02*
G75*
G03*
X12635000Y-11573750I0J-50000D01*
G01*
X11603750Y-12923750D02*
X10303750Y-12923750D01*
X34116250Y-5808750D02*
G75*
G03*
X34066250Y-5858750I0J-50000D01*
G01*
X8398750Y-3903750D02*
G75*
G03*
X8348750Y-3953750I0J-50000D01*
G01*
X42368652Y-15780051D02*
X42364406Y-15782766D01*
X42360080Y-15785309D01*
X42355676Y-15787686D01*
X42349690Y-15790606D01*
X42343580Y-15793253D01*
X42338921Y-15795069D01*
X42334200Y-15796744D01*
X42329420Y-15798286D01*
X42324584Y-15799700D01*
X42319696Y-15800991D01*
X31130000Y-5303750D02*
X29830000Y-5303750D01*
X3226778Y-15780336D02*
X3221555Y-15776697D01*
X3216551Y-15772828D01*
X3211766Y-15768733D01*
X3207202Y-15764411D01*
X3202862Y-15759866D01*
X3198747Y-15755098D01*
X3194859Y-15750109D01*
X3191199Y-15744901D01*
X29780000Y-5253750D02*
G75*
G03*
X29830000Y-5303750I50000J0D01*
G01*
X10253750Y-5253750D02*
G75*
G03*
X10303750Y-5303750I50000J0D01*
G01*
X25543750Y-3903750D02*
X26843750Y-3903750D01*
X39752500Y-7763750D02*
G75*
G03*
X39702500Y-7713750I-50000J0D01*
G01*
X40307500Y-9618750D02*
X41607500Y-9618750D01*
X33085000Y-9668750D02*
X33085000Y-10968750D01*
X29830000Y-11018750D02*
X31130000Y-11018750D01*
X26893750Y-5858750D02*
G75*
G03*
X26843750Y-5808750I-50000J0D01*
G01*
X9698750Y-12923750D02*
G75*
G03*
X9748750Y-12873750I0J50000D01*
G01*
X26843750Y-5303750D02*
G75*
G03*
X26893750Y-5253750I0J50000D01*
G01*
X18876250Y-11523750D02*
X20176250Y-11523750D01*
X21207500Y-5253750D02*
G75*
G03*
X21257500Y-5303750I50000J0D01*
G01*
X14590000Y-9618750D02*
G75*
G03*
X14540000Y-9668750I0J-50000D01*
G01*
X18876250Y-13428750D02*
G75*
G03*
X18826250Y-13478750I0J-50000D01*
G01*
X14540000Y-12873750D02*
X14540000Y-11573750D01*
X5462500Y-13478750D02*
X5462500Y-14778750D01*
X34116250Y-3903750D02*
X35416250Y-3903750D01*
X7367500Y-3953750D02*
X7367500Y-5253750D01*
X5462500Y-11573750D02*
G75*
G03*
X5412500Y-11523750I-50000J0D01*
G01*
X15940000Y-13478750D02*
X15940000Y-14778750D01*
X12635000Y-14778750D02*
G75*
G03*
X12685000Y-14828750I50000J0D01*
G01*
X7367500Y-7158750D02*
X7367500Y-5858750D01*
X23112500Y-9063750D02*
G75*
G03*
X23162500Y-9113750I50000J0D01*
G01*
X4112500Y-3903750D02*
G75*
G03*
X4062500Y-3953750I0J-50000D01*
G01*
X41657500Y-7763750D02*
G75*
G03*
X41607500Y-7713750I-50000J0D01*
G01*
X24512500Y-5858750D02*
G75*
G03*
X24462500Y-5808750I-50000J0D01*
G01*
X3191199Y-15744901D02*
X3188483Y-15740656D01*
X3185940Y-15736330D01*
X3183564Y-15731926D01*
X3180644Y-15725940D01*
X3177996Y-15719830D01*
X3176181Y-15715171D01*
X3174505Y-15710450D01*
X3172964Y-15705670D01*
X3171550Y-15700834D01*
X3170259Y-15695946D01*
X4112500Y-13428750D02*
X5412500Y-13428750D01*
X40307500Y-11523750D02*
G75*
G03*
X40257500Y-11573750I0J-50000D01*
G01*
X34116250Y-3903750D02*
G75*
G03*
X34066250Y-3953750I0J-50000D01*
G01*
X38402500Y-3903750D02*
X39702500Y-3903750D01*
X7317500Y-14828750D02*
G75*
G03*
X7367500Y-14778750I0J50000D01*
G01*
X37371250Y-9668750D02*
G75*
G03*
X37321250Y-9618750I-50000J0D01*
G01*
X18876250Y-3903750D02*
G75*
G03*
X18826250Y-3953750I0J-50000D01*
G01*
X23112500Y-5253750D02*
G75*
G03*
X23162500Y-5303750I50000J0D01*
G01*
X29830000Y-3903750D02*
X31130000Y-3903750D01*
X34066250Y-10968750D02*
X34066250Y-9668750D01*
X39752500Y-3953750D02*
X39752500Y-5253750D01*
X37321250Y-7208750D02*
G75*
G03*
X37371250Y-7158750I0J50000D01*
G01*
X12685000Y-9618750D02*
G75*
G03*
X12635000Y-9668750I0J-50000D01*
G01*
X29780000Y-12873750D02*
X29780000Y-11573750D01*
X41657500Y-11573750D02*
G75*
G03*
X41607500Y-11523750I-50000J0D01*
G01*
X11653750Y-9668750D02*
X11653750Y-10968750D01*
X12635000Y-7158750D02*
X12635000Y-5858750D01*
X41607500Y-5303750D02*
X40307500Y-5303750D01*
X4062500Y-9063750D02*
X4062500Y-7763750D01*
X10303750Y-3903750D02*
G75*
G03*
X10253750Y-3953750I0J-50000D01*
G01*
X42404087Y-15744472D02*
X42400447Y-15749695D01*
X42396578Y-15754699D01*
X42392483Y-15759484D01*
X42388161Y-15764047D01*
X42383616Y-15768388D01*
X42378848Y-15772503D01*
X42373859Y-15776391D01*
X42368652Y-15780051D01*
X42196250Y-2922500D02*
X42204232Y-2922502D01*
X42212110Y-2922514D01*
X42219885Y-2922547D01*
X42227555Y-2922611D01*
X42235120Y-2922717D01*
X42242582Y-2922875D01*
X42249940Y-2923096D01*
X42257193Y-2923389D01*
X42264341Y-2923766D01*
X42271386Y-2924237D01*
X42278326Y-2924812D01*
X42285161Y-2925502D01*
X42291892Y-2926317D01*
X42298519Y-2927267D01*
X42305041Y-2928363D01*
X42311458Y-2929616D01*
X22607500Y-9668750D02*
G75*
G03*
X22557500Y-9618750I-50000J0D01*
G01*
X12635000Y-5253750D02*
X12635000Y-3953750D01*
X33085000Y-13478750D02*
X33085000Y-14778750D01*
X40257500Y-5253750D02*
X40257500Y-3953750D01*
X18271250Y-11018750D02*
G75*
G03*
X18321250Y-10968750I0J50000D01*
G01*
X15890000Y-12923750D02*
G75*
G03*
X15940000Y-12873750I0J50000D01*
G01*
X22557500Y-3903750D02*
X21257500Y-3903750D01*
X16921250Y-14778750D02*
X16921250Y-13478750D01*
X5462500Y-3953750D02*
G75*
G03*
X5412500Y-3903750I-50000J0D01*
G01*
X27448750Y-7713750D02*
G75*
G03*
X27398750Y-7763750I0J-50000D01*
G01*
X40257500Y-5858750D02*
X40257500Y-7158750D01*
X22607500Y-9668750D02*
X22607500Y-10968750D01*
X9748750Y-13478750D02*
G75*
G03*
X9698750Y-13428750I-50000J0D01*
G01*
X24512500Y-11573750D02*
G75*
G03*
X24462500Y-11523750I-50000J0D01*
G01*
X24512500Y-5858750D02*
X24512500Y-7158750D01*
X27398750Y-5253750D02*
X27398750Y-3953750D01*
X38352500Y-7158750D02*
X38352500Y-5858750D01*
X40307500Y-5808750D02*
G75*
G03*
X40257500Y-5858750I0J-50000D01*
G01*
X31130000Y-9618750D02*
X29830000Y-9618750D01*
X9748750Y-9668750D02*
X9748750Y-10968750D01*
X18876250Y-5808750D02*
X20176250Y-5808750D01*
X16921250Y-7158750D02*
X16921250Y-5858750D01*
X39752500Y-11573750D02*
X39752500Y-12873750D01*
X34066250Y-14778750D02*
G75*
G03*
X34116250Y-14828750I50000J0D01*
G01*
X4062500Y-14778750D02*
X4062500Y-13478750D01*
X11653750Y-7763750D02*
X11653750Y-9063750D01*
X23162500Y-5808750D02*
G75*
G03*
X23112500Y-5858750I0J-50000D01*
G01*
X26843750Y-12923750D02*
G75*
G03*
X26893750Y-12873750I0J50000D01*
G01*
X16921250Y-7158750D02*
G75*
G03*
X16971250Y-7208750I50000J0D01*
G01*
X7367500Y-9668750D02*
G75*
G03*
X7317500Y-9618750I-50000J0D01*
G01*
X4062500Y-10968750D02*
G75*
G03*
X4112500Y-11018750I50000J0D01*
G01*
X31180000Y-9668750D02*
G75*
G03*
X31130000Y-9618750I-50000J0D01*
G01*
X37321250Y-14828750D02*
G75*
G03*
X37371250Y-14778750I0J50000D01*
G01*
X25493750Y-5253750D02*
X25493750Y-3953750D01*
X10253750Y-12873750D02*
X10253750Y-11573750D01*
X4112500Y-5808750D02*
X5412500Y-5808750D01*
X4112500Y-7713750D02*
G75*
G03*
X4062500Y-7763750I0J-50000D01*
G01*
X37321250Y-5303750D02*
G75*
G03*
X37371250Y-5253750I0J50000D01*
G01*
X12685000Y-7713750D02*
G75*
G03*
X12635000Y-7763750I0J-50000D01*
G01*
X11653750Y-11573750D02*
G75*
G03*
X11603750Y-11523750I-50000J0D01*
G01*
X29830000Y-11523750D02*
G75*
G03*
X29780000Y-11573750I0J-50000D01*
G01*
X12635000Y-5253750D02*
G75*
G03*
X12685000Y-5303750I50000J0D01*
G01*
X13985000Y-12923750D02*
G75*
G03*
X14035000Y-12873750I0J50000D01*
G01*
X24512500Y-11573750D02*
X24512500Y-12873750D01*
X34066250Y-12873750D02*
X34066250Y-11573750D01*
X24462500Y-12923750D02*
X23162500Y-12923750D01*
X16921250Y-14778750D02*
G75*
G03*
X16971250Y-14828750I50000J0D01*
G01*
X37371250Y-9668750D02*
X37371250Y-10968750D01*
X14590000Y-7713750D02*
X15890000Y-7713750D01*
X24462500Y-9113750D02*
X23162500Y-9113750D01*
X25493750Y-14778750D02*
G75*
G03*
X25543750Y-14828750I50000J0D01*
G01*
X15890000Y-11018750D02*
X14590000Y-11018750D01*
X35416250Y-5303750D02*
G75*
G03*
X35466250Y-5253750I0J50000D01*
G01*
X23112500Y-7158750D02*
G75*
G03*
X23162500Y-7208750I50000J0D01*
G01*
X14540000Y-10968750D02*
G75*
G03*
X14590000Y-11018750I50000J0D01*
G01*
X8348750Y-10968750D02*
X8348750Y-9668750D01*
X39702500Y-7208750D02*
G75*
G03*
X39752500Y-7158750I0J50000D01*
G01*
X5412500Y-9113750D02*
X4112500Y-9113750D01*
X18271250Y-5303750D02*
G75*
G03*
X18321250Y-5253750I0J50000D01*
G01*
X35466250Y-5858750D02*
G75*
G03*
X35416250Y-5808750I-50000J0D01*
G01*
X20226250Y-3953750D02*
X20226250Y-5253750D01*
X5967500Y-10968750D02*
G75*
G03*
X6017500Y-11018750I50000J0D01*
G01*
X29780000Y-12873750D02*
G75*
G03*
X29830000Y-12923750I50000J0D01*
G01*
X26893750Y-11573750D02*
G75*
G03*
X26843750Y-11523750I-50000J0D01*
G01*
X10253750Y-7158750D02*
G75*
G03*
X10303750Y-7208750I50000J0D01*
G01*
X12635000Y-14778750D02*
X12635000Y-13478750D01*
X27448750Y-3903750D02*
X28748750Y-3903750D01*
X28748750Y-12923750D02*
G75*
G03*
X28798750Y-12873750I0J50000D01*
G01*
X31180000Y-3953750D02*
X31180000Y-5253750D01*
X29830000Y-7713750D02*
G75*
G03*
X29780000Y-7763750I0J-50000D01*
G01*
X33085000Y-11573750D02*
G75*
G03*
X33035000Y-11523750I-50000J0D01*
G01*
X31130000Y-9113750D02*
G75*
G03*
X31180000Y-9063750I0J50000D01*
G01*
X15940000Y-3953750D02*
X15940000Y-5253750D01*
X15890000Y-5303750D02*
X14590000Y-5303750D01*
X18321250Y-7763750D02*
X18321250Y-9063750D01*
X24462500Y-11018750D02*
G75*
G03*
X24512500Y-10968750I0J50000D01*
G01*
X18321250Y-13478750D02*
X18321250Y-14778750D01*
X38402500Y-11523750D02*
G75*
G03*
X38352500Y-11573750I0J-50000D01*
G01*
X28798750Y-9668750D02*
X28798750Y-10968750D01*
X23162500Y-7713750D02*
G75*
G03*
X23112500Y-7763750I0J-50000D01*
G01*
X29780000Y-9668750D02*
X29780000Y-10968750D01*
X16921250Y-12873750D02*
G75*
G03*
X16971250Y-12923750I50000J0D01*
G01*
X14540000Y-7158750D02*
G75*
G03*
X14590000Y-7208750I50000J0D01*
G01*
X10253750Y-10968750D02*
G75*
G03*
X10303750Y-11018750I50000J0D01*
G01*
X15890000Y-7208750D02*
G75*
G03*
X15940000Y-7158750I0J50000D01*
G01*
X38352500Y-5253750D02*
X38352500Y-3953750D01*
X27448750Y-7208750D02*
X28748750Y-7208750D01*
X11603750Y-9113750D02*
G75*
G03*
X11653750Y-9063750I0J50000D01*
G01*
X31735000Y-11523750D02*
G75*
G03*
X31685000Y-11573750I0J-50000D01*
G01*
X15890000Y-9113750D02*
G75*
G03*
X15940000Y-9063750I0J50000D01*
G01*
X38402500Y-13428750D02*
X39702500Y-13428750D01*
X25543750Y-11018750D02*
X26843750Y-11018750D01*
X31180000Y-7763750D02*
G75*
G03*
X31130000Y-7713750I-50000J0D01*
G01*
X18271250Y-7208750D02*
G75*
G03*
X18321250Y-7158750I0J50000D01*
G01*
X41607500Y-5303750D02*
G75*
G03*
X41657500Y-5253750I0J50000D01*
G01*
X12635000Y-10968750D02*
G75*
G03*
X12685000Y-11018750I50000J0D01*
G01*
X14035000Y-9668750D02*
G75*
G03*
X13985000Y-9618750I-50000J0D01*
G01*
X18826250Y-10968750D02*
X18826250Y-9668750D01*
X8398750Y-5808750D02*
X9698750Y-5808750D01*
X6017500Y-3903750D02*
G75*
G03*
X5967500Y-3953750I0J-50000D01*
G01*
X40307500Y-11523750D02*
X41607500Y-11523750D01*
X31130000Y-7208750D02*
G75*
G03*
X31180000Y-7158750I0J50000D01*
G01*
X31130000Y-12923750D02*
G75*
G03*
X31180000Y-12873750I0J50000D01*
G01*
X41607500Y-12923750D02*
X40307500Y-12923750D01*
X28798750Y-7763750D02*
X28798750Y-9063750D01*
X11653750Y-7763750D02*
G75*
G03*
X11603750Y-7713750I-50000J0D01*
G01*
X29780000Y-7158750D02*
X29780000Y-5858750D01*
X31735000Y-11523750D02*
X33035000Y-11523750D01*
X9698750Y-5303750D02*
G75*
G03*
X9748750Y-5253750I0J50000D01*
G01*
X16921250Y-5253750D02*
X16921250Y-3953750D01*
X20176250Y-12923750D02*
X18876250Y-12923750D01*
X33085000Y-3953750D02*
G75*
G03*
X33035000Y-3903750I-50000J0D01*
G01*
X4112500Y-7713750D02*
X5412500Y-7713750D01*
X23162500Y-9618750D02*
X24462500Y-9618750D01*
X41657500Y-9668750D02*
X41657500Y-10968750D01*
X21257500Y-13428750D02*
G75*
G03*
X21207500Y-13478750I0J-50000D01*
G01*
X38352500Y-10968750D02*
G75*
G03*
X38402500Y-11018750I50000J0D01*
G01*
X11653750Y-3953750D02*
G75*
G03*
X11603750Y-3903750I-50000J0D01*
G01*
X35466250Y-3953750D02*
G75*
G03*
X35416250Y-3903750I-50000J0D01*
G01*
X35416250Y-9113750D02*
G75*
G03*
X35466250Y-9063750I0J50000D01*
G01*
X40257500Y-9063750D02*
X40257500Y-7763750D01*
X13985000Y-11018750D02*
G75*
G03*
X14035000Y-10968750I0J50000D01*
G01*
X14540000Y-10968750D02*
X14540000Y-9668750D01*
X8398750Y-13428750D02*
G75*
G03*
X8348750Y-13478750I0J-50000D01*
G01*
X39752500Y-5858750D02*
G75*
G03*
X39702500Y-5808750I-50000J0D01*
G01*
X29780000Y-7158750D02*
G75*
G03*
X29830000Y-7208750I50000J0D01*
G01*
X31180000Y-3953750D02*
G75*
G03*
X31130000Y-3903750I-50000J0D01*
G01*
X22607500Y-3953750D02*
G75*
G03*
X22557500Y-3903750I-50000J0D01*
G01*
X18271250Y-9113750D02*
X16971250Y-9113750D01*
X23112500Y-14778750D02*
X23112500Y-13478750D01*
X31130000Y-14828750D02*
X29830000Y-14828750D01*
X13985000Y-9113750D02*
X12685000Y-9113750D01*
X35416250Y-7208750D02*
G75*
G03*
X35466250Y-7158750I0J50000D01*
G01*
X35416250Y-12923750D02*
X34116250Y-12923750D01*
X11603750Y-5303750D02*
G75*
G03*
X11653750Y-5253750I0J50000D01*
G01*
X26843750Y-7208750D02*
G75*
G03*
X26893750Y-7158750I0J50000D01*
G01*
X40307500Y-13428750D02*
G75*
G03*
X40257500Y-13478750I0J-50000D01*
G01*
X28798750Y-11573750D02*
G75*
G03*
X28748750Y-11523750I-50000J0D01*
G01*
X35466250Y-7763750D02*
G75*
G03*
X35416250Y-7713750I-50000J0D01*
G01*
X38352500Y-10968750D02*
X38352500Y-9668750D01*
X24462500Y-14828750D02*
G75*
G03*
X24512500Y-14778750I0J50000D01*
G01*
X39752500Y-9668750D02*
X39752500Y-10968750D01*
X26893750Y-10968750D02*
X26893750Y-9668750D01*
X8398750Y-3903750D02*
X9698750Y-3903750D01*
X18826250Y-7158750D02*
X18826250Y-5858750D01*
X28748750Y-5808750D02*
X27448750Y-5808750D01*
X37321250Y-9113750D02*
G75*
G03*
X37371250Y-9063750I0J50000D01*
G01*
X20176250Y-9113750D02*
G75*
G03*
X20226250Y-9063750I0J50000D01*
G01*
X22607500Y-11573750D02*
G75*
G03*
X22557500Y-11523750I-50000J0D01*
G01*
X37371250Y-13478750D02*
X37371250Y-14778750D01*
X41607500Y-7208750D02*
G75*
G03*
X41657500Y-7158750I0J50000D01*
G01*
X5967500Y-9063750D02*
G75*
G03*
X6017500Y-9113750I50000J0D01*
G01*
X29780000Y-9063750D02*
G75*
G03*
X29830000Y-9113750I50000J0D01*
G01*
X36021250Y-9618750D02*
X37321250Y-9618750D01*
X39702500Y-9113750D02*
G75*
G03*
X39752500Y-9063750I0J50000D01*
G01*
X5462500Y-9668750D02*
X5462500Y-10968750D01*
X15940000Y-9668750D02*
X15940000Y-10968750D01*
X23112500Y-7158750D02*
X23112500Y-5858750D01*
X8398750Y-7713750D02*
G75*
G03*
X8348750Y-7763750I0J-50000D01*
G01*
X5967500Y-14778750D02*
X5967500Y-13478750D01*
X6017500Y-9618750D02*
G75*
G03*
X5967500Y-9668750I0J-50000D01*
G01*
X5967500Y-5858750D02*
X5967500Y-7158750D01*
X36021250Y-9618750D02*
G75*
G03*
X35971250Y-9668750I0J-50000D01*
G01*
X31685000Y-3953750D02*
X31685000Y-5253750D01*
X42319696Y-15800991D02*
X42312898Y-15802577D01*
X42305975Y-15803965D01*
X42298929Y-15805168D01*
X42291760Y-15806199D01*
X42284467Y-15807073D01*
X42277053Y-15807801D01*
X42269516Y-15808397D01*
X42261857Y-15808874D01*
X42254077Y-15809246D01*
X42246175Y-15809525D01*
X42238154Y-15809725D01*
X42230012Y-15809859D01*
X42221750Y-15809941D01*
X42213369Y-15809982D01*
X42204869Y-15809998D01*
X42196250Y-15810000D01*
X38352500Y-14778750D02*
G75*
G03*
X38402500Y-14828750I50000J0D01*
G01*
X20176250Y-13428750D02*
X18876250Y-13428750D01*
X40257500Y-7158750D02*
G75*
G03*
X40307500Y-7208750I50000J0D01*
G01*
X14035000Y-7763750D02*
X14035000Y-9063750D01*
X25493750Y-10968750D02*
G75*
G03*
X25543750Y-11018750I50000J0D01*
G01*
X21207500Y-9063750D02*
X21207500Y-7763750D01*
X14035000Y-5858750D02*
G75*
G03*
X13985000Y-5808750I-50000J0D01*
G01*
X33085000Y-5253750D02*
X33085000Y-3953750D01*
X35971250Y-5253750D02*
X35971250Y-3953750D01*
X22557500Y-14828750D02*
X21257500Y-14828750D01*
X7317500Y-12923750D02*
G75*
G03*
X7367500Y-12873750I0J50000D01*
G01*
X38352500Y-5253750D02*
G75*
G03*
X38402500Y-5303750I50000J0D01*
G01*
X41607500Y-12923750D02*
G75*
G03*
X41657500Y-12873750I0J50000D01*
G01*
X33035000Y-9113750D02*
X31735000Y-9113750D01*
X18826250Y-14778750D02*
G75*
G03*
X18876250Y-14828750I50000J0D01*
G01*
X41657500Y-13478750D02*
X41657500Y-14778750D01*
X26893750Y-13478750D02*
X26893750Y-14778750D01*
X37371250Y-3953750D02*
X37371250Y-5253750D01*
X7367500Y-7763750D02*
G75*
G03*
X7317500Y-7713750I-50000J0D01*
G01*
X39752500Y-3953750D02*
G75*
G03*
X39702500Y-3903750I-50000J0D01*
G01*
X38402500Y-11523750D02*
X39702500Y-11523750D01*
X40307500Y-7713750D02*
X41607500Y-7713750D01*
X12635000Y-10968750D02*
X12635000Y-9668750D01*
X33035000Y-5303750D02*
G75*
G03*
X33085000Y-5253750I0J50000D01*
G01*
X39702500Y-12923750D02*
X38402500Y-12923750D01*
X40257500Y-9063750D02*
G75*
G03*
X40307500Y-9113750I50000J0D01*
G01*
X5462500Y-5858750D02*
X5462500Y-7158750D01*
X7317500Y-9113750D02*
G75*
G03*
X7367500Y-9063750I0J50000D01*
G01*
X24462500Y-14828750D02*
X23162500Y-14828750D01*
X18271250Y-5303750D02*
X16971250Y-5303750D01*
X24462500Y-11018750D02*
X23162500Y-11018750D01*
X4112500Y-5808750D02*
G75*
G03*
X4062500Y-5858750I0J-50000D01*
G01*
X31685000Y-9063750D02*
G75*
G03*
X31735000Y-9113750I50000J0D01*
G01*
X35971250Y-10968750D02*
X35971250Y-9668750D01*
X13985000Y-11018750D02*
X12685000Y-11018750D01*
X23112500Y-10968750D02*
G75*
G03*
X23162500Y-11018750I50000J0D01*
G01*
X16971250Y-5808750D02*
G75*
G03*
X16921250Y-5858750I0J-50000D01*
G01*
X24512500Y-3953750D02*
G75*
G03*
X24462500Y-3903750I-50000J0D01*
G01*
X5412500Y-12923750D02*
G75*
G03*
X5462500Y-12873750I0J50000D01*
G01*
X39702500Y-12923750D02*
G75*
G03*
X39752500Y-12873750I0J50000D01*
G01*
X39752500Y-11573750D02*
G75*
G03*
X39702500Y-11523750I-50000J0D01*
G01*
X31130000Y-14828750D02*
G75*
G03*
X31180000Y-14778750I0J50000D01*
G01*
X9698750Y-14828750D02*
G75*
G03*
X9748750Y-14778750I0J50000D01*
G01*
X25493750Y-12873750D02*
X25493750Y-11573750D01*
X38402500Y-3903750D02*
G75*
G03*
X38352500Y-3953750I0J-50000D01*
G01*
X16921250Y-10968750D02*
X16921250Y-9668750D01*
X34116250Y-7713750D02*
G75*
G03*
X34066250Y-7763750I0J-50000D01*
G01*
X22557500Y-7208750D02*
G75*
G03*
X22607500Y-7158750I0J50000D01*
G01*
X9698750Y-11018750D02*
X8398750Y-11018750D01*
X7317500Y-14828750D02*
X6017500Y-14828750D01*
X35466250Y-9668750D02*
X35466250Y-10968750D01*
X12635000Y-12873750D02*
X12635000Y-11573750D01*
X5967500Y-7158750D02*
G75*
G03*
X6017500Y-7208750I50000J0D01*
G01*
X4062500Y-12873750D02*
G75*
G03*
X4112500Y-12923750I50000J0D01*
G01*
X25543750Y-13428750D02*
X26843750Y-13428750D01*
X18826250Y-7158750D02*
G75*
G03*
X18876250Y-7208750I50000J0D01*
G01*
X21257500Y-9618750D02*
X22557500Y-9618750D01*
X31735000Y-7713750D02*
G75*
G03*
X31685000Y-7763750I0J-50000D01*
G01*
X33085000Y-7763750D02*
G75*
G03*
X33035000Y-7713750I-50000J0D01*
G01*
X22557500Y-14828750D02*
G75*
G03*
X22607500Y-14778750I0J50000D01*
G01*
X39702500Y-7208750D02*
X38402500Y-7208750D01*
X8348750Y-7158750D02*
X8348750Y-5858750D01*
X18876250Y-9618750D02*
X20176250Y-9618750D01*
X10253750Y-14778750D02*
X10253750Y-13478750D01*
X8398750Y-11523750D02*
X9698750Y-11523750D01*
X37321250Y-12923750D02*
X36021250Y-12923750D01*
X8348750Y-12873750D02*
X8348750Y-11573750D01*
X5967500Y-10968750D02*
X5967500Y-9668750D01*
X4062500Y-9063750D02*
G75*
G03*
X4112500Y-9113750I50000J0D01*
G01*
X18826250Y-9063750D02*
X18826250Y-7763750D01*
X10303750Y-9618750D02*
G75*
G03*
X10253750Y-9668750I0J-50000D01*
G01*
X15890000Y-14828750D02*
X14590000Y-14828750D01*
X28748750Y-5303750D02*
G75*
G03*
X28798750Y-5253750I0J50000D01*
G01*
X8398750Y-5808750D02*
G75*
G03*
X8348750Y-5858750I0J-50000D01*
G01*
X18271250Y-11018750D02*
X16971250Y-11018750D01*
X7317500Y-11523750D02*
X6017500Y-11523750D01*
X29830000Y-13428750D02*
G75*
G03*
X29780000Y-13478750I0J-50000D01*
G01*
X40307500Y-7713750D02*
G75*
G03*
X40257500Y-7763750I0J-50000D01*
G01*
X31130000Y-5303750D02*
G75*
G03*
X31180000Y-5253750I0J50000D01*
G01*
X3226348Y-2952449D02*
X3230594Y-2949733D01*
X3234920Y-2947190D01*
X3239324Y-2944814D01*
X3245310Y-2941894D01*
X3251420Y-2939246D01*
X3256079Y-2937431D01*
X3260800Y-2935755D01*
X3265580Y-2934214D01*
X3270416Y-2932800D01*
X3275304Y-2931509D01*
X20226250Y-5858750D02*
X20226250Y-7158750D01*
X18321250Y-3953750D02*
G75*
G03*
X18271250Y-3903750I-50000J0D01*
G01*
X21207500Y-7158750D02*
G75*
G03*
X21257500Y-7208750I50000J0D01*
G01*
X25493750Y-7158750D02*
X25493750Y-5858750D01*
X14590000Y-13428750D02*
G75*
G03*
X14540000Y-13478750I0J-50000D01*
G01*
X28748750Y-12923750D02*
X27448750Y-12923750D01*
X15890000Y-11018750D02*
G75*
G03*
X15940000Y-10968750I0J50000D01*
G01*
X8348750Y-5253750D02*
X8348750Y-3953750D01*
X15940000Y-9668750D02*
G75*
G03*
X15890000Y-9618750I-50000J0D01*
G01*
X23112500Y-14778750D02*
G75*
G03*
X23162500Y-14828750I50000J0D01*
G01*
X6017500Y-5808750D02*
G75*
G03*
X5967500Y-5858750I0J-50000D01*
G01*
X26893750Y-11573750D02*
X26893750Y-12873750D01*
X29830000Y-3903750D02*
G75*
G03*
X29780000Y-3953750I0J-50000D01*
G01*
X8398750Y-7713750D02*
X9698750Y-7713750D01*
X21207500Y-12873750D02*
G75*
G03*
X21257500Y-12923750I50000J0D01*
G01*
X26893750Y-7763750D02*
G75*
G03*
X26843750Y-7713750I-50000J0D01*
G01*
X13985000Y-5303750D02*
G75*
G03*
X14035000Y-5253750I0J50000D01*
G01*
X18321250Y-5858750D02*
X18321250Y-7158750D01*
X14035000Y-13478750D02*
X14035000Y-14778750D01*
X27448750Y-11523750D02*
X28748750Y-11523750D01*
X26893750Y-7763750D02*
X26893750Y-9063750D01*
X6017500Y-9618750D02*
X7317500Y-9618750D01*
X15890000Y-14828750D02*
G75*
G03*
X15940000Y-14778750I0J50000D01*
G01*
X35416250Y-9113750D02*
X34116250Y-9113750D01*
X25543750Y-13428750D02*
G75*
G03*
X25493750Y-13478750I0J-50000D01*
G01*
X6017500Y-7713750D02*
X7317500Y-7713750D01*
X37371250Y-11573750D02*
G75*
G03*
X37321250Y-11523750I-50000J0D01*
G01*
X10253750Y-9063750D02*
G75*
G03*
X10303750Y-9113750I50000J0D01*
G01*
X5967500Y-9063750D02*
X5967500Y-7763750D01*
X35416250Y-11018750D02*
G75*
G03*
X35466250Y-10968750I0J50000D01*
G01*
X24512500Y-7763750D02*
X24512500Y-9063750D01*
X25543750Y-3903750D02*
G75*
G03*
X25493750Y-3953750I0J-50000D01*
G01*
X29830000Y-9618750D02*
G75*
G03*
X29780000Y-9668750I0J-50000D01*
G01*
X12685000Y-3903750D02*
G75*
G03*
X12635000Y-3953750I0J-50000D01*
G01*
X20226250Y-9668750D02*
G75*
G03*
X20176250Y-9618750I-50000J0D01*
G01*
X18826250Y-5253750D02*
X18826250Y-3953750D01*
X25543750Y-7713750D02*
G75*
G03*
X25493750Y-7763750I0J-50000D01*
G01*
X41657500Y-7763750D02*
X41657500Y-9063750D01*
X35971250Y-14778750D02*
G75*
G03*
X36021250Y-14828750I50000J0D01*
G01*
X14590000Y-5808750D02*
G75*
G03*
X14540000Y-5858750I0J-50000D01*
G01*
X12685000Y-13428750D02*
X13985000Y-13428750D01*
X25493750Y-12873750D02*
G75*
G03*
X25543750Y-12923750I50000J0D01*
G01*
X4062500Y-5253750D02*
G75*
G03*
X4112500Y-5303750I50000J0D01*
G01*
X34066250Y-5253750D02*
X34066250Y-3953750D01*
X31180000Y-7763750D02*
X31180000Y-9063750D01*
X22607500Y-7763750D02*
X22607500Y-9063750D01*
X18321250Y-9668750D02*
X18321250Y-10968750D01*
X23162500Y-11523750D02*
X24462500Y-11523750D01*
X33035000Y-11018750D02*
X31735000Y-11018750D01*
X3161250Y-3160000D02*
X3161252Y-3152018D01*
X3161264Y-3144139D01*
X3161297Y-3136365D01*
X3161361Y-3128695D01*
X3161467Y-3121129D01*
X3161625Y-3113668D01*
X3161846Y-3106310D01*
X3162139Y-3099057D01*
X3162516Y-3091908D01*
X3162987Y-3084864D01*
X3163562Y-3077924D01*
X3164252Y-3071089D01*
X3165067Y-3064358D01*
X3166017Y-3057731D01*
X3167113Y-3051209D01*
X3168366Y-3044792D01*
X22607500Y-7763750D02*
G75*
G03*
X22557500Y-7713750I-50000J0D01*
G01*
X34116250Y-13428750D02*
G75*
G03*
X34066250Y-13478750I0J-50000D01*
G01*
X25543750Y-5808750D02*
X26843750Y-5808750D01*
X31685000Y-5253750D02*
G75*
G03*
X31735000Y-5303750I50000J0D01*
G01*
X15940000Y-11573750D02*
X15940000Y-12873750D01*
X14590000Y-11523750D02*
G75*
G03*
X14540000Y-11573750I0J-50000D01*
G01*
X24462500Y-9113750D02*
G75*
G03*
X24512500Y-9063750I0J50000D01*
G01*
X4062500Y-7158750D02*
X4062500Y-5858750D01*
X5967500Y-5253750D02*
X5967500Y-3953750D01*
X20226250Y-7763750D02*
X20226250Y-9063750D01*
X22557500Y-5303750D02*
G75*
G03*
X22607500Y-5253750I0J50000D01*
G01*
X7317500Y-11018750D02*
G75*
G03*
X7367500Y-10968750I0J50000D01*
G01*
X35416250Y-7208750D02*
X34116250Y-7208750D01*
X25543750Y-9618750D02*
G75*
G03*
X25493750Y-9668750I0J-50000D01*
G01*
X37371250Y-11573750D02*
X37371250Y-12873750D01*
X37321250Y-12923750D02*
G75*
G03*
X37371250Y-12873750I0J50000D01*
G01*
X16971250Y-7713750D02*
X18271250Y-7713750D01*
X11603750Y-12923750D02*
G75*
G03*
X11653750Y-12873750I0J50000D01*
G01*
X20226250Y-11573750D02*
G75*
G03*
X20176250Y-11523750I-50000J0D01*
G01*
X18271250Y-14828750D02*
G75*
G03*
X18321250Y-14778750I0J50000D01*
G01*
X8398750Y-11523750D02*
G75*
G03*
X8348750Y-11573750I0J-50000D01*
G01*
X40257500Y-12873750D02*
G75*
G03*
X40307500Y-12923750I50000J0D01*
G01*
X4112500Y-11523750D02*
X5412500Y-11523750D01*
X10303750Y-7713750D02*
X11603750Y-7713750D01*
X20176250Y-7208750D02*
X18876250Y-7208750D01*
X31685000Y-14778750D02*
G75*
G03*
X31735000Y-14828750I50000J0D01*
G01*
X9748750Y-13478750D02*
X9748750Y-14778750D01*
X11653750Y-13478750D02*
G75*
G03*
X11603750Y-13428750I-50000J0D01*
G01*
X35466250Y-9668750D02*
G75*
G03*
X35416250Y-9618750I-50000J0D01*
G01*
X28798750Y-13478750D02*
G75*
G03*
X28748750Y-13428750I-50000J0D01*
G01*
X4062500Y-10968750D02*
X4062500Y-9668750D01*
X21257500Y-11523750D02*
G75*
G03*
X21207500Y-11573750I0J-50000D01*
G01*
X28798750Y-9668750D02*
G75*
G03*
X28748750Y-9618750I-50000J0D01*
G01*
X35971250Y-12873750D02*
X35971250Y-11573750D01*
X18826250Y-9063750D02*
G75*
G03*
X18876250Y-9113750I50000J0D01*
G01*
X20226250Y-11573750D02*
X20226250Y-12873750D01*
X21257500Y-11523750D02*
X22557500Y-11523750D01*
X27398750Y-14778750D02*
X27398750Y-13478750D01*
X13985000Y-9113750D02*
G75*
G03*
X14035000Y-9063750I0J50000D01*
G01*
X27448750Y-9618750D02*
X28748750Y-9618750D01*
X5412500Y-11018750D02*
G75*
G03*
X5462500Y-10968750I0J50000D01*
G01*
X27398750Y-5253750D02*
G75*
G03*
X27448750Y-5303750I50000J0D01*
G01*
X25543750Y-11523750D02*
X26843750Y-11523750D01*
X5412500Y-7208750D02*
X4112500Y-7208750D01*
X8348750Y-14778750D02*
X8348750Y-13478750D01*
X14540000Y-14778750D02*
G75*
G03*
X14590000Y-14828750I50000J0D01*
G01*
X22607500Y-13478750D02*
X22607500Y-14778750D01*
X31735000Y-5808750D02*
X33035000Y-5808750D01*
X14590000Y-5808750D02*
X15890000Y-5808750D01*
X23162500Y-3903750D02*
X24462500Y-3903750D01*
X31735000Y-13428750D02*
G75*
G03*
X31685000Y-13478750I0J-50000D01*
G01*
X34066250Y-14778750D02*
X34066250Y-13478750D01*
X6017500Y-13428750D02*
X7317500Y-13428750D01*
X28748750Y-11018750D02*
G75*
G03*
X28798750Y-10968750I0J50000D01*
G01*
X35466250Y-7763750D02*
X35466250Y-9063750D01*
X20226250Y-9668750D02*
X20226250Y-10968750D01*
X9748750Y-11573750D02*
X9748750Y-12873750D01*
X34116250Y-13428750D02*
X35416250Y-13428750D01*
X31735000Y-7713750D02*
X33035000Y-7713750D01*
X38352500Y-12873750D02*
X38352500Y-11573750D01*
X37321250Y-11018750D02*
X36021250Y-11018750D01*
X24512500Y-9668750D02*
X24512500Y-10968750D01*
X12685000Y-11523750D02*
X13985000Y-11523750D01*
X18271250Y-7208750D02*
X16971250Y-7208750D01*
X26843750Y-5303750D02*
X25543750Y-5303750D01*
X27448750Y-3903750D02*
G75*
G03*
X27398750Y-3953750I0J-50000D01*
G01*
X14540000Y-9063750D02*
X14540000Y-7763750D01*
X31180000Y-13478750D02*
X31180000Y-14778750D01*
X31130000Y-12923750D02*
X29830000Y-12923750D01*
X31130000Y-9113750D02*
X29830000Y-9113750D01*
X37371250Y-3953750D02*
G75*
G03*
X37321250Y-3903750I-50000J0D01*
G01*
X5462500Y-9668750D02*
G75*
G03*
X5412500Y-9618750I-50000J0D01*
G01*
X4062500Y-12873750D02*
X4062500Y-11573750D01*
X28748750Y-7208750D02*
G75*
G03*
X28798750Y-7158750I0J50000D01*
G01*
X4062500Y-7158750D02*
G75*
G03*
X4112500Y-7208750I50000J0D01*
G01*
X29830000Y-13428750D02*
X31130000Y-13428750D01*
X5412500Y-14828750D02*
X4112500Y-14828750D01*
X27448750Y-11523750D02*
G75*
G03*
X27398750Y-11573750I0J-50000D01*
G01*
X31180000Y-11573750D02*
X31180000Y-12873750D01*
X12685000Y-7713750D02*
X13985000Y-7713750D01*
X35466250Y-11573750D02*
G75*
G03*
X35416250Y-11523750I-50000J0D01*
G01*
X5462500Y-7763750D02*
G75*
G03*
X5412500Y-7713750I-50000J0D01*
G01*
X31685000Y-7158750D02*
X31685000Y-5858750D01*
X3398750Y-15810000D02*
X42196250Y-15810000D01*
X26843750Y-14828750D02*
G75*
G03*
X26893750Y-14778750I0J50000D01*
G01*
X35971250Y-12873750D02*
G75*
G03*
X36021250Y-12923750I50000J0D01*
G01*
X14540000Y-14778750D02*
X14540000Y-13478750D01*
X18876250Y-3903750D02*
X20176250Y-3903750D01*
X40307500Y-7208750D02*
X41607500Y-7208750D01*
X5412500Y-9113750D02*
G75*
G03*
X5462500Y-9063750I0J50000D01*
G01*
X39752500Y-13478750D02*
X39752500Y-14778750D01*
X28798750Y-3953750D02*
X28798750Y-5253750D01*
X39702500Y-11018750D02*
X38402500Y-11018750D01*
X21207500Y-12873750D02*
X21207500Y-11573750D01*
X12685000Y-5808750D02*
X13985000Y-5808750D01*
X41657500Y-3953750D02*
X41657500Y-5253750D01*
X10303750Y-7713750D02*
G75*
G03*
X10253750Y-7763750I0J-50000D01*
G01*
X22557500Y-9113750D02*
G75*
G03*
X22607500Y-9063750I0J50000D01*
G01*
X24462500Y-7208750D02*
X23162500Y-7208750D01*
X5462500Y-5858750D02*
G75*
G03*
X5412500Y-5808750I-50000J0D01*
G01*
X36021250Y-5808750D02*
X37321250Y-5808750D01*
X9748750Y-7763750D02*
G75*
G03*
X9698750Y-7713750I-50000J0D01*
G01*
X4112500Y-11523750D02*
G75*
G03*
X4062500Y-11573750I0J-50000D01*
G01*
X7367500Y-3953750D02*
G75*
G03*
X7317500Y-3903750I-50000J0D01*
G01*
X23162500Y-5808750D02*
X24462500Y-5808750D01*
X31735000Y-5808750D02*
G75*
G03*
X31685000Y-5858750I0J-50000D01*
G01*
X33085000Y-7763750D02*
X33085000Y-9063750D01*
X11603750Y-7208750D02*
X10303750Y-7208750D01*
X9748750Y-3953750D02*
X9748750Y-5253750D01*
X3190913Y-2988028D02*
X3194553Y-2982805D01*
X3198421Y-2977801D01*
X3202517Y-2973016D01*
X3206839Y-2968452D01*
X3211384Y-2964112D01*
X3216152Y-2959997D01*
X3221141Y-2956109D01*
X3226348Y-2952449D01*
X36021250Y-3903750D02*
X37321250Y-3903750D01*
X26893750Y-13478750D02*
G75*
G03*
X26843750Y-13428750I-50000J0D01*
G01*
X9698750Y-7208750D02*
X8398750Y-7208750D01*
X39702500Y-14828750D02*
G75*
G03*
X39752500Y-14778750I0J50000D01*
G01*
X5412500Y-11018750D02*
X4112500Y-11018750D01*
X13985000Y-12923750D02*
X12685000Y-12923750D01*
X10253750Y-7158750D02*
X10253750Y-5858750D01*
X18321250Y-11573750D02*
X18321250Y-12873750D01*
X27448750Y-13428750D02*
G75*
G03*
X27398750Y-13478750I0J-50000D01*
G01*
X8348750Y-7158750D02*
G75*
G03*
X8398750Y-7208750I50000J0D01*
G01*
X4112500Y-13428750D02*
G75*
G03*
X4062500Y-13478750I0J-50000D01*
G01*
X9698750Y-5303750D02*
X8398750Y-5303750D01*
X28798750Y-11573750D02*
X28798750Y-12873750D01*
X36021250Y-7713750D02*
G75*
G03*
X35971250Y-7763750I0J-50000D01*
G01*
X5412500Y-5303750D02*
G75*
G03*
X5462500Y-5253750I0J50000D01*
G01*
X21257500Y-9618750D02*
G75*
G03*
X21207500Y-9668750I0J-50000D01*
G01*
X41657500Y-3953750D02*
G75*
G03*
X41607500Y-3903750I-50000J0D01*
G01*
X15890000Y-9113750D02*
X14590000Y-9113750D01*
X23162500Y-13428750D02*
X24462500Y-13428750D01*
X31685000Y-10968750D02*
X31685000Y-9668750D01*
X38352500Y-9063750D02*
G75*
G03*
X38402500Y-9113750I50000J0D01*
G01*
X35466250Y-11573750D02*
X35466250Y-12873750D01*
X14590000Y-3903750D02*
X15890000Y-3903750D01*
X16921250Y-12873750D02*
X16921250Y-11573750D01*
X26843750Y-9113750D02*
G75*
G03*
X26893750Y-9063750I0J50000D01*
G01*
X11653750Y-9668750D02*
G75*
G03*
X11603750Y-9618750I-50000J0D01*
G01*
X39702500Y-5303750D02*
G75*
G03*
X39752500Y-5253750I0J50000D01*
G01*
X24512500Y-13478750D02*
G75*
G03*
X24462500Y-13428750I-50000J0D01*
G01*
X4062500Y-14778750D02*
G75*
G03*
X4112500Y-14828750I50000J0D01*
G01*
X29830000Y-7713750D02*
X31130000Y-7713750D01*
X24512500Y-7763750D02*
G75*
G03*
X24462500Y-7713750I-50000J0D01*
G01*
X38352500Y-12873750D02*
G75*
G03*
X38402500Y-12923750I50000J0D01*
G01*
X21257500Y-5808750D02*
X22557500Y-5808750D01*
X14590000Y-11523750D02*
X15890000Y-11523750D01*
X40257500Y-12873750D02*
X40257500Y-11573750D01*
X40257500Y-14778750D02*
X40257500Y-13478750D01*
X36021250Y-11523750D02*
X37321250Y-11523750D01*
X3275304Y-2931509D02*
X3282102Y-2929923D01*
X3289025Y-2928535D01*
X3296071Y-2927332D01*
X3303240Y-2926300D01*
X3310532Y-2925427D01*
X3317947Y-2924699D01*
X3325484Y-2924103D01*
X3333143Y-2923626D01*
X3340923Y-2923254D01*
X3348824Y-2922975D01*
X3356846Y-2922775D01*
X3364988Y-2922641D01*
X3373250Y-2922559D01*
X3381631Y-2922517D01*
X3390131Y-2922502D01*
X3398750Y-2922500D01*
X18321250Y-13478750D02*
G75*
G03*
X18271250Y-13428750I-50000J0D01*
G01*
X20226250Y-13478750D02*
G75*
G03*
X20176250Y-13428750I-50000J0D01*
G01*
X18826250Y-12873750D02*
G75*
G03*
X18876250Y-12923750I50000J0D01*
G01*
X38402500Y-9618750D02*
G75*
G03*
X38352500Y-9668750I0J-50000D01*
G01*
X3170259Y-15695946D02*
X3168673Y-15689147D01*
X3167285Y-15682225D01*
X3166082Y-15675179D01*
X3165050Y-15668010D01*
X3164177Y-15660717D01*
X3163449Y-15653303D01*
X3162853Y-15645765D01*
X3162376Y-15638107D01*
X3162004Y-15630327D01*
X3161725Y-15622425D01*
X3161525Y-15614404D01*
X3161391Y-15606262D01*
X3161309Y-15598000D01*
X3161267Y-15589619D01*
X3161252Y-15581119D01*
X3161250Y-15572500D01*
X7317500Y-11018750D02*
X6017500Y-11018750D01*
X41657500Y-9668750D02*
G75*
G03*
X41607500Y-9618750I-50000J0D01*
G01*
X35466250Y-5858750D02*
X35466250Y-7158750D01*
X9748750Y-11573750D02*
G75*
G03*
X9698750Y-11523750I-50000J0D01*
G01*
X16971250Y-9618750D02*
X18271250Y-9618750D01*
X7317500Y-5303750D02*
X6017500Y-5303750D01*
X34116250Y-11523750D02*
X35416250Y-11523750D01*
X29780000Y-9063750D02*
X29780000Y-7763750D01*
X14035000Y-9668750D02*
X14035000Y-10968750D01*
X37371250Y-7763750D02*
X37371250Y-9063750D01*
X18876250Y-9618750D02*
G75*
G03*
X18826250Y-9668750I0J-50000D01*
G01*
X16921250Y-9063750D02*
X16921250Y-7763750D01*
X34066250Y-7158750D02*
X34066250Y-5858750D01*
X31685000Y-7158750D02*
G75*
G03*
X31735000Y-7208750I50000J0D01*
G01*
X10253750Y-10968750D02*
X10253750Y-9668750D01*
X9698750Y-12923750D02*
X8398750Y-12923750D01*
X21207500Y-10968750D02*
X21207500Y-9668750D01*
X35971250Y-14778750D02*
X35971250Y-13478750D01*
X39702500Y-14828750D02*
X38402500Y-14828750D01*
X34066250Y-5253750D02*
G75*
G03*
X34116250Y-5303750I50000J0D01*
G01*
X40307500Y-3903750D02*
X41607500Y-3903750D01*
X24462500Y-5303750D02*
X23162500Y-5303750D01*
X22557500Y-9113750D02*
X21257500Y-9113750D01*
X31735000Y-3903750D02*
G75*
G03*
X31685000Y-3953750I0J-50000D01*
G01*
X10303750Y-9618750D02*
X11603750Y-9618750D01*
X31685000Y-9063750D02*
X31685000Y-7763750D01*
X5412500Y-7208750D02*
G75*
G03*
X5462500Y-7158750I0J50000D01*
G01*
X12635000Y-9063750D02*
X12635000Y-7763750D01*
X40257500Y-10968750D02*
X40257500Y-9668750D01*
X35416250Y-12923750D02*
G75*
G03*
X35466250Y-12873750I0J50000D01*
G01*
X15890000Y-7208750D02*
X14590000Y-7208750D01*
X27398750Y-12873750D02*
X27398750Y-11573750D01*
X26893750Y-3953750D02*
G75*
G03*
X26843750Y-3903750I-50000J0D01*
G01*
X38402500Y-7713750D02*
X39702500Y-7713750D01*
X11653750Y-11573750D02*
X11653750Y-12873750D01*
X25543750Y-5808750D02*
G75*
G03*
X25493750Y-5858750I0J-50000D01*
G01*
X20176250Y-11018750D02*
G75*
G03*
X20226250Y-10968750I0J50000D01*
G01*
X16971250Y-13428750D02*
G75*
G03*
X16921250Y-13478750I0J-50000D01*
G01*
X38402500Y-7713750D02*
G75*
G03*
X38352500Y-7763750I0J-50000D01*
G01*
X36021250Y-13428750D02*
G75*
G03*
X35971250Y-13478750I0J-50000D01*
G01*
X31735000Y-5303750D02*
X33035000Y-5303750D01*
X41607500Y-5808750D02*
X40307500Y-5808750D01*
X11653750Y-5858750D02*
G75*
G03*
X11603750Y-5808750I-50000J0D01*
G01*
X18876250Y-7713750D02*
X20176250Y-7713750D01*
X24462500Y-12923750D02*
G75*
G03*
X24512500Y-12873750I0J50000D01*
G01*
X9698750Y-14828750D02*
X8398750Y-14828750D01*
X42433750Y-15572500D02*
X42433750Y-3160000D01*
X36021250Y-5808750D02*
G75*
G03*
X35971250Y-5858750I0J-50000D01*
G01*
X39702500Y-5303750D02*
X38402500Y-5303750D01*
X18321250Y-3953750D02*
X18321250Y-5253750D01*
X26893750Y-5858750D02*
X26893750Y-7158750D01*
X12635000Y-7158750D02*
G75*
G03*
X12685000Y-7208750I50000J0D01*
G01*
X33085000Y-11573750D02*
X33085000Y-12873750D01*
X20176250Y-9113750D02*
X18876250Y-9113750D01*
X6017500Y-13428750D02*
G75*
G03*
X5967500Y-13478750I0J-50000D01*
G01*
X31735000Y-9618750D02*
X33035000Y-9618750D01*
X36021250Y-11523750D02*
G75*
G03*
X35971250Y-11573750I0J-50000D01*
G01*
X41657500Y-7158750D02*
X41657500Y-5858750D01*
X27398750Y-9063750D02*
G75*
G03*
X27448750Y-9113750I50000J0D01*
G01*
X38402500Y-5808750D02*
X39702500Y-5808750D01*
X41657500Y-13478750D02*
G75*
G03*
X41607500Y-13428750I-50000J0D01*
G01*
X27448750Y-5808750D02*
G75*
G03*
X27398750Y-5858750I0J-50000D01*
G01*
X6017500Y-3903750D02*
X7317500Y-3903750D01*
X34116250Y-9618750D02*
G75*
G03*
X34066250Y-9668750I0J-50000D01*
G01*
X29830000Y-5808750D02*
X31130000Y-5808750D01*
X21257500Y-7713750D02*
G75*
G03*
X21207500Y-7763750I0J-50000D01*
G01*
X21257500Y-7713750D02*
X22557500Y-7713750D01*
X21257500Y-13428750D02*
X22557500Y-13428750D01*
X18271250Y-12923750D02*
X16971250Y-12923750D01*
X34116250Y-7713750D02*
X35416250Y-7713750D01*
X12685000Y-13428750D02*
G75*
G03*
X12635000Y-13478750I0J-50000D01*
G01*
X35971250Y-7158750D02*
G75*
G03*
X36021250Y-7208750I50000J0D01*
G01*
X27398750Y-12873750D02*
G75*
G03*
X27448750Y-12923750I50000J0D01*
G01*
X42426634Y-15687708D02*
X42425367Y-15693381D01*
X42423951Y-15698996D01*
X42422377Y-15704548D01*
X42420636Y-15710032D01*
X42418718Y-15715443D01*
X42416615Y-15720776D01*
X42414317Y-15726025D01*
X42411817Y-15731185D01*
X42409104Y-15736251D01*
X42406170Y-15741218D01*
X42404087Y-15744472D01*
X34066250Y-10968750D02*
G75*
G03*
X34116250Y-11018750I50000J0D01*
G01*
X26843750Y-11018750D02*
G75*
G03*
X26893750Y-10968750I0J50000D01*
G01*
X11603750Y-9113750D02*
X10303750Y-9113750D01*
X39702500Y-11018750D02*
G75*
G03*
X39752500Y-10968750I0J50000D01*
G01*
X16971250Y-5808750D02*
X18271250Y-5808750D01*
X42433750Y-15572500D02*
X42433748Y-15580482D01*
X42433736Y-15588360D01*
X42433703Y-15596134D01*
X42433639Y-15603805D01*
X42433533Y-15611370D01*
X42433375Y-15618832D01*
X42433154Y-15626189D01*
X42432860Y-15633443D01*
X42432483Y-15640591D01*
X42432013Y-15647636D01*
X42431438Y-15654576D01*
X42430748Y-15661411D01*
X42429933Y-15668142D01*
X42428983Y-15674769D01*
X42427887Y-15681290D01*
X42426634Y-15687708D01*
X29780000Y-10968750D02*
G75*
G03*
X29830000Y-11018750I50000J0D01*
G01*
X27398750Y-10968750D02*
G75*
G03*
X27448750Y-11018750I50000J0D01*
G01*
X25543750Y-7713750D02*
X26843750Y-7713750D01*
X39752500Y-9668750D02*
G75*
G03*
X39702500Y-9618750I-50000J0D01*
G01*
X31180000Y-13478750D02*
G75*
G03*
X31130000Y-13428750I-50000J0D01*
G01*
X20226250Y-3953750D02*
G75*
G03*
X20176250Y-3903750I-50000J0D01*
G01*
X8348750Y-14778750D02*
G75*
G03*
X8398750Y-14828750I50000J0D01*
G01*
X8398750Y-13428750D02*
X9698750Y-13428750D01*
X12685000Y-3903750D02*
X13985000Y-3903750D01*
X7367500Y-5858750D02*
G75*
G03*
X7317500Y-5808750I-50000J0D01*
G01*
X16971250Y-13428750D02*
X18271250Y-13428750D01*
X8348750Y-9063750D02*
X8348750Y-7763750D01*
X9698750Y-9113750D02*
G75*
G03*
X9748750Y-9063750I0J50000D01*
G01*
X16971250Y-3903750D02*
X18271250Y-3903750D01*
X34116250Y-9618750D02*
X35416250Y-9618750D01*
X42196250Y-2922500D02*
X3398750Y-2922500D01*
X4112500Y-9618750D02*
X5412500Y-9618750D01*
X10253750Y-5253750D02*
X10253750Y-3953750D01*
X10303750Y-3903750D02*
X11603750Y-3903750D01*
X28798750Y-3953750D02*
G75*
G03*
X28748750Y-3903750I-50000J0D01*
G01*
X35466250Y-13478750D02*
X35466250Y-14778750D01*
X10303750Y-11523750D02*
X11603750Y-11523750D01*
X31735000Y-9618750D02*
G75*
G03*
X31685000Y-9668750I0J-50000D01*
G01*
X15940000Y-13478750D02*
G75*
G03*
X15890000Y-13428750I-50000J0D01*
G01*
X18826250Y-12873750D02*
X18826250Y-11573750D01*
X22557500Y-12923750D02*
G75*
G03*
X22607500Y-12873750I0J50000D01*
G01*
X28748750Y-9113750D02*
G75*
G03*
X28798750Y-9063750I0J50000D01*
G01*
X22557500Y-7208750D02*
X21257500Y-7208750D01*
X33085000Y-5858750D02*
X33085000Y-7158750D01*
X8348750Y-9063750D02*
G75*
G03*
X8398750Y-9113750I50000J0D01*
G01*
X11603750Y-14828750D02*
X10303750Y-14828750D01*
X23112500Y-9063750D02*
X23112500Y-7763750D01*
X38352500Y-14778750D02*
X38352500Y-13478750D01*
X31685000Y-12873750D02*
X31685000Y-11573750D01*
X18271250Y-9113750D02*
G75*
G03*
X18321250Y-9063750I0J50000D01*
G01*
X14035000Y-11573750D02*
X14035000Y-12873750D01*
X7317500Y-5303750D02*
G75*
G03*
X7367500Y-5253750I0J50000D01*
G01*
X25493750Y-5253750D02*
G75*
G03*
X25543750Y-5303750I50000J0D01*
G01*
X22557500Y-11018750D02*
X21257500Y-11018750D01*
X27398750Y-10968750D02*
X27398750Y-9668750D01*
X35971250Y-9063750D02*
X35971250Y-7763750D01*
X28748750Y-9113750D02*
X27448750Y-9113750D01*
X16971250Y-7713750D02*
G75*
G03*
X16921250Y-7763750I0J-50000D01*
G01*
X33035000Y-7208750D02*
X31735000Y-7208750D01*
X42424741Y-3036554D02*
X42426327Y-3043352D01*
X42427715Y-3050275D01*
X42428918Y-3057321D01*
X42429949Y-3064490D01*
X42430823Y-3071782D01*
X42431551Y-3079197D01*
X42432147Y-3086734D01*
X42432624Y-3094393D01*
X42432996Y-3102173D01*
X42433275Y-3110074D01*
X42433475Y-3118096D01*
X42433609Y-3126238D01*
X42433691Y-3134500D01*
X42433732Y-3142881D01*
X42433748Y-3151381D01*
X42433750Y-3160000D01*
X18826250Y-10968750D02*
G75*
G03*
X18876250Y-11018750I50000J0D01*
G01*
X3283542Y-15802884D02*
X3277869Y-15801617D01*
X3272254Y-15800201D01*
X3266702Y-15798627D01*
X3261218Y-15796886D01*
X3255807Y-15794968D01*
X3250474Y-15792865D01*
X3245225Y-15790567D01*
X3240065Y-15788067D01*
X3234999Y-15785354D01*
X3230032Y-15782420D01*
X3226778Y-15780336D01*
X18321250Y-11573750D02*
G75*
G03*
X18271250Y-11523750I-50000J0D01*
G01*
X5412500Y-5303750D02*
X4112500Y-5303750D01*
X16971250Y-9618750D02*
G75*
G03*
X16921250Y-9668750I0J-50000D01*
G01*
X37371250Y-13478750D02*
G75*
G03*
X37321250Y-13428750I-50000J0D01*
G01*
X9698750Y-11018750D02*
G75*
G03*
X9748750Y-10968750I0J50000D01*
G01*
X26893750Y-9668750D02*
G75*
G03*
X26843750Y-9618750I-50000J0D01*
G01*
X5462500Y-13478750D02*
G75*
G03*
X5412500Y-13428750I-50000J0D01*
G01*
X21257500Y-3903750D02*
G75*
G03*
X21207500Y-3953750I0J-50000D01*
G01*
X16921250Y-5253750D02*
G75*
G03*
X16971250Y-5303750I50000J0D01*
G01*
X15940000Y-7763750D02*
X15940000Y-9063750D01*
X9748750Y-9668750D02*
G75*
G03*
X9698750Y-9618750I-50000J0D01*
G01*
X31685000Y-14778750D02*
X31685000Y-13478750D01*
X20176250Y-5303750D02*
G75*
G03*
X20226250Y-5253750I0J50000D01*
G01*
X37371250Y-5858750D02*
G75*
G03*
X37321250Y-5808750I-50000J0D01*
G01*
X20176250Y-12923750D02*
G75*
G03*
X20226250Y-12873750I0J50000D01*
G01*
X13985000Y-5303750D02*
X12685000Y-5303750D01*
X14035000Y-3953750D02*
X14035000Y-5253750D01*
X27398750Y-14778750D02*
G75*
G03*
X27448750Y-14828750I50000J0D01*
G01*
X10303750Y-5808750D02*
X11603750Y-5808750D01*
X33085000Y-5858750D02*
G75*
G03*
X33035000Y-5808750I-50000J0D01*
G01*
X33035000Y-14828750D02*
G75*
G03*
X33085000Y-14778750I0J50000D01*
G01*
X6017500Y-7713750D02*
G75*
G03*
X5967500Y-7763750I0J-50000D01*
G01*
X10253750Y-12873750D02*
G75*
G03*
X10303750Y-12923750I50000J0D01*
G01*
X39752500Y-5858750D02*
X39752500Y-7158750D01*
X28798750Y-7158750D02*
X28798750Y-5858750D01*
X31130000Y-7208750D02*
X29830000Y-7208750D01*
X33035000Y-11018750D02*
G75*
G03*
X33085000Y-10968750I0J50000D01*
G01*
X9698750Y-9113750D02*
X8398750Y-9113750D01*
X27398750Y-7158750D02*
G75*
G03*
X27448750Y-7208750I50000J0D01*
G01*
X5462500Y-3953750D02*
X5462500Y-5253750D01*
X22557500Y-11018750D02*
G75*
G03*
X22607500Y-10968750I0J50000D01*
G01*
X18321250Y-7763750D02*
G75*
G03*
X18271250Y-7713750I-50000J0D01*
G01*
X21257500Y-5303750D02*
X22557500Y-5303750D01*
X41607500Y-11018750D02*
G75*
G03*
X41657500Y-10968750I0J50000D01*
G01*
X4062500Y-5253750D02*
X4062500Y-3953750D01*
X26893750Y-3953750D02*
X26893750Y-5253750D01*
X8398750Y-9618750D02*
X9698750Y-9618750D01*
X34116250Y-5808750D02*
X35416250Y-5808750D01*
X18876250Y-11523750D02*
G75*
G03*
X18826250Y-11573750I0J-50000D01*
G01*
X31180000Y-10968750D02*
X31180000Y-9668750D01*
X7367500Y-9668750D02*
X7367500Y-10968750D01*
X4112500Y-9618750D02*
G75*
G03*
X4062500Y-9668750I0J-50000D01*
G01*
X40307500Y-9618750D02*
G75*
G03*
X40257500Y-9668750I0J-50000D01*
G01*
X28798750Y-7763750D02*
G75*
G03*
X28748750Y-7713750I-50000J0D01*
G01*
X21207500Y-9063750D02*
G75*
G03*
X21257500Y-9113750I50000J0D01*
G01*
X14540000Y-5253750D02*
G75*
G03*
X14590000Y-5303750I50000J0D01*
G01*
X29780000Y-5253750D02*
X29780000Y-3953750D01*
X10303750Y-5808750D02*
G75*
G03*
X10253750Y-5858750I0J-50000D01*
G01*
X16971250Y-11523750D02*
G75*
G03*
X16921250Y-11573750I0J-50000D01*
G01*
X11653750Y-5858750D02*
X11653750Y-7158750D01*
X41607500Y-9113750D02*
X40307500Y-9113750D01*
X21207500Y-10968750D02*
G75*
G03*
X21257500Y-11018750I50000J0D01*
G01*
X28798750Y-13478750D02*
X28798750Y-14778750D01*
X16971250Y-11523750D02*
X18271250Y-11523750D01*
X26843750Y-12923750D02*
X25543750Y-12923750D01*
X4112500Y-3903750D02*
X5412500Y-3903750D01*
X35971250Y-10968750D02*
G75*
G03*
X36021250Y-11018750I50000J0D01*
G01*
X33035000Y-7208750D02*
G75*
G03*
X33085000Y-7158750I0J50000D01*
G01*
X33085000Y-9668750D02*
G75*
G03*
X33035000Y-9618750I-50000J0D01*
G01*
X25493750Y-9063750D02*
G75*
G03*
X25543750Y-9113750I50000J0D01*
G01*
X23112500Y-12873750D02*
X23112500Y-11573750D01*
X16921250Y-9063750D02*
G75*
G03*
X16971250Y-9113750I50000J0D01*
G01*
X6017500Y-7208750D02*
X7317500Y-7208750D01*
X33035000Y-3903750D02*
X31735000Y-3903750D01*
X16971250Y-3903750D02*
G75*
G03*
X16921250Y-3953750I0J-50000D01*
G01*
X33035000Y-9113750D02*
G75*
G03*
X33085000Y-9063750I0J50000D01*
G01*
X33035000Y-12923750D02*
X31735000Y-12923750D01*
X23162500Y-13428750D02*
G75*
G03*
X23112500Y-13478750I0J-50000D01*
G01*
X38402500Y-13428750D02*
G75*
G03*
X38352500Y-13478750I0J-50000D01*
G01*
D11*
D12*
X3399375Y-3263125D02*
X3619375Y-3483125D01*
X3619375Y-3263125D02*
X3399375Y-3483125D01*
X3399375Y-15249375D02*
X3619375Y-15469375D01*
X3619375Y-15249375D02*
X3399375Y-15469375D01*
X4652500Y-5446250D02*
X4872500Y-5666250D01*
X4872500Y-5446250D02*
X4652500Y-5666250D01*
X4652500Y-13066250D02*
X4872500Y-13286250D01*
X4872500Y-13066250D02*
X4652500Y-13286250D01*
X13225000Y-5446250D02*
X13445000Y-5666250D01*
X13445000Y-5446250D02*
X13225000Y-5666250D01*
X13225000Y-13066250D02*
X13445000Y-13286250D01*
X13445000Y-13066250D02*
X13225000Y-13286250D01*
X16258125Y-3263125D02*
X16478125Y-3483125D01*
X16478125Y-3263125D02*
X16258125Y-3483125D01*
X16258125Y-15249375D02*
X16478125Y-15469375D01*
X16478125Y-15249375D02*
X16258125Y-15469375D01*
X21797500Y-5446250D02*
X22017500Y-5666250D01*
X22017500Y-5446250D02*
X21797500Y-5666250D01*
X21797500Y-13066250D02*
X22017500Y-13286250D01*
X22017500Y-13066250D02*
X21797500Y-13286250D01*
X29116875Y-3263125D02*
X29336875Y-3483125D01*
X29336875Y-3263125D02*
X29116875Y-3483125D01*
X29116875Y-15249375D02*
X29336875Y-15469375D01*
X29336875Y-15249375D02*
X29116875Y-15469375D01*
X30370000Y-5446250D02*
X30590000Y-5666250D01*
X30590000Y-5446250D02*
X30370000Y-5666250D01*
X30370000Y-13066250D02*
X30590000Y-13286250D01*
X30590000Y-13066250D02*
X30370000Y-13286250D01*
X38942500Y-5446250D02*
X39162500Y-5666250D01*
X39162500Y-5446250D02*
X38942500Y-5666250D01*
X38942500Y-13066250D02*
X39162500Y-13286250D01*
X39162500Y-13066250D02*
X38942500Y-13286250D01*
X41975625Y-3263125D02*
X42195625Y-3483125D01*
X42195625Y-3263125D02*
X41975625Y-3483125D01*
X41975625Y-15249375D02*
X42195625Y-15469375D01*
X42195625Y-15249375D02*
X41975625Y-15469375D01*
D11*
X3419527Y-16123984D02*
X3419527Y-15923984D01*
X3419527Y-15923984D02*
X3467146Y-15923984D01*
X3467146Y-15923984D02*
X3495717Y-15933508D01*
X3495717Y-15933508D02*
X3514765Y-15952555D01*
X3514765Y-15952555D02*
X3524289Y-15971603D01*
X3524289Y-15971603D02*
X3533812Y-16009698D01*
X3533812Y-16009698D02*
X3533812Y-16038269D01*
X3533812Y-16038269D02*
X3524289Y-16076365D01*
X3524289Y-16076365D02*
X3514765Y-16095412D01*
X3514765Y-16095412D02*
X3495717Y-16114460D01*
X3495717Y-16114460D02*
X3467146Y-16123984D01*
X3467146Y-16123984D02*
X3419527Y-16123984D01*
X3619527Y-16123984D02*
X3619527Y-15990650D01*
X3619527Y-16028746D02*
X3629051Y-16009698D01*
X3629051Y-16009698D02*
X3638574Y-16000174D01*
X3638574Y-16000174D02*
X3657622Y-15990650D01*
X3657622Y-15990650D02*
X3676670Y-15990650D01*
X3743336Y-16123984D02*
X3743336Y-15990650D01*
X3743336Y-15923984D02*
X3733812Y-15933508D01*
X3733812Y-15933508D02*
X3743336Y-15943031D01*
X3743336Y-15943031D02*
X3752860Y-15933508D01*
X3752860Y-15933508D02*
X3743336Y-15923984D01*
X3743336Y-15923984D02*
X3743336Y-15943031D01*
X3867146Y-16123984D02*
X3848098Y-16114460D01*
X3848098Y-16114460D02*
X3838574Y-16095412D01*
X3838574Y-16095412D02*
X3838574Y-15923984D01*
X3971908Y-16123984D02*
X3952860Y-16114460D01*
X3952860Y-16114460D02*
X3943336Y-16095412D01*
X3943336Y-16095412D02*
X3943336Y-15923984D01*
X4200479Y-16123984D02*
X4200479Y-15923984D01*
X4200479Y-15923984D02*
X4267146Y-16066841D01*
X4267146Y-16066841D02*
X4333813Y-15923984D01*
X4333813Y-15923984D02*
X4333813Y-16123984D01*
X4514765Y-16123984D02*
X4514765Y-16019222D01*
X4514765Y-16019222D02*
X4505241Y-16000174D01*
X4505241Y-16000174D02*
X4486194Y-15990650D01*
X4486194Y-15990650D02*
X4448098Y-15990650D01*
X4448098Y-15990650D02*
X4429051Y-16000174D01*
X4514765Y-16114460D02*
X4495717Y-16123984D01*
X4495717Y-16123984D02*
X4448098Y-16123984D01*
X4448098Y-16123984D02*
X4429051Y-16114460D01*
X4429051Y-16114460D02*
X4419527Y-16095412D01*
X4419527Y-16095412D02*
X4419527Y-16076365D01*
X4419527Y-16076365D02*
X4429051Y-16057317D01*
X4429051Y-16057317D02*
X4448098Y-16047793D01*
X4448098Y-16047793D02*
X4495717Y-16047793D01*
X4495717Y-16047793D02*
X4514765Y-16038269D01*
X4610003Y-15990650D02*
X4610003Y-16190650D01*
X4610003Y-16000174D02*
X4629051Y-15990650D01*
X4629051Y-15990650D02*
X4667146Y-15990650D01*
X4667146Y-15990650D02*
X4686194Y-16000174D01*
X4686194Y-16000174D02*
X4695717Y-16009698D01*
X4695717Y-16009698D02*
X4705241Y-16028746D01*
X4705241Y-16028746D02*
X4705241Y-16085888D01*
X4705241Y-16085888D02*
X4695717Y-16104936D01*
X4695717Y-16104936D02*
X4686194Y-16114460D01*
X4686194Y-16114460D02*
X4667146Y-16123984D01*
X4667146Y-16123984D02*
X4629051Y-16123984D01*
X4629051Y-16123984D02*
X4610003Y-16114460D01*
X4790955Y-16104936D02*
X4800479Y-16114460D01*
X4800479Y-16114460D02*
X4790955Y-16123984D01*
X4790955Y-16123984D02*
X4781432Y-16114460D01*
X4781432Y-16114460D02*
X4790955Y-16104936D01*
X4790955Y-16104936D02*
X4790955Y-16123984D01*
X4790955Y-16000174D02*
X4800479Y-16009698D01*
X4800479Y-16009698D02*
X4790955Y-16019222D01*
X4790955Y-16019222D02*
X4781432Y-16009698D01*
X4781432Y-16009698D02*
X4790955Y-16000174D01*
X4790955Y-16000174D02*
X4790955Y-16019222D01*
X2958750Y-16352500D02*
X3158750Y-16552500D01*
X3158750Y-16352500D02*
X2958750Y-16552500D01*
X3410003Y-16363031D02*
X3419527Y-16353508D01*
X3419527Y-16353508D02*
X3438574Y-16343984D01*
X3438574Y-16343984D02*
X3486193Y-16343984D01*
X3486193Y-16343984D02*
X3505241Y-16353508D01*
X3505241Y-16353508D02*
X3514765Y-16363031D01*
X3514765Y-16363031D02*
X3524289Y-16382079D01*
X3524289Y-16382079D02*
X3524289Y-16401127D01*
X3524289Y-16401127D02*
X3514765Y-16429698D01*
X3514765Y-16429698D02*
X3400479Y-16543984D01*
X3400479Y-16543984D02*
X3524289Y-16543984D01*
X3610003Y-16524936D02*
X3619527Y-16534460D01*
X3619527Y-16534460D02*
X3610003Y-16543984D01*
X3610003Y-16543984D02*
X3600479Y-16534460D01*
X3600479Y-16534460D02*
X3610003Y-16524936D01*
X3610003Y-16524936D02*
X3610003Y-16543984D01*
X3695717Y-16363031D02*
X3705241Y-16353508D01*
X3705241Y-16353508D02*
X3724289Y-16343984D01*
X3724289Y-16343984D02*
X3771908Y-16343984D01*
X3771908Y-16343984D02*
X3790955Y-16353508D01*
X3790955Y-16353508D02*
X3800479Y-16363031D01*
X3800479Y-16363031D02*
X3810003Y-16382079D01*
X3810003Y-16382079D02*
X3810003Y-16401127D01*
X3810003Y-16401127D02*
X3800479Y-16429698D01*
X3800479Y-16429698D02*
X3686193Y-16543984D01*
X3686193Y-16543984D02*
X3810003Y-16543984D01*
X3933812Y-16343984D02*
X3952860Y-16343984D01*
X3952860Y-16343984D02*
X3971908Y-16353508D01*
X3971908Y-16353508D02*
X3981432Y-16363031D01*
X3981432Y-16363031D02*
X3990955Y-16382079D01*
X3990955Y-16382079D02*
X4000479Y-16420174D01*
X4000479Y-16420174D02*
X4000479Y-16467793D01*
X4000479Y-16467793D02*
X3990955Y-16505888D01*
X3990955Y-16505888D02*
X3981432Y-16524936D01*
X3981432Y-16524936D02*
X3971908Y-16534460D01*
X3971908Y-16534460D02*
X3952860Y-16543984D01*
X3952860Y-16543984D02*
X3933812Y-16543984D01*
X3933812Y-16543984D02*
X3914765Y-16534460D01*
X3914765Y-16534460D02*
X3905241Y-16524936D01*
X3905241Y-16524936D02*
X3895717Y-16505888D01*
X3895717Y-16505888D02*
X3886193Y-16467793D01*
X3886193Y-16467793D02*
X3886193Y-16420174D01*
X3886193Y-16420174D02*
X3895717Y-16382079D01*
X3895717Y-16382079D02*
X3905241Y-16363031D01*
X3905241Y-16363031D02*
X3914765Y-16353508D01*
X3914765Y-16353508D02*
X3933812Y-16343984D01*
X4124289Y-16343984D02*
X4143336Y-16343984D01*
X4143336Y-16343984D02*
X4162384Y-16353508D01*
X4162384Y-16353508D02*
X4171908Y-16363031D01*
X4171908Y-16363031D02*
X4181432Y-16382079D01*
X4181432Y-16382079D02*
X4190955Y-16420174D01*
X4190955Y-16420174D02*
X4190955Y-16467793D01*
X4190955Y-16467793D02*
X4181432Y-16505888D01*
X4181432Y-16505888D02*
X4171908Y-16524936D01*
X4171908Y-16524936D02*
X4162384Y-16534460D01*
X4162384Y-16534460D02*
X4143336Y-16543984D01*
X4143336Y-16543984D02*
X4124289Y-16543984D01*
X4124289Y-16543984D02*
X4105241Y-16534460D01*
X4105241Y-16534460D02*
X4095717Y-16524936D01*
X4095717Y-16524936D02*
X4086193Y-16505888D01*
X4086193Y-16505888D02*
X4076670Y-16467793D01*
X4076670Y-16467793D02*
X4076670Y-16420174D01*
X4076670Y-16420174D02*
X4086193Y-16382079D01*
X4086193Y-16382079D02*
X4095717Y-16363031D01*
X4095717Y-16363031D02*
X4105241Y-16353508D01*
X4105241Y-16353508D02*
X4124289Y-16343984D01*
X4276670Y-16543984D02*
X4276670Y-16410650D01*
X4276670Y-16429698D02*
X4286194Y-16420174D01*
X4286194Y-16420174D02*
X4305241Y-16410650D01*
X4305241Y-16410650D02*
X4333813Y-16410650D01*
X4333813Y-16410650D02*
X4352860Y-16420174D01*
X4352860Y-16420174D02*
X4362384Y-16439222D01*
X4362384Y-16439222D02*
X4362384Y-16543984D01*
X4362384Y-16439222D02*
X4371908Y-16420174D01*
X4371908Y-16420174D02*
X4390955Y-16410650D01*
X4390955Y-16410650D02*
X4419527Y-16410650D01*
X4419527Y-16410650D02*
X4438575Y-16420174D01*
X4438575Y-16420174D02*
X4448098Y-16439222D01*
X4448098Y-16439222D02*
X4448098Y-16543984D01*
X4543336Y-16543984D02*
X4543336Y-16410650D01*
X4543336Y-16429698D02*
X4552860Y-16420174D01*
X4552860Y-16420174D02*
X4571908Y-16410650D01*
X4571908Y-16410650D02*
X4600479Y-16410650D01*
X4600479Y-16410650D02*
X4619527Y-16420174D01*
X4619527Y-16420174D02*
X4629051Y-16439222D01*
X4629051Y-16439222D02*
X4629051Y-16543984D01*
X4629051Y-16439222D02*
X4638575Y-16420174D01*
X4638575Y-16420174D02*
X4657622Y-16410650D01*
X4657622Y-16410650D02*
X4686194Y-16410650D01*
X4686194Y-16410650D02*
X4705241Y-16420174D01*
X4705241Y-16420174D02*
X4714765Y-16439222D01*
X4714765Y-16439222D02*
X4714765Y-16543984D01*
X5105241Y-16334460D02*
X4933813Y-16591603D01*
X5362384Y-16343984D02*
X5381432Y-16343984D01*
X5381432Y-16343984D02*
X5400479Y-16353508D01*
X5400479Y-16353508D02*
X5410003Y-16363031D01*
X5410003Y-16363031D02*
X5419527Y-16382079D01*
X5419527Y-16382079D02*
X5429051Y-16420174D01*
X5429051Y-16420174D02*
X5429051Y-16467793D01*
X5429051Y-16467793D02*
X5419527Y-16505888D01*
X5419527Y-16505888D02*
X5410003Y-16524936D01*
X5410003Y-16524936D02*
X5400479Y-16534460D01*
X5400479Y-16534460D02*
X5381432Y-16543984D01*
X5381432Y-16543984D02*
X5362384Y-16543984D01*
X5362384Y-16543984D02*
X5343337Y-16534460D01*
X5343337Y-16534460D02*
X5333813Y-16524936D01*
X5333813Y-16524936D02*
X5324289Y-16505888D01*
X5324289Y-16505888D02*
X5314765Y-16467793D01*
X5314765Y-16467793D02*
X5314765Y-16420174D01*
X5314765Y-16420174D02*
X5324289Y-16382079D01*
X5324289Y-16382079D02*
X5333813Y-16363031D01*
X5333813Y-16363031D02*
X5343337Y-16353508D01*
X5343337Y-16353508D02*
X5362384Y-16343984D01*
X5514765Y-16524936D02*
X5524289Y-16534460D01*
X5524289Y-16534460D02*
X5514765Y-16543984D01*
X5514765Y-16543984D02*
X5505241Y-16534460D01*
X5505241Y-16534460D02*
X5514765Y-16524936D01*
X5514765Y-16524936D02*
X5514765Y-16543984D01*
X5648098Y-16343984D02*
X5667146Y-16343984D01*
X5667146Y-16343984D02*
X5686194Y-16353508D01*
X5686194Y-16353508D02*
X5695717Y-16363031D01*
X5695717Y-16363031D02*
X5705241Y-16382079D01*
X5705241Y-16382079D02*
X5714765Y-16420174D01*
X5714765Y-16420174D02*
X5714765Y-16467793D01*
X5714765Y-16467793D02*
X5705241Y-16505888D01*
X5705241Y-16505888D02*
X5695717Y-16524936D01*
X5695717Y-16524936D02*
X5686194Y-16534460D01*
X5686194Y-16534460D02*
X5667146Y-16543984D01*
X5667146Y-16543984D02*
X5648098Y-16543984D01*
X5648098Y-16543984D02*
X5629051Y-16534460D01*
X5629051Y-16534460D02*
X5619527Y-16524936D01*
X5619527Y-16524936D02*
X5610003Y-16505888D01*
X5610003Y-16505888D02*
X5600479Y-16467793D01*
X5600479Y-16467793D02*
X5600479Y-16420174D01*
X5600479Y-16420174D02*
X5610003Y-16382079D01*
X5610003Y-16382079D02*
X5619527Y-16363031D01*
X5619527Y-16363031D02*
X5629051Y-16353508D01*
X5629051Y-16353508D02*
X5648098Y-16343984D01*
X5829051Y-16429698D02*
X5810003Y-16420174D01*
X5810003Y-16420174D02*
X5800479Y-16410650D01*
X5800479Y-16410650D02*
X5790956Y-16391603D01*
X5790956Y-16391603D02*
X5790956Y-16382079D01*
X5790956Y-16382079D02*
X5800479Y-16363031D01*
X5800479Y-16363031D02*
X5810003Y-16353508D01*
X5810003Y-16353508D02*
X5829051Y-16343984D01*
X5829051Y-16343984D02*
X5867146Y-16343984D01*
X5867146Y-16343984D02*
X5886194Y-16353508D01*
X5886194Y-16353508D02*
X5895717Y-16363031D01*
X5895717Y-16363031D02*
X5905241Y-16382079D01*
X5905241Y-16382079D02*
X5905241Y-16391603D01*
X5905241Y-16391603D02*
X5895717Y-16410650D01*
X5895717Y-16410650D02*
X5886194Y-16420174D01*
X5886194Y-16420174D02*
X5867146Y-16429698D01*
X5867146Y-16429698D02*
X5829051Y-16429698D01*
X5829051Y-16429698D02*
X5810003Y-16439222D01*
X5810003Y-16439222D02*
X5800479Y-16448746D01*
X5800479Y-16448746D02*
X5790956Y-16467793D01*
X5790956Y-16467793D02*
X5790956Y-16505888D01*
X5790956Y-16505888D02*
X5800479Y-16524936D01*
X5800479Y-16524936D02*
X5810003Y-16534460D01*
X5810003Y-16534460D02*
X5829051Y-16543984D01*
X5829051Y-16543984D02*
X5867146Y-16543984D01*
X5867146Y-16543984D02*
X5886194Y-16534460D01*
X5886194Y-16534460D02*
X5895717Y-16524936D01*
X5895717Y-16524936D02*
X5905241Y-16505888D01*
X5905241Y-16505888D02*
X5905241Y-16467793D01*
X5905241Y-16467793D02*
X5895717Y-16448746D01*
X5895717Y-16448746D02*
X5886194Y-16439222D01*
X5886194Y-16439222D02*
X5867146Y-16429698D01*
X6076670Y-16343984D02*
X6038575Y-16343984D01*
X6038575Y-16343984D02*
X6019527Y-16353508D01*
X6019527Y-16353508D02*
X6010003Y-16363031D01*
X6010003Y-16363031D02*
X5990956Y-16391603D01*
X5990956Y-16391603D02*
X5981432Y-16429698D01*
X5981432Y-16429698D02*
X5981432Y-16505888D01*
X5981432Y-16505888D02*
X5990956Y-16524936D01*
X5990956Y-16524936D02*
X6000479Y-16534460D01*
X6000479Y-16534460D02*
X6019527Y-16543984D01*
X6019527Y-16543984D02*
X6057622Y-16543984D01*
X6057622Y-16543984D02*
X6076670Y-16534460D01*
X6076670Y-16534460D02*
X6086194Y-16524936D01*
X6086194Y-16524936D02*
X6095717Y-16505888D01*
X6095717Y-16505888D02*
X6095717Y-16458269D01*
X6095717Y-16458269D02*
X6086194Y-16439222D01*
X6086194Y-16439222D02*
X6076670Y-16429698D01*
X6076670Y-16429698D02*
X6057622Y-16420174D01*
X6057622Y-16420174D02*
X6019527Y-16420174D01*
X6019527Y-16420174D02*
X6000479Y-16429698D01*
X6000479Y-16429698D02*
X5990956Y-16439222D01*
X5990956Y-16439222D02*
X5981432Y-16458269D01*
X6267146Y-16343984D02*
X6229051Y-16343984D01*
X6229051Y-16343984D02*
X6210003Y-16353508D01*
X6210003Y-16353508D02*
X6200479Y-16363031D01*
X6200479Y-16363031D02*
X6181432Y-16391603D01*
X6181432Y-16391603D02*
X6171908Y-16429698D01*
X6171908Y-16429698D02*
X6171908Y-16505888D01*
X6171908Y-16505888D02*
X6181432Y-16524936D01*
X6181432Y-16524936D02*
X6190956Y-16534460D01*
X6190956Y-16534460D02*
X6210003Y-16543984D01*
X6210003Y-16543984D02*
X6248098Y-16543984D01*
X6248098Y-16543984D02*
X6267146Y-16534460D01*
X6267146Y-16534460D02*
X6276670Y-16524936D01*
X6276670Y-16524936D02*
X6286194Y-16505888D01*
X6286194Y-16505888D02*
X6286194Y-16458269D01*
X6286194Y-16458269D02*
X6276670Y-16439222D01*
X6276670Y-16439222D02*
X6267146Y-16429698D01*
X6267146Y-16429698D02*
X6248098Y-16420174D01*
X6248098Y-16420174D02*
X6210003Y-16420174D01*
X6210003Y-16420174D02*
X6190956Y-16429698D01*
X6190956Y-16429698D02*
X6181432Y-16439222D01*
X6181432Y-16439222D02*
X6171908Y-16458269D01*
X6362384Y-16343984D02*
X6362384Y-16382079D01*
X6438575Y-16343984D02*
X6438575Y-16382079D01*
X6733813Y-16620174D02*
X6724289Y-16610650D01*
X6724289Y-16610650D02*
X6705241Y-16582079D01*
X6705241Y-16582079D02*
X6695718Y-16563031D01*
X6695718Y-16563031D02*
X6686194Y-16534460D01*
X6686194Y-16534460D02*
X6676670Y-16486841D01*
X6676670Y-16486841D02*
X6676670Y-16448746D01*
X6676670Y-16448746D02*
X6686194Y-16401127D01*
X6686194Y-16401127D02*
X6695718Y-16372555D01*
X6695718Y-16372555D02*
X6705241Y-16353508D01*
X6705241Y-16353508D02*
X6724289Y-16324936D01*
X6724289Y-16324936D02*
X6733813Y-16315412D01*
X6914765Y-16543984D02*
X6800479Y-16543984D01*
X6857622Y-16543984D02*
X6857622Y-16343984D01*
X6857622Y-16343984D02*
X6838575Y-16372555D01*
X6838575Y-16372555D02*
X6819527Y-16391603D01*
X6819527Y-16391603D02*
X6800479Y-16401127D01*
X7029051Y-16429698D02*
X7010003Y-16420174D01*
X7010003Y-16420174D02*
X7000479Y-16410650D01*
X7000479Y-16410650D02*
X6990956Y-16391603D01*
X6990956Y-16391603D02*
X6990956Y-16382079D01*
X6990956Y-16382079D02*
X7000479Y-16363031D01*
X7000479Y-16363031D02*
X7010003Y-16353508D01*
X7010003Y-16353508D02*
X7029051Y-16343984D01*
X7029051Y-16343984D02*
X7067146Y-16343984D01*
X7067146Y-16343984D02*
X7086194Y-16353508D01*
X7086194Y-16353508D02*
X7095718Y-16363031D01*
X7095718Y-16363031D02*
X7105241Y-16382079D01*
X7105241Y-16382079D02*
X7105241Y-16391603D01*
X7105241Y-16391603D02*
X7095718Y-16410650D01*
X7095718Y-16410650D02*
X7086194Y-16420174D01*
X7086194Y-16420174D02*
X7067146Y-16429698D01*
X7067146Y-16429698D02*
X7029051Y-16429698D01*
X7029051Y-16429698D02*
X7010003Y-16439222D01*
X7010003Y-16439222D02*
X7000479Y-16448746D01*
X7000479Y-16448746D02*
X6990956Y-16467793D01*
X6990956Y-16467793D02*
X6990956Y-16505888D01*
X6990956Y-16505888D02*
X7000479Y-16524936D01*
X7000479Y-16524936D02*
X7010003Y-16534460D01*
X7010003Y-16534460D02*
X7029051Y-16543984D01*
X7029051Y-16543984D02*
X7067146Y-16543984D01*
X7067146Y-16543984D02*
X7086194Y-16534460D01*
X7086194Y-16534460D02*
X7095718Y-16524936D01*
X7095718Y-16524936D02*
X7105241Y-16505888D01*
X7105241Y-16505888D02*
X7105241Y-16467793D01*
X7105241Y-16467793D02*
X7095718Y-16448746D01*
X7095718Y-16448746D02*
X7086194Y-16439222D01*
X7086194Y-16439222D02*
X7067146Y-16429698D01*
X7343337Y-16543984D02*
X7343337Y-16343984D01*
X7429051Y-16543984D02*
X7429051Y-16439222D01*
X7429051Y-16439222D02*
X7419527Y-16420174D01*
X7419527Y-16420174D02*
X7400480Y-16410650D01*
X7400480Y-16410650D02*
X7371908Y-16410650D01*
X7371908Y-16410650D02*
X7352860Y-16420174D01*
X7352860Y-16420174D02*
X7343337Y-16429698D01*
X7552860Y-16543984D02*
X7533813Y-16534460D01*
X7533813Y-16534460D02*
X7524289Y-16524936D01*
X7524289Y-16524936D02*
X7514765Y-16505888D01*
X7514765Y-16505888D02*
X7514765Y-16448746D01*
X7514765Y-16448746D02*
X7524289Y-16429698D01*
X7524289Y-16429698D02*
X7533813Y-16420174D01*
X7533813Y-16420174D02*
X7552860Y-16410650D01*
X7552860Y-16410650D02*
X7581432Y-16410650D01*
X7581432Y-16410650D02*
X7600480Y-16420174D01*
X7600480Y-16420174D02*
X7610003Y-16429698D01*
X7610003Y-16429698D02*
X7619527Y-16448746D01*
X7619527Y-16448746D02*
X7619527Y-16505888D01*
X7619527Y-16505888D02*
X7610003Y-16524936D01*
X7610003Y-16524936D02*
X7600480Y-16534460D01*
X7600480Y-16534460D02*
X7581432Y-16543984D01*
X7581432Y-16543984D02*
X7552860Y-16543984D01*
X7733813Y-16543984D02*
X7714765Y-16534460D01*
X7714765Y-16534460D02*
X7705241Y-16515412D01*
X7705241Y-16515412D02*
X7705241Y-16343984D01*
X7886194Y-16534460D02*
X7867146Y-16543984D01*
X7867146Y-16543984D02*
X7829051Y-16543984D01*
X7829051Y-16543984D02*
X7810003Y-16534460D01*
X7810003Y-16534460D02*
X7800480Y-16515412D01*
X7800480Y-16515412D02*
X7800480Y-16439222D01*
X7800480Y-16439222D02*
X7810003Y-16420174D01*
X7810003Y-16420174D02*
X7829051Y-16410650D01*
X7829051Y-16410650D02*
X7867146Y-16410650D01*
X7867146Y-16410650D02*
X7886194Y-16420174D01*
X7886194Y-16420174D02*
X7895718Y-16439222D01*
X7895718Y-16439222D02*
X7895718Y-16458269D01*
X7895718Y-16458269D02*
X7800480Y-16477317D01*
X7971908Y-16534460D02*
X7990956Y-16543984D01*
X7990956Y-16543984D02*
X8029051Y-16543984D01*
X8029051Y-16543984D02*
X8048099Y-16534460D01*
X8048099Y-16534460D02*
X8057622Y-16515412D01*
X8057622Y-16515412D02*
X8057622Y-16505888D01*
X8057622Y-16505888D02*
X8048099Y-16486841D01*
X8048099Y-16486841D02*
X8029051Y-16477317D01*
X8029051Y-16477317D02*
X8000480Y-16477317D01*
X8000480Y-16477317D02*
X7981432Y-16467793D01*
X7981432Y-16467793D02*
X7971908Y-16448746D01*
X7971908Y-16448746D02*
X7971908Y-16439222D01*
X7971908Y-16439222D02*
X7981432Y-16420174D01*
X7981432Y-16420174D02*
X8000480Y-16410650D01*
X8000480Y-16410650D02*
X8029051Y-16410650D01*
X8029051Y-16410650D02*
X8048099Y-16420174D01*
X8124289Y-16620174D02*
X8133813Y-16610650D01*
X8133813Y-16610650D02*
X8152861Y-16582079D01*
X8152861Y-16582079D02*
X8162384Y-16563031D01*
X8162384Y-16563031D02*
X8171908Y-16534460D01*
X8171908Y-16534460D02*
X8181432Y-16486841D01*
X8181432Y-16486841D02*
X8181432Y-16448746D01*
X8181432Y-16448746D02*
X8171908Y-16401127D01*
X8171908Y-16401127D02*
X8162384Y-16372555D01*
X8162384Y-16372555D02*
X8152861Y-16353508D01*
X8152861Y-16353508D02*
X8133813Y-16324936D01*
X8133813Y-16324936D02*
X8124289Y-16315412D01*
X8486194Y-16620174D02*
X8476670Y-16610650D01*
X8476670Y-16610650D02*
X8457623Y-16582079D01*
X8457623Y-16582079D02*
X8448099Y-16563031D01*
X8448099Y-16563031D02*
X8438575Y-16534460D01*
X8438575Y-16534460D02*
X8429051Y-16486841D01*
X8429051Y-16486841D02*
X8429051Y-16448746D01*
X8429051Y-16448746D02*
X8438575Y-16401127D01*
X8438575Y-16401127D02*
X8448099Y-16372555D01*
X8448099Y-16372555D02*
X8457623Y-16353508D01*
X8457623Y-16353508D02*
X8476670Y-16324936D01*
X8476670Y-16324936D02*
X8486194Y-16315412D01*
X8562384Y-16410650D02*
X8562384Y-16543984D01*
X8562384Y-16429698D02*
X8571908Y-16420174D01*
X8571908Y-16420174D02*
X8590956Y-16410650D01*
X8590956Y-16410650D02*
X8619527Y-16410650D01*
X8619527Y-16410650D02*
X8638575Y-16420174D01*
X8638575Y-16420174D02*
X8648099Y-16439222D01*
X8648099Y-16439222D02*
X8648099Y-16543984D01*
X8771908Y-16543984D02*
X8752861Y-16534460D01*
X8752861Y-16534460D02*
X8743337Y-16524936D01*
X8743337Y-16524936D02*
X8733813Y-16505888D01*
X8733813Y-16505888D02*
X8733813Y-16448746D01*
X8733813Y-16448746D02*
X8743337Y-16429698D01*
X8743337Y-16429698D02*
X8752861Y-16420174D01*
X8752861Y-16420174D02*
X8771908Y-16410650D01*
X8771908Y-16410650D02*
X8800480Y-16410650D01*
X8800480Y-16410650D02*
X8819527Y-16420174D01*
X8819527Y-16420174D02*
X8829051Y-16429698D01*
X8829051Y-16429698D02*
X8838575Y-16448746D01*
X8838575Y-16448746D02*
X8838575Y-16505888D01*
X8838575Y-16505888D02*
X8829051Y-16524936D01*
X8829051Y-16524936D02*
X8819527Y-16534460D01*
X8819527Y-16534460D02*
X8800480Y-16543984D01*
X8800480Y-16543984D02*
X8771908Y-16543984D01*
X8895718Y-16410650D02*
X8971908Y-16410650D01*
X8924289Y-16343984D02*
X8924289Y-16515412D01*
X8924289Y-16515412D02*
X8933813Y-16534460D01*
X8933813Y-16534460D02*
X8952861Y-16543984D01*
X8952861Y-16543984D02*
X8971908Y-16543984D01*
X9190956Y-16410650D02*
X9190956Y-16610650D01*
X9190956Y-16420174D02*
X9210004Y-16410650D01*
X9210004Y-16410650D02*
X9248099Y-16410650D01*
X9248099Y-16410650D02*
X9267146Y-16420174D01*
X9267146Y-16420174D02*
X9276670Y-16429698D01*
X9276670Y-16429698D02*
X9286194Y-16448746D01*
X9286194Y-16448746D02*
X9286194Y-16505888D01*
X9286194Y-16505888D02*
X9276670Y-16524936D01*
X9276670Y-16524936D02*
X9267146Y-16534460D01*
X9267146Y-16534460D02*
X9248099Y-16543984D01*
X9248099Y-16543984D02*
X9210004Y-16543984D01*
X9210004Y-16543984D02*
X9190956Y-16534460D01*
X9400480Y-16543984D02*
X9381432Y-16534460D01*
X9381432Y-16534460D02*
X9371908Y-16515412D01*
X9371908Y-16515412D02*
X9371908Y-16343984D01*
X9562385Y-16543984D02*
X9562385Y-16439222D01*
X9562385Y-16439222D02*
X9552861Y-16420174D01*
X9552861Y-16420174D02*
X9533813Y-16410650D01*
X9533813Y-16410650D02*
X9495718Y-16410650D01*
X9495718Y-16410650D02*
X9476670Y-16420174D01*
X9562385Y-16534460D02*
X9543337Y-16543984D01*
X9543337Y-16543984D02*
X9495718Y-16543984D01*
X9495718Y-16543984D02*
X9476670Y-16534460D01*
X9476670Y-16534460D02*
X9467146Y-16515412D01*
X9467146Y-16515412D02*
X9467146Y-16496365D01*
X9467146Y-16496365D02*
X9476670Y-16477317D01*
X9476670Y-16477317D02*
X9495718Y-16467793D01*
X9495718Y-16467793D02*
X9543337Y-16467793D01*
X9543337Y-16467793D02*
X9562385Y-16458269D01*
X9629051Y-16410650D02*
X9705242Y-16410650D01*
X9657623Y-16343984D02*
X9657623Y-16515412D01*
X9657623Y-16515412D02*
X9667146Y-16534460D01*
X9667146Y-16534460D02*
X9686194Y-16543984D01*
X9686194Y-16543984D02*
X9705242Y-16543984D01*
X9848099Y-16534460D02*
X9829051Y-16543984D01*
X9829051Y-16543984D02*
X9790956Y-16543984D01*
X9790956Y-16543984D02*
X9771908Y-16534460D01*
X9771908Y-16534460D02*
X9762385Y-16515412D01*
X9762385Y-16515412D02*
X9762385Y-16439222D01*
X9762385Y-16439222D02*
X9771908Y-16420174D01*
X9771908Y-16420174D02*
X9790956Y-16410650D01*
X9790956Y-16410650D02*
X9829051Y-16410650D01*
X9829051Y-16410650D02*
X9848099Y-16420174D01*
X9848099Y-16420174D02*
X9857623Y-16439222D01*
X9857623Y-16439222D02*
X9857623Y-16458269D01*
X9857623Y-16458269D02*
X9762385Y-16477317D01*
X10029051Y-16543984D02*
X10029051Y-16343984D01*
X10029051Y-16534460D02*
X10010004Y-16543984D01*
X10010004Y-16543984D02*
X9971908Y-16543984D01*
X9971908Y-16543984D02*
X9952861Y-16534460D01*
X9952861Y-16534460D02*
X9943337Y-16524936D01*
X9943337Y-16524936D02*
X9933813Y-16505888D01*
X9933813Y-16505888D02*
X9933813Y-16448746D01*
X9933813Y-16448746D02*
X9943337Y-16429698D01*
X9943337Y-16429698D02*
X9952861Y-16420174D01*
X9952861Y-16420174D02*
X9971908Y-16410650D01*
X9971908Y-16410650D02*
X10010004Y-16410650D01*
X10010004Y-16410650D02*
X10029051Y-16420174D01*
X10105242Y-16620174D02*
X10114766Y-16610650D01*
X10114766Y-16610650D02*
X10133813Y-16582079D01*
X10133813Y-16582079D02*
X10143337Y-16563031D01*
X10143337Y-16563031D02*
X10152861Y-16534460D01*
X10152861Y-16534460D02*
X10162385Y-16486841D01*
X10162385Y-16486841D02*
X10162385Y-16448746D01*
X10162385Y-16448746D02*
X10152861Y-16401127D01*
X10152861Y-16401127D02*
X10143337Y-16372555D01*
X10143337Y-16372555D02*
X10133813Y-16353508D01*
X10133813Y-16353508D02*
X10114766Y-16324936D01*
X10114766Y-16324936D02*
X10105242Y-16315412D01*
M02*
